<?xml version="1.0" encoding="utf-8"?>
<!-- Generator: Adobe Illustrator 19.0.0, SVG Export Plug-In . SVG Version: 6.00 Build 0)  -->
<svg version="1.1" xmlns="http://www.w3.org/2000/svg" xmlns:xlink="http://www.w3.org/1999/xlink" x="0px" y="0px"
	 viewBox="0 0 70 70" style="enable-background:new 0 0 70 70;" xml:space="preserve">
<style type="text/css">
	.st2{fill:#FFFFFF;}
</style>
<g id="tabs-shadow">
	<path id="casino-games_1_" d="M3,19.1v33.8c0,1.5,0.9,2.9,2.3,3.5L31,67.8c1.3,0.6,2.7-0.4,2.7-1.8V31c0-0.8-0.4-1.4-1.1-1.8
		L5.7,17.3C4.5,16.7,3,17.7,3,19.1L3,19.1z M17.5,36.3c1.7-0.1,3.1,2,3.3,4.8c0.2,2.8-1,5.1-2.7,5.2c-1.7,0.1-3.1-2-3.3-4.8
		C14.7,38.7,15.9,36.4,17.5,36.3L17.5,36.3z M17.5,36.3 M67,52.9V19.1c0-1.4-1.4-2.3-2.7-1.8L37.5,29.3c-0.7,0.3-1.1,1-1.1,1.8v35.1
		c0,1.4,1.4,2.3,2.7,1.8l25.6-11.4C66.1,55.8,67,54.4,67,52.9L67,52.9z M49.2,52c-0.2,2.8-1.7,4.9-3.3,4.8c-1.7-0.1-2.9-2.4-2.7-5.2
		c0.2-2.8,1.7-4.9,3.3-4.8C48.1,46.9,49.3,49.2,49.2,52L49.2,52z M60.5,32.5c-0.2,2.8-1.7,4.9-3.3,4.8c-1.7-0.1-2.9-2.4-2.7-5.2
		c0.2-2.8,1.7-4.9,3.3-4.8C59.5,27.4,60.7,29.7,60.5,32.5L60.5,32.5z M60.5,32.5 M7.1,15l27.1,12.1c0.5,0.2,1.1,0.2,1.6,0L62.9,15
		c1.5-0.7,1.5-2.9,0-3.5L36.5,0.3C36,0.1,35.5,0,35,0c-0.5,0-1,0.1-1.5,0.3L7.1,11.4C5.6,12.1,5.5,14.3,7.1,15L7.1,15z M49.6,10
		c2.8,0,5,1.3,5,3c0,1.7-2.2,3-5,3c-2.8,0-5-1.3-5-3C44.7,11.4,46.9,10,49.6,10L49.6,10z M35,10c2.8,0,5,1.3,5,3c0,1.7-2.2,3-5,3
		c-2.8,0-5-1.3-5-3C30,11.4,32.2,10,35,10L35,10z M20.3,10c2.8,0,5,1.3,5,3c0,1.7-2.2,3-5,3c-2.8,0-5-1.3-5-3
		C15.3,11.4,17.6,10,20.3,10L20.3,10z M20.3,10"/>
</g>
<g id="tabs">
	<path id="casino-games" class="st2" d="M3,20.1v33.8c0,1.5,0.9,2.9,2.3,3.5L31,68.8c1.3,0.6,2.7-0.4,2.7-1.8V32
		c0-0.8-0.4-1.4-1.1-1.8L5.7,18.3C4.5,17.7,3,18.7,3,20.1L3,20.1z M17.5,37.3c1.7-0.1,3.1,2,3.3,4.8c0.2,2.8-1,5.1-2.7,5.2
		c-1.7,0.1-3.1-2-3.3-4.8C14.7,39.7,15.9,37.4,17.5,37.3L17.5,37.3z M17.5,37.3 M67,53.9V20.1c0-1.4-1.4-2.3-2.7-1.8L37.5,30.3
		c-0.7,0.3-1.1,1-1.1,1.8v35.1c0,1.4,1.4,2.3,2.7,1.8l25.6-11.4C66.1,56.8,67,55.4,67,53.9L67,53.9z M49.2,53
		c-0.2,2.8-1.7,4.9-3.3,4.8c-1.7-0.1-2.9-2.4-2.7-5.2c0.2-2.8,1.7-4.9,3.3-4.8C48.1,47.9,49.3,50.2,49.2,53L49.2,53z M60.5,33.5
		c-0.2,2.8-1.7,4.9-3.3,4.8c-1.7-0.1-2.9-2.4-2.7-5.2c0.2-2.8,1.7-4.9,3.3-4.8C59.5,28.4,60.7,30.7,60.5,33.5L60.5,33.5z M60.5,33.5
		 M7.1,16l27.1,12.1c0.5,0.2,1.1,0.2,1.6,0L62.9,16c1.5-0.7,1.5-2.9,0-3.5L36.5,1.3C36,1.1,35.5,1,35,1c-0.5,0-1,0.1-1.5,0.3
		L7.1,12.4C5.6,13.1,5.5,15.3,7.1,16L7.1,16z M49.6,11c2.8,0,5,1.3,5,3c0,1.7-2.2,3-5,3c-2.8,0-5-1.3-5-3C44.7,12.4,46.9,11,49.6,11
		L49.6,11z M35,11c2.8,0,5,1.3,5,3c0,1.7-2.2,3-5,3c-2.8,0-5-1.3-5-3C30,12.4,32.2,11,35,11L35,11z M20.3,11c2.8,0,5,1.3,5,3
		c0,1.7-2.2,3-5,3c-2.8,0-5-1.3-5-3C15.3,12.4,17.6,11,20.3,11L20.3,11z M20.3,11"/>
</g>
</svg>
