<?xml version="1.0" encoding="utf-8"?>
<!-- Generator: Adobe Illustrator 19.0.0, SVG Export Plug-In . SVG Version: 6.00 Build 0)  -->
<svg version="1.1" xmlns="http://www.w3.org/2000/svg" xmlns:xlink="http://www.w3.org/1999/xlink" x="0px" y="0px"
	 viewBox="0 0 70 70" style="enable-background:new 0 0 70 70;" xml:space="preserve">
<style type="text/css">
	.st2{fill:#afd9ad;}
</style>
<g id="tabs-shadow">
	<path id="game-devs_1_" d="M32.9,68v-9c-1.2,0.5-2.4,0.8-3.7,0.8c-1.2,0-2.4-0.2-3.5-0.7c-1.1-0.5-2-1.1-2.8-1.9
		c-1.7-1.7-2.6-4-2.6-6.4c0-2.3,1-4.5,2.6-6.2c1.7-1.7,3.8-2.6,6.2-2.6c0,0,0.1,0,0.1,0c1.3,0,2.6,0.3,3.7,0.8l0-8.9H22.2
		c0.3-0.4,0.6-1,1.1-1.6c0.8-1.2,1.5-2.7,1.5-4.3c0-3.6-3-6.6-6.7-6.7c0,0-0.1,0-0.1,0c-3.7,0-6.8,3-6.8,6.8c0,1.6,0.6,3,1.5,4.2
		c0.4,0.6,0.8,1.2,1.1,1.7H3.8C2.3,34,1,35.3,1,36.8v28.3C1,66.7,2.3,68,3.8,68H32.9z M32.9,68 M60.1,36.1c0.5,1.2,0.8,2.4,0.8,3.7
		c0,2.4-0.9,4.6-2.6,6.3c-1.7,1.7-3.9,2.6-6.3,2.6c0,0-0.1,0-0.1,0c-2.3,0-4.5-1-6.2-2.6c-1.7-1.7-2.6-3.8-2.6-6.2
		c0-1.3,0.3-2.6,0.8-3.8H35l0,10.7c-0.4-0.2-1.1-0.7-1.7-1.1c-1.2-0.8-2.6-1.4-4.1-1.4c0,0-0.1,0-0.1,0c-3.6,0-6.6,3-6.7,6.7
		c0,1.2,0.3,2.4,0.9,3.4c1.2,2,3.4,3.4,5.9,3.4c1.6,0,2.9-0.6,4.1-1.4c0.8-0.5,1.3-0.9,1.7-1.1V68h31.2c1.6,0,2.8-1.3,2.8-2.8V36.1
		H60.1z M60.1,36.1 M66.2-0.1H35v13c0,0,1.1-1,1.5-1.2c1.2-1,2.7-1.6,4.3-1.6c3.8,0,6.8,3.1,6.8,6.9c-0.1,3.6-3,6.6-6.7,6.7
		c0,0-0.1,0-0.1,0c-1.6,0-3.1-0.6-4.3-1.6c-0.4-0.3-1.5-1.2-1.5-1.2v13h12.8c-0.1,0.2-0.7,1.1-1.1,1.7c-0.8,1.2-1.4,2.6-1.4,4.2
		c0,3.6,3,6.6,6.7,6.7c0,0,0.1,0,0.1,0c1.7,0,3.3-0.7,4.5-1.8c1.4-1.2,2.2-3,2.2-5c0-1.6-0.6-2.9-1.4-4.1c-0.5-0.8-0.9-1.3-1.1-1.7
		c0,0,0,0,0,0H69V2.8C69,1.2,67.7-0.1,66.2-0.1L66.2-0.1z M66.2-0.1"/>
</g>
<g id="tabs">
	<path id="game-devs" class="st2" d="M32.9,69v-9c-1.2,0.5-2.4,0.8-3.7,0.8c-1.2,0-2.4-0.2-3.5-0.7c-1.1-0.5-2-1.1-2.8-1.9
		c-1.7-1.7-2.6-4-2.6-6.4c0-2.3,1-4.5,2.6-6.2c1.7-1.7,3.8-2.6,6.2-2.6c0,0,0.1,0,0.1,0c1.3,0,2.6,0.3,3.7,0.8l0-8.9H22.2
		c0.3-0.4,0.6-1,1.1-1.6c0.8-1.2,1.5-2.7,1.5-4.3c0-3.6-3-6.6-6.7-6.7c0,0-0.1,0-0.1,0c-3.7,0-6.8,3-6.8,6.8c0,1.6,0.6,3,1.5,4.2
		c0.4,0.6,0.8,1.2,1.1,1.7H3.8C2.3,35,1,36.3,1,37.8v28.3C1,67.7,2.3,69,3.8,69H32.9z M32.9,69 M60.1,37.1c0.5,1.2,0.8,2.4,0.8,3.7
		c0,2.4-0.9,4.6-2.6,6.3c-1.7,1.7-3.9,2.6-6.3,2.6c0,0-0.1,0-0.1,0c-2.3,0-4.5-1-6.2-2.6c-1.7-1.7-2.6-3.8-2.6-6.2
		c0-1.3,0.3-2.6,0.8-3.8H35l0,10.7c-0.4-0.2-1.1-0.7-1.7-1.1c-1.2-0.8-2.6-1.4-4.1-1.4c0,0-0.1,0-0.1,0c-3.6,0-6.6,3-6.7,6.7
		c0,1.2,0.3,2.4,0.9,3.4c1.2,2,3.4,3.4,5.9,3.4c1.6,0,2.9-0.6,4.1-1.4c0.8-0.5,1.3-0.9,1.7-1.1V69h31.2c1.6,0,2.8-1.3,2.8-2.8V37.1
		H60.1z M60.1,37.1 M66.2,0.9H35v13c0,0,1.1-1,1.5-1.2c1.2-1,2.7-1.6,4.3-1.6c3.8,0,6.8,3.1,6.8,6.9c-0.1,3.6-3,6.6-6.7,6.7
		c0,0-0.1,0-0.1,0c-1.6,0-3.1-0.6-4.3-1.6c-0.4-0.3-1.5-1.2-1.5-1.2v13h12.8c-0.1,0.2-0.7,1.1-1.1,1.7c-0.8,1.2-1.4,2.6-1.4,4.2
		c0,3.6,3,6.6,6.7,6.7c0,0,0.1,0,0.1,0c1.7,0,3.3-0.7,4.5-1.8c1.4-1.2,2.2-3,2.2-5c0-1.6-0.6-2.9-1.4-4.1c-0.5-0.8-0.9-1.3-1.1-1.7
		c0,0,0,0,0,0H69V3.8C69,2.2,67.7,0.9,66.2,0.9L66.2,0.9z M66.2,0.9"/>
</g>
</svg>
