<?xml version="1.0" encoding="utf-8"?>
<!-- Generator: Adobe Illustrator 19.0.0, SVG Export Plug-In . SVG Version: 6.00 Build 0)  -->
<svg version="1.1" xmlns="http://www.w3.org/2000/svg" xmlns:xlink="http://www.w3.org/1999/xlink" x="0px" y="0px"
	 viewBox="0 0 70 70" style="enable-background:new 0 0 70 70;" xml:space="preserve">
<style type="text/css">
	.st2{fill:#FFFFFF;}
</style>
<g id="tabs-shadow">
	<path id="online-casino_1_" d="M35,0C16.3,0,1,15.3,1,34c0,18.7,15.3,34,34,34c18.7,0,34-15.3,34-34C69,15.3,53.7,0,35,0L35,0z
		 M32.3,2.6h5.3v5.3h-5.3V2.6z M58.7,34c0,13.1-10.7,23.7-23.7,23.7S11.3,47.1,11.3,34c0-13.1,10.7-23.7,23.7-23.7
		S58.7,20.9,58.7,34L58.7,34z M14.7,10l3.7,3.7l-3.7,3.7L11,13.7L14.7,10z M8.8,36.6H3.6v-5.3h5.3V36.6z M14.7,58L11,54.3l3.7-3.7
		l3.7,3.7L14.7,58z M37.5,65.4h-5.3v-5.3h5.3V65.4z M55.3,58l-3.7-3.7l3.7-3.7l3.7,3.7L55.3,58z M55.3,17.4l-3.7-3.7l3.7-3.7
		l3.7,3.7L55.3,17.4z M61,36.6v-5.3h5.3v5.3H61z M61,36.6 M15.7,34c0,10.7,8.7,19.3,19.3,19.3S54.3,44.7,54.3,34
		c0-10.7-8.7-19.3-19.3-19.3S15.7,23.3,15.7,34L15.7,34z M44.3,32.4c0.9,1.5,1.2,2.8,1.2,4.4c0,3.9-2.7,6-5.8,6c-2.1,0-3.3-1-4-1.8
		l1.1,4h-3.5l1.1-3.9c-0.7,0.8-1.9,1.8-3.9,1.8c-3.1,0-5.9-2.1-5.9-6c0-1.6,0.3-2.9,1.2-4.4c1.4-2.3,9.3-9,9.3-9S42.8,30,44.3,32.4
		L44.3,32.4z M44.3,32.4"/>
</g>
<g id="tabs">
	<path id="online-casino" class="st2" d="M35,1C16.3,1,1,16.3,1,35c0,18.7,15.3,34,34,34c18.7,0,34-15.3,34-34C69,16.3,53.7,1,35,1
		L35,1z M32.3,3.6h5.3v5.3h-5.3V3.6z M58.7,35c0,13.1-10.7,23.7-23.7,23.7S11.3,48.1,11.3,35c0-13.1,10.7-23.7,23.7-23.7
		S58.7,21.9,58.7,35L58.7,35z M14.7,11l3.7,3.7l-3.7,3.7L11,14.7L14.7,11z M8.8,37.6H3.6v-5.3h5.3V37.6z M14.7,59L11,55.3l3.7-3.7
		l3.7,3.7L14.7,59z M37.5,66.4h-5.3v-5.3h5.3V66.4z M55.3,59l-3.7-3.7l3.7-3.7l3.7,3.7L55.3,59z M55.3,18.4l-3.7-3.7l3.7-3.7
		l3.7,3.7L55.3,18.4z M61,37.6v-5.3h5.3v5.3H61z M61,37.6 M15.7,35c0,10.7,8.7,19.3,19.3,19.3S54.3,45.7,54.3,35S45.7,15.7,35,15.7
		S15.7,24.3,15.7,35L15.7,35z M44.3,33.4c0.9,1.5,1.2,2.8,1.2,4.4c0,3.9-2.7,6-5.8,6c-2.1,0-3.3-1-4-1.8l1.1,4h-3.5l1.1-3.9
		c-0.7,0.8-1.9,1.8-3.9,1.8c-3.1,0-5.9-2.1-5.9-6c0-1.6,0.3-2.9,1.2-4.4c1.4-2.3,9.3-9,9.3-9S42.8,31,44.3,33.4L44.3,33.4z
		 M44.3,33.4"/>
</g>
</svg>
