<?xml version="1.0" encoding="utf-8"?>
<!-- Generator: Adobe Illustrator 19.0.0, SVG Export Plug-In . SVG Version: 6.00 Build 0)  -->
<svg version="1.1" xmlns="http://www.w3.org/2000/svg" xmlns:xlink="http://www.w3.org/1999/xlink" x="0px" y="0px"
	 viewBox="0 0 70 70" style="enable-background:new 0 0 70 70;" xml:space="preserve">
<style type="text/css">
	.st2{fill:#afd9ad;}
</style>
<g id="tabs-shadow">
	<path id="roulette_1_" d="M35,0C16.2,0,1,15.2,1,34s15.2,34,34,34s34-15.2,34-34S53.8,0,35,0z M11.3,11c4-4,8.8-5.8,9.2-5.4
		C20.9,6,16.6,8,12.7,12s-6.2,8.4-6.5,8C5.8,19.6,7.4,15,11.3,11z M35,64.3C18.3,64.3,4.7,50.8,4.7,34C4.7,17.3,18.3,3.7,35,3.7
		S65.3,17.2,65.3,34C65.3,50.7,51.7,64.3,35,64.3z M59.2,34c0-0.7,0-1.3-0.1-2l0,0l0-0.4l-0.1-0.4l0,0c-0.2-1.4-0.5-2.8-0.8-4.2l0,0
		l-0.1-0.4l0,0L58,26.2l0,0c-0.5-1.4-1-2.7-1.7-3.9l0,0L56.1,22l-0.2-0.3l0,0c-0.7-1.2-1.6-2.4-2.5-3.5l0,0l-0.3-0.3l0,0l-0.3-0.3
		l0,0c-1-1-2-2-3.2-2.9l0,0l-0.3-0.2l0,0L49,14.3l0,0c-1.2-0.8-2.4-1.6-3.7-2.2l0,0l-0.4-0.2l-0.4-0.2l0,0c-1.3-0.6-2.7-1-4.1-1.3
		l0,0l-0.4-0.1l-0.4-0.1l0,0c-1.4-0.3-2.8-0.4-4.2-0.5l0,0H35h-0.4l0,0c-1.4,0-2.9,0.2-4.2,0.5l0,0L30,10.3l0,0l-0.4,0.1l0,0
		c-1.4,0.3-2.7,0.8-4.1,1.3l0,0l-0.4,0.2l-0.4,0.2l0,0c-1.3,0.6-2.5,1.3-3.7,2.2l0,0l-0.3,0.2l0,0l-0.3,0.2l0,0
		c-1.1,0.9-2.2,1.8-3.2,2.9l0,0l-0.3,0.3l-0.3,0.3l0,0c-0.9,1.1-1.8,2.2-2.5,3.5l0,0L14,22l-0.2,0.4l0,0c-0.7,1.2-1.3,2.6-1.7,3.9
		l0,0l-0.1,0.4l0,0L11.8,27l0,0c-0.4,1.4-0.7,2.7-0.8,4.2l0,0l-0.1,0.4l0,0.4l0,0c-0.1,0.7-0.1,1.4-0.1,2c0,0.7,0,1.5,0.1,2.2l0,0
		l0.1,0.4L11,37l0,0c0.2,1.4,0.5,2.8,0.9,4.2l0,0l0.1,0.4l0,0l0.1,0.4l0,0c0.5,1.3,1,2.6,1.8,3.9l0,0l0.2,0.3l0,0l0.2,0.3l0,0
		c0.7,1.2,1.6,2.4,2.5,3.4l0,0l0.3,0.3l0,0l0.3,0.3l0,0c1,1,2,2,3.1,2.8l0,0l0.3,0.2l0,0l0.3,0.2l0,0c1.2,0.8,2.4,1.5,3.7,2.1l0,0
		l0.4,0.2l0.4,0.2l0,0c1.3,0.6,2.7,1,4,1.3l0,0l0.4,0.1l0,0l0.4,0.1l0,0c1.4,0.3,2.8,0.4,4.2,0.4l0,0H35h0.4l0,0
		c1.4,0,2.8-0.2,4.2-0.4l0,0l0.4-0.1l0.4-0.1l0,0c1.4-0.3,2.7-0.8,4-1.3l0,0l0.4-0.2l0.4-0.2l0,0c1.3-0.6,2.5-1.3,3.7-2.1l0,0
		l0.3-0.2l0.3-0.2l0,0c1.1-0.9,2.2-1.8,3.1-2.8l0,0l0.3-0.3l0,0l0.3-0.3l0,0c0.9-1,1.8-2.2,2.5-3.4l0,0l0.2-0.3l0,0l0.2-0.3l0,0
		c0.7-1.2,1.3-2.5,1.8-3.9l0,0l0.1-0.4l0,0l0.1-0.4l0,0c0.4-1.4,0.7-2.7,0.9-4.2l0,0l0.1-0.4l0.1-0.4l0,0
		C59.2,35.5,59.2,34.7,59.2,34z M48.8,46.6L48.8,46.6c-0.9,1-1.8,1.8-2.9,2.6c-1,0.8-2.2,1.4-3.4,1.9c-1.2,0.5-2.4,0.9-3.7,1.2l0,0
		c-1.3,0.3-2.6,0.4-3.9,0.4c-1.3,0-2.6-0.1-3.9-0.4c-1.3-0.3-2.5-0.7-3.7-1.2c-1.2-0.5-2.3-1.2-3.4-1.9l0,0c-1-0.8-2-1.6-2.9-2.6
		l0,0c-0.9-1-1.6-2-2.3-3.1l0,0c-0.7-1.1-1.2-2.3-1.6-3.5l0,0c-0.4-1.2-0.7-2.5-0.8-3.8l0,0c-0.1-0.7-0.1-1.4-0.1-2.1
		c0-0.6,0-1.2,0.1-1.8c0.1-1.3,0.4-2.6,0.8-3.8l0,0c0.4-1.2,0.9-2.4,1.6-3.6l0,0c0.7-1.1,1.4-2.2,2.3-3.2c0.9-1,1.8-1.9,2.9-2.6
		c1-0.8,2.2-1.4,3.4-2l0,0c1.2-0.5,2.4-0.9,3.7-1.2l0,0c1.3-0.3,2.6-0.4,3.9-0.4c1.3,0,2.6,0.1,3.9,0.4c1.3,0.3,2.5,0.7,3.7,1.2
		c1.2,0.5,2.3,1.2,3.4,2l0,0c1,0.8,2,1.7,2.9,2.6l0,0c0.9,1,1.6,2,2.3,3.2c0.7,1.1,1.2,2.3,1.6,3.6l0,0c0.4,1.2,0.7,2.5,0.8,3.8l0,0
		c0.1,0.6,0.1,1.2,0.1,1.8c0,0.7,0,1.4-0.1,2.1l0,0c-0.1,1.3-0.4,2.6-0.8,3.8s-0.9,2.4-1.6,3.5C50.4,44.5,49.7,45.6,48.8,46.6z
		 M58.4,34c0,0.7,0,1.4-0.1,2.2l-3.9-0.4c0.1-0.6,0.1-1.2,0.1-1.8c0-0.5,0-1-0.1-1.5l2.4-0.3l1.5-0.2C58.4,32.7,58.4,33.3,58.4,34z
		 M57.2,26.5l-2.7,0.9l-1.1,0.3c-0.3-1-0.8-2-1.3-3l2.5-1.5l0.9-0.5C56.2,23.9,56.7,25.2,57.2,26.5z M52.2,18.1l-2.4,2.2l-0.5,0.5
		c-0.7-0.8-1.6-1.5-2.4-2.2l2.3-3.2C50.2,16.2,51.3,17.1,52.2,18.1z M43.4,14.3l-0.8,1.8c-1-0.4-2-0.8-3.1-1l0.8-3.9
		c1.3,0.3,2.6,0.7,3.9,1.3L43.4,14.3z M34.6,10.6v4c-1.1,0-2.2,0.1-3.3,0.3l-0.6-2.7L30.5,11C31.9,10.8,33.2,10.6,34.6,10.6z
		 M25.1,12.8l0.4,0.9l1.2,2.7c-1,0.5-1.9,1-2.8,1.6l-2.3-3.2C22.6,14.1,23.8,13.4,25.1,12.8z M17.3,18.7l2.9,2.7
		c-0.7,0.8-1.4,1.7-1.9,2.7l-3.4-2C15.6,20.9,16.4,19.7,17.3,18.7z M11.7,31.3c0.2-1.4,0.4-2.7,0.8-4l3.8,1.2
		c-0.3,1-0.5,2.1-0.7,3.2l-0.9-0.1L11.7,31.3z M12.6,40.9c-0.4-1.3-0.7-2.6-0.9-4l3.9-0.4c0.1,1.1,0.4,2.2,0.7,3.2l-0.1,0L12.6,40.9
		z M15,46.2l3.4-2c0.6,0.9,1.2,1.8,1.9,2.6l-2.9,2.7C16.5,48.4,15.7,47.3,15,46.2z M21.6,53.2l0.9-1.3L24,50
		c0.9,0.6,1.8,1.2,2.8,1.6l-0.2,0.4l-1.4,3.2C23.9,54.7,22.7,54,21.6,53.2z M30.6,57l0.1-0.7l0.7-3.2c1,0.2,2.1,0.3,3.2,0.3v4
		C33.2,57.4,31.9,57.3,30.6,57z M44.1,55.6c-1.2,0.5-2.5,1-3.9,1.2L39.4,53c1-0.3,2.1-0.6,3.1-1l0.6,1.3L44.1,55.6z M49.1,52.8
		l-1.9-2.6l-0.5-0.6c0.8-0.7,1.7-1.4,2.4-2.2l2.9,2.7C51.2,51,50.1,51.9,49.1,52.8z M55.4,45.4l-3.4-2c0.5-1,1-1.9,1.3-3l3.8,1.2
		C56.7,43,56.1,44.3,55.4,45.4z M41.6,29.6c0.6-0.6,0.6-1.6,0-2.2c-0.6-0.6-1.6-0.6-2.2,0c-0.4,0.4-0.6,1-0.4,1.6
		c-1,0.7-2.5,1.9-4,3.3c-1.5-1.5-3-2.7-4-3.3c0.2-0.5,0.1-1.2-0.4-1.6c-0.6-0.6-1.6-0.6-2.2,0c-0.6,0.6-0.6,1.6,0,2.2
		c0.4,0.4,1,0.6,1.6,0.4c0.7,1,1.9,2.5,3.3,4c-1.5,1.5-2.7,3-3.3,4c-0.5-0.2-1.2-0.1-1.6,0.4c-0.6,0.6-0.6,1.6,0,2.2
		c0.6,0.6,1.6,0.6,2.2,0c0.4-0.4,0.6-1,0.4-1.6c1-0.7,2.5-1.9,4-3.3c1.5,1.5,3,2.7,4,3.3c-0.2,0.5-0.1,1.2,0.4,1.6
		c0.6,0.6,1.6,0.6,2.2,0c0.6-0.6,0.6-1.6,0-2.2c-0.4-0.4-1-0.6-1.6-0.4c-0.7-1-1.9-2.5-3.3-4c1.5-1.5,2.7-3,3.3-4
		C40.6,30.2,41.2,30.1,41.6,29.6z"/>
</g>
<g id="tabs">
	<path id="roulette" class="st2" d="M35,1C16.2,1,1,16.2,1,35s15.2,34,34,34s34-15.2,34-34S53.8,1,35,1z M11.3,12
		c4-4,8.8-5.8,9.2-5.4C20.9,7,16.6,9,12.7,13s-6.2,8.4-6.5,8C5.8,20.6,7.4,16,11.3,12z M35,65.3C18.3,65.3,4.7,51.8,4.7,35
		C4.7,18.3,18.3,4.7,35,4.7S65.3,18.2,65.3,35C65.3,51.7,51.7,65.3,35,65.3z M59.2,35c0-0.7,0-1.3-0.1-2l0,0l0-0.4l-0.1-0.4l0,0
		c-0.2-1.4-0.5-2.8-0.8-4.2l0,0l-0.1-0.4l0,0L58,27.2l0,0c-0.5-1.4-1-2.7-1.7-3.9l0,0L56.1,23l-0.2-0.3l0,0
		c-0.7-1.2-1.6-2.4-2.5-3.5l0,0l-0.3-0.3l0,0l-0.3-0.3l0,0c-1-1-2-2-3.2-2.9l0,0l-0.3-0.2l0,0L49,15.3l0,0c-1.2-0.8-2.4-1.6-3.7-2.2
		l0,0l-0.4-0.2l-0.4-0.2l0,0c-1.3-0.6-2.7-1-4.1-1.3l0,0l-0.4-0.1l-0.4-0.1l0,0c-1.4-0.3-2.8-0.4-4.2-0.5l0,0H35h-0.4l0,0
		c-1.4,0-2.9,0.2-4.2,0.5l0,0L30,11.3l0,0l-0.4,0.1l0,0c-1.4,0.3-2.7,0.8-4.1,1.3l0,0l-0.4,0.2l-0.4,0.2l0,0
		c-1.3,0.6-2.5,1.3-3.7,2.2l0,0l-0.3,0.2l0,0l-0.3,0.2l0,0c-1.1,0.9-2.2,1.8-3.2,2.9l0,0l-0.3,0.3l-0.3,0.3l0,0
		c-0.9,1.1-1.8,2.2-2.5,3.5l0,0L14,23l-0.2,0.4l0,0c-0.7,1.2-1.3,2.5-1.7,3.9l0,0l-0.1,0.4l0,0L11.8,28l0,0
		c-0.4,1.4-0.7,2.7-0.8,4.2l0,0l-0.1,0.4l0,0.4l0,0c-0.1,0.7-0.1,1.4-0.1,2c0,0.7,0,1.5,0.1,2.2l0,0l0.1,0.4L11,38l0,0
		c0.2,1.4,0.5,2.8,0.9,4.2l0,0l0.1,0.4l0,0l0.1,0.4l0,0c0.5,1.3,1,2.6,1.8,3.9l0,0l0.2,0.3l0,0l0.2,0.3l0,0c0.7,1.2,1.6,2.4,2.5,3.4
		l0,0l0.3,0.3l0,0l0.3,0.3l0,0c1,1,2,2,3.1,2.8l0,0l0.3,0.2l0,0l0.3,0.2l0,0c1.2,0.8,2.4,1.5,3.7,2.1l0,0l0.4,0.2l0.4,0.2l0,0
		c1.3,0.6,2.7,1,4,1.3l0,0l0.4,0.1l0,0l0.4,0.1l0,0c1.4,0.3,2.8,0.4,4.2,0.4l0,0H35h0.4l0,0c1.4,0,2.8-0.2,4.2-0.4l0,0l0.4-0.1
		l0.4-0.1l0,0c1.4-0.3,2.7-0.8,4-1.3l0,0l0.4-0.2l0.4-0.2l0,0c1.3-0.6,2.5-1.3,3.7-2.1l0,0l0.3-0.2l0.3-0.2l0,0
		c1.1-0.9,2.2-1.8,3.1-2.8l0,0l0.3-0.3l0,0l0.3-0.3l0,0c0.9-1,1.8-2.2,2.5-3.4l0,0l0.2-0.3l0,0l0.2-0.3l0,0c0.7-1.2,1.3-2.5,1.8-3.9
		l0,0l0.1-0.4l0,0l0.1-0.4l0,0c0.4-1.4,0.7-2.7,0.9-4.2l0,0l0.1-0.4l0.1-0.4l0,0C59.2,36.5,59.2,35.7,59.2,35z M48.8,47.6L48.8,47.6
		c-0.9,1-1.8,1.8-2.9,2.6c-1,0.8-2.2,1.4-3.4,1.9c-1.2,0.5-2.4,0.9-3.7,1.2l0,0c-1.3,0.3-2.6,0.4-3.9,0.4c-1.3,0-2.6-0.1-3.9-0.4
		c-1.3-0.3-2.5-0.7-3.7-1.2c-1.2-0.5-2.3-1.2-3.4-1.9l0,0c-1-0.8-2-1.6-2.9-2.6l0,0c-0.9-1-1.6-2-2.3-3.1l0,0
		c-0.7-1.1-1.2-2.3-1.6-3.5l0,0c-0.4-1.2-0.7-2.5-0.8-3.8l0,0c-0.1-0.7-0.1-1.4-0.1-2.1c0-0.6,0-1.2,0.1-1.8
		c0.1-1.3,0.4-2.6,0.8-3.8l0,0c0.4-1.2,0.9-2.4,1.6-3.6l0,0c0.7-1.1,1.4-2.2,2.3-3.2c0.9-1,1.8-1.9,2.9-2.6c1-0.8,2.2-1.4,3.4-2l0,0
		c1.2-0.5,2.4-0.9,3.7-1.2l0,0c1.3-0.3,2.6-0.4,3.9-0.4c1.3,0,2.6,0.1,3.9,0.4c1.3,0.3,2.5,0.7,3.7,1.2c1.2,0.5,2.3,1.2,3.4,2l0,0
		c1,0.8,2,1.7,2.9,2.6l0,0c0.9,1,1.6,2,2.3,3.2c0.7,1.1,1.2,2.3,1.6,3.6l0,0c0.4,1.2,0.7,2.5,0.8,3.8l0,0c0.1,0.6,0.1,1.2,0.1,1.8
		c0,0.7,0,1.4-0.1,2.1l0,0c-0.1,1.3-0.4,2.6-0.8,3.8s-0.9,2.4-1.6,3.5C50.4,45.5,49.7,46.6,48.8,47.6z M58.4,35c0,0.7,0,1.4-0.1,2.2
		l-3.9-0.4c0.1-0.6,0.1-1.2,0.1-1.8c0-0.5,0-1-0.1-1.5l2.4-0.3l1.5-0.2C58.4,33.7,58.4,34.3,58.4,35z M57.2,27.5l-2.7,0.9l-1.1,0.3
		c-0.3-1-0.8-2-1.3-3l2.5-1.5l0.9-0.5C56.2,24.9,56.7,26.2,57.2,27.5z M52.2,19.1l-2.4,2.2l-0.5,0.5c-0.7-0.8-1.6-1.5-2.4-2.2
		l2.3-3.2C50.2,17.2,51.3,18.1,52.2,19.1z M43.4,15.3l-0.8,1.8c-1-0.4-2-0.8-3.1-1l0.8-3.9c1.3,0.3,2.6,0.7,3.9,1.3L43.4,15.3z
		 M34.6,11.6v4c-1.1,0-2.2,0.1-3.3,0.3l-0.6-2.7L30.5,12C31.9,11.8,33.2,11.6,34.6,11.6z M25.1,13.8l0.4,0.9l1.2,2.7
		c-1,0.5-1.9,1-2.8,1.6l-2.3-3.2C22.6,15.1,23.8,14.4,25.1,13.8z M17.3,19.7l2.9,2.7c-0.7,0.8-1.4,1.7-1.9,2.7l-3.4-2
		C15.6,21.9,16.4,20.7,17.3,19.7z M11.7,32.3c0.2-1.4,0.4-2.7,0.8-4l3.8,1.2c-0.3,1-0.5,2.1-0.7,3.2l-0.9-0.1L11.7,32.3z M12.6,41.9
		c-0.4-1.3-0.7-2.6-0.9-4l3.9-0.4c0.1,1.1,0.4,2.2,0.7,3.2l-0.1,0L12.6,41.9z M15,47.2l3.4-2c0.6,0.9,1.2,1.8,1.9,2.6l-2.9,2.7
		C16.5,49.4,15.7,48.3,15,47.2z M21.6,54.2l0.9-1.3L24,51c0.9,0.6,1.8,1.2,2.8,1.6l-0.2,0.4l-1.4,3.2C23.9,55.7,22.7,55,21.6,54.2z
		 M30.6,58l0.1-0.7l0.7-3.2c1,0.2,2.1,0.3,3.2,0.3v4C33.2,58.4,31.9,58.3,30.6,58z M44.1,56.6c-1.2,0.5-2.5,1-3.9,1.2L39.4,54
		c1-0.3,2.1-0.6,3.1-1l0.6,1.3L44.1,56.6z M49.1,53.8l-1.9-2.6l-0.5-0.6c0.8-0.7,1.7-1.4,2.4-2.2l2.9,2.7
		C51.2,52,50.1,52.9,49.1,53.8z M55.4,46.4l-3.4-2c0.5-1,1-1.9,1.3-3l3.8,1.2C56.7,44,56.1,45.3,55.4,46.4z M41.6,30.6
		c0.6-0.6,0.6-1.6,0-2.2c-0.6-0.6-1.6-0.6-2.2,0c-0.4,0.4-0.6,1-0.4,1.6c-1,0.7-2.5,1.9-4,3.3c-1.5-1.5-3-2.7-4-3.3
		c0.2-0.5,0.1-1.2-0.4-1.6c-0.6-0.6-1.6-0.6-2.2,0c-0.6,0.6-0.6,1.6,0,2.2c0.4,0.4,1,0.6,1.6,0.4c0.7,1,1.9,2.5,3.3,4
		c-1.5,1.5-2.7,3-3.3,4c-0.5-0.2-1.2-0.1-1.6,0.4c-0.6,0.6-0.6,1.6,0,2.2c0.6,0.6,1.6,0.6,2.2,0c0.4-0.4,0.6-1,0.4-1.6
		c1-0.7,2.5-1.9,4-3.3c1.5,1.5,3,2.7,4,3.3c-0.2,0.5-0.1,1.2,0.4,1.6c0.6,0.6,1.6,0.6,2.2,0c0.6-0.6,0.6-1.6,0-2.2
		c-0.4-0.4-1-0.6-1.6-0.4c-0.7-1-1.9-2.5-3.3-4c1.5-1.5,2.7-3,3.3-4C40.6,31.2,41.2,31.1,41.6,30.6z"/>
</g>
</svg>
