<?xml version="1.0" encoding="utf-8"?>
<!-- Generator: Adobe Illustrator 19.0.0, SVG Export Plug-In . SVG Version: 6.00 Build 0)  -->
<svg version="1.1" xmlns="http://www.w3.org/2000/svg" xmlns:xlink="http://www.w3.org/1999/xlink" x="0px" y="0px"
	 viewBox="0 0 70 70" style="enable-background:new 0 0 70 70;" xml:space="preserve">
<style type="text/css">
	.st2{fill:#afd9ad;}
</style>
<g id="tabs-shadow">
	<path id="blackjack_1_" d="M65.5,8L44.1,4.3c0.1,0.3,0.2,0.7,0.3,1l3.3,19c1.7,0.8,2.7,2.6,2.3,4.5c-0.1,0.4-0.2,0.9-0.5,1.2
		c-0.1,0.2-0.4,0.6-0.7,0.9l0.2,1.3c0.7-0.2,1.3-0.4,1.7-0.5c0.4-0.1,0.9-0.1,1.3,0h0.1c2.2,0.4,3.7,2.5,3.3,4.6
		c-0.3,2.2-2.4,3.7-4.7,3.4h-0.1c-0.1,0-0.2-0.1-0.3-0.1L53,54.3l1.5,0.3l-0.1,0.2c-0.3,0.8-0.5,1.7-0.7,2.8c0,0,0,0,0.1,0.1
		c0.2,0,0.5-0.1,0.8-0.2c0.3-0.1,0.6-0.2,0.7-0.2c0.1,0,0.3,0,0.5,0h0c0.8,0.2,1.4,1,1.2,1.8c-0.2,0.8-1,1.4-1.8,1.2h0
		c-0.2,0-0.3-0.1-0.5-0.2c-0.1-0.1-0.4-0.3-0.6-0.5c-0.1-0.1-0.3-0.3-0.5-0.4c0.1,0.2,0.1,0.4,0.2,0.6c0.1,0.3,0.2,0.6,0.2,0.7
		c0,0.1,0,0.3,0,0.5c-0.2,0.8-0.9,1.4-1.8,1.2h0c-0.8-0.1-1.3-0.9-1.2-1.7c-0.9,0.8-1.9,1.3-3.1,1.5l-6.6,1.2l14.1,2.5
		c2.3,0.4,4.5-1.1,4.9-3.4l8.7-49.4C69.4,10.6,67.9,8.4,65.5,8z M50.9,55.1L42.2,5.7c-0.4-2.3-2.6-3.8-4.9-3.4L4.5,8
		c-2.3,0.4-3.8,2.6-3.4,4.9l8.7,49.4c0.4,2.3,2.6,3.8,4.9,3.4L47.5,60C49.8,59.6,51.3,57.4,50.9,55.1z M11.6,15.7
		c-0.3,0.3-0.7,0.5-1.1,0.6c-0.3,0.1-0.6,0-1,0c0.1,0.5,0.2,1,0.4,1.4l0.1,0.2l-1.5,0.3l0-0.2c0-0.5,0-0.9-0.1-1.5
		c-0.3,0.2-0.6,0.3-0.9,0.3c-0.4,0.1-0.8,0-1.2-0.2c-0.4-0.2-0.7-0.5-0.8-1c-0.2-0.7,0.1-1.8,1-3.1c0.5-0.9,1.1-1.6,1.2-1.7L8,10.5
		l0.4,0.2c0,0,0.9,0.5,1.7,1.2c1.2,1,1.9,1.8,1.9,2.6C12.1,15,11.9,15.4,11.6,15.7z M36.1,39.4c-1,1-2.3,1.7-3.7,1.9
		c-1,0.2-2.1,0.1-3.3-0.1c0.3,1.9,0.8,3.5,1.5,4.9l0.3,0.7l-5.1,0.9l0.1-0.8c0.1-1.5,0.1-3.2-0.3-5.1c-1,0.6-2,1-3.1,1.2
		c-1.4,0.3-2.8,0.1-4.1-0.6c-1.4-0.7-2.4-1.9-2.7-3.4c-0.5-2.5,0.5-6,3.3-10.4c1.9-3.1,3.9-5.6,4-5.7l0.9-1.1l1.3,0.7
		c0.1,0.1,2.9,1.7,5.7,4c4.1,3.3,6.3,6.2,6.6,8.7C37.7,36.8,37.2,38.3,36.1,39.4z M45.4,55.1c-0.5,0.9-1.1,1.7-1.2,1.7l-0.3,0.3
		l-0.4-0.2c0,0-0.9-0.5-1.7-1.2c-1.2-1-1.9-1.8-1.9-2.6c-0.1-0.5,0.1-0.9,0.4-1.2c0.3-0.3,0.7-0.5,1.1-0.6c0.3-0.1,0.6,0,1,0
		c-0.1-0.5-0.2-1-0.4-1.4l-0.1-0.2l1.5-0.3l0,0.2c-0.1,0.5,0,0.9,0.1,1.5c0.3-0.2,0.6-0.3,0.9-0.3c0.4-0.1,0.8,0,1.2,0.2
		c0.4,0.2,0.7,0.5,0.8,1C46.5,52.8,46.2,53.8,45.4,55.1z"/>
</g>
<g id="tabs">
	<path id="blackjack" class="st2" d="M65.5,9L44.1,5.3c0.1,0.3,0.2,0.7,0.3,1l3.3,19c1.7,0.8,2.7,2.6,2.3,4.5
		c-0.1,0.4-0.2,0.9-0.5,1.2c-0.1,0.2-0.4,0.6-0.7,0.9l0.2,1.3c0.7-0.2,1.3-0.4,1.7-0.5c0.4-0.1,0.9-0.1,1.3,0h0.1
		c2.2,0.4,3.7,2.5,3.3,4.6c-0.3,2.2-2.4,3.7-4.7,3.4h-0.1c-0.1,0-0.2-0.1-0.3-0.1L53,55.3l1.5,0.3l-0.1,0.2
		c-0.3,0.8-0.5,1.7-0.7,2.8c0,0,0,0,0.1,0.1c0.2,0,0.5-0.1,0.8-0.2c0.3-0.1,0.6-0.2,0.7-0.2c0.1,0,0.3,0,0.5,0h0
		c0.8,0.2,1.4,1,1.2,1.8c-0.2,0.8-1,1.4-1.8,1.2h0c-0.2,0-0.3-0.1-0.5-0.2c-0.1-0.1-0.4-0.3-0.6-0.5c-0.1-0.1-0.3-0.3-0.5-0.4
		c0.1,0.2,0.1,0.4,0.2,0.6c0.1,0.3,0.2,0.6,0.2,0.7c0,0.1,0,0.3,0,0.5c-0.2,0.8-0.9,1.4-1.8,1.2h0c-0.8-0.1-1.3-0.9-1.2-1.7
		c-0.9,0.8-1.9,1.3-3.1,1.5l-6.6,1.2l14.1,2.5c2.3,0.4,4.5-1.1,4.9-3.4l8.7-49.4C69.4,11.6,67.9,9.4,65.5,9z M50.9,56.1L42.2,6.7
		c-0.4-2.3-2.6-3.8-4.9-3.4L4.5,9c-2.3,0.4-3.8,2.6-3.4,4.9l8.7,49.4c0.4,2.3,2.6,3.8,4.9,3.4L47.5,61
		C49.8,60.6,51.3,58.4,50.9,56.1z M11.6,16.7c-0.3,0.3-0.7,0.5-1.1,0.6c-0.3,0.1-0.6,0-1,0c0.1,0.5,0.2,1,0.4,1.4l0.1,0.2l-1.5,0.3
		l0-0.2c0-0.5,0-0.9-0.1-1.5c-0.3,0.2-0.6,0.3-0.9,0.3c-0.4,0.1-0.8,0-1.2-0.2c-0.4-0.2-0.7-0.5-0.8-1c-0.2-0.7,0.1-1.8,1-3.1
		c0.5-0.9,1.1-1.6,1.2-1.7L8,11.5l0.4,0.2c0,0,0.9,0.5,1.7,1.2c1.2,1,1.9,1.8,1.9,2.6C12.1,16,11.9,16.4,11.6,16.7z M36.1,40.4
		c-1,1-2.3,1.7-3.7,1.9c-1,0.2-2.1,0.1-3.3-0.1c0.3,1.9,0.8,3.5,1.5,4.9l0.3,0.7l-5.1,0.9l0.1-0.8c0.1-1.5,0.1-3.2-0.3-5.1
		c-1,0.6-2,1-3.1,1.2c-1.4,0.3-2.8,0.1-4.1-0.6c-1.4-0.7-2.4-1.9-2.7-3.4c-0.5-2.5,0.5-6,3.3-10.4c1.9-3.1,3.9-5.6,4-5.7l0.9-1.1
		l1.3,0.7c0.1,0.1,2.9,1.7,5.7,4c4.1,3.3,6.3,6.2,6.6,8.7C37.7,37.8,37.2,39.3,36.1,40.4z M45.4,56.1c-0.5,0.9-1.1,1.7-1.2,1.7
		l-0.3,0.3l-0.4-0.2c0,0-0.9-0.5-1.7-1.2c-1.2-1-1.9-1.8-1.9-2.6c-0.1-0.5,0.1-0.9,0.4-1.2c0.3-0.3,0.7-0.5,1.1-0.6
		c0.3-0.1,0.6,0,1,0c-0.1-0.5-0.2-1-0.4-1.4l-0.1-0.2l1.5-0.3l0,0.2c-0.1,0.5,0,0.9,0.1,1.5c0.3-0.2,0.6-0.3,0.9-0.3
		c0.4-0.1,0.8,0,1.2,0.2c0.4,0.2,0.7,0.5,0.8,1C46.5,53.8,46.2,54.8,45.4,56.1z"/>
</g>
</svg>
