<?xml version="1.0" encoding="utf-8"?>
<!-- Generator: Adobe Illustrator 17.1.0, SVG Export Plug-In . SVG Version: 6.00 Build 0)  -->
<!DOCTYPE svg PUBLIC "-//W3C//DTD SVG 1.1//EN" "http://www.w3.org/Graphics/SVG/1.1/DTD/svg11.dtd">
<svg version="1.1" xmlns="http://www.w3.org/2000/svg" xmlns:xlink="http://www.w3.org/1999/xlink" x="0px" y="0px"
	 viewBox="0 0 800 660" enable-background="new 0 0 800 660" xml:space="preserve">
<g id="Layer_2">
	<radialGradient id="light_1_" cx="399.9813" cy="329.9318" r="395.506" gradientTransform="matrix(0.9639 0 0 0.88 14.4759 39.66)" gradientUnits="userSpaceOnUse">
		<stop  offset="0.5" style="stop-color:#FFFFFF"/>
		<stop  offset="1" style="stop-color:#D9D9D9"/>
	</radialGradient>
	<rect id="light" fill="url(#light_1_)" width="800" height="660"/>
</g>

<g id="devs">
	<g id="rtg">
		<g id="word_2_">
			<path id="realtime" d="M183.4,444.9c-3.2,0-29.7,0-29.7,0l-1.9,14h-16.6l4.2-56h51c2.8,0,5.3,0.2,7.4,0.5
				c2.1,0.3,5.9,1.6,7.1,2.7c1.7,1.5,2.2,4,2.3,5.5c0.3,4.5-0.4,13.7-1.4,18.1c-0.6,2.9-2.4,6.6-9.4,7.3c1.9,0.4,4.1,1.3,5.4,2.1
				c2.5,1.4,2.6,3.6,2.6,6c0,1.2-0.9,12.1-1.3,13.8h-17.1C186.2,458.9,188.9,444.9,183.4,444.9z M190,420.9c0.3-2.2-1-3.2-2.1-3.2
				h-32.6l-0.9,12.4H187c0.8,0,0.6-0.1,1-0.5C189.5,428.4,189.4,425.3,190,420.9z M214.1,402.8h61.8l-0.9,13.9h-45.2l-0.1,6.8h41.7
				l-0.8,12.6h-41.7l-1.5,8.9h44.6l-0.9,13.8h-61.2L214.1,402.8z M606.9,402.8h61.8l-0.9,13.9h-45.2l-0.1,6.8h41.7l-0.8,12.6h-41.7
				l-1.5,8.9h44.6l-0.9,13.8h-61.2L606.9,402.8z M297.9,449.7l-6.3,9.2h-20.2l34.5-56h26.5l24.5,56h-19.7l-4.2-9.2H297.9z
				 M327.8,437.4l-7.8-20.6h-4.1l-12.2,20.6H327.8z M362.3,402.8h18.4l-3.3,41.6h38.9l-0.9,14.4h-58.2L362.3,402.8z M431.2,417.2
				h-24.1l0.9-14.4h66.6l-0.9,14.4h-24.2l-3.3,41.6h-18.3L431.2,417.2z M480.6,402.8H499l-5.1,56h-18.3L480.6,402.8z M579.1,418
				l-23.7,40.8h-13.9L523.6,418h-2.7l-3.2,40.8h-16.5l4.2-56h31.1l13.5,35.3l19.3-35.3h30.9l-5.1,56h-17.1l3.6-40.8H579.1z"/>
			<path id="gaming_1_" d="M236.4,507.8l-6,9.4h-7.1l27.9-42.6h9.4l20.4,42.6h-7l-3.9-9.4H236.4z M254.3,479.9l-15.2,23.3h28.7
				l-11.1-23.3H254.3z M387.6,474.9h11.4l-3.8,42.3h-5.9l3.4-37.2h-1.8l-27.2,37.2h-4.5l-21-37.2h-1.7l-3.4,37.2h-6l3.8-42.3h11.8
				l19.5,35.1L387.6,474.9z M458.4,474l-4.3,43.2h-5.7l4.3-43.2H458.4z M515.1,517.2h-6.6l3.4-42.3h9.3l34.5,37l3.6-37h6l-4,42.3
				h-9.7l-33.9-37.3L515.1,517.2z M183,487.4c0.5-9.7-1.7-12.8-13.6-12.8h-23c-6.1,0-13.6,2.5-13.8,13.6l-1.4,15.8
				c-0.7,12.4,6.3,13.2,12.4,13.2h19.8c16.3,0,18.6-4.2,19.2-16.3c0.1-1.2,0.1-4.8,0.1-4.8l-27.3-0.2l-0.3,4.7l22,0
				c0,0-0.3,3.9-0.5,5.4c-0.7,5.4-5.3,5.7-11.8,5.8h-20.2c-2.2,0-5-0.2-6.2-1.4c-1-1-1.4-3.2-1.3-6.3L138,490c0.1-4.3,1.3-10,8.5-10
				l21.1,0c5.2,0,10-0.2,10.2,4.5c0.1,1.6,0.1,3.4,0.1,3.4l5.1,0.2V487.4z M660.9,487.4c0.5-9.7-1.7-12.8-13.6-12.8h-23
				c-6.1,0-13.6,2.5-13.8,13.6l-1.4,15.8c-0.7,12.4,6.3,13.2,12.4,13.2h19.8c16.3,0,18.6-4.2,19.2-16.3c0.1-1.2,0.1-4.8,0.1-4.8
				l-27.3-0.2l-0.3,4.7l22,0c0,0-0.3,3.9-0.5,5.4c-0.7,5.4-5.3,5.7-11.8,5.8h-20.2c-2.2,0-5-0.2-6.2-1.4c-1-1-1.4-3.2-1.3-6.3
				l0.9-14.1c0.1-4.3,1.3-10,8.5-10l21.1,0c5.2,0,10-0.2,10.2,4.5c0.1,1.6,0.1,3.4,0.1,3.4l5.1,0.2V487.4z"/>
			<polygon id="line" fill="#B62027" points="662.8,468.6 134.2,468.6 134.7,465.4 663.3,465.4 			"/>
		</g>
		<path fill="#B62027" d="M499,144.5l-16.9,194.6c0,6.6-5.4,11.9-12,11.9H347.9c-6,0-11.1-4.5-11.9-10.4c0.7,0.1,1.3,0.2,2,0.2
			h122.2c6.6,0,12-5.4,12-11.9l16.9-194.6c0-0.5,0-1.1-0.1-1.6C494.7,133.7,499,138.6,499,144.5z M473.3,117.3
			c0.1,0.5,0.1,1,0.1,1.6l-16.9,194.6c0,6.6-5.4,11.9-12,11.9H322.3c-0.7,0-1.4-0.1-2-0.2c0.8,5.8,5.8,10.4,11.9,10.4h122.2
			c6.6,0,12-5.4,12-11.9l16.9-194.6C483.2,123.2,478.9,118.3,473.3,117.3z M408.9,246.2c-24.3,32.6-28.9,55.8-32.8,72.9h62.3
			c6.7,0,12.3-5.5,12.3-12.3l8.5-98.1C443.1,213.2,420.6,230.6,408.9,246.2z M344.5,186.6c20.6-15,45.2-63.8,47.5-90.9l-61.4,0.8
			c-6.7,0-12.3,5.5-12.3,12.3l-8.5,97.2C326.3,201.4,339.1,190.5,344.5,186.6z M424.2,181.5c6.8,6.5,21,21.8,35.2,24.8l8.6-99.1
			c0-6.7-5.5-12.3-12.3-12.3l-60.4,0.8C396.2,126.9,406.1,163.9,424.2,181.5z M344.9,233.9c-7.6-8.3-20.4-18.5-35.3-25l-8.6,98
			c0,6.7,5.5,12.3,12.3,12.3h60C371.8,299.2,365.7,256.9,344.9,233.9z"/>
	</g>
</g>
</svg>
