<?xml version="1.0" encoding="utf-8"?>
<!-- Generator: Adobe Illustrator 17.1.0, SVG Export Plug-In . SVG Version: 6.00 Build 0)  -->
<!DOCTYPE svg PUBLIC "-//W3C//DTD SVG 1.1//EN" "http://www.w3.org/Graphics/SVG/1.1/DTD/svg11.dtd">
<svg version="1.1" xmlns="http://www.w3.org/2000/svg" xmlns:xlink="http://www.w3.org/1999/xlink" x="0px" y="0px"
	 viewBox="0 0 800 660" enable-background="new 0 0 800 660" xml:space="preserve">
<g id="Layer_2">
	
		<radialGradient id="SVGID_1_" cx="399.9813" cy="329.9318" r="395.506" gradientTransform="matrix(0.9639 0 0 0.88 14.4759 39.66)" gradientUnits="userSpaceOnUse">
		<stop  offset="0.5" style="stop-color:#262626"/>
		<stop  offset="1" style="stop-color:#1A1A1A"/>
	</radialGradient>
	<rect fill="url(#SVGID_1_)" width="800" height="660"/>
</g>
<g id="Layer_1">
	<path id="virtual-reality-casino_1_" fill="#FFFFFF" d="M545.4,297.6c-4.9-14.6-9.7-27.2-13.7-36.6c-6.2-14.1-9.7-18.6-14.8-19
		c-4.6-0.4-9.3-0.9-13.9-1.3c-3.8-0.4-7.1,2.6-7.3,6.2c-0.4,3.8,2.6,7.1,6.2,7.3c3.8,0.4,7.7,0.7,11.5,0.9
		c2.9,4.4,10.2,20.3,20.5,51.2c9.9,29.4,18.3,60.3,22.1,80.8c1.5,7.5,0.2,12.4-3.7,14.8c-9.5,5.8-21.6,7.1-25,7.3
		c-31.8-13.7-78.2-21.6-127.8-21.6c-49.3,0-95.8,7.9-127.4,21.4c-3.7-0.2-15.4-1.3-24.7-6.9c-4-2.4-5.1-6.8-3.7-14.6
		c8.6-45.7,33.8-120.6,41.9-132.1c37.8-3.5,76.2-5.1,113.9-5.1c10.8,0,21.6,0.2,32.3,0.4c3.8,0.2,6.9-2.9,7.1-6.8
		c0.2-3.8-2.9-6.9-6.8-7.1c-11-0.4-21.9-0.4-32.7-0.4c-38.9,0-78.4,1.8-117.3,5.5c-5.1,0.5-8.6,4.9-14.6,19.2
		c-4,9.1-8.6,21.7-13.5,36.6c-10.4,31.4-19.6,64.9-23.8,87.4c-2.6,13.5,0.7,23.2,9.9,28.9c15,9.3,33.6,9,33.8,9
		c0.7,0,1.5-0.2,2.2-0.5c30-13.2,74.9-20.8,123.4-20.8c48.1,0,93,7.5,123,20.7l0,0c1.1,0.5,2.6,0.7,4.8,0.7c2.6,0,6-0.4,10.1-1.1
		c5.8-1.1,14.3-3.3,22.1-8c9-5.5,12.6-15.7,10.1-29.1C565.3,362.4,556.2,329.2,545.4,297.6z M530.6,411.4c0.9,0.9,1.6,2.4,1.8,4
		C532.4,414,531.7,412.5,530.6,411.4z M451.8,244.6c0.2-3.8,3.3-6.8,7.1-6.6c5.5,0.4,11,0.5,16.4,0.9c3.7,0.2,6.6,3.5,6.4,7.3
		c-0.2,3.7-3.1,6.4-6.8,6.4c0,0-0.2,0-0.4,0c-5.5-0.4-10.8-0.7-16.3-0.9C454.7,251.5,451.6,248.4,451.8,244.6z M598.8,264.3h-23
		c-0.5-3.5-0.9-6.9-1.5-10.4c-2-14.8-15.2-28.1-29.4-29.8c-48.1-5.5-96.9-8.2-145.1-8.2s-97,2.7-145.1,8.2
		c-14.3,1.6-27.4,15-29.4,29.8c-0.5,3.5-0.9,6.9-1.5,10.4h-22.5c-11.3,0-20.7,9.3-20.7,20.7v68.7c0,11.3,9.3,20.7,20.7,20.7h6.9
		c-1.6,11.3-3.3,22.7-4.8,33.6c-1.1,7.1,0.7,14.1,5.1,19.9c4.4,5.8,11,9.7,18.3,10.8c14.8,2,30,3.8,45.1,5.3c0.9,0,1.8,0.2,2.6,0.2
		c4,0,7.9-0.9,11.5-2.6c26.3-11.9,68.7-19,113.5-19s87.4,7.1,113.5,19c3.7,1.6,7.5,2.6,11.5,2.6c0.9,0,1.8,0,2.6-0.2
		c15.2-1.5,30.3-3.3,45.1-5.3c7.3-1.1,13.9-4.9,18.3-10.8c4.4-5.8,6.2-12.8,5.1-19.9c-1.6-11-3.1-22.1-4.8-33.6h7.9
		c11.3,0,20.7-9.3,20.7-20.7v-68.7C619.2,273.6,610.1,264.3,598.8,264.3z M201.2,360.4c-3.8,0-6.8-3.1-6.8-6.8v-68.7
		c0-3.8,3.1-6.8,6.8-6.8h20.3c-3.8,28.3-7.7,55.7-11.5,82.4h-8.8L201.2,360.4z M579.6,419.5c-2.2,2.9-5.5,4.9-9.1,5.5
		c-14.6,2-29.6,3.7-44.6,5.1c-2.4,0.2-4.8-0.2-6.9-1.3c-28.3-13-71.8-20.3-119.2-20.3s-90.8,7.3-119.2,20.3
		c-2.2,1.1-4.8,1.5-6.9,1.3c-15-1.5-30-3.3-44.6-5.1c-3.7-0.5-6.9-2.4-9.3-5.5c-2.2-2.9-3.1-6.2-2.6-9.7
		c6.9-47.9,14.3-99.8,21.6-153.9c1.1-8.6,9.3-17,17.4-18.1c47.5-5.3,95.8-8,143.7-8s96.1,2.7,143.5,8c8,0.9,16.3,9.3,17.4,18.1
		c7.3,54.3,14.6,106,21.6,153.9C582.7,413.1,581.8,416.5,579.6,419.5z M605.5,353.7c0,3.8-3.1,6.8-6.8,6.8h-9.7
		c-3.8-26.5-7.7-54.1-11.5-82.4h21.2c3.8,0,6.8,3.1,6.8,6.8V353.7L605.5,353.7z M420,360.4c3.8,0,6.9,3.1,6.9,6.9s-3.1,6.9-6.9,6.9
		h-41.1c-3.8,0-6.9-3.1-6.9-6.9s3.1-6.9,6.9-6.9H420z M351.5,353.7c7.5,0,13.7,6.2,13.7,13.7c0,7.5-6.2,13.7-13.7,13.7
		s-13.7-6.2-13.7-13.7C337.8,359.7,344,353.7,351.5,353.7z M344.2,321.7c0.4,0,0.5,0,0.9,0l0,0c0.2,0,0.2,0,0.4,0l0,0l0,0l0,0
		c0.2,0,0.2,0,0.4,0c0,0,0,0,0.2,0c0,0,0,0,0.2,0s0.2,0,0.4,0h0.2l0,0l0,0l0,0c0.2,0,0.2,0,0.4,0l0,0l0,0c-0.7,1.6-1.5,2.9-2.4,4.4
		v0.2c-0.7,1.3-0.7,2.9,0,4.4c0.7,1.3,2.2,2.2,3.8,2.2h11.3c1.6,0,2.9-0.9,3.8-2.2c0.7-1.3,0.7-3.1,0-4.4l0,0
		c-0.9-1.5-1.6-2.7-2.4-4.4l0,0l0,0l0,0c0.2,0,0.2,0,0.4,0l0,0l0,0l0,0h0.2c0.2,0,0.2,0,0.4,0c0,0,0,0,0.2,0c0,0,0,0,0.2,0
		c0.2,0,0.2,0,0.4,0h0.2l0,0c0.2,0,0.4,0,0.4,0l0,0c0.4,0,0.5,0,0.9,0c3.5,0,6.8-1.3,9.5-3.5c1.5,1.8,2.9,4,4.6,6
		c1.3,1.8,2.7,3.7,4.4,5.8c0.9,1.1,2.2,1.8,3.5,1.8c1.5,0,2.7-0.7,3.5-1.8c0,0,0,0,0-0.2c0.7,0.7,1.8,1.1,2.9,1.1h1.1
		c1.5,0,2.9-0.7,3.8-2c0.2,0.9,0.7,1.8,1.5,2.4c0.2,1.5,0.9,2.7,2.2,3.7c0.7,1.3,2.2,2.2,3.8,2.2h2.7c1.6,0,3.1-0.9,3.8-2.2
		c1.1-0.7,2-2,2.2-3.5c0.4,0.2,0.9,0.2,1.5,0.2h11.1c1.6,0,3.1-0.9,3.8-2.2c0.7-1.3,0.7-3.1,0-4.4l0,0c-1.3-2-2.2-3.7-2.9-6.2h0.2
		c1.3,0.4,2.4,0.4,3.7,0.4c0.5,0,1.1,0,1.6-0.2c0.2,0.5,0.5,1.1,0.9,1.5l9,9.7c0.9,0.9,2,1.5,3.3,1.5h0.2c1.3,0,2.4-0.5,3.3-1.5
		l24.3-26.5c1.5-1.6,1.5-4.2,0-5.8l-24.7-26.3c-0.9-0.9-2-1.5-3.3-1.5h-0.2c-1.3,0-2.4,0.5-3.3,1.5l-7.1,7.9
		c-2.6-5.5-8-9.1-14.4-9.1c-4.4,0-8.6,1.8-11.5,4.9c-3.1-3.1-7.1-4.9-11.3-4.9l0,0h-0.2l0,0c-4.4,0.2-8.4,2.2-11.3,5.7
		c-2.9-3.7-6.9-5.7-11.3-5.7l0,0h-0.2h-0.2c-5.1,0-10.1,2.6-13,6.9c-0.2-0.2-0.2-0.4-0.4-0.4c-1.1-1.5-2.4-2.9-3.7-4.4
		c-0.9-1.1-2-1.6-3.5-1.6c-1.3,0-2.6,0.5-3.5,1.6c-1.3,1.6-2.6,3.1-3.8,4.6c-10.6,13-15.9,19.4-17.5,28c-0.7,4.2,0.4,8.2,2.9,11.5
		C335.4,319.7,339.8,321.7,344.2,321.7z M411.4,318.8C411.4,318.9,411.2,318.9,411.4,318.8l-6,0.2c-0.2,0-0.2,0.2-0.2,0.2v2.6
		c0,0.2,0.2,0.2,0.2,0.2h1.1c0.2,0,0.2,0.2,0.2,0.2v2.7c0,0.2,0.2,0.2,0.2,0.2h1.1c0.2,0,0.2,0.2,0.2,0.2v2.6c0,0.2,0.2,0.2,0.2,0.2
		h1.1c0.2,0,0.2,0.2,0.2,0.2v2.6c0,0.2-0.2,0.2-0.2,0.2h-1.1c-0.2,0-0.2,0.2-0.2,0.2v1.1c0,0.2-0.2,0.2-0.2,0.2h-2.6
		c-0.2,0-0.2-0.2-0.2-0.2V331c0-0.2-0.2-0.2-0.2-0.2h-1.1c-0.2,0-0.2-0.2-0.2-0.2v-2.6c0-0.2-0.2-0.2-0.2-0.2h-1.1
		c-0.2,0-0.2-0.2-0.2-0.2v-2.2c0-0.2-0.2-0.2-0.2-0.2H401c-0.2,0-0.2-0.2-0.2-0.2v-2.7c0-0.2-0.2-0.2-0.2-0.2h-2.7
		c-0.2,0-0.2,0.2-0.2,0.2v1.1c0,0.2-0.2,0.2-0.2,0.2h-1.1c-0.2,0-0.2,0.2-0.2,0.2v1.1c0,0.2-0.2,0.2-0.2,0.2H395
		c-0.2,0-0.2,0.2-0.2,0.2v1.1c0,0.2-0.2,0.2-0.2,0.2h-1.1c-0.2,0-0.2-0.2-0.2-0.2v-26c0-0.2,0.2-0.2,0.2-0.2h1.1
		c0.2,0,0.2,0.2,0.2,0.2v1.1c0,0.2,0.2,0.2,0.2,0.2h1.1c0.2,0,0.2,0.2,0.2,0.2v1.1c0,0.2,0.2,0.2,0.2,0.2h1.1c0.2,0,0.2,0.2,0.2,0.2
		v1.1c0,0.2,0.2,0.2,0.2,0.2h1.1c0.2,0,0.2,0.2,0.2,0.2v1.1c0,0.2,0.2,0.2,0.2,0.2h1.1c0.2,0,0.2,0.2,0.2,0.2v1.1
		c0,0.2,0.2,0.2,0.2,0.2h1.1c0.2,0,0.2,0.2,0.2,0.2v1.1c0,0.2,0.2,0.2,0.2,0.2h1.1c0.2,0,0.2,0.2,0.2,0.2v1.1c0,0.2,0.2,0.2,0.2,0.2
		h1.1c0.2,0,0.2,0.2,0.2,0.2v1.1c0,0.2,0.2,0.2,0.2,0.2h1.1c0.2,0,0.2,0.2,0.2,0.2v1.1c0,0.2,0.2,0.2,0.2,0.2h1.1
		c0.2,0,0.2,0.2,0.2,0.2v1.1c0,0.2,0.2,0.2,0.2,0.2h1.1c0.2,0,0.2,0.2,0.2,0.2v1.1c0,0.2,0.2,0.2,0.2,0.2h1.1c0.2,0,0.2,0.2,0.2,0.2
		L411.4,318.8L411.4,318.8z M436.5,284.9l9.5-10.2l0,0l0,0l24.3,26.5L446,327.7l0,0l0,0l-9-9.7c5.7-2.2,9.7-7.9,9.7-14.3
		c0-6.8-4.6-12.6-10.6-14.6c0.2-1.1,0.4-2,0.4-3.1C436.5,285.7,436.5,285.3,436.5,284.9z M421.1,274.7c5.5,0,9.9,3.8,11.1,8.8
		c0.2,0.9,0.4,1.8,0.4,2.7c0,1.3-0.2,2.4-0.5,3.5c-0.4,0.9-0.7,1.6-1.1,2.6c0.9,0,1.6-0.4,7.7,3.8c0.2,3.1,1.6,6.2,4.2,7.9
		c0,5.3-3.8,9.7-8.8,11c-0.9,0.2-1.8,0.4-2.7,0.4c-0.9,0-1.8-0.2-2.7-0.4c-2.7-0.5-4.9-2.2-6.6-4.4c0,2.7,0.2,6.8,0.7,8.8
		c1.1,3.7,2.4,6,3.8,8.4h-11.1c1.5-2.4,2.7-4.6,3.8-8.4c0.5-2,0.7-6,0.7-8.8c-1.8,2.4-4.4,4-7.3,4.4c0,0-0.2,0-0.2-0.2
		c-0.4-0.7-0.9-1.3-1.5-1.5c-0.4-0.7-0.9-1.3-1.5-1.5c-0.4-0.7-0.9-1.3-1.6-1.6c-0.4-0.7-0.9-1.3-1.5-1.5c-0.2-0.4-0.4-0.7-0.7-1.1
		c4.4-6.6,6.8-11.9,7.9-17.7c0.5-3.7,0-7.3-1.6-10.4C414,276.5,417.3,274.7,421.1,274.7z M374.9,274.7L374.9,274.7
		C375.1,274.7,375.1,274.7,374.9,274.7c4.8,0.2,9.3,3.1,11.7,10.6c2.4-7.5,6.9-10.6,11.5-10.6h0.2h0.2c3.5,0,6.9,1.8,9.1,4.6
		c1.1,1.5,2,3.3,2.4,5.3c0.2,1.3,0.2,2.6,0.2,3.8c0,0.2,0,0.5-0.2,0.7c-0.2,1.1-0.4,2-0.7,3.1c-1.1,4-3.1,8-6.2,12.8
		c-0.4-0.4-0.7-0.7-1.3-0.9c-0.4-0.7-0.9-1.3-1.5-1.5c-0.4-0.7-0.9-1.3-1.6-1.6c-0.4-0.7-0.9-1.3-1.6-1.5c-0.5-1.1-1.5-1.8-2.7-1.8
		h-1.1c-1.6,0-3.1,1.3-3.1,3.1V323c-1.1,1.5-2.4,3.1-3.7,4.9l0,0l0,0c-3.8-5.1-7.1-9.5-9.9-13.2c1.6-2.7,2.4-6,1.6-9.3
		c-1.3-7.3-5.7-13.3-14.1-23.6C366.3,277.3,370.5,274.7,374.9,274.7z M333.9,305.8c1.5-8.2,7.5-14.8,20.5-30.5c2,2.6,4,4.9,5.7,6.9
		c1.1,1.3,2,2.6,2.9,3.7c6.9,8.6,10.6,13.9,11.7,19.9c0.4,2,0.2,3.8-0.5,5.3c-0.5,1.3-1.3,2.4-2.2,3.3c-2,2-5.1,3.3-8,3.1l0,0
		c-0.2,0-0.2,0-0.4,0c0,0,0,0-0.2,0c-0.2,0-0.2,0-0.4,0h-0.2h-0.2h-0.2c-0.2,0-0.2,0-0.2,0s-0.2,0-0.4,0c0,0,0,0-0.2,0
		c-0.2,0-0.2,0-0.4,0c0,0,0,0-0.2,0s-0.2,0-0.4-0.2l0,0c-2.2-0.9-4.4-2.6-5.8-5.5c0,2.7,0.2,6.4,0.7,8.2c1.1,3.8,2.4,6,3.8,8.4
		h-10.8c1.5-2.4,2.7-4.6,3.8-8.4c0.5-1.8,0.7-5.5,0.7-8.2c-1.5,2.9-3.7,4.6-5.8,5.5l0,0c-0.2,0-0.2,0-0.4,0.2c0,0,0,0-0.2,0
		c-0.2,0-0.2,0-0.4,0h-0.2c-0.2,0-0.2,0-0.4,0h-0.2h-0.2h-0.2h-0.2c-0.2,0-0.2,0-0.4,0c0,0,0,0-0.2,0s-0.2,0-0.4,0l0,0
		C338.7,317.7,332.7,312.5,333.9,305.8z"/>
</g>
</svg>
