<?xml version="1.0" standalone="no"?>
<!DOCTYPE svg PUBLIC "-//W3C//DTD SVG 20010904//EN"
 "http://www.w3.org/TR/2001/REC-SVG-20010904/DTD/svg10.dtd">
<svg version="1.0" xmlns="http://www.w3.org/2000/svg"
 width="1000.000000pt" height="1000.000000pt" viewBox="0 0 1000.000000 1000.000000"
 preserveAspectRatio="xMidYMid meet">
<metadata>
Created by potrace 1.11, written by Peter Selinger 2001-2013
</metadata>
<g transform="translate(0.000000,1000.000000) scale(0.100000,-0.100000)"
fill="#000000" stroke="none">
<path d="M4844 9938 c-27 -4 -69 -10 -94 -12 -57 -6 -76 -11 -175 -37 -44 -11
-86 -21 -92 -22 -7 0 -13 -4 -13 -9 0 -5 -4 -7 -9 -3 -5 3 -12 1 -16 -5 -3 -5
-15 -10 -26 -10 -11 0 -31 -7 -44 -16 -14 -9 -25 -14 -25 -11 0 10 -274 -138
-341 -184 -14 -10 -29 -16 -33 -12 -3 3 -6 1 -6 -5 0 -7 -6 -12 -14 -12 -7 0
-19 -7 -26 -15 -7 -8 -16 -13 -20 -10 -5 3 -10 1 -12 -3 -3 -7 -83 -54 -145
-86 -13 -6 -23 -14 -23 -18 0 -5 -5 -8 -11 -8 -6 0 -23 -8 -37 -19 -15 -10
-61 -36 -102 -58 -98 -52 -121 -65 -138 -81 -8 -7 -32 -21 -55 -32 -23 -12
-55 -29 -72 -40 -16 -11 -44 -26 -61 -34 -17 -8 -35 -19 -38 -25 -4 -6 -12 -9
-17 -6 -5 4 -9 1 -9 -4 0 -6 -7 -11 -15 -11 -8 0 -15 -3 -15 -7 0 -5 -10 -13
-23 -19 -46 -22 -132 -69 -137 -75 -3 -4 -25 -17 -50 -29 -25 -12 -47 -26 -50
-29 -3 -4 -21 -15 -40 -25 -19 -9 -56 -30 -82 -46 -27 -16 -48 -26 -48 -22 0
4 -4 2 -8 -3 -11 -15 -123 -80 -133 -77 -5 1 -9 -2 -9 -7 0 -5 -21 -20 -47
-33 -27 -13 -49 -26 -51 -30 -2 -5 -8 -8 -12 -8 -5 0 -46 -22 -92 -50 -46 -27
-88 -50 -95 -50 -6 0 -13 -4 -15 -9 -3 -8 -66 -47 -128 -78 -19 -9 -41 -23
-48 -30 -8 -7 -18 -11 -23 -8 -5 4 -9 2 -9 -4 0 -5 -20 -19 -45 -31 -24 -12
-60 -32 -79 -45 -19 -13 -37 -21 -40 -17 -3 3 -6 0 -6 -6 0 -7 -4 -12 -10 -12
-5 0 -34 -16 -64 -35 -30 -19 -59 -35 -65 -35 -5 0 -16 -6 -23 -12 -7 -7 -31
-22 -53 -33 -22 -11 -42 -22 -45 -26 -3 -3 -30 -19 -60 -35 -30 -16 -60 -35
-68 -41 -7 -7 -24 -16 -38 -19 -13 -3 -24 -9 -24 -13 0 -4 -16 -13 -35 -21
-19 -8 -35 -17 -35 -22 0 -4 -6 -8 -14 -8 -7 0 -19 -7 -26 -15 -7 -8 -16 -12
-21 -9 -5 3 -9 1 -9 -4 0 -5 -16 -17 -35 -26 -92 -44 -305 -225 -393 -335 -20
-25 -39 -48 -42 -51 -12 -11 -101 -143 -124 -183 -13 -24 -30 -54 -37 -68 -8
-13 -18 -27 -24 -31 -5 -4 -7 -8 -3 -8 4 0 -4 -26 -18 -57 -47 -106 -46 -105
-79 -218 -24 -84 -33 -131 -42 -205 -2 -25 -8 -61 -12 -80 -9 -47 -5 -3568 4
-3645 9 -79 13 -101 25 -160 6 -27 12 -57 13 -66 2 -8 8 -28 14 -45 5 -16 16
-47 23 -69 38 -123 132 -307 219 -430 59 -83 212 -255 227 -255 3 0 15 -10 27
-23 31 -31 97 -81 175 -133 37 -24 72 -47 77 -51 6 -5 40 -23 75 -42 36 -19
67 -37 70 -40 3 -3 18 -13 35 -21 16 -8 59 -32 94 -53 70 -43 115 -69 176
-102 57 -31 89 -49 95 -55 3 -3 19 -12 35 -21 49 -26 80 -44 85 -50 3 -4 23
-15 45 -26 47 -24 83 -44 150 -84 28 -17 58 -33 68 -36 9 -3 17 -9 17 -13 0
-4 14 -13 31 -21 29 -11 180 -98 204 -116 6 -5 36 -21 68 -38 31 -16 57 -33
57 -38 0 -4 3 -6 8 -5 4 1 18 -5 32 -13 54 -35 172 -99 181 -99 5 0 9 -4 9
-10 0 -5 6 -10 14 -10 8 0 21 -6 28 -13 15 -13 40 -28 108 -64 25 -13 59 -32
75 -42 34 -20 98 -58 196 -113 13 -7 26 -15 29 -19 3 -3 22 -13 43 -22 20 -10
37 -22 37 -27 0 -6 3 -9 8 -8 12 2 44 -14 89 -44 23 -15 46 -28 51 -28 6 0 12
-3 14 -7 1 -5 29 -21 60 -38 32 -16 58 -34 58 -39 0 -5 3 -7 6 -3 3 3 41 -16
83 -42 42 -26 91 -54 109 -62 18 -8 32 -17 32 -21 0 -5 6 -8 14 -8 8 0 21 -6
29 -14 8 -8 29 -22 48 -30 19 -9 52 -27 74 -41 22 -14 49 -30 60 -35 11 -5 38
-21 60 -34 49 -30 164 -87 225 -111 25 -10 59 -23 75 -30 17 -7 55 -19 85 -26
30 -7 57 -16 60 -19 3 -3 14 -6 25 -7 11 0 65 -9 120 -18 133 -22 379 -22 483
-1 15 3 45 8 67 12 60 8 97 16 125 27 8 3 47 15 85 27 39 12 82 28 96 35 14 8
29 12 33 8 3 -3 6 -1 6 5 0 7 6 12 13 12 22 1 225 109 260 138 9 8 17 11 17 6
0 -5 4 -4 8 1 8 13 170 105 183 105 5 0 9 4 9 9 0 5 10 13 23 17 12 4 24 9 27
13 6 7 37 25 95 55 22 12 42 23 45 26 3 3 19 12 35 20 17 8 32 17 35 20 8 8
43 29 75 46 17 8 44 23 60 34 17 10 50 29 75 41 25 13 47 26 50 29 3 4 12 9
20 13 8 4 33 18 55 32 22 14 54 32 70 40 17 9 57 32 90 51 33 19 68 38 78 41
9 3 17 9 17 14 0 5 4 9 9 9 5 0 42 20 83 45 42 25 80 45 87 45 6 0 11 4 11 10
0 5 11 12 25 16 14 3 25 10 25 15 0 5 5 9 10 9 6 0 28 11 49 24 21 14 42 22
45 19 3 -4 6 -1 6 5 0 7 7 12 15 12 8 0 15 3 15 8 0 4 10 12 23 18 42 21 112
59 117 64 8 8 43 29 70 42 14 7 27 15 30 18 3 3 23 14 45 25 22 11 42 22 45
25 4 4 38 24 95 54 11 6 22 13 25 16 6 6 34 22 110 63 30 16 60 33 65 37 6 4
28 18 50 30 49 28 123 69 150 84 10 6 25 17 33 23 7 7 19 13 26 13 8 0 19 7
26 15 7 8 16 12 21 9 5 -3 9 -1 9 4 0 5 10 14 23 20 33 17 113 62 194 110 39
23 76 42 81 42 6 0 12 3 14 8 2 4 37 27 78 52 140 82 266 182 369 294 20 21
46 49 59 63 12 13 22 27 22 30 0 3 9 14 21 24 11 9 20 21 20 26 0 4 9 18 19
31 11 12 20 27 20 32 0 6 3 10 8 10 4 0 12 10 18 23 32 64 79 143 88 149 6 4
7 8 3 8 -5 0 -1 12 7 28 14 26 66 156 71 177 1 5 9 35 19 66 16 56 24 85 31
124 12 70 16 95 21 140 8 64 8 3580 0 3660 -6 71 -13 107 -40 225 -8 36 -24
92 -35 125 -12 33 -23 67 -25 75 -6 25 -129 264 -143 278 -7 7 -13 17 -13 22
0 5 -6 15 -14 23 -8 8 -27 32 -41 53 -74 109 -209 244 -345 343 -30 22 -60 44
-65 48 -6 4 -26 17 -45 27 -19 11 -37 22 -40 25 -3 3 -35 22 -72 41 -38 19
-68 38 -68 43 0 4 -5 7 -10 7 -14 0 -244 132 -248 142 -2 5 -9 8 -16 8 -6 0
-27 11 -46 23 -19 13 -71 43 -115 67 -44 24 -83 48 -87 54 -4 6 -8 7 -8 2 0
-5 -7 -3 -15 4 -21 17 -76 49 -97 56 -10 4 -18 9 -18 13 0 3 -15 12 -32 20
-18 8 -46 23 -63 35 -16 12 -50 32 -75 45 -25 14 -48 29 -51 34 -3 5 -9 8 -13
8 -9 -1 -40 12 -46 18 -3 4 -22 15 -42 26 -21 11 -38 23 -38 27 0 5 -3 7 -7 6
-10 -3 -147 73 -151 84 -2 4 -8 8 -12 8 -5 0 -49 23 -97 51 -48 28 -103 60
-120 70 -18 10 -48 27 -65 38 -18 10 -53 30 -78 45 -25 14 -60 34 -77 43 -18
9 -33 21 -33 25 0 5 -4 7 -9 3 -5 -3 -15 0 -23 7 -12 12 -32 23 -119 71 -13 7
-43 25 -66 40 -24 15 -47 27 -53 27 -5 0 -10 5 -10 11 0 5 -4 8 -9 4 -5 -3
-12 -1 -15 4 -3 5 -29 21 -58 36 -29 15 -55 30 -58 34 -3 3 -34 21 -70 40 -36
19 -67 37 -70 40 -3 3 -18 13 -35 21 -16 8 -75 42 -130 74 -55 32 -120 70
-145 84 -25 14 -48 30 -52 36 -4 6 -8 7 -8 2 0 -5 -6 -4 -12 2 -7 5 -29 19
-49 30 -74 41 -84 47 -89 52 -11 12 -212 105 -245 113 -11 3 -44 14 -72 25
-29 11 -53 19 -53 17 0 -2 -21 2 -47 10 -46 13 -141 31 -228 42 -65 8 -258 9
-311 1z m-234 -142 c0 -2 -8 -10 -17 -17 -16 -13 -17 -12 -4 4 13 16 21 21 21
13z m154 -34 c3 -5 -1 -9 -9 -9 -8 0 -12 4 -9 9 3 4 7 8 9 8 2 0 6 -4 9 -8z
m-480 -320 c3 -5 -1 -9 -9 -9 -8 0 -12 4 -9 9 3 4 7 8 9 8 2 0 6 -4 9 -8z
m1001 -151 c3 -5 2 -12 -3 -15 -5 -3 -9 1 -9 9 0 17 3 19 12 6z m1172 -61 c47
-27 89 -50 94 -50 5 0 9 -3 9 -8 0 -4 17 -15 38 -25 56 -27 96 -49 102 -56 3
-4 16 -12 30 -19 14 -7 43 -23 65 -37 22 -13 54 -31 70 -39 17 -9 44 -25 60
-36 17 -11 44 -27 60 -35 17 -8 48 -26 70 -40 22 -14 54 -32 70 -40 33 -17 67
-37 75 -45 3 -3 19 -12 35 -21 54 -28 80 -44 86 -52 3 -5 10 -9 15 -9 5 -1 18
-6 29 -13 11 -7 58 -34 105 -60 47 -26 87 -52 88 -57 2 -4 8 -6 13 -2 5 3 9 0
9 -5 0 -6 3 -10 8 -9 9 3 146 -73 150 -84 2 -4 8 -8 13 -8 16 0 148 -83 153
-97 4 -9 1 -11 -6 -7 -8 5 -9 2 -5 -10 4 -9 3 -15 -2 -12 -5 4 -31 -31 -57
-76 -59 -103 -97 -145 -152 -170 -68 -31 -141 -26 -221 14 -36 18 -72 32 -78
32 -7 -1 -11 2 -8 6 7 12 -105 71 -119 63 -6 -3 -8 -2 -3 2 8 10 -43 46 -55
39 -4 -3 -8 -1 -8 4 0 15 -179 114 -192 106 -6 -4 -8 -3 -5 3 4 6 -15 21 -41
34 -26 13 -49 26 -52 29 -18 19 -63 40 -73 34 -7 -4 -9 -4 -5 1 10 11 -50 47
-64 39 -6 -4 -8 -3 -5 3 5 8 -40 38 -51 34 -1 -1 -8 3 -15 9 -37 31 -91 60
-104 56 -8 -3 -12 -2 -8 3 3 5 -52 42 -122 82 -71 40 -146 91 -168 113 -22 22
-43 39 -46 38 -4 0 -6 4 -6 11 1 30 -4 48 -11 43 -17 -10 5 140 27 182 12 23
19 47 16 53 -4 5 -1 8 7 7 7 -2 12 5 12 14 -1 10 2 15 7 13 10 -7 31 30 22 39
-3 3 -1 6 5 6 6 0 18 14 27 30 9 17 18 30 21 30 3 0 44 -22 91 -50z m-689 5
c-3 -3 -9 2 -12 12 -6 14 -5 15 5 6 7 -7 10 -15 7 -18z m82 -31 c0 -8 -19 -13
-24 -6 -3 5 1 9 9 9 8 0 15 -2 15 -3z m194 -2 c3 -5 -1 -9 -9 -9 -8 0 -12 4
-9 9 3 4 7 8 9 8 2 0 6 -4 9 -8z m-2593 -114 c23 -40 46 -76 52 -79 5 -3 8 -9
8 -13 -1 -3 6 -20 14 -37 23 -44 30 -121 15 -174 -22 -78 -67 -115 -307 -254
-123 -70 -219 -132 -215 -136 4 -5 2 -5 -5 -1 -15 9 -85 -33 -76 -47 3 -5 1
-7 -5 -4 -13 9 -44 -2 -37 -13 3 -5 0 -12 -6 -16 -8 -4 -9 -3 -5 4 4 7 5 12 2
12 -9 0 -251 -143 -257 -153 -3 -5 -10 -9 -15 -9 -17 0 -144 -75 -139 -81 3
-4 2 -5 -1 -3 -9 7 -84 -34 -84 -46 0 -5 -4 -7 -8 -4 -5 3 -21 -4 -38 -15 -45
-31 -92 -48 -135 -51 -21 -2 -39 -7 -39 -12 0 -5 -6 -4 -12 1 -7 5 -32 15 -56
23 -58 18 -102 64 -167 174 -71 122 -71 122 -41 138 60 32 189 105 279 159 54
33 99 59 102 59 2 0 40 22 84 50 45 27 81 46 81 42 0 -4 4 -2 8 3 5 8 187 116
287 169 10 6 25 17 33 24 7 7 18 10 23 7 5 -4 9 -1 9 4 0 6 7 11 15 11 8 0 15
4 15 8 0 5 16 14 35 22 19 8 35 16 35 19 0 4 30 22 68 41 37 19 73 41 80 47 7
7 18 13 23 13 6 0 17 7 26 15 8 8 19 13 24 10 5 -4 9 -2 9 3 0 10 101 68 113
64 4 -1 7 3 7 8 0 6 7 10 15 10 8 0 15 5 15 10 0 6 6 10 13 11 6 0 32 13 57
29 25 16 48 29 51 29 4 1 26 -32 50 -71z m1994 3 c3 -5 2 -12 -3 -15 -5 -3 -9
1 -9 9 0 17 3 19 12 6z m605 -45 c0 -3 -4 -8 -10 -11 -5 -3 -10 -1 -10 4 0 6
5 11 10 11 6 0 10 -2 10 -4z m155 -14 c-3 -3 -11 0 -18 7 -9 10 -8 11 6 5 10
-3 15 -9 12 -12z m-2198 -67 c0 -8 -4 -12 -9 -9 -5 3 -6 10 -3 15 9 13 12 11
12 -6z m883 -5 c0 -5 -2 -10 -4 -10 -3 0 -8 5 -11 10 -3 6 -1 10 4 10 6 0 11
-4 11 -10z m-1280 -396 c0 -8 -19 -13 -24 -6 -3 5 1 9 9 9 8 0 15 -2 15 -3z
m1675 -233 c3 -5 2 -12 -3 -15 -5 -3 -9 1 -9 9 0 17 3 19 12 6z m-2435 -45 c0
-2 -7 -7 -16 -10 -8 -3 -12 -2 -9 4 6 10 25 14 25 6z m-927 -201 c-3 -9 -8
-14 -10 -11 -3 3 -2 9 2 15 9 16 15 13 8 -4z m-233 1 c0 -2 -7 -7 -16 -10 -8
-3 -12 -2 -9 4 6 10 25 14 25 6z m1154 -4 c3 -5 -1 -9 -9 -9 -8 0 -12 4 -9 9
3 4 7 8 9 8 2 0 6 -4 9 -8z m4283 -77 c0 -8 -4 -12 -9 -9 -5 3 -6 10 -3 15 9
13 12 11 12 -6z m-86 -52 c13 -16 12 -17 -3 -4 -10 7 -18 15 -18 17 0 8 8 3
21 -13z m-1992 -16 c25 -7 143 -65 151 -76 3 -3 22 -15 43 -26 20 -11 37 -23
37 -28 0 -4 4 -6 9 -3 4 3 19 -3 31 -14 12 -11 32 -22 44 -26 11 -3 35 -16 51
-28 17 -11 56 -34 87 -51 32 -16 58 -33 58 -37 0 -5 4 -8 9 -8 4 0 50 -24 100
-52 51 -29 104 -59 119 -67 15 -8 29 -17 32 -21 3 -4 34 -22 70 -42 90 -49
413 -235 425 -245 6 -5 27 -17 48 -26 20 -10 37 -22 37 -28 0 -6 4 -8 9 -4 5
3 16 0 23 -7 8 -7 27 -20 43 -29 50 -26 80 -44 85 -50 3 -3 34 -20 70 -38 36
-18 72 -38 80 -45 8 -7 58 -36 110 -66 52 -29 98 -58 102 -64 4 -6 8 -7 8 -3
0 5 12 0 28 -11 15 -11 45 -29 67 -41 22 -12 58 -33 80 -46 22 -13 52 -29 68
-36 15 -6 27 -15 27 -19 0 -5 8 -11 19 -15 56 -18 98 -88 99 -165 0 -57 -28
-130 -50 -130 -6 0 -8 -3 -5 -6 6 -6 -35 -44 -47 -44 -4 0 -12 -5 -19 -10 -23
-20 -127 -78 -127 -72 0 4 -4 2 -8 -4 -4 -6 -50 -35 -102 -65 -52 -29 -101
-59 -108 -66 -6 -6 -22 -15 -35 -19 -12 -4 -24 -10 -27 -14 -3 -4 -30 -20 -60
-37 -78 -42 -104 -57 -110 -63 -5 -5 -33 -22 -80 -47 -14 -8 -38 -23 -55 -33
-16 -11 -46 -28 -65 -37 -19 -10 -37 -20 -40 -23 -12 -13 -116 -71 -124 -70
-5 1 -12 -4 -16 -11 -5 -6 -28 -13 -51 -15 -24 -1 -46 -3 -49 -4 -3 -1 -7 -2
-10 -2 -107 9 -146 18 -170 42 -3 3 -34 20 -70 39 -36 19 -84 47 -107 63 -23
15 -46 28 -52 28 -5 0 -16 6 -23 13 -12 12 -25 20 -110 64 -18 9 -35 19 -38
22 -3 4 -22 15 -42 26 -21 11 -38 23 -38 28 0 4 -4 6 -8 3 -5 -3 -24 5 -43 18
-19 12 -59 36 -89 53 -30 16 -90 51 -133 77 -43 25 -91 49 -105 52 -15 4 -31
10 -37 14 -11 9 -155 10 -170 1 -5 -3 -19 -7 -29 -8 -11 -2 -24 -7 -30 -12 -6
-5 -31 -20 -56 -33 -25 -14 -90 -51 -145 -83 -55 -32 -125 -71 -155 -88 -30
-17 -67 -38 -82 -49 -14 -10 -30 -18 -36 -18 -5 0 -15 -7 -22 -15 -7 -8 -16
-12 -21 -9 -5 3 -9 1 -9 -3 0 -5 -17 -17 -37 -28 -21 -11 -63 -35 -93 -54 -30
-19 -61 -34 -67 -34 -7 0 -13 -3 -13 -7 0 -3 -22 -17 -50 -31 -27 -13 -50 -27
-50 -31 0 -5 -6 -8 -12 -8 -7 0 -25 -10 -40 -23 -14 -12 -36 -29 -47 -37 -12
-8 -21 -20 -21 -27 0 -7 -4 -13 -9 -13 -5 0 -14 -13 -21 -30 -7 -16 -17 -30
-22 -30 -5 0 -7 -3 -5 -7 3 -5 0 -19 -6 -33 -5 -14 -11 -34 -13 -45 -8 -50 -4
-1083 5 -1110 36 -118 92 -185 201 -244 25 -13 52 -29 60 -35 8 -6 24 -16 35
-22 61 -33 116 -65 160 -92 28 -18 59 -36 70 -41 29 -13 208 -118 223 -131 6
-6 12 -8 12 -6 0 3 29 -12 65 -34 36 -22 69 -40 74 -40 5 0 11 -3 13 -7 7 -17
136 -78 187 -88 102 -21 213 8 325 84 17 11 33 18 38 15 4 -3 8 -1 8 4 0 5 12
15 28 23 15 7 55 31 90 51 34 21 64 38 66 38 2 0 34 18 70 40 36 22 70 40 76
40 5 0 10 4 10 9 0 5 17 16 38 25 20 9 51 25 67 36 17 11 44 26 60 35 43 23
84 46 130 74 63 39 85 50 85 44 0 -3 7 1 17 8 23 20 181 19 219 -1 16 -8 64
-36 107 -62 43 -27 83 -48 88 -48 5 0 9 -4 9 -9 0 -5 10 -11 23 -15 12 -3 31
-13 43 -23 11 -10 26 -19 34 -21 8 -2 22 -9 30 -15 8 -7 26 -18 39 -25 13 -8
40 -23 60 -35 20 -11 48 -27 64 -34 15 -8 27 -19 27 -24 0 -6 4 -8 9 -4 5 3
12 1 16 -4 3 -6 26 -20 50 -32 25 -12 45 -27 45 -31 0 -5 5 -6 10 -3 6 3 10 2
10 -4 0 -5 10 -13 21 -16 20 -7 276 -155 323 -187 58 -40 93 -162 65 -231 -14
-37 -82 -107 -103 -107 -8 0 -16 -3 -18 -8 -4 -9 -147 -92 -159 -92 -5 0 -9
-3 -9 -8 0 -4 -30 -23 -66 -42 -36 -19 -73 -39 -83 -45 -9 -5 -60 -36 -113
-67 -52 -32 -99 -58 -102 -58 -4 0 -27 -13 -51 -30 -24 -16 -46 -30 -50 -30
-3 0 -30 -16 -60 -35 -30 -19 -55 -31 -55 -27 0 4 -4 2 -8 -3 -9 -14 -148 -95
-161 -95 -6 0 -11 -4 -11 -9 0 -5 -10 -13 -22 -17 -12 -3 -45 -22 -74 -40 -29
-19 -56 -34 -60 -34 -4 0 -30 -15 -58 -33 -28 -19 -76 -47 -106 -63 -30 -15
-73 -40 -95 -54 -22 -14 -49 -31 -60 -38 -11 -6 -40 -22 -65 -35 -25 -12 -47
-25 -50 -28 -3 -3 -25 -18 -50 -32 -124 -71 -190 -110 -245 -142 -33 -19 -80
-47 -105 -61 -25 -14 -63 -36 -85 -49 -116 -70 -189 -89 -265 -69 -61 16 -80
25 -80 35 0 5 -5 9 -11 9 -11 0 -259 139 -269 150 -3 3 -21 14 -40 23 -19 10
-48 27 -65 37 -16 11 -37 23 -45 27 -8 4 -37 20 -65 36 -27 17 -65 38 -82 48
-92 53 -140 80 -194 111 -13 7 -26 15 -29 18 -3 3 -30 18 -60 34 -30 16 -57
32 -60 35 -3 3 -25 17 -50 30 -25 14 -48 29 -51 34 -3 5 -10 9 -15 9 -8 0 -23
8 -134 72 -25 14 -67 37 -95 52 -27 15 -52 29 -55 33 -3 3 -30 19 -60 35 -30
16 -67 37 -82 48 -14 10 -29 18 -32 18 -4 0 -25 12 -49 27 -23 14 -67 40 -97
56 -30 16 -62 35 -70 42 -8 7 -22 15 -30 18 -8 4 -37 20 -65 36 -27 17 -72 42
-100 57 -27 15 -52 29 -55 33 -3 4 -16 12 -30 18 -14 7 -52 28 -85 47 -33 19
-73 43 -90 52 -16 9 -33 21 -36 26 -3 5 -10 9 -15 9 -18 -1 -139 75 -176 111
-39 38 -55 69 -66 123 -3 17 -6 659 -6 1428 -1 1156 1 1399 12 1406 8 5 13 10
11 12 -5 9 13 49 22 49 5 0 9 6 9 13 0 7 10 19 21 27 12 8 27 20 33 26 6 5 36
23 66 40 30 16 61 35 68 41 7 7 19 13 26 13 8 0 19 7 26 15 7 8 16 13 20 10 5
-3 10 -1 12 3 3 8 124 82 133 82 2 0 40 22 84 50 45 27 81 46 81 42 0 -4 4 -2
8 4 4 6 43 30 87 54 44 24 98 55 120 70 22 14 51 31 65 38 14 7 48 26 75 42
28 17 58 33 68 36 9 4 17 10 17 14 0 6 37 21 49 19 2 0 7 3 10 8 6 8 112 73
141 87 8 4 24 12 35 19 77 48 191 111 194 108 2 -1 7 2 10 7 5 8 36 27 191
114 19 11 60 35 90 53 98 58 155 89 159 86 2 -1 7 2 10 7 7 11 196 118 196
112 0 -3 11 5 25 18 13 12 31 22 41 22 9 0 19 7 23 15 3 8 12 15 19 15 8 0 26
9 41 21 14 11 26 17 26 12 0 -4 4 -3 8 2 11 17 149 95 166 95 9 0 16 4 16 9 0
17 102 22 159 8z m3441 -1 c0 -2 -8 -10 -17 -17 -16 -13 -17 -12 -4 4 13 16
21 21 21 13z m-155 -16 c-3 -5 -12 -10 -18 -10 -7 0 -6 4 3 10 19 12 23 12 15
0z m-488 -85 c0 -8 -4 -12 -9 -9 -5 3 -6 10 -3 15 9 13 12 11 12 -6z m318 6
c3 -5 2 -12 -3 -15 -5 -3 -9 1 -9 9 0 17 3 19 12 6z m322 -6 c0 -8 -4 -12 -9
-9 -5 3 -6 10 -3 15 9 13 12 11 12 -6z m-6837 -75 c0 -5 -5 -10 -11 -10 -5 0
-7 5 -4 10 3 6 8 10 11 10 2 0 4 -4 4 -10z m4275 -39 c3 -5 2 -12 -3 -15 -5
-3 -9 1 -9 9 0 17 3 19 12 6z m-4071 -119 c3 -5 -1 -9 -9 -9 -8 0 -12 4 -9 9
3 4 7 8 9 8 2 0 6 -4 9 -8z m4711 -10 c-3 -3 -11 0 -18 7 -9 10 -8 11 6 5 10
-3 15 -9 12 -12z m-395 -106 c0 -2 -7 -7 -16 -10 -8 -3 -12 -2 -9 4 6 10 25
14 25 6z m398 -51 c-3 -3 -9 2 -12 12 -6 14 -5 15 5 6 7 -7 10 -15 7 -18z
m-2958 -69 c0 -3 -4 -8 -10 -11 -5 -3 -10 -1 -10 4 0 6 5 11 10 11 6 0 10 -2
10 -4z m-1525 -155 c3 -5 2 -12 -3 -15 -5 -3 -9 1 -9 9 0 17 3 19 12 6z m-160
-10 c3 -5 2 -12 -3 -15 -5 -3 -9 1 -9 9 0 17 3 19 12 6z m105 -1 c0 -5 -2 -10
-4 -10 -3 0 -8 5 -11 10 -3 6 -1 10 4 10 6 0 11 -4 11 -10z m1017 -5 c0 -8 -4
-12 -9 -9 -5 3 -6 10 -3 15 9 13 12 11 12 -6z m5373 -151 c0 -8 -19 -13 -24
-6 -3 5 1 9 9 9 8 0 15 -2 15 -3z m-1452 -49 c-3 -3 -9 2 -12 12 -6 14 -5 15
5 6 7 -7 10 -15 7 -18z m652 -31 c0 -8 -19 -13 -24 -6 -3 5 1 9 9 9 8 0 15 -2
15 -3z m867 -89 c0 -8 -4 -12 -9 -9 -5 3 -6 10 -3 15 9 13 12 11 12 -6z m318
6 c3 -5 2 -12 -3 -15 -5 -3 -9 1 -9 9 0 17 3 19 12 6z m-7435 -77 c0 -8 -19
-13 -24 -6 -3 5 1 9 9 9 8 0 15 -2 15 -3z m1250 0 c0 -8 -19 -13 -24 -6 -3 5
1 9 9 9 8 0 15 -2 15 -3z m4800 0 c0 -8 -19 -13 -24 -6 -3 5 1 9 9 9 8 0 15
-2 15 -3z m1944 -2 c3 -5 -1 -9 -9 -9 -8 0 -12 4 -9 9 3 4 7 8 9 8 2 0 6 -4 9
-8z m-8639 -41 c3 -5 2 -12 -3 -15 -5 -3 -9 1 -9 9 0 17 3 19 12 6z m7039
-119 c3 -5 -1 -9 -9 -9 -8 0 -12 4 -9 9 3 4 7 8 9 8 2 0 6 -4 9 -8z m-5679
-81 c3 -5 2 -12 -3 -15 -5 -3 -9 1 -9 9 0 17 3 19 12 6z m5923 -46 c-3 -3 -9
2 -12 12 -6 14 -5 15 5 6 7 -7 10 -15 7 -18z m-7043 -74 c3 -5 2 -12 -3 -15
-5 -3 -9 1 -9 9 0 17 3 19 12 6z m-160 -200 c3 -5 2 -12 -3 -15 -5 -3 -9 1 -9
9 0 17 3 19 12 6z m-25 -77 c0 -8 -19 -13 -24 -6 -3 5 1 9 9 9 8 0 15 -2 15
-3z m185 -73 c3 -5 2 -12 -3 -15 -5 -3 -9 1 -9 9 0 17 3 19 12 6z m8160 0 c3
-5 2 -12 -3 -15 -5 -3 -9 1 -9 9 0 17 3 19 12 6z m-8201 -177 c3 -8 2 -12 -4
-9 -6 3 -10 10 -10 16 0 14 7 11 14 -7z m4043 1 c0 -8 -4 -12 -9 -9 -5 3 -6
10 -3 15 9 13 12 11 12 -6z m4228 -35 c-3 -5 1 -10 9 -10 9 0 16 6 16 13 0 8
3 8 8 2 8 -12 27 -13 38 -3 4 4 14 3 21 -4 11 -9 17 -9 24 3 5 8 9 9 9 3 0 -6
15 -11 33 -10 l32 1 0 -885 0 -885 -135 0 c-120 0 -140 2 -177 22 -46 24 -102
80 -103 101 0 6 -5 12 -10 12 -6 0 -9 3 -8 8 1 4 -2 30 -6 58 -12 80 -9 1353
3 1393 6 19 8 39 4 45 -3 6 -3 8 2 4 12 -11 38 29 29 45 -4 6 -4 9 0 5 4 -3
28 9 52 27 39 30 64 40 126 49 10 1 21 5 24 9 11 10 16 8 9 -3z m-8287 -33
c27 -14 52 -24 56 -21 3 2 4 1 1 -2 -3 -5 35 -65 55 -84 3 -3 7 -21 8 -40 2
-19 7 -36 10 -38 4 -1 6 -102 5 -225 -1 -154 2 -226 10 -236 10 -12 9 -13 -1
-7 -11 7 -13 -4 -10 -53 1 -33 -1 -61 -5 -61 -5 0 -5 -4 -2 -10 3 -5 6 -155 5
-332 -1 -368 -1 -340 3 -395 1 -24 0 -43 -4 -43 -7 0 -23 -57 -22 -77 0 -7 -3
-10 -8 -7 -5 3 -9 1 -9 -3 0 -18 -86 -97 -107 -99 -38 -3 -44 -5 -40 -11 3 -5
-55 -7 -128 -5 l-133 3 1 877 c0 482 1 882 4 887 2 6 53 10 133 9 118 -1 133
-4 178 -27z m5707 -7 c-3 -5 -12 -10 -18 -10 -7 0 -6 4 3 10 19 12 23 12 15 0z
m160 0 c3 -6 -1 -7 -9 -4 -18 7 -21 14 -7 14 6 0 13 -4 16 -10z m-2290 -69 c3
-5 2 -12 -3 -15 -5 -3 -9 1 -9 9 0 17 3 19 12 6z m4322 -6 c0 -8 -4 -12 -9 -9
-5 3 -6 10 -3 15 9 13 12 11 12 -6z m-873 -83 c3 -5 -1 -9 -9 -9 -8 0 -12 4
-9 9 3 4 7 8 9 8 2 0 6 -4 9 -8z m476 2 c0 -8 -19 -13 -24 -6 -3 5 1 9 9 9 8
0 15 -2 15 -3z m391 -11 c13 -16 12 -17 -3 -4 -10 7 -18 15 -18 17 0 8 8 3 21
-13z m94 -33 c-3 -5 -12 -10 -18 -10 -7 0 -6 4 3 10 19 12 23 12 15 0z m-6921
-38 c3 -5 -1 -9 -9 -9 -8 0 -12 4 -9 9 3 4 7 8 9 8 2 0 6 -4 9 -8z m3473 -7
c0 -8 -4 -12 -9 -9 -5 3 -6 10 -3 15 9 13 12 11 12 -6z m1438 6 c3 -5 2 -12
-3 -15 -5 -3 -9 1 -9 9 0 17 3 19 12 6z m1760 0 c3 -5 2 -12 -3 -15 -5 -3 -9
1 -9 9 0 17 3 19 12 6z m-3151 -79 c3 -5 -1 -9 -9 -9 -8 0 -15 4 -15 9 0 4 4
8 9 8 6 0 12 -4 15 -8z m1356 -2 c0 -5 -2 -10 -4 -10 -3 0 -8 5 -11 10 -3 6
-1 10 4 10 6 0 11 -4 11 -10z m1760 2 c0 -5 -7 -9 -15 -9 -8 0 -12 4 -9 9 3 4
9 8 15 8 5 0 9 -4 9 -8z m-1243 -77 c0 -8 -4 -12 -9 -9 -5 3 -6 10 -3 15 9 13
12 11 12 -6z m-1477 -1 c0 -8 -19 -13 -24 -6 -3 5 1 9 9 9 8 0 15 -2 15 -3z
m-1326 -82 c3 -5 -1 -9 -9 -9 -8 0 -12 4 -9 9 3 4 7 8 9 8 2 0 6 -4 9 -8z
m1130 0 c3 -5 -1 -9 -9 -9 -8 0 -12 4 -9 9 3 4 7 8 9 8 2 0 6 -4 9 -8z m3116
4 c0 -3 -4 -8 -10 -11 -5 -3 -10 -1 -10 4 0 6 5 11 10 11 6 0 10 -2 10 -4z
m-3605 -115 c3 -5 2 -12 -3 -15 -5 -3 -9 1 -9 9 0 17 3 19 12 6z m1518 -46
c-3 -9 -8 -14 -10 -11 -3 3 -2 9 2 15 9 16 15 13 8 -4z m641 -15 c-6 -6 -10
-3 -10 10 0 13 4 16 10 10 7 -7 7 -13 0 -20z m1277 -43 c-10 -9 -11 -8 -5 6 3
10 9 15 12 12 3 -3 0 -11 -7 -18z m-6554 -22 c0 -8 -4 -12 -9 -9 -5 3 -6 10
-3 15 9 13 12 11 12 -6z m-480 -40 c0 -8 -4 -12 -9 -9 -5 3 -6 10 -3 15 9 13
12 11 12 -6z m-480 -130 c0 -8 -4 -12 -9 -9 -5 3 -6 10 -3 15 9 13 12 11 12
-6z m5598 6 c3 -5 2 -12 -3 -15 -5 -3 -9 1 -9 9 0 17 3 19 12 6z m-2305 -77
c0 -8 -19 -13 -24 -6 -3 5 1 9 9 9 8 0 15 -2 15 -3z m1910 0 c0 -8 -19 -13
-24 -6 -3 5 1 9 9 9 8 0 15 -2 15 -3z m1450 0 c0 -8 -19 -13 -24 -6 -3 5 1 9
9 9 8 0 15 -2 15 -3z m144 -2 c3 -5 -1 -9 -9 -9 -8 0 -12 4 -9 9 3 4 7 8 9 8
2 0 6 -4 9 -8z m-3830 -160 c3 -5 -1 -9 -9 -9 -8 0 -12 4 -9 9 3 4 7 8 9 8 2
0 6 -4 9 -8z m1086 2 c0 -8 -19 -13 -24 -6 -3 5 1 9 9 9 8 0 15 -2 15 -3z
m194 -2 c3 -5 -1 -9 -9 -9 -8 0 -12 4 -9 9 3 4 7 8 9 8 2 0 6 -4 9 -8z m1994
-127 c-3 -3 -9 2 -12 12 -6 14 -5 15 5 6 7 -7 10 -15 7 -18z m959 10 c0 -8 -4
-12 -9 -9 -5 3 -6 10 -3 15 9 13 12 11 12 -6z m-6673 -43 c3 -5 -1 -9 -9 -9
-8 0 -12 4 -9 9 3 4 7 8 9 8 2 0 6 -4 9 -8z m7150 -8 c3 -8 2 -12 -4 -9 -6 3
-10 10 -10 16 0 14 7 11 14 -7z m-6559 -113 c3 -5 2 -12 -3 -15 -5 -3 -9 1 -9
9 0 17 3 19 12 6z m6566 -38 c13 -16 12 -17 -3 -4 -17 13 -22 21 -14 21 2 0
10 -8 17 -17z m-3751 1 c0 -8 -19 -13 -24 -6 -3 5 1 9 9 9 8 0 15 -2 15 -3z
m3664 -2 c3 -5 -1 -9 -9 -9 -8 0 -12 4 -9 9 3 4 7 8 9 8 2 0 6 -4 9 -8z
m-1679 -31 c3 -5 2 -12 -3 -15 -5 -3 -9 1 -9 9 0 17 3 19 12 6z m-5438 -16 c0
-8 -4 -12 -9 -9 -5 3 -6 10 -3 15 9 13 12 11 12 -6z m3200 -40 c0 -8 -4 -12
-9 -9 -5 3 -6 10 -3 15 9 13 12 11 12 -6z m238 -24 c3 -5 2 -12 -3 -15 -5 -3
-9 1 -9 9 0 17 3 19 12 6z m-760 -59 c-3 -3 -11 0 -18 7 -9 10 -8 11 6 5 10
-3 15 -9 12 -12z m575 12 c0 -8 -19 -13 -24 -6 -3 5 1 9 9 9 8 0 15 -2 15 -3z
m2985 -73 c3 -5 2 -12 -3 -15 -5 -3 -9 1 -9 9 0 17 3 19 12 6z m-801 -57 c3
-8 2 -12 -4 -9 -6 3 -10 10 -10 16 0 14 7 11 14 -7z m-163 -41 c13 -16 12 -17
-3 -4 -10 7 -18 15 -18 17 0 8 8 3 21 -13z m99 11 c0 -8 -19 -13 -24 -6 -3 5
1 9 9 9 8 0 15 -2 15 -3z m1987 -9 c0 -8 -4 -12 -9 -9 -5 3 -6 10 -3 15 9 13
12 11 12 -6z m-1873 -73 c3 -5 -1 -9 -9 -9 -8 0 -12 4 -9 9 3 4 7 8 9 8 2 0 6
-4 9 -8z m433 -7 c0 -8 -4 -12 -9 -9 -5 3 -6 10 -3 15 9 13 12 11 12 -6z m320
-30 c0 -8 -4 -12 -9 -9 -5 3 -6 10 -3 15 9 13 12 11 12 -6z m163 1 c0 -3 -4
-8 -10 -11 -5 -3 -10 -1 -10 4 0 6 5 11 10 11 6 0 10 -2 10 -4z m-6646 -44 c3
-5 -1 -9 -9 -9 -8 0 -12 4 -9 9 3 4 7 8 9 8 2 0 6 -4 9 -8z m881 -121 c3 -5 2
-12 -3 -15 -5 -3 -9 1 -9 9 0 17 3 19 12 6z m5362 -246 c0 -8 -4 -12 -9 -9 -5
3 -6 10 -3 15 9 13 12 11 12 -6z m-6907 -31 c0 -8 -19 -13 -24 -6 -3 5 1 9 9
9 8 0 15 -2 15 -3z m520 -80 c0 -8 -19 -13 -24 -6 -3 5 1 9 9 9 8 0 15 -2 15
-3z m954 -2 c3 -5 -1 -9 -9 -9 -8 0 -12 4 -9 9 3 4 7 8 9 8 2 0 6 -4 9 -8z
m6876 2 c0 -8 -19 -13 -24 -6 -3 5 1 9 9 9 8 0 15 -2 15 -3z m-6806 -50 c3 -8
2 -12 -4 -9 -6 3 -10 10 -10 16 0 14 7 11 14 -7z m6561 -33 c3 -5 2 -12 -3
-15 -5 -3 -9 1 -9 9 0 17 3 19 12 6z m-7785 -77 c0 -8 -19 -13 -24 -6 -3 5 1
9 9 9 8 0 15 -2 15 -3z m8230 0 c0 -8 -19 -13 -24 -6 -3 5 1 9 9 9 8 0 15 -2
15 -3z m-1006 -82 c3 -5 -1 -9 -9 -9 -8 0 -12 4 -9 9 3 4 7 8 9 8 2 0 6 -4 9
-8z m-6064 -78 c0 -8 -19 -13 -24 -6 -3 5 1 9 9 9 8 0 15 -2 15 -3z m545 -83
c3 -5 2 -12 -3 -15 -5 -3 -9 1 -9 9 0 17 3 19 12 6z m-1955 -81 c0 -5 -5 -10
-11 -10 -5 0 -7 5 -4 10 3 6 8 10 11 10 2 0 4 -4 4 -10z m-80 -54 c0 -2 -7 -7
-16 -10 -8 -3 -12 -2 -9 4 6 10 25 14 25 6z m2274 -104 c3 -5 -1 -9 -9 -9 -8
0 -12 4 -9 9 3 4 7 8 9 8 2 0 6 -4 9 -8z m-74 -42 c0 -5 -5 -10 -11 -10 -5 0
-7 5 -4 10 3 6 8 10 11 10 2 0 4 -4 4 -10z m5273 -55 c-3 -9 -8 -14 -10 -11
-3 3 -2 9 2 15 9 16 15 13 8 -4z m-6562 -72 c13 -16 12 -17 -3 -4 -10 7 -18
15 -18 17 0 8 8 3 21 -13z m5373 9 c3 -5 -1 -9 -9 -9 -8 0 -12 4 -9 9 3 4 7 8
9 8 2 0 6 -4 9 -8z m-5049 -41 c3 -5 2 -12 -3 -15 -5 -3 -9 1 -9 9 0 17 3 19
12 6z m6880 -30 c3 -5 2 -12 -3 -15 -5 -3 -9 1 -9 9 0 17 3 19 12 6z m119 -9
c3 -5 -1 -9 -9 -9 -8 0 -12 4 -9 9 3 4 7 8 9 8 2 0 6 -4 9 -8z m126 -78 c0 -8
-19 -13 -24 -6 -3 5 1 9 9 9 8 0 15 -2 15 -3z m-400 -148 c0 -2 -8 -10 -17
-17 -16 -13 -17 -12 -4 4 13 16 21 21 21 13z m-1529 -29 c-10 -9 -11 -8 -5 6
3 10 9 15 12 12 3 -3 0 -11 -7 -18z m-5676 -56 c3 -5 2 -12 -3 -15 -5 -3 -9 1
-9 9 0 17 3 19 12 6z m119 -9 c3 -5 -1 -9 -9 -9 -8 0 -12 4 -9 9 3 4 7 8 9 8
2 0 6 -4 9 -8z m5201 -50 c-3 -3 -11 0 -18 7 -9 10 -8 11 6 5 10 -3 15 -9 12
-12z m442 -117 c0 -8 -4 -12 -9 -9 -5 3 -6 10 -3 15 9 13 12 11 12 -6z m-5277
-35 c0 -5 -5 -10 -11 -10 -5 0 -7 5 -4 10 3 6 8 10 11 10 2 0 4 -4 4 -10z
m296 -29 c-3 -5 9 -11 26 -15 18 -3 87 -38 155 -76 67 -39 127 -70 133 -70 5
0 10 -4 10 -9 0 -5 15 -14 33 -22 17 -7 34 -15 37 -18 15 -18 113 -70 121 -65
5 3 9 1 9 -5 0 -5 30 -26 68 -47 37 -21 79 -46 94 -57 15 -11 31 -16 39 -12 7
5 10 4 6 -2 -8 -12 71 -55 85 -46 7 3 8 1 4 -5 -4 -7 -1 -12 8 -12 9 0 16 -5
16 -11 0 -6 7 -8 16 -5 8 3 13 2 10 -3 -6 -10 69 -53 78 -44 3 3 6 1 6 -4 0
-6 59 -44 130 -84 154 -86 193 -117 221 -171 21 -40 42 -138 30 -138 -4 0 -8
-8 -9 -17 -1 -10 -3 -27 -4 -38 -2 -11 -9 -25 -17 -31 -9 -7 -11 -16 -6 -25 5
-8 4 -10 0 -6 -5 4 -23 -16 -39 -46 -17 -29 -38 -63 -48 -76 l-16 -23 -67 39
c-66 38 -94 54 -158 93 -17 11 -41 24 -52 30 -11 5 -42 23 -70 40 -27 16 -61
36 -75 43 -14 6 -56 31 -95 53 -38 23 -90 53 -115 66 -25 14 -91 53 -148 87
-57 33 -107 61 -112 61 -5 0 -10 3 -12 8 -1 4 -32 22 -68 41 -36 19 -67 37
-70 40 -3 3 -34 21 -70 40 -36 19 -67 37 -70 40 -3 4 -16 12 -30 19 -55 29
-85 45 -90 51 -3 3 -14 11 -25 17 -11 6 -40 22 -65 36 -25 14 -63 35 -85 48
-59 32 -60 35 -36 75 18 31 19 40 9 54 -11 14 -11 14 3 4 14 -11 20 -6 43 35
43 75 50 86 65 96 7 4 22 17 32 27 11 11 19 17 19 14 0 -2 11 0 26 5 14 6 44
12 66 15 23 3 44 7 46 10 9 8 14 6 8 -4z m-216 -7 c0 -8 -19 -13 -24 -6 -3 5
1 9 9 9 8 0 15 -2 15 -3z m604 -2 c3 -5 -1 -9 -9 -9 -8 0 -12 4 -9 9 3 4 7 8
9 8 2 0 6 -4 9 -8z m914 -47 c-3 -3 -9 2 -12 12 -6 14 -5 15 5 6 7 -7 10 -15
7 -18z m-78 -11 c0 -8 -19 -13 -24 -6 -3 5 1 9 9 9 8 0 15 -2 15 -3z m4200
-66 c0 -7 28 -18 43 -17 15 0 89 -86 113 -133 13 -25 35 -63 49 -84 30 -44 29
-52 -11 -73 -16 -9 -72 -42 -124 -72 -52 -31 -115 -68 -140 -81 -25 -14 -80
-46 -123 -72 -43 -25 -80 -46 -82 -46 -3 0 -24 -12 -48 -27 -23 -15 -45 -26
-49 -25 -5 1 -8 -2 -8 -7 0 -5 -8 -11 -17 -15 -10 -3 -40 -20 -68 -36 -27 -17
-61 -36 -75 -43 -14 -6 -27 -14 -30 -18 -5 -6 -31 -21 -100 -56 -19 -10 -37
-21 -40 -24 -3 -4 -29 -19 -58 -34 -29 -15 -55 -31 -58 -36 -3 -5 -10 -7 -15
-4 -5 4 -9 2 -9 -3 0 -8 -50 -36 -59 -32 -2 1 -7 -2 -10 -7 -6 -9 -224 -137
-276 -163 -16 -8 -32 -18 -35 -22 -3 -4 -22 -14 -42 -22 l-36 -16 -52 86 c-29
48 -58 101 -66 120 -18 44 -18 115 1 160 8 20 12 41 8 48 -3 6 -3 8 2 4 4 -4
18 6 32 23 14 16 45 41 69 55 24 14 44 30 44 36 0 5 4 7 8 4 12 -7 173 89 165
99 -5 4 -3 5 4 1 12 -6 302 156 315 177 4 7 8 8 8 4 0 -5 18 2 40 14 21 12 37
25 35 29 -2 3 6 7 18 7 12 1 27 10 34 19 7 10 13 14 13 10 0 -5 11 -1 25 8 26
17 40 25 218 126 69 40 95 59 91 70 -4 11 -2 12 6 4 9 -9 25 -4 63 20 29 17
54 34 55 39 2 4 7 5 11 3 3 -2 22 -1 41 3 43 9 120 8 120 -1z m-4487 -33 c-3
-9 -8 -14 -10 -11 -3 3 -2 9 2 15 9 16 15 13 8 -4z m2211 -3 c3 -5 -1 -9 -9
-9 -8 0 -12 4 -9 9 3 4 7 8 9 8 2 0 6 -4 9 -8z m-2569 -71 c3 -5 2 -12 -3 -15
-5 -3 -9 1 -9 9 0 17 3 19 12 6z m1685 -5 c0 -3 -4 -8 -10 -11 -5 -3 -10 -1
-10 4 0 6 5 11 10 11 6 0 10 -2 10 -4z m10 -80 c0 -2 -8 -10 -17 -17 -16 -13
-17 -12 -4 4 13 16 21 21 21 13z m1188 -171 c-3 -3 -9 2 -12 12 -6 14 -5 15 5
6 7 -7 10 -15 7 -18z m1047 -35 c-3 -5 -12 -10 -18 -10 -7 0 -6 4 3 10 19 12
23 12 15 0z m-2810 -69 c3 -5 2 -12 -3 -15 -5 -3 -9 1 -9 9 0 17 3 19 12 6z
m1410 -51 c-3 -5 -12 -10 -18 -10 -7 0 -6 4 3 10 19 12 23 12 15 0z m-48 -75
c0 -8 -4 -12 -9 -9 -5 3 -6 10 -3 15 9 13 12 11 12 -6z m-837 -245 c0 -5 -2
-10 -4 -10 -3 0 -8 5 -11 10 -3 6 -1 10 4 10 6 0 11 -4 11 -10z m714 2 c3 -5
-1 -9 -9 -9 -8 0 -12 4 -9 9 3 4 7 8 9 8 2 0 6 -4 9 -8z m-1390 -160 c3 -5 -1
-9 -9 -9 -8 0 -12 4 -9 9 3 4 7 8 9 8 2 0 6 -4 9 -8z m791 -41 c3 -5 2 -12 -3
-15 -5 -3 -9 1 -9 9 0 17 3 19 12 6z m1042 -46 c0 -8 -4 -12 -9 -9 -5 3 -6 10
-3 15 9 13 12 11 12 -6z m-320 -470 c0 -8 -4 -12 -9 -9 -5 3 -6 10 -3 15 9 13
12 11 12 -6z"/>
</g>
</svg>
