<?xml version="1.0" encoding="utf-8"?>
<!-- Generator: Adobe Illustrator 17.1.0, SVG Export Plug-In . SVG Version: 6.00 Build 0)  -->
<!DOCTYPE svg PUBLIC "-//W3C//DTD SVG 1.1//EN" "http://www.w3.org/Graphics/SVG/1.1/DTD/svg11.dtd">
<svg version="1.1" xmlns="http://www.w3.org/2000/svg" xmlns:xlink="http://www.w3.org/1999/xlink" x="0px" y="0px"
	 viewBox="0 0 800 660" enable-background="new 0 0 800 660" xml:space="preserve">
<g id="Layer_2">
	
		<radialGradient id="SVGID_1_" cx="399.9813" cy="329.9318" r="395.506" gradientTransform="matrix(0.9639 0 0 0.88 14.4759 39.66)" gradientUnits="userSpaceOnUse">
		<stop  offset="0.5" style="stop-color:#262626"/>
		<stop  offset="1" style="stop-color:#1A1A1A"/>
	</radialGradient>
	<rect fill="url(#SVGID_1_)" width="800" height="660"/>
</g>
<g id="Layer_1">
	<path id="download-casino_1_" fill="#FFFFFF" d="M344.3,422c4.5,0,8.2,3.7,8.2,8.2s-3.7,8.2-8.2,8.2c-4.5,0-8.2-3.7-8.2-8.2
		S339.8,422,344.3,422z M447.9,430.1c0,4.5,3.7,8.2,8.2,8.2s8.2-3.7,8.2-8.2s-3.7-8.2-8.2-8.2S447.9,425.5,447.9,430.1z
		 M503.7,333.5c0.1,4.4,3.8,7.8,8.1,7.8c4.4,0,7.9-3.5,8.1-7.8H503.7z M280.1,333.5c0.1,4.4,3.8,7.8,8.1,7.8c4.4,0,7.9-3.5,8.1-7.8
		H280.1z M386.4,342c3.4,3.4,7.7,5.2,12.1,5.5c0.5,0,1,0.1,1.6,0.1c0.5,0,1-0.1,1.6-0.1c4.4-0.3,8.7-2.1,12.1-5.5l59.3-59.4
		c7.4-7.4,7.4-19.5,0-27c-7.4-7.4-19.4-7.4-26.8,0l-27.4,27.5v-89.1c0-10.3-8.3-18.8-18.8-18.8c-10.3,0-18.8,8.3-18.8,18.8v89.1
		L354,255.8c-7.4-7.4-19.4-7.4-26.8,0c-7.4,7.4-7.4,19.5,0,27L386.4,342z M551.3,333.5c0,34.8-12,69.7-36.3,98.2
		c-35.3,41.3-88,58.9-138.1,51.2c-27-4.2-53-15.6-75.3-34.6c-34.9-30-52.9-72.3-52.9-114.9h16.4c0,3.4,0.1,6.9,0.4,10.3
		c0.9,11.5,3.3,22.7,6.9,33.3l46.2-15.9c-3.1-9-4.7-18.4-4.7-27.7h33.9c0,28.9,23.4,52.4,52.4,52.4s52.4-23.4,52.4-52.4h33.7
		c0,9.5-1.6,18.9-4.7,27.9l46.2,16c4.7-13.9,7.2-28.7,7.2-43.8H551.3z M383.5,417.9c-14.2-2.9-27.7-9.1-39.5-19.1
		c-3.3-2.7-6.3-5.7-9-8.9l-36.9,32c4.3,4.9,9,9.6,14.1,13.9c17.7,15.2,39.1,25.5,61.9,30L383.5,417.9z M501.9,422.1l-36.9-32
		c-13.2,15-30.3,24.4-48.5,27.9l9.2,47.9c6.8-1.3,13.5-3.1,20.1-5.5C467.5,452.6,486.8,439.4,501.9,422.1z"/>
</g>
</svg>
