<?xml version="1.0" encoding="utf-8"?>
<!-- Generator: Adobe Illustrator 17.1.0, SVG Export Plug-In . SVG Version: 6.00 Build 0)  -->
<!DOCTYPE svg PUBLIC "-//W3C//DTD SVG 1.1//EN" "http://www.w3.org/Graphics/SVG/1.1/DTD/svg11.dtd">
<svg version="1.1" id="Layer_1" xmlns="http://www.w3.org/2000/svg" xmlns:xlink="http://www.w3.org/1999/xlink" x="0px" y="0px"
	 viewBox="0 0 800 660" enable-background="new 0 0 800 660" xml:space="preserve">
<radialGradient id="SVGID_1_" cx="399.9813" cy="329.9318" r="395.506" gradientTransform="matrix(0.9639 0 0 0.88 14.4759 39.66)" gradientUnits="userSpaceOnUse">
	<stop  offset="0.5" style="stop-color:#262626"/>
	<stop  offset="1" style="stop-color:#1A1A1A"/>
</radialGradient>
<rect fill="url(#SVGID_1_)" width="800" height="660"/>
<path id="scratch-cards_1_" fill="#FFFFFF" d="M423.3,259.3h-46.7c-4.1,0-7.5,3.4-7.5,7.5v46.7c0,4.1,3.3,7.5,7.5,7.5h46.7
	c4.2,0,7.5-3.4,7.5-7.5v-46.7C430.9,262.7,427.5,259.3,423.3,259.3z M412,296.7l3.2,16.9l-15.1-8.3l-15.1,8.3l3.2-16.9l-12.6-11.9
	l17.1-2.2L400,267l7.4,15.6l17.1,2.2L412,296.7z M341.5,259.3h-46.7c-4.1,0-7.5,3.4-7.5,7.5v46.7c0,4.1,3.4,7.5,7.5,7.5h46.7
	c4.1,0,7.5-3.4,7.5-7.5v-46.7C348.9,262.7,345.6,259.3,341.5,259.3z M330.1,296.7l3.2,16.9l-15.1-8.3l-15.2,8.3l3.2-16.9l-12.6-11.9
	l17.1-2.2l7.4-15.6l7.4,15.6l17.1,2.2L330.1,296.7z M505.3,259.3h-46.7c-4.1,0-7.5,3.4-7.5,7.5v46.7c0,4.1,3.4,7.5,7.5,7.5h46.7
	c4.1,0,7.5-3.4,7.5-7.5v-46.7C512.8,262.7,509.4,259.3,505.3,259.3z M493.9,296.7l3.2,16.9l-15.1-8.3l-15.2,8.3l3.2-16.9l-12.6-11.9
	l17.1-2.2l7.4-15.6l7.4,15.6l17.1,2.2L493.9,296.7z M423.3,341.2h-46.7c-4.1,0-7.5,3.4-7.5,7.5v46.7c0,4.1,3.3,7.5,7.5,7.5h46.7
	c4.2,0,7.5-3.4,7.5-7.5v-46.7C430.9,344.6,427.5,341.2,423.3,341.2z M412,378.6l3.2,17l-15.1-8.3l-15.1,8.3l3.2-17l-12.6-11.9
	l17.1-2.2l7.4-15.6l7.4,15.6l17.1,2.2L412,378.6z M341.5,341.2h-46.7c-4.1,0-7.5,3.4-7.5,7.5v46.7c0,4.1,3.4,7.5,7.5,7.5h46.7
	c4.1,0,7.5-3.4,7.5-7.5v-46.7C348.9,344.6,345.6,341.2,341.5,341.2z M330.1,378.6l3.2,17l-15.1-8.3l-15.2,8.3l3.2-17l-12.6-11.9
	l17.1-2.2l7.4-15.6l7.4,15.6l17.1,2.2L330.1,378.6z M505.3,341.2h-46.7c-4.1,0-7.5,3.4-7.5,7.5v46.7c0,4.1,3.4,7.5,7.5,7.5h46.7
	c4.1,0,7.5-3.4,7.5-7.5v-46.7C512.8,344.6,509.4,341.2,505.3,341.2z M493.9,378.6l3.2,17l-15.1-8.3l-15.2,8.3l3.2-17l-12.6-11.9
	l17.1-2.2l7.4-15.6l7.4,15.6l17.1,2.2L493.9,378.6z M423.3,423.1h-46.7c-4.1,0-7.5,3.4-7.5,7.5v46.7c0,4.1,3.3,7.5,7.5,7.5h46.7
	c4.2,0,7.5-3.4,7.5-7.5v-46.7C430.9,426.5,427.5,423.1,423.3,423.1z M412,460.5l3.2,17l-15.1-8.3l-15.1,8.3l3.2-17l-12.6-11.9
	l17.1-2.2l7.4-15.6l7.4,15.6l17.1,2.2L412,460.5z M341.5,423.1h-46.7c-4.1,0-7.5,3.4-7.5,7.5v46.7c0,4.1,3.4,7.5,7.5,7.5h46.7
	c4.1,0,7.5-3.4,7.5-7.5v-46.7C348.9,426.5,345.6,423.1,341.5,423.1z M330.1,460.5l3.2,17l-15.1-8.3l-15.2,8.3l3.2-17l-12.6-11.9
	l17.1-2.2l7.4-15.6l7.4,15.6l17.1,2.2L330.1,460.5z M505.3,423.1h-46.7c-4.1,0-7.5,3.4-7.5,7.5v46.7c0,4.1,3.4,7.5,7.5,7.5h46.7
	c4.1,0,7.5-3.4,7.5-7.5v-46.7C512.8,426.5,509.4,423.1,505.3,423.1z M493.9,460.5l3.2,17l-15.1-8.3l-15.2,8.3l3.2-17l-12.6-11.9
	l17.1-2.2l7.4-15.6l7.4,15.6l17.1,2.2L493.9,460.5z M405.1,191.1h-9.2l2.6-8.9c0.1-0.2,0.2-0.6,0.3-1c0.1-0.5,0.3-1,0.4-1.6l0.5-2
	c0.2-0.7,0.4-1.4,0.5-2c0.1-0.2,0.1-0.5,0.2-0.7c0.2,0.9,0.4,1.9,0.7,2.8c0.3,1,0.5,1.9,0.8,2.8c0.3,0.8,0.4,1.4,0.6,1.8
	L405.1,191.1z M358.7,184.9h-1.9v-10.8h1.8c2.4,0,4.2,0.4,5.3,1.2c1.1,0.8,1.6,2.1,1.6,4c0,1.9-0.5,3.2-1.5,4.1
	C362.9,184.4,361.2,184.9,358.7,184.9z M263.1,131.9c-10.6,0-19.2,8.6-19.2,19.2v0.2V509c0,10.6,8.6,19.2,19.2,19.2h273.8
	c10.6,0,19.2-8.6,19.2-19.2V151.2V151c0-10.6-8.6-19.2-19.2-19.2H263.1z M453.5,178.6c1-2.9,2.3-5.4,4.1-7.4
	c1.8-2.1,4.1-3.7,6.7-4.9c2.7-1.1,5.7-1.7,9.1-1.7c2.2,0,4.5,0.3,6.8,0.9c2.2,0.6,4.4,1.3,6.5,2.3l0.5,0.2l-3.5,8.7l-0.6-0.3
	c-1.6-0.8-3.3-1.5-5-2c-3.4-1.2-6.8-1.1-9.2,0.1c-1.3,0.7-2.4,1.6-3.3,2.8c-0.9,1.2-1.6,2.8-2,4.6c-0.5,1.8-0.7,3.9-0.7,6.1
	c0,2.3,0.2,4.4,0.6,6.2c0.4,1.8,1.1,3.2,1.9,4.4c0.8,1.2,1.9,2.1,3.2,2.7c1.3,0.6,2.9,0.9,4.8,0.9c1.8,0,3.5-0.2,5.3-0.6
	c1.8-0.4,3.7-1,5.8-1.7l0.8-0.3v9.1L485,209c-1,0.4-2,0.8-2.9,1.1c-1,0.3-2,0.5-3,0.7c-1,0.2-2,0.3-3.1,0.4
	c-1.1,0.1-2.2,0.1-3.4,0.1c-3.5,0-6.5-0.6-9.1-1.7c-2.6-1.1-4.7-2.7-6.4-4.8c-1.7-2-3-4.5-3.8-7.4c-0.8-2.8-1.2-6-1.2-9.5
	C452.1,184.7,452.6,181.5,453.5,178.6z M417.5,165.3h32.7v9h-11.1v36.5h-10.5v-36.5h-11.1V165.3z M346.2,165.3h12.7
	c5.8,0,10.2,1.2,12.9,3.4c2.8,2.3,4.3,5.8,4.3,10.4c0,1.5-0.2,3-0.6,4.3c-0.4,1.3-1,2.5-1.7,3.5c-0.7,1-1.5,1.9-2.4,2.6
	c-0.7,0.6-1.5,1.1-2.3,1.5c2.1,3.4,4,6.4,5.7,9.1c0.8,1.2,1.5,2.4,2.2,3.6l1.9,3.1c0.5,0.8,0.9,1.5,1.2,1.9l14.1-43.7h12.3
	l14.9,45.7h-10.8l-3-10.5h-14.4l-3.1,10.5h-8.9h-1.9h-10l-9.6-17h-3.2v17h-10.6V165.3z M306.1,178.6c0.9-2.9,2.3-5.4,4.1-7.4
	c1.8-2.1,4.1-3.7,6.7-4.9c2.7-1.1,5.7-1.7,9.1-1.7c2.2,0,4.5,0.3,6.8,0.9c2.2,0.6,4.4,1.3,6.5,2.3l0.5,0.2l-3.5,8.7l-0.6-0.3
	c-1.6-0.8-3.3-1.5-4.9-2c-3.4-1.2-6.8-1.1-9.2,0.1c-1.3,0.7-2.4,1.6-3.3,2.8s-1.6,2.8-2,4.6c-0.5,1.8-0.7,3.9-0.7,6.1
	c0,2.3,0.2,4.4,0.6,6.2c0.4,1.8,1.1,3.2,1.9,4.4c0.8,1.2,1.9,2.1,3.2,2.7c1.3,0.6,2.9,0.9,4.8,0.9c1.7,0,3.5-0.2,5.3-0.6
	c1.8-0.4,3.7-1,5.8-1.7l0.8-0.3v9.1l-0.4,0.1c-1,0.4-2,0.8-2.9,1.1c-1,0.3-2,0.5-3,0.7c-1,0.2-2,0.3-3.1,0.4
	c-1.1,0.1-2.2,0.2-3.4,0.2c-3.5,0-6.5-0.6-9.1-1.7c-2.6-1.1-4.7-2.7-6.4-4.8c-1.7-2-2.9-4.5-3.7-7.4c-0.8-2.8-1.2-6-1.2-9.5
	C304.7,184.7,305.2,181.5,306.1,178.6z M271.4,208.4v-10l0.8,0.4c1,0.5,1.9,0.9,2.9,1.3c1,0.4,2,0.8,3,1.2c1,0.4,2,0.6,3,0.8
	c2,0.4,4.1,0.4,5.4,0c0.7-0.2,1.2-0.5,1.6-0.9c0.4-0.4,0.7-0.7,0.8-1.2c0.2-0.5,0.3-1.1,0.3-1.7c0-0.7-0.1-1.4-0.4-1.9
	c-0.3-0.6-0.8-1.1-1.4-1.6c-0.6-0.6-1.3-1.1-2.2-1.6c-0.9-0.5-1.9-1.1-3-1.7c-0.9-0.5-2-1.1-3.1-1.8c-1.2-0.7-2.3-1.6-3.4-2.7
	c-1.1-1.1-2-2.4-2.7-3.9c-0.7-1.5-1.1-3.4-1.1-5.5c0-2,0.4-3.9,1-5.5c0.7-1.6,1.7-3.1,3-4.2c1.3-1.1,2.8-2,4.6-2.6
	c1.8-0.6,3.8-0.9,6-0.9c1.1,0,2.2,0.1,3.2,0.2c1,0.1,2.1,0.4,3.1,0.6c1,0.3,2,0.6,3.1,1c1,0.4,2.1,0.8,3.2,1.3l0.5,0.2l-3.5,8.4
	l-0.6-0.3c-0.9-0.4-1.7-0.8-2.5-1.1c-0.8-0.3-1.5-0.6-2.2-0.8c-0.7-0.2-1.4-0.4-2.1-0.5c-0.7-0.1-1.4-0.1-2.1-0.1
	c-1.4,0-2.5,0.4-3.2,1.1c-0.7,0.7-1.1,1.7-1.1,2.9c0,0.7,0.1,1.3,0.3,1.7c0.2,0.5,0.6,1,1.1,1.4c0.5,0.5,1.2,1,2,1.5
	c0.9,0.5,1.9,1.1,3.2,1.8c1.5,0.8,3,1.6,4.2,2.5c1.3,0.8,2.5,1.8,3.4,2.9c1,1.1,1.7,2.3,2.3,3.7c0.5,1.3,0.8,3,0.8,4.8
	c0,2-0.4,3.9-1.1,5.6c-0.7,1.6-1.8,3.1-3.1,4.3c-1.4,1.2-3,2.1-5,2.7c-1.9,0.6-4.2,1-6.7,1c-2.2,0-4.3-0.2-6.3-0.7
	c-2-0.5-3.9-1.2-5.7-2.1L271.4,208.4z M528,482.9c0,9.4-7.7,17.1-17.1,17.1H289.2c-9.5,0-17.1-7.7-17.1-17.1V261.2
	c0-9.4,7.7-17.1,17.1-17.1h221.7c9.5,0,17.1,7.7,17.1,17.1V482.9z M528.6,210.7h-10.5v-19.1h-13.9v19.1h-10.6v-45.5h10.6v17.4h13.9
	v-17.4h10.5V210.7z"/>
</svg>
