<?xml version="1.0" encoding="utf-8"?>
<!-- Generator: Adobe Illustrator 17.1.0, SVG Export Plug-In . SVG Version: 6.00 Build 0)  -->
<!DOCTYPE svg PUBLIC "-//W3C//DTD SVG 1.1//EN" "http://www.w3.org/Graphics/SVG/1.1/DTD/svg11.dtd">
<svg version="1.1" xmlns="http://www.w3.org/2000/svg" xmlns:xlink="http://www.w3.org/1999/xlink" x="0px" y="0px"
	 viewBox="0 0 800 660" enable-background="new 0 0 800 660" xml:space="preserve">
<g id="Layer_2">
	
		<radialGradient id="dark_1_" cx="399.9813" cy="329.9318" r="395.506" gradientTransform="matrix(0.9639 0 0 0.88 14.4759 39.66)" gradientUnits="userSpaceOnUse">
		<stop  offset="0.5" style="stop-color:#262626"/>
		<stop  offset="1" style="stop-color:#1A1A1A"/>
	</radialGradient>
	<rect id="dark" fill="url(#dark_1_)" width="800" height="660"/>
	
</g>

<g id="devs">
	<g id="XMLID_2302_">
		<g id="XMLID_18_">
			
				<linearGradient id="XMLID_81_" gradientUnits="userSpaceOnUse" x1="193.8737" y1="688.8449" x2="226.5486" y2="633.9502" gradientTransform="matrix(2.3276 0 0 -2.3276 -1.3276 1744.2091)">
				<stop  offset="0" style="stop-color:#9E1D22"/>
				<stop  offset="0.8616" style="stop-color:#DA2228"/>
			</linearGradient>
			<path id="XMLID_19_" fill="url(#XMLID_81_)" d="M550.5,154.7c-0.9-7.7-7.7-14.4-15.4-14.9l-66.1-4.7c-7.7-0.5-18.2,3.7-23.5,9.3
				l-19.3,20.7c-5.1,5.6-8.8,16.5-7.9,24.2l7,65.2c0.9,7.7,7.7,14.4,15.4,14.9l66.1,4.7c7.7,0.5,18.2-3.7,23.5-9.3l19.3-20.7
				c5.1-5.6,8.8-16.5,7.9-24.2L550.5,154.7z"/>
		</g>
		<path id="XMLID_17_" fill="#FFFFFF" d="M541.2,225.7c0-0.2,0-0.5,0-0.7c-0.5-5.4,0.9-11.2,3.3-13.3c2.1-1.9,4.2,0.7,4.7,5.6
			c0,0.2,0,0.5,0,0.7c0.5,5.4-0.9,11.4-3.3,13.3C543.8,233.1,541.9,230.6,541.2,225.7"/>
		<path id="XMLID_16_" fill="#FFFFFF" d="M509.1,155.4c-0.2,0-0.5,0-0.7,0c-5.1-0.5-7.2-2.8-4.7-5.1c2.3-2.1,8.1-3.5,13-3.3
			c0.2,0,0.5,0,0.7,0c5.1,0.5,7.2,2.8,4.7,5.1C519.8,154.2,514,155.6,509.1,155.4"/>
	</g>
	<g id="XMLID_2292_">
		<g id="XMLID_1_">
			
				<linearGradient id="XMLID_82_" gradientUnits="userSpaceOnUse" x1="178.0992" y1="636.9416" x2="214.9937" y2="681.3875" gradientTransform="matrix(2.3276 0 0 -2.3276 -1.3276 1744.2091)">
				<stop  offset="0.4969" style="stop-color:#9E1D22"/>
				<stop  offset="0.6851" style="stop-color:#E02228"/>
			</linearGradient>
			<path id="XMLID_21_" fill="url(#XMLID_82_)" d="M484.4,129.3c-6.1-6.8-17-8.4-24.7-3.7l-52.8,32.1c-7.7,4.7-14.9,15.8-16.1,24.7
				l-3,23.5c-1.2,8.8,2.8,21.6,8.6,28.4l40.5,45.6c6.1,6.8,17,8.4,24.7,3.7l52.6-32.1c7.7-4.7,14.9-15.8,16.1-24.7l3-23.5
				c1.2-8.8-2.8-21.6-8.6-28.4L484.4,129.3z"/>
		</g>
		<path id="XMLID_2_" fill="#FFFFFF" d="M517.9,179.6c-3.3-3.7-6.3-4.4-7-1.9c-0.7,2.8,1.6,8.4,5.1,12.6c0.2,0.2,0.2,0.5,0.5,0.5
			c3.3,3.7,6.3,4.4,7,1.9c0.7-2.8-1.6-8.4-5.1-12.6C518.4,179.8,518.2,179.8,517.9,179.6"/>
		<path id="XMLID_3_" fill="#FFFFFF" d="M485.3,169.1c-3.3-3.7-6.3-4.4-7-1.9c-0.7,2.8,1.6,8.4,5.1,12.6c0.2,0.2,0.2,0.5,0.5,0.5
			c3.3,3.7,6.3,4.4,7,1.9c0.7-2.8-1.6-8.6-5.1-12.6C485.6,169.6,485.6,169.4,485.3,169.1"/>
		<path id="XMLID_4_" fill="#FFFFFF" d="M495.1,236.9c-3.5-4-9.8-5.1-14.4-2.3c-4.7,2.6-5.6,8.1-2.1,12.1s10,5.1,14.4,2.3
			C497.7,246.2,498.6,240.8,495.1,236.9"/>
	</g>
	<g id="XMLID_1887_">
		<g id="XMLID_1946_" enable-background="new    ">
			<g id="XMLID_2288_">
				
					<radialGradient id="XMLID_85_" cx="-461.3253" cy="182.8125" r="45.0133" gradientTransform="matrix(-2.2101 0.7299 0.7299 2.2101 -757.1581 145.3677)" gradientUnits="userSpaceOnUse">
					<stop  offset="0.3968" style="stop-color:#EF3731"/>
					<stop  offset="1" style="stop-color:#B42026"/>
				</radialGradient>
				<path id="XMLID_2472_" fill="url(#XMLID_85_)" d="M312.9,270.4c10.5,16.1,34.7,31.4,53.8,34l60.8,8.1
					c19.1,2.6,39.3-10.2,45.4-28.6l19.1-59.1c5.8-18.2,2.1-46.3-8.4-62.4l-4.9-7.4c-10.5-16.1-34.7-31.4-53.8-34l-60.5-8.1
					c-19.1-2.6-39.6,10.2-45.4,28.6l-19.1,59.1c-5.8,18.2-2.1,46.3,8.4,62.4L312.9,270.4z"/>
			</g>
			<g id="XMLID_2280_" enable-background="new    ">
				<path id="XMLID_2285_" fill="none" d="M325.9,235.7l57.5,7.7c18.4,2.6,38.2-10,44-27.7l17.9-55.6c5.8-17.7-4.7-34.2-23-36.8
					l-57.3-7.7c-18.4-2.6-38.2,10-44,27.7l-17.9,55.6C297.3,216.9,307.5,233.4,325.9,235.7"/>
				<path id="XMLID_2282_" fill="none" d="M406.2,163.1c7.2,1.2,15.1-3.7,17.5-10.7c2.3-7-1.6-13.5-8.8-14.7s-15.1,3.7-17.5,10.7
					S399,161.9,406.2,163.1"/>
			</g>
			<g id="XMLID_2099_" enable-background="new    ">
				<path id="XMLID_2277_" fill="none" d="M472.3,280.6l17.9-55.6c5.8-17.7,5.6-39.8-0.7-49.1l-19.1-29.3
					c-6.1-9.3-15.8-2.6-21.4,15.4l-17.9,55.6c-5.8,17.7-5.6,39.8,0.7,49.1l19.1,29.3C456.9,305.3,466.5,298.3,472.3,280.6"/>
				<path id="XMLID_2276_" fill="#FFFFFF" d="M483.7,213.1c2.1-6.5,2.1-14.9,0-18.9c-2.3-4.2-6.1-2.1-8.4,4.7c0,0.2-0.2,0.7-0.2,0.9
					c-2.1,6.5-2.1,14.9,0,18.9c2.3,4.2,6.1,2.1,8.6-4.7C483.5,213.6,483.5,213.4,483.7,213.1"/>
				<path id="XMLID_2275_" fill="#FFFFFF" d="M447.6,250.6c2.1-6.5,2.1-14.9,0-18.9c-2.3-4.2-6.1-2.1-8.4,4.7c0,0.2-0.2,0.7-0.2,0.9
					c-2.1,6.5-2.1,14.9,0,18.9c2.3,4.2,6.1,2.1,8.6-4.7C447.4,251.3,447.4,251.1,447.6,250.6"/>
			</g>
			<g id="XMLID_1948_">
				<path id="XMLID_2096_" fill="none" d="M367.3,303l57.5,7.7c18.4,2.6,28.4-3.3,22.3-12.6l-19.1-29.3
					c-6.1-9.3-26.1-19.1-44.5-21.4l-57.5-7.7c-18.4-2.3-28.6,3.3-22.3,12.6l19.1,29.3C328.9,290.9,348.9,300.4,367.3,303"/>
			</g>
		</g>
	</g>
	<g id="XMLID_2470_">
		<g id="XMLID_1514_">
			<radialGradient id="XMLID_86_" cx="326.8322" cy="228.6109" r="120.8832" gradientUnits="userSpaceOnUse">
				<stop  offset="0.3968" style="stop-color:#EF3731"/>
				<stop  offset="1" style="stop-color:#B42026"/>
			</radialGradient>
			<path id="XMLID_2390_" fill="url(#XMLID_86_)" d="M436,191c-4.9-18.6-23-40.7-40.3-49.1L324,107c-17.5-8.4-40.7-2.6-52.1,13
				L224.2,185c-11.4,15.6-16.5,43.3-11.6,61.9l5.1,19.3c4.9,18.6,23,40.7,40.3,49.1l71.7,34.9c17.2,8.4,40.7,2.6,52.1-12.8
				l47.7-65.2c11.4-15.4,16.5-43.3,11.6-61.9L436,191z"/>
		</g>
		<g id="XMLID_1344_">
			
				<radialGradient id="XMLID_87_" cx="184.3152" cy="642.9811" r="80.2632" gradientTransform="matrix(2.3276 0 0 -2.3276 -1.3276 1744.2091)" gradientUnits="userSpaceOnUse">
				<stop  offset="0.1791" style="stop-color:#B42026"/>
				<stop  offset="1" style="stop-color:#DA2228"/>
			</radialGradient>
			<path id="XMLID_1385_" fill="url(#XMLID_87_)" d="M410.6,228.5L351,199.6c-19.1-9.3-44.9-2.8-57.5,14.4l-39.3,53.5
				c-12.6,17.2-7.2,38.9,11.6,47.9l59.6,28.9c19.1,9.3,44.9,2.8,57.5-14.4l39.6-53.5C435.1,259.4,429.7,237.8,410.6,228.5"/>
			
				<linearGradient id="XMLID_88_" gradientUnits="userSpaceOnUse" x1="170.3282" y1="629.1899" x2="164.2959" y2="639.6382" gradientTransform="matrix(2.3276 0 0 -2.3276 -1.3276 1744.2091)">
				<stop  offset="0" style="stop-color:#FFFFFF"/>
				<stop  offset="0" style="stop-color:#B0B8B8"/>
				<stop  offset="0.6488" style="stop-color:#FFFFFF"/>
				<stop  offset="1" style="stop-color:#FFFFFF"/>
				<stop  offset="1" style="stop-color:#FFFFFF"/>
			</linearGradient>
			<path id="XMLID_1384_" fill="url(#XMLID_88_)" d="M397.4,255.3c-7.4-3.7-17.7-1.4-22.8,5.4c-5.1,6.8-3.3,15.1,4.2,19.1
				c7.4,3.7,17.7,1.4,22.8-5.4C406.9,267.6,404.8,259.2,397.4,255.3"/>
			
				<linearGradient id="XMLID_89_" gradientUnits="userSpaceOnUse" x1="119.2171" y1="620.2446" x2="117.9705" y2="632.1042" gradientTransform="matrix(2.3271 4.036869e-002 4.036869e-002 -2.3271 -12.8439 1743.0425)">
				<stop  offset="0" style="stop-color:#FFFFFF"/>
				<stop  offset="0" style="stop-color:#B0B8B8"/>
				<stop  offset="0.6488" style="stop-color:#FFFFFF"/>
				<stop  offset="1" style="stop-color:#FFFFFF"/>
				<stop  offset="1" style="stop-color:#FFFFFF"/>
			</linearGradient>
			<path id="XMLID_1356_" fill="url(#XMLID_89_)" d="M297.7,278.5c-7.4-3.7-17.7-1.4-22.8,5.4c-5.1,6.8-3.3,15.1,4.2,19.1
				c7.4,3.7,17.7,1.4,22.8-5.4C307,290.9,305.2,282.3,297.7,278.5"/>
		</g>
		<g id="XMLID_1140_">
			
				<linearGradient id="XMLID_90_" gradientUnits="userSpaceOnUse" x1="98.4023" y1="673.0905" x2="132.1506" y2="653.6059" gradientTransform="matrix(2.3276 0 0 -2.3276 -1.3276 1744.2091)">
				<stop  offset="0" style="stop-color:#9E1D22"/>
				<stop  offset="0.5215" style="stop-color:#DA2228"/>
			</linearGradient>
			<path id="XMLID_1210_" fill="url(#XMLID_90_)" d="M268.2,127.5l-39.3,53.8c-12.6,17.2-20.3,41.2-17,53.5l10.2,38.4
				c3.3,12.3,16.3,8.4,28.9-8.8l39.3-53.8c12.6-17.2,20.3-41.2,17-53.5L297,118.6C293.8,106.3,280.7,110.2,268.2,127.5"/>
			<path id="XMLID_1208_" fill="#FFFFFF" d="M273.5,140.5c-4.7,6.5-7.7,15.4-6.8,20.5c0.9,5.4,5.8,4.4,10.9-1.9
				c0.2-0.2,0.5-0.7,0.7-0.9c4.7-6.5,7.7-15.4,6.8-20.5c-0.9-5.4-5.8-4.4-10.9,1.9C274,139.8,273.8,140.3,273.5,140.5"/>
			<path id="XMLID_1205_" fill="#FFFFFF" d="M240.7,233.8c-4.7,6.3-7.7,15.4-6.8,20.5c0.9,5.4,5.8,4.4,10.9-1.9
				c0.2-0.2,0.5-0.7,0.7-0.9c4.7-6.3,7.7-15.4,6.8-20.5c-0.9-5.4-5.8-4.4-10.9,1.9C241.2,233.1,240.9,233.6,240.7,233.8"/>
		</g>
		<g id="XMLID_885_">
			
				<radialGradient id="XMLID_91_" cx="137.7283" cy="670.3908" r="43.2924" gradientTransform="matrix(2.3276 0 0 -2.3276 -1.3276 1744.2091)" gradientUnits="userSpaceOnUse">
				<stop  offset="0.1932" style="stop-color:#F15A59"/>
				<stop  offset="0.8498" style="stop-color:#D52328"/>
			</radialGradient>
			<path id="XMLID_1129_" fill="url(#XMLID_91_)" d="M390.1,141l-59.6-29.1c-19.1-9.3-31.9-6.8-28.6,5.6l10.2,38.4
				c3.3,12.3,21.4,29.8,40.5,39.1l59.6,28.9c19.1,9.3,31.9,6.8,28.6-5.6l-10.2-38.2C427.4,167.7,409.2,150.1,390.1,141"/>
			<path id="XMLID_887_" fill="#FFFFFF" d="M396.2,156.8c-7.2-3.5-12.1-2.8-11.4,1.6c0.7,4.7,7.4,11.6,15.1,15.6
				c0.2,0.2,0.7,0.5,0.9,0.5c7.2,3.5,12.1,2.8,11.4-1.6c-0.7-4.7-7.4-11.6-15.1-15.6C396.9,157.3,396.7,157,396.2,156.8"/>
			<path id="XMLID_886_" fill="#FFFFFF" d="M341.7,161.5c-7-3.5-12.1-2.8-11.4,1.6c0.7,4.7,7.4,11.6,15.1,15.6
				c0.2,0.2,0.7,0.5,0.9,0.5c7,3.5,12.1,2.8,11.4-1.6c-0.7-4.7-7.4-11.6-15.1-15.6C342.4,161.7,342,161.7,341.7,161.5"/>
		</g>
	</g>
	<g id="XMLID_2323_">
		<path id="XMLID_2329_" fill="#FFFFFF" stroke="#010101" stroke-width="1.5" stroke-miterlimit="10" d="M311.4,455.9
			c-1.3-0.2-9-0.4-19.2-0.5c-10.4-0.2-23.4-0.4-35.8-0.4h-4l-1.6-3.8c7.6-6.8,31.6-25.5,31.6-40.3c0-14.2-16.9-16.7-26.8-17.1
			l3.4-18.2c35.1,2.9,48.9,16.2,48.9,30c0,16.7-16,26.8-20.7,30.2v0.9l23.9-1.3v20.3H311.4z"/>
		<path id="XMLID_2331_" fill="#FFFFFF" stroke="#010101" stroke-width="1.5" stroke-miterlimit="10" d="M336.4,402.5
			c0-3.2-0.2-22.7-0.5-25c15.8,0,24.1,0.2,33.6,1.3c22.7,2.9,25.7,11.9,25.7,18c0,4-2.2,10.8-13.7,16.2v0.7
			c7.6,1.4,17.1,6.5,17.1,16.9c0,12.4-16.5,25.2-52.5,25.2h-10.4c0.5-5.9,0.5-39,0.5-41v-12.2H336.4z M359,410.4
			c4.7,0,12.4-4.3,12.4-12.4c0-7.2-7.9-8.5-12.4-8.1V410.4z M359,442.2c5.9,0,15.1-4.9,15.1-11c0-7-7.6-10.6-15.1-10.2V442.2z"/>
		<path id="XMLID_2399_" fill="#FFFFFF" stroke="#010101" stroke-width="1.5" stroke-miterlimit="10" d="M425.9,455
			c0.2-2.5,0.5-14,0.5-15.5v-4.9c0-14-6.1-25.4-14.2-30.7c-4.3-2.9-8.8-4.7-12.4-5.8l8.5-22.5c7.4,2.3,14.9,5.9,20.5,11.5
			c4,4,7.9,9.7,10.6,18.2h0.9c2.3-7.4,6.8-13.1,12-18.2c5.2-5,12-9.2,20.5-11.5l6.8,22.5c-4.9,0.9-11.5,4-16.5,8.1
			c-6.5,5.4-12.2,15.6-12.2,28.1v7c0,1.4,0.4,11.1,0.5,13.5h-25.5V455z"/>
		<path id="XMLID_2401_" fill="#FFFFFF" stroke="#010101" stroke-width="1.5" stroke-miterlimit="10" d="M547.8,455.9
			c-1.3-0.2-9-0.4-19.2-0.5c-10.4-0.2-23.4-0.4-35.8-0.4h-4l-1.6-3.8c7.6-6.8,31.8-25.5,31.8-40.3c0-14.2-16.9-16.7-26.8-17.1
			l3.4-18.2c35.1,2.9,48.9,16.2,48.9,30c0,16.7-16,26.8-20.7,30.2v0.9l23.9-1.3V455.9z"/>
	</g>
	<g id="XMLID_2289_">
		<path id="XMLID_2290_" fill="#EC2227" stroke="#010101" stroke-width="0.5" stroke-miterlimit="10" d="M269.1,514.5v-5.4h26.8v32
			h-8.1v-5.9c-2,2-4.5,3.4-7.4,4.5c-2.9,1.1-5.9,1.6-9.2,1.6c-1.1,0-2.3,0-4-0.2c-1.6-0.2-3.2-0.5-5-1.1c-1.8-0.5-3.4-1.6-5.2-2.9
			c-1.8-1.3-3.4-3.1-4.7-5.4c-1.4-2.3-2.5-5-3.4-8.6c-0.9-3.6-1.3-7.7-1.3-12.6c0-6.1,0.5-11.3,1.8-15.5c1.1-4.3,2.9-7.7,4.9-10.2
			c2.2-2.7,4.7-4.7,7.7-5.8c3.1-1.3,6.5-1.8,10.4-1.8c3.4,0,6.3,0.4,8.6,1.3c2.5,0.9,4.5,2,6.1,3.6c1.6,1.6,2.9,3.4,3.6,5.4
			c0.7,2,1.3,4.3,1.3,6.7h-8.1c0.2-1.4,0-2.9-0.4-4.1c-0.4-1.4-1.1-2.5-2-3.8c-0.9-1.1-2.2-2-3.6-2.7s-3.2-1.1-5.2-1.1
			c-2.7,0-5,0.5-7,1.4c-2,0.9-3.6,2.2-4.7,3.6c-1.3,1.4-2.2,3.2-2.9,5c-0.7,2-1.3,4-1.6,5.9c-0.4,2-0.5,4-0.7,5.9
			c0,2-0.2,3.6-0.2,5.2c0,1.4,0,3.1,0.2,4.9c0,1.8,0.4,3.8,0.5,5.8c0.4,2,0.9,3.8,1.4,5.8c0.5,2,1.6,3.6,2.7,5
			c1.3,1.4,2.7,2.7,4.5,3.6c1.8,0.9,4,1.3,6.5,1.3c2,0,3.8-0.4,5.8-0.9c2-0.5,3.6-1.6,5.2-3.1c1.4-1.4,2.7-3.1,3.8-5.4
			c0.9-2.2,1.4-4.9,1.4-7.9v-4.1L269.1,514.5L269.1,514.5z"/>
		<path id="XMLID_2294_" fill="#EC2227" stroke="#010101" stroke-width="0.5" stroke-miterlimit="10" d="M356.2,539.9h-8.8l-7-18.2
			h-23.9l-7,18.2h-8.8l27.7-66.9L356.2,539.9z M318.6,516.3h20l-10.1-25L318.6,516.3z"/>
		<path id="XMLID_2303_" fill="#EC2227" stroke="#010101" stroke-width="0.5" stroke-miterlimit="10" d="M402.6,478.2h8.1v61.7h-8.1
			v-46.9h-0.2l-16.2,30.2l-16-30.2l-0.2,0.2v46.8h-8.1v-61.7h7.9l16.5,30.7L402.6,478.2z"/>
		<path id="XMLID_2310_" fill="#EC2227" stroke="#010101" stroke-width="0.5" stroke-miterlimit="10" d="M447.7,483.6h-10.6v50.9
			h10.6v5.4h-29.5v-5.4h10.6v-50.9h-10.6v-5.4h29.5V483.6z"/>
		<path id="XMLID_2315_" fill="#EC2227" stroke="#010101" stroke-width="0.5" stroke-miterlimit="10" d="M456.3,478.2h9.5l23.9,46.2
			h0.4v-46.2h8.1v62.4h-7.7l-25.7-49.8l-0.2,0.2V540h-8.1v-61.9H456.3z"/>
		<path id="XMLID_2321_" fill="#EC2227" stroke="#010101" stroke-width="0.5" stroke-miterlimit="10" d="M526.6,514.5v-5.4h26.8v32
			h-8.1v-5.9c-2,2-4.5,3.4-7.4,4.5c-2.9,1.1-5.9,1.6-9.2,1.6c-1.1,0-2.3,0-4-0.2c-1.6-0.2-3.2-0.5-5-1.1s-3.4-1.6-5.2-2.9
			c-1.8-1.3-3.2-3.1-4.7-5.4c-1.4-2.3-2.5-5-3.4-8.6c-0.9-3.4-1.3-7.7-1.3-12.6c0-6.1,0.5-11.3,1.8-15.5c1.1-4.3,2.9-7.7,4.9-10.2
			c2.2-2.7,4.7-4.7,7.7-5.8c3.1-1.3,6.5-1.8,10.4-1.8c3.4,0,6.3,0.4,8.6,1.3c2.5,0.9,4.5,2,6.1,3.6c1.6,1.6,2.9,3.4,3.6,5.4
			s1.3,4.3,1.3,6.7h-8.1c0.2-1.4,0-2.9-0.4-4.1c-0.4-1.4-1.1-2.5-2-3.8c-0.9-1.1-2.2-2-3.6-2.7c-1.4-0.7-3.2-1.1-5.2-1.1
			c-2.7,0-5,0.5-7,1.4c-2,0.9-3.6,2.2-4.7,3.6c-1.3,1.4-2.2,3.2-2.9,5c-0.7,2-1.3,4-1.6,5.9s-0.5,4-0.7,5.9c0,2-0.2,3.6-0.2,5.2
			c0,1.4,0,3.1,0.2,4.9c0,1.8,0.4,3.8,0.5,5.8c0.4,2,0.9,3.8,1.4,5.8s1.6,3.6,2.7,5c1.3,1.4,2.7,2.7,4.5,3.6c1.8,0.9,4,1.3,6.5,1.3
			c2,0,3.8-0.4,5.8-0.9c2-0.5,3.6-1.6,5.2-3.1c1.4-1.4,2.7-3.1,3.8-5.4c0.9-2.2,1.4-4.9,1.4-7.9v-4.1L526.6,514.5L526.6,514.5z"/>
	</g>
	

</g>
</svg>
