<?xml version="1.0" encoding="utf-8"?>
<!-- Generator: Adobe Illustrator 17.1.0, SVG Export Plug-In . SVG Version: 6.00 Build 0)  -->
<!DOCTYPE svg PUBLIC "-//W3C//DTD SVG 1.1//EN" "http://www.w3.org/Graphics/SVG/1.1/DTD/svg11.dtd">
<svg version="1.1" xmlns="http://www.w3.org/2000/svg" xmlns:xlink="http://www.w3.org/1999/xlink" x="0px" y="0px"
	 viewBox="0 0 800 660" enable-background="new 0 0 800 660" xml:space="preserve">
<g id="Layer_2">
	
		<radialGradient id="SVGID_1_" cx="399.9813" cy="329.9318" r="395.506" gradientTransform="matrix(0.9639 0 0 0.88 14.4759 39.66)" gradientUnits="userSpaceOnUse">
		<stop  offset="0.5" style="stop-color:#262626"/>
		<stop  offset="1" style="stop-color:#1A1A1A"/>
	</radialGradient>
	<rect fill="url(#SVGID_1_)" width="800" height="660"/>
</g>
<g id="Layer_1">
	<path fill="#FFFFFF" d="M592.2,177.2H207.8c-14.7,0-26.8,12.1-26.8,26.8v252c0,14.7,12.1,26.8,26.8,26.8h384.5
		c14.7,0,26.8-12.1,26.8-26.8V204C619,189.2,607,177.2,592.2,177.2z M400,471.2c-12.5,0-22.7-10.2-22.7-22.7s10.2-22.7,22.7-22.7
		s22.7,10.2,22.7,22.7S412.5,471.2,400,471.2z M601.2,407.3c0,4.9-4.1,9-9,9H207.8c-4.9,0-9-4.1-9-9V204c0-4.9,4.1-9,9-9h384.5
		c4.9,0,9,4.1,9,9V407.3z M415.8,439.6c-0.3-0.3-0.7-0.3-1-0.2l-1.8,0.5l-0.2-0.3c-0.4-0.6-0.8-1.1-1.3-1.6c-2.6-2.8-6-4.5-9.8-4.9
		c-0.6-0.1-1.2-0.1-1.7-0.1c-3.3,0-6.4,1-9,2.9c-2.9,2-5,5-6,8.4c-0.1,0.3,0,0.6,0.1,0.8c0.1,0.2,0.4,0.4,0.6,0.5l2,0.5
		c0.5,0.1,1.1-0.2,1.3-0.7c0.7-2.4,2.3-4.6,4.4-6.1c1.9-1.4,4.2-2.1,6.6-2.1c0.4,0,0.9,0,1.3,0.1c2.6,0.3,5,1.5,6.9,3.3l0.6,0.6
		l-1.2,0.4c-0.4,0.1-0.6,0.4-0.7,0.8c-0.1,0.4,0,0.7,0.3,1l5.5,5.2c0.2,0.2,0.5,0.3,0.7,0.3c0.1,0,0.2,0,0.3,0
		c0.4-0.1,0.6-0.4,0.7-0.8l1.8-7.3C416.2,440.3,416.1,439.9,415.8,439.6z M414.3,451.6l-2-0.5c-0.5-0.1-1.1,0.2-1.3,0.7
		c-0.7,2.4-2.3,4.6-4.4,6.1c-1.9,1.4-4.2,2.1-6.6,2.1c-0.4,0-0.9,0-1.3-0.1c-2.6-0.3-5-1.5-6.9-3.3l-0.6-0.6l1.2-0.4
		c0.4-0.1,0.6-0.4,0.7-0.8c0.1-0.4,0-0.7-0.3-1l-5.5-5.2c-0.3-0.3-0.7-0.3-1-0.2c-0.4,0.1-0.6,0.4-0.7,0.8l-1.8,7.3
		c-0.1,0.4,0,0.7,0.3,1c0.3,0.3,0.7,0.3,1,0.2l1.8-0.5l0.2,0.3c0.4,0.6,0.8,1.1,1.3,1.6c2.6,2.8,6,4.5,9.8,4.9
		c0.6,0.1,1.2,0.1,1.7,0.1c3.3,0,6.4-1,9-2.9c2.9-2,5-5,6-8.4c0.1-0.3,0-0.6-0.1-0.8C414.8,451.8,414.6,451.7,414.3,451.6z
		 M490.6,386.9h-23.1l-2.6-12.2c1.1-0.2,2.1-0.4,3.1-0.7c1,1.1,2.1,1.9,3.2,2.3c2,0.7,3.9-2,5.3-5c1-0.4,2.1-0.8,3.1-1.2
		c0.4-0.2,0.7-0.3,1.1-0.5c1.5,3.5,3.7,7.5,6.1,6.7c2.2-0.8,4.4-3.4,5.9-5.7c-0.7-0.5-1.2-1.4-1.2-2.3c0-1.5,1.1-2.8,2.5-2.8
		c1.4,0,2.5,1.2,2.5,2.8c0,1.5-1.1,2.8-2.5,2.8c0,0-0.1,0-0.1,0L490.6,386.9z M381.5,221.6l6.1,27.4v-13.5v-13h3.3l-0.3-1.5
		L381.5,221.6z M396.8,221.6l-0.2,0.9h3.9h2.1l-0.2-0.9H396.8z M408.6,222.5h9l0.2-0.9l-8.9-0.7L408.6,222.5z M307,223.9
		c1.5-0.5,3.1-0.9,4.6-1.3c1.9-0.5,3.8-0.9,5.6-1.3c0.6-0.1,1.1-0.2,1.7-0.3c-1.3-0.7-2.7-1.1-4.3-1.1
		C311.5,219.8,308.8,221.4,307,223.9z M321.3,393.9c8.9,0,16.3-6.3,18-14.8c-0.8,0.1-1.6,0.1-2.4,0.2c-1.7,7-8.1,12.3-15.6,12.3
		c-8.8,0-16-7.1-16.1-15.9c-0.8-0.2-1.5-0.5-2.3-0.7c0,0.2,0,0.3,0,0.5C302.9,385.7,311.2,393.9,321.3,393.9z M490.5,390.5v-3.1
		h-22.9v3.1H490.5z M486,219.6c-2.8,0-5.2,1.2-7,3.2c-1.7-2-4.2-3.2-7-3.2c-3.6,0-6.7,2.1-8.3,5.1c3.4,0.7,6.7,1.7,9.9,2.8
		c4.9,1.7,9.6,3.9,14,6.4c1.9,1.1,3.7,2.3,5.6,3.6c0.3-0.6,0.7-1.2,0.9-1.8c0,0,0.5-1.1,0.7-1.9c0.4-1.4,0.7-2.8,0.7-4.3
		C495.5,224.1,491.2,219.6,486,219.6z M321.3,389.3c6.3,0,11.5-4.2,13.2-9.9c-0.9,0-1.9,0-2.8,0c-1.4,0-2.7,0-4.1-0.1
		c-0.1,1.3-0.5,2.4-1.3,3.3c-0.9,1-2.2,1.6-3.9,1.8v2.6h-2.2v-2.6c-2.8-0.3-4.6-1.9-5.3-5l3.4-0.9c0.3,1.9,1.3,2.8,3.1,2.8
		c0.8,0,1.4-0.2,1.8-0.6c0.4-0.4,0.6-0.9,0.6-1.5c0-0.1,0-0.1,0-0.2c-1-0.1-2.1-0.2-3.1-0.3c-1.8-0.2-3.6-0.4-5.3-0.7
		c-1.8-0.3-3.5-0.7-5.2-1.1l0,0l0,0c-0.8-0.2-1.6-0.4-2.5-0.6C308,383.6,314,389.3,321.3,389.3z M258.4,229.7l-9.7-1.4l-4.3-8.8
		c-0.3-0.6-1-1-1.7-1c-0.7,0-1.4,0.4-1.7,1l-4.3,8.8l-9.7,1.4c-0.7,0.1-1.3,0.6-1.5,1.3c-0.2,0.7,0,1.4,0.5,1.9l7,6.9l-1.7,9.7
		c-0.1,0.7,0.2,1.4,0.7,1.8c0.6,0.4,1.3,0.5,2,0.1l8.7-4.6l8.7,4.6c0.3,0.1,0.6,0.2,0.9,0.2c0.4,0,0.8-0.1,1.1-0.4
		c0.6-0.4,0.9-1.1,0.7-1.8l-1.7-9.7l7-6.9c0.5-0.5,0.7-1.2,0.5-1.9C259.6,230.3,259,229.8,258.4,229.7z M425.1,376.4v19.3
		c0,2.7-2.2,4.9-4.9,4.9h-40.5c-2.7,0-4.9-2.2-4.9-4.9v-29.3c-1,0.8-2.1,1.6-3.2,2.3v27c0,4.5,3.7,8.1,8.1,8.1h40.5
		c4.5,0,8.1-3.7,8.1-8.1v-19.3H425.1z M585.8,355.2v40.5c0,4.5-3.7,8.1-8.1,8.1h-40.5c-4.5,0-8.1-3.7-8.1-8.1v-40.5
		c0-4.5,3.7-8.1,8.1-8.1h40.5C582.1,347.1,585.8,350.8,585.8,355.2z M582.5,355.2c0-2.7-2.2-4.9-4.9-4.9h-40.5
		c-2.7,0-4.9,2.2-4.9,4.9v40.5c0,2.7,2.2,4.9,4.9,4.9h40.5c2.7,0,4.9-2.2,4.9-4.9V355.2z M564.4,361.7c-2.8,0-5.2,1.2-7,3.2
		c-1.7-2-4.2-3.2-7-3.2c-5.3,0-9.5,4.5-9.5,10c0,1.5,0.2,2.9,0.7,4.3c0,0,0.4,1.2,0.7,1.9c4,8.6,15.1,14.2,15.1,14.2
		s11-5.6,15.1-14.2c0,0,0.5-1.1,0.7-1.9c0.4-1.4,0.7-2.8,0.7-4.3C573.9,366.2,569.6,361.7,564.4,361.7z M271,214.8v40.5
		c0,4.5-3.7,8.1-8.1,8.1h-40.5c-4.5,0-8.1-3.7-8.1-8.1v-40.5c0-4.5,3.7-8.1,8.1-8.1h40.5C267.3,206.6,271,210.3,271,214.8z
		 M267.7,214.8c0-2.7-2.2-4.9-4.9-4.9h-40.5c-2.7,0-4.9,2.2-4.9,4.9v40.5c0,2.7,2.2,4.9,4.9,4.9h40.5c2.7,0,4.9-2.2,4.9-4.9V214.8z
		 M346.4,378.3v17.5c0,2.7-2.2,4.9-4.9,4.9H301c-2.7,0-4.9-2.2-4.9-4.9v-23.2c-0.1-0.1-0.3-0.1-0.4-0.2c-0.9-0.4-1.9-0.8-2.8-1.2
		v24.6c0,4.5,3.7,8.1,8.1,8.1h40.5c4.5,0,8.1-3.7,8.1-8.1v-18.1C348.6,377.9,347.5,378.1,346.4,378.3z M503.4,353.3
		c0.3,0.6,0.4,1.2,0.4,1.9v40.5c0,2.7-2.2,4.9-4.9,4.9h-40.5c-2.7,0-4.9-2.2-4.9-4.9v-19.6c-1.1,0.1-2.2,0.2-3.2,0.2v19.4
		c0,4.5,3.7,8.1,8.1,8.1H499c4.5,0,8.1-3.7,8.1-8.1v-40.5c0-1.7-0.5-3.2-1.4-4.5C505,351.6,504.2,352.5,503.4,353.3z M571.2,304.5
		c0,7.6-6.2,13.8-13.8,13.8c-7.6,0-13.8-6.2-13.8-13.8c0-7.6,6.2-13.8,13.8-13.8C565,290.8,571.2,296.9,571.2,304.5z M563.8,307.8
		c0-1-0.2-1.9-0.7-2.6c-0.4-0.7-1-1.3-1.8-1.7c-0.7-0.4-1.7-0.9-3-1.3c-1.2-0.4-1.9-0.8-2.3-1.1c-0.4-0.3-0.5-0.7-0.5-1.3
		c0-0.5,0.2-1,0.6-1.4c0.4-0.4,0.9-0.6,1.5-0.6c1.2,0,2.1,0.8,2.7,2.5l3-1.2c-0.7-2.5-2.3-3.8-4.7-4.1v-2h-2.2v2
		c-1.6,0.2-2.8,0.8-3.5,1.9c-0.7,1-1.1,2.2-1.1,3.4c0,1,0.2,1.8,0.6,2.6c0.4,0.7,1,1.3,1.6,1.7c0.7,0.4,1.6,0.8,2.8,1.2
		c1.3,0.5,2.2,0.9,2.6,1.2c0.4,0.3,0.6,0.8,0.6,1.4c0,0.6-0.2,1.1-0.6,1.5c-0.4,0.4-1,0.6-1.8,0.6c-1.8,0-2.8-0.9-3.1-2.8l-3.4,0.9
		c0.7,3,2.4,4.7,5.3,5v2.6h2.2v-2.6c1.7-0.2,3-0.8,3.9-1.8C563.3,310.6,563.8,309.4,563.8,307.8z M585.8,214.8v40.5
		c0,4.5-3.7,8.1-8.1,8.1h-40.5c-4.5,0-8.1-3.7-8.1-8.1v-40.5c0-4.5,3.7-8.1,8.1-8.1h40.5C582.1,206.6,585.8,210.3,585.8,214.8z
		 M582.5,214.8c0-2.7-2.2-4.9-4.9-4.9h-40.5c-2.7,0-4.9,2.2-4.9,4.9v40.5c0,2.7,2.2,4.9,4.9,4.9h40.5c2.7,0,4.9-2.2,4.9-4.9V214.8z
		 M545.9,249.3h22.9v-3.1h-22.9V249.3z M572.4,224.2c-1.4,0-2.5,1.2-2.5,2.8c0,1,0.5,1.9,1.2,2.3c-1.5,2.3-3.7,5-5.9,5.7
		c-2.9,1-5.7-5.2-7-8.9c1-0.4,1.7-1.4,1.7-2.6c0-1.5-1.1-2.8-2.5-2.8c-1.4,0-2.5,1.2-2.5,2.8c0,1.2,0.7,2.2,1.7,2.6
		c-1.3,3.7-4.1,10-7,8.9c-2.2-0.8-4.4-3.4-5.9-5.7c0.7-0.5,1.2-1.4,1.2-2.3c0-1.5-1.1-2.8-2.5-2.8c-1.4,0-2.5,1.2-2.5,2.8
		c0,1.5,1.1,2.8,2.5,2.8c0,0,0,0,0.1,0l3.4,15.9h23.1l3.4-15.9c0,0,0,0,0.1,0c1.4,0,2.5-1.2,2.5-2.8
		C575,225.4,573.8,224.2,572.4,224.2z M585.8,284.6v40.5c0,4.5-3.7,8.1-8.1,8.1h-40.5c-4.5,0-8.1-3.7-8.1-8.1v-40.5
		c0-4.5,3.7-8.1,8.1-8.1h40.5C582.1,276.5,585.8,280.1,585.8,284.6z M582.5,284.6c0-2.7-2.2-4.9-4.9-4.9h-40.5
		c-2.7,0-4.9,2.2-4.9,4.9v40.5c0,2.7,2.2,4.9,4.9,4.9h40.5c2.7,0,4.9-2.2,4.9-4.9V284.6z M575.8,304.5c0,10.2-8.2,18.4-18.4,18.4
		s-18.4-8.2-18.4-18.4s8.2-18.4,18.4-18.4S575.8,294.4,575.8,304.5z M573.5,304.5c0-8.9-7.2-16.1-16.1-16.1s-16.1,7.2-16.1,16.1
		s7.2,16.1,16.1,16.1S573.5,313.4,573.5,304.5z M384.9,377.8c4,8.6,15.1,14.2,15.1,14.2s11-5.6,15.1-14.2c0,0,0.3-0.7,0.6-1.4h-15.1
		h-13v-12.9c-2.5,1.8-4.1,4.8-4.1,8.2c0,1.5,0.2,2.9,0.7,4.3C384.2,375.9,384.6,377.2,384.9,377.8z M271,284.6v40.5
		c0,4.5-3.7,8.1-8.1,8.1h-40.5c-4.5,0-8.1-3.7-8.1-8.1v-40.5c0-4.5,3.7-8.1,8.1-8.1h40.5C267.3,276.5,271,280.1,271,284.6z
		 M267.7,284.6c0-2.7-2.2-4.9-4.9-4.9h-40.5c-2.7,0-4.9,2.2-4.9,4.9v40.5c0,2.7,2.2,4.9,4.9,4.9h40.5c2.7,0,4.9-2.2,4.9-4.9V284.6z
		 M453.6,223.1v-8.3c0-2.7,2.2-4.9,4.9-4.9H499c2.7,0,4.9,2.2,4.9,4.9v31.7c1.1,1.1,2.2,2.3,3.2,3.5v-35.2c0-4.5-3.7-8.1-8.1-8.1
		h-40.5c-4.5,0-8.1,3.7-8.1,8.1v8C451.4,222.9,452.5,223,453.6,223.1z M256.4,303.7c0,7.6-6.2,13.8-13.8,13.8
		c-7.6,0-13.8-6.2-13.8-13.8c0-7.6,6.2-13.8,13.8-13.8C250.2,289.9,256.4,296.1,256.4,303.7z M249,307c0-1-0.2-1.9-0.7-2.6
		c-0.4-0.7-1-1.3-1.8-1.7c-0.7-0.4-1.7-0.9-3-1.3c-1.2-0.4-1.9-0.8-2.3-1.1c-0.4-0.3-0.5-0.7-0.5-1.3c0-0.5,0.2-1,0.6-1.4
		c0.4-0.4,0.9-0.6,1.5-0.6c1.2,0,2.1,0.8,2.7,2.5l3-1.2c-0.7-2.5-2.3-3.8-4.7-4.1v-2h-2.2v2c-1.6,0.2-2.8,0.8-3.5,1.9
		c-0.7,1-1.1,2.2-1.1,3.4c0,1,0.2,1.8,0.6,2.6c0.4,0.7,1,1.3,1.6,1.7c0.7,0.4,1.6,0.8,2.8,1.2c1.3,0.5,2.2,0.9,2.6,1.2
		c0.4,0.3,0.6,0.8,0.6,1.4c0,0.6-0.2,1.1-0.6,1.5c-0.4,0.4-1,0.6-1.8,0.6c-1.8,0-2.8-0.9-3.1-2.8l-3.4,0.9c0.7,3,2.4,4.7,5.3,5v2.6
		h2.2v-2.6c1.7-0.2,3-0.8,3.9-1.8C248.5,309.8,249,308.5,249,307z M271,355.2v40.5c0,4.5-3.7,8.1-8.1,8.1h-40.5
		c-4.5,0-8.1-3.7-8.1-8.1v-40.5c0-4.5,3.7-8.1,8.1-8.1h40.5C267.3,347.1,271,350.8,271,355.2z M267.7,355.2c0-2.7-2.2-4.9-4.9-4.9
		h-40.5c-2.7,0-4.9,2.2-4.9,4.9v40.5c0,2.7,2.2,4.9,4.9,4.9h40.5c2.7,0,4.9-2.2,4.9-4.9V355.2z M261,303.7
		c0,10.2-8.2,18.4-18.4,18.4c-10.2,0-18.4-8.2-18.4-18.4c0-10.2,8.2-18.4,18.4-18.4C252.8,285.3,261,293.6,261,303.7z M258.7,303.7
		c0-8.9-7.2-16.1-16.1-16.1s-16.1,7.2-16.1,16.1c0,8.9,7.2,16.1,16.1,16.1S258.7,312.6,258.7,303.7z M296.2,228v-13.2
		c0-2.7,2.2-4.9,4.9-4.9h40.5c2.7,0,4.9,2.2,4.9,4.9v5.6c0.2,0,0.4,0,0.6,0.1c0.9,0.1,1.8,0.3,2.7,0.5v-6.2c0-4.5-3.7-8.1-8.1-8.1
		H301c-4.5,0-8.1,3.7-8.1,8.1v14.7C294,229,295.1,228.5,296.2,228z M258.4,369.1l-9.7-1.4l-4.3-8.8c-0.3-0.6-1-1-1.7-1
		c-0.7,0-1.4,0.4-1.7,1l-4.3,8.8l-9.7,1.4c-0.7,0.1-1.3,0.6-1.5,1.3c-0.2,0.7,0,1.4,0.5,1.9l7,6.9l-1.7,9.7
		c-0.1,0.7,0.2,1.4,0.7,1.8c0.6,0.4,1.3,0.5,2,0.1l8.7-4.6l8.7,4.6c0.3,0.1,0.6,0.2,0.9,0.2c0.4,0,0.8-0.1,1.1-0.4
		c0.6-0.4,0.9-1.1,0.7-1.8l-1.7-9.7l7-6.9c0.5-0.5,0.7-1.2,0.5-1.9C259.6,369.7,259,369.2,258.4,369.1z M374.9,232.4v-17.7
		c0-2.7,2.2-4.9,4.9-4.9h40.5c2.7,0,4.9,2.2,4.9,4.9v7.7h3.2v-7.7c0-4.5-3.7-8.1-8.1-8.1h-40.5c-4.5,0-8.1,3.7-8.1,8.1v15.2
		C372.7,230.7,373.8,231.6,374.9,232.4z M381.7,326.2c0,11.6-4.3,21.1-12.9,28.4c-9.2,7.9-21.6,11.8-37.1,11.8
		c-6.6,0-12.8-0.7-18.7-2.1c-8.3-2-16.4-5.3-24.3-10.1l14.4-31.2c3.9,2.5,7.9,4.5,12,6c4.2,1.5,8.6,2.2,13.2,2.2c5,0,8.6-1.2,11-3.6
		c1.7-1.8,2.6-3.8,2.6-6.2c0-3.9-1.7-6.5-5.2-7.9c-2.1-0.9-5.2-1.3-9.1-1.3h-10.3v-28.5h11c4.4,0,7.5-1,9.5-3
		c1.5-1.5,2.2-3.3,2.2-5.5c0-2-0.7-3.6-2.2-5c-2.1-1.8-5.4-2.8-9.9-2.8c-3.7,0-7.6,0.7-11.6,2c-4,1.3-7.9,3.3-11.8,5.9l-14.7-29.3
		c8-5.1,16.3-8.8,25-11c6.6-1.7,12.9-2.6,19-2.6c15.8,0,27.6,4.2,35.5,12.7c6,6.5,9,14,9,22.7c0,6.6-1.7,12.3-5.1,17.1
		c-3.4,4.8-8,8.6-13.7,11.3c6.6,2.2,11.9,6,16,11.1C379.7,312.6,381.7,318.9,381.7,326.2z M511.2,298.2c0,17.2-5,31.8-15.1,43.8
		c-11.9,14.3-28.7,21.5-50.4,21.5h-45.2v-128H442c19.9,0,36.4,5.8,49.5,17.3C504.6,264.2,511.2,279.4,511.2,298.2z M470.7,301.3
		c0-8.5-2.6-15.4-7.6-20.7c-5.5-5.7-12.8-8.6-22-8.6v54.9h4.9c7.3,0,13.3-2.4,17.9-7.3C468.4,314.8,470.7,308.7,470.7,301.3z"/>
</g>
</svg>
