<?xml version="1.0" encoding="utf-8"?>
<!-- Generator: Adobe Illustrator 17.1.0, SVG Export Plug-In . SVG Version: 6.00 Build 0)  -->
<!DOCTYPE svg PUBLIC "-//W3C//DTD SVG 1.1//EN" "http://www.w3.org/Graphics/SVG/1.1/DTD/svg11.dtd">
<svg version="1.1" xmlns="http://www.w3.org/2000/svg" xmlns:xlink="http://www.w3.org/1999/xlink" x="0px" y="0px"
	 viewBox="0 0 800 660" enable-background="new 0 0 800 660" xml:space="preserve">
<g id="Layer_2">
		<radialGradient id="light_1_" cx="399.9813" cy="329.9318" r="395.506" gradientTransform="matrix(0.9639 0 0 0.88 14.4759 39.66)" gradientUnits="userSpaceOnUse">
		<stop  offset="0.5" style="stop-color:#FFFFFF"/>
		<stop  offset="1" style="stop-color:#D9D9D9"/>
	</radialGradient>
	<rect id="light" fill="url(#light_1_)" width="800" height="660"/>
</g>

<g id="devs">
	<path id="artistocrat" fill="#1D3E73" d="M141.5,367.9c1.4-5.1,6-15.5,14.2-26.5c6.8-9,21.5-20.5,21.5-20.5v46.9L141.5,367.9
		L141.5,367.9z M471.4,316.4l-0.1-10.2l55.6-0.1l-0.1,10.4L471.4,316.4L471.4,316.4z M260.1,409.4l0-83.7l-11,0l0,83.8L260.1,409.4
		L260.1,409.4z M498.6,296.3c15.9,0,28.7-12.8,28.7-28.6c0-15.8-12.9-28.6-28.7-28.6c-15.9,0-28.7,12.8-28.7,28.6
		C469.9,283.5,482.7,296.3,498.6,296.3L498.6,296.3z M411.8,335.8l-0.1-9.7L305.6,326l-0.1,9.7l18.1,0.1l0.1,73.6l9.1,0l0-73.6
		L411.8,335.8L411.8,335.8z M681.4,324.2l-52.2,0l0.1,10.5l20.4,0l0,74.6l10.6,0l0-74.4l21.2-0.1L681.4,324.2L681.4,324.2z
		 M188.1,299c0,0-28.3,17.2-45.9,42.9c-18.4,27-23.7,67.5-23.7,67.5l12.2-0.1l3.6-17.3l3.6-13.8l39.9,0l-0.1,31.2l10.3-0.1
		L188.1,299L188.1,299z M218.5,326.8c-7.2-3-19.8-1.9-19.8-1.9l0,84.5l10.8,0l-0.1-25.5l1.7,0l1.7,0c0,0,5.1,13.7,12,19.2
		c5.7,4.5,17.3,7.1,17.3,7.1l0.1-10.4c0,0-9.5-3.3-13.8-7.6c-3.4-3.5-5-6-6.5-10.6c11.3-5.2,17.1-13.8,17.2-26.8
		C239.3,337.4,231,332,218.5,326.8L218.5,326.8z M228.7,352.9c0,17.6-19,19.8-19,19.8l0-37.2C209.7,335.4,228.7,336.5,228.7,352.9
		L228.7,352.9z M368.5,323.7c8.3-7.7,19.4-12.5,31.7-12.5c25.6,0,46.3,20.6,46.3,46.1c0,25.4-20.7,46.1-46.3,46.1
		c-25.6,0-46.3-20.6-46.3-46.1c0-6.7,1.1-12.6,3.6-18.3l-12.7,0c-2.1,5.9-2.5,11.7-2.5,18.3c0,31.8,25.9,57.6,57.9,57.6
		c32,0,57.9-25.8,57.9-57.6c0-31.8-25.9-57.6-57.9-57.6c-19.4,0-36.7,9.3-47.2,23.9L368.5,323.7L368.5,323.7z M527.3,398.6
		c-5.7,3.8-12.5,5.9-19.8,5.9c-19.7,0-35.7-15.9-35.7-35.5s16-35.5,35.7-35.5c7.3,0,14,2.2,19.7,5.9l0-10.2
		c-5.9-2.9-12.6-4.5-19.7-4.5c-24.6,0-44.6,19.9-44.6,44.4s20,44.4,44.6,44.4c7,0,14.8-1.6,20.7-4.4L527.3,398.6L527.3,398.6z
		 M561.5,326.4c-7.4-2.3-19.8-1.9-19.8-1.9l0,84.9l10.8-0.1l-0.1-25.8l1.7,0l1.7,0c0,0,5.1,13.7,12,19.2c5.8,4.6,17.4,7.1,17.4,7.1
		l0-10.4c0,0-9.5-3.3-13.8-7.6c-3.4-3.5-5-6-6.5-10.6c11.3-5.2,17.1-13.8,17.2-26.8C582.3,337,573,330,561.5,326.4L561.5,326.4z
		 M571.7,352.5c0,17.6-19,19.8-19,19.8l0-37.2C552.7,335,571.7,336.1,571.7,352.5L571.7,352.5z M592.1,326.2l0,83.1l9.5,0.1l0-22.6
		l28,0c0,0,0.4,2.4,1,4.1c1.1,3.3,1,5.3,1.3,8.8c0.4,3.8,0.4,9.6,0.4,9.6l10.5,0.1c0,0,0.1-12.6-1.6-20.5
		c-1.9-9.2-4.8-13.9-8.5-22.6C620.9,339.6,592.1,326.2,592.1,326.2L592.1,326.2z M624.7,375.9l0.2,0.8l-23.3,0.1l0-33
		c0,0,8.3,6.9,13.6,14.4C619.5,364.5,624.7,375.9,624.7,375.9L624.7,375.9z M277.5,376.6c4,3.9,11.5,11.2,11.5,16.9
		c0,5.9-3.3,11.2-7.3,15.8h13.2c2.9-4.7,4.8-9.9,4.8-15.8c0-10.1-9.2-19.1-14.7-24.5c-1-1-2-1.9-2.4-2.4c-5-5.9-7.4-12-7.4-18.7
		c0-10.3,8.4-11.4,12-11.4c6,0,11.1,3.9,14.7,7.7v-13.8c-4.2-2.7-9.1-4.6-14.7-4.6c-13.6,0-22.7,8.9-22.7,22.1
		c0,9.2,3.4,17.8,10,25.5C275.2,374.4,276.2,375.4,277.5,376.6L277.5,376.6z"/>
</g>
</svg>
