<?xml version="1.0" encoding="utf-8"?>
<!-- Generator: Adobe Illustrator 17.1.0, SVG Export Plug-In . SVG Version: 6.00 Build 0)  -->
<!DOCTYPE svg PUBLIC "-//W3C//DTD SVG 1.1//EN" "http://www.w3.org/Graphics/SVG/1.1/DTD/svg11.dtd">
<svg version="1.1" xmlns="http://www.w3.org/2000/svg" xmlns:xlink="http://www.w3.org/1999/xlink" x="0px" y="0px"
	 viewBox="0 0 800 660" enable-background="new 0 0 800 660" xml:space="preserve">
<g id="Layer_2">
	
		<radialGradient id="light_1_" cx="399.9813" cy="329.9318" r="395.506" gradientTransform="matrix(0.9639 0 0 0.88 14.4759 39.66)" gradientUnits="userSpaceOnUse">
		<stop  offset="0.5" style="stop-color:#FFFFFF"/>
		<stop  offset="1" style="stop-color:#D9D9D9"/>
	</radialGradient>
	<rect id="light" fill="url(#light_1_)" width="800" height="660"/>
</g>

<g id="devs">
	
	<g id="betsoft">
		<polygon id="XMLID_373_" points="147,209.5 127.6,289.8 104.6,266.1 83.6,351.8 118.3,328 88.6,450.5 659.6,450.5 716.4,209.5 		
			"/>
		<path id="white" fill="#FFFFFF" d="M321.2,312.9l-21.1,87.2h-91l20.9-87.2h20.8l2.1-7.2h-21.1l20.6-85.8h91.4l-20.8,85.8h-19.3
			l-1.9,7.2H321.2z M657.6,400.1H304.9l20.9-87.2h32.6l2.1-7.2h-33l20.6-85.8h352.2L657.6,400.1z M443.6,305.9h-57l-1.9,7.2h56.9
			L443.6,305.9z M205.7,312.9c0,0-0.2-3.1-0.9-3.4c-0.5-0.2-0.4-0.9,0-1c1.4-0.5,2-2.7,2-2.7H227l20.8-85.8h-91.5l-20.8,85.8h18.3
			l-1.8,7.2h-18.3l-21.1,87.2h91.4l21.1-87.2H205.7z"/>
		<polygon id="soft_bg" points="647,388.9 398.2,388.9 436.8,232.1 685.6,232.1 		"/>
		<path id="gaming" fill="#FFFFFF" d="M384,428.7l0.8-3.2c0-0.1,0.1-0.1,0.2-0.1l13.5,0c0.1,0,0.2,0.1,0.2,0.2c-1,4-2.2,8.4-2.2,8.4
			s-0.4,3.4-5.2,3.4c-4.8,0-17.9,0-17.9,0s-4.3,0.5-3-4.7c1.4-5.2,3.5-12.7,3.5-12.7s0.5-3.1,4.6-3.1h18.3c0,0,4-0.6,3.3,2.9
			c-0.1,0.6-0.3,1.5-0.5,2.5c0,0.1-0.1,0.1-0.2,0.2l-4,0.6c-0.1,0-0.2-0.1-0.2-0.2l0.4-2.7c0-0.1-0.1-0.2-0.2-0.2h-17.6
			c-0.1,0-0.2,0.1-0.2,0.1l-3.8,14c0,0.1,0.1,0.2,0.2,0.2h17.7c0.1,0,0.2-0.1,0.2-0.1l1.2-4.8c0-0.1-0.1-0.2-0.2-0.2h-8.7
			C384.1,428.9,384,428.8,384,428.7z M637.7,428.9h8.7c0.1,0,0.2,0.1,0.2,0.2l-1.2,4.8c0,0.1-0.1,0.1-0.2,0.1h-17.7
			c-0.1,0-0.2-0.1-0.2-0.2l3.8-14c0-0.1,0.1-0.1,0.2-0.1h17.6c0.1,0,0.2,0.1,0.2,0.2l-0.4,2.7c0,0.1,0.1,0.2,0.2,0.2l4-0.6
			c0.1,0,0.1-0.1,0.2-0.2c0.2-1,0.4-1.9,0.5-2.5c0.6-3.5-3.3-2.9-3.3-2.9h-18.3c-4.2,0-4.6,3.1-4.6,3.1s-2.1,7.5-3.5,12.7
			c-1.4,5.2,3,4.7,3,4.7s13.1,0,17.9,0c4.8,0,5.2-3.4,5.2-3.4s1.2-4.3,2.2-8.4c0-0.1-0.1-0.2-0.2-0.2l-13.5,0
			c-0.1,0-0.2,0.1-0.2,0.1l-0.8,3.2C637.5,428.8,637.6,428.9,637.7,428.9z M442.3,416.9h-3.7c-0.1,0-0.1,0-0.1,0.1L420.4,437
			c-0.1,0.1,0,0.3,0.1,0.3h3.4c0.1,0,0.1,0,0.1-0.1l4.7-5.2c0,0,0.1-0.1,0.1-0.1h14.9c0.1,0,0.2,0.1,0.2,0.1l1.5,5.1
			c0,0.1,0.1,0.1,0.2,0.1h3.8c0.1,0,0.2-0.1,0.2-0.3l-7.3-20.1C442.4,416.9,442.4,416.9,442.3,416.9z M431,429.2l8.2-9.6
			c0.1-0.1,0.3-0.1,0.3,0.1l3.6,9.6c0,0.1,0,0.3-0.2,0.3h-11.8C431,429.5,430.9,429.3,431,429.2z M500,437.3h2.9
			c0.1,0,0.2-0.1,0.2-0.1l5.5-20.1c0-0.1-0.1-0.3-0.2-0.3h-3.2c-0.1,0-0.1,0-0.1,0.1l-13.9,13.2c-0.1,0.1-0.2,0.1-0.3,0l-7.3-13.1
			c0-0.1-0.1-0.1-0.2-0.1h-2.9c-0.1,0-0.2,0.1-0.2,0.1l-5.5,20.1c0,0.1,0.1,0.3,0.2,0.3h3c0.1,0,0.2-0.1,0.2-0.1l4.2-15.5
			c0-0.2,0.3-0.2,0.4,0l6.5,12.1c0.4,0.7,1.4,0.9,2,0.3l12.4-12c0.1-0.1,0.4,0,0.3,0.2l-4,14.9C499.8,437.2,499.9,437.3,500,437.3z
			 M534,437.3h3.3c0.1,0,0.2-0.1,0.2-0.1l5.6-20.1c0-0.1-0.1-0.2-0.2-0.2h-3.3c-0.1,0-0.2,0.1-0.2,0.1l-5.6,20.1
			C533.7,437.2,533.8,437.3,534,437.3z M591.2,437.3h2.7c0.1,0,0.2-0.1,0.2-0.1l5-20c0-0.1-0.1-0.2-0.2-0.2h-3.3
			c-0.1,0-0.2,0.1-0.2,0.1l-3.7,14.6c0,0.1-0.2,0.2-0.3,0.1L576.7,417c0,0-0.1-0.1-0.1-0.1h-3.1c-0.1,0-0.2,0.1-0.2,0.1l-5,20
			c0,0.1,0.1,0.2,0.2,0.2h3.3c0.1,0,0.2-0.1,0.2-0.1l3.8-15c0-0.1,0.2-0.2,0.3-0.1l15,15.1C591.1,437.3,591.2,437.3,591.2,437.3z"/>
		<path fill="#FDDF00" d="M96.1,334.3l12.6-50.7l23.3,24.5L96.1,334.3z M419.5,309.8l22.9,26.4l13.6-53.5L419.5,309.8z M502.8,353.2
			c-0.3,1.7-1.3,3.6-1.3,5.5c0,2.1-0.6,4.2-0.1,6.4c0.5,2.2,1.2,4.1,2.2,6c2.8,5.7,7.8,8.5,14.8,8.5c7,0,15.7-2.9,21-8.7
			c2.2-2.5,4.1-5.1,5.7-8c1.6-2.9,2.7-7.2,3.1-9.5l20.9-84.5c0.3-1.6,2.2-6.6,2.2-8.3c0-5.9-1.8-10.7-5.3-14.5
			c-3.6-3.7-8.1-4.8-13.7-4.8c-3.1,0-6,0.6-8.9,1.9c-2.9,1.3-5.5,3.1-7.9,5.3c-2.4,2.3-5.2,4.9-6.9,8c-1.7,3.1-2.9,6.3-3.5,9.8
			L502.8,353.2z M532.2,356.2c-1,4.3-4.7,8.2-10.7,8.2c-2.6,0-4.3-2.2-4.3-5.3c0-0.5,0-0.9,0-1.3c0-0.4,0.1-0.9,0.3-1.7l22.7-90.8
			c0.9-4.8,6.4-8.9,9.9-8.9c2.8,0,5.1,2.4,5.1,5.4c0,0.4,0,0.7-0.1,1.1c-0.1,0.4-0.1,0.9-0.2,1.5L532.2,356.2z M622.8,241.3h-39.3
			l-34.6,138.4h15.8l15.3-61.5h23.6l3.8-15.5h-23.6l11-46.4h24.8L622.8,241.3z M654.6,256.2h13.6c0,0,3.7-14.7,3.8-14.9h-43.9
			l-4.1,14.9h15.3l-30.8,123.1h15.3L654.6,256.2z M464.1,359.8c-0.8-3.4,2.9-13.5,2.9-13.5l-15.6-0.1c0,0-2.8,9.9-3.4,13.2
			c-1,6.2,0.7,10.4,3.4,14c2.7,3.6,8.4,6.5,13.9,6.9c6.1,0.4,11.9-1.7,17.5-6.3c2.6-2.3,4.9-4.7,6.8-7.3c1.9-2.6,3.2-4.9,3.7-7.1
			c1.9-7.4,7.9-27.1,7.9-33.3c0-3.4-0.5-7.5-2.1-11.3c-1.5-3.8-2.8-5.5-7.9-9.7c-5.3-4.4-7.4-9.5-8.3-12.4c-1-2.8-0.1-6.8,0.3-10.2
			c0.1-0.6,3.4-13.4,4.8-18.1c0.7-2.4,1.9-4.1,3-5.4c1.3-1.6,4.2-2.3,4.7-2.3c2.8,0,8.5,0.4,6.3,9.7l-2.5,8l15.2,0.4
			c0,0,3.1-10.4,3.5-12.1c0,0,1.9-9.4-3.2-15.6c-3.2-3.9-8.7-5.4-13.8-5.8c-6.4-0.5-12.4,1.9-18,7c-2.5,2.3-4.6,4.7-6.3,7.2
			c-1.7,2.5-2.9,4.9-3.6,7.1c0,0-6.5,24.6-6.8,26.3c-0.3,1.7-0.5,3.2-0.6,4.6c-0.3,3.6-0.3,7,0.5,9.6c0.8,2.6,2.3,5.2,4.4,7.5
			c2.1,2.4,8.3,7.5,9.6,9.5c1.4,1.9,2.4,3.9,3.2,5.8c0.8,1.9,0.8,3.9,0.8,7.5c0,3.8-5.7,23-5.7,23
			C475.2,366.1,465.7,366.5,464.1,359.8z M499.5,266.7"/>
		<path id="bet" d="M362.9,379.6h-15.3L378.4,254h-15.3l4.1-14.9h43.9c0,0.3-3.8,14.9-3.8,14.9h-13.6L362.9,379.6z M286.1,254.1
			l-11.4,47.2h24.5l-3.5,15.6h-25L259,364.1h24.4l-3.8,15h-39.3l34.5-140.5h39.8l-3.6,15.5H286.1z M206.8,293.4
			c-0.7,3.1-4.5,11.7-8.2,14c-0.6,0.4-0.7,1.2-0.2,1.7c4.4,4.2,2.5,13.7,2.5,13.7l-6,26.8c-1.4,7.5-7.1,29.6-33.2,29.5l-20.2,0.1
			l33.9-140.4H200c4.3,0.1,9.5,2.7,11.8,5.3c2.2,2.6,4.5,10,3.5,14.5C213.1,268.4,206.8,293.4,206.8,293.4z M160,363.8l5.4,0.2
			c4.1,0.4,8.1-1.4,9.5-2.7c1.4-1.3,2.2-3,2.7-5l6.9-29.3c0,0,1-5.1,1.1-5.7c0.1-2.2-2.3-4.9-5-5c-2.3-0.1-8.6,0-8.6,0L160,363.8z
			 M176,300.6c0,0,5.9,0.4,7.8,0c3.2-0.7,6.3-2.5,7.6-7.1l8.1-33.3c0.6-4.3-3.8-6.7-6.7-6.8h-5.4L176,300.6z"/>
	</g>
</g>
</svg>
