<?xml version="1.0" encoding="utf-8"?>
<!-- Generator: Adobe Illustrator 17.1.0, SVG Export Plug-In . SVG Version: 6.00 Build 0)  -->
<!DOCTYPE svg PUBLIC "-//W3C//DTD SVG 1.1//EN" "http://www.w3.org/Graphics/SVG/1.1/DTD/svg11.dtd">
<svg version="1.1" xmlns="http://www.w3.org/2000/svg" xmlns:xlink="http://www.w3.org/1999/xlink" x="0px" y="0px"
	 viewBox="0 0 800 660" enable-background="new 0 0 800 660" xml:space="preserve">
<g id="Layer_2">
	
		<radialGradient id="dark_1_" cx="399.9813" cy="329.9318" r="395.506" gradientTransform="matrix(0.9639 0 0 0.88 14.4759 39.66)" gradientUnits="userSpaceOnUse">
		<stop  offset="0.5" style="stop-color:#262626"/>
		<stop  offset="1" style="stop-color:#1A1A1A"/>
	</radialGradient>
	<rect id="dark" fill="url(#dark_1_)" width="800" height="660"/>
	
</g>

<g id="devs">
	
	<g id="bigtime-gaming">
		<g>
			<circle id="XMLID_308_" fill="#FFFFFF" cx="400" cy="330" r="203.9"/>
			<path id="XMLID_279_" fill="#6E6E6F" d="M400,133.9c52.4,0,101.6,20.4,138.6,57.4c37,37,57.4,86.3,57.4,138.6
				s-20.4,101.6-57.4,138.6s-86.3,57.4-138.6,57.4s-101.6-20.4-138.6-57.4c-37-37-57.4-86.3-57.4-138.6s20.4-101.6,57.4-138.6
				C298.4,154.3,347.6,133.9,400,133.9 M400,126.1c-112.6,0-203.9,91.3-203.9,203.9S287.4,533.9,400,533.9S603.9,442.6,603.9,330
				S512.6,126.1,400,126.1L400,126.1z"/>
		</g>
		<path fill="#CF2030" d="M332.3,364.2c0,6.6-3.7,11.9-9,14.7c-4,2-14.9,2.7-26.2,0.8c-1.7-0.3-6.2-2.7-6.2-2.7v-35.9H308
			c7.1,0,14.7,1.9,18.5,5.3C330.2,349.7,332.3,352.3,332.3,364.2z M300.2,316.3c12.4,0,23.6-1,23.6-11.6c0-5.6-0.9-10-4.9-13
			c-3.6-2.4-12.9-6.4-22.5-0.2c-2.9,1.8-5.1,5.5-5.6,7.9c-0.9,4.2,0,17,0,17S294.8,316.3,300.2,316.3z M283.1,478
			c27.2,21.5,60.4,35.6,96.8,39.4c-27.8-21.6-57.7-35.8-84.1-38.6C291.4,478.3,287.1,478.1,283.1,478z M496.3,450.9
			c-7-0.3-47.6,1.6-93.4-8.5c-7.2-1.6-35.2-4.8-52.1-6.3c17.7,4.1,35.8,10.2,54.4,16.6c30.2,10.3,61.5,20.6,92.2,22
			c7.2,0.3,15.3,0,23.3-0.6c11.9-10,22.5-21.5,31.6-34.2C536.6,445.8,515.9,451.7,496.3,450.9z M314.6,447.4
			c29.5,7.4,67.3,31.2,95.2,48.7c10.9,6.8,20.8,12.9,30.3,17.9c19.7-4.3,38.2-11.7,55-21.7c-31.9-2.1-67.1-14.2-96.9-24.3
			C368.6,458,341,448.2,314.6,447.4z M587.5,330.5c0,36.7-10.5,71-28.8,100c-54.4,24.6-122.1,8.8-165.1,2.8
			c-25.5-3.6-55.4-7.6-86.2-6.5c-23.4,0.8-48,10-59.5,14.8c-22.8-31.1-36.3-69.5-36.3-111.1c0-103.8,84.2-188,188-188
			S587.5,226.7,587.5,330.5z M459.1,208l13.1,12.1l-7.7,16.5l15.8-8.5l13.1,12.2l-3.3-17.9l15.7-8.5l-17.8-2.4l-3.4-17.5l-7.7,16.1
			L459.1,208z M351.5,183.5l29.7,21.2L369.8,240l29.7-21.2l29.7,21.2L418,204.7l29.7-21.2l-36.6-0.3l-11.5-34.6l-11.5,34.6
			L351.5,183.5z M292.9,213.9l15.7,8.5l-3.3,17.9l13.1-12.2l15.8,8.5l-7.7-16.5l13.1-12.1l-17.8,2.1l-7.7-16.1l-3.4,17.5
			L292.9,213.9z M258,253.1l0.8,10.8l5.8-9l10.4,2.6l-6.9-8.4l5.8-9l-10,3.9l-6.9-8.2l0.6,10.7l-9.9,4.1L258,253.1z M368.2,361.8
			c0-7.4-4.2-17.5-8.4-23.2c-4.1-5.6-9.1-8.9-16.3-12.6c-0.2-0.1-0.2-0.4,0-0.5c4.7-2.4,7.6-5,10-9.1c2.9-4.9,4.7-8.5,4.5-17.2
			c-0.3-13.4-6.6-24.7-17.6-31.8c-9.2-6-12.8-9.5-43.6-7.5c-29.5,2-40.4,23.2-40.4,23.2v111.2c0,0,22.7,14.6,40.9,14.6
			c15.6,0,30.9,0,41.8-3.9c12.5-4.4,18.2-9.7,23.8-20.3C366.6,377.9,368.2,370,368.2,361.8z M412,290.8h17.3
			c9.5-18.6,37.1-31,37.1-31H336.2c0,0,21.6,10.2,27,31h18.5v117.8H412V290.8z M546.5,323.2h-50.3v27.9h18.2v27.7
			c-5.7,3.2-9.4,4.4-20.1,4.6c-10.7,0.2-21.8-5.1-27.9-12.5c-6.8-8.2-10-20.3-10-36.1c0-15.1,5.2-29.4,11.4-35
			c9.5-8.6,19-11.3,27.3-12c12.2-1,24,5.3,32.7,13.3l13.9-25.7c-13.3-8.9-22-15.7-41-15.7c-24.5,0-42.5,6.6-56.3,19.7
			c-13.8,13.1-20.7,31.4-20.7,54.8c0,24.1,5.9,42.6,17.8,55.4c11.9,12.9,28,21.6,50.6,21.6c8.9,0,35.8-2.5,54.3-15V323.2z
			 M551.1,250.5l-9.9-4.1l0.6-10.7L535,244l-10-3.9l5.8,9l-6.9,8.4l10.4-2.6l5.8,9l0.8-10.8L551.1,250.5z"/>
	</g>
</g>
</svg>
