<?xml version="1.0" encoding="utf-8"?>
<!-- Generator: Adobe Illustrator 17.1.0, SVG Export Plug-In . SVG Version: 6.00 Build 0)  -->
<!DOCTYPE svg PUBLIC "-//W3C//DTD SVG 1.1//EN" "http://www.w3.org/Graphics/SVG/1.1/DTD/svg11.dtd">
<svg version="1.1" xmlns="http://www.w3.org/2000/svg" xmlns:xlink="http://www.w3.org/1999/xlink" x="0px" y="0px"
	 viewBox="0 0 800 660" enable-background="new 0 0 800 660" xml:space="preserve">
<g id="Layer_2">
	
		<radialGradient id="SVGID_1_" cx="399.9813" cy="329.9318" r="395.506" gradientTransform="matrix(0.9639 0 0 0.88 14.4759 39.66)" gradientUnits="userSpaceOnUse">
		<stop  offset="0.5" style="stop-color:#262626"/>
		<stop  offset="1" style="stop-color:#1A1A1A"/>
	</radialGradient>
	<rect fill="url(#SVGID_1_)" width="800" height="660"/>
</g>
<g id="Layer_1">
	<path fill="#FFFFFF" d="M390.1,188.2c-4.6-9.3-16.1-13-25.2-8.3l-176.8,89.8c-9.3,4.6-13,16.1-8.3,25.4l89.6,176.8
		c4.6,9.3,16.1,13,25.4,8.3l79.4-40.4v-171c-2.2,3-5,5.6-8.5,7.2c-12.1,6.1-26.9,1.3-33-10.8c-6.1-12.1-1.3-26.9,10.8-33
		c11.3-5.8,24.9-1.9,31.5,8.3c3.2-13.5,15-23.7,29.5-24.3L390.1,188.2z M265,327.1c-12.1,6.1-26.9,1.3-33-10.8
		c-6.1-12.1-1.3-26.9,10.8-33c12.1-6.1,26.9-1.3,33,10.8S277.1,321,265,327.1z M316,427.7c-12.1,6.1-26.9,1.3-33-10.8
		s-1.3-26.9,10.8-33c12.1-6.1,26.9-1.3,33,10.8C332.9,406.7,328.1,421.5,316,427.7z M351.7,319c6.1,12.1,1.3,26.9-10.8,33
		c-12.1,6.1-26.9,1.3-33-10.8s-1.3-26.9,10.8-33C330.7,301.9,345.5,306.7,351.7,319z M603.6,228.8H405.3c-10.4,0-18.9,8.3-18.9,18.9
		v198.1c0,10.4,8.5,18.9,18.9,18.9h198.1c10.4,0,18.9-8.5,18.9-18.9V247.5C622.5,237.2,613.9,228.8,603.6,228.8z M448.1,427.7
		c-13.5,0-24.5-10.9-24.5-24.5s10.9-24.5,24.5-24.5s24.5,10.9,24.5,24.5C472.6,416.5,461.7,427.7,448.1,427.7z M504.5,371.3
		c-13.5,0-24.5-10.9-24.5-24.5c0-13.5,10.9-24.5,24.5-24.5s24.5,10.9,24.5,24.5C529,360.1,518,371.3,504.5,371.3z M560.9,314.9
		c-13.5,0-24.5-10.9-24.5-24.5c0-13.5,10.9-24.5,24.5-24.5c13.5,0,24.5,10.9,24.5,24.5C585.4,303.8,574.4,314.9,560.9,314.9z"/>
</g>
</svg>
