<?xml version="1.0" encoding="utf-8"?>
<!-- Generator: Adobe Illustrator 17.1.0, SVG Export Plug-In . SVG Version: 6.00 Build 0)  -->
<!DOCTYPE svg PUBLIC "-//W3C//DTD SVG 1.1//EN" "http://www.w3.org/Graphics/SVG/1.1/DTD/svg11.dtd">
<svg version="1.1" id="Layer_1" xmlns="http://www.w3.org/2000/svg" xmlns:xlink="http://www.w3.org/1999/xlink" x="0px" y="0px"
	 viewBox="0 21 240 198" enable-background="new 0 21 240 198" xml:space="preserve">
<path id="egt_1_" fill="none" stroke="#1E2123" stroke-width="1.5" stroke-miterlimit="10" d="M43.8,130.1l9.6-35.2h19.3l-1.6,6
	H57.8l-2.3,7.1h12.8l-1.5,6.2H54l-2.7,10h12.9l-1.5,6L43.8,130.1L43.8,130.1z M105.3,120.5c-1.4,2-2.8,3.8-4.6,5.3
	c-1.8,1.5-3.9,2.7-6.1,3.6c-2.3,0.9-4.6,1.3-7.1,1.3c-2.6,0-4.9-0.5-7.1-1.4c-2.1-0.9-3.9-2.2-5.3-3.8c-1.4-1.6-2.4-3.6-2.9-5.8
	c-0.5-2.2-0.6-4.6,0-7.2c0.5-2.6,1.5-5,2.9-7.2c1.4-2.2,3.2-4.1,5.3-5.8c2.1-1.6,4.3-2.9,6.8-3.8c2.5-0.9,5-1.4,7.6-1.4
	c3.1,0,5.9,0.7,8.3,2c2.4,1.3,4.3,3.1,5.5,5.3l-5.3,3.3c-0.9-1.6-2.2-2.8-3.8-3.7c-1.6-0.9-2.7-1.3-4.9-1.3c-1.8,0-3.6,0.3-5.3,0.9
	c-1.7,0.6-3.3,1.5-4.7,2.6c-1.4,1.1-2.6,2.5-3.6,4c-1,1.5-1.7,3.2-2,5.1c-1.6,8.5,3.3,11,4.8,11.7c1.4,0.6,2.2,0.9,4,0.9
	c2.9,0,5.4-0.8,7.6-2.3c2.1-1.6,3.8-2.8,4.9-5.4H89.1l1.5-5.5h17.9C108.4,111.8,107.6,117.2,105.3,120.5z M137.1,94.9l-1.6,6h-7.7
	l-8.5,29.3h-6l8.5-29.3h-7.7l1.6-6H137.1z M170.3,94.8c-10,0-18,8-18,18s8,18,18,18s18-8,18-18C188.3,102.9,180.3,94.8,170.3,94.8z
	 M131.7,70.2c37.2,9.9,61,25.3,61,42.5c0,29.9-71.6,54.1-159.9,54.1c-7.1,0-14.1-0.2-20.9-0.5c17.5,2.1,36.5,3.3,56.3,3.3
	c88.3,0,159.9-23.2,159.9-51.9C228.1,96.5,188.4,78.2,131.7,70.2z"/>
<path id="egt" fill="#E73F2D" d="M43.8,130.1l9.6-35.2h19.3l-1.6,6H57.8l-2.3,7.1h12.8l-1.5,6.2H54l-2.7,10h12.9l-1.5,6L43.8,130.1
	L43.8,130.1z M105.3,120.5c-1.4,2-2.8,3.8-4.6,5.3c-1.8,1.5-3.9,2.7-6.1,3.6c-2.3,0.9-4.6,1.3-7.1,1.3c-2.6,0-4.9-0.5-7.1-1.4
	c-2.1-0.9-3.9-2.2-5.3-3.8c-1.4-1.6-2.4-3.6-2.9-5.8c-0.5-2.2-0.6-4.6,0-7.2c0.5-2.6,1.5-5,2.9-7.2c1.4-2.2,3.2-4.1,5.3-5.8
	c2.1-1.6,4.3-2.9,6.8-3.8c2.5-0.9,5-1.4,7.6-1.4c3.1,0,5.9,0.7,8.3,2c2.4,1.3,4.3,3.1,5.5,5.3l-5.3,3.3c-0.9-1.6-2.2-2.8-3.8-3.7
	c-1.6-0.9-2.7-1.3-4.9-1.3c-1.8,0-3.6,0.3-5.3,0.9c-1.7,0.6-3.3,1.5-4.7,2.6c-1.4,1.1-2.6,2.5-3.6,4c-1,1.5-1.7,3.2-2,5.1
	c-1.6,8.5,3.3,11,4.8,11.7c1.4,0.6,2.2,0.9,4,0.9c2.9,0,5.4-0.8,7.6-2.3c2.1-1.6,3.8-2.8,4.9-5.4H89.1l1.5-5.5h17.9
	C108.4,111.8,107.6,117.2,105.3,120.5z M137.1,94.9l-1.6,6h-7.7l-8.5,29.3h-6l8.5-29.3h-7.7l1.6-6H137.1z M170.3,94.8
	c-10,0-18,8-18,18s8,18,18,18s18-8,18-18C188.3,102.9,180.3,94.8,170.3,94.8z M131.7,70.2c37.2,9.9,61,25.3,61,42.5
	c0,29.9-71.6,54.1-159.9,54.1c-7.1,0-14.1-0.2-20.9-0.5c17.5,2.1,36.5,3.3,56.3,3.3c88.3,0,159.9-23.2,159.9-51.9
	C228.1,96.5,188.4,78.2,131.7,70.2z"/>
</svg>
