<?xml version="1.0" encoding="utf-8"?>
<!-- Generator: Adobe Illustrator 17.1.0, SVG Export Plug-In . SVG Version: 6.00 Build 0)  -->
<!DOCTYPE svg PUBLIC "-//W3C//DTD SVG 1.1//EN" "http://www.w3.org/Graphics/SVG/1.1/DTD/svg11.dtd">
<svg version="1.1" id="Layer_1" xmlns="http://www.w3.org/2000/svg" xmlns:xlink="http://www.w3.org/1999/xlink" x="0px" y="0px"
	 viewBox="0 21 240 198" enable-background="new 0 21 240 198" xml:space="preserve">
<g id="devs">
	<g id="elk">
		<g id="XMLID_729_">
			<g>
				<path id="XMLID_38_" fill="#E21F27" d="M33.2,109.5h45.6V97.6H25c-5.2,0-9.4,4.2-9.4,9.4V133c0,5.2,4.2,9.4,9.4,9.4h53.7V131
					H33.2c-1.5,0-2.7-1.2-2.7-2.7v-2.4h48.4v-11.7H30.4v-1.9C30.4,110.7,31.6,109.5,33.2,109.5z"/>
				<path id="XMLID_22_" d="M78.8,97.6v11.9H33.2c-1.5,0-2.7,1.2-2.7,2.7v1.9h48.4v11.7H30.4v2.4c0,1.5,1.2,2.7,2.7,2.7h45.6v11.5
					H25c-5.2,0-9.4-4.2-9.4-9.4V107c0-5.2,4.2-9.4,9.4-9.4L78.8,97.6 M86.6,89.8h-7.8H25c-9.5,0-17.3,7.8-17.3,17.3V133
					c0,9.5,7.8,17.3,17.3,17.3h53.7h7.8v-7.8v-8.8v-7.8v-8.5v-7.8V97.6V89.8L86.6,89.8z"/>
			</g>
			<g>
				<polygon id="XMLID_37_" fill="#E21F27" points="97.7,130.8 97.7,97.6 82.2,97.6 82.2,142.4 83.8,142.4 97.7,142.4 145,142.4 
					145,130.8 				"/>
				<path id="XMLID_20_" d="M97.7,97.6v33.3H145v11.5H97.7H83.8h-1.6V97.6H97.7 M105.5,89.8h-7.8H82.2h-7.8v7.8v44.8v7.8h7.8h1.6
					h13.9H145h7.8v-7.8v-11.6V123H145h-39.5V97.6L105.5,89.8L105.5,89.8z"/>
			</g>
			<g>
				<polygon id="XMLID_36_" fill="#E21F27" points="209.3,97.6 190.5,97.6 164.2,116.5 164.2,97.6 148.9,97.6 148.9,142.4 
					164.2,142.4 164.2,121.2 190.2,142.4 209.3,142.4 182.4,120 				"/>
				<path id="XMLID_15_" d="M209.3,97.6l-27,22.4l27,22.4h-19.1l-26-21.2v21.2h-15.3V97.6h15.3v18.9l26.3-18.9H209.3 M231,89.8
					h-21.7h-18.8H188l-2,1.5l-13.9,10v-3.6v-7.8h-7.8h-15.3H141v7.8v44.8v7.8h7.8h15.3h7.8v-7.8v-4.7l13.2,10.8l2.2,1.8h2.8h19.2
					H231l-16.7-13.8L194.6,120l19.7-16.4L231,89.8L231,89.8z"/>
			</g>
		</g>
		<g id="XMLID_789_">
			<g>
				<path id="XMLID_35_" fill="#E21F27" d="M33.2,109.5h45.6V97.6H25c-5.2,0-9.4,4.2-9.4,9.4V133c0,5.2,4.2,9.4,9.4,9.4h53.7V131
					H33.2c-1.5,0-2.7-1.2-2.7-2.7v-2.4h48.4v-11.7H30.4v-1.9C30.4,110.7,31.6,109.5,33.2,109.5z"/>
				<path id="XMLID_10_" fill="#FFFFFF" d="M78.8,97.6v11.9H33.2c-1.5,0-2.7,1.2-2.7,2.7v1.9h48.4v11.7H30.4v2.4
					c0,1.5,1.2,2.7,2.7,2.7h45.6v11.5H25c-5.2,0-9.4-4.2-9.4-9.4V107c0-5.2,4.2-9.4,9.4-9.4L78.8,97.6 M84,92.4h-5.2H25
					C17,92.4,10.4,99,10.4,107V133c0,8.1,6.6,14.7,14.7,14.7h53.7H84v-5.2v-11.4v-5.2v-11.1v-5.2v-12L84,92.4L84,92.4z"/>
			</g>
			<g>
				<polygon id="XMLID_34_" fill="#E21F27" points="97.7,130.8 97.7,97.6 82.2,97.6 82.2,142.4 83.8,142.4 97.7,142.4 145,142.4 
					145,130.8 				"/>
				<path id="XMLID_9_" fill="#FFFFFF" d="M97.7,97.6v33.3H145v11.5H97.7H83.8h-1.6V97.6H97.7 M102.9,92.4h-5.2H82.2H77v5.2v44.8
					v5.2h5.2h1.6h13.9H145h5.2v-5.2v-11.6v-5.2H145h-42.1v-28V92.4L102.9,92.4z"/>
			</g>
			<g>
				<polygon id="XMLID_33_" fill="#E21F27" points="209.3,97.6 190.5,97.6 164.2,116.5 164.2,97.6 148.9,97.6 148.9,142.4 
					164.2,142.4 164.2,121.2 190.2,142.4 209.3,142.4 182.4,120 				"/>
				<path id="XMLID_8_" fill="#FFFFFF" d="M209.3,97.6l-27,22.4l27,22.4h-19.1l-26-21.2v21.2h-15.3V97.6h15.3v18.9l26.3-18.9H209.3
					 M223.8,92.4h-14.4h-18.8h-1.7l-1.4,1l-18,13v-8.7v-5.2h-5.2h-15.3h-5.2v5.2v44.8v5.2h5.2h15.3h5.2v-5.2v-10.2l17.5,14.2
					l1.4,1.2h1.8h19.2h14.4l-11.1-9.2L190.6,120l22.1-18.4L223.8,92.4L223.8,92.4z"/>
			</g>
		</g>
		<g id="XMLID_808_">
			<g>
				
					<linearGradient id="XMLID_2_" gradientUnits="userSpaceOnUse" x1="157.3608" y1="-15.3367" x2="157.3608" y2="-164.6634" gradientTransform="matrix(0.3 0 0 -0.3 -7.629395e-006 93)">
					<stop  offset="0" style="stop-color:#EEEEEF"/>
					<stop  offset="1" style="stop-color:#D0D1D3"/>
				</linearGradient>
				<path id="XMLID_32_" fill="url(#XMLID_2_)" d="M33.2,109.5h45.6V97.6H25c-5.2,0-9.4,4.2-9.4,9.4V133c0,5.2,4.2,9.4,9.4,9.4h53.7
					V131H33.2c-1.5,0-2.7-1.2-2.7-2.7v-2.4h48.4v-11.7H30.4v-1.9C30.4,110.7,31.6,109.5,33.2,109.5z"/>
				<path id="XMLID_7_" d="M78.8,97.6v11.9H33.2c-1.5,0-2.7,1.2-2.7,2.7v1.9h48.4v11.7H30.4v2.4c0,1.5,1.2,2.7,2.7,2.7h45.6v11.5H25
					c-5.2,0-9.4-4.2-9.4-9.4V107c0-5.2,4.2-9.4,9.4-9.4L78.8,97.6 M81.4,95h-2.6H25c-6.6,0-12.1,5.4-12.1,12.1V133
					c0,6.6,5.4,12.1,12.1,12.1h53.7h2.6v-2.7V131v-2.5v-2.6v-11.7v-2v-2.6V97.6L81.4,95L81.4,95z"/>
			</g>
			<g>
				
					<linearGradient id="XMLID_3_" gradientUnits="userSpaceOnUse" x1="378.6842" y1="-15.3367" x2="378.6842" y2="-164.6633" gradientTransform="matrix(0.3 0 0 -0.3 -7.629395e-006 93)">
					<stop  offset="0" style="stop-color:#EEEEEF"/>
					<stop  offset="1" style="stop-color:#D0D1D3"/>
				</linearGradient>
				<polygon id="XMLID_31_" fill="url(#XMLID_3_)" points="97.7,130.8 97.7,97.6 82.2,97.6 82.2,142.4 83.8,142.4 97.7,142.4 
					145,142.4 145,130.8 				"/>
				<path id="XMLID_6_" d="M97.7,97.6v33.3H145v11.5H97.7H83.8h-1.6V97.6H97.7 M100.3,95h-2.6H82.2h-2.6v2.6v44.8v2.6h2.6h1.6h13.9
					H145h2.6v-2.6v-11.6v-2.6H145h-44.7V97.6V95L100.3,95z"/>
			</g>
			<g>
				
					<linearGradient id="XMLID_4_" gradientUnits="userSpaceOnUse" x1="597.0078" y1="-15.3367" x2="597.0078" y2="-164.6633" gradientTransform="matrix(0.3 0 0 -0.3 -7.629395e-006 93)">
					<stop  offset="0" style="stop-color:#EEEEEF"/>
					<stop  offset="1" style="stop-color:#D0D1D3"/>
				</linearGradient>
				<polygon id="XMLID_24_" fill="url(#XMLID_4_)" points="209.3,97.6 190.5,97.6 164.2,116.5 164.2,97.6 148.9,97.6 148.9,142.4 
					164.2,142.4 164.2,121.2 190.2,142.4 209.3,142.4 182.4,120 				"/>
				<path id="XMLID_5_" d="M209.3,97.6l-27,22.4l27,22.4h-19.1l-26-21.2v21.2h-15.3V97.6h15.3v18.9l26.3-18.9H209.3 M216.6,95h-7.2
					h-18.8h-0.8l-0.7,0.5l-22.2,16V97.6V95h-2.6h-15.3h-2.6v2.6v44.8v2.6h2.6h15.3h2.6v-2.6v-15.7l21.7,17.7l0.7,0.6h0.9h19.2h7.2
					l-5.6-4.6L186.4,120L211,99.6L216.6,95L216.6,95z"/>
			</g>
		</g>
	</g>
</g>
</svg>
