<?xml version="1.0" encoding="utf-8"?>
<!-- Generator: Adobe Illustrator 17.1.0, SVG Export Plug-In . SVG Version: 6.00 Build 0)  -->
<!DOCTYPE svg PUBLIC "-//W3C//DTD SVG 1.1//EN" "http://www.w3.org/Graphics/SVG/1.1/DTD/svg11.dtd">
<svg version="1.1" xmlns="http://www.w3.org/2000/svg" xmlns:xlink="http://www.w3.org/1999/xlink" x="0px" y="0px"
	 viewBox="0 0 800 660" enable-background="new 0 0 800 660" xml:space="preserve">
<g id="Layer_2">
	
		<radialGradient id="SVGID_1_" cx="399.9813" cy="329.9318" r="395.506" gradientTransform="matrix(0.9639 0 0 0.88 14.4759 39.66)" gradientUnits="userSpaceOnUse">
		<stop  offset="0.5" style="stop-color:#262626"/>
		<stop  offset="1" style="stop-color:#1A1A1A"/>
	</radialGradient>
	<rect fill="url(#SVGID_1_)" width="800" height="660"/>
</g>
<g id="Layer_1">
	<path fill="#FFFFFF" d="M274.7,349.4c23.9,16.3,55.7,25.2,89.4,25.2s65.5-9,89.4-25.2c24.2-16.5,37.6-38.5,37.6-62
		c0-23.5-13.4-45.5-37.6-62c-23.9-16.3-55.7-25.2-89.4-25.2s-65.5,9-89.4,25.2c-24.2,16.5-37.6,38.5-37.6,62
		C237.1,310.9,250.5,333,274.7,349.4z M364.1,369.1c-0.5,0-5.5-0.1-5.5-0.1l0-2.1c1.8,0.1,3.7,0.1,5.5,0.1c1.8,0,3.7-0.1,5.5-0.1
		l0,2.1C369.6,369,364.6,369.1,364.1,369.1z M276.7,338.9l11-2c1.2,1.4,2.5,2.8,3.8,4.2l-8.9,3.1
		C280.5,342.4,278.5,340.7,276.7,338.9z M282.5,315c-0.6-2.6-0.9-5.2-0.9-7.9c0-1.1,0.1-2.2,0.2-3.3c0.3-2.8,0.9-5.6,1.8-8.3
		c0.9-2.8,2.2-5.5,3.7-8.1c1.6-2.7,3.5-5.3,5.8-7.8c1.9-2.1,3.9-4.1,6.2-5.9c2.7-2.2,5.6-4.4,8.8-6.3c2.8-1.7,5.8-3.3,9-4.8
		c3.5-1.6,7.2-3.1,11-4.3c3.4-1.1,6.9-2,10.4-2.8c4-0.9,8.2-1.5,12.3-2c0.1,0,0.1,0,0.2,0c0.4,0,0.8-0.1,1.2-0.1v5.6
		c-15.6,1.7-29.8,6.9-40.4,14.8c-11.6,8.6-18,19.7-18,31.3c0,12.7,7.5,24.6,21,33.4c13.2,8.6,30.7,13.3,49.2,13.3
		c18.6,0,36-4.7,49.2-13.3c13.6-8.8,21-20.7,21-33.4c0-11.6-6.4-22.7-18-31.3c-10.6-7.8-24.9-13-40.4-14.8v-5.6c0.2,0,0.4,0,0.7,0.1
		c4.2,0.4,8.4,1.1,12.4,1.9c3.5,0.7,7.1,1.6,10.5,2.7c3.8,1.2,7.5,2.6,11.1,4.2c3.2,1.4,6.2,3,9,4.7c3.2,1.9,6.2,4.1,8.9,6.3
		c2.3,1.9,4.4,3.9,6.3,5.9c2.3,2.5,4.2,5.1,5.9,7.8c1.6,2.6,2.9,5.4,3.9,8.2c0.9,2.8,1.6,5.6,1.8,8.4c0.1,1.2,0.2,2.3,0.2,3.5
		c0,2.6-0.3,5.2-0.8,7.8c-0.6,2.9-1.7,5.9-3,8.7c-1.4,2.9-3.3,5.8-5.5,8.6c-2.2,2.8-4.9,5.5-7.8,8c-3.8,3.2-8.1,6.2-12.9,8.8
		c-3.8,2.1-7.9,3.9-12.2,5.5c-5.7,2.1-11.7,3.8-18,4.9c-4.8,0.9-9.8,1.5-14.9,1.8c-5.2,0.3-10.5,0.3-15.6,0c-5-0.3-10-1-14.8-1.9
		c-6.2-1.2-12.2-2.9-17.9-5c-4.2-1.6-8.2-3.4-12-5.5c-4.7-2.6-9-5.5-12.7-8.7c-2.9-2.5-5.5-5.2-7.7-7.9c-2.1-2.7-4-5.6-5.4-8.5
		C284.2,320.8,283.2,317.9,282.5,315z M364.1,275.2c0.7,0,1.4-0.1,2.1-0.2v9.4c0,1.2-0.9,2.1-2.1,2.1s-2.1-0.9-2.1-2.1V275
		C362.7,275.1,363.4,275.2,364.1,275.2z M375.8,264.6c1.9,0.2,3.8,0.5,5.7,0.8l-8.7,11c-0.4-0.1-0.7-0.2-1.1-0.3v-4.1
		C374,270.2,375.4,267.5,375.8,264.6z M299.4,305.1c0-7.2,3-14,8.2-19.9l36.6,4.4c0.1,1.7,0.7,3.4,1.7,4.9l-44.8,20.1
		C300,311.6,299.4,308.4,299.4,305.1z M340.6,266.8l9.6,12.2c-2.1,1.4-3.8,3.2-4.8,5.1l-32.6-3.9
		C319.9,274.2,329.5,269.6,340.6,266.8z M364.1,292.1c4.2,0,7.7-3.4,7.7-7.7V282c0.3,0.1,0.6,0.2,0.9,0.4c3.1,1.3,5.1,3.3,5.6,5.4
		c0.1,0.3,0.1,0.7,0.1,1c0,2-1.4,3.5-2.5,4.5c-1.6,1.3-3.7,2.3-6.2,2.9c-3.5,0.9-7.6,0.9-11.1,0c-2.5-0.6-4.6-1.6-6.2-2.9
		c-1.2-1-2.5-2.5-2.5-4.5c0-0.4,0-0.7,0.1-1c0.5-2.1,2.6-4,5.6-5.4c0.3-0.1,0.6-0.2,0.9-0.4v2.3
		C356.4,288.6,359.9,292.1,364.1,292.1z M350.2,298.7c1.1,0.7,2.4,1.4,3.7,1.9l-20,40.8c-13.8-4.7-24.7-12.4-30.3-21.8L350.2,298.7z
		 M359.4,302.1c1.5,0.2,3.1,0.4,4.7,0.4c1.6,0,3.1-0.1,4.7-0.4l20.1,41c-7.6,2-16,3.1-24.8,3.1c-8.8,0-17.1-1.1-24.8-3.1
		L359.4,302.1z M394.3,341.4l-20-40.8c1.3-0.5,2.6-1.2,3.7-1.9l46.6,21C419,329,408.1,336.8,394.3,341.4z M427,314.6l-44.8-20.1
		c1-1.5,1.6-3.2,1.7-4.9l36.6-4.4c5.2,5.9,8.2,12.8,8.2,19.9C428.8,308.4,428.1,311.6,427,314.6z M382.8,284.1
		c-1-1.9-2.6-3.7-4.8-5.1l9.6-12.2c11.1,2.8,20.7,7.4,27.8,13.3L382.8,284.1z M356.4,276.2c-0.4,0.1-0.7,0.2-1.1,0.3l-8.7-11
		c1.9-0.3,3.8-0.6,5.7-0.8c0.4,2.9,1.8,5.5,4.1,7.4V276.2z M445.6,344.1l-8.9-3.1c1.4-1.4,2.6-2.7,3.8-4.2l10.9,2
		C449.7,340.7,447.7,342.4,445.6,344.1z M375.2,366.5c3.6-0.3,7.3-0.8,10.8-1.4l1.2,2.3c-3.9,0.6-7.9,1-11.9,1.3L375.2,366.5z
		 M418.3,354.3l5.5,2.8c-3.4,1.5-6.9,2.9-10.5,4.1l-2.8-3.2C413.2,356.9,415.8,355.7,418.3,354.3z M405,360.1l2.5,2.9
		c-4.7,1.4-9.6,2.5-14.6,3.4l-1.3-2.5C396.3,363,400.7,361.7,405,360.1z M439.4,348.6c-2.9,2-6.1,3.8-9.3,5.5L424,351
		c2.8-1.8,5.5-3.7,8-5.7l8.1,2.8C439.9,348.3,439.7,348.4,439.4,348.6z M309.9,354.3c2.5,1.3,5.1,2.5,7.7,3.7l-2.8,3.2
		c-3.6-1.2-7.1-2.6-10.5-4.1L309.9,354.3z M342.2,365.1c3.6,0.6,7.2,1.1,10.8,1.4l0,2.2c-4-0.3-8-0.7-11.9-1.2L342.2,365.1z
		 M335.3,366.5c-5-0.9-9.9-2.1-14.6-3.4l2.5-2.9c4.3,1.5,8.7,2.8,13.4,3.8L335.3,366.5z M296.2,345.3c2.5,2,5.1,3.9,8,5.7l-6.1,3.1
		c-3.6-1.9-6.9-3.9-10-6L296.2,345.3z M456,334l-11.6-2.2c0.9-1.4,1.8-2.8,2.5-4.3l13.8-0.1C459.3,329.7,457.7,331.9,456,334z
		 M463.6,321.9l-14.2,0.1c0.5-1.3,0.9-2.6,1.2-3.9l15.1-1.8C465.2,318.2,464.5,320,463.6,321.9z M467.5,304.3c0,2.1-0.2,4.1-0.5,6.2
		l-15.3,1.8c0.2-1.7,0.3-3.5,0.3-5.2c0-0.4,0-0.9,0-1.3l15.4-2.9C467.5,303.4,467.5,303.9,467.5,304.3z M451.5,300.2
		c-0.2-1.3-0.5-2.7-0.9-4l14.4-5.8c0.8,2.3,1.4,4.6,1.8,7L451.5,300.2z M448.9,290.9c-0.6-1.4-1.2-2.7-1.9-4l12.2-8
		c1.4,2.1,2.7,4.2,3.7,6.3L448.9,290.9z M444.1,282.1c-0.9-1.3-1.9-2.7-2.9-3.9l10.5-8.2c1.5,1.5,2.9,3,4.2,4.5L444.1,282.1z
		 M437.4,274c-0.9-0.9-1.8-1.7-2.7-2.6l8.3-8.8c1.6,1.1,3,2.3,4.5,3.5L437.4,274z M430.5,267.8c-1.5-1.2-3.2-2.4-4.9-3.5l6.6-8.6
		c2.1,1.2,4.2,2.4,6.1,3.7L430.5,267.8z M420.8,261.3c-1.4-0.8-2.9-1.6-4.5-2.4l5.4-8.3c1.9,0.8,3.7,1.6,5.4,2.5L420.8,261.3z
		 M411.2,256.5c-2-0.9-4.1-1.7-6.1-2.4l4.7-7.8c2.3,0.7,4.5,1.4,6.6,2.2L411.2,256.5z M399.7,252.3c-1.9-0.6-3.8-1.1-5.7-1.6
		l2.8-7.9c2.6,0.5,5.1,1.1,7.5,1.8L399.7,252.3z M388.4,249.6c-2.5-0.5-5.1-0.9-7.7-1.3l0.9-7.8c3.2,0.3,6.4,0.8,9.6,1.3
		L388.4,249.6z M375.2,247.2c-0.2-0.3-0.5-0.5-0.8-0.6c0.3-1.1,0.5-2.2,0.5-3.3c0-1.1-0.2-2.3-0.6-3.3c0.6,0,1.1,0.1,1.7,0.1
		L375.2,247.2z M369.3,243.3c0,1.4-0.6,2.8-1.6,3.8c-0.8,0.8-1.1,2-0.7,3.1c0.4,1.1,1.4,1.7,2.6,1.7h0.7V263c0,2.1-1.1,4.1-2.9,5.3
		c-0.1,0.1-0.2,0.1-0.2,0.2l0,0c-1.8,1.5-4.4,1.5-6.3,0l0,0c-0.1-0.1-0.2-0.1-0.2-0.2c-1.8-1.2-2.9-3.1-2.9-5.3v-11.2h0.7
		c1.1,0,2.2-0.7,2.6-1.7c0.4-1.1,0.2-2.3-0.6-3.1c-1-1-1.6-2.3-1.6-3.8c0-2.9,2.4-5.3,5.4-5.2C367,238.2,369.3,240.5,369.3,243.3z
		 M353.8,246.6c-0.3,0.2-0.6,0.4-0.8,0.6l-0.8-7.2c0.6,0,1.1-0.1,1.7-0.1c-0.4,1.1-0.5,2.2-0.5,3.4
		C353.3,244.4,353.5,245.5,353.8,246.6z M346.6,240.6l0.9,7.8c-2.6,0.3-5.2,0.7-7.7,1.2l-2.7-7.7
		C340.2,241.3,343.4,240.9,346.6,240.6z M331.5,242.9l2.8,7.9c-1.9,0.5-3.9,1-5.7,1.6l-4.6-7.6C326.4,244,328.9,243.5,331.5,242.9z
		 M318.4,246.3l4.7,7.8c-2.1,0.7-4.1,1.6-6.1,2.4l-5.2-8C313.9,247.7,316.2,247,318.4,246.3z M306.5,250.6l5.4,8.3
		c-1.5,0.8-3,1.6-4.5,2.4l-6.3-8.2C302.8,252.3,304.6,251.4,306.5,250.6z M296,255.7l6.6,8.6c-1.7,1.1-3.3,2.3-4.8,3.5l-7.9-8.4
		C291.8,258.1,293.9,256.9,296,255.7z M285.2,262.6l8.3,8.8c-0.9,0.8-1.8,1.7-2.7,2.6l-10-7.8C282.1,264.9,283.6,263.7,285.2,262.6z
		 M276.6,269.9l10.4,8.2c-1.1,1.3-2,2.6-2.9,4l-11.7-7.6C273.7,272.9,275.1,271.4,276.6,269.9z M269,278.9l12.2,7.9
		c-0.7,1.3-1.3,2.7-1.9,4l-14-5.7C266.3,283.1,267.6,281,269,278.9z M263.1,290.4l14.4,5.8c-0.4,1.3-0.6,2.7-0.9,4l-15.4-2.9
		C261.7,295,262.3,292.7,263.1,290.4z M276.1,305.8c0,0.4,0,0.9,0,1.3c0,1.7,0.1,3.5,0.3,5.2l-15.3-1.8c-0.3-2-0.5-4.1-0.5-6.2
		c0-0.5,0-1,0-1.4L276.1,305.8z M277.5,318.1c0.4,1.3,0.8,2.6,1.2,3.9l-14.3-0.1c-0.8-1.8-1.5-3.7-2.1-5.6L277.5,318.1z
		 M281.3,327.6c0.8,1.4,1.6,2.9,2.5,4.3l-11.7,2.2c-1.8-2.1-3.3-4.3-4.7-6.5L281.3,327.6z M364.1,205.8c44.2,0,82.9,16,104.2,39.7
		c-25.2-19.8-63.3-31.9-104.2-31.9s-78.9,12-104.2,31.9C281.2,221.8,319.9,205.8,364.1,205.8z M243,281.9c0.9-9,5-17.5,11.4-23.9
		c23.4-23.8,64.8-38.7,109.7-38.7c45,0,86.4,14.9,109.7,38.7c6.4,6.5,10.5,14.9,11.4,23.9c0.2,1.8,0.3,3.7,0.3,5.5
		c0,6-1,11.8-2.8,17.3l-0.7-9.9c-0.1-1.5-1.4-2.7-3-2.6c-1.5,0.1-2.7,1.4-2.6,3l0.7,10.2c0.1,1.5,1.3,2.6,2.8,2.6c0.1,0,0.1,0,0.2,0
		c0.7,0,1.3-0.3,1.7-0.8c-4,10.7-11.1,20.6-20.7,29.2c7.6-9.6,12-20.5,12-32.1c0-37.6-45.4-68.3-103.4-70.2
		c-1.5-0.9-3.3-1.5-5.2-1.6c-2.2-0.1-4.3,0.5-6.1,1.6c-3.2,0.1-6.5,0.3-9.6,0.6c-5.4,0.5-10.8,1.2-16,2.3c-4.7,0.9-9.4,2-13.9,3.4
		c-4.2,1.2-8.4,2.7-12.4,4.3c-3.9,1.5-7.6,3.3-11.1,5.1c-4.1,2.1-8,4.5-11.5,7c-3.4,2.4-6.6,5-9.5,7.6c-3.2,2.9-6,6-8.4,9.2
		c-2.9,3.9-5.3,8-7.1,12.2c-2.6,6.1-3.9,12.4-3.9,18.7c0,3.1,0.3,6.2,0.9,9.3c1.6,8,5.3,15.6,10.8,22.6
		c-9.5-8.5-16.5-18.3-20.5-28.9c0.5,0.4,1,0.7,1.7,0.8c0.1,0,0.1,0,0.2,0c1.5,0,2.7-1.1,2.8-2.6l0.7-10.2c0.1-1.5-1.1-2.9-2.6-3
		c-1.5-0.1-2.9,1.1-3,2.6l-0.7,9.9c-1.8-5.6-2.8-11.4-2.8-17.3C242.7,285.6,242.8,283.7,243,281.9z M521.1,291c0-0.2,0-1.5,0-1.5
		c-0.6-26.9-17-52-46.4-70.9c-29.6-19-68.8-29.4-110.5-29.4s-81,10.5-110.5,29.4c-29.4,18.9-45.8,44-46.4,70.9c0,0,0,1.2,0,1.5
		c0,5,0.6,10,1.6,14.8c2,10.3,6,20.4,11.6,30.2c3.7,27.8,20.3,53.4,46.7,72.2c26.6,18.9,61.1,29.4,97,29.4s70.4-10.4,97-29.4
		c26.4-18.8,43-44.4,46.7-72.2c5.6-9.8,9.6-19.9,11.6-30.2C520.5,301,521.1,296,521.1,291z M364.1,194.8
		c83.1,0,150.8,42.8,151.4,95.5c0,4.6-0.5,9.2-1.4,13.8c-10.1,46.9-73.5,83.1-150,83.1s-139.9-36.2-150-83.1
		c-0.9-4.6-1.3-9.2-1.4-13.8C213.3,237.6,281,194.8,364.1,194.8z M488.3,353.4c-5,5.6-10.7,10.9-16.9,15.9
		c-29.5,23.5-67.6,36.4-107.3,36.4s-77.8-12.9-107.3-36.4c-6.2-5-11.9-10.3-16.9-15.9c4.2,3.5,8.7,6.8,13.7,10
		c29.6,19,68.8,29.4,110.5,29.4s81-10.5,110.5-29.4C479.6,360.2,484.1,356.9,488.3,353.4z M457.9,403.7
		c-25.7,18.3-59,28.3-93.8,28.3s-68.1-10.1-93.8-28.3c-20.8-14.8-35.2-34-41.5-55c6.8,8.9,15,17.3,24.5,24.9
		c30.4,24.3,69.8,37.7,110.8,37.7s80.3-13.4,110.8-37.7c9.6-7.6,17.8-16,24.5-24.9C493.1,369.7,478.7,388.8,457.9,403.7z
		 M288.5,247.4c0.4,1.1,1.5,1.7,2.6,1.7c0.4,0,0.7-0.1,1.1-0.2c1.4-0.6,2.1-2.2,1.5-3.7l-2.8-6.6c-0.6-1.4-2.2-2.1-3.7-1.5
		c-1.4,0.6-2.1,2.2-1.5,3.7L288.5,247.4z M436,248.8c0.4,0.1,0.7,0.2,1.1,0.2c1.1,0,2.1-0.6,2.6-1.7l2.8-6.6
		c0.6-1.4-0.1-3.1-1.5-3.7c-1.4-0.6-3.1,0.1-3.7,1.5l-2.8,6.6C433.9,246.6,434.6,248.2,436,248.8z M359.2,228.5h9.8
		c1.5,0,2.8-1.2,2.8-2.8s-1.2-2.8-2.8-2.8h-9.8c-1.5,0-2.8,1.2-2.8,2.8S357.7,228.5,359.2,228.5z M538.5,384l1.6-4.9l-4.3-3.1l5.2,0
		l1.6-5l1.6,5h5.2l-4.3,3.1l1.6,4.9l-4.2-3.1L538.5,384 M516.9,389.8l1.6-4.9l-4.3-3.1l5.2,0l1.6-5l1.6,5h5.2l-4.3,3.1l1.6,4.9
		l-4.2-3.1L516.9,389.8 M505.2,392.7l1.6,5h5.2l-4.3,3.1l1.6,4.9l-4.2-3.1l-4.2,3.1l1.6-4.9l-4.3-3.1l5.2,0L505.2,392.7
		 M499.4,424.3l-4.2,3.1l1.6-4.9l-4.3-3.1l5.2,0l1.6-5l1.6,5h5.2l-4.3,3.1l1.6,4.9L499.4,424.3 M506.8,441.1h5.2l-4.3,3.1l1.6,4.9
		l-4.2-3.1l-4.2,3.1l1.6-4.9l-4.3-3.1l5.2,0l1.6-5L506.8,441.1 M522.7,457h5.2l-4.3,3.1l1.6,4.9l-4.2-3.1l-4.2,3.1l1.6-4.9l-4.3-3.1
		l5.2,0l1.6-5L522.7,457 M544.3,462.8h5.2l-4.3,3.1l1.6,4.9l-4.2-3.1l-4.2,3.1l1.6-4.9l-4.3-3.1l5.2,0l1.6-5L544.3,462.8 M566,457
		h5.2l-4.3,3.1l1.6,4.9l-4.2-3.1l-4.2,3.1l1.6-4.9l-4.2-3.1l5.2,0l1.6-5L566,457 M581.9,441.1h5.2l-4.3,3.1l1.6,4.9l-4.2-3.1
		l-4.2,3.1l1.6-4.9l-4.3-3.1l5.2,0l1.6-5L581.9,441.1 M592.9,419.3l-4.3,3.1l1.6,4.9l-4.2-3.1l-4.2,3.1l1.6-4.9l-4.3-3.1l5.2,0
		l1.6-5l1.6,5H592.9 M576.1,405.7l1.6-4.9l-4.3-3.1l5.2,0l1.6-5l1.6,5h5.2l-4.3,3.1l1.6,4.9l-4.2-3.1L576.1,405.7 M564.5,376.8
		l1.6,5h5.3l-4.3,3.1l1.6,4.9l-4.2-3.1l-4.2,3.1l1.6-4.9l-4.2-3.1l5.2,0L564.5,376.8"/>
</g>
</svg>
