<?xml version="1.0" encoding="utf-8"?>

<!-- Generator: Adobe Illustrator 19.0.0, SVG Export Plug-In . SVG Version: 6.00 Build 0)  -->

<svg version="1.1" id="fb" xmlns="http://www.w3.org/2000/svg" xmlns:xlink="http://www.w3.org/1999/xlink" x="0px" y="0px"

	 viewBox="0 0 51 56" style="enable-background:new 0 0 51 56;" xml:space="preserve">

<style type="text/css">

	.st0{fill:#3B579D;}

	.st1{fill:#FFFFFF;}

	.st2{fill:#403E3F;}

</style>

<path id="bg" class="st0" d="M3.7,12L21.9,1.2c2.2-1.3,4.9-1.3,7.1,0L47.3,12c1.7,1,2.7,2.8,2.7,4.8v22.5c0,2-1,3.8-2.7,4.8

	L29.1,54.8c-2.2,1.3-4.9,1.3-7.1,0L3.7,44C2,43,1,41.2,1,39.2V16.8C1,14.8,2,13,3.7,12z"/>

<path id="fb_1_"  class="st1" d="M26.8,52.7V34.8h-6v-7h6

	v-5.3c0-5.6,3.5-9,8.9-9c3.3,0,5.5,0.3,5.5,0.3v6.3h-3.7c-2.3,0-3.4,0.8-3.4,3.3v4.5h6.9l-0.9,7h-6v13.5L26.8,52.7z"/>

<path id="frame" class="st2" d="M25.5,3.3c0.7,0,1.4,0.2,2,0.6l18.2,10.7c0.8,0.4,1.2,1.3,1.2,2.2v22.5c0,0.9-0.5,1.7-1.2,2.2

	L27.5,52.2c-0.6,0.4-1.3,0.6-2,0.6c-0.7,0-1.4-0.2-2-0.6L5.2,41.4C4.5,41,4,40.1,4,39.2V16.8c0-0.9,0.5-1.7,1.2-2.2L23.5,3.8

	C24.1,3.5,24.8,3.3,25.5,3.3 M25.5,0.3c-1.2,0-2.5,0.3-3.6,1L3.7,12C2,13,1,14.8,1,16.8v22.5c0,2,1,3.8,2.7,4.8l18.2,10.7

	c1.1,0.6,2.3,1,3.6,1c1.2,0,2.5-0.3,3.6-1L47.3,44c1.7-1,2.7-2.8,2.7-4.8V16.8c0-2-1-3.8-2.7-4.8L29.1,1.2C28,0.6,26.7,0.3,25.5,0.3

	L25.5,0.3z"/>

</svg>

