<?xml version="1.0" encoding="utf-8"?>
<!-- Generator: Adobe Illustrator 17.1.0, SVG Export Plug-In . SVG Version: 6.00 Build 0)  -->
<!DOCTYPE svg PUBLIC "-//W3C//DTD SVG 1.1//EN" "http://www.w3.org/Graphics/SVG/1.1/DTD/svg11.dtd">
<svg version="1.1" xmlns="http://www.w3.org/2000/svg" xmlns:xlink="http://www.w3.org/1999/xlink" x="0px" y="0px"
	 viewBox="0 0 800 660" enable-background="new 0 0 800 660" xml:space="preserve">
<g id="Layer_2">
	
		<radialGradient id="light_1_" cx="399.9813" cy="329.9318" r="395.506" gradientTransform="matrix(0.9639 0 0 0.88 14.4759 39.66)" gradientUnits="userSpaceOnUse">
		<stop  offset="0.5" style="stop-color:#FFFFFF"/>
		<stop  offset="1" style="stop-color:#D9D9D9"/>
	</radialGradient>
	<rect id="light" fill="url(#light_1_)" width="800" height="660"/>
	
</g>

<g id="devs">

	<g id="gamesos">
		<path fill="#93C13E" d="M557.7,272.1c16.4-11.5,37-17.9,57.3-15.1c13,1.8,24.5,7.6,35.4,14.5c-7.9,1.5-16.1,2.4-22.4,7.3
			c-16.1,10.9-18.2,39.4-0.9,50.3c10.6,7,23.9,7.6,34.5,14.2c12.4,7.9,9.1,29.4-3.9,35.1c-13,7.6-28.2,1.5-40.9-3
			c-0.9,2.4-2.4,7.3-3.3,9.7c10,3.9,20.6,6.1,31.5,7.6c-25.1,14.8-57.3,14.8-81.8-1.2c16.7-5.1,32.4-14.8,40.9-30.6
			c13.6-23.6,7.9-56-12.7-73.9C582,278.5,569.9,274.5,557.7,272.1L557.7,272.1z M530.5,329.7c-0.3-17.3,6.7-33.9,17.3-47.3
			c23.3-1.2,45.4,15.4,51.2,38.2c7.6,30.3-17,61.5-47.6,61.8C538.7,367.5,529.9,349.1,530.5,329.7L530.5,329.7z M627.4,296.6
			c4.8-13.6,22.7-17.9,34.8-12.7c14.2,16.1,17.6,38.8,15.8,59.4c-10.3-12.4-26.7-14.8-40.9-20.9
			C627.4,318.8,623.2,306.3,627.4,296.6L627.4,296.6z"/>
		<path fill="#5B5C5B" d="M482.9,288.5c11.5-6.7,25.7-4.2,37.9,0.3c-0.6,1.8-2.1,5.8-3,7.6c-9.7-3-20.9-6.4-30-0.6
			c-9.7,5.5-11.5,20.9-2.7,27.6c10.3,7,24.2,6.7,33,15.4c10.6,11.8,5.5,33-8.8,39.4c-12.4,7-27,2.4-40-1.2c0.6-3,1.2-5.8,2.1-8.5
			c10.6,3.6,22.7,8.5,33.3,2.7c10-4.5,13.6-20,5.1-27.6c-10.3-7.9-25.7-6.7-34.5-17C466.3,315.1,469.9,295.7,482.9,288.5
			L482.9,288.5z M410.2,287.9h54.2v8.2h-46v31.5H462v8.5h-43.6v37.6h46v8.5h-54.2V287.9z M306,382.1v-66.6
			c0-12.1,7.9-20.6,19.4-20.6s19.4,8.2,19.4,20.6v66.3h9.4v-66.3c0-12.1,7.9-20.6,19.4-20.6S393,303,393,315.4v66.3h9.1v-66.3
			c0-17.9-12.7-29.7-28.5-29.7c-10.3,0-19.1,4.8-24.2,13c-5.1-8.2-13.9-13-24.2-13c-15.8,0-28.5,11.5-28.5,29.7v66.3
			C296.9,382.1,306,382.1,306,382.1z M256.6,286c-17.9,0-32.7,14.5-32.7,32.7v63.3h9.1v-46h47v45.7h9.1v-63.3
			C289.1,300.6,274.5,286,256.6,286z M233,327.9v-9.1c0-13,10.6-23.6,23.6-23.6c13,0,23.6,10.6,23.6,23.6v9.1H233z M218.2,331.2v-3
			h-0.3l0,0h-8.2l0,0h-42.1l0.6,8.2H210c-1.2,20.9-18.8,37.6-40,37.6c-22.1,0-40-17.9-40-39.7s17.9-39.7,40-39.7
			c13.3,0,25.4,6.7,32.7,16.7l5.8-5.8c-8.8-11.5-22.7-19.1-38.5-19.1c-27-0.3-48.5,21.2-48.5,47.6s21.5,47.9,48.2,47.9
			c26.7,0,48.2-21.5,48.2-47.9C218.2,333,218.2,332.1,218.2,331.2z"/>
	</g>
</g>
</svg>
