<?xml version="1.0" encoding="utf-8"?>
<!-- Generator: Adobe Illustrator 17.1.0, SVG Export Plug-In . SVG Version: 6.00 Build 0)  -->
<!DOCTYPE svg PUBLIC "-//W3C//DTD SVG 1.1//EN" "http://www.w3.org/Graphics/SVG/1.1/DTD/svg11.dtd">
<svg version="1.1" id="Layer_1" xmlns="http://www.w3.org/2000/svg" xmlns:xlink="http://www.w3.org/1999/xlink" x="0px" y="0px"
	 viewBox="0 21 240 198" enable-background="new 0 21 240 198" xml:space="preserve">
<path id="igt_1_" fill="none" stroke="#1E2123" stroke-width="1.5" stroke-miterlimit="10" d="M33.7,69H12.2V52.2h21.5V69z
	 M33.7,77.5H12.2v83.8h21.5V77.5z M146.6,77.8v93.9c0,16.8-15.4,24.1-29.7,24.1H78.4l-12.5-20.6c0,0,49,0,51.6,0
	c2.6,0,7.7-0.7,7.7-6.1c0-3.2,0-7.9,0-7.9s-39.2,0-50.1,0c-16.8,0-28.4-10.8-28.4-20.8V99.6c0-15,18.1-22.1,27.1-22.1L146.6,77.8z
	 M125.1,98.2h-51c-3.3,0-6.1,2.7-6.1,6.1v30.6c0,3.3,2.7,6.1,6.1,6.1h51V98.2z M225.1,99.1l8.1-21.5h-52.6V52.2h-21.4
	c0,0,0,68,0,87.5c0,9.1,9.7,21.6,29.2,21.6c3.8,0,12.6,0,12.6,0L209,141c0,0-16.1,0-22.2,0c-3.2,0-6.1-2.4-6.1-5.5
	c0-8.9,0-36.3,0-36.3H225.1z M212.7,150.6c-2,0-3.7,1.6-3.7,3.5c0,2,1.6,3.5,3.7,3.5c2.1,0,3.6-1.6,3.6-3.5
	C216.3,152.2,214.8,150.6,212.7,150.6z M212.7,151.3c1.6,0,2.7,1.3,2.7,2.8c0,1.5-1.2,2.8-2.7,2.8c-1.6,0-2.8-1.2-2.8-2.8
	C209.9,152.6,211.1,151.3,212.7,151.3z M212.1,154.5h0.4c0.5,0,0.7,0.2,0.7,0.6c0.1,0.4,0.2,0.7,0.3,0.9h0.9
	c-0.1-0.1-0.2-0.3-0.3-0.9c-0.1-0.5-0.3-0.7-0.6-0.9v0c0.4-0.1,0.7-0.4,0.7-0.8c0-0.3-0.2-0.6-0.3-0.8c-0.3-0.1-0.6-0.3-1.3-0.3
	c-0.6,0-1,0-1.4,0.1v3.5h0.8L212.1,154.5L212.1,154.5z M212.1,152.9c0.1,0,0.3,0,0.5,0c0.5,0,0.8,0.2,0.8,0.5c0,0.3-0.4,0.5-0.8,0.5
	h-0.4L212.1,152.9L212.1,152.9z"/>
<path id="igt" fill="#005AA0" d="M33.7,69H12.2V52.2h21.5V69z M33.7,77.5H12.2v83.8h21.5V77.5z M146.6,77.8v93.9
	c0,16.8-15.4,24.1-29.7,24.1H78.4l-12.5-20.6c0,0,49,0,51.6,0c2.6,0,7.7-0.7,7.7-6.1c0-3.2,0-7.9,0-7.9s-39.2,0-50.1,0
	c-16.8,0-28.4-10.8-28.4-20.8V99.6c0-15,18.1-22.1,27.1-22.1L146.6,77.8z M125.1,98.2h-51c-3.3,0-6.1,2.7-6.1,6.1v30.6
	c0,3.3,2.7,6.1,6.1,6.1h51V98.2z M225.1,99.1l8.1-21.5h-52.6V52.2h-21.4c0,0,0,68,0,87.5c0,9.1,9.7,21.6,29.2,21.6
	c3.8,0,12.6,0,12.6,0L209,141c0,0-16.1,0-22.2,0c-3.2,0-6.1-2.4-6.1-5.5c0-8.9,0-36.3,0-36.3H225.1z M212.7,150.6
	c-2,0-3.7,1.6-3.7,3.5c0,2,1.6,3.5,3.7,3.5c2.1,0,3.6-1.6,3.6-3.5C216.3,152.2,214.8,150.6,212.7,150.6z M212.7,151.3
	c1.6,0,2.7,1.3,2.7,2.8c0,1.5-1.2,2.8-2.7,2.8c-1.6,0-2.8-1.2-2.8-2.8C209.9,152.6,211.1,151.3,212.7,151.3z M212.1,154.5h0.4
	c0.5,0,0.7,0.2,0.7,0.6c0.1,0.4,0.2,0.7,0.3,0.9h0.9c-0.1-0.1-0.2-0.3-0.3-0.9c-0.1-0.5-0.3-0.7-0.6-0.9v0c0.4-0.1,0.7-0.4,0.7-0.8
	c0-0.3-0.2-0.6-0.3-0.8c-0.3-0.1-0.6-0.3-1.3-0.3c-0.6,0-1,0-1.4,0.1v3.5h0.8L212.1,154.5L212.1,154.5z M212.1,152.9
	c0.1,0,0.3,0,0.5,0c0.5,0,0.8,0.2,0.8,0.5c0,0.3-0.4,0.5-0.8,0.5h-0.4L212.1,152.9L212.1,152.9z"/>
</svg>
