<?xml version="1.0" encoding="utf-8"?>
<!-- Generator: Adobe Illustrator 17.1.0, SVG Export Plug-In . SVG Version: 6.00 Build 0)  -->
<!DOCTYPE svg PUBLIC "-//W3C//DTD SVG 1.1//EN" "http://www.w3.org/Graphics/SVG/1.1/DTD/svg11.dtd">
<svg version="1.1" id="free-slots" xmlns="http://www.w3.org/2000/svg" xmlns:xlink="http://www.w3.org/1999/xlink" x="0px" y="0px"
	 viewBox="0 0 240 240" enable-background="new 0 0 240 240" xml:space="preserve">
<g>
	<polygon fill="#D4D3D3" points="70,166.6 50.3,143.4 30.6,166.6 50.3,189.8 	"/>
	<polygon fill="#D4D3D3" points="139.6,166.6 119.9,143.4 100.2,166.6 119.9,189.8 	"/>
	<polygon fill="#D4D3D3" points="209.2,166.6 189.5,143.4 169.8,166.6 189.5,189.8 	"/>
	<path fill="#D4D3D3" d="M165.7,93.3h-21.1H96.1H75h-70v145.5H75h21.1h48.5h21.1H235V93.3L165.7,93.3L165.7,93.3z M74.7,217.8H26.2
		V114.4h48.5V217.8z M144.3,217.8H95.8V114.4h48.5V217.8z M213.9,217.8h-48.5V114.4h48.5V217.8z"/>
	<polygon fill="#D4D3D3" points="99.9,64 120.4,53.3 140.8,64 136.9,41.3 153.4,25.2 130.6,21.9 120.4,1.2 110.2,21.9 87.3,25.2 
		103.8,41.3 	"/>
	<polygon fill="#D4D3D3" points="164.7,60.6 160.8,83.4 181.3,72.6 201.7,83.4 197.8,60.6 214.3,44.5 191.5,41.2 181.3,20.5 
		171.1,41.2 148.2,44.5 	"/>
	<polygon fill="#D4D3D3" points="39,83.4 59.5,72.6 79.9,83.4 76,60.6 92.5,44.5 69.7,41.2 59.5,20.5 49.3,41.2 26.4,44.5 43,60.6 	
		"/>
</g>
</svg>
