<?xml version="1.0" encoding="utf-8"?>
<!-- Generator: Adobe Illustrator 17.1.0, SVG Export Plug-In . SVG Version: 6.00 Build 0)  -->
<!DOCTYPE svg PUBLIC "-//W3C//DTD SVG 1.1//EN" "http://www.w3.org/Graphics/SVG/1.1/DTD/svg11.dtd">
<svg version="1.1" xmlns="http://www.w3.org/2000/svg" xmlns:xlink="http://www.w3.org/1999/xlink" x="0px" y="0px"
	 viewBox="0 0 800 660" enable-background="new 0 0 800 660" xml:space="preserve">
<g id="Layer_2">
	
		<radialGradient id="SVGID_1_" cx="399.9813" cy="329.9318" r="395.506" gradientTransform="matrix(0.9639 0 0 0.88 14.4759 39.66)" gradientUnits="userSpaceOnUse">
		<stop  offset="0.5" style="stop-color:#262626"/>
		<stop  offset="1" style="stop-color:#1A1A1A"/>
	</radialGradient>
	<rect fill="url(#SVGID_1_)" width="800" height="660"/>
</g>
<g id="Layer_1">
	<path id="mobile-blackjack_1_" fill="#FFFFFF" d="M381.7,326c-2.1-1.8-4.9-2.9-7.7-2.9c-6.5,0-11.7,5.2-11.7,11.5
		c0,12.3,17.6,22.2,18.3,22.6c0.3,0.2,0.7,0.3,1.1,0.3c0.4,0,0.8-0.1,1.1-0.3c0.7-0.4,18.3-10.3,18.3-22.6c0-6.3-5.2-11.5-11.7-11.5
		C386.5,323.1,383.8,324.1,381.7,326z M396.5,334.6c0,7.4-9.9,14.9-14.9,17.9c-5-3-14.9-10.5-14.9-17.9c0-3.8,3.2-6.9,7.1-6.9
		c2.3,0,4.5,1.1,5.9,3c0.4,0.6,1.1,1,1.9,1s1.4-0.4,1.9-1c1.3-1.9,3.5-3,5.9-3C393.4,327.7,396.5,330.8,396.5,334.6z M447,256.6
		h-57.3c-6.3,0-11.5,5.1-11.5,11.5v6.9H353c-6.3,0-11.5,5.1-11.5,11.5v105.5c0,6.3,5.1,11.5,11.5,11.5h57.3
		c6.3,0,11.5-5.1,11.5-11.5V385H447c6.3,0,11.5-5.1,11.5-11.5V268.1C458.4,261.8,453.3,256.6,447,256.6z M417.2,291
		C417.2,291,417.2,291,417.2,291v13.8v0v13.7c0,0,0,0,0,0v13.7c0,0,0,0,0,0V346c0,0,0,0,0,0v13.7c0,0,0,0,0,0v32.2
		c0,3.8-3.1,6.9-6.9,6.9H353c-3.8,0-6.9-3.1-6.9-6.9V286.4c0-3.8,3.1-6.9,6.9-6.9h27.5c0,0,0,0,0,0s0,0,0,0H392c0,0,0,0,0,0s0,0,0,0
		h18.3c3.8,0,6.9,3.1,6.9,6.9V291L417.2,291z M394.3,275v-2.3h3.6l2.3,2.3H394.3z M404.4,272.7h7.3l3.3,3.3c-1.4-0.6-3-1-4.6-1h-3.6
		L404.4,272.7z M418.1,272.7h7.3l17,17v7.3L418.1,272.7z M431.9,272.7h10.5v10.5L431.9,272.7z M420.8,281.8l21.6,21.6v7.3
		l-20.6-20.6v-3.6C421.8,284.8,421.4,283.2,420.8,281.8z M421.8,358.8v-7.3l17.4,17.4h-7.3L421.8,358.8z M425.4,368.9h-3.6v-3.6
		L425.4,368.9z M421.8,345v-7.3l20.6,20.6v7.3L421.8,345z M421.8,331.3V324l20.6,20.6v7.3L421.8,331.3z M421.8,317.5v-7.3l20.6,20.6
		v7.3L421.8,317.5z M421.8,303.8v-7.3l20.6,20.6v7.3L421.8,303.8z M453.8,373.6c0,3.8-3.1,6.9-6.9,6.9h-25.2v-7h22.9
		c0.1,0,0.2,0,0.2,0c0,0,0.1,0,0.1,0c0,0,0.1,0,0.1,0c0,0,0.1,0,0.1,0c0,0,0.1,0,0.1,0c0,0,0.1,0,0.1,0c0,0,0.1,0,0.1,0
		c0,0,0.1,0,0.1,0c0,0,0.1,0,0.1,0c0,0,0.1,0,0.1-0.1c0,0,0.1,0,0.1-0.1c0,0,0.1,0,0.1-0.1c0,0,0.1,0,0.1-0.1
		c0.1-0.1,0.2-0.2,0.3-0.3c0,0,0-0.1,0.1-0.1c0,0,0.1-0.1,0.1-0.1c0,0,0-0.1,0.1-0.1c0,0,0-0.1,0.1-0.1c0,0,0-0.1,0.1-0.1
		c0,0,0-0.1,0-0.1c0,0,0-0.1,0-0.1c0,0,0-0.1,0-0.1c0,0,0-0.1,0-0.1c0,0,0-0.1,0-0.1c0,0,0-0.1,0-0.1c0,0,0-0.1,0-0.1
		c0-0.1,0-0.2,0-0.2v-13.7c0,0,0,0,0,0v-13.7v0V330c0,0,0,0,0,0v-13.7c0,0,0,0,0,0v-13.7c0,0,0,0,0,0v-13.7v0v-18.3
		c0-1.3-1-2.3-2.3-2.3h-18.3h0h-27.5h0H392c-1.3,0-2.3,1-2.3,2.3v4.6h-6.9v-6.9c0-3.8,3.1-6.9,6.9-6.9H447c3.8,0,6.9,3.1,6.9,6.9
		L453.8,373.6L453.8,373.6z M355.2,305.6l1.2-3.1h7.1l1.2,3.1c0.3,0.9,1.2,1.5,2.1,1.5c0.3,0,0.5,0,0.8-0.1c1.2-0.4,1.8-1.8,1.3-3
		l-6.9-18.3c0,0,0,0,0-0.1c0,0,0-0.1,0-0.1c0,0,0-0.1-0.1-0.1c0,0,0-0.1-0.1-0.1c0,0,0-0.1-0.1-0.1c0,0,0-0.1-0.1-0.1
		c0,0,0-0.1-0.1-0.1c0,0,0-0.1-0.1-0.1c0,0-0.1-0.1-0.1-0.1c0,0-0.1-0.1-0.1-0.1c0,0-0.1,0-0.1-0.1c0,0-0.1-0.1-0.1-0.1
		c0,0-0.1,0-0.1-0.1c0,0-0.1,0-0.1-0.1c0,0-0.1,0-0.1-0.1c0,0-0.1,0-0.1-0.1c0,0-0.1,0-0.1,0c0,0,0,0-0.1,0c0,0,0,0,0,0
		c0,0-0.1,0-0.1,0c0,0-0.1,0-0.1,0c0,0-0.1,0-0.1,0c0,0-0.1,0-0.1,0c0,0-0.1,0-0.1,0c0,0-0.1,0-0.1,0c0,0-0.1,0-0.1,0
		c0,0-0.1,0-0.1,0c0,0-0.1,0-0.1,0c0,0-0.1,0-0.1,0c0,0-0.1,0-0.1,0c0,0-0.1,0-0.1,0c0,0-0.1,0-0.1,0c0,0-0.1,0-0.1,0c0,0,0,0,0,0
		c0,0,0,0-0.1,0c0,0-0.1,0-0.1,0c0,0-0.1,0-0.1,0.1c0,0-0.1,0-0.1,0c0,0-0.1,0-0.1,0.1c0,0-0.1,0-0.1,0.1c0,0-0.1,0.1-0.1,0.1
		c0,0-0.1,0-0.1,0.1c0,0-0.1,0.1-0.1,0.1c0,0-0.1,0.1-0.1,0.1c0,0,0,0.1-0.1,0.1c0,0,0,0.1-0.1,0.1c0,0,0,0.1-0.1,0.1
		c0,0,0,0.1-0.1,0.1c0,0,0,0.1-0.1,0.1c0,0,0,0.1-0.1,0.1c0,0,0,0.1,0,0.1c0,0,0,0,0,0.1l-6.9,18.3c-0.4,1.2,0.2,2.5,1.3,3
		c0.3,0.1,0.5,0.1,0.8,0.1C354,307,354.8,306.5,355.2,305.6z M359.9,293l1.8,4.9h-3.7L359.9,293z M411.1,371.4
		c-1.2-0.4-2.5,0.2-3,1.3l-1.2,3.1h-7.1l-1.2-3.1c-0.4-1.2-1.8-1.8-3-1.3c-1.2,0.4-1.8,1.8-1.3,3l6.9,18.3c0,0,0,0,0,0
		c0,0.1,0.1,0.2,0.1,0.3c0,0,0,0,0,0c0.1,0.1,0.1,0.2,0.2,0.3c0,0,0,0,0,0.1c0.1,0.1,0.1,0.2,0.2,0.2c0,0,0,0,0,0
		c0.1,0.1,0.1,0.1,0.2,0.2c0,0,0,0,0.1,0c0.1,0.1,0.2,0.1,0.3,0.2c0,0,0,0,0,0c0.1,0,0.1,0,0.2,0.1c0,0,0.1,0,0.1,0c0,0,0,0,0.1,0
		c0.1,0,0.2,0.1,0.3,0.1c0,0,0,0,0.1,0c0.1,0,0.2,0,0.3,0h0h0c0.1,0,0.2,0,0.3,0c0,0,0,0,0.1,0c0.1,0,0.2,0,0.3-0.1c0,0,0,0,0.1,0
		c0,0,0.1,0,0.1,0c0.1,0,0.1,0,0.2-0.1c0,0,0,0,0,0c0.1,0,0.2-0.1,0.3-0.2c0,0,0,0,0.1,0c0.1-0.1,0.2-0.1,0.2-0.2c0,0,0,0,0,0
		c0.1-0.1,0.1-0.1,0.2-0.2c0,0,0,0,0-0.1c0.1-0.1,0.1-0.2,0.2-0.3c0,0,0,0,0,0c0-0.1,0.1-0.2,0.1-0.3c0,0,0,0,0,0l6.9-18.3
		C412.9,373.2,412.3,371.9,411.1,371.4z M403.4,385.4l-1.8-4.9h3.7L403.4,385.4z M392,387.3h-34.4v-73.4c0-1.3-1-2.3-2.3-2.3
		s-2.3,1-2.3,2.3v75.7c0,1.3,1,2.3,2.3,2.3H392c1.3,0,2.3-1,2.3-2.3C394.3,388.3,393.2,387.3,392,387.3z M371.4,291h34.4v73.4
		c0,1.3,1,2.3,2.3,2.3s2.3-1,2.3-2.3v-75.7c0-1.3-1-2.3-2.3-2.3h-36.7c-1.3,0-2.3,1-2.3,2.3S370.1,291,371.4,291z M461.9,177.5
		H338.1c-13.1,0-23.8,10.7-23.8,23.8v257.3c0,13.1,10.7,23.8,23.8,23.8h123.9c13.1,0,23.8-10.7,23.8-23.8V201.4
		C485.8,188.2,475.1,177.5,461.9,177.5L461.9,177.5z M461.9,472.9H338.1c-7.9,0-14.3-6.4-14.3-14.3v-14.3h119.1
		c2.6,0,4.8-2.1,4.8-4.8c0-2.6-2.1-4.8-4.8-4.8H323.8V225.2h119.1c2.6,0,4.8-2.1,4.8-4.8c0-2.6-2.1-4.8-4.8-4.8H323.8v-14.3
		c0-7.9,6.4-14.3,14.3-14.3h123.9c7.9,0,14.3,6.4,14.3,14.3v14.3h-14.3c-2.6,0-4.8,2.1-4.8,4.8c0,2.6,2.1,4.8,4.8,4.8h14.3v209.6
		h-14.3c-2.6,0-4.8,2.1-4.8,4.8c0,2.6,2.1,4.8,4.8,4.8h14.3v14.3C476.2,466.5,469.8,472.9,461.9,472.9L461.9,472.9z M461.9,472.9
		 M409.5,196.6h-19.1c-2.6,0-4.8,2.1-4.8,4.8c0,2.6,2.1,4.8,4.8,4.8h19.1c2.6,0,4.8-2.1,4.8-4.8
		C414.3,198.7,412.2,196.6,409.5,196.6L409.5,196.6z M409.5,196.6 M376.2,196.6c-1.3,0-2.5,0.5-3.4,1.4c-0.9,0.9-1.4,2.1-1.4,3.4
		c0,1.3,0.5,2.5,1.4,3.4c0.9,0.9,2.1,1.4,3.4,1.4c1.3,0,2.5-0.5,3.4-1.4c0.9-0.9,1.4-2.1,1.4-3.4c0-1.3-0.5-2.5-1.4-3.4
		C378.7,197.1,377.4,196.6,376.2,196.6L376.2,196.6z M376.2,196.6 M400,449.1c-5.3,0-9.5,4.3-9.5,9.5c0,5.3,4.3,9.5,9.5,9.5
		c5.3,0,9.5-4.3,9.5-9.5C409.5,453.4,405.3,449.1,400,449.1L400,449.1z M400,449.1"/>
</g>
</svg>
