<?xml version="1.0" encoding="utf-8"?>
<!-- Generator: Adobe Illustrator 17.1.0, SVG Export Plug-In . SVG Version: 6.00 Build 0)  -->
<!DOCTYPE svg PUBLIC "-//W3C//DTD SVG 1.1//EN" "http://www.w3.org/Graphics/SVG/1.1/DTD/svg11.dtd">
<svg version="1.1" id="Layer_1" xmlns="http://www.w3.org/2000/svg" xmlns:xlink="http://www.w3.org/1999/xlink" x="0px" y="0px"
	 viewBox="0 42 240 198" enable-background="new 0 42 240 198" xml:space="preserve">
<path id="netent_1_" fill="none" stroke="#1E2123" stroke-width="1.5" stroke-miterlimit="10" d="M201.4,125.7v-8.8h31.7v8.8h-11.2
	v40.3h-9.3v-40.3H201.4z M187.3,147.6v-30.8h9.3v49h-8.4l-19.7-31.1v31.1h-9.2v-49h8.4L187.3,147.6z M127.7,99v17.8h25.8v8.8H131
	v11.1h19.2v9H131v11.4h22.5v8.7h-25.8v17.1h-1.1v-16.8v-49.6V99H127.7z M87.2,125.7v-8.8h32.1v8.8h-11.5v40.3h-9.2v-40.3H87.2z
	 M34.9,147.6v-30.8h9.2v49h-8.4l-19.4-31.1v31.1H7v-49h8.4L34.9,147.6z M50.1,165.8v-49h31.8v8.8H59.3v11.1h19.2v9H59.3v11.4h22.5
	v8.7H50.1z"/>
<g id="netent">
	<path fill="#68A511" d="M201.4,125.7v-8.8h31.7v8.8h-11.2v40.3h-9.3v-40.3H201.4z M187.3,147.6v-30.8h9.3v49h-8.4l-19.7-31.1v31.1
		h-9.2v-49h8.4L187.3,147.6z M127.7,99v17.8h25.8v8.8H131v11.1h19.2v9H131v11.4h22.5v8.7h-25.8v17.1h-1.1v-16.8v-49.6V99H127.7z"/>
	<path fill="#AAAAAA" d="M87.2,125.7v-8.8h32.1v8.8h-11.5v40.3h-9.2v-40.3H87.2z M34.9,147.6v-30.8h9.2v49h-8.4l-19.4-31.1v31.1H7
		v-49h8.4L34.9,147.6z M50.1,165.8v-49h31.8v8.8H59.3v11.1h19.2v9H59.3v11.4h22.5v8.7H50.1z"/>
</g>
</svg>
