<?xml version="1.0" encoding="utf-8"?>
<!-- Generator: Adobe Illustrator 17.1.0, SVG Export Plug-In . SVG Version: 6.00 Build 0)  -->
<!DOCTYPE svg PUBLIC "-//W3C//DTD SVG 1.1//EN" "http://www.w3.org/Graphics/SVG/1.1/DTD/svg11.dtd">
<svg version="1.1" id="online-roulette" xmlns="http://www.w3.org/2000/svg" xmlns:xlink="http://www.w3.org/1999/xlink" x="0px"
	 y="0px" viewBox="0 0 240 240" enable-background="new 0 0 240 240" xml:space="preserve">
<g>
	<path fill="#D4D3D3" d="M120,0C53.7,0,0,53.7,0,120s53.7,120,120,120c66.3,0,120-53.7,120-120S186.3,0,120,0z M36.5,38.8
		c14-14,31.1-20.3,32.4-18.9c1.3,1.3-13.7,8.5-27.7,22.5c-14,14-21.8,29.5-23.1,28.2C16.9,69.3,22.5,52.8,36.5,38.8z M120,227.1
		c-59.1,0-107.1-47.9-107.1-107.1C12.9,60.9,60.9,12.9,120,12.9c59.1,0,107.1,47.9,107.1,107.1C227.1,179.1,179.1,227.1,120,227.1z"
		/>
	<path fill="#D4D3D3" d="M205.5,120c0-2.4-0.1-4.7-0.3-7.1h0l-0.1-1.4l-0.2-1.4h0c-0.6-5-1.6-9.9-3-14.7l0,0l-0.4-1.4l0,0l-0.4-1.4
		l0,0c-1.6-4.8-3.7-9.4-6.1-13.8l0,0l-0.7-1.2l-0.7-1.2h0c-2.6-4.3-5.5-8.4-8.8-12.2h0l-1-1.1c0,0,0,0,0,0l-0.9-1.1l0,0
		c-3.4-3.7-7.2-7.1-11.2-10.1l0,0l-1.2-0.8c0,0,0,0,0,0l-1.1-0.8l0,0c-4.1-2.9-8.5-5.5-13-7.6h0L155,42l-1.3-0.6l0,0
		c-4.6-2-9.4-3.6-14.4-4.7v0l-1.4-0.3l-1.4-0.3l0,0c-4.9-1-10-1.5-15-1.6v0H120h-1.4v0c-5,0.1-10.1,0.6-15,1.6l0,0l-1.4,0.3l0,0
		l-1.4,0.3v0c-4.9,1.1-9.7,2.7-14.4,4.7l0,0l-1.3,0.6l-1.3,0.6l0,0c-4.6,2.1-8.9,4.7-13.1,7.6l0,0L69.5,51c0,0,0,0,0,0l-1.1,0.8l0,0
		c-4,3-7.8,6.4-11.2,10.1l0,0l-1,1.1l-1,1.1h0C52,67.9,49,72,46.5,76.3h0l-0.7,1.2L45,78.8l0,0c-2.4,4.4-4.5,9-6.1,13.8l0,0
		l-0.4,1.4l0,0l-0.4,1.4l0,0c-1.4,4.8-2.5,9.7-3,14.7h0l-0.2,1.4l-0.1,1.4h0c-0.2,2.4-0.3,4.8-0.3,7.1c0,2.6,0.1,5.3,0.4,7.9h0
		l0.2,1.4l0.2,1.4h0c0.6,5,1.7,9.9,3.2,14.7h0l0.4,1.4c0,0,0,0,0,0l0.4,1.4l0,0c1.6,4.7,3.7,9.3,6.2,13.7l0,0l0.7,1.2l0,0l0.7,1.2
		l0,0c2.6,4.3,5.6,8.3,8.8,12.1l0,0l1,1.1v0l1,1h0c3.4,3.6,7.2,7,11.1,10v0l1.2,0.8c0,0,0,0,0,0l1.2,0.8h0c4.1,2.9,8.4,5.4,12.9,7.5
		v0l1.3,0.6l1.3,0.6v0c4.6,2,9.4,3.5,14.2,4.6l0,0l1.4,0.3c0,0,0,0,0,0l1.4,0.3h0c4.9,0.9,9.9,1.4,14.9,1.5v0h1.4h1.4v0
		c5-0.1,10-0.6,14.9-1.5l0,0l1.4-0.3l1.4-0.3l0,0c4.9-1.1,9.6-2.7,14.2-4.6l0,0l1.3-0.6l1.3-0.6l0,0c4.5-2.1,8.9-4.6,13-7.4h0
		l1.2-0.8l1.2-0.8l0,0c4-3,7.8-6.3,11.1-10h0l1-1v0l1-1.1l0,0c3.3-3.7,6.3-7.8,8.9-12.1l0,0l0.7-1.2c0,0,0,0,0,0l0.7-1.2l0,0
		c2.4-4.3,4.5-8.9,6.2-13.7l0,0l0.4-1.4l0,0l0.4-1.4h0c1.5-4.8,2.6-9.7,3.2-14.7h0l0.2-1.4l0.2-1.4h0
		C205.4,125.3,205.5,122.6,205.5,120z M168.7,164.3L168.7,164.3c-3.1,3.4-6.5,6.5-10.2,9.1c-3.7,2.7-7.7,5-11.9,6.8
		c-4.2,1.8-8.6,3.3-13,4.2h0c-4.5,0.9-9,1.4-13.6,1.4c-4.6,0-9.2-0.5-13.6-1.4c-4.5-0.9-8.8-2.4-13-4.2c-4.2-1.8-8.2-4.1-11.9-6.8
		l0,0c-3.7-2.7-7.2-5.8-10.2-9.1h0c-3.1-3.4-5.8-7.1-8.1-11l0,0c-2.3-4-4.2-8.2-5.7-12.5v0c-1.4-4.3-2.4-8.8-2.9-13.4h0
		c-0.2-2.4-0.4-4.9-0.4-7.3c0-2.1,0.1-4.3,0.3-6.5c0.4-4.6,1.4-9.1,2.8-13.5v0c1.4-4.4,3.2-8.6,5.5-12.6l0,0c2.3-4,5-7.8,8.1-11.2
		c3.1-3.4,6.5-6.6,10.2-9.3c3.7-2.7,7.8-5.1,11.9-7h0c4.2-1.9,8.6-3.3,13.1-4.3l0,0c4.5-1,9.1-1.4,13.8-1.4c4.6,0,9.2,0.5,13.8,1.4
		c4.5,1,9,2.4,13.1,4.3c4.2,1.9,8.2,4.2,11.9,7h0c3.7,2.7,7.2,5.9,10.2,9.3v0c3.1,3.4,5.8,7.2,8.1,11.2c2.3,4,4.2,8.2,5.6,12.6v0
		c1.4,4.4,2.3,8.9,2.8,13.5l0,0c0.2,2.2,0.3,4.3,0.3,6.5c0,2.4-0.1,4.8-0.4,7.3l0,0c-0.5,4.6-1.5,9.1-2.9,13.4
		c-1.4,4.3-3.3,8.6-5.7,12.5C174.5,157.2,171.8,160.9,168.7,164.3z M202.7,120c0,2.5-0.1,5.1-0.3,7.6l-13.9-1.4
		c0.2-2.1,0.3-4.1,0.3-6.2c0-1.8-0.1-3.6-0.2-5.4l8.6-0.9l5.3-0.6C202.6,115.5,202.7,117.7,202.7,120z M198.3,93.5l-9.6,3.1
		l-3.8,1.2c-1.2-3.6-2.8-7.2-4.6-10.6l8.9-5.2l3.2-1.8C194.8,84.4,196.7,88.9,198.3,93.5z M180.7,63.9l-8.6,7.8l-1.7,1.6
		c-2.6-2.8-5.5-5.4-8.6-7.8l8.2-11.3C173.8,57.1,177.4,60.3,180.7,63.9z M149.5,50.6l-2.7,6.2c-3.6-1.5-7.2-2.7-11-3.6l2.9-13.7
		c4.7,1.1,9.3,2.6,13.8,4.5L149.5,50.6z M118.6,37.4v14c-3.9,0.1-7.7,0.5-11.5,1.2l-2.1-9.6l-0.9-4.1
		C108.9,38,113.7,37.4,118.6,37.4z M84.9,45.1l1.5,3.3l4.2,9.5c-3.5,1.6-6.8,3.6-10,5.8l-8.2-11.3C76.4,49.6,80.6,47.2,84.9,45.1z
		 M57.4,66l10.4,9.4c-2.5,2.9-4.8,6.1-6.8,9.4l-12.1-7C51.4,73.6,54.3,69.7,57.4,66z M37.9,110.3c0.6-4.8,1.5-9.5,2.9-14.1l13.3,4.3
		c-1.1,3.7-1.9,7.5-2.3,11.3l-3.1-0.3L37.9,110.3z M41.1,144.5c-1.4-4.6-2.4-9.3-3-14.1l13.9-1.4c0.5,3.8,1.3,7.6,2.4,11.2l-0.2,0.1
		L41.1,144.5z M49.3,162.9l12.1-7c2,3.3,4.3,6.4,6.8,9.2l-10.4,9.4C54.7,170.9,51.8,167,49.3,162.9z M72.8,187.9l3.3-4.6l4.9-6.7
		c3.2,2.2,6.5,4.1,9.9,5.7l-0.6,1.5l-5,11.3C80.9,193,76.7,190.6,72.8,187.9z M104.3,201.2l0.5-2.3l2.4-11.3
		c3.7,0.7,7.5,1.1,11.3,1.2v14C113.8,202.6,109,202.1,104.3,201.2z M152.2,196.2c-4.4,1.9-9,3.4-13.6,4.4l-2.9-13.7
		c3.7-0.9,7.4-2,10.9-3.5l2,4.5L152.2,196.2z M169.6,186.2l-6.6-9.1l-1.6-2.2c3-2.3,5.9-4.8,8.5-7.6l10.4,9.4
		C177,180.1,173.4,183.3,169.6,186.2z M192.1,160.4l-12.1-7c1.9-3.4,3.4-6.8,4.7-10.5l13.3,4.3C196.5,151.8,194.5,156.2,192.1,160.4
		z"/>
	<path fill="#D4D3D3" d="M143.3,104.5c2.2-2.2,2.2-5.7,0-7.8c-2.2-2.2-5.7-2.2-7.8,0c-1.5,1.5-2,3.7-1.3,5.7
		c-3.7,2.4-8.7,6.6-14.1,11.8c-5.4-5.2-10.5-9.4-14.1-11.8c0.6-1.9,0.2-4.1-1.3-5.7c-2.2-2.2-5.7-2.2-7.8,0c-2.2,2.2-2.2,5.7,0,7.8
		c1.5,1.5,3.7,2,5.6,1.3c2.4,3.7,6.6,8.7,11.8,14.1c-5.2,5.4-9.4,10.5-11.8,14.2c-1.9-0.6-4.1-0.2-5.6,1.3c-2.2,2.2-2.2,5.7,0,7.8
		c2.2,2.2,5.7,2.2,7.8,0c1.5-1.5,2-3.7,1.3-5.6c3.7-2.5,8.7-6.6,14.1-11.8c5.4,5.2,10.5,9.4,14.1,11.8c-0.6,1.9-0.2,4.1,1.3,5.6
		c2.2,2.2,5.7,2.2,7.8,0c2.2-2.2,2.2-5.7,0-7.8c-1.5-1.5-3.7-2-5.6-1.3c-2.4-3.7-6.6-8.7-11.8-14.2c5.2-5.4,9.4-10.5,11.8-14.1
		C139.6,106.5,141.8,106.1,143.3,104.5z"/>
</g>
</svg>
