<?xml version="1.0" encoding="utf-8"?>
<!-- Generator: Adobe Illustrator 17.1.0, SVG Export Plug-In . SVG Version: 6.00 Build 0)  -->
<!DOCTYPE svg PUBLIC "-//W3C//DTD SVG 1.1//EN" "http://www.w3.org/Graphics/SVG/1.1/DTD/svg11.dtd">
<svg version="1.1" xmlns="http://www.w3.org/2000/svg" xmlns:xlink="http://www.w3.org/1999/xlink" x="0px" y="0px"
	 viewBox="0 0 800 660" enable-background="new 0 0 800 660" xml:space="preserve">
<g id="Layer_2">
		<radialGradient id="light_1_" cx="399.9813" cy="329.9318" r="395.506" gradientTransform="matrix(0.9639 0 0 0.88 14.4759 39.66)" gradientUnits="userSpaceOnUse">
		<stop  offset="0.5" style="stop-color:#FFFFFF"/>
		<stop  offset="1" style="stop-color:#D9D9D9"/>
	</radialGradient>
	<rect id="light" fill="url(#light_1_)" width="800" height="660"/>
</g>

<g id="devs">
	<g id="playn-go">
		<path id="XMLID_222_" fill="#007CBB" d="M665.7,377.2h-554c-13.7,0-20.6-6.9-23.4-14.9c-1.7-4.9-1.7-10.3-0.3-15.3l10.2-37
			c2.9-9.9,11.4-26.5,32.4-26.5c0,0,417.8,0,557,0c19.3,0,27.7,13.2,24.6,28c-2.2,10.7-11,39.1-11,39.1
			C697.9,366.4,684.7,377.2,665.7,377.2z"/>
		<path id="XMLID_223_" d="M586.8,416.2c-36.9,0-110.6,0-147.5,0c-22.2,0-43.6-20.4-40.6-42.4c3.2-23.5,16.4-60.3,23.8-82.9
			c8.8-26.9,35.2-46.6,57.4-46.7c38.2-0.2,114.6-0.9,152.8,0c32.1,0.8,45.7,30.4,39.2,51.4c-7,22.7-18.4,58.6-25.3,79.4
			C640.2,394.5,609,416.2,586.8,416.2z"/>
		<path fill="#DD2027" d="M635.2,257.1c0,0-24.3,0.1-33.2,0c-24.1-0.3-44.3,16.2-50.4,35.2l-17,53.8c-18.9,46.7,5.2,54.5,21.9,54.5
			c10.1,0,19.9,0,27.8,0c20.5,0,43-14.9,49-33.8l23.1-73.6C662.7,276.1,652.5,257.1,635.2,257.1z M597.9,365.5h-32.3l22.4-71.4h32.3
			L597.9,365.5z M485.3,312.1h50.2l-15.5,53.6c-6,19-23.9,34.9-49,34.9c-7.8,0-17.7,0-27.8,0c-15.2,0-43.2-4.6-21.9-54.5l17-53.8
			c4.3-15,24.1-33.4,48.2-33.1c8.8,0.1,64.2,0,64.2,0l-9.8,34l-0.3,1.1h-66.6l-5.7,17.8L457,347.7h0l-0.8,2.7l0,0l-4.8,15.2h34.8
			l5.8-18.1h-17.8L485.3,312.1z M540.7,294.3 M541.6,294.3"/>
		<path fill="#FFFFFF" d="M369.6,356l7.4-25.7l-13.5-0.1L356,356l-15.1,0.1l8.2-26.8c2.4-7,9.7-13.7,19.5-13.5c3.6,0,14,0,14,0
			c7.8,0,11.7,6.5,10,14.1l-8.1,26.2L369.6,356z M357.3,300.3h-19.5l-6,17.1h19.7L357.3,300.3z M305.7,327.4h-13.1l8.9-28.6h-15.1
			l-9.1,29.6c-1.7,7.6,2.1,14.1,10,14.1c0,0,0,0,0.1,0l-4.2,13.5h14.7l4.3-13.5c9.3-0.3,16.2-6.7,18.6-13.5l9.5-30.1h-14.7
			L305.7,327.4z M276.4,313L262,356h-14.5l4-14l-13.3-0.1l-4.6,14.1h-14.9l14.3-43.6c2.4-7,9.7-13.7,19.5-13.5c3.6,0,14,0,14,0
			C274.3,298.9,278.2,305.4,276.4,313z M261,313.3H247l-4.8,14.1h14.1L261,313.3z M187.5,298.9L169.3,356h43.6l9.3-28.6h-14.7
			l-4.4,14.2l-13.6,0l13.2-42.7H187.5z M177.4,313.3c0,0-3.4,10.9-5,15.3c-5.4,14-19.1,13.4-19.1,13.4l-13.3-0.1l-4.6,14.1h-14.9
			l18.4-57.1h28.3C175,298.9,180,304.7,177.4,313.3z M162.8,313.3h-13.9l-4.8,14.1h14.1L162.8,313.3z"/>
	</g>
</g>
</svg>
