<?xml version="1.0" encoding="utf-8"?>
<!-- Generator: Adobe Illustrator 17.1.0, SVG Export Plug-In . SVG Version: 6.00 Build 0)  -->
<!DOCTYPE svg PUBLIC "-//W3C//DTD SVG 1.1//EN" "http://www.w3.org/Graphics/SVG/1.1/DTD/svg11.dtd">
<svg version="1.1" xmlns="http://www.w3.org/2000/svg" xmlns:xlink="http://www.w3.org/1999/xlink" x="0px" y="0px"
	 viewBox="0 0 800 660" enable-background="new 0 0 800 660" xml:space="preserve">
<g id="Layer_2">
	
		<radialGradient id="dark_1_" cx="399.9813" cy="329.9318" r="395.506" gradientTransform="matrix(0.9639 0 0 0.88 14.4759 39.66)" gradientUnits="userSpaceOnUse">
		<stop  offset="0.5" style="stop-color:#262626"/>
		<stop  offset="1" style="stop-color:#1A1A1A"/>
	</radialGradient>
	<rect id="dark" fill="url(#dark_1_)" width="800" height="660"/>
</g>
<g id="devs">
	<g id="rabcat">
		<g id="cat">
			<path id="XMLID_441_" fill="#FAD307" d="M235.8,76.9c26.9,27.8,53.7,55.7,80.7,83.4c52.9-20.4,113.6-20.5,166.4,0
				c27.1-27.6,53.6-55.6,80.6-83.3c0.2,62.1,0,124.2,0.1,186.3c0.3,9.9-5.5,18.4-10.6,26.4c-17.8,26-39.8,48.7-60,72.7
				c-11.6,14-21.5,30-36.9,40.3c-16.4,11.4-37,14.1-56.4,14c-19,0.1-38.9-2.6-55.1-13.3c-15.9-10.4-26.3-26.7-38.2-41.2
				c-18.6-22.3-38.9-43.2-55.9-66.8c-6.9-10.3-15.3-21.1-14.8-34.2C235.8,199.8,235.6,138.3,235.8,76.9L235.8,76.9z"/>
			<path id="XMLID_435_" fill="#191719" d="M283.9,254.3c28.7,21.3,56.6,43.7,84.5,66.1c-14.2-3.5-28.2-7.6-42.4-11.2
				c-5.2-1.6-11.7-2.1-14.2-7.8C302.6,285.6,292.6,270.3,283.9,254.3L283.9,254.3z"/>
			<path id="XMLID_434_" fill="#191719" d="M430.8,320.3c27.9-22.2,55.8-44.4,84.4-65.8c-7.6,14.9-17.1,28.7-25.4,43.3
				c-2.3,3.5-4.1,8.3-8.8,9.1C464.4,311.6,447.6,316.1,430.8,320.3L430.8,320.3z"/>
		</g>
		<path fill="#FAD307" d="M429.5,462.3l30.2,0v19h-19.9c-7.7,5.1-14.5,25.9,0,37h19.9v17.8l-31.1,0c0,0-17.4-10.4-17.4-34.1
			C411.2,473.1,429.5,462.3,429.5,462.3z M513.6,462.3V484l14.7,0l0.2,52.1h20.5l0.4-52l14.9-0.1v-21.7H513.6L513.6,462.3z
			 M291.2,536.1h-21.7l-12.6-23.3v23.3h-21.2l0.1-73.5h32.9c9.9,3,21,14.2,21,24.5c0,9.5-5.4,14.8-10.2,21.9
			C283,517.6,291.2,536.1,291.2,536.1z M268,490.8c0-6-11.1-10.6-11.1-10.6v20.6C256.9,500.8,268,496.1,268,490.8z M525.5,536.1H504
			l-2.9-11.4h-18l-3,11.4h-19.6l22-73.8h18L525.5,536.1z M487.7,507.2c3.3,0,9.8,0,9.8,0l-4.8-15.2L487.7,507.2
			C487.7,507.2,487.7,507.2,487.7,507.2L487.7,507.2L487.7,507.2z M356.9,536.1h-21.6l-2.9-11.4h-18l-3,11.4h-19.6l22-73.8h18
			L356.9,536.1z M319,507.2c3.3,0,9.8,0,9.8,0l-4.8-15.2L319,507.2C319,507.2,319,507.2,319,507.2L319,507.2L319,507.2z
			 M410.1,516.7c-0.4,8.7-17.2,19.3-17.2,19.3h-32.5l0.1-73.8h33.1c0,0,12.7,7.9,14.4,20.9c0.9,6.6-4.4,12.2-7.5,17.8
			C404.2,505.8,410.4,510.4,410.1,516.7z M387.8,513.7c0-2.8-8.1-7.8-8.1-7.8V521C379.6,521,387.7,516.4,387.8,513.7z M387.8,487
			c0-2.8-8.1-7.4-8.1-7.4v15C379.6,494.6,387.8,489.8,387.8,487z"/>
	</g>
</g>
</svg>
