<?xml version="1.0" encoding="utf-8"?>
<!-- Generator: Adobe Illustrator 17.1.0, SVG Export Plug-In . SVG Version: 6.00 Build 0)  -->
<!DOCTYPE svg PUBLIC "-//W3C//DTD SVG 1.1//EN" "http://www.w3.org/Graphics/SVG/1.1/DTD/svg11.dtd">
<svg version="1.1" id="Layer_1" xmlns="http://www.w3.org/2000/svg" xmlns:xlink="http://www.w3.org/1999/xlink" x="0px" y="0px"
	 viewBox="0 21 240 198" enable-background="new 0 21 240 198" xml:space="preserve">
<path id="rtg_1_" fill="none" stroke="#1E2123" stroke-width="1.5" stroke-miterlimit="10" d="M31.3,175.7c-1.3,0-12.2,0-12.2,0
	l-0.8,5.7h-6.8l1.7-22.9h20.9c1.1,0,2.2,0.1,3,0.2c0.9,0.1,2.4,0.7,2.9,1.1c0.7,0.6,0.9,1.6,0.9,2.3c0.1,1.8-0.2,5.6-0.6,7.4
	c-0.2,1.2-1,2.7-3.9,3c0.8,0.2,1.7,0.5,2.2,0.9c1,0.6,1.1,1.5,1.1,2.5c0,0.5-0.4,5-0.5,5.7h-7C32.4,181.4,33.5,175.7,31.3,175.7z
	 M34,165.9c0.1-0.9-0.4-1.3-0.9-1.3H19.7l-0.4,5.1h13.4c0.3,0,0.2,0,0.4-0.2C33.8,168.9,33.7,167.7,34,165.9z M43.8,158.5h25.3
	l-0.4,5.7H50.3l0,2.8h17.1l-0.3,5.2H49.9l-0.6,3.6h18.3l-0.4,5.7H42.1L43.8,158.5z M204.8,158.5h25.3l-0.4,5.7h-18.5l0,2.8h17.1
	l-0.3,5.2h-17.1l-0.6,3.6h18.3l-0.4,5.7h-25.1L204.8,158.5z M78.2,177.7l-2.6,3.8h-8.3l14.1-22.9h10.9l10,22.9h-8.1l-1.7-3.8H78.2z
	 M90.4,172.6l-3.2-8.4h-1.7l-5,8.4H90.4z M104.6,158.5h7.5l-1.4,17h15.9l-0.4,5.9h-23.8L104.6,158.5z M132.8,164.4h-9.9l0.4-5.9
	h27.3l-0.4,5.9h-9.9l-1.4,17h-7.5L132.8,164.4z M153,158.5h7.5l-2.1,22.9H151L153,158.5z M193.4,164.7l-9.7,16.7H178l-7.3-16.7h-1.1
	l-1.3,16.7h-6.8l1.7-22.9h12.7l5.5,14.5l7.9-14.5H202l-2.1,22.9h-7l1.5-16.7H193.4z M53,201.5l-2.5,3.9h-2.9L59,187.9h3.9l8.4,17.5
	h-2.9l-1.6-3.9C66.8,201.5,53,201.5,53,201.5z M60.3,190.1l-6.2,9.5h11.8l-4.5-9.5H60.3z M114.9,188h4.7l-1.6,17.3h-2.4l1.4-15.2
	h-0.7l-11.1,15.2h-1.8l-8.6-15.2H94l-1.4,15.2h-2.5l1.6-17.3h4.8l8,14.4L114.9,188z M143.9,187.6l-1.8,17.7h-2.3l1.8-17.7H143.9z
	 M167.2,205.3h-2.7l1.4-17.3h3.8l14.1,15.2l1.5-15.2h2.5l-1.6,17.3h-4l-13.9-15.3L167.2,205.3z M31.1,193.1c0.2-4-0.7-5.2-5.6-5.2
	h-9.4c-2.5,0-5.6,1-5.7,5.6l-0.6,6.5c-0.3,5.1,2.6,5.4,5.1,5.4h8.1c6.7,0,7.6-1.7,7.9-6.7c0-0.5,0-2,0-2l-11.2-0.1l-0.1,1.9h9
	c0,0-0.1,1.6-0.2,2.2c-0.3,2.2-2.2,2.3-4.8,2.4h-8.3c-0.9,0-2-0.1-2.5-0.6c-0.4-0.4-0.6-1.3-0.5-2.6l0.4-5.8c0-1.8,0.5-4.1,3.5-4.1
	h8.6c2.1,0,4.1-0.1,4.2,1.8c0,0.7,0,1.4,0,1.4l2.1,0.1C31.1,193.4,31.1,193.1,31.1,193.1z M226.9,193.1c0.2-4-0.7-5.2-5.6-5.2h-9.4
	c-2.5,0-5.6,1-5.7,5.6l-0.6,6.5c-0.3,5.1,2.6,5.4,5.1,5.4h8.1c6.7,0,7.6-1.7,7.9-6.7c0-0.5,0-2,0-2l-11.2-0.1l-0.1,1.9h9
	c0,0-0.1,1.6-0.2,2.2c-0.3,2.2-2.2,2.3-4.8,2.4h-8.3c-0.9,0-2-0.1-2.5-0.6c-0.4-0.4-0.6-1.3-0.5-2.6l0.4-5.8c0-1.8,0.5-4.1,3.5-4.1
	h8.6c2.1,0,4.1-0.1,4.2,1.8c0,0.7,0,1.4,0,1.4l2.1,0.1V193.1z M227.7,185.4H11.1l0.2-1.3h216.6L227.7,185.4z M160.6,52.6l-6.9,79.7
	c0,2.7-2.2,4.9-4.9,4.9H98.7c-2.5,0-4.5-1.8-4.9-4.3c0.3,0,0.5,0.1,0.8,0.1h50.1c2.7,0,4.9-2.2,4.9-4.9l6.9-79.7c0-0.2,0-0.5,0-0.7
	C158.8,48.2,160.6,50.2,160.6,52.6z M150,41.5c0,0.2,0,0.4,0,0.7l-6.9,79.7c0,2.7-2.2,4.9-4.9,4.9H88.2c-0.3,0-0.6,0-0.8-0.1
	c0.3,2.4,2.4,4.3,4.9,4.3h50.1c2.7,0,4.9-2.2,4.9-4.9l6.9-79.7C154.1,43.9,152.3,41.9,150,41.5z M123.7,94.3
	c-10,13.4-11.8,22.9-13.4,29.9h25.5c2.7,0,5-2.3,5-5l3.5-40.2C137.7,80.8,128.4,87.9,123.7,94.3z M97.3,69.9
	c8.4-6.1,18.5-26.1,19.5-37.2L91.6,33c-2.7,0-5,2.3-5,5L83,77.8C89.8,75.9,95.1,71.5,97.3,69.9z M129.9,67.8
	c2.8,2.7,8.6,8.9,14.4,10.2l3.5-40.6c0-2.7-2.3-5-5-5l-24.7,0.3C118.5,45.4,122.5,60.6,129.9,67.8z M97.4,89.3
	C94.3,85.8,89.1,81.7,83,79l-3.5,40.2c0,2.7,2.3,5,5,5h24.6C108.5,116,106,98.7,97.4,89.3z"/>
<g id="rtg">
	<g id="word_2_">
		<path id="realtime" fill="#FFFFFF" d="M31.3,175.7c-1.3,0-12.2,0-12.2,0l-0.8,5.7h-6.8l1.7-22.9h20.9c1.1,0,2.2,0.1,3,0.2
			c0.9,0.1,2.4,0.7,2.9,1.1c0.7,0.6,0.9,1.6,0.9,2.3c0.1,1.8-0.2,5.6-0.6,7.4c-0.2,1.2-1,2.7-3.9,3c0.8,0.2,1.7,0.5,2.2,0.9
			c1,0.6,1.1,1.5,1.1,2.5c0,0.5-0.4,5-0.5,5.7h-7C32.4,181.4,33.5,175.7,31.3,175.7z M34,165.9c0.1-0.9-0.4-1.3-0.9-1.3H19.7
			l-0.4,5.1h13.4c0.3,0,0.2,0,0.4-0.2C33.8,168.9,33.7,167.7,34,165.9z M43.8,158.5h25.3l-0.4,5.7H50.3l0,2.8h17.1l-0.3,5.2H49.9
			l-0.6,3.6h18.3l-0.4,5.7H42.1L43.8,158.5z M204.8,158.5h25.3l-0.4,5.7h-18.5l0,2.8h17.1l-0.3,5.2h-17.1l-0.6,3.6h18.3l-0.4,5.7
			h-25.1L204.8,158.5z M78.2,177.7l-2.6,3.8h-8.3l14.1-22.9h10.9l10,22.9h-8.1l-1.7-3.8H78.2z M90.4,172.6l-3.2-8.4h-1.7l-5,8.4
			H90.4z M104.6,158.5h7.5l-1.4,17h15.9l-0.4,5.9h-23.8L104.6,158.5z M132.8,164.4h-9.9l0.4-5.9h27.3l-0.4,5.9h-9.9l-1.4,17h-7.5
			L132.8,164.4z M153,158.5h7.5l-2.1,22.9H151L153,158.5z M193.4,164.7l-9.7,16.7H178l-7.3-16.7h-1.1l-1.3,16.7h-6.8l1.7-22.9h12.7
			l5.5,14.5l7.9-14.5H202l-2.1,22.9h-7l1.5-16.7H193.4z"/>
		<path id="gaming_1_" fill="#FFFFFF" d="M53,201.5l-2.5,3.9h-2.9L59,187.9h3.9l8.4,17.5h-2.9l-1.6-3.9
			C66.8,201.5,53,201.5,53,201.5z M60.3,190.1l-6.2,9.5h11.8l-4.5-9.5H60.3z M114.9,188h4.7l-1.6,17.3h-2.4l1.4-15.2h-0.7
			l-11.1,15.2h-1.8l-8.6-15.2H94l-1.4,15.2h-2.5l1.6-17.3h4.8l8,14.4L114.9,188z M143.9,187.6l-1.8,17.7h-2.3l1.8-17.7H143.9z
			 M167.2,205.3h-2.7l1.4-17.3h3.8l14.1,15.2l1.5-15.2h2.5l-1.6,17.3h-4l-13.9-15.3L167.2,205.3z M31.1,193.1c0.2-4-0.7-5.2-5.6-5.2
			h-9.4c-2.5,0-5.6,1-5.7,5.6l-0.6,6.5c-0.3,5.1,2.6,5.4,5.1,5.4h8.1c6.7,0,7.6-1.7,7.9-6.7c0-0.5,0-2,0-2l-11.2-0.1l-0.1,1.9h9
			c0,0-0.1,1.6-0.2,2.2c-0.3,2.2-2.2,2.3-4.8,2.4h-8.3c-0.9,0-2-0.1-2.5-0.6c-0.4-0.4-0.6-1.3-0.5-2.6l0.4-5.8
			c0-1.8,0.5-4.1,3.5-4.1h8.6c2.1,0,4.1-0.1,4.2,1.8c0,0.7,0,1.4,0,1.4l2.1,0.1C31.1,193.4,31.1,193.1,31.1,193.1z M226.9,193.1
			c0.2-4-0.7-5.2-5.6-5.2h-9.4c-2.5,0-5.6,1-5.7,5.6l-0.6,6.5c-0.3,5.1,2.6,5.4,5.1,5.4h8.1c6.7,0,7.6-1.7,7.9-6.7c0-0.5,0-2,0-2
			l-11.2-0.1l-0.1,1.9h9c0,0-0.1,1.6-0.2,2.2c-0.3,2.2-2.2,2.3-4.8,2.4h-8.3c-0.9,0-2-0.1-2.5-0.6c-0.4-0.4-0.6-1.3-0.5-2.6l0.4-5.8
			c0-1.8,0.5-4.1,3.5-4.1h8.6c2.1,0,4.1-0.1,4.2,1.8c0,0.7,0,1.4,0,1.4l2.1,0.1V193.1z"/>
		<polygon id="line" fill="#B62027" points="227.7,185.4 11.1,185.4 11.3,184.1 227.9,184.1 		"/>
	</g>
	<path fill="#B62027" d="M160.6,52.6l-6.9,79.7c0,2.7-2.2,4.9-4.9,4.9H98.7c-2.5,0-4.5-1.8-4.9-4.3c0.3,0,0.5,0.1,0.8,0.1h50.1
		c2.7,0,4.9-2.2,4.9-4.9l6.9-79.7c0-0.2,0-0.5,0-0.7C158.8,48.2,160.6,50.2,160.6,52.6z M150,41.5c0,0.2,0,0.4,0,0.7l-6.9,79.7
		c0,2.7-2.2,4.9-4.9,4.9H88.2c-0.3,0-0.6,0-0.8-0.1c0.3,2.4,2.4,4.3,4.9,4.3h50.1c2.7,0,4.9-2.2,4.9-4.9l6.9-79.7
		C154.1,43.9,152.3,41.9,150,41.5z M123.7,94.3c-10,13.4-11.8,22.9-13.4,29.9h25.5c2.7,0,5-2.3,5-5l3.5-40.2
		C137.7,80.8,128.4,87.9,123.7,94.3z M97.3,69.9c8.4-6.1,18.5-26.1,19.5-37.2L91.6,33c-2.7,0-5,2.3-5,5L83,77.8
		C89.8,75.9,95.1,71.5,97.3,69.9z M129.9,67.8c2.8,2.7,8.6,8.9,14.4,10.2l3.5-40.6c0-2.7-2.3-5-5-5l-24.7,0.3
		C118.5,45.4,122.5,60.6,129.9,67.8z M97.4,89.3C94.3,85.8,89.1,81.7,83,79l-3.5,40.2c0,2.7,2.3,5,5,5h24.6
		C108.5,116,106,98.7,97.4,89.3z"/>
</g>
</svg>
