<?xml version="1.0" encoding="utf-8"?>
<!-- Generator: Adobe Illustrator 17.1.0, SVG Export Plug-In . SVG Version: 6.00 Build 0)  -->
<!DOCTYPE svg PUBLIC "-//W3C//DTD SVG 1.1//EN" "http://www.w3.org/Graphics/SVG/1.1/DTD/svg11.dtd">
<svg version="1.1" id="Layer_1" xmlns="http://www.w3.org/2000/svg" xmlns:xlink="http://www.w3.org/1999/xlink" x="0px" y="0px"
	 viewBox="0 21 240 198" enable-background="new 0 21 240 198" xml:space="preserve">
<path id="skillonnet_2_" fill="none" stroke="#1E2123" stroke-width="1.5" stroke-miterlimit="10" d="M77.8,104.2
	c3.5-3.8,10-4,14.2-1.1c3.7,3.2,2.2,8.6,2.5,12.9c-2.6,0-5.2,0-7.8,0c0-3.3,0.4-9.8-1.1-9.8c-1.7,0-2,5.6-1.1,7.8
	c1.8,4.5,8,6.3,9.6,11c1.2,3.4,0.7,7.2,0.2,10.8c-0.5,3.8-4.9,5.2-8.2,5.3c-3.5,0.2-7.8-1-9.1-4.6c-0.9-3.6-0.4-7.3-0.5-11
	c2.5,0,5.1,0,7.6,0c0.2,3.3-0.8,10.5,1,10.5c1.9,0,2.2-5.3,1.4-7.8c-1.5-5.2-8.7-7.2-9.9-12.5C75.9,111.9,75.7,107.5,77.8,104.2
	L77.8,104.2z M96.7,102c0,13,0,25.9,0,38.9c2.3,0,4.5,0,6.8,0.1c0-5.6,0-11.2,0-16.8c0.9,5.6,1.8,11.1,2.7,16.7c2.4,0,4.8,0,7.2,0.1
	c-1-5.8-2.5-11.6-3.2-17.4c0.4-4.7,2.4-9.2,3.2-13.8c-2.4,0-4.7,0-7.1,0c-0.9,4.6-2,9.2-2.9,13.8c-0.1-7.2-0.1-14.4,0-21.6
	C101.2,102,99,102,96.7,102L96.7,102z M114.7,102.1c0,2,0,4,0,6c2.3,0,4.6,0,6.9,0c0-2,0-4.1,0-6.1C119.4,102,117.1,102,114.7,102.1
	L114.7,102.1z M123.4,102c0,13,0,26,0,39c2.3,0,4.6,0,6.9,0c0-13,0-26,0-39C128,102,125.7,102,123.4,102L123.4,102z M132.9,102
	c0,13,0,26,0,39c2.3,0,4.6,0,6.9,0c0-13,0-26,0-39C137.6,102,135.2,102,132.9,102L132.9,102z M159.4,134.1c-0.1,3.1-2.4,6-5.5,6.5
	c-3.6,0.6-8.1,0.6-10.7-2.4c-2-3.1-1.5-6.9-1.6-10.4c0.2-6.7-0.3-13.5,0.2-20.2c0.2-3.6,3.3-6.3,6.8-6.5c3.4-0.4,7.5,0,9.6,3.1
	c1.8,3.3,1.3,7.1,1.4,10.7C159.5,121.4,159.9,127.8,159.4,134.1z M151.8,107.3c0-1.8-2.4-1.8-2.4,0v-0.9c-0.2,9.4,0,18.9,0,28.3
	c0,2,2.4,2,2.4,0.1C151.7,125.4,151.8,116.8,151.8,107.3z M169.2,112.4c0,0,0-2,0-2.6c-2.3,0-4.6,0-6.9,0c0,10.4,0,20.8,0,31.2
	c2.3,0,4.6,0,7,0c0-8.6,0-17.2,0-25.7c0-1.4,2.2-1.4,2.2-0.3c0,8.6,0.2,17.4,0.2,26c2.3,0,4.6,0,6.9,0c-0.1-8.9-0.1-17.9-0.1-26.8
	c0-2.5-1.7-5.2-4.3-5.2C171.8,108.9,169.2,112.4,169.2,112.4z M114.7,109.8c0,10.4,0,20.8,0,31.2c2.3,0,4.6,0,6.9,0
	c0-10.4,0-20.8,0-31.2C119.4,109.8,117.1,109.8,114.7,109.8L114.7,109.8z M180.6,102l10.7,0.1l3.9,28.3v-28.3h5.7v38.8h-9.1
	l-5.1-30.7v30.7h-6.1V102L180.6,102z M221.8,103.8v6.1h-2v5.3h2c0,0,0.2,13.7,0.2,20.7c0,1.6-0.1,3.3,0.9,4.2
	c1.3,1.3,5.5,0.9,8.1,0.9c0-1.7-0.1-5.9-0.1-5.9h-1c-0.5,0-1-0.4-1-0.9c-0.2-6.7-0.1-19-0.1-19h2.1c0,0,0-3.6,0-5.3
	c-0.5,0-1.5,0-2,0c0-2.1,0-6.2,0-6.2L221.8,103.8L221.8,103.8z M219.2,128.8c0,0,0.6,8-2.5,10.5c-3.1,2.2-7.6,2.3-10.9,0.4
	c-2.3-1.3-2.6-4.1-2.7-6.5c-0.2-5.2-0.2-10.4-0.1-15.6c0.2-2.7,0.4-6.4,3.3-7.6c4.1-2.1,10.8-1.3,12.3,3.7
	c0.9,4.1,0.5,12.6,0.5,12.6l-9.3,0.1c0,0,0.1,5.9,0.1,8.6c0,0.9,2.2,1,2.2-0.2c0-1.6,0-5.8,0-5.8L219.2,128.8z M209.9,120.9
	c0,1.1,2.4,1.1,2.4,0c0-1.9,0-3.8,0-5.7c0-1.1-2.4-1-2.4,0C209.9,115.2,209.9,119.4,209.9,120.9z M40.5,88.6
	C57.9,88.6,72,102.6,72,120s-14.1,31.4-31.4,31.4S9.1,137.4,9.1,120S23.2,88.6,40.5,88.6z M60,122.3c-0.2,2-0.7,3.8-1.5,5.6l2.4,1.4
	l-2.1,3.7l-2.4-1.4c-1.1,1.6-2.5,3-4.1,4.2l1.4,2.4l-3.6,2.2l-1.4-2.4c-1.8,0.8-3.8,1.4-5.8,1.6v2.7h-4.2v-2.7
	c-1.9-0.2-3.7-0.7-5.4-1.4l-1.3,2.4l-3.7-2.1l1.3-2.4c-1.6-1.2-3.1-2.6-4.3-4.2l-2.4,1.4l-2.2-3.6l2.4-1.4c-0.8-1.8-1.4-3.8-1.6-5.8
	h-2.7V118h2.7c0.2-2,0.7-3.8,1.5-5.6l-2.4-1.4l2.1-3.7l2.4,1.4c1.1-1.6,2.5-3,4.1-4.2l-1.4-2.4l3.6-2.2l1.4,2.4
	c0.5-0.2,1.1-0.5,1.7-0.7v6.6c-4.2,2.2-7.1,6.7-7.1,11.8c0,7.4,6,13.3,13.3,13.3s13.3-6,13.3-13.3c0-5.2-3-9.7-7.3-11.9v-6.5
	c0.5,0.2,1.1,0.4,1.5,0.5l1.3-2.4l3.7,2.1l-1.3,2.4c1.6,1.2,3.1,2.6,4.3,4.2l2.4-1.4l2.2,3.6l-2.4,1.4c0.8,1.8,1.4,3.8,1.6,5.8h2.7
	v4.2C62.8,122.3,60,122.3,60,122.3z M44.2,94.2h-7V117h7V94.2z"/>
<g id="skillonnet_1_">
	<g id="words_1_">
		<path fill="#3C3C3B" d="M77.8,104.2c3.5-3.8,10-4,14.2-1.1c3.7,3.2,2.2,8.6,2.5,12.9c-2.6,0-5.2,0-7.8,0c0-3.3,0.4-9.8-1.1-9.8
			c-1.7,0-2,5.6-1.1,7.8c1.8,4.5,8,6.3,9.6,11c1.2,3.4,0.7,7.2,0.2,10.8c-0.5,3.8-4.9,5.2-8.2,5.3c-3.5,0.2-7.8-1-9.1-4.6
			c-0.9-3.6-0.4-7.3-0.5-11c2.5,0,5.1,0,7.6,0c0.2,3.3-0.8,10.5,1,10.5c1.9,0,2.2-5.3,1.4-7.8c-1.5-5.2-8.7-7.2-9.9-12.5
			C75.9,111.9,75.7,107.5,77.8,104.2L77.8,104.2z M96.7,102c0,13,0,25.9,0,38.9c2.3,0,4.5,0,6.8,0.1c0-5.6,0-11.2,0-16.8
			c0.9,5.6,1.8,11.1,2.7,16.7c2.4,0,4.8,0,7.2,0.1c-1-5.8-2.5-11.6-3.2-17.4c0.4-4.7,2.4-9.2,3.2-13.8c-2.4,0-4.7,0-7.1,0
			c-0.9,4.6-2,9.2-2.9,13.8c-0.1-7.2-0.1-14.4,0-21.6C101.2,102,99,102,96.7,102L96.7,102z M114.7,102.1c0,2,0,4,0,6
			c2.3,0,4.6,0,6.9,0c0-2,0-4.1,0-6.1C119.4,102,117.1,102,114.7,102.1L114.7,102.1z M123.4,102c0,13,0,26,0,39c2.3,0,4.6,0,6.9,0
			c0-13,0-26,0-39C128,102,125.7,102,123.4,102L123.4,102z M132.9,102c0,13,0,26,0,39c2.3,0,4.6,0,6.9,0c0-13,0-26,0-39
			C137.6,102,135.2,102,132.9,102L132.9,102z M159.4,134.1c-0.1,3.1-2.4,6-5.5,6.5c-3.6,0.6-8.1,0.6-10.7-2.4
			c-2-3.1-1.5-6.9-1.6-10.4c0.2-6.7-0.3-13.5,0.2-20.2c0.2-3.6,3.3-6.3,6.8-6.5c3.4-0.4,7.5,0,9.6,3.1c1.8,3.3,1.3,7.1,1.4,10.7
			C159.5,121.4,159.9,127.8,159.4,134.1z M151.8,107.3c0-1.8-2.4-1.8-2.4,0v-0.9c-0.2,9.4,0,18.9,0,28.3c0,2,2.4,2,2.4,0.1
			C151.7,125.4,151.8,116.8,151.8,107.3z M169.2,112.4c0,0,0-2,0-2.6c-2.3,0-4.6,0-6.9,0c0,10.4,0,20.8,0,31.2c2.3,0,4.6,0,7,0
			c0-8.6,0-17.2,0-25.7c0-1.4,2.2-1.4,2.2-0.3c0,8.6,0.2,17.4,0.2,26c2.3,0,4.6,0,6.9,0c-0.1-8.9-0.1-17.9-0.1-26.8
			c0-2.5-1.7-5.2-4.3-5.2C171.8,108.9,169.2,112.4,169.2,112.4z M114.7,109.8c0,10.4,0,20.8,0,31.2c2.3,0,4.6,0,6.9,0
			c0-10.4,0-20.8,0-31.2C119.4,109.8,117.1,109.8,114.7,109.8L114.7,109.8z"/>
		<path fill="#1B9DD9" d="M180.6,102l10.7,0.1l3.9,28.3v-28.3h5.7v38.8h-9.1l-5.1-30.7v30.7h-6.1V102L180.6,102z M221.8,103.8v6.1
			h-2v5.3h2c0,0,0.2,13.7,0.2,20.7c0,1.6-0.1,3.3,0.9,4.2c1.3,1.3,5.5,0.9,8.1,0.9c0-1.7-0.1-5.9-0.1-5.9h-1c-0.5,0-1-0.4-1-0.9
			c-0.2-6.7-0.1-19-0.1-19h2.1c0,0,0-3.6,0-5.3c-0.5,0-1.5,0-2,0c0-2.1,0-6.2,0-6.2L221.8,103.8L221.8,103.8z M219.2,128.8
			c0,0,0.6,8-2.5,10.5c-3.1,2.2-7.6,2.3-10.9,0.4c-2.3-1.3-2.6-4.1-2.7-6.5c-0.2-5.2-0.2-10.4-0.1-15.6c0.2-2.7,0.4-6.4,3.3-7.6
			c4.1-2.1,10.8-1.3,12.3,3.7c0.9,4.1,0.5,12.6,0.5,12.6l-9.3,0.1c0,0,0.1,5.9,0.1,8.6c0,0.9,2.2,1,2.2-0.2c0-1.6,0-5.8,0-5.8
			L219.2,128.8z M209.9,120.9c0,1.1,2.4,1.1,2.4,0c0-1.9,0-3.8,0-5.7c0-1.1-2.4-1-2.4,0C209.9,115.2,209.9,119.4,209.9,120.9z"/>
	</g>
	<circle id="XMLID_1_" fill="#1B9DD9" cx="40.5" cy="120" r="31.4"/>
	<path fill="#FFFFFF" d="M60,122.3c-0.2,2-0.7,3.8-1.5,5.6l2.4,1.4l-2.1,3.7l-2.4-1.4c-1.1,1.6-2.5,3-4.1,4.2l1.4,2.4l-3.6,2.2
		l-1.4-2.4c-1.8,0.8-3.8,1.4-5.8,1.6v2.7h-4.2v-2.7c-1.9-0.2-3.7-0.7-5.4-1.4l-1.3,2.4l-3.7-2.1l1.3-2.4c-1.6-1.2-3.1-2.6-4.3-4.2
		l-2.4,1.4l-2.2-3.6l2.4-1.4c-0.8-1.8-1.4-3.8-1.6-5.8h-2.7V118h2.7c0.2-2,0.7-3.8,1.5-5.6l-2.4-1.4l2.1-3.7l2.4,1.4
		c1.1-1.6,2.5-3,4.1-4.2l-1.4-2.4l3.6-2.2l1.4,2.4c0.5-0.2,1.1-0.5,1.7-0.7v6.6c-4.2,2.2-7.1,6.7-7.1,11.8c0,7.4,6,13.3,13.3,13.3
		s13.3-6,13.3-13.3c0-5.2-3-9.7-7.3-11.9v-6.5c0.5,0.2,1.1,0.4,1.5,0.5l1.3-2.4l3.7,2.1l-1.3,2.4c1.6,1.2,3.1,2.6,4.3,4.2l2.4-1.4
		l2.2,3.6l-2.4,1.4c0.8,1.8,1.4,3.8,1.6,5.8h2.7v4.2C62.8,122.3,60,122.3,60,122.3z M44.2,94.2h-7V117h7V94.2z"/>
</g>
</svg>
