<?xml version="1.0" encoding="utf-8"?>
<!-- Generator: Adobe Illustrator 19.0.0, SVG Export Plug-In . SVG Version: 6.00 Build 0)  -->
<svg version="1.1" id="videopoker" xmlns="http://www.w3.org/2000/svg" xmlns:xlink="http://www.w3.org/1999/xlink" x="0px" y="0px"
	 viewBox="-1319 781 240 240" style="enable-background:new -1319 781 240 240;" xml:space="preserve">
<style type="text/css">
	.st0{fill:#D4D3D3;}
</style>
<path class="st0" d="M-1079.6,916.6l-15.7-55.7c-2-7.1-8.6-11.8-15.6-11.8c-1.2,0-2.3,0.1-3.5,0.4l13.8,16c5.1,5.9,7.6,13.4,7,21.2
	c-0.6,7.8-4.2,14.9-10.1,20l-57.8,49.8l70.7-19.9C-1082.2,934.2-1077.2,925.2-1079.6,916.6z M-1090.2,925.6l-1.8-5.4l-3,0.6
	c0.3,0.2,0.5,0.4,0.7,0.7c0.2,0.3,0.4,0.7,0.6,1.1c0.5,1.3,0.4,2.5-0.1,3.5c-0.6,1-1.6,1.7-3.1,2.2c-1.3,0.4-2.5,0.4-3.7-0.1
	c-1.2-0.5-2-1.5-2.5-3.1c-0.4-1.3-0.5-2.6-0.1-3.8c0.4-1.2,1.2-2.4,2.4-2.4h0.1l1.2,3.1c-0.5,0.2-0.9,0.5-1.1,0.9
	c-0.2,0.4-0.2,0.9-0.1,1.4c0.2,0.6,0.5,0.9,1,1c0.5,0.1,1,0.1,1.7-0.2c0.8-0.3,1.3-0.6,1.6-1c0.3-0.4,0.4-0.9,0.2-1.5
	c-0.1-0.4-0.4-0.7-0.6-0.9c-0.3-0.2-0.6-0.3-0.9-0.3l-0.8-2.9l7.9-1.8l2.7,8L-1090.2,925.6z"/>
<path class="st0" d="M-1170.3,827.9l19.3,8.7c14.7,6.6,21.2,23.9,14.6,38.6l-31.4,69.6l55.7-47.9c6.8-5.8,7.5-16.1,1.7-22.9
	l-37.7-43.8c-3.2-3.7-7.7-5.6-12.3-5.6C-1163.9,824.5-1167.4,825.6-1170.3,827.9z M-1116.2,881.6L-1116.2,881.6l2.2,2.5l-6.6,5.8
	l1,1.1l-1.9,1.7l-1-1.1l-2.3,2l-2.2-2.5l2.3-2l-3.7-4.2l1.4-1.5L-1116.2,881.6z"/>
<polygon class="st0" points="-1119.5,884.5 -1119.5,884.4 -1120,884.5 -1124.7,885.3 -1122.8,887.4 "/>
<path class="st0" d="M-1209,831.7c0.1,0,0.2,0,0.4,0c15.9,0,29,12.9,29.2,28.8l1,76.3l30.2-66.9c3.7-8.1,0-17.8-8.1-21.5l-52.7-23.8
	c-2.1-1-4.4-1.4-6.6-1.4c-5.9,0-11.6,3.2-14.4,8.7L-1209,831.7z M-1156.6,863.3c-0.3,0.6-0.7,1.1-1.3,1.4c-0.6,0.3-1.3,0.5-2,0.5
	c0.6,0.6,1,1.2,1.1,1.9c0.2,0.7,0.1,1.4-0.2,2.2c-0.5,1.2-1.4,2-2.6,2.2c-1.2,0.3-2.6,0.1-4-0.5c-1.2-0.5-2.2-1.3-2.8-2.4
	c-0.6-1.1-0.7-2.2-0.1-3.4l0,0l3,1.3c-0.2,0.4-0.2,0.9,0,1.3c0.2,0.4,0.5,0.7,1,1c0.5,0.2,1,0.3,1.5,0.1c0.5-0.2,0.8-0.5,1-0.9
	c0.3-0.6,0.3-1.2,0.1-1.6c-0.2-0.4-0.6-0.8-1.2-1.1l-1.4-0.6l1-2.3l1.4,0.6c0.6,0.2,1,0.3,1.5,0.1c0.4-0.2,0.8-0.5,1-1
	c0.2-0.4,0.2-0.8,0.1-1.2c-0.1-0.4-0.5-0.7-1-0.9c-0.4-0.2-0.8-0.2-1.2-0.1c-0.4,0.1-0.7,0.3-0.8,0.7l-3-1.3l0-0.1
	c0.4-1.1,1.2-1.7,2.4-2c1.2-0.3,2.3-0.1,3.6,0.4c1.4,0.6,2.4,1.5,3,2.5C-1156.1,861-1156.1,862.1-1156.6,863.3z"/>
<path class="st0" d="M-1266.6,845.4c-8.6,0.1-15.6,7-16,15.5l19.1-9.2c4-1.9,8.2-2.9,12.6-2.9c11.2,0,21.5,6.5,26.4,16.5l33.1,68.7
	l-0.9-73.4c-0.1-8.9-7.4-16-16.2-16c-0.1,0-0.1,0-0.2,0L-1266.6,845.4z M-1202.4,858.8c0,0.9-0.2,1.7-0.6,2.4
	c-0.4,0.7-1.3,1.8-2.5,3.2l-1.9,2.2l0,0.1l5.6-0.3l0.1,2.6l-10.1,0.4l-0.1-2.2l4.4-5.1c0.6-0.7,1-1.3,1.2-1.9c0.3-0.5,0.4-1,0.4-1.4
	c0-0.6-0.2-1-0.5-1.3c-0.3-0.3-0.7-0.5-1.3-0.4c-0.5,0-0.9,0.3-1.2,0.7c-0.3,0.4-0.4,1-0.4,1.6l-3.3,0.1l0-0.1
	c-0.1-1.3,0.3-2.5,1.2-3.4c0.9-1,2-1.5,3.5-1.5c1.6-0.1,2.8,0.3,3.8,1C-1202.9,856.4-1202.4,857.4-1202.4,858.8z"/>
<path class="st0" d="M-1257.8,996.9l52.1-25.1c8-3.9,11.4-13.6,7.6-21.7l-38.2-79.2c-2.8-5.8-8.6-9.2-14.7-9.2c-2.4,0-4.7,0.5-7,1.6
	l-52.1,25.1c-8,3.9-11.4,13.6-7.6,21.7l38.1,79.2c2.8,5.8,8.6,9.2,14.7,9.2C-1262.4,998.5-1260,998-1257.8,996.9z M-1241,921.4
	l-6.3,29.1l-26.4-12.4l6.3-29.1L-1241,921.4z M-1240.9,883.9l-3.1,1.3l-1.9-2.3l-4.2,1.8l0.4,2.9l-3.1,1.3l-1.4-15.1l3.3-1.4
	L-1240.9,883.9z"/>
<polygon class="st0" points="-1251,876.8 -1250.3,882.1 -1247.5,880.9 -1250.9,876.7 "/>
</svg>
