<?xml version="1.0" encoding="utf-8"?>
<!-- Generator: Adobe Illustrator 19.0.0, SVG Export Plug-In . SVG Version: 6.00 Build 0)  -->
<svg version="1.1" xmlns="http://www.w3.org/2000/svg" xmlns:xlink="http://www.w3.org/1999/xlink" x="0px" y="0px"
	 viewBox="0 0 70 70" style="enable-background:new 0 0 70 70;" xml:space="preserve">
<style type="text/css">
	.st2{fill:#afd9ad;}
</style>
<g id="tabs-shadow">
	<path id="slot-machines_1_" d="M15.1,54l-5.6-6.6l5.6-6.6l5.6,6.6L15.1,54z M40.6,47.3L35,40.7l-5.6,6.6L35,54L40.6,47.3z
		 M60.5,47.3l-5.6-6.6l-5.6,6.6l5.6,6.6L60.5,47.3z M48.1,26.4h19.8V68H48.1h-6H28.2h-6h-20V26.4h20h6H42H48.1L48.1,26.4z M22,32.4
		H8.2V62H22V32.4z M42,32.4H28.1V62H42V32.4z M61.9,32.4H48V62h13.9V32.4z M29.2,18l5.9-3.1L41,18l-1.1-6.5l4.7-4.6L38,5.9L35.1,0
		l-2.9,5.9l-6.6,0.9l4.7,4.6L29.2,18z M47.8,17l-1.1,6.5l5.9-3.1l5.8,3.1L57.3,17l4.7-4.6l-6.5-0.9l-2.9-5.9l-2.9,5.9l-6.6,0.9
		L47.8,17z M11.8,23.5l5.9-3.1l5.8,3.1L22.4,17l4.7-4.6l-6.5-0.9l-2.9-5.9l-2.9,5.9l-6.6,0.9L13,17L11.8,23.5z"/>
</g>
<g id="tabs">
	<path id="slot-machines" class="st2" d="M15.1,55l-5.6-6.6l5.6-6.6l5.6,6.6L15.1,55z M40.6,48.3L35,41.7l-5.6,6.6L35,55L40.6,48.3z
		 M60.5,48.3l-5.6-6.6l-5.6,6.6l5.6,6.6L60.5,48.3z M48.1,27.4h19.8V69H48.1h-6H28.2h-6h-20V27.4h20h6H42H48.1L48.1,27.4z M22,33.4
		H8.2V63H22V33.4z M42,33.4H28.1V63H42V33.4z M61.9,33.4H48V63h13.9V33.4z M29.2,19l5.9-3.1L41,19l-1.1-6.5l4.7-4.6L38,6.9L35.1,1
		l-2.9,5.9l-6.6,0.9l4.7,4.6L29.2,19z M47.8,18l-1.1,6.5l5.9-3.1l5.8,3.1L57.3,18l4.7-4.6l-6.5-0.9l-2.9-5.9l-2.9,5.9l-6.6,0.9
		L47.8,18z M11.8,24.5l5.9-3.1l5.8,3.1L22.4,18l4.7-4.6l-6.5-0.9l-2.9-5.9l-2.9,5.9l-6.6,0.9L13,18L11.8,24.5z"/>
</g>
</svg>
