<?xml version="1.0" encoding="utf-8"?>
<!-- Generator: Adobe Illustrator 17.1.0, SVG Export Plug-In . SVG Version: 6.00 Build 0)  -->
<!DOCTYPE svg PUBLIC "-//W3C//DTD SVG 1.1//EN" "http://www.w3.org/Graphics/SVG/1.1/DTD/svg11.dtd">
<svg version="1.1" xmlns="http://www.w3.org/2000/svg" xmlns:xlink="http://www.w3.org/1999/xlink" x="0px" y="0px"
	 viewBox="0 0 800 660" enable-background="new 0 0 800 660" xml:space="preserve">
<g id="Layer_2">
	
		<radialGradient id="light_1_" cx="399.9813" cy="329.9318" r="395.506" gradientTransform="matrix(0.9639 0 0 0.88 14.4759 39.66)" gradientUnits="userSpaceOnUse">
		<stop  offset="0.5" style="stop-color:#FFFFFF"/>
		<stop  offset="1" style="stop-color:#D9D9D9"/>
	</radialGradient>
	<rect id="light" fill="url(#light_1_)" width="800" height="660"/>
</g>

<g id="devs">
	<path id="quickspin" fill="#F26922" d="M117.6,292c0-16,12.5-27.5,29.8-27.5h0.5c17.3,0,29.8,11.6,29.8,27.5c0,4.7-3.8,8.5-8.5,8.5
		s-8.5-3.8-8.5-8.5c0-7.2-6.4-10.5-12.8-10.5h-0.5c-6.3,0-12.8,3.2-12.8,10.5c0,4.7-3.8,8.5-8.5,8.5S117.6,296.7,117.6,292z
		 M177.8,353.3c0-4.7-3.8-8.5-8.5-8.5c-4.7,0-8.5,3.8-8.5,8.5c0,7.2-6.4,10.5-12.8,10.5h-0.5c-6.3,0-12.8-3.2-12.8-10.5
		c0-4.7-3.8-8.5-8.5-8.5c-4.7,0-8.5,3.8-8.5,8.5c0,16,12.5,27.5,29.8,27.5h0.5c2.3,0,4.5-0.2,6.6-0.6l7.5,14.7
		c1.5,2.9,6.1,3.5,10.3,1.4l0,0c4.2-2.1,6.4-6.2,4.9-9.1l-7.4-14.6C174.8,367.7,177.8,361.1,177.8,353.3z M134.6,344.9v-44.6
		c-2.2,2.2-5.2,3.5-8.5,3.5c-3.4,0-6.4-1.4-8.6-3.7v44.9c2.2-2.3,5.2-3.7,8.6-3.7C129.5,341.4,132.5,342.8,134.6,344.9z
		 M160.7,300.2v44.9c2.2-2.3,5.2-3.7,8.6-3.7c3.3,0,6.3,1.4,8.5,3.5v-44.6c-2.2,2.2-5.2,3.5-8.5,3.5
		C165.9,303.9,162.8,302.5,160.7,300.2z M309.9,300.5c4.7,0,8.5-3.8,8.5-8.5c0-7.2,6.4-10.5,12.8-10.5h0.5c6.3,0,12.8,3.2,12.8,10.5
		c0,4.7,3.8,8.5,8.5,8.5s8.5-3.8,8.5-8.5c0-16-12.5-27.5-29.8-27.5h-0.5c-17.3,0-29.8,11.6-29.8,27.5
		C301.4,296.7,305.2,300.5,309.9,300.5z M353,344.8c-4.7,0-8.5,3.8-8.5,8.5c0,7.2-6.4,10.5-12.8,10.5h-0.5
		c-6.3,0-12.8-3.2-12.8-10.5c0-4.7-3.8-8.5-8.5-8.5s-8.5,3.8-8.5,8.5c0,16,12.5,27.5,29.8,27.5h0.5c17.3,0,29.8-11.6,29.8-27.5
		C361.5,348.6,357.7,344.8,353,344.8z M318.4,344.9v-44.6c-2.2,2.2-5.2,3.5-8.5,3.5c-3.4,0-6.4-1.4-8.6-3.7v44.9
		c2.2-2.3,5.2-3.7,8.6-3.7C313.2,341.4,316.2,342.8,318.4,344.9z M450.9,300.5c4.7,0,8.5-3.8,8.5-8.5c0-7.2,6.4-10.5,12.8-10.5h0.5
		c6.3,0,12.8,3.2,12.8,10.5c0,4.7,3.8,8.5,8.5,8.5s8.5-3.8,8.5-8.5c0-16-12.5-27.5-29.8-27.5h-0.5c-17.3,0-29.8,11.6-29.8,27.5
		C442.3,296.7,446.2,300.5,450.9,300.5z M457.4,303.8c-2.9,1.8-6.3,2-9.5,1l33.8,46c0.5-3.4,2.2-6.4,5.1-8.2c2.8-1.8,6.2-2,9.3-1.1
		l-33.6-45.6C461.9,299.1,460.2,302,457.4,303.8z M493.9,344.8c-4.7,0-8.5,3.8-8.5,8.5c0,7.2-6.4,10.5-12.8,10.5h-0.5
		c-6.3,0-12.8-3.2-12.8-10.5c0-4.7-3.8-8.5-8.5-8.5s-8.5,3.8-8.5,8.5c0,16,12.5,27.5,29.8,27.5h0.5c17.3,0,29.8-11.6,29.8-27.5
		C502.5,348.6,498.6,344.8,493.9,344.8z M244.2,344.8c-4.7,0-8.5,3.8-8.5,8.5c0,7.2-6.4,10.5-12.8,10.5h-0.5
		c-6.3,0-12.8-3.2-12.8-10.5c0-4.7-3.8-8.5-8.5-8.5s-8.5,3.8-8.5,8.5c0,16,12.5,27.5,29.8,27.5h0.5c17.3,0,29.8-11.6,29.8-27.5
		C252.7,348.6,248.9,344.8,244.2,344.8z M244.2,264.4c-4.7,0-8.5,3.8-8.5,8.5v23.4v8.6v39.7c2.2-2.3,5.2-3.7,8.6-3.7
		c3.3,0,6.3,1.4,8.5,3.5V305v-8.5V273C252.7,268.3,248.9,264.4,244.2,264.4z M209.7,344.5V305v-8.5V273c0-4.7-3.8-8.5-8.5-8.5
		c-4.7,0-8.5,3.8-8.5,8.5v23.4v8.6v39.7c2.2-2.3,5.2-3.7,8.6-3.7C204.6,341,207.6,342.3,209.7,344.5z M285.7,305v-8.5V273
		c0-4.7-3.8-8.5-8.5-8.5s-8.5,3.8-8.5,8.5v23.4v8.6v36.3l0,0v31c0,4.7,3.8,8.5,8.5,8.5h0c4.7,0,8.5-3.8,8.5-8.5v-32l0,0V305z
		 M602.5,305v-8.5V273c0-4.7-3.8-8.5-8.5-8.5c-4.7,0-8.5,3.8-8.5,8.5v23.4v8.6v36.3l0,0v31c0,4.7,3.8,8.5,8.5,8.5h0
		c4.7,0,8.5-3.8,8.5-8.5v-32l0,0V305z M633.4,317.6l-3.4-7l-4.2-8.5l-9.4-19.1v13.4v8.6v36.3l0,0v31c0,4.7,3.8,8.5,8.5,8.5h0
		c4.7,0,8.5-3.8,8.5-8.5v-32l0,0V317.6z M665.5,336.3C665.5,336.3,665.5,336.3,665.5,336.3l-17.2-34.8l-4.1-8.3L632.7,270
		c-2.3-4.6-7.6-6.7-11.8-4.6c-4.2,2.1-5.8,7.6-3.5,12.2l11.4,23.1l4.2,8.5l17.7,35.7v0l15.1,30.6c2.3,4.6,7.6,6.7,11.8,4.6l0,0
		c4.2-2.1,5.8-7.6,3.5-12.2L665.5,336.3z M682.5,340.3V305v-8.5V273c0-4.7-3.8-8.5-8.5-8.5c-4.7,0-8.5,3.8-8.5,8.5v23.4v8.6v23.3
		l3.2,6.5l13.9,28.1L682.5,340.3L682.5,340.3z M387.9,311.5l-14.5,21.1c-2.2,3.2-0.8,8,3,10.6c3.9,2.7,8.8,2.2,11-0.9l15-21.7
		c0,0,0,0,0,0l16.5-23.9l4-5.7l11-16c2.2-3.2,0.8-8-3-10.6c-3.9-2.7-8.8-2.2-11,0.9l-11,15.9l-4,5.8L387.9,311.5L387.9,311.5z
		 M426,352C426,352,426,352,426,352l-11.1-21.6l-2.7-5.2l-3.8-7.4l-3.2,4.7l-7.8,11.3l2.3,4.4l11.4,22.3l0,0l9.7,19
		c1.5,2.9,6.1,3.5,10.3,1.4l0,0c4.2-2.1,6.4-6.2,4.9-9.1L426,352z M389.3,303.4V296v-23.6c0-4.7-3.8-8.5-8.5-8.5s-8.5,3.8-8.5,8.5
		v23.4v8.6v23.7l12.9-18.6L389.3,303.4z M374.5,346c-0.8-0.6-1.6-1.2-2.2-1.9v27.8c0,4.7,3.8,8.5,8.5,8.5h0c4.7,0,8.5-3.8,8.5-8.5
		v-26.5c-1.9,2-4.5,3.1-7.5,3.1C379.3,348.3,376.7,347.5,374.5,346z M551.8,263.7c0-0.1,0.1-0.1,0.1-0.2h-11.8h-7.5h-10.7
		c-4.1,0-7.5,3.3-7.5,8.8c0,5.5,3.4,8.8,7.5,8.8h10.6h7.6h9.7c6,0.4,8.7,8.8,8.7,15.9v0.6c0,7.2-2.7,16.6-8.7,17.1h-9.7h-7.5h-10.7
		c-4.1,0-7.5,3.3-7.5,8.8c0,5.5,3.4,8.8,7.5,8.8h10.6h7.6h11.9c0-0.1-0.1-0.1-0.1-0.2c12.7-1.7,21.6-15.7,21.6-34.5v-0.6
		C573.5,278.2,564.5,265.4,551.8,263.7z M531.6,335.8h-9.6c-3,0-5.5-1.1-7.4-3.1v8.6l0,0v31c0,4.7,3.8,8.5,8.5,8.5h0
		c4.7,0,8.5-3.8,8.5-8.5v-32l0,0V335.8z M531.6,311.3V305v-8.5v-12h-9.6c-3,0-5.5-1.1-7.4-3.1v14.9v8.6v9.4c1.9-1.9,4.5-3.1,7.4-3.1
		H531.6z"/>
</g>
</svg>
