<?xml version="1.0" encoding="utf-8"?>
<!-- Generator: Adobe Illustrator 17.1.0, SVG Export Plug-In . SVG Version: 6.00 Build 0)  -->
<!DOCTYPE svg PUBLIC "-//W3C//DTD SVG 1.1//EN" "http://www.w3.org/Graphics/SVG/1.1/DTD/svg11.dtd">
<svg version="1.1" id="Layer_1" xmlns="http://www.w3.org/2000/svg" xmlns:xlink="http://www.w3.org/1999/xlink" x="0px" y="0px"
	 viewBox="0 21 240 198" enable-background="new 0 21 240 198" xml:space="preserve">
<g id="devs">
	<path id="_x31_x2-gaming_2_" fill="none" stroke="#2E2123" stroke-width="1.5" stroke-miterlimit="10" d="M34.7,137.8l12.6-17.4
		l0,0l-12.8-18.2h8.4l8.9,12l0,0l8.8-12.1h2.3l13-17.6C69,80,60.8,77.4,52,77.4c-23.7,0-43,19.1-43,42.6c0,13.7,6.5,25.9,16.7,33.7
		l10.9-15.8H34.7z M32,135h-8.6c-0.1,0-0.2-0.1-0.2-0.2v-25.9c0-2.1-0.8-2.7-5-2.7c-0.1,0-0.2-0.1-0.2-0.2v-3c0-0.1,0.1-0.2,0.2-0.2
		h7.3c4.9,0,6.7,2.3,6.7,6.7c0,9.4,0,23.5,0,25.3C32.2,134.9,32.1,135,32,135z M79,86.9l-11.2,15.3H70l-12.6,17.4l12.6,18.2h-8.6
		l-8.8-11.7l-8.5,11.8h-2.4l-12.4,18.3c6.6,4.1,14.4,6.5,22.7,6.5c23.7,0,43-19.1,43-42.6C95,106.6,88.7,94.6,79,86.9z M90.1,135
		l-19.4,0.2c0-2.3-0.1-3.9,0-9.3c0-0.8,1-2.4,2-3.4c4-3.9,10.3-7.4,10.3-10v-3.1c0-1.5-0.4-2.9-2.3-2.9c-3.4,0-2.6,2.2-2.6,4.6
		c0,0,0,0.1-0.1,0.2l-7.1,5.2c-0.1,0.1-0.3,0-0.3-0.2c-0.1-2.7-0.4-5.8-0.1-7.5c0.7-3.8,4-6.2,10-6.2c6.7,0,9.2,2.6,9.5,4.4
		c0.5,2.5,0.5,5,0.1,6.8c-0.5,2.2-3.1,4.7-7.4,8.2c-2.5,2-4.2,3.9-4.3,4.7c0,1.1,0,3,0,3.6c0,0.1,0.1,0.2,0.2,0.2h11.3
		c0.1,0,0.2,0.1,0.2,0.2v4.2C90.3,134.9,90.2,135,90.1,135z M123.3,104.7v19.9c0,2.9-1,5.4-3.2,7.3c-2.1,1.9-4.8,2.9-8.2,2.9
		c-2.5,0-5-0.5-7.5-1.6v-5.7c2.5,1.4,4.8,2.1,6.9,2.1c1.6,0,2.8-0.4,3.8-1.3c1-0.8,1.5-1.9,1.5-3.3v-0.8c-1.6,1-3.2,1.6-4.8,1.6
		c-2.7,0-5-1-6.7-3c-1.7-2-2.6-4.6-2.6-7.8c0-3.1,0.9-5.7,2.6-7.8s4-3,6.7-3c1.7,0,3.3,0.5,4.8,1.6v-1.1
		C116.6,104.7,123.3,104.7,123.3,104.7z M109.4,115c0,1.5,0.4,2.7,1.1,3.6c0.8,0.9,1.7,1.4,2.9,1.4c1.1,0,2.2-0.5,3.2-1.5v-7.1
		c-1-1-2.1-1.5-3.2-1.5c-1.2,0-2.2,0.4-2.9,1.4C109.7,112.3,109.4,113.5,109.4,115z M136.8,125.2V124c-1.7,1.2-3.6,1.8-5.5,1.8
		c-1.9,0-3.5-0.6-4.8-1.8c-1.3-1.2-1.9-2.7-1.9-4.5c0-2.2,0.9-4,2.8-5.3c1.9-1.4,4.2-2.1,7.2-2.1c0.3,0,1,0,2.1,0.1v-0.4
		c0-0.7-0.3-1.3-0.9-1.8c-0.6-0.4-1.4-0.7-2.3-0.7c-2.3,0-4.6,0.7-7.1,2.1V106c2.6-1.2,5.2-1.8,7.9-1.8s4.8,0.7,6.4,2.2
		c1.6,1.5,2.4,3.4,2.4,5.8v13H136.8z M131.3,118.4c0,0.6,0.2,1.2,0.6,1.6c0.4,0.4,1,0.6,1.7,0.6c1,0,2.1-0.5,3.1-1.5V116
		c-0.8,0-1.4-0.1-1.8-0.1c-1.1,0-2,0.2-2.7,0.7C131.6,117.1,131.3,117.7,131.3,118.4z M145.7,125.2v-20.5h6.7v1.3
		c1.6-1.2,3.4-1.8,5.5-1.8c2.5,0,4.4,1,5.7,2.9c2-2,4.2-2.9,6.7-2.9c2.1,0,3.8,0.7,5,2.1s1.9,3.2,1.9,5.4v13.5h-6.7v-12.5
		c0-0.8-0.2-1.4-0.7-1.9c-0.5-0.5-1.1-0.8-1.8-0.8c-1.1,0-2.2,0.5-3.2,1.6v13.6h-6.7v-12.5c0-0.8-0.2-1.5-0.7-1.9
		c-0.5-0.5-1-0.7-1.8-0.7c-1.1,0-2.2,0.5-3.2,1.6v13.6H145.7z M179.8,125.2v-20.5h6.7v20.5H179.8z M189.2,125.2v-20.5h6.7v1.5
		c1.8-1.3,3.7-1.9,5.6-1.9c2.2,0,3.9,0.7,5.3,2.1c1.4,1.4,2.1,3.2,2.1,5.5v13.4h-6.7V113c0-0.8-0.3-1.5-0.8-2.1
		c-0.5-0.6-1.2-0.8-2-0.8c-1.3,0-2.4,0.6-3.5,1.7v13.5H189.2z M230.9,104.7v19.9c0,2.9-1,5.4-3.2,7.3c-2.1,1.9-4.8,2.9-8.2,2.9
		c-2.5,0-5-0.5-7.5-1.6v-5.7c2.5,1.4,4.8,2.1,6.9,2.1c1.6,0,2.8-0.4,3.8-1.3s1.5-1.9,1.5-3.3v-0.8c-1.6,1-3.2,1.6-4.8,1.6
		c-2.7,0-5-1-6.7-3s-2.6-4.6-2.6-7.8c0-3.1,0.9-5.7,2.6-7.8s4-3,6.7-3c1.7,0,3.3,0.5,4.8,1.6v-1.1
		C224.2,104.7,230.9,104.7,230.9,104.7z M216.9,115c0,1.5,0.4,2.7,1.1,3.6c0.8,0.9,1.7,1.4,2.9,1.4c1.1,0,2.2-0.5,3.2-1.5v-7.1
		c-1-1-2.1-1.5-3.2-1.5c-1.2,0-2.2,0.4-2.9,1.4C217.3,112.3,216.9,113.5,216.9,115z M179.5,99.2c0-1.1,0.3-2,1-2.7
		c0.7-0.7,1.6-1,2.7-1c1,0,1.9,0.3,2.6,1c0.7,0.7,1,1.6,1,2.6c0,1-0.4,1.9-1,2.6c-0.7,0.7-1.6,1-2.6,1c-1.1,0-2-0.3-2.7-1
		C179.8,101.1,179.5,100.3,179.5,99.2z"/>
	<g id="_x31_x2-gaming_1_">
		<g id="XMLID_564_">
			<path id="XMLID_565_" fill="#008C47" stroke="#316938" stroke-width="0.5" stroke-miterlimit="10" d="M34.7,137.8l12.6-17.4l0,0
				l-12.8-18.2h8.4l8.9,12l0,0l8.8-12.1h2.3l13-17.6C69,80,60.8,77.4,52,77.4c-23.7,0-43,19.1-43,42.6c0,13.7,6.5,25.9,16.7,33.7
				l10.9-15.8H34.7z M32,135h-8.6c-0.1,0-0.2-0.1-0.2-0.2v-25.9c0-2.1-0.8-2.7-5-2.7c-0.1,0-0.2-0.1-0.2-0.2v-3
				c0-0.1,0.1-0.2,0.2-0.2h7.3c4.9,0,6.7,2.3,6.7,6.7c0,9.4,0,23.5,0,25.3C32.2,134.9,32.1,135,32,135z"/>
			<path id="XMLID_568_" fill="#99999B" stroke="#646562" stroke-width="0.5" stroke-miterlimit="10" d="M79,86.9l-11.2,15.3H70
				l-12.6,17.4l12.6,18.2h-8.6l-8.8-11.7l-8.5,11.8h-2.4l-12.4,18.3c6.6,4.1,14.4,6.5,22.7,6.5c23.7,0,43-19.1,43-42.6
				C95,106.6,88.7,94.6,79,86.9z M90.1,135l-19.4,0.2c0-2.3-0.1-3.9,0-9.3c0-0.8,1-2.4,2-3.4c4-3.9,10.3-7.4,10.3-10v-3.1
				c0-1.5-0.4-2.9-2.3-2.9c-3.4,0-2.6,2.2-2.6,4.6c0,0,0,0.1-0.1,0.2l-7.1,5.2c-0.1,0.1-0.3,0-0.3-0.2c-0.1-2.7-0.4-5.8-0.1-7.5
				c0.7-3.8,4-6.2,10-6.2c6.7,0,9.2,2.6,9.5,4.4c0.5,2.5,0.5,5,0.1,6.8c-0.5,2.2-3.1,4.7-7.4,8.2c-2.5,2-4.2,3.9-4.3,4.7
				c0,1.1,0,3,0,3.6c0,0.1,0.1,0.2,0.2,0.2h11.3c0.1,0,0.2,0.1,0.2,0.2v4.2C90.3,134.9,90.2,135,90.1,135z"/>
		</g>
		<g id="_x31_x2-gaming">
			<path fill="#FFFFFF" d="M123.3,104.7v19.9c0,2.9-1,5.4-3.2,7.3c-2.1,1.9-4.8,2.9-8.2,2.9c-2.5,0-5-0.5-7.5-1.6v-5.7
				c2.5,1.4,4.8,2.1,6.9,2.1c1.6,0,2.8-0.4,3.8-1.3c1-0.8,1.5-1.9,1.5-3.3v-0.8c-1.6,1-3.2,1.6-4.8,1.6c-2.7,0-5-1-6.7-3
				c-1.7-2-2.6-4.6-2.6-7.8c0-3.1,0.9-5.7,2.6-7.8s4-3,6.7-3c1.7,0,3.3,0.5,4.8,1.6v-1.1C116.6,104.7,123.3,104.7,123.3,104.7z
				 M109.4,115c0,1.5,0.4,2.7,1.1,3.6c0.8,0.9,1.7,1.4,2.9,1.4c1.1,0,2.2-0.5,3.2-1.5v-7.1c-1-1-2.1-1.5-3.2-1.5
				c-1.2,0-2.2,0.4-2.9,1.4C109.7,112.3,109.4,113.5,109.4,115z M136.8,125.2V124c-1.7,1.2-3.6,1.8-5.5,1.8c-1.9,0-3.5-0.6-4.8-1.8
				c-1.3-1.2-1.9-2.7-1.9-4.5c0-2.2,0.9-4,2.8-5.3c1.9-1.4,4.2-2.1,7.2-2.1c0.3,0,1,0,2.1,0.1v-0.4c0-0.7-0.3-1.3-0.9-1.8
				c-0.6-0.4-1.4-0.7-2.3-0.7c-2.3,0-4.6,0.7-7.1,2.1V106c2.6-1.2,5.2-1.8,7.9-1.8s4.8,0.7,6.4,2.2c1.6,1.5,2.4,3.4,2.4,5.8v13
				H136.8z M131.3,118.4c0,0.6,0.2,1.2,0.6,1.6c0.4,0.4,1,0.6,1.7,0.6c1,0,2.1-0.5,3.1-1.5V116c-0.8,0-1.4-0.1-1.8-0.1
				c-1.1,0-2,0.2-2.7,0.7C131.6,117.1,131.3,117.7,131.3,118.4z M145.7,125.2v-20.5h6.7v1.3c1.6-1.2,3.4-1.8,5.5-1.8
				c2.5,0,4.4,1,5.7,2.9c2-2,4.2-2.9,6.7-2.9c2.1,0,3.8,0.7,5,2.1s1.9,3.2,1.9,5.4v13.5h-6.7v-12.5c0-0.8-0.2-1.4-0.7-1.9
				c-0.5-0.5-1.1-0.8-1.8-0.8c-1.1,0-2.2,0.5-3.2,1.6v13.6h-6.7v-12.5c0-0.8-0.2-1.5-0.7-1.9c-0.5-0.5-1-0.7-1.8-0.7
				c-1.1,0-2.2,0.5-3.2,1.6v13.6H145.7z M179.8,125.2v-20.5h6.7v20.5H179.8z M189.2,125.2v-20.5h6.7v1.5c1.8-1.3,3.7-1.9,5.6-1.9
				c2.2,0,3.9,0.7,5.3,2.1c1.4,1.4,2.1,3.2,2.1,5.5v13.4h-6.7V113c0-0.8-0.3-1.5-0.8-2.1c-0.5-0.6-1.2-0.8-2-0.8
				c-1.3,0-2.4,0.6-3.5,1.7v13.5H189.2z M230.9,104.7v19.9c0,2.9-1,5.4-3.2,7.3c-2.1,1.9-4.8,2.9-8.2,2.9c-2.5,0-5-0.5-7.5-1.6v-5.7
				c2.5,1.4,4.8,2.1,6.9,2.1c1.6,0,2.8-0.4,3.8-1.3s1.5-1.9,1.5-3.3v-0.8c-1.6,1-3.2,1.6-4.8,1.6c-2.7,0-5-1-6.7-3s-2.6-4.6-2.6-7.8
				c0-3.1,0.9-5.7,2.6-7.8s4-3,6.7-3c1.7,0,3.3,0.5,4.8,1.6v-1.1C224.2,104.7,230.9,104.7,230.9,104.7z M216.9,115
				c0,1.5,0.4,2.7,1.1,3.6c0.8,0.9,1.7,1.4,2.9,1.4c1.1,0,2.2-0.5,3.2-1.5v-7.1c-1-1-2.1-1.5-3.2-1.5c-1.2,0-2.2,0.4-2.9,1.4
				C217.3,112.3,216.9,113.5,216.9,115z"/>
			<path id="XMLID_587_" fill="#008C47" d="M179.5,99.2c0-1.1,0.3-2,1-2.7c0.7-0.7,1.6-1,2.7-1c1,0,1.9,0.3,2.6,1
				c0.7,0.7,1,1.6,1,2.6c0,1-0.4,1.9-1,2.6c-0.7,0.7-1.6,1-2.6,1c-1.1,0-2-0.3-2.7-1C179.8,101.1,179.5,100.3,179.5,99.2z"/>
		</g>
	</g>
</g>
</svg>
