<?xml version="1.0" encoding="utf-8"?>
<!-- Generator: Adobe Illustrator 17.1.0, SVG Export Plug-In . SVG Version: 6.00 Build 0)  -->
<!DOCTYPE svg PUBLIC "-//W3C//DTD SVG 1.1//EN" "http://www.w3.org/Graphics/SVG/1.1/DTD/svg11.dtd">
<svg version="1.1" id="Layer_1" xmlns="http://www.w3.org/2000/svg" xmlns:xlink="http://www.w3.org/1999/xlink" x="0px" y="0px"
	 viewBox="0 21 240 198" enable-background="new 0 21 240 198" xml:space="preserve">
<path id="amaya" fill="none" stroke="#1E2123" stroke-width="1.5" stroke-miterlimit="10" d="M30.7,114.9l-14.2,26.2h-9l23.2-42.4
	l23.6,42.4h-9.4L30.7,114.9z M25.1,126.7l5.7,9.9l5.7-9.9H25.1z M146.4,141.3h9.4l-23.6-42.4L109,141.3h9l14.2-26.2L146.4,141.3z
	 M126.6,126.8l5.7,9.9l5.7-9.9H126.6z M223.1,141.3h9.4l-23.6-42.4l-23.2,42.4h9l14.2-26.2L223.1,141.3z M203.3,126.8l5.7,9.9
	l5.7-9.9H203.3z M81.4,127.2L60.1,98.9H60v42.4h6.9v-21.1l14.4,19.7l14.2-19.3v20.6h7.2V98.9h-0.1L81.4,127.2z M193.6,98.9h-8.8
	l-14,21.1l-14-21.1h-9.1l19.5,28.8l-0.1,13.6h7.1l0-13.6L193.6,98.9z"/>
<path id="amaya_1_" fill="#EAEAEA" d="M30.7,114.9l-14.2,26.2h-9l23.2-42.4l23.6,42.4h-9.4L30.7,114.9z M25.1,126.7l5.7,9.9l5.7-9.9
	H25.1z M146.4,141.3h9.4l-23.6-42.4L109,141.3h9l14.2-26.2L146.4,141.3z M126.6,126.8l5.7,9.9l5.7-9.9H126.6z M223.1,141.3h9.4
	l-23.6-42.4l-23.2,42.4h9l14.2-26.2L223.1,141.3z M203.3,126.8l5.7,9.9l5.7-9.9H203.3z M81.4,127.2L60.1,98.9H60v42.4h6.9v-21.1
	l14.4,19.7l14.2-19.3v20.6h7.2V98.9h-0.1L81.4,127.2z M193.6,98.9h-8.8l-14,21.1l-14-21.1h-9.1l19.5,28.8l-0.1,13.6h7.1l0-13.6
	L193.6,98.9z"/>
</svg>
