<?xml version="1.0" encoding="utf-8"?>
<!-- Generator: Adobe Illustrator 17.1.0, SVG Export Plug-In . SVG Version: 6.00 Build 0)  -->
<!DOCTYPE svg PUBLIC "-//W3C//DTD SVG 1.1//EN" "http://www.w3.org/Graphics/SVG/1.1/DTD/svg11.dtd">
<svg version="1.1" xmlns="http://www.w3.org/2000/svg" xmlns:xlink="http://www.w3.org/1999/xlink" x="0px" y="0px"
	 viewBox="0 0 800 660" enable-background="new 0 0 800 660" xml:space="preserve">
<g id="Layer_2">
	
		<radialGradient id="SVGID_1_" cx="399.9813" cy="329.9318" r="395.506" gradientTransform="matrix(0.9639 0 0 0.88 14.4759 39.66)" gradientUnits="userSpaceOnUse">
		<stop  offset="0.5" style="stop-color:#262626"/>
		<stop  offset="1" style="stop-color:#1A1A1A"/>
	</radialGradient>
	<rect fill="url(#SVGID_1_)" width="800" height="660"/>
</g>
<g id="Layer_1">
	<path fill="#FFFFFF" d="M279.1,351.5c23.9,16.3,55.7,25.2,89.4,25.2s65.5-9,89.4-25.2c24.2-16.5,37.6-38.5,37.6-62
		c0-23.5-13.4-45.5-37.6-62c-23.9-16.3-55.7-25.2-89.4-25.2s-65.5,9-89.4,25.2c-24.2,16.5-37.6,38.5-37.6,62
		C241.5,313,254.8,335,279.1,351.5z M368.4,371.2c-0.5,0-5.5-0.1-5.5-0.1l0-2.1c1.8,0.1,3.7,0.1,5.5,0.1c1.8,0,3.7-0.1,5.5-0.1
		l0,2.1C373.9,371.1,369,371.2,368.4,371.2z M281,341l11-2c1.2,1.4,2.5,2.8,3.8,4.2l-8.9,3.1C284.8,344.5,282.8,342.8,281,341z
		 M286.9,317.1c-0.6-2.6-0.9-5.2-0.9-7.9c0-1.1,0.1-2.2,0.2-3.3c0.3-2.8,0.9-5.6,1.8-8.3c0.9-2.8,2.2-5.5,3.7-8.1
		c1.6-2.7,3.5-5.3,5.8-7.8c1.9-2.1,3.9-4.1,6.2-5.9c2.7-2.2,5.6-4.4,8.8-6.3c2.8-1.7,5.8-3.3,9-4.8c3.5-1.6,7.2-3.1,11-4.3
		c3.4-1.1,6.9-2,10.4-2.8c4-0.9,8.2-1.5,12.3-2c0.1,0,0.1,0,0.2,0c0.4,0,0.8-0.1,1.2-0.1v5.6c-15.6,1.7-29.8,6.9-40.4,14.8
		c-11.6,8.6-18,19.7-18,31.3c0,12.7,7.5,24.6,21,33.4c13.2,8.6,30.7,13.3,49.2,13.3c18.6,0,36-4.7,49.2-13.3
		c13.6-8.8,21-20.7,21-33.4c0-11.6-6.4-22.7-18-31.3c-10.6-7.8-24.9-13-40.4-14.8v-5.6c0.2,0,0.4,0,0.7,0.1
		c4.2,0.4,8.4,1.1,12.4,1.9c3.5,0.7,7.1,1.6,10.5,2.7c3.8,1.2,7.5,2.6,11.1,4.2c3.2,1.4,6.2,3,9,4.7c3.2,1.9,6.2,4.1,8.9,6.3
		c2.3,1.9,4.4,3.9,6.3,5.9c2.3,2.5,4.2,5.1,5.9,7.8c1.6,2.6,2.9,5.4,3.9,8.2c0.9,2.8,1.6,5.6,1.8,8.4c0.1,1.2,0.2,2.3,0.2,3.5
		c0,2.6-0.3,5.2-0.8,7.8c-0.6,2.9-1.7,5.9-3,8.7c-1.4,2.9-3.3,5.8-5.5,8.6c-2.2,2.8-4.9,5.5-7.8,8c-3.8,3.2-8.1,6.2-12.9,8.8
		c-3.8,2.1-7.9,3.9-12.2,5.5c-5.7,2.1-11.7,3.8-18,4.9c-4.8,0.9-9.8,1.5-14.9,1.8c-5.2,0.3-10.5,0.3-15.6,0c-5-0.3-10-1-14.8-1.9
		c-6.2-1.2-12.2-2.9-17.9-5c-4.2-1.6-8.2-3.4-12-5.5c-4.7-2.6-9-5.5-12.7-8.7c-2.9-2.5-5.5-5.2-7.7-7.9c-2.1-2.7-4-5.6-5.4-8.5
		C288.5,322.9,287.5,320,286.9,317.1z M368.4,277.3c0.7,0,1.4-0.1,2.1-0.2v9.4c0,1.2-0.9,2.1-2.1,2.1s-2.1-0.9-2.1-2.1V277
		C367,277.2,367.7,277.3,368.4,277.3z M380.2,266.7c1.9,0.2,3.8,0.5,5.7,0.8l-8.7,11c-0.4-0.1-0.7-0.2-1.1-0.3v-4.1
		C378.4,272.3,379.8,269.6,380.2,266.7z M303.8,307.2c0-7.2,3-14,8.2-19.9l36.6,4.4c0.1,1.7,0.7,3.4,1.7,4.9l-44.8,20.1
		C304.4,313.6,303.8,310.4,303.8,307.2z M344.9,268.9l9.6,12.2c-2.1,1.4-3.8,3.2-4.8,5.1l-32.6-3.9
		C324.3,276.3,333.8,271.7,344.9,268.9z M368.4,294.1c4.2,0,7.7-3.4,7.7-7.7v-2.3c0.3,0.1,0.6,0.2,0.9,0.4c3.1,1.3,5.1,3.3,5.6,5.4
		c0.1,0.3,0.1,0.7,0.1,1c0,2-1.4,3.5-2.5,4.5c-1.6,1.3-3.7,2.3-6.2,2.9c-3.5,0.9-7.6,0.9-11.1,0c-2.5-0.6-4.6-1.6-6.2-2.9
		c-1.2-1-2.5-2.5-2.5-4.5c0-0.4,0-0.7,0.1-1c0.5-2.1,2.6-4,5.6-5.4c0.3-0.1,0.6-0.2,0.9-0.4v2.3
		C360.8,290.7,364.2,294.1,368.4,294.1z M354.6,300.8c1.1,0.7,2.4,1.4,3.7,1.9l-20,40.8c-13.8-4.7-24.7-12.4-30.3-21.8L354.6,300.8z
		 M363.8,304.2c1.5,0.2,3.1,0.4,4.7,0.4c1.6,0,3.1-0.1,4.7-0.4l20.1,41c-7.6,2-16,3.1-24.8,3.1c-8.8,0-17.1-1.1-24.8-3.1
		L363.8,304.2z M398.6,343.5l-20-40.8c1.3-0.5,2.6-1.2,3.7-1.9l46.6,21C423.3,331.1,412.5,338.9,398.6,343.5z M431.4,316.7
		l-44.8-20.1c1-1.5,1.6-3.2,1.7-4.9l36.6-4.4c5.2,5.9,8.2,12.8,8.2,19.9C433.1,310.4,432.5,313.6,431.4,316.7z M387.1,286.2
		c-1-1.9-2.6-3.7-4.8-5.1l9.6-12.2c11.1,2.8,20.7,7.4,27.8,13.3L387.1,286.2z M360.8,278.3c-0.4,0.1-0.7,0.2-1.1,0.3l-8.7-11
		c1.9-0.3,3.8-0.6,5.7-0.8c0.4,2.9,1.8,5.5,4.1,7.4V278.3z M449.9,346.2l-8.9-3.1c1.4-1.4,2.6-2.7,3.8-4.2l10.9,2
		C454,342.8,452.1,344.5,449.9,346.2z M379.6,368.6c3.6-0.3,7.3-0.8,10.8-1.4l1.2,2.3c-3.9,0.6-7.9,1-11.9,1.3L379.6,368.6z
		 M422.6,356.4l5.5,2.8c-3.4,1.5-6.9,2.9-10.5,4.1l-2.8-3.2C417.6,359,420.1,357.7,422.6,356.4z M409.4,362.2l2.5,2.9
		c-4.7,1.4-9.6,2.5-14.6,3.4l-1.3-2.5C400.6,365,405.1,363.8,409.4,362.2z M443.8,350.7c-2.9,2-6.1,3.8-9.3,5.5l-6.1-3.1
		c2.8-1.8,5.5-3.7,8-5.7l8.1,2.8C444.3,350.4,444,350.5,443.8,350.7z M314.3,356.4c2.5,1.3,5.1,2.5,7.7,3.7l-2.8,3.2
		c-3.6-1.2-7.1-2.6-10.5-4.1L314.3,356.4z M346.6,367.2c3.6,0.6,7.2,1.1,10.8,1.4l0,2.2c-4-0.3-8-0.7-11.9-1.2L346.6,367.2z
		 M339.6,368.6c-5-0.9-9.9-2.1-14.6-3.4l2.5-2.9c4.3,1.5,8.7,2.8,13.4,3.8L339.6,368.6z M300.5,347.4c2.5,2,5.1,3.9,8,5.7l-6.1,3.1
		c-3.6-1.9-6.9-3.9-10-6L300.5,347.4z M460.3,336.1l-11.6-2.2c0.9-1.4,1.8-2.8,2.5-4.3l13.8-0.1C463.6,331.8,462.1,334,460.3,336.1z
		 M468,324l-14.2,0.1c0.5-1.3,0.9-2.6,1.2-3.9l15.1-1.8C469.5,320.3,468.8,322.1,468,324z M471.9,306.4c0,2.1-0.2,4.1-0.5,6.2
		l-15.3,1.8c0.2-1.7,0.3-3.5,0.3-5.2c0-0.4,0-0.9,0-1.3l15.4-2.9C471.9,305.5,471.9,305.9,471.9,306.4z M455.9,302.3
		c-0.2-1.3-0.5-2.7-0.9-4l14.4-5.8c0.8,2.3,1.4,4.6,1.8,7L455.9,302.3z M453.2,293c-0.6-1.4-1.2-2.7-1.9-4l12.2-8
		c1.4,2.1,2.7,4.2,3.7,6.3L453.2,293z M448.5,284.2c-0.9-1.3-1.9-2.7-2.9-3.9L456,272c1.5,1.5,2.9,3,4.2,4.5L448.5,284.2z
		 M441.8,276c-0.9-0.9-1.8-1.7-2.7-2.6l8.3-8.8c1.6,1.1,3,2.3,4.5,3.5L441.8,276z M434.8,269.8c-1.5-1.2-3.2-2.4-4.9-3.5l6.6-8.6
		c2.1,1.2,4.2,2.4,6.1,3.7L434.8,269.8z M425.2,263.4c-1.4-0.8-2.9-1.6-4.5-2.4l5.4-8.3c1.9,0.8,3.7,1.6,5.4,2.5L425.2,263.4z
		 M415.6,258.6c-2-0.9-4.1-1.7-6.1-2.4l4.7-7.8c2.3,0.7,4.5,1.4,6.6,2.2L415.6,258.6z M404,254.4c-1.9-0.6-3.8-1.1-5.7-1.6l2.8-7.9
		c2.6,0.5,5.1,1.1,7.5,1.8L404,254.4z M392.8,251.7c-2.5-0.5-5.1-0.9-7.7-1.3l0.9-7.8c3.2,0.3,6.4,0.8,9.6,1.3L392.8,251.7z
		 M379.6,249.3c-0.2-0.3-0.5-0.5-0.8-0.6c0.3-1.1,0.5-2.2,0.5-3.3c0-1.1-0.2-2.3-0.6-3.3c0.6,0,1.1,0.1,1.7,0.1L379.6,249.3z
		 M373.7,245.4c0,1.4-0.6,2.8-1.6,3.8c-0.8,0.8-1.1,2-0.7,3.1c0.4,1.1,1.4,1.7,2.6,1.7h0.7v11.2c0,2.1-1.1,4.1-2.9,5.3
		c-0.1,0.1-0.2,0.1-0.2,0.2l0,0c-1.8,1.5-4.4,1.5-6.3,0l0,0c-0.1-0.1-0.2-0.1-0.2-0.2c-1.8-1.2-2.9-3.1-2.9-5.3V254h0.7
		c1.1,0,2.2-0.7,2.6-1.7s0.2-2.3-0.6-3.1c-1-1-1.6-2.3-1.6-3.8c0-2.9,2.4-5.3,5.4-5.2C371.4,240.3,373.6,242.6,373.7,245.4z
		 M358.1,248.7c-0.3,0.2-0.6,0.4-0.8,0.6l-0.8-7.2c0.6,0,1.1-0.1,1.7-0.1c-0.4,1.1-0.5,2.2-0.5,3.4
		C357.7,246.5,357.8,247.6,358.1,248.7z M351,242.6l0.9,7.8c-2.6,0.3-5.2,0.7-7.7,1.2l-2.7-7.7C344.5,243.4,347.7,243,351,242.6z
		 M335.8,245l2.8,7.9c-1.9,0.5-3.9,1-5.7,1.6l-4.6-7.6C330.8,246.1,333.3,245.5,335.8,245z M322.8,248.4l4.7,7.8
		c-2.1,0.7-4.1,1.6-6.1,2.4l-5.2-8C318.3,249.8,320.5,249.1,322.8,248.4z M310.8,252.7l5.4,8.3c-1.5,0.8-3,1.6-4.5,2.4l-6.3-8.2
		C307.1,254.3,309,253.5,310.8,252.7z M300.3,257.8l6.6,8.6c-1.7,1.1-3.3,2.3-4.8,3.5l-7.9-8.4C296.2,260.2,298.2,259,300.3,257.8z
		 M289.5,264.7l8.3,8.8c-0.9,0.8-1.8,1.7-2.7,2.6l-10-7.8C286.5,267,288,265.8,289.5,264.7z M280.9,272l10.4,8.2
		c-1.1,1.3-2,2.6-2.9,4l-11.7-7.6C278,275,279.4,273.5,280.9,272z M273.4,281l12.2,7.9c-0.7,1.3-1.3,2.7-1.9,4l-14-5.7
		C270.7,285.2,272,283.1,273.4,281z M267.5,292.5l14.4,5.8c-0.4,1.3-0.6,2.7-0.9,4l-15.4-2.9C266,297.1,266.7,294.7,267.5,292.5z
		 M280.5,307.9c0,0.4,0,0.9,0,1.3c0,1.7,0.1,3.5,0.3,5.2l-15.3-1.8c-0.3-2-0.5-4.1-0.5-6.2c0-0.5,0-1,0-1.4L280.5,307.9z
		 M281.9,320.2c0.4,1.3,0.8,2.6,1.2,3.9l-14.3-0.1c-0.8-1.8-1.5-3.7-2.1-5.6L281.9,320.2z M285.7,329.7c0.8,1.4,1.6,2.9,2.5,4.3
		l-11.7,2.2c-1.8-2.1-3.3-4.3-4.7-6.5L285.7,329.7z M368.4,207.9c44.2,0,82.9,16,104.2,39.7c-25.2-19.8-63.3-31.9-104.2-31.9
		s-78.9,12-104.2,31.9C285.5,223.8,324.3,207.9,368.4,207.9z M247.3,284c0.9-9,5-17.5,11.4-23.9c23.4-23.8,64.8-38.7,109.7-38.7
		c45,0,86.4,14.9,109.7,38.7c6.4,6.5,10.5,14.9,11.4,23.9c0.2,1.8,0.3,3.7,0.3,5.5c0,6-1,11.8-2.8,17.3l-0.7-9.9
		c-0.1-1.5-1.4-2.7-3-2.6c-1.5,0.1-2.7,1.4-2.6,3l0.7,10.2c0.1,1.5,1.3,2.6,2.8,2.6c0.1,0,0.1,0,0.2,0c0.7,0,1.3-0.3,1.7-0.8
		c-4,10.7-11.1,20.6-20.7,29.2c7.6-9.6,12-20.5,12-32.1c0-37.6-45.4-68.3-103.4-70.2c-1.5-0.9-3.3-1.5-5.2-1.6
		c-2.2-0.1-4.3,0.5-6.1,1.6c-3.2,0.1-6.5,0.3-9.6,0.6c-5.4,0.5-10.8,1.2-16,2.3c-4.7,0.9-9.4,2-13.9,3.4c-4.2,1.2-8.4,2.7-12.4,4.3
		c-3.9,1.5-7.6,3.3-11.1,5.1c-4.1,2.1-8,4.5-11.5,7c-3.4,2.4-6.6,5-9.5,7.6c-3.2,2.9-6,6-8.4,9.2c-2.9,3.9-5.3,8-7.1,12.2
		c-2.6,6.1-3.9,12.4-3.9,18.7c0,3.1,0.3,6.2,0.9,9.3c1.6,8,5.3,15.6,10.8,22.6c-9.5-8.5-16.5-18.3-20.5-28.9c0.5,0.4,1,0.7,1.7,0.8
		c0.1,0,0.1,0,0.2,0c1.5,0,2.7-1.1,2.8-2.6l0.7-10.2c0.1-1.5-1.1-2.9-2.6-3c-1.5-0.1-2.9,1.1-3,2.6l-0.7,9.9
		c-1.8-5.6-2.8-11.4-2.8-17.3C247,287.7,247.1,285.8,247.3,284z M525.4,293.1c0-0.2,0-1.5,0-1.5c-0.6-26.9-17-52-46.4-70.9
		c-29.6-19-68.8-29.4-110.5-29.4s-81,10.5-110.5,29.4c-29.4,18.9-45.8,44-46.4,70.9c0,0,0,1.2,0,1.5c0,5,0.6,10,1.6,14.8
		c2,10.3,6,20.4,11.6,30.2c3.7,27.8,20.3,53.4,46.7,72.2c26.6,18.9,61.1,29.4,97,29.4s70.4-10.4,97-29.4
		c26.4-18.8,43-44.4,46.7-72.2c5.6-9.8,9.6-19.9,11.6-30.2C524.9,303.1,525.4,298.1,525.4,293.1z M368.4,196.9
		c83.1,0,150.8,42.8,151.4,95.5c0,4.6-0.5,9.2-1.4,13.8c-10.1,46.9-73.5,83.1-150,83.1s-139.9-36.2-150-83.1
		c-0.9-4.6-1.3-9.2-1.4-13.8C217.7,239.7,285.3,196.9,368.4,196.9z M492.6,355.4c-5,5.6-10.7,10.9-16.9,15.9
		c-29.5,23.5-67.6,36.4-107.3,36.4s-77.8-12.9-107.3-36.4c-6.2-5-11.9-10.3-16.9-15.9c4.2,3.5,8.7,6.8,13.7,10
		c29.6,19,68.8,29.4,110.5,29.4s81-10.5,110.5-29.4C483.9,362.3,488.5,358.9,492.6,355.4z M462.3,405.7
		c-25.7,18.3-59,28.3-93.8,28.3s-68.1-10.1-93.8-28.3c-20.8-14.8-35.2-34-41.5-55c6.8,8.9,15,17.3,24.5,24.9
		c30.4,24.3,69.8,37.7,110.8,37.7s80.3-13.4,110.8-37.7c9.6-7.6,17.8-16,24.5-24.9C497.4,371.8,483.1,390.9,462.3,405.7z
		 M292.9,249.4c0.4,1.1,1.5,1.7,2.6,1.7c0.4,0,0.7-0.1,1.1-0.2c1.4-0.6,2.1-2.2,1.5-3.7l-2.8-6.6c-0.6-1.4-2.2-2.1-3.7-1.5
		c-1.4,0.6-2.1,2.2-1.5,3.7L292.9,249.4z M440.4,250.9c0.4,0.1,0.7,0.2,1.1,0.2c1.1,0,2.1-0.6,2.6-1.7l2.8-6.6
		c0.6-1.4-0.1-3.1-1.5-3.7c-1.4-0.6-3.1,0.1-3.7,1.5l-2.8,6.6C438.3,248.7,439,250.3,440.4,250.9z M363.6,230.6h9.8
		c1.5,0,2.8-1.2,2.8-2.8s-1.2-2.8-2.8-2.8h-9.8c-1.5,0-2.8,1.2-2.8,2.8S362,230.6,363.6,230.6z M581.4,304.5c0.5,0,0.9-0.2,1.3-0.5
		c0.6-0.7,0.6-1.8-0.1-2.4c-0.1-0.1-2.8-2.7-1.3-5.7c2.4-5-0.7-10.2-0.8-10.5c-0.5-0.8-1.5-1.1-2.3-0.6c-0.8,0.5-1.1,1.5-0.6,2.3
		c0,0,2.2,3.9,0.6,7.3c-2.5,5.4,1.9,9.5,2.1,9.7C580.6,304.4,581,304.5,581.4,304.5L581.4,304.5z M581.4,304.5 M570.7,336.6
		c0.7-0.7,0.7-1.8,0-2.4c-0.7-0.7-1.8-0.7-2.4,0l-5.3,5.3c-0.5-0.2-1.1-0.4-1.6-0.5v-7.7c0-0.9-0.8-1.7-1.7-1.7
		c-0.9,0-1.7,0.8-1.7,1.7v7.7c-0.6,0.1-1.1,0.3-1.6,0.5l-5.3-5.3c-0.7-0.7-1.8-0.7-2.4,0c-0.7,0.7-0.7,1.8,0,2.4l4.9,4.9
		c-0.6,0.6-1,1.3-1.4,2h-6.4c-0.9,0-1.7,0.8-1.7,1.7c0,0.9,0.8,1.7,1.7,1.7h5.5c0,0.2,0,0.4,0,0.6c0,0.4,0,4.4,2,7.3l-4.3,7.7
		c-0.3,0.6-0.3,1.3,0.1,1.8c1.1,1.6,11,15.3,16.4,17.7l0.4,0.2c3.3,1.5,9.5,4.2,10.5,7.8c0.3,1.3,0,2.6-1,4.1
		c-0.5,0.8-0.4,1.8,0.4,2.4c0.3,0.2,0.6,0.3,1,0.3c0.5,0,1.1-0.3,1.4-0.7c1.7-2.3,2.2-4.7,1.5-7c-1.4-5.1-8.3-8.2-12.4-10l-0.4-0.2
		c-1.3-0.6-6.3-4.5-14.4-15.7l3.4-6.1c1,0.5,2.1,0.8,3.4,0.8c0.9,0,1.7-0.8,1.7-1.7c0-0.9-0.8-1.7-1.7-1.7c-1.2,0-2.1-0.4-2.8-1.1
		c-1.6-1.6-1.8-4.7-1.8-5.8c0,0,0,0,0-0.1c0-2.9,2.3-5.4,5.1-5.4c0,0,0,0,0,0s0,0,0,0c2.8,0,5.1,2.4,5.1,5.4c0,0.9,0.8,1.7,1.7,1.7
		c0.9,0,1.7-0.8,1.7-1.7c0-0.2,0-0.4,0-0.6h5.5c0.4,0,0.8-0.2,1.1-0.4c-0.3,1.4-0.6,2.7-1,3.9c-0.3,0.9,0.2,1.9,1.1,2.2
		c0.2,0.1,0.4,0.1,0.6,0.1c0.7,0,1.4-0.4,1.6-1.2c3.9-11.4,1.2-27.2,0.6-30.4l2.7-6.2c0.4-0.9,0-1.9-0.9-2.2c-0.9-0.4-1.9,0-2.2,0.9
		l-2.9,6.7c-0.1,0.3-0.2,0.7-0.1,1c0,0.1,2.5,12.3,1,23c-0.3-0.5-0.8-0.9-1.5-0.9h-6.4c-0.4-0.7-0.9-1.4-1.4-2L570.7,336.6z
		 M565.7,341.6 M581.8,323.1c0.6,0,1.1-0.3,1.5-0.8l2.3-3.7c0.5-0.8,0.2-1.9-0.6-2.4c-0.8-0.5-1.9-0.2-2.4,0.6l-2.3,3.7
		c-0.5,0.8-0.2,1.9,0.6,2.4C581.2,323,581.5,323.1,581.8,323.1L581.8,323.1z M581.8,323.1 M572.8,309c0,0.9,0.7,1.7,1.7,1.7
		l12.3,0.1h0c0.9,0,1.7-0.8,1.7-1.7c0-0.9-0.7-1.7-1.7-1.7l-12.3-0.1C573.6,307.2,572.8,308,572.8,309L572.8,309z M572.8,309
		 M584,361.9c2.6-2.3,1.3-7.4,0.1-11c-0.3-0.9-1.3-1.4-2.3-1.1c-0.9,0.3-1.2,1.3-1,2.2c1.6,4.9,1.2,6.6,1,7.1
		c-0.2,0.2-0.5,0.4-0.8,0.4c-1.9,0-6.5-2.4-10.7-5.8c-0.8-0.7-2.1-0.4-2.6,0.5c-0.4,0.7-0.2,1.6,0.5,2.1c1.8,1.5,6.6,5.1,10.7,6.2
		l-1.2,1.5c-0.6,0.7-0.6,1.9,0.2,2.5c0.3,0.3,0.7,0.4,1.1,0.4c0.5,0,1-0.2,1.3-0.6L584,361.9z M580.3,366.3 M570.5,362.8
		c-0.5-0.8-1.5-1.1-2.3-0.6c-0.8,0.5-1.1,1.5-0.6,2.3c3.8,6.7,8.7,11.1,8.9,11.3c0.3,0.3,0.7,0.4,1.1,0.4c0.5,0,0.9-0.2,1.3-0.6
		c0.6-0.7,0.6-1.8-0.2-2.4C578.6,373.2,574,369,570.5,362.8L570.5,362.8z M570.5,362.8 M575.8,413.1c0.2,0,0.4,0,0.6-0.1
		c0.9-0.4,1.3-1.4,0.9-2.2l-7.7-18.8c-0.4-0.9-1.4-1.3-2.2-0.9c-0.9,0.4-1.3,1.4-0.9,2.2l7.7,18.8
		C574.5,412.7,575.2,413.1,575.8,413.1L575.8,413.1z M575.8,413.1 M549.2,383.2c-0.9,0.3-1.3,1.3-1,2.2c0.1,0.2,7.5,20.2,14.9,39.1
		c2.5,6.5,4.7,9.3,7.1,9.3c0.2,0,0.3,0,0.5,0l0,0l3,14c0.2,0.8,0.9,1.4,1.7,1.4c0.1,0,0.2,0,0.4,0c0.9-0.2,1.5-1.1,1.3-2l-3.3-15.9
		c1.2-2.4,1.7-5.9,1.9-8.3c0.1-0.9-0.6-1.8-1.6-1.9c-0.9-0.1-1.8,0.6-1.9,1.6c-0.3,3.4-1.2,6.9-2,7.7c-0.4-0.3-1.7-1.6-3.9-7.1
		c-7.3-18.9-14.8-38.9-14.8-39.1C551.1,383.3,550.1,382.9,549.2,383.2L549.2,383.2z M549.2,383.2 M525.3,377.2c-0.1,0.5,0,1,0.2,1.4
		l5.3,8.1c-0.6-0.6-1.5-0.6-2.2-0.2c-0.8,0.5-1,1.6-0.4,2.4l5.1,7.3c0.3,0.5,0.9,0.7,1.4,0.7c0.3,0,0.7-0.1,1-0.3
		c0.4-0.3,0.7-0.8,0.7-1.3l2.7,4.1c0.3,0.4,0.7,0.7,1.2,0.8l-1.2,24.8c0,0.6,0.3,1.2,0.8,1.6l17.8,10.6c0.3,0.2,0.6,0.2,0.9,0.2
		c0.6,0,1.2-0.3,1.5-0.8c0.5-0.8,0.2-1.9-0.6-2.4l-16.9-10.1l1.9-39.2c0-0.3-0.1-0.7-0.3-1l-2.7-4.3c2.4-2.2,5.2-8,6.1-9.9
		c0.4-0.9,0-1.9-0.8-2.3c-0.9-0.4-1.9,0-2.3,0.8c-1.5,3.2-3.6,7-4.8,8.4l-2.6-4.2c-0.5-0.7-1.4-1-2.2-0.6l-8.9,4.3
		C525.8,376.3,525.5,376.7,525.3,377.2L525.3,377.2z M529.5,378.3l5.7-2.8l6,9.7l-0.5,10.1L529.5,378.3z M540.7,395.4 M575.7,457.8
		c0.5,0,1-0.2,1.4-0.7c0.6-0.8,0.4-1.8-0.4-2.4l-20.1-14.8c-0.8-0.6-1.8-0.4-2.4,0.4c-0.6,0.8-0.4,1.8,0.4,2.4l20.1,14.8
		C575,457.7,575.3,457.8,575.7,457.8L575.7,457.8z M575.7,457.8 M539.9,446.9c-0.5,14.7-2.2,18.2-3,18.9c-0.5,0.5-0.6,1.2-0.3,1.9
		c0.3,0.6,0.9,1,1.6,1c0,0,0,0,0,0c12.3-0.2,45.9,0,46.2,0h0c0.7,0,1.4-0.5,1.6-1.2c0.2-0.7,0-1.5-0.6-1.9l-4.5-3.4
		c-0.8-0.6-1.8-0.4-2.4,0.3c-0.6,0.8-0.4,1.8,0.3,2.4l0.3,0.2c-9.1,0-27.8-0.1-38.2,0c1-2.8,1.9-8,2.3-18.2c0.3-8.4,0-16.4,0-16.5
		c0-0.9-0.8-1.7-1.8-1.7c-0.9,0-1.7,0.8-1.7,1.8C539.9,430.7,540.2,438.5,539.9,446.9L539.9,446.9z M539.9,446.9"/>
</g>
</svg>
