<?xml version="1.0" encoding="utf-8"?>
<!-- Generator: Adobe Illustrator 17.1.0, SVG Export Plug-In . SVG Version: 6.00 Build 0)  -->
<!DOCTYPE svg PUBLIC "-//W3C//DTD SVG 1.1//EN" "http://www.w3.org/Graphics/SVG/1.1/DTD/svg11.dtd">
<svg version="1.1" id="bally-logo" xmlns="http://www.w3.org/2000/svg" xmlns:xlink="http://www.w3.org/1999/xlink" x="0px" y="0px"
	 viewBox="0 42 240 198" enable-background="new 0 42 240 198" xml:space="preserve">
<path id="bally_1_" fill="none" stroke="#1E2123" stroke-width="1.5" stroke-linecap="round" stroke-linejoin="round" stroke-miterlimit="10" d="
	M97.2,149.1v1.5c0,2.4-0.8,4.6-2.3,6.8c-1.3,1.9-3.2,3.5-5.6,5c-1.9,1.2-3.8,2.1-5.9,2.8s-3.8,1-5.3,1c-2.7,0-4.7-0.3-6.2-1
	c-1.4-0.7-2.4-1.5-2.9-2.6c-0.5-1-0.8-2.1-0.8-3.1c0-1.4,0.5-2.6,1.4-3.6c1-1,2.1-1.4,3.4-1.3c1.1,0.1,2,0.6,2.6,1.4
	c0.6,0.8,0.9,1.8,1.1,2.9c0,1.4-0.2,2.4-0.7,3.1c3.8-0.7,7-2.2,9.6-4.6c2.6-2.4,3.9-5.1,3.9-8.3v-0.6c0-1.9-0.8-3.8-2.3-5.9
	c-1.7-2.2-3.5-4.5-5.2-6.8c0-2.2,2.4-4.4,7.2-6.4c7.3-3.2,11.8-5.3,13.3-6.4c4.8-3.4,7.2-7.7,7.2-13.2c0-7.6-5.3-11.4-15.8-11.4
	c-5,0-9.9,1-14.8,2.9s-9.9,5-15.1,9.1c-4.2,3.4-8.2,7.3-12,11.8c-3.9,4.5-7.2,9.1-10,13.8c-2.8,4.7-4.8,9.1-5.9,13.1
	c-0.7,2.6-1,4.9-1,7c0,2.4,0.2,4.5,0.7,6.3c1.2,4,3.8,6.1,7.7,6.1c1.9,0,3.6-0.5,5.3-1.5c1.6-1,3.3-2.5,4.8-4.5
	c2.6-3.4,5-7.8,7.5-13.3l5.8-13.3l1.7-3.5c3.2-6,5.6-10.1,7-12.3c3.5-5.3,6.7-8.7,9.5-10.4c1.6-0.9,3.1-1.6,4.7-2.1
	c1.6-0.6,3-0.8,4.2-0.8c1.1,0,1.7,0.3,1.8,0.9c0.1,0.5-1.2,1.5-3.8,3.1c-1.8,1.1-3.5,2.6-5,4.6c-2.7,3.4-6.4,10.3-11.1,20.6l-2,4.3
	l-4,9c-1.3,2.7-2.1,4.5-2.5,5.3c-1.5,2.9-3.2,5.5-5,8c-1.2,1.7-2.5,3.2-3.9,4.5c-2.2,2.1-4.5,3.6-6.8,4.5c-2.3,1-4.6,1.4-7,1.4
	c-3.4,0-6.6-0.9-9.5-2.8c-2.9-1.9-5.1-4.4-6.5-7.6c-1.1-2.3-1.6-4.7-1.6-7.3c0-0.6,0.1-1.3,0.2-2.3l0.7-3.7c0.5-2.2,1.1-4.5,1.9-6.7
	s1.7-4.4,2.8-6.5c5.8-12,15.1-22,27.6-29.9C72.2,98.7,83.7,95,95,95c7.7,0,13.7,1.4,18,4.2c4.3,2.8,6.4,7,6.4,12.7
	c0,7-3.4,12.3-10.2,16c-7.3,2.4-14.7,4.9-22,7.3l0.2,0.7c2.9,1.7,5.3,3.6,7.1,5.6C96.3,143.2,97.2,145.8,97.2,149.1L97.2,149.1z
	 M157.2,130c2.5-4.4,4.9-8.9,7.2-13.6c2.5-5.4,3.8-9,3.8-10.8c0-0.7-0.2-1.1-0.7-1.1c-1.1,0-3.2,1.7-6.2,5.2s-5.4,6.9-7.2,10.2
	c-1.8,3.4-3.1,5.8-3.8,7.5c-1.3,2.8-2.5,5.6-3.5,8.5c-1.2,3.6-2.1,7.5-2.7,11.6c3.9-4,7-7.9,9.5-11.6L157.2,130z M179.5,132.4
	c1.4-2.7,2.7-5.4,3.9-8c1.5-3.4,2.2-5.6,2.2-6.8c0-0.9-0.3-1.4-1-1.4c-1,0-2.7,1.6-5.1,4.7c-2.1,2.7-4.2,5.8-6.2,9.3l-2.8,5.7
	c-0.9,1.9-1.6,3.7-2.1,5.4c-0.5,1.7-1,3.8-1.4,6.4c2.3-1.9,4.3-3.8,6.1-5.7c1.7-1.9,3.3-4,4.6-6.2L179.5,132.4z M207.8,149.1
	l-6.5,13.3l-9.6,19.8c-1,2.1-1.9,3.5-2.6,4.3c-0.9,1.1-1.9,1.6-2.9,1.6c-0.4,0-0.9-0.1-1.3-0.4c-1.2-0.7-1.9-1.7-1.9-3
	c0-1,0.3-2.1,1-3.5l10.1-18.8l1.7-3.1c-1.2,1.2-2.6,2.2-4.2,3.1c-2.2,1.2-4.2,1.8-5.9,1.8s-3.1-0.6-4.1-1.8
	c-0.7-0.9-1.4-2.1-1.9-3.8c-1,1.2-2.3,2.5-4,3.8c-1.4,1-2.8,1.8-4.2,2.4c-1.4,0.6-2.8,0.9-4.1,0.9c-2.5,0-4.7-1.1-6.4-3.3
	c-0.6-0.7-1.1-1.6-1.7-2.6c-0.4,0.4-0.8,0.9-1.3,1.4s-1,0.9-1.5,1.3c-1.7,1.3-3.7,2.4-5.7,3.3c-2.1,0.9-4,1.4-5.6,1.4
	c-1.7,0-3.1-0.4-4.4-1.3c-1.2-0.8-2.3-2-3.3-3.5l-0.9-1.6l-1.8,1.6c-3.7,3.2-7.3,4.9-10.9,4.9c-1.7,0-3.1-0.4-4.4-1.3
	c-1.2-0.9-2.3-2.1-3.2-3.5l-0.8-1.7l-1.7,1.7c-1.5,1.4-2.9,2.3-4.3,2.9c-1.4,0.6-2.9,0.9-4.6,0.9c-2.9,0-4.9-1.3-6-3.8
	c-0.7-1.6-1.1-3.5-1.1-5.8c0-2.1,0.6-4.6,1.9-7.6c1.1-2.4,2.5-4.7,4.1-7c1.6-2.2,3.5-4.3,5.6-6.3c2.7-2.4,5.5-4.4,8.4-5.8
	c3-1.4,6-2.1,9.2-2.1c3.9,0,5.8,1.6,5.8,4.7c0.1,1.2-0.4,2.3-1.5,3.3c-0.6,0.6-1.3,0.9-2.1,0.9c-1.1,0-1.9-0.1-2.5-0.3
	s-1.1-0.5-1.4-0.8c-0.4-0.3-0.6-0.8-0.7-1.4c-0.1-0.6-0.3-1-0.5-1c-0.2-0.1-0.5-0.1-0.8-0.1c-1.5,0-3.4,0.9-5.7,2.7
	c-2,1.6-3.9,3.5-5.6,5.8c-1.8,2.3-3.2,4.7-4.3,7.3c-1.1,2.6-1.6,5-1.6,7.2c0,1,0.1,1.9,0.4,2.6c0.3,0.7,1,1.1,2.1,1.1
	c1.4,0,3.1-1.2,5.1-3.5c1.6-1.8,3.4-4.3,5.3-7.4c0.9-1.5,1.9-3.1,2.9-4.9s1.8-3.2,2.3-4.2c0.3-0.4,1.5-0.7,3.5-0.7
	c1.2,0,2.3,0.1,3.1,0.3c0.8,0.2,1.1,0.5,1,1l-3.7,8.5c-0.9,2-1.4,3.3-1.7,4c-0.4,1.1-0.9,2.4-1.4,4c-0.1,0.5-0.2,0.8-0.2,1
	c0,0.6,0.3,1.1,0.8,1.4c0.5,0.3,1.2,0.4,2.1,0.4c0.9,0,2.4-0.7,4.4-2.2s3.2-2.5,3.7-3.2c0-0.9,0-1.8,0-2.7c0-0.8,0.4-7,0.9-9
	s1.2-4.3,2.1-7c0.5-1.2,1-2.5,1.5-3.8s1.1-2.6,1.7-4c3.5-7.5,7.8-14,12.7-19.7c5.4-6.2,10-9.3,13.7-9.3c1.8,0,3.1,0.5,3.9,1.5
	c0.8,1,1.2,2.5,1.2,4.3c0,3.2-1,7.2-3.1,12.2c-1.5,3.6-3.5,7.5-5.9,11.6c-0.7,1.2-1.4,2.3-2,3.3c-0.7,1-1.5,2.3-2.5,3.8
	c-1.6,2.4-3.3,4.6-5,6.7c-1.7,2.1-3.7,4.3-6,6.6l-5,4.7c0,1.6,0.5,3,1.5,4.2c1,1.3,2.4,1.9,4.3,1.9c1.2,0,2.8-0.6,4.8-1.9
	c1.6-1,2.9-2.1,3.9-3.2l0.7-5.8c0.7-4.4,2.1-8.8,4.2-13.2l2-3.8c2.9-5.5,6.6-10.5,11.1-15.2s7.9-7,10.3-7c1.6,0,2.7,0.4,3.3,1.3
	c0.7,0.9,1,2.2,1,3.9c0,2.7-0.8,5.9-2.3,9.8c-1.5,3.8-3.4,7.5-5.6,11.1c-1.6,2.4-3.1,4.7-4.8,6.8c-2.1,2.6-4,4.8-5.9,6.4
	c-1.5,1.4-3.2,2.6-5,3.8c-0.1,0.2-0.1,0.6-0.1,1.1c0,1.2,0.3,2.2,1,3s1.8,1.2,3.5,1.2c1.5,0,3-0.7,4.7-2.1c1.6-1.4,3.3-3.8,4.9-7
	l0.6-1.1c1.1-2.2,2.2-4.4,3.5-6.5c1-1.7,2.1-3.6,3.4-5.6l3.8-6.3c0.1-0.2,0.6-0.4,1.4-0.6c0.8-0.2,1.6-0.3,2.4-0.3
	c1.2,0,2.1,0.1,2.8,0.3c0.7,0.2,0.9,0.6,0.7,1.2c-0.1,0.2-0.3,0.6-0.7,1.3c-0.7,1.2-1.5,2.7-2.4,4.3c-1.2,2-2.4,4.1-3.6,6.4
	c-1.5,2.7-2.6,5-3.5,6.8c-1.3,2.8-2,4.9-2,6.3c0,1.2,0.5,1.8,1.5,1.8c1.5,0,2.9-0.6,4.3-1.7c1.4-1.1,3.1-3.3,5.2-6.4
	c1.5-2.2,2.9-4.5,4.1-6.7c1.2-2.2,2.4-4.4,3.5-6.6l2.6-5.4c0.2-0.4,0.7-0.6,1.5-0.7c0.7-0.1,1.6-0.1,2.4-0.1c1.2,0,2.2,0.1,3,0.3
	c0.7,0.2,1,0.5,0.7,1l-2.4,4.9L207.8,149.1z M208.3,179.5c0,2.8-2.2,5-5.1,5c-2.9,0-5.1-2.2-5.1-5s2.3-5,5.1-5
	C206.1,174.5,208.3,176.8,208.3,179.5z M199.4,179.5c0,2.2,1.6,4,3.9,4c2.2,0,3.8-1.8,3.8-3.9c0-2.2-1.6-4-3.8-4
	C201,175.5,199.4,177.3,199.4,179.5z M202.4,182.1h-1.2v-5c0.5-0.1,1.1-0.2,1.9-0.2c0.9,0,1.4,0.2,1.7,0.4s0.5,0.6,0.5,1.1
	s-0.4,1-1,1.2v0.1c0.5,0.2,0.8,0.5,0.9,1.2c0.2,0.8,0.2,1.1,0.4,1.2h-1.2c-0.2-0.2-0.2-0.6-0.4-1.2c-0.1-0.5-0.4-0.8-1-0.8h-0.5
	L202.4,182.1L202.4,182.1z M202.5,179.3h0.5c0.6,0,1.2-0.2,1.2-0.7s-0.3-0.8-1.1-0.8c-0.3,0-0.5,0-0.6,0.1L202.5,179.3L202.5,179.3z
	 M63.4,175.9h-2.6v-1.6h7.5v1.6h-2.7v6.7h-2.2C63.4,182.6,63.4,175.9,63.4,175.9z M76.6,179.1H73v2h4v1.5h-6.2v-8.3h6v1.5H73v1.7
	h3.6V179.1z M87.1,182.4c-0.4,0.2-1.3,0.4-2.5,0.4c-3.4,0-5.1-1.8-5.1-4.2c0-2.8,2.4-4.4,5.3-4.4c1.1,0,2,0.2,2.4,0.4l-0.4,1.5
	c-0.4-0.2-1.1-0.3-1.8-0.3c-1.7,0-3.1,0.9-3.1,2.7c0,1.7,1.2,2.7,3.1,2.7c0.7,0,1.4-0.1,1.8-0.3L87.1,182.4z M92.2,174.3v3.2h3.6
	v-3.2H98v8.3h-2.2v-3.5h-3.6v3.5H90v-8.3H92.2z M101.4,182.6v-8.3h2.6l2,3c0.6,0.9,1.2,1.9,1.6,2.8l0,0c-0.1-1.1-0.2-2.2-0.2-3.5
	v-2.4h2v8.3h-2.3l-2.1-3.2c-0.6-0.9-1.2-2-1.7-2.9l0,0c0.1,1.1,0.1,2.3,0.1,3.6v2.5L101.4,182.6L101.4,182.6z M121.6,178.4
	c0,2.7-1.9,4.4-4.8,4.4s-4.6-1.9-4.6-4.2c0-2.5,1.9-4.3,4.7-4.3C120,174.2,121.6,176.1,121.6,178.4z M114.6,178.5
	c0,1.6,0.9,2.8,2.4,2.8s2.3-1.2,2.3-2.8c0-1.5-0.8-2.8-2.3-2.8S114.6,176.9,114.6,178.5z M124.5,174.3h2.2v6.7h3.9v1.6h-6.1
	C124.5,182.6,124.5,174.3,124.5,174.3z M141.7,178.4c0,2.7-1.9,4.4-4.8,4.4c-2.9,0-4.6-1.9-4.6-4.2c0-2.5,1.9-4.3,4.7-4.3
	C140,174.2,141.7,176.1,141.7,178.4z M134.7,178.5c0,1.6,0.9,2.8,2.4,2.8s2.3-1.2,2.3-2.8c0-1.5-0.8-2.8-2.3-2.8
	C135.5,175.7,134.7,176.9,134.7,178.5z M152.7,182.3c-0.7,0.2-2,0.5-3.2,0.5c-1.8,0-3.1-0.4-3.9-1.1c-0.9-0.7-1.4-1.8-1.4-3
	c0-2.8,2.4-4.3,5.5-4.3c1.3,0,2.2,0.2,2.7,0.4l-0.5,1.5c-0.5-0.2-1.2-0.4-2.3-0.4c-1.8,0-3.2,0.9-3.2,2.7c0,1.7,1.3,2.7,3.1,2.7
	c0.5,0,0.9,0,1.1-0.1v-1.7h-1.5V178h3.6L152.7,182.3L152.7,182.3z M158,174.3v8.3h-2.2v-8.3H158z M167.2,179.1h-3.6v2h4v1.5h-6.2
	v-8.3h6v1.5h-3.8v1.7h3.6V179.1z M170.6,180.7c0.6,0.3,1.5,0.5,2.4,0.5c1,0,1.5-0.4,1.5-0.9s-0.5-0.8-1.6-1.2
	c-1.6-0.5-2.7-1.2-2.7-2.5c0-1.4,1.4-2.5,3.7-2.5c1.1,0,1.9,0.2,2.5,0.4l-0.5,1.5c-0.4-0.2-1.1-0.4-2-0.4s-1.4,0.4-1.4,0.8
	c0,0.5,0.5,0.8,1.8,1.2c1.7,0.5,2.5,1.3,2.5,2.5c0,1.4-1.3,2.6-3.9,2.6c-1.1,0-2.2-0.2-2.8-0.5L170.6,180.7z"/>
<g id="bally">
	<path fill="#EB202A" d="M97.2,149.1v1.5c0,2.4-0.8,4.6-2.3,6.8c-1.3,1.9-3.2,3.5-5.6,5c-1.9,1.2-3.8,2.1-5.9,2.8s-3.8,1-5.3,1
		c-2.7,0-4.7-0.3-6.2-1c-1.4-0.7-2.4-1.5-2.9-2.6c-0.5-1-0.8-2.1-0.8-3.1c0-1.4,0.5-2.6,1.4-3.6c1-1,2.1-1.4,3.4-1.3
		c1.1,0.1,2,0.6,2.6,1.4c0.6,0.8,0.9,1.8,1.1,2.9c0,1.4-0.2,2.4-0.7,3.1c3.8-0.7,7-2.2,9.6-4.6c2.6-2.4,3.9-5.1,3.9-8.3v-0.6
		c0-1.9-0.8-3.8-2.3-5.9c-1.7-2.2-3.5-4.5-5.2-6.8c0-2.2,2.4-4.4,7.2-6.4c7.3-3.2,11.8-5.3,13.3-6.4c4.8-3.4,7.2-7.7,7.2-13.2
		c0-7.6-5.3-11.4-15.8-11.4c-5,0-9.9,1-14.8,2.9s-9.9,5-15.1,9.1c-4.2,3.4-8.2,7.3-12,11.8c-3.9,4.5-7.2,9.1-10,13.8
		c-2.8,4.7-4.8,9.1-5.9,13.1c-0.7,2.6-1,4.9-1,7c0,2.4,0.2,4.5,0.7,6.3c1.2,4,3.8,6.1,7.7,6.1c1.9,0,3.6-0.5,5.3-1.5
		c1.6-1,3.3-2.5,4.8-4.5c2.6-3.4,5-7.8,7.5-13.3l5.8-13.3l1.7-3.5c3.2-6,5.6-10.1,7-12.3c3.5-5.3,6.7-8.7,9.5-10.4
		c1.6-0.9,3.1-1.6,4.7-2.1c1.6-0.6,3-0.8,4.2-0.8c1.1,0,1.7,0.3,1.8,0.9c0.1,0.5-1.2,1.5-3.8,3.1c-1.8,1.1-3.5,2.6-5,4.6
		c-2.7,3.4-6.4,10.3-11.1,20.6l-2,4.3l-4,9c-1.3,2.7-2.1,4.5-2.5,5.3c-1.5,2.9-3.2,5.5-5,8c-1.2,1.7-2.5,3.2-3.9,4.5
		c-2.2,2.1-4.5,3.6-6.8,4.5c-2.3,1-4.6,1.4-7,1.4c-3.4,0-6.6-0.9-9.5-2.8c-2.9-1.9-5.1-4.4-6.5-7.6c-1.1-2.3-1.6-4.7-1.6-7.3
		c0-0.6,0.1-1.3,0.2-2.3l0.7-3.7c0.5-2.2,1.1-4.5,1.9-6.7s1.7-4.4,2.8-6.5c5.8-12,15.1-22,27.6-29.9C72.2,98.7,83.7,95,95,95
		c7.7,0,13.7,1.4,18,4.2c4.3,2.8,6.4,7,6.4,12.7c0,7-3.4,12.3-10.2,16c-7.3,2.4-14.7,4.9-22,7.3l0.2,0.7c2.9,1.7,5.3,3.6,7.1,5.6
		C96.3,143.2,97.2,145.8,97.2,149.1L97.2,149.1z M157.2,130c2.5-4.4,4.9-8.9,7.2-13.6c2.5-5.4,3.8-9,3.8-10.8c0-0.7-0.2-1.1-0.7-1.1
		c-1.1,0-3.2,1.7-6.2,5.2s-5.4,6.9-7.2,10.2c-1.8,3.4-3.1,5.8-3.8,7.5c-1.3,2.8-2.5,5.6-3.5,8.5c-1.2,3.6-2.1,7.5-2.7,11.6
		c3.9-4,7-7.9,9.5-11.6L157.2,130z M179.5,132.4c1.4-2.7,2.7-5.4,3.9-8c1.5-3.4,2.2-5.6,2.2-6.8c0-0.9-0.3-1.4-1-1.4
		c-1,0-2.7,1.6-5.1,4.7c-2.1,2.7-4.2,5.8-6.2,9.3l-2.8,5.7c-0.9,1.9-1.6,3.7-2.1,5.4c-0.5,1.7-1,3.8-1.4,6.4
		c2.3-1.9,4.3-3.8,6.1-5.7c1.7-1.9,3.3-4,4.6-6.2L179.5,132.4z M207.8,149.1l-6.5,13.3l-9.6,19.8c-1,2.1-1.9,3.5-2.6,4.3
		c-0.9,1.1-1.9,1.6-2.9,1.6c-0.4,0-0.9-0.1-1.3-0.4c-1.2-0.7-1.9-1.7-1.9-3c0-1,0.3-2.1,1-3.5l10.1-18.8l1.7-3.1
		c-1.2,1.2-2.6,2.2-4.2,3.1c-2.2,1.2-4.2,1.8-5.9,1.8s-3.1-0.6-4.1-1.8c-0.7-0.9-1.4-2.1-1.9-3.8c-1,1.2-2.3,2.5-4,3.8
		c-1.4,1-2.8,1.8-4.2,2.4c-1.4,0.6-2.8,0.9-4.1,0.9c-2.5,0-4.7-1.1-6.4-3.3c-0.6-0.7-1.1-1.6-1.7-2.6c-0.4,0.4-0.8,0.9-1.3,1.4
		s-1,0.9-1.5,1.3c-1.7,1.3-3.7,2.4-5.7,3.3c-2.1,0.9-4,1.4-5.6,1.4c-1.7,0-3.1-0.4-4.4-1.3c-1.2-0.8-2.3-2-3.3-3.5l-0.9-1.6
		l-1.8,1.6c-3.7,3.2-7.3,4.9-10.9,4.9c-1.7,0-3.1-0.4-4.4-1.3c-1.2-0.9-2.3-2.1-3.2-3.5l-0.8-1.7l-1.7,1.7c-1.5,1.4-2.9,2.3-4.3,2.9
		c-1.4,0.6-2.9,0.9-4.6,0.9c-2.9,0-4.9-1.3-6-3.8c-0.7-1.6-1.1-3.5-1.1-5.8c0-2.1,0.6-4.6,1.9-7.6c1.1-2.4,2.5-4.7,4.1-7
		c1.6-2.2,3.5-4.3,5.6-6.3c2.7-2.4,5.5-4.4,8.4-5.8c3-1.4,6-2.1,9.2-2.1c3.9,0,5.8,1.6,5.8,4.7c0.1,1.2-0.4,2.3-1.5,3.3
		c-0.6,0.6-1.3,0.9-2.1,0.9c-1.1,0-1.9-0.1-2.5-0.3s-1.1-0.5-1.4-0.8c-0.4-0.3-0.6-0.8-0.7-1.4c-0.1-0.6-0.3-1-0.5-1
		c-0.2-0.1-0.5-0.1-0.8-0.1c-1.5,0-3.4,0.9-5.7,2.7c-2,1.6-3.9,3.5-5.6,5.8c-1.8,2.3-3.2,4.7-4.3,7.3c-1.1,2.6-1.6,5-1.6,7.2
		c0,1,0.1,1.9,0.4,2.6c0.3,0.7,1,1.1,2.1,1.1c1.4,0,3.1-1.2,5.1-3.5c1.6-1.8,3.4-4.3,5.3-7.4c0.9-1.5,1.9-3.1,2.9-4.9
		s1.8-3.2,2.3-4.2c0.3-0.4,1.5-0.7,3.5-0.7c1.2,0,2.3,0.1,3.1,0.3c0.8,0.2,1.1,0.5,1,1l-3.7,8.5c-0.9,2-1.4,3.3-1.7,4
		c-0.4,1.1-0.9,2.4-1.4,4c-0.1,0.5-0.2,0.8-0.2,1c0,0.6,0.3,1.1,0.8,1.4c0.5,0.3,1.2,0.4,2.1,0.4c0.9,0,2.4-0.7,4.4-2.2
		s3.2-2.5,3.7-3.2c0-0.9,0-1.8,0-2.7c0-0.8,0.4-7,0.9-9s1.2-4.3,2.1-7c0.5-1.2,1-2.5,1.5-3.8s1.1-2.6,1.7-4
		c3.5-7.5,7.8-14,12.7-19.7c5.4-6.2,10-9.3,13.7-9.3c1.8,0,3.1,0.5,3.9,1.5c0.8,1,1.2,2.5,1.2,4.3c0,3.2-1,7.2-3.1,12.2
		c-1.5,3.6-3.5,7.5-5.9,11.6c-0.7,1.2-1.4,2.3-2,3.3c-0.7,1-1.5,2.3-2.5,3.8c-1.6,2.4-3.3,4.6-5,6.7c-1.7,2.1-3.7,4.3-6,6.6l-5,4.7
		c0,1.6,0.5,3,1.5,4.2c1,1.3,2.4,1.9,4.3,1.9c1.2,0,2.8-0.6,4.8-1.9c1.6-1,2.9-2.1,3.9-3.2l0.7-5.8c0.7-4.4,2.1-8.8,4.2-13.2l2-3.8
		c2.9-5.5,6.6-10.5,11.1-15.2s7.9-7,10.3-7c1.6,0,2.7,0.4,3.3,1.3c0.7,0.9,1,2.2,1,3.9c0,2.7-0.8,5.9-2.3,9.8
		c-1.5,3.8-3.4,7.5-5.6,11.1c-1.6,2.4-3.1,4.7-4.8,6.8c-2.1,2.6-4,4.8-5.9,6.4c-1.5,1.4-3.2,2.6-5,3.8c-0.1,0.2-0.1,0.6-0.1,1.1
		c0,1.2,0.3,2.2,1,3s1.8,1.2,3.5,1.2c1.5,0,3-0.7,4.7-2.1c1.6-1.4,3.3-3.8,4.9-7l0.6-1.1c1.1-2.2,2.2-4.4,3.5-6.5
		c1-1.7,2.1-3.6,3.4-5.6l3.8-6.3c0.1-0.2,0.6-0.4,1.4-0.6c0.8-0.2,1.6-0.3,2.4-0.3c1.2,0,2.1,0.1,2.8,0.3c0.7,0.2,0.9,0.6,0.7,1.2
		c-0.1,0.2-0.3,0.6-0.7,1.3c-0.7,1.2-1.5,2.7-2.4,4.3c-1.2,2-2.4,4.1-3.6,6.4c-1.5,2.7-2.6,5-3.5,6.8c-1.3,2.8-2,4.9-2,6.3
		c0,1.2,0.5,1.8,1.5,1.8c1.5,0,2.9-0.6,4.3-1.7c1.4-1.1,3.1-3.3,5.2-6.4c1.5-2.2,2.9-4.5,4.1-6.7c1.2-2.2,2.4-4.4,3.5-6.6l2.6-5.4
		c0.2-0.4,0.7-0.6,1.5-0.7c0.7-0.1,1.6-0.1,2.4-0.1c1.2,0,2.2,0.1,3,0.3c0.7,0.2,1,0.5,0.7,1l-2.4,4.9L207.8,149.1z M208.3,179.5
		c0,2.8-2.2,5-5.1,5c-2.9,0-5.1-2.2-5.1-5s2.3-5,5.1-5C206.1,174.5,208.3,176.8,208.3,179.5z M199.4,179.5c0,2.2,1.6,4,3.9,4
		c2.2,0,3.8-1.8,3.8-3.9c0-2.2-1.6-4-3.8-4C201,175.5,199.4,177.3,199.4,179.5z M202.4,182.1h-1.2v-5c0.5-0.1,1.1-0.2,1.9-0.2
		c0.9,0,1.4,0.2,1.7,0.4s0.5,0.6,0.5,1.1s-0.4,1-1,1.2v0.1c0.5,0.2,0.8,0.5,0.9,1.2c0.2,0.8,0.2,1.1,0.4,1.2h-1.2
		c-0.2-0.2-0.2-0.6-0.4-1.2c-0.1-0.5-0.4-0.8-1-0.8h-0.5L202.4,182.1L202.4,182.1z M202.5,179.3h0.5c0.6,0,1.2-0.2,1.2-0.7
		s-0.3-0.8-1.1-0.8c-0.3,0-0.5,0-0.6,0.1L202.5,179.3L202.5,179.3z"/>
	<path id="tech" fill="#8C8B8B" d="M63.4,175.9h-2.6v-1.6h7.5v1.6h-2.7v6.7h-2.2C63.4,182.6,63.4,175.9,63.4,175.9z M76.6,179.1H73
		v2h4v1.5h-6.2v-8.3h6v1.5H73v1.7h3.6V179.1z M87.1,182.4c-0.4,0.2-1.3,0.4-2.5,0.4c-3.4,0-5.1-1.8-5.1-4.2c0-2.8,2.4-4.4,5.3-4.4
		c1.1,0,2,0.2,2.4,0.4l-0.4,1.5c-0.4-0.2-1.1-0.3-1.8-0.3c-1.7,0-3.1,0.9-3.1,2.7c0,1.7,1.2,2.7,3.1,2.7c0.7,0,1.4-0.1,1.8-0.3
		L87.1,182.4z M92.2,174.3v3.2h3.6v-3.2H98v8.3h-2.2v-3.5h-3.6v3.5H90v-8.3H92.2z M101.4,182.6v-8.3h2.6l2,3
		c0.6,0.9,1.2,1.9,1.6,2.8l0,0c-0.1-1.1-0.2-2.2-0.2-3.5v-2.4h2v8.3h-2.3l-2.1-3.2c-0.6-0.9-1.2-2-1.7-2.9l0,0
		c0.1,1.1,0.1,2.3,0.1,3.6v2.5L101.4,182.6L101.4,182.6z M121.6,178.4c0,2.7-1.9,4.4-4.8,4.4s-4.6-1.9-4.6-4.2
		c0-2.5,1.9-4.3,4.7-4.3C120,174.2,121.6,176.1,121.6,178.4z M114.6,178.5c0,1.6,0.9,2.8,2.4,2.8s2.3-1.2,2.3-2.8
		c0-1.5-0.8-2.8-2.3-2.8S114.6,176.9,114.6,178.5z M124.5,174.3h2.2v6.7h3.9v1.6h-6.1C124.5,182.6,124.5,174.3,124.5,174.3z
		 M141.7,178.4c0,2.7-1.9,4.4-4.8,4.4c-2.9,0-4.6-1.9-4.6-4.2c0-2.5,1.9-4.3,4.7-4.3C140,174.2,141.7,176.1,141.7,178.4z
		 M134.7,178.5c0,1.6,0.9,2.8,2.4,2.8s2.3-1.2,2.3-2.8c0-1.5-0.8-2.8-2.3-2.8C135.5,175.7,134.7,176.9,134.7,178.5z M152.7,182.3
		c-0.7,0.2-2,0.5-3.2,0.5c-1.8,0-3.1-0.4-3.9-1.1c-0.9-0.7-1.4-1.8-1.4-3c0-2.8,2.4-4.3,5.5-4.3c1.3,0,2.2,0.2,2.7,0.4l-0.5,1.5
		c-0.5-0.2-1.2-0.4-2.3-0.4c-1.8,0-3.2,0.9-3.2,2.7c0,1.7,1.3,2.7,3.1,2.7c0.5,0,0.9,0,1.1-0.1v-1.7h-1.5V178h3.6L152.7,182.3
		L152.7,182.3z M158,174.3v8.3h-2.2v-8.3H158z M167.2,179.1h-3.6v2h4v1.5h-6.2v-8.3h6v1.5h-3.8v1.7h3.6V179.1z M170.6,180.7
		c0.6,0.3,1.5,0.5,2.4,0.5c1,0,1.5-0.4,1.5-0.9s-0.5-0.8-1.6-1.2c-1.6-0.5-2.7-1.2-2.7-2.5c0-1.4,1.4-2.5,3.7-2.5
		c1.1,0,1.9,0.2,2.5,0.4l-0.5,1.5c-0.4-0.2-1.1-0.4-2-0.4s-1.4,0.4-1.4,0.8c0,0.5,0.5,0.8,1.8,1.2c1.7,0.5,2.5,1.3,2.5,2.5
		c0,1.4-1.3,2.6-3.9,2.6c-1.1,0-2.2-0.2-2.8-0.5L170.6,180.7z"/>
</g>
</svg>
