<?xml version="1.0" encoding="utf-8"?>
<!-- Generator: Adobe Illustrator 19.0.0, SVG Export Plug-In . SVG Version: 6.00 Build 0)  -->
<svg version="1.1" id="casinogames" xmlns="http://www.w3.org/2000/svg" xmlns:xlink="http://www.w3.org/1999/xlink" x="0px"
	 y="0px" viewBox="50 171 800 660" style="enable-background:new 50 171 800 660;" xml:space="preserve">
<style type="text/css">
	.st0{fill:url(#SVGID_1_);}
	.st1{fill:#FFFFFF;}
</style>
<radialGradient id="SVGID_1_" cx="448.0901" cy="480.0227" r="395.4959" gradientTransform="matrix(0.9639 0 0 -0.88 18.0859 923.42)" gradientUnits="userSpaceOnUse">
	<stop  offset="0.5" style="stop-color:#262626"/>
	<stop  offset="1" style="stop-color:#1A1A1A"/>
</radialGradient>
<rect x="50" y="171" class="st0" width="800" height="660"/>
<path class="st1" d="M449.7,409.2l-13.3-13l18.4-2.7l8.2-16.7l8.2,16.7l18.4,2.7l-13.3,13l3.1,18.3l-16.4-8.6l-16.5,8.6L449.7,409.2
	z M503.9,409.1l2.7-5.4c-1.6-1.4-2.5-3.5-2.4-5.7l2.9-76.9c0.2-4,3.6-7.2,7.6-7l76.9,2.9c4,0.1,7.2,3.6,7,7.6l-0.4,12.2
	c-5-2.5-11-1.3-14.6,2.7c-0.3-4.7-4.2-8.6-9.1-8.8c-5.2-0.2-9.7,3.9-9.9,9.2c-0.2,5.2,3.9,9.7,9.2,9.9c1.5,0.1,2.9-0.3,4.3-0.8
	l-32.2,58l-27-1l1.6,3.2l18.4,2.7l-13.3,13l3.1,18.4l-16.4-8.7l-16.5,8.7l3.1-18.4l-13.3-13L503.9,409.1z M541.8,361
	c-0.2,5.2,3.9,9.7,9.2,9.9c5.2,0.2,9.7-3.9,9.9-9.2c0.2-5.3-3.9-9.7-9.2-9.9C546.5,351.6,542,355.7,541.8,361z M520.8,338.2
	c-0.2,5.2,3.9,9.7,9.2,9.9c5.2,0.2,9.7-3.9,9.9-9.2c0.2-5.2-3.9-9.7-9.2-9.9C525.4,328.9,521,333,520.8,338.2z M519.1,382
	c-0.2,5.2,3.9,9.7,9.2,9.9c5.2,0.2,9.7-3.9,9.9-9.2c0.2-5.2-3.9-9.7-9.2-9.9C523.8,372.6,519.3,376.7,519.1,382z M502.8,510.1
	l15.9,18.7l15.9-18.7l-15.9-18.7L502.8,510.1z M478.5,510.1l-15.9-18.7l-15.9,18.7l15.9,18.7L478.5,510.1z M422.5,510.1l-15.9-18.7
	l-15.9,18.7l15.9,18.7L422.5,510.1z M386.8,600.5l-39,58.7c-2.7,4.1-8.3,5.2-12.4,2.5L247,603c-4.1-2.7-5.2-8.3-2.5-12.4l39-58.7
	c2.7-4.1,8.3-5.2,12.4-2.5l88.4,58.7C388.4,590.9,389.5,596.4,386.8,600.5z M267.9,596.5l-0.4-0.2c-0.9-0.3-1.9-0.8-2.8-1.4
	c0.6-0.4,1.1-0.9,1.5-1.4c0.5-0.8,0.8-1.6,0.7-2.5c-0.1-1-0.5-1.8-1.3-2.4c-1.3-1-3.5-1.2-6.8-0.8c-2.2,0.3-4.2,0.9-4.2,0.9
	l-0.9,0.2l0.1,0.9c0,0.1,0.3,2.1,0.9,4.2c0.8,3.2,1.9,5.2,3.3,6c0.9,0.5,1.8,0.6,2.7,0.2c0.9-0.3,1.6-0.8,2.1-1.6
	c0.4-0.5,0.7-1.2,0.8-1.9c1,0.7,1.7,1.3,2.4,2l0.3,0.4L267.9,596.5z M342.5,606.8l-1.6-0.5c-3.1-1-6.2-2.6-9.6-4.8
	c2-1.4,3.7-3,4.9-4.9c1.7-2.6,2.5-5.4,2.4-8.5c-0.2-3.3-1.6-6.2-4.3-8.1c-4.4-3.2-12.1-4-23-2.6c-7.5,1-14.1,2.8-14.4,2.9l-3,0.8
	l0.4,3.1c0.1,0.3,0.9,6.9,2.9,14.4c2.8,10.6,6.6,17.4,11.2,20.2c2.8,1.7,5.9,2,9.1,0.8c2.9-1.1,5.2-2.9,6.9-5.5
	c1.2-1.8,2.1-4,2.6-6.4c3.3,2.2,6,4.5,8.2,6.9l1.1,1.3L342.5,606.8z M377.2,601.8l-0.1-0.9c0-0.1-0.3-2.1-0.9-4.2
	c-0.8-3.1-2-5.1-3.2-5.9c-0.9-0.5-1.8-0.6-2.7-0.2c-0.9,0.3-1.6,0.8-2.1,1.6c-0.4,0.5-0.7,1.2-0.8,1.9c-1-0.7-1.8-1.3-2.4-2
	l-0.3-0.4l-1.8,2.6l0.4,0.2c0.9,0.3,1.9,0.8,2.8,1.4c-0.6,0.4-1.1,0.9-1.5,1.4c-0.5,0.8-0.7,1.6-0.7,2.5c0,0.9,0.5,1.8,1.3,2.4
	c1.3,1,3.5,1.2,6.8,0.8c2.2-0.3,4.2-0.9,4.2-0.9L377.2,601.8z M666.2,388.5l-37.4,67.3c-2,3.5-6.5,4.8-10,2.9l-67.2-37.3
	c-3.5-2-4.8-6.5-2.9-10l37.3-67.2c2-3.6,6.5-4.8,10-2.9l67.3,37.4C666.9,380.5,668.2,385,666.2,388.5z M582.4,400.1
	c-4.6-2.6-10.4-0.9-12.9,3.7c-2.6,4.6-0.9,10.4,3.7,12.9c4.6,2.6,10.4,0.8,12.9-3.7C588.6,408.4,586.9,402.7,582.4,400.1z
	 M612.1,391.6c-4.6-2.6-10.4-0.9-12.9,3.7c-2.6,4.6-0.9,10.4,3.7,12.9c4.6,2.6,10.4,0.8,12.9-3.7
	C618.4,399.9,616.7,394.2,612.1,391.6z M641.9,383.1c-4.6-2.6-10.4-0.9-12.9,3.7c-2.6,4.6-0.9,10.4,3.7,12.9
	c4.6,2.6,10.4,0.8,12.9-3.7C648.1,391.4,646.5,385.7,641.9,383.1z M564.5,630.2l-17.3,5.8c-1.5,0.5-3.2-0.3-3.7-1.8l-5.8-17.3
	c-0.5-1.5,0.3-3.2,1.8-3.7l17.3-5.8c1.5-0.5,3.2,0.3,3.7,1.8l5.8,17.3C566.9,628,566.1,629.7,564.5,630.2z M560.6,628.5l-3.3-5.9
	l3.2-6l-6.6,1.3l-4.7-4.9l-0.8,6.7l-6.1,3l6.2,2.8l0.9,6.7l4.5-5L560.6,628.5z M576.7,656.8c0.5,1.5-0.3,3.2-1.8,3.7l-17.3,5.8
	c-1.5,0.5-3.2-0.3-3.7-1.8l-5.8-17.3c-0.5-1.5,0.3-3.2,1.8-3.7l17.3-5.8c1.5-0.5,3.2,0.3,3.7,1.8L576.7,656.8z M570.8,658.8
	l-3.3-5.9l3.2-6l-6.6,1.3l-4.7-4.9l-0.8,6.7l-6.1,3l6.2,2.8l0.9,6.7l4.5-5L570.8,658.8z M594.9,619.9l-17.3,5.8
	c-1.5,0.5-3.2-0.3-3.7-1.8l-5.8-17.3c-0.5-1.5,0.3-3.2,1.8-3.7l17.3-5.8c1.5-0.5,3.2,0.3,3.7,1.8l5.8,17.3
	C597.2,617.7,596.4,619.4,594.9,619.9z M591,618.2l-3.3-5.9l3.2-6l-6.6,1.3l-4.7-4.9l-0.8,6.7l-6.1,3l6.2,2.8l0.9,6.7l4.6-5
	L591,618.2z M607,646.6c0.5,1.5-0.3,3.2-1.8,3.7l-17.3,5.8c-1.5,0.5-3.2-0.3-3.7-1.8l-5.8-17.3c-0.5-1.5,0.3-3.2,1.8-3.7l17.3-5.8
	c1.5-0.5,3.2,0.3,3.7,1.8L607,646.6z M601.2,648.5l-3.3-5.9l3.2-6l-6.6,1.3l-4.7-4.9l-0.8,6.7l-6.1,3l6.2,2.8l0.9,6.7l4.6-5
	L601.2,648.5z M546.4,667.1c0.5,1.5-0.3,3.2-1.8,3.7l-17.3,5.8c-1.5,0.5-3.2-0.3-3.7-1.8l-5.8-17.3c-0.5-1.5,0.3-3.2,1.8-3.7
	l17.3-5.8c1.5-0.5,3.2,0.3,3.7,1.8L546.4,667.1z M540.5,669l-3.3-5.9l3.2-6l-6.6,1.3l-4.7-4.9l-0.8,6.7l-6.1,3l6.2,2.8l0.9,6.7
	l4.6-4.9L540.5,669z M524,610.1l-17.3,5.8c-1.5,0.5-3.2-0.3-3.7-1.8l-5.8-17.3c-0.5-1.5,0.3-3.2,1.8-3.7l17.3-5.8
	c1.5-0.5,3.2,0.3,3.7,1.8l5.8,17.3C526.4,607.9,525.5,609.6,524,610.1z M520,608.3l-3.3-5.9l3.2-5.9l-6.6,1.3l-4.7-4.9l-0.8,6.7
	l-6.1,3l6.2,2.8l0.9,6.7l4.6-5L520,608.3z M557.8,576.3c-0.5-1.5,0.3-3.2,1.8-3.7l17.3-5.8c1.5-0.5,3.2,0.3,3.7,1.8l5.8,17.3
	c0.5,1.5-0.3,3.2-1.8,3.7l-17.3,5.8c-1.5,0.5-3.2-0.3-3.7-1.8L557.8,576.3z M562.4,582.2l6.2,2.8l0.9,6.7l4.6-5l6.7,1.1l-3.3-5.9
	l3.2-5.9l-6.6,1.3l-4.7-4.9l-0.8,6.7L562.4,582.2z M527.4,586.6c-0.5-1.5,0.3-3.2,1.8-3.7l17.3-5.8c1.5-0.5,3.2,0.3,3.7,1.8
	l5.8,17.3c0.5,1.5-0.3,3.2-1.8,3.7l-17.3,5.8c-1.5,0.5-3.2-0.3-3.7-1.8L527.4,586.6z M532.1,592.5l6.2,2.8l0.9,6.7l4.5-5l6.6,1.1
	l-3.3-5.9l3.3-5.9l-6.6,1.3l-4.7-4.9l-0.8,6.7L532.1,592.5z M626.2,650.4l3.2,9.5L513.8,699l-3.2-9.5l-35.8-106.1l44.9-15.2h-20.1
	h-17h-39h-17h-29.7l12,16.2c3,4,2.1,9.6-1.9,12.5l-24.3,17.9l7.8-11.8c1.4-2.1,2.2-4.5,2.3-6.9c1.1,1.3,3,1.6,4.4,0.6l0,0
	c1.4-1.1,1.7-3,0.7-4.5c-0.1-0.3-0.4-0.6-0.7-0.8c-0.3-0.2-0.9-0.5-1.4-0.8c-0.4-0.2-0.8-0.4-1.2-0.6c0.4-0.1,0.9-0.2,1.3-0.2
	c0.7-0.1,1.3-0.2,1.7-0.3c0.4-0.1,0.7-0.3,1-0.5l0,0c1.4-1,1.7-3.1,0.7-4.5c-1.1-1.4-3.1-1.8-4.5-0.7l0,0c-0.3,0.2-0.5,0.4-0.7,0.7
	c-0.2,0.3-0.5,0.9-0.8,1.4c-0.2,0.6-0.5,1.2-0.8,1.5c-0.1,0-0.2,0-0.2,0c-1.4-1.8-2.5-3.6-3.3-5.2l-0.2-0.4l-2.6,2l-26.2-17.4
	c0.2-0.1,0.4-0.2,0.6-0.4l0.1-0.1c3.8-2.9,4.5-8.3,1.6-12c-2.8-3.7-8.2-4.5-11.9-1.7l-0.1,0.1c-0.8,0.6-1.4,1.3-1.9,2
	c-0.5,0.7-1.1,1.9-1.7,3.2l-2.3-1.5c-0.2-1-0.3-1.9-0.5-2.4c-0.2-0.9-0.7-1.7-1.2-2.5c-2.3-3.3-6.6-4.4-10.2-3l-34-22.6
	c-0.6-0.4-1.3-0.7-2-1.1l37-27.3c4-3,9.6-2.1,12.3,1.9l24.3,33v-74.5c-12,8.4-26.6,13.3-42.4,13.3c-41,0-74.2-33.2-74.2-74.2
	s33.2-74.2,74.2-74.2s74.2,33.2,74.2,74.2c0,4.5-0.4,8.9-1.2,13.2l5.1-0.7l8.2-16.7l8.2,16.7l18.4,2.7l-13.3,13l3.1,18.4l-16.4-8.7
	l-16.5,8.7l3.2-18.4l-3.1-3c-4.1,11.3-10.8,21.4-19.4,29.4h48.3h17h39h17h55.8v105.1l35-11.8L626.2,650.4z M264.7,366.1
	c0.8,0.8,5.6-8.8,14.3-17.4c8.7-8.7,17.9-13.1,17.1-13.9c-0.8-0.9-11.4,3-20,11.7C267.5,355.1,264,365.3,264.7,366.1z M327.7,462.9
	c30,0,55.4-20,63.5-47.4l-3.8-3.7l5-0.7c1-4.6,1.6-9.4,1.6-14.4c0-36.6-29.7-66.2-66.2-66.2s-66.2,29.7-66.2,66.2
	C261.5,433.3,291.2,462.9,327.7,462.9z M426.3,468.1h-39v83.3h39V468.1z M482.3,468.1h-39v83.3h39V468.1z M538.3,551.3v-83.3h-39
	v83.3H538.3z M613.3,646.7l-27.8-82.1c-1.2-3.5-5-5.4-8.5-4.2l-21.7,7.3v0.5H554l-59,19.9c-3.5,1.2-5.4,5-4.2,8.5l27.8,82.1
	c1.2,3.5,5,5.4,8.5,4.2l82.1-27.7C612.6,654.1,614.5,650.3,613.3,646.7z M534.2,640.4l-17.3,5.8c-1.5,0.5-3.2-0.3-3.7-1.8l-5.8-17.3
	c-0.5-1.5,0.3-3.2,1.8-3.7l17.3-5.8c1.5-0.5,3.2,0.3,3.7,1.8l5.8,17.3C536.6,638.2,535.8,639.9,534.2,640.4z M530.3,638.7l-3.3-5.9
	l3.2-5.9l-6.6,1.3l-4.7-4.9l-0.8,6.7l-6.1,3l6.2,2.8l0.9,6.7l4.6-5L530.3,638.7z M342.1,387.1c1.4-1.4,1.4-3.5,0-4.8
	c-1.4-1.4-3.5-1.4-4.8,0c-0.9,0.9-1.2,2.3-0.8,3.5c-2.3,1.5-5.4,4.1-8.7,7.3c-3.3-3.2-6.5-5.8-8.7-7.3c0.4-1.2,0.1-2.5-0.8-3.5
	c-1.4-1.4-3.5-1.4-4.8,0c-1.4,1.4-1.4,3.5,0,4.8c0.9,0.9,2.3,1.2,3.5,0.8c1.5,2.3,4.1,5.4,7.3,8.7c-3.2,3.3-5.8,6.5-7.3,8.8
	c-1.2-0.4-2.5-0.1-3.5,0.8c-1.4,1.4-1.4,3.5,0,4.8c1.4,1.4,3.5,1.4,4.8,0c0.9-0.9,1.2-2.3,0.8-3.5c2.3-1.5,5.4-4.1,8.7-7.3
	c3.3,3.2,6.5,5.8,8.7,7.3c-0.4,1.2-0.1,2.5,0.8,3.5c1.4,1.4,3.5,1.4,4.8,0c1.4-1.4,1.4-3.5,0-4.8c-0.9-0.9-2.3-1.2-3.5-0.8
	c-1.5-2.3-4.1-5.4-7.3-8.8c3.2-3.3,5.8-6.5,7.3-8.7C339.9,388.3,341.2,388.1,342.1,387.1z M377.8,414.2c-1.1,3-2.3,5.8-3.8,8.5
	l-0.4,0.7l-0.4,0.7c-1.6,2.7-3.5,5.2-5.5,7.5l-0.6,0.7l-0.6,0.6c-2,2.3-4.4,4.3-6.9,6.2l-0.7,0.5l-0.7,0.5c-2.5,1.7-5.3,3.3-8,4.6
	l-0.8,0.4l-0.8,0.4c-2.8,1.2-5.8,2.2-8.8,2.8l-0.9,0.2l-0.9,0.2c-3,0.6-6.1,0.9-9.2,0.9h-0.9h-0.9c-3.1-0.1-6.2-0.4-9.2-0.9
	l-0.9-0.2l-0.9-0.2c-3-0.7-5.9-1.6-8.8-2.8l-0.8-0.4l-0.8-0.4c-2.8-1.3-5.4-2.8-8-4.6l-0.7-0.5l-0.7-0.5c-2.4-1.9-4.8-4-6.9-6.2
	l-0.6-0.6l-0.6-0.7c-2-2.3-3.8-4.8-5.4-7.5l-0.4-0.7l-0.4-0.7c-1.5-2.7-2.8-5.6-3.8-8.5l-0.2-0.9l-0.2-0.9c-0.9-3-1.6-6-2-9.1
	l-0.1-0.9l-0.1-0.9c-0.2-1.6-0.2-3.3-0.2-4.9c0-1.4,0.1-2.9,0.2-4.4l0.1-0.9l0.1-0.9c0.3-3.1,1-6.1,1.9-9.1l0.2-0.9l0.2-0.9
	c1-3,2.3-5.8,3.8-8.5l0.5-0.8l0.4-0.7c1.5-2.7,3.4-5.2,5.4-7.5l0.6-0.7l0.6-0.7c2.1-2.3,4.5-4.4,6.9-6.2l0.7-0.5l0.7-0.5
	c2.6-1.8,5.3-3.4,8.1-4.7l0.8-0.4l0.8-0.4c2.9-1.2,5.9-2.2,8.9-2.9l0.9-0.2l0.9-0.2c3-0.6,6.2-0.9,9.3-1h0.9h0.9
	c3.1,0.1,6.2,0.4,9.3,1l0.9,0.2l0.9,0.2c3.1,0.7,6.1,1.7,8.9,2.9l0.8,0.4l0.9,0.4c2.8,1.3,5.5,2.9,8,4.7l0.7,0.5l0.7,0.5
	c2.5,1.9,4.8,4,6.9,6.2l0.6,0.7l0.6,0.7c2,2.3,3.8,4.9,5.4,7.5l0.4,0.7l0.4,0.7c1.5,2.7,2.8,5.6,3.8,8.5l0.2,0.9l0.2,0.9
	c0.9,3,1.5,6,1.9,9.1l0.1,0.9l0.1,0.9c0.1,1.5,0.2,2.9,0.2,4.4c0,1.6-0.1,3.3-0.1,4.9l-0.1,0.9l-0.1,0.9c-0.4,3.1-1.1,6.1-2,9.1
	l-0.2,0.9L377.8,414.2z M375.5,392.8l-5.3,0.6c0.1,1.1,0.1,2.2,0.1,3.3c0,1.3-0.1,2.5-0.2,3.8l8.6,0.9c0.1-1.5,0.2-3.2,0.2-4.7
	c0-1.4-0.1-2.8-0.1-4.3L375.5,392.8z M365,376.4c1.1,2.1,2.1,4.3,2.8,6.6l2.3-0.7l5.9-1.9c-1-2.8-2.2-5.6-3.6-8.2l-2,1.1L365,376.4z
	 M353.6,363c1.9,1.5,3.7,3.1,5.3,4.8l1.1-1l5.3-4.8c-2-2.2-4.3-4.2-6.6-6L353.6,363z M337.5,355.4c2.3,0.6,4.6,1.3,6.8,2.2l1.7-3.8
	l1.9-4.1c-2.8-1.2-5.6-2.1-8.5-2.8L337.5,355.4z M317.9,346.5l0.6,2.5l1.3,5.9c2.3-0.4,4.7-0.7,7.1-0.7v-8.7
	C323.8,345.6,320.9,346,317.9,346.5z M298.3,354.9l5.1,7c2-1.4,4-2.6,6.2-3.6l-2.6-5.9l-0.9-2C303.4,351.7,300.8,353.2,298.3,354.9z
	 M283.8,370.6l7.5,4.3c1.2-2,2.7-4,4.2-5.8l-6.4-5.8C287.1,365.6,285.3,368,283.8,370.6z M277,390.7l6.7,0.7l1.9,0.2
	c0.2-2.3,0.7-4.7,1.4-7l-8.2-2.7C277.9,384.8,277.3,387.7,277,390.7z M287.1,409.2l0.1-0.1c-0.7-2.2-1.2-4.6-1.5-6.9l-8.6,0.9
	c0.4,3,1,5.9,1.9,8.7L287.1,409.2z M295.7,424.6c-1.5-1.7-3-3.6-4.2-5.7l-7.5,4.3c1.5,2.5,3.3,4.9,5.3,7.2L295.7,424.6z
	 M309.7,435.2c-2.1-1-4.1-2.2-6.1-3.5l-3,4.1l-2,2.8c2.4,1.7,5,3.2,7.7,4.5l3.1-7L309.7,435.2z M326.8,439.2c-2.3-0.1-4.7-0.3-7-0.7
	l-1.5,7l-0.3,1.4c2.9,0.6,5.9,0.9,8.8,1V439.2z M347.7,443.8l-2.2-5.1l-1.2-2.8c-2.2,0.9-4.5,1.6-6.7,2.2l1.8,8.5
	C342.1,445.9,344.9,445,347.7,443.8z M351.5,429.7c2.3-1.6,4.4-3.5,6.3-5.6c1.9-2.1,3.6-4.4,4.9-6.8c1.5-2.4,2.7-5.1,3.5-7.7
	c0.9-2.7,1.5-5.4,1.8-8.3c0.2-1.5,0.2-3,0.2-4.5c0-1.4-0.1-2.7-0.2-4c-0.3-2.8-0.9-5.6-1.7-8.3c-0.9-2.7-2-5.3-3.5-7.8
	s-3.1-4.8-5-6.9c-1.9-2.1-4-4.1-6.3-5.8c-2.3-1.7-4.8-3.2-7.4-4.3c-2.5-1.2-5.3-2-8.1-2.7c-2.8-0.6-5.7-0.9-8.5-0.9
	c-2.9,0-5.8,0.2-8.5,0.9c-2.8,0.6-5.5,1.5-8.1,2.7c-2.5,1.2-5.1,2.7-7.4,4.3c-2.3,1.7-4.4,3.6-6.3,5.8c-1.9,2.1-3.6,4.5-5,6.9
	c-1.4,2.5-2.5,5.1-3.4,7.8c-0.9,2.7-1.5,5.5-1.7,8.3c-0.1,1.4-0.2,2.7-0.2,4c0,1.5,0.1,3,0.2,4.5c0.3,2.8,0.9,5.6,1.8,8.3
	c0.9,2.7,2.1,5.3,3.5,7.7c1.4,2.4,3.1,4.7,5,6.8c1.9,2,4,4,6.3,5.6c2.3,1.7,4.8,3.1,7.4,4.2c2.6,1.1,5.3,2,8,2.6
	c2.7,0.6,5.6,0.9,8.4,0.9c2.8,0,5.6-0.3,8.4-0.9c2.7-0.6,5.4-1.5,8-2.6C346.8,432.8,349.3,431.4,351.5,429.7z M365,431.7l-6.4-5.8
	c-1.6,1.7-3.4,3.3-5.3,4.7l1,1.4l4.1,5.6C360.8,435.8,363,433.8,365,431.7z M376,413.5l-8.2-2.7c-0.8,2.3-1.7,4.4-2.9,6.5l7.5,4.3
	C373.8,419.1,375,416.3,376,413.5z"/>
</svg>
