<?xml version="1.0" encoding="utf-8"?>
<!-- Generator: Adobe Illustrator 17.1.0, SVG Export Plug-In . SVG Version: 6.00 Build 0)  -->
<!DOCTYPE svg PUBLIC "-//W3C//DTD SVG 1.1//EN" "http://www.w3.org/Graphics/SVG/1.1/DTD/svg11.dtd">
<svg version="1.1" xmlns="http://www.w3.org/2000/svg" xmlns:xlink="http://www.w3.org/1999/xlink" x="0px" y="0px"
	 viewBox="0 0 800 660" enable-background="new 0 0 800 660" xml:space="preserve">
<g id="Layer_2">
	
		<radialGradient id="SVGID_1_" cx="399.9813" cy="329.9318" r="395.506" gradientTransform="matrix(0.9639 0 0 0.88 14.4759 39.66)" gradientUnits="userSpaceOnUse">
		<stop  offset="0.5" style="stop-color:#262626"/>
		<stop  offset="1" style="stop-color:#1A1A1A"/>
	</radialGradient>
	<rect fill="url(#SVGID_1_)" width="800" height="660"/>
</g>
<g id="Layer_1">
	<path fill="#FFFFFF" d="M592.2,177.2H207.8c-14.7,0-26.8,12.1-26.8,26.8v252c0,14.7,12.1,26.8,26.8,26.8h384.5
		c14.7,0,26.8-12.1,26.8-26.8V204C619,189.2,607,177.2,592.2,177.2z M400,471.2c-12.5,0-22.7-10.2-22.7-22.7s10.2-22.7,22.7-22.7
		s22.7,10.2,22.7,22.7S412.5,471.2,400,471.2z M601.2,407.3c0,4.9-4.1,9-9,9H207.8c-4.9,0-9-4.1-9-9V204c0-4.9,4.1-9,9-9h384.5
		c4.9,0,9,4.1,9,9V407.3z M415.8,439.6c-0.3-0.3-0.7-0.3-1-0.2l-1.8,0.5l-0.2-0.3c-0.4-0.6-0.8-1.1-1.3-1.6c-2.6-2.8-6-4.5-9.8-4.9
		c-0.6-0.1-1.2-0.1-1.7-0.1c-3.3,0-6.4,1-9,2.9c-2.9,2-5,5-6,8.4c-0.1,0.3,0,0.6,0.1,0.8c0.1,0.2,0.4,0.4,0.6,0.5l2,0.5
		c0.5,0.1,1.1-0.2,1.3-0.7c0.7-2.4,2.3-4.6,4.4-6.1c1.9-1.4,4.2-2.1,6.6-2.1c0.4,0,0.9,0,1.3,0.1c2.6,0.3,5,1.5,6.9,3.3l0.6,0.6
		l-1.2,0.4c-0.4,0.1-0.6,0.4-0.7,0.8c-0.1,0.4,0,0.7,0.3,1l5.5,5.2c0.2,0.2,0.5,0.3,0.7,0.3c0.1,0,0.2,0,0.3,0
		c0.4-0.1,0.6-0.4,0.7-0.8l1.8-7.3C416.2,440.3,416.1,439.9,415.8,439.6z M414.3,451.6l-2-0.5c-0.5-0.1-1.1,0.2-1.3,0.7
		c-0.7,2.4-2.3,4.6-4.4,6.1c-1.9,1.4-4.2,2.1-6.6,2.1c-0.4,0-0.9,0-1.3-0.1c-2.6-0.3-5-1.5-6.9-3.3l-0.6-0.6l1.2-0.4
		c0.4-0.1,0.6-0.4,0.7-0.8c0.1-0.4,0-0.7-0.3-1l-5.5-5.2c-0.3-0.3-0.7-0.3-1-0.2c-0.4,0.1-0.6,0.4-0.7,0.8l-1.8,7.3
		c-0.1,0.4,0,0.7,0.3,1c0.3,0.3,0.7,0.3,1,0.2l1.8-0.5l0.2,0.3c0.4,0.6,0.8,1.1,1.3,1.6c2.6,2.8,6,4.5,9.8,4.9
		c0.6,0.1,1.2,0.1,1.7,0.1c3.3,0,6.4-1,9-2.9c2.9-2,5-5,6-8.4c0.1-0.3,0-0.6-0.1-0.8C414.8,451.8,414.6,451.7,414.3,451.6z
		 M500.3,237.6H299.7c-5.2,0-9.3,4.2-9.3,9.3v113.6c0,5.2,4.2,9.3,9.3,9.3h200.6c5.2,0,9.3-4.2,9.3-9.3V246.9
		C509.6,241.8,505.4,237.6,500.3,237.6z M366.7,340.2l8.1-28.4h-30.2l-8.1,28.4h-18.6l20.9-73h18.6l-8.6,30H379l8.6-30h18.6
		l-20.9,73H366.7L366.7,340.2z M480.5,303.7c-6.2,21.6-26.5,36.5-50,36.5h-30.7l13.8-48.2h18.6l-9.5,33.4h13.2
		c11.4,0,22-8.8,25.7-21.6c3.7-12.9-2.3-21.8-14.1-21.8h-31l4.2-14.8h31.4C475,267.2,486.7,282,480.5,303.7z M391.9,227h-9.2
		l-1.2-5.4l9-0.7L391.9,227z M337.7,227h-32.2c1.1-4.2,4.8-7.2,9.1-7.2c2.8,0,5.2,1.2,7,3.2c1.7-2,4.2-3.2,7-3.2
		C332.9,219.8,336.6,222.9,337.7,227z M495.2,227h-32.3c1.1-4.3,4.8-7.4,9.2-7.4c2.8,0,5.2,1.2,7,3.2c1.7-2,4.2-3.2,7-3.2
		C490.4,219.6,494.1,222.8,495.2,227z M408.9,220.9l8.9,0.7l-1.2,5.4h-9L408.9,220.9z M402.5,221.6l1.2,5.4h-8.1l1.2-5.4H402.5z
		 M386.4,380.4h27.2c-4.7,7.2-13.6,11.7-13.6,11.7S391.1,387.6,386.4,380.4z M490.6,386.9h-23.1l-1.4-6.4H492L490.6,386.9z
		 M467.6,390.5v-3.1h22.9v3.1H467.6z M308.4,380.4h6.8c0.8,2.4,2.5,3.7,5,4v2.6h2.2v-2.6c1.7-0.2,3-0.8,3.9-1.8
		c0.6-0.6,0.9-1.4,1.1-2.2h6.7c-2,5.2-7,8.9-12.9,8.9C315.4,389.3,310.4,385.6,308.4,380.4z M319.1,380.4h4.5
		c-0.1,0.1-0.2,0.3-0.3,0.4c-0.4,0.4-1,0.6-1.8,0.6C320.4,381.4,319.6,381.1,319.1,380.4z M303.6,380.4h2.4
		c2.1,6.5,8.2,11.2,15.3,11.2s13.2-4.7,15.3-11.2h2.4c-2.1,7.8-9.3,13.5-17.7,13.5C312.9,393.9,305.7,388.2,303.6,380.4z
		 M428.4,380.4v15.4c0,4.5-3.7,8.1-8.1,8.1h-40.5c-4.5,0-8.1-3.7-8.1-8.1v-15.4h3.2v15.4c0,2.7,2.2,4.9,4.9,4.9h40.5
		c2.7,0,4.9-2.2,4.9-4.9v-15.4H428.4z M262.9,206.6h-40.5c-4.5,0-8.1,3.7-8.1,8.1v40.5c0,4.5,3.7,8.1,8.1,8.1h40.5
		c4.5,0,8.1-3.7,8.1-8.1v-40.5C271,210.3,267.3,206.6,262.9,206.6z M267.7,255.3c0,2.7-2.2,4.9-4.9,4.9h-40.5
		c-2.7,0-4.9-2.2-4.9-4.9v-40.5c0-2.7,2.2-4.9,4.9-4.9h40.5c2.7,0,4.9,2.2,4.9,4.9V255.3z M507.1,379.2v16.6c0,4.5-3.7,8.1-8.1,8.1
		h-40.5c-4.5,0-8.1-3.7-8.1-8.1v-15.4h3.2v15.4c0,2.7,2.2,4.9,4.9,4.9H499c2.7,0,4.9-2.2,4.9-4.9v-15.7
		C504.9,379.9,506,379.6,507.1,379.2z M259.8,231c0.2,0.7,0,1.4-0.5,1.9l-7,6.9l1.7,9.7c0.1,0.7-0.2,1.4-0.7,1.8
		c-0.3,0.2-0.7,0.4-1.1,0.4c-0.3,0-0.6-0.1-0.9-0.2l-8.7-4.6l-8.7,4.6c-0.6,0.3-1.4,0.3-2-0.1c-0.6-0.4-0.9-1.1-0.7-1.8l1.7-9.7
		l-7-6.9c-0.5-0.5-0.7-1.2-0.5-1.9c0.2-0.7,0.8-1.2,1.5-1.3l9.7-1.4l4.3-8.8c0.3-0.6,1-1,1.7-1c0.7,0,1.4,0.4,1.7,1l4.3,8.8l9.7,1.4
		C259,229.8,259.6,230.3,259.8,231z M242.6,289.9c-7.6,0-13.8,6.2-13.8,13.8c0,7.6,6.2,13.8,13.8,13.8c7.6,0,13.8-6.2,13.8-13.8
		C256.4,296.1,250.2,289.9,242.6,289.9z M247.6,310.8c-0.9,1-2.2,1.6-3.9,1.8v2.6h-2.2v-2.6c-2.8-0.3-4.6-1.9-5.3-5l3.4-0.9
		c0.3,1.9,1.3,2.8,3.1,2.8c0.8,0,1.4-0.2,1.8-0.6c0.4-0.4,0.6-0.9,0.6-1.5c0-0.6-0.2-1-0.6-1.4c-0.4-0.3-1.2-0.7-2.6-1.2
		c-1.2-0.4-2.1-0.8-2.8-1.2c-0.7-0.4-1.2-1-1.6-1.7c-0.4-0.7-0.6-1.6-0.6-2.6c0-1.3,0.4-2.4,1.1-3.4c0.7-1,1.9-1.6,3.5-1.9v-2h2.2v2
		c2.4,0.3,4,1.7,4.7,4.1l-3,1.2c-0.6-1.7-1.5-2.5-2.7-2.5c-0.6,0-1.1,0.2-1.5,0.6c-0.4,0.4-0.6,0.8-0.6,1.4c0,0.5,0.2,1,0.5,1.3
		c0.4,0.3,1.1,0.7,2.3,1.1c1.3,0.5,2.3,0.9,3,1.3c0.7,0.4,1.3,1,1.8,1.7c0.4,0.7,0.7,1.6,0.7,2.6C249,308.5,248.5,309.8,247.6,310.8
		z M242.6,285.3c-10.2,0-18.4,8.2-18.4,18.4c0,10.2,8.2,18.4,18.4,18.4c10.2,0,18.4-8.2,18.4-18.4
		C261,293.6,252.8,285.3,242.6,285.3z M242.6,319.8c-8.9,0-16.1-7.2-16.1-16.1c0-8.9,7.2-16.1,16.1-16.1s16.1,7.2,16.1,16.1
		C258.7,312.6,251.5,319.8,242.6,319.8z M262.9,276.5h-40.5c-4.5,0-8.1,3.7-8.1,8.1v40.5c0,4.5,3.7,8.1,8.1,8.1h40.5
		c4.5,0,8.1-3.7,8.1-8.1v-40.5C271,280.1,267.3,276.5,262.9,276.5z M267.7,325.1c0,2.7-2.2,4.9-4.9,4.9h-40.5
		c-2.7,0-4.9-2.2-4.9-4.9v-40.5c0-2.7,2.2-4.9,4.9-4.9h40.5c2.7,0,4.9,2.2,4.9,4.9V325.1z M573.9,371.7c0,1.5-0.3,2.9-0.7,4.3
		c-0.2,0.8-0.7,1.9-0.7,1.9c-4,8.6-15.1,14.2-15.1,14.2s-11-5.6-15.1-14.2c-0.4-0.7-0.7-1.9-0.7-1.9c-0.4-1.4-0.7-2.8-0.7-4.3
		c0-5.5,4.3-10,9.5-10c2.8,0,5.2,1.2,7,3.2c1.7-2,4.2-3.2,7-3.2C569.6,361.7,573.9,366.2,573.9,371.7z M575,227
		c0,1.5-1.1,2.8-2.5,2.8c0,0-0.1,0-0.1,0l-3.4,15.9h-23.1l-3.4-15.9c0,0,0,0-0.1,0c-1.4,0-2.5-1.2-2.5-2.8c0-1.5,1.1-2.8,2.5-2.8
		c1.4,0,2.5,1.2,2.5,2.8c0,1-0.5,1.9-1.2,2.3c1.5,2.3,3.7,5,5.9,5.7c2.9,1,5.7-5.2,7-8.9c-1-0.4-1.7-1.4-1.7-2.6
		c0-1.5,1.1-2.8,2.5-2.8c1.4,0,2.5,1.2,2.5,2.8c0,1.2-0.7,2.2-1.7,2.6c1.3,3.7,4.1,10,7,8.9c2.2-0.8,4.4-3.4,5.9-5.7
		c-0.7-0.5-1.2-1.4-1.2-2.3c0-1.5,1.1-2.8,2.5-2.8C573.8,224.2,575,225.4,575,227z M577.6,206.6h-40.5c-4.5,0-8.1,3.7-8.1,8.1v40.5
		c0,4.5,3.7,8.1,8.1,8.1h40.5c4.5,0,8.1-3.7,8.1-8.1v-40.5C585.8,210.3,582.1,206.6,577.6,206.6z M582.5,255.3
		c0,2.7-2.2,4.9-4.9,4.9h-40.5c-2.7,0-4.9-2.2-4.9-4.9v-40.5c0-2.7,2.2-4.9,4.9-4.9h40.5c2.7,0,4.9,2.2,4.9,4.9V255.3z M577.6,347.1
		h-40.5c-4.5,0-8.1,3.7-8.1,8.1v40.5c0,4.5,3.7,8.1,8.1,8.1h40.5c4.5,0,8.1-3.7,8.1-8.1v-40.5C585.8,350.8,582.1,347.1,577.6,347.1z
		 M582.5,395.8c0,2.7-2.2,4.9-4.9,4.9h-40.5c-2.7,0-4.9-2.2-4.9-4.9v-40.5c0-2.7,2.2-4.9,4.9-4.9h40.5c2.7,0,4.9,2.2,4.9,4.9V395.8z
		 M545.9,246.2h22.9v3.1h-22.9V246.2z M557.4,290.8c-7.6,0-13.8,6.2-13.8,13.8c0,7.6,6.2,13.8,13.8,13.8c7.6,0,13.8-6.2,13.8-13.8
		C571.2,296.9,565,290.8,557.4,290.8z M562.4,311.6c-0.9,1-2.2,1.6-3.9,1.8v2.6h-2.2v-2.6c-2.8-0.3-4.6-1.9-5.3-5l3.4-0.9
		c0.3,1.9,1.3,2.8,3.1,2.8c0.8,0,1.4-0.2,1.8-0.6c0.4-0.4,0.6-0.9,0.6-1.5c0-0.6-0.2-1-0.6-1.4c-0.4-0.3-1.2-0.7-2.6-1.2
		c-1.2-0.4-2.1-0.8-2.8-1.2c-0.7-0.4-1.2-1-1.6-1.7c-0.4-0.7-0.6-1.6-0.6-2.6c0-1.3,0.4-2.4,1.1-3.4c0.7-1,1.9-1.6,3.5-1.9v-2h2.2v2
		c2.4,0.3,4,1.7,4.7,4.1l-3,1.2c-0.6-1.7-1.5-2.5-2.7-2.5c-0.6,0-1.1,0.2-1.5,0.6c-0.4,0.4-0.6,0.8-0.6,1.4c0,0.5,0.2,1,0.5,1.3
		c0.4,0.3,1.1,0.7,2.3,1.1c1.3,0.5,2.3,0.9,3,1.3c0.7,0.4,1.3,1,1.8,1.7c0.4,0.7,0.7,1.6,0.7,2.6
		C563.8,309.4,563.3,310.6,562.4,311.6z M557.4,286.2c-10.2,0-18.4,8.2-18.4,18.4s8.2,18.4,18.4,18.4s18.4-8.2,18.4-18.4
		S567.5,286.2,557.4,286.2z M557.4,320.6c-8.9,0-16.1-7.2-16.1-16.1s7.2-16.1,16.1-16.1s16.1,7.2,16.1,16.1S566.3,320.6,557.4,320.6
		z M577.6,276.5h-40.5c-4.5,0-8.1,3.7-8.1,8.1v40.5c0,4.5,3.7,8.1,8.1,8.1h40.5c4.5,0,8.1-3.7,8.1-8.1v-40.5
		C585.8,280.1,582.1,276.5,577.6,276.5z M582.5,325.1c0,2.7-2.2,4.9-4.9,4.9h-40.5c-2.7,0-4.9-2.2-4.9-4.9v-40.5
		c0-2.7,2.2-4.9,4.9-4.9h40.5c2.7,0,4.9,2.2,4.9,4.9V325.1z M349.7,380.4v15.4c0,4.5-3.7,8.1-8.1,8.1H301c-4.5,0-8.1-3.7-8.1-8.1
		v-16.6c1,0.4,2.1,0.7,3.2,0.9v15.7c0,2.7,2.2,4.9,4.9,4.9h40.5c2.7,0,4.9-2.2,4.9-4.9v-15.4H349.7z M262.9,347.1h-40.5
		c-4.5,0-8.1,3.7-8.1,8.1v40.5c0,4.5,3.7,8.1,8.1,8.1h40.5c4.5,0,8.1-3.7,8.1-8.1v-40.5C271,350.8,267.3,347.1,262.9,347.1z
		 M267.7,395.8c0,2.7-2.2,4.9-4.9,4.9h-40.5c-2.7,0-4.9-2.2-4.9-4.9v-40.5c0-2.7,2.2-4.9,4.9-4.9h40.5c2.7,0,4.9,2.2,4.9,4.9V395.8z
		 M292.9,228.2v-13.5c0-4.5,3.7-8.1,8.1-8.1h40.5c4.5,0,8.1,3.7,8.1,8.1V227h-3.2v-12.3c0-2.7-2.2-4.9-4.9-4.9H301
		c-2.7,0-4.9,2.2-4.9,4.9v12.6C295.1,227.6,294,227.9,292.9,228.2z M259.8,370.3c0.2,0.7,0,1.4-0.5,1.9l-7,6.9l1.7,9.7
		c0.1,0.7-0.2,1.4-0.7,1.8c-0.3,0.2-0.7,0.4-1.1,0.4c-0.3,0-0.6-0.1-0.9-0.2l-8.7-4.6l-8.7,4.6c-0.6,0.3-1.4,0.3-2-0.1
		c-0.6-0.4-0.9-1.1-0.7-1.8l1.7-9.7l-7-6.9c-0.5-0.5-0.7-1.2-0.5-1.9c0.2-0.7,0.8-1.2,1.5-1.3l9.7-1.4l4.3-8.8c0.3-0.6,1-1,1.7-1
		c0.7,0,1.4,0.4,1.7,1l4.3,8.8l9.7,1.4C259,369.2,259.6,369.7,259.8,370.3z M371.6,227v-12.3c0-4.5,3.7-8.1,8.1-8.1h40.5
		c4.5,0,8.1,3.7,8.1,8.1V227h-3.2v-12.3c0-2.7-2.2-4.9-4.9-4.9h-40.5c-2.7,0-4.9,2.2-4.9,4.9V227H371.6z M450.3,227v-12.3
		c0-4.5,3.7-8.1,8.1-8.1H499c4.5,0,8.1,3.7,8.1,8.1v13.5c-1-0.4-2.1-0.7-3.2-0.9v-12.6c0-2.7-2.2-4.9-4.9-4.9h-40.5
		c-2.7,0-4.9,2.2-4.9,4.9V227H450.3z"/>
</g>
</svg>
