<?xml version="1.0" encoding="utf-8"?>
<!-- Generator: Adobe Illustrator 17.1.0, SVG Export Plug-In . SVG Version: 6.00 Build 0)  -->
<!DOCTYPE svg PUBLIC "-//W3C//DTD SVG 1.1//EN" "http://www.w3.org/Graphics/SVG/1.1/DTD/svg11.dtd">
<svg version="1.1" xmlns="http://www.w3.org/2000/svg" xmlns:xlink="http://www.w3.org/1999/xlink" x="0px" y="0px"
	 viewBox="0 0 800 660" enable-background="new 0 0 800 660" xml:space="preserve">
<g id="Layer_2">
	
		<radialGradient id="SVGID_1_" cx="399.9813" cy="329.9318" r="395.506" gradientTransform="matrix(0.9639 0 0 0.88 14.4759 39.66)" gradientUnits="userSpaceOnUse">
		<stop  offset="0.5" style="stop-color:#262626"/>
		<stop  offset="1" style="stop-color:#1A1A1A"/>
	</radialGradient>
	<rect fill="url(#SVGID_1_)" width="800" height="660"/>
</g>
<g id="Layer_1">
	<path fill="#FFFFFF" d="M454.6,222.1H326.4c-1.7,0-3,1.4-3,3v32.7c0,1.7,1.4,3,3,3h128.2c1.7,0,3-1.3,3-3v-32.7
		C457.6,223.5,456.3,222.1,454.6,222.1L454.6,222.1z M451.6,232.6h-58.1v-4.4h58.1V232.6z M393.5,238.6h58.1v5.8h-58.1V238.6z
		 M387.5,244.4h-58.1v-5.8h58.1V244.4z M387.5,228.2v4.4h-58.1v-4.4H387.5z M329.4,250.4h58.1v4.4h-58.1V250.4z M393.5,254.8v-4.4
		h58.1v4.4H393.5z M393.5,254.8 M318.3,412.4h144.5c1.7,0,3-1.3,3-3v-47.7c0-1.7-1.4-3-3-3H318.3c-1.7,0-3,1.4-3,3v47.7
		C315.3,411.1,316.6,412.4,318.3,412.4L318.3,412.4z M321.3,364.7h138.4v41.7H321.3V364.7z M321.3,364.7 M356.6,302.2
		c0,0-0.1,0.1-0.1,0.1c0,0,0,0-0.1,0.1c-0.4,0.3-8.1,7.1-8.1,19c0,1.7-1.4,3-3,3s-3-1.4-3-3c0-8.1,2.9-14.2,5.6-18.3h-8.7
		c0,1.7-1.4,3-3,3c-1.7,0-3-1.4-3-3v-3c0-1.7,1.4-3,3-3h18.3c0,0,0.1,0,0.1,0c0.1,0,0.1,0,0.2,0c0,0,0.1,0,0.1,0c0,0,0.1,0,0.1,0
		c0.1,0,0.1,0,0.2,0c0,0,0.1,0,0.1,0c0.1,0,0.1,0,0.2,0.1c0,0,0.1,0,0.1,0c0,0,0.1,0,0.1,0.1c0,0,0.1,0,0.1,0.1c0,0,0.1,0,0.1,0.1
		c0,0,0.1,0.1,0.1,0.1c0,0,0.1,0.1,0.1,0.1c0,0,0.1,0.1,0.1,0.1c0,0,0.1,0.1,0.1,0.1c0,0,0.1,0.1,0.1,0.1c0,0,0.1,0.1,0.1,0.1
		c0,0,0,0,0.1,0.1c0,0,0,0,0,0c0,0.1,0.1,0.1,0.1,0.2c0,0,0,0.1,0.1,0.1c0,0.1,0.1,0.1,0.1,0.2c0,0,0,0.1,0.1,0.1
		c0,0.1,0.1,0.1,0.1,0.2c0,0,0,0.1,0.1,0.1c0,0,0,0.1,0,0.1c0,0,0,0.1,0.1,0.1c0,0,0,0.1,0,0.1c0,0.1,0,0.1,0,0.2c0,0,0,0.1,0,0.1
		c0,0.1,0,0.1,0,0.2c0,0,0,0.1,0,0.1c0,0.1,0,0.1,0,0.2c0,0,0,0,0,0c0,0,0,0.1,0,0.1c0,0.1,0,0.1,0,0.2c0,0,0,0.1,0,0.1
		c0,0,0,0.1,0,0.1c0,0.1,0,0.1,0,0.2c0,0,0,0.1,0,0.1c0,0.1,0,0.1-0.1,0.2c0,0,0,0.1,0,0.1c0,0,0,0.1-0.1,0.1c0,0,0,0.1-0.1,0.1
		c0,0,0,0.1-0.1,0.1c0,0-0.1,0.1-0.1,0.1c0,0-0.1,0.1-0.1,0.1c0,0-0.1,0.1-0.1,0.1c0,0-0.1,0.1-0.1,0.1
		C356.7,302.1,356.7,302.1,356.6,302.2z M401.3,302.2c0,0-0.1,0.1-0.1,0.1c0,0,0,0-0.1,0.1c-0.4,0.3-8.1,7.1-8.1,19c0,1.7-1.4,3-3,3
		s-3-1.4-3-3c0-8.1,2.9-14.2,5.6-18.3h-8.7c0,1.7-1.4,3-3,3s-3-1.4-3-3v-3c0-1.7,1.4-3,3-3h18.3c0,0,0.1,0,0.1,0c0.1,0,0.1,0,0.2,0
		c0,0,0.1,0,0.1,0c0,0,0.1,0,0.1,0c0.1,0,0.1,0,0.2,0c0,0,0.1,0,0.1,0c0.1,0,0.1,0,0.2,0.1c0,0,0.1,0,0.1,0c0,0,0.1,0,0.1,0.1
		c0,0,0.1,0,0.1,0.1c0,0,0.1,0,0.1,0.1c0,0,0.1,0.1,0.1,0.1c0,0,0.1,0.1,0.1,0.1c0,0,0.1,0.1,0.1,0.1c0,0,0.1,0.1,0.1,0.1
		c0,0,0.1,0.1,0.1,0.1c0,0,0.1,0.1,0.1,0.1c0,0,0,0,0.1,0.1c0,0,0,0,0,0c0,0.1,0.1,0.1,0.1,0.2c0,0,0,0.1,0.1,0.1
		c0,0.1,0.1,0.1,0.1,0.2c0,0,0,0.1,0.1,0.1c0,0.1,0.1,0.1,0.1,0.2c0,0,0,0.1,0.1,0.1c0,0,0,0.1,0,0.1c0,0,0,0.1,0.1,0.1
		c0,0,0,0.1,0,0.1c0,0.1,0,0.1,0,0.2c0,0,0,0.1,0,0.1c0,0.1,0,0.1,0,0.2c0,0,0,0.1,0,0.1c0,0.1,0,0.1,0,0.2c0,0,0,0,0,0
		c0,0,0,0.1,0,0.1c0,0.1,0,0.1,0,0.2c0,0,0,0.1,0,0.1c0,0,0,0.1,0,0.1c0,0.1,0,0.1,0,0.2c0,0,0,0.1,0,0.1c0,0.1,0,0.1-0.1,0.2
		c0,0,0,0.1,0,0.1c0,0,0,0.1-0.1,0.1c0,0,0,0.1-0.1,0.1c0,0,0,0.1-0.1,0.1c0,0-0.1,0.1-0.1,0.1c0,0-0.1,0.1-0.1,0.1
		c0,0-0.1,0.1-0.1,0.1c0,0-0.1,0.1-0.1,0.1C401.3,302.1,401.3,302.1,401.3,302.2z M408.9,345.3h33.2c1.7,0,3-1.4,3-3
		c0-1.7-1.4-3-3-3h-33.2c-1.7,0-3,1.4-3,3C405.8,344,407.2,345.3,408.9,345.3L408.9,345.3z M408.9,345.3 M494.5,351.9l-3.2-0.3
		v-75.5c5.1-1.3,8.9-5.9,8.9-11.3c0-6.4-5.2-11.7-11.7-11.7c-6.4,0-11.7,5.2-11.7,11.7c0,5.3,3.6,9.8,8.4,11.2v75l-7.6-0.8v-0.4
		c0-1.7-1.4-3-3-3h-1.8l-6.8-69.2c-0.2-1.5-1.5-2.7-3-2.7H461v-3.5h2.1c1.7,0,3-1.4,3-3v-53.8c0-1.7-1.4-3-3-3h-0.5V200
		c0-1.7-1.4-3-3-3h-59.1v-18.1c0-1.7-1.4-3-3-3h-14.1c-1.7,0-3,1.4-3,3V197h-59.1c-1.7,0-3,1.4-3,3v11.6h-0.5c-1.7,0-3,1.4-3,3v53.8
		c0,1.7,1.4,3,3,3h2.1v3.5h-2.1c-1.6,0-2.9,1.2-3,2.7l-6.8,69.2h-1.8c-1.7,0-3,1.3-3,3v71.9c0,1.7,1.4,3,3,3h0.5v21.6l-6.4,8.2l0,0
		c-0.4,0.5-0.7,1.1-0.7,1.9v24.6c0,1.7,1.4,3,3,3h175.5c1.7,0,3-1.4,3-3v-24.6c0-0.7-0.2-1.3-0.7-1.9l0,0l-6.4-8.2v-21.6h0.5
		c1.7,0,3-1.4,3-3v-48.6l16.8-1.7c1.5-0.2,2.7-1.5,2.7-3v-13.6C497.2,353.3,496.1,352,494.5,351.9L494.5,351.9z M482.9,264.8
		c0-3.1,2.5-5.7,5.7-5.7c3.1,0,5.7,2.5,5.7,5.7s-2.5,5.7-5.7,5.7C485.4,270.4,482.9,267.9,482.9,264.8L482.9,264.8z M326.9,439.8
		l-8.5,13.7H309l17.9-22.9L326.9,439.8z M331.6,443.7h117.8l6.1,9.8H325.5L331.6,443.7z M462.7,453.5l-8.6-13.7l0-9.3l17.9,22.9
		H462.7z M448.1,437.6H332.9l0-12.8h115.2L448.1,437.6z M327.6,337.8h125.8l9.4,9.1H318.3L327.6,337.8z M451.6,289v42.7h-35.3V289
		H451.6z M410.3,331.8h-39.6V289h39.6V331.8z M364.7,331.8h-35.3V289h35.3V331.8z M471.7,352.9v65.9H309.3v-65.9H471.7z
		 M320.9,265.4v-47.8h139.3v47.8H320.9z M370.1,211.6V203h40.7v8.5H370.1z M456.6,211.6h-39.7V203h39.7V211.6z M394.5,181.9v5.2h-8
		v-5.2H394.5z M386.5,193.1h8v3.9h-8V193.1z M324.4,203h39.7v8.5h-39.7V203z M326,271.4h129v3.5H326V271.4z M320.6,281h139.9l6,61
		l-8.8-8.5V286c0-1.7-1.3-3-3-3H326.4c-1.7,0-3,1.3-3,3v47.5l-8.8,8.5L320.6,281z M312.8,424.8h10.9l-10.9,13.9V424.8z M475.2,478.1
		H305.8v-18.6h169.5V478.1z M457.3,424.8h10.9v13.9L457.3,424.8z M491.2,365.7l-13.5,1.3v-10.8l13.5,1.3V365.7z M491.2,365.7
		 M333.9,345.3h13.6c1.7,0,3-1.4,3-3c0-1.7-1.4-3-3-3h-13.6c-1.7,0-3,1.4-3,3C330.9,344,332.3,345.3,333.9,345.3L333.9,345.3z
		 M333.9,345.3 M359.6,345.3h13.6c1.7,0,3-1.4,3-3c0-1.7-1.4-3-3-3h-13.6c-1.7,0-3,1.4-3,3C356.6,344,357.9,345.3,359.6,345.3
		L359.6,345.3z M359.6,345.3 M422.4,303.1v-3c0-1.7,1.4-3,3-3h18.3c0,0,0.1,0,0.1,0c0.1,0,0.1,0,0.2,0c0,0,0.1,0,0.1,0
		c0,0,0.1,0,0.1,0c0.1,0,0.1,0,0.2,0c0,0,0.1,0,0.1,0c0.1,0,0.1,0,0.2,0.1c0,0,0.1,0,0.1,0c0,0,0.1,0,0.1,0.1c0,0,0.1,0,0.1,0.1
		c0,0,0.1,0,0.1,0.1c0,0,0.1,0.1,0.1,0.1c0,0,0.1,0.1,0.1,0.1c0,0,0.1,0.1,0.1,0.1c0,0,0.1,0.1,0.1,0.1c0,0,0.1,0.1,0.1,0.1
		c0,0,0.1,0.1,0.1,0.1c0,0,0,0,0.1,0.1c0,0,0,0,0,0c0,0.1,0.1,0.1,0.1,0.2c0,0,0,0.1,0.1,0.1c0,0.1,0.1,0.1,0.1,0.2
		c0,0,0,0.1,0.1,0.1c0,0.1,0.1,0.1,0.1,0.2c0,0,0,0.1,0.1,0.1c0,0,0,0.1,0,0.1c0,0,0,0.1,0.1,0.1c0,0,0,0.1,0,0.1c0,0.1,0,0.1,0,0.2
		c0,0,0,0.1,0,0.1c0,0.1,0,0.1,0,0.2c0,0,0,0.1,0,0.1c0,0.1,0,0.1,0,0.2c0,0,0,0,0,0c0,0,0,0.1,0,0.1c0,0.1,0,0.1,0,0.2
		c0,0,0,0.1,0,0.1c0,0,0,0.1,0,0.1c0,0.1,0,0.1,0,0.2c0,0,0,0.1,0,0.1c0,0.1,0,0.1-0.1,0.2c0,0,0,0.1,0,0.1c0,0,0,0.1-0.1,0.1
		c0,0,0,0.1-0.1,0.1c0,0,0,0.1-0.1,0.1c0,0-0.1,0.1-0.1,0.1c0,0-0.1,0.1-0.1,0.1c0,0-0.1,0.1-0.1,0.1c0,0-0.1,0.1-0.1,0.1
		c0,0-0.1,0.1-0.1,0.1c0,0-0.1,0.1-0.1,0.1c0,0,0,0-0.1,0.1c-0.4,0.3-8.1,7.1-8.1,19c0,1.7-1.4,3-3,3c-1.7,0-3-1.4-3-3
		c0-8.1,2.9-14.2,5.6-18.3h-8.7c0,1.7-1.4,3-3,3S422.4,304.8,422.4,303.1z"/>
</g>
</svg>
