<?xml version="1.0" encoding="utf-8"?>
<!-- Generator: Adobe Illustrator 17.1.0, SVG Export Plug-In . SVG Version: 6.00 Build 0)  -->
<!DOCTYPE svg PUBLIC "-//W3C//DTD SVG 1.1//EN" "http://www.w3.org/Graphics/SVG/1.1/DTD/svg11.dtd">
<svg version="1.1" id="download-casino_1_" xmlns="http://www.w3.org/2000/svg" xmlns:xlink="http://www.w3.org/1999/xlink" x="0px"
	 y="0px" viewBox="0 0 240 240" enable-background="new 0 0 240 240" xml:space="preserve">
<circle fill="#D4D3D3" cx="77.2" cy="196.9" r="6.3"/>
<circle fill="#D4D3D3" cx="163" cy="196.8" r="6.3"/>
<path fill="#D4D3D3" d="M199.6,122.7c0.1,3.4,2.9,6,6.2,6c3.4,0,6.1-2.7,6.2-6H199.6z"/>
<path fill="#D4D3D3" d="M27.9,122.7c0.1,3.4,2.9,6,6.2,6c3.4,0,6.1-2.7,6.2-6H27.9z"/>
<path fill="#D4D3D3" d="M109.5,129.2c2.6,2.6,5.9,4,9.3,4.2c0.4,0,0.8,0.1,1.2,0.1c0.4,0,0.8-0.1,1.2-0.1c3.4-0.2,6.7-1.6,9.3-4.2
	L176,83.6c5.7-5.7,5.7-15,0-20.7s-14.9-5.7-20.6,0l-21,21.1V15.6c0-7.9-6.4-14.4-14.4-14.4c-7.9,0-14.4,6.4-14.4,14.4V84l-21-21
	c-5.7-5.7-14.9-5.7-20.6,0s-5.7,15,0,20.7L109.5,129.2z"/>
<path fill="#D4D3D3" d="M223.6,122.7c0,11.6-1.9,22.9-5.5,33.6L182.6,144c2.4-6.9,3.6-14.1,3.6-21.4h-25.9c0,22.2-18,40.2-40.2,40.2
	s-40.2-18-40.2-40.2h-26c0,7.2,1.2,14.4,3.6,21.3L22,156.1c-2.8-8.2-4.6-16.8-5.3-25.6c-0.2-2.6-0.3-5.3-0.3-7.9H3.8
	c0,32.7,13.8,65.2,40.6,88.2c17.1,14.6,37.1,23.4,57.8,26.6c38.4,5.9,78.9-7.6,106-39.3c18.7-21.9,27.9-48.7,27.9-75.4
	C236.1,122.7,223.6,122.7,223.6,122.7z M100.1,224.3c-17.5-3.4-33.9-11.3-47.5-23c-3.9-3.3-7.5-6.9-10.8-10.7L70.1,166
	c2.1,2.4,4.4,4.7,6.9,6.8c9,7.7,19.4,12.5,30.3,14.7L100.1,224.3z M155.2,220.1c-5,1.8-10.2,3.2-15.4,4.2l-7.1-36.8
	c13.9-2.7,27.1-9.9,37.2-21.4l28.3,24.6C186.6,204,171.8,214.1,155.2,220.1z"/>
</svg>
