<?xml version="1.0" encoding="utf-8"?>
<!-- Generator: Adobe Illustrator 17.1.0, SVG Export Plug-In . SVG Version: 6.00 Build 0)  -->
<!DOCTYPE svg PUBLIC "-//W3C//DTD SVG 1.1//EN" "http://www.w3.org/Graphics/SVG/1.1/DTD/svg11.dtd">
<svg version="1.1" id="Layer_1" xmlns="http://www.w3.org/2000/svg" xmlns:xlink="http://www.w3.org/1999/xlink" x="0px" y="0px"
	 viewBox="0 21 240 198" enable-background="new 0 21 240 198" xml:space="preserve">
<path id="microgaming-outline" fill="none" stroke="#1E2123" stroke-width="1.5" stroke-linecap="round" stroke-linejoin="round" stroke-miterlimit="10" d="
	M120,33.7c-31.6,0-57.3,25.7-57.3,57.3c0,5.7,0.8,11.2,2.4,16.4C80.2,87.2,97.4,55.8,99.4,51c1.9-4.4,3.4-6.5,8.5-5.4
	c1.4,0.3,3.6,2.6,3,7.4c-3.4,27.1-0.6,69.2,5.9,63.9c5.9-4.7,19.1-30.6,23.2-40.7c2.1-5.3,3.3-8.3,8-7.9c3.7,0.4,4.3,4.5,4.4,5.9
	c0.9,18.5,9.1,31.6,10.1,33.3c1.9,3.3-1.3,3.5-5.9-1.5c-2.9-3.1-7.1-9.9-10-17.7c-0.8-2.3-16.4,45.2-34.4,39.6
	c-13.8-4.2-13.8-35.6-13.1-50.7c0.1-1.5-14.4,28.4-26.8,45.3c10.2,15.5,27.8,25.7,47.8,25.7c31.6,0,57.3-25.7,57.3-57.3
	C177.3,59.4,151.6,33.7,120,33.7z M40,174l-7.6,23H31l-7.6-23H23v23h-2.8v-25.3h5.1l6.5,19.7h0l6.4-19.7h5.2V197h-2.8l-0.1-23H40z
	 M84.6,179.4c-1.3,0-2.8-0.3-4.8,0.6c-0.8,0.4-1.7,0.8-2.5,1.5v15.2h-3.2v-19.3h2.3l0.4,2c0.8-0.7,1.7-1.3,2.7-1.6
	c2.9-1,4.8-0.9,5.3-0.6L84.6,179.4z M102.8,188.1c0,1.8-0.2,3.2-0.5,4.4c-0.3,1.2-0.8,2.1-1.5,2.8c-0.7,0.7-1.5,1.2-2.6,1.5
	s-2.3,0.4-3.8,0.4c-1.5,0-2.7-0.2-3.8-0.4c-1.1-0.3-1.9-0.8-2.6-1.5c-0.7-0.7-1.2-1.7-1.5-2.8c-0.3-1.2-0.5-2.6-0.5-4.4V186
	c0-1.7,0.2-3,0.5-4.2c0.3-1.2,0.8-2.1,1.5-2.8c0.7-0.7,1.5-1.2,2.6-1.5c1.1-0.3,2.3-0.4,3.8-0.4c1.5,0,2.7,0.2,3.8,0.4
	c1.1,0.3,1.9,0.8,2.6,1.5c0.7,0.7,1.2,1.7,1.5,2.8c0.3,1.2,0.5,2.4,0.5,4.2L102.8,188.1L102.8,188.1z M99.7,185.6
	c0-1.3-0.1-2.4-0.2-3.2c-0.2-0.8-0.4-1.5-0.9-2c-0.4-0.5-1-0.8-1.6-1c-0.7-0.2-1.5-0.3-2.5-0.3s-1.9,0.1-2.5,0.3
	c-0.7,0.2-1.2,0.5-1.6,1s-0.7,1.1-0.8,2c-0.2,0.8-0.2,2.2-0.2,3.5v2.1c0,1.3,0.1,2.9,0.2,3.7c0.2,0.8,0.4,1.5,0.8,2s0.9,0.8,1.6,1
	c0.7,0.2,1.5,0.3,2.5,0.3s1.9-0.1,2.5-0.3c0.7-0.2,1.2-0.5,1.6-1c0.4-0.5,0.7-1.1,0.9-2c0.2-0.8,0.2-2.4,0.2-3.7V185.6z M70.6,190.5
	c0,1.8,0,0.2-0.1,1.9c-0.1,1.2-0.6,2.2-1.3,2.9c-0.7,0.7-1.5,1.2-2.6,1.5c-1.1,0.3-2.3,0.4-3.8,0.4c-1.5,0-2.7-0.2-3.8-0.4
	c-1.1-0.3-1.7-0.7-2.4-1.4c-0.7-0.7-1.2-1.7-1.5-2.8c-0.3-1.2-0.5-2.6-0.5-4.4V186c0-1.7,0.2-3,0.5-4.2c0.3-1.2,0.8-2.1,1.5-2.8
	c0.7-0.7,1.4-1.1,2.4-1.4c1.1-0.3,2.3-0.4,3.8-0.4c1.5,0,2.7,0.2,3.8,0.4c1.1,0.3,1.9,0.8,2.6,1.5c0.7,0.7,1,1.6,1.2,2.8
	c0.2,1.7,0.1,0.1,0.1,1.9l-2.7,0c0-1.2-0.4-2.9-0.8-3.4c-0.4-0.5-1-0.8-1.6-1c-0.7-0.2-1.5-0.3-2.5-0.3c-1,0-1.9,0.1-2.5,0.3
	c-0.7,0.2-1.2,0.5-1.6,1c-0.4,0.5-0.7,1.1-0.8,2c-0.2,0.8-0.2,2.2-0.2,3.5v2.1c0,1.3,0.1,2.9,0.2,3.7c0.2,0.8,0.4,1.5,0.8,2
	c0.4,0.5,0.9,0.8,1.6,1c0.7,0.2,1.5,0.3,2.5,0.3c1,0,1.9-0.1,2.5-0.3c0.7-0.2,1.2-0.5,1.6-1c0.4-0.5,0.8-1.7,0.8-3.2L70.6,190.5z
	 M148.6,179.2c1.1-0.8,2.3-1.3,3.4-1.7c0.8-0.2,1.9-0.4,3-0.4c1.3,0,2.4,0.2,3.2,0.6c0.8,0.4,1.3,0.8,1.9,1.5c1.1-0.7,1.9-1,3-1.5
	c1.1-0.4,2.4-0.7,3.6-0.7c1.2,0,2.4,0.3,3.2,0.6c0.7,0.2,1.3,0.6,1.7,1.1c0.4,0.5,0.9,1.6,1.1,2.4c0.2,0.8,0.1,1.1,0.1,2.1v13.6
	l-2.9,0.1v-13.6c0-1.4-0.5-2.5-1-3c-0.5-0.5-1.4-1.2-2.8-1.2c-0.7,0-2.1,0-3,0.4c-0.9,0.4-1.4,0.6-2.2,1.3l0.1,16.1h-2.8v-13.6
	c0-0.7,0-1.3-0.2-1.8c-0.4-1-0.8-1.3-1-1.5c-0.3-0.3-0.8-0.6-1.3-0.7c-0.4-0.1-0.9-0.2-1.6-0.2c-0.8,0-1.8,0.1-2.7,0.4
	c-0.9,0.3-1.7,0.8-2.5,1.4l-0.1,15.9h-2.8v-19.2l2.3,0L148.6,179.2z M176.9,171.7h3.1v3.1h-3.1V171.7z M177,177.5h3v19.3h-3V177.5z
	 M48.1,171.9h3.1v3.1h-3.1V171.9z M48.2,177.7h3V197h-3V177.7z M186.4,177.6l0.4,1.9c1.1-0.7,2.1-1.3,3.2-1.7
	c1.1-0.4,2.3-0.6,3.6-0.6c1.2,0,2.2,0.1,3.1,0.4c0.8,0.2,1.5,0.6,2.1,1.1c0.5,0.5,0.9,1.3,1.2,2.1c0.2,0.8,0.4,1.9,0.4,3.2v12.8
	h-3.2v-12.8c0-0.8-0.1-2.2-0.3-2.8c-0.2-0.6-0.4-1-0.8-1.3c-0.4-0.3-0.8-0.5-1.3-0.7c-0.6-0.1-1.2-0.2-1.9-0.2c-1,0-2,0.2-3,0.5
	c-1,0.3-1.9,0.7-2.7,1.3v15.9h-3v-19.2C184.1,177.6,186.4,177.6,186.4,177.6z M216.7,194.9c-0.9,0.6-1.6,1.1-2.6,1.5
	c-1,0.4-2,0.6-3,0.6c-1.1,0-2.2-0.1-3.1-0.4c-0.9-0.2-1.7-0.7-2.3-1.3c-0.6-0.6-1.1-1.5-1.5-2.7c-0.3-1.1-0.5-2.6-0.5-4.4v-2.3
	c0-1.8,0.2-3.3,0.5-4.4c0.3-1.1,0.8-2,1.5-2.7c0.6-0.6,1.4-1.1,2.3-1.3c0.9-0.2,1.9-0.4,3.1-0.4c1.1,0,2.2,0.2,3.2,0.6
	c1.1,0.4,2.1,1,3,1.7l0.1-1.9h2.5V197c0,2.2-0.8,4.2-2,5.3c-1.2,1.1-2.8,1.4-5.5,1.4c-1,0-2,0.2-3.1,0.1c-1.1-0.1-2-0.1-2.9-0.4
	l0.4-1.9c1,0.3,6.6,0.2,7.2,0s1.3-0.7,1.7-1c0.4-0.3,0.6-0.8,0.8-1.4c0.2-0.6,0.3-1.3,0.3-2.1L216.7,194.9L216.7,194.9z
	 M211.6,179.1c-0.8,0-1.5,0.1-2.1,0.3c-0.6,0.2-1.1,0.5-1.5,1c-0.4,0.5-0.8,1.6-1,2.4c-0.2,0.8-0.3,1.8-0.3,3v2.2
	c0,1.3,0.1,2.3,0.3,3.1c0.2,0.8,0.5,1.9,0.8,2.4c0.4,0.5,0.9,0.8,1.5,1s1.3,0.3,2.1,0.3c0.9,0,2-0.1,3-0.5s1.7-0.6,2.5-1.3v-11.8
	c-0.8-0.8-1.7-1.3-2.7-1.7C213.2,179.1,212.5,179.1,211.6,179.1z M118.8,194.9c-0.9,0.6-1.6,1.1-2.6,1.5c-1,0.4-2,0.6-3,0.6
	c-1.1,0-2.2-0.1-3.1-0.4c-0.9-0.2-1.7-0.7-2.3-1.3c-0.6-0.6-1.1-1.5-1.5-2.7c-0.3-1.1-0.5-2.6-0.5-4.4v-2.3c0-1.8,0.2-3.3,0.5-4.4
	c0.3-1.1,0.8-2,1.5-2.7c0.6-0.6,1.4-1.1,2.3-1.3c0.9-0.2,1.9-0.4,3.1-0.4c1.1,0,2.2,0.2,3.2,0.6s2.1,1,3,1.7l0.1-1.9h2.5V197
	c0,2.2-0.8,4.2-2,5.3c-1.2,1.1-2.8,1.4-5.5,1.4c-1,0-2,0.2-3.1,0.1c-1.1-0.1-2-0.1-2.9-0.4l0.4-1.9c1,0.3,6.6,0.2,7.2,0
	c0.6-0.1,1.3-0.7,1.7-1s0.6-0.8,0.8-1.4c0.2-0.6,0.3-1.3,0.3-2.1V194.9z M113.7,179.1c-0.8,0-1.5,0.1-2.1,0.3
	c-0.6,0.2-1.1,0.5-1.5,1c-0.4,0.5-0.8,1.6-1,2.4c-0.2,0.8-0.3,1.8-0.3,3v2.2c0,1.3,0.1,2.3,0.3,3.1c0.2,0.8,0.5,1.9,0.8,2.4
	c0.4,0.5,0.9,0.8,1.5,1s1.3,0.3,2.1,0.3c0.9,0,2-0.1,3-0.5s1.7-0.6,2.5-1.3v-11.8c-0.8-0.8-1.7-1.3-2.7-1.7
	C115.3,179.1,114.6,179.1,113.7,179.1z M139.5,177.5l-0.4,1.6c0,0-2.3-1.4-3.3-1.7c-1.7-0.5-3.5-0.4-4.5-0.2
	c-0.8,0.2-2.4,0.8-3.1,1.3c-0.6,0.4-1.4,1.7-1.7,2.3c-0.3,0.7-0.6,2.4-0.6,3.2c-0.1,1.9-0.4,5.6,0,7.4c0.2,1.1,0.8,3.2,1.5,4
	c0.6,0.7,2.2,1.6,3.1,1.8c1.1,0.3,3.5,0.3,4.7,0c1.1-0.2,3.8-1.9,3.8-1.9l0.4,1.7h2.3v-19.3h-2.3V177.5z M138.9,193.3
	c0,0-2.5,1.5-3.5,1.7c-0.8,0.2-2.5,0.2-3.2,0c-0.6-0.2-1.6-0.5-2.4-1.5c-0.6-0.7-0.6-1.7-0.7-2.3c-0.4-2-0.4-6.1,0-8.1
	c0.1-0.6,0-1.1,0.5-2.1c0.5-0.9,1.2-1.3,1.8-1.6c0.8-0.4,2.8-0.4,3.7-0.3c1,0.2,3.8,1.5,3.8,1.5L138.9,193.3L138.9,193.3z"/>
<g id="microgaming">
	
		<linearGradient id="XMLID_15_" gradientUnits="userSpaceOnUse" x1="304.6206" y1="-158.5688" x2="495.459" y2="171.9731" gradientTransform="matrix(0.3 0 0 -0.3 -7.629395e-006 93)">
		<stop  offset="0" style="stop-color:#3FA860"/>
		<stop  offset="0.9" style="stop-color:#00A4E1"/>
	</linearGradient>
	<path id="XMLID_637_" fill="url(#XMLID_15_)" d="M120,33.7c-31.6,0-57.3,25.7-57.3,57.3c0,5.7,0.8,11.2,2.4,16.4
		C80.2,87.2,97.4,55.8,99.4,51c1.9-4.4,3.4-6.5,8.5-5.4c1.4,0.3,3.6,2.6,3,7.4c-3.4,27.1-0.6,69.2,5.9,63.9
		c5.9-4.7,19.1-30.6,23.2-40.7c2.1-5.3,3.3-8.3,8-7.9c3.7,0.4,4.3,4.5,4.4,5.9c0.9,18.5,9.1,31.6,10.1,33.3c1.9,3.3-1.3,3.5-5.9-1.5
		c-2.9-3.1-7.1-9.9-10-17.7c-0.8-2.3-16.4,45.2-34.4,39.6c-13.8-4.2-13.8-35.6-13.1-50.7c0.1-1.5-14.4,28.4-26.8,45.3
		c10.2,15.5,27.8,25.7,47.8,25.7c31.6,0,57.3-25.7,57.3-57.3C177.3,59.4,151.6,33.7,120,33.7z"/>
	<linearGradient id="XMLID_16_" gradientUnits="userSpaceOnUse" x1="20.1934" y1="187.733" x2="219.8666" y2="187.733">
		<stop  offset="0" style="stop-color:#3FA860"/>
		<stop  offset="0.7308" style="stop-color:#00A4E1"/>
	</linearGradient>
	<path id="XMLID_638_" fill="url(#XMLID_16_)" d="M40,174l-7.6,23H31l-7.6-23H23v23h-2.8v-25.3h5.1l6.5,19.7h0l6.4-19.7h5.2V197
		h-2.8l-0.1-23H40z M84.6,179.4c-1.3,0-2.8-0.3-4.8,0.6c-0.8,0.4-1.7,0.8-2.5,1.5v15.2h-3.2v-19.3h2.3l0.4,2
		c0.8-0.7,1.7-1.3,2.7-1.6c2.9-1,4.8-0.9,5.3-0.6L84.6,179.4z M102.8,188.1c0,1.8-0.2,3.2-0.5,4.4c-0.3,1.2-0.8,2.1-1.5,2.8
		c-0.7,0.7-1.5,1.2-2.6,1.5s-2.3,0.4-3.8,0.4c-1.5,0-2.7-0.2-3.8-0.4c-1.1-0.3-1.9-0.8-2.6-1.5c-0.7-0.7-1.2-1.7-1.5-2.8
		c-0.3-1.2-0.5-2.6-0.5-4.4V186c0-1.7,0.2-3,0.5-4.2c0.3-1.2,0.8-2.1,1.5-2.8c0.7-0.7,1.5-1.2,2.6-1.5c1.1-0.3,2.3-0.4,3.8-0.4
		c1.5,0,2.7,0.2,3.8,0.4c1.1,0.3,1.9,0.8,2.6,1.5c0.7,0.7,1.2,1.7,1.5,2.8c0.3,1.2,0.5,2.4,0.5,4.2L102.8,188.1L102.8,188.1z
		 M99.7,185.6c0-1.3-0.1-2.4-0.2-3.2c-0.2-0.8-0.4-1.5-0.9-2c-0.4-0.5-1-0.8-1.6-1c-0.7-0.2-1.5-0.3-2.5-0.3s-1.9,0.1-2.5,0.3
		c-0.7,0.2-1.2,0.5-1.6,1s-0.7,1.1-0.8,2c-0.2,0.8-0.2,2.2-0.2,3.5v2.1c0,1.3,0.1,2.9,0.2,3.7c0.2,0.8,0.4,1.5,0.8,2s0.9,0.8,1.6,1
		c0.7,0.2,1.5,0.3,2.5,0.3s1.9-0.1,2.5-0.3c0.7-0.2,1.2-0.5,1.6-1c0.4-0.5,0.7-1.1,0.9-2c0.2-0.8,0.2-2.4,0.2-3.7V185.6z
		 M70.6,190.5c0,1.8,0,0.2-0.1,1.9c-0.1,1.2-0.6,2.2-1.3,2.9c-0.7,0.7-1.5,1.2-2.6,1.5c-1.1,0.3-2.3,0.4-3.8,0.4
		c-1.5,0-2.7-0.2-3.8-0.4c-1.1-0.3-1.7-0.7-2.4-1.4c-0.7-0.7-1.2-1.7-1.5-2.8c-0.3-1.2-0.5-2.6-0.5-4.4V186c0-1.7,0.2-3,0.5-4.2
		c0.3-1.2,0.8-2.1,1.5-2.8c0.7-0.7,1.4-1.1,2.4-1.4c1.1-0.3,2.3-0.4,3.8-0.4c1.5,0,2.7,0.2,3.8,0.4c1.1,0.3,1.9,0.8,2.6,1.5
		c0.7,0.7,1,1.6,1.2,2.8c0.2,1.7,0.1,0.1,0.1,1.9l-2.7,0c0-1.2-0.4-2.9-0.8-3.4c-0.4-0.5-1-0.8-1.6-1c-0.7-0.2-1.5-0.3-2.5-0.3
		c-1,0-1.9,0.1-2.5,0.3c-0.7,0.2-1.2,0.5-1.6,1c-0.4,0.5-0.7,1.1-0.8,2c-0.2,0.8-0.2,2.2-0.2,3.5v2.1c0,1.3,0.1,2.9,0.2,3.7
		c0.2,0.8,0.4,1.5,0.8,2c0.4,0.5,0.9,0.8,1.6,1c0.7,0.2,1.5,0.3,2.5,0.3c1,0,1.9-0.1,2.5-0.3c0.7-0.2,1.2-0.5,1.6-1
		c0.4-0.5,0.8-1.7,0.8-3.2 M148.6,179.2c1.1-0.8,2.3-1.3,3.4-1.7c0.8-0.2,1.9-0.4,3-0.4c1.3,0,2.4,0.2,3.2,0.6
		c0.8,0.4,1.3,0.8,1.9,1.5c1.1-0.7,1.9-1,3-1.5c1.1-0.4,2.4-0.7,3.6-0.7c1.2,0,2.4,0.3,3.2,0.6c0.7,0.2,1.3,0.6,1.7,1.1
		c0.4,0.5,0.9,1.6,1.1,2.4c0.2,0.8,0.1,1.1,0.1,2.1v13.6l-2.9,0.1v-13.6c0-1.4-0.5-2.5-1-3c-0.5-0.5-1.4-1.2-2.8-1.2
		c-0.7,0-2.1,0-3,0.4c-0.9,0.4-1.4,0.6-2.2,1.3l0.1,16.1h-2.8v-13.6c0-0.7,0-1.3-0.2-1.8c-0.4-1-0.8-1.3-1-1.5
		c-0.3-0.3-0.8-0.6-1.3-0.7c-0.4-0.1-0.9-0.2-1.6-0.2c-0.8,0-1.8,0.1-2.7,0.4c-0.9,0.3-1.7,0.8-2.5,1.4l-0.1,15.9h-2.8v-19.2l2.3,0
		L148.6,179.2z M176.9,171.7h3.1v3.1h-3.1V171.7z M177,177.5h3v19.3h-3V177.5z M48.1,171.9h3.1v3.1h-3.1V171.9z M48.2,177.7h3V197
		h-3V177.7z M186.4,177.6l0.4,1.9c1.1-0.7,2.1-1.3,3.2-1.7c1.1-0.4,2.3-0.6,3.6-0.6c1.2,0,2.2,0.1,3.1,0.4c0.8,0.2,1.5,0.6,2.1,1.1
		c0.5,0.5,0.9,1.3,1.2,2.1c0.2,0.8,0.4,1.9,0.4,3.2v12.8h-3.2v-12.8c0-0.8-0.1-2.2-0.3-2.8c-0.2-0.6-0.4-1-0.8-1.3
		c-0.4-0.3-0.8-0.5-1.3-0.7c-0.6-0.1-1.2-0.2-1.9-0.2c-1,0-2,0.2-3,0.5c-1,0.3-1.9,0.7-2.7,1.3v15.9h-3v-19.2
		C184.1,177.6,186.4,177.6,186.4,177.6z M216.7,194.9c-0.9,0.6-1.6,1.1-2.6,1.5c-1,0.4-2,0.6-3,0.6c-1.1,0-2.2-0.1-3.1-0.4
		c-0.9-0.2-1.7-0.7-2.3-1.3c-0.6-0.6-1.1-1.5-1.5-2.7c-0.3-1.1-0.5-2.6-0.5-4.4v-2.3c0-1.8,0.2-3.3,0.5-4.4c0.3-1.1,0.8-2,1.5-2.7
		c0.6-0.6,1.4-1.1,2.3-1.3c0.9-0.2,1.9-0.4,3.1-0.4c1.1,0,2.2,0.2,3.2,0.6c1.1,0.4,2.1,1,3,1.7l0.1-1.9h2.5V197c0,2.2-0.8,4.2-2,5.3
		c-1.2,1.1-2.8,1.4-5.5,1.4c-1,0-2,0.2-3.1,0.1c-1.1-0.1-2-0.1-2.9-0.4l0.4-1.9c1,0.3,6.6,0.2,7.2,0s1.3-0.7,1.7-1
		c0.4-0.3,0.6-0.8,0.8-1.4c0.2-0.6,0.3-1.3,0.3-2.1L216.7,194.9L216.7,194.9z M211.6,179.1c-0.8,0-1.5,0.1-2.1,0.3
		c-0.6,0.2-1.1,0.5-1.5,1c-0.4,0.5-0.8,1.6-1,2.4c-0.2,0.8-0.3,1.8-0.3,3v2.2c0,1.3,0.1,2.3,0.3,3.1c0.2,0.8,0.5,1.9,0.8,2.4
		c0.4,0.5,0.9,0.8,1.5,1s1.3,0.3,2.1,0.3c0.9,0,2-0.1,3-0.5s1.7-0.6,2.5-1.3v-11.8c-0.8-0.8-1.7-1.3-2.7-1.7
		C213.2,179.1,212.5,179.1,211.6,179.1z M118.8,194.9c-0.9,0.6-1.6,1.1-2.6,1.5c-1,0.4-2,0.6-3,0.6c-1.1,0-2.2-0.1-3.1-0.4
		c-0.9-0.2-1.7-0.7-2.3-1.3c-0.6-0.6-1.1-1.5-1.5-2.7c-0.3-1.1-0.5-2.6-0.5-4.4v-2.3c0-1.8,0.2-3.3,0.5-4.4c0.3-1.1,0.8-2,1.5-2.7
		c0.6-0.6,1.4-1.1,2.3-1.3c0.9-0.2,1.9-0.4,3.1-0.4c1.1,0,2.2,0.2,3.2,0.6s2.1,1,3,1.7l0.1-1.9h2.5V197c0,2.2-0.8,4.2-2,5.3
		c-1.2,1.1-2.8,1.4-5.5,1.4c-1,0-2,0.2-3.1,0.1c-1.1-0.1-2-0.1-2.9-0.4l0.4-1.9c1,0.3,6.6,0.2,7.2,0c0.6-0.1,1.3-0.7,1.7-1
		s0.6-0.8,0.8-1.4c0.2-0.6,0.3-1.3,0.3-2.1V194.9z M113.7,179.1c-0.8,0-1.5,0.1-2.1,0.3c-0.6,0.2-1.1,0.5-1.5,1
		c-0.4,0.5-0.8,1.6-1,2.4c-0.2,0.8-0.3,1.8-0.3,3v2.2c0,1.3,0.1,2.3,0.3,3.1c0.2,0.8,0.5,1.9,0.8,2.4c0.4,0.5,0.9,0.8,1.5,1
		s1.3,0.3,2.1,0.3c0.9,0,2-0.1,3-0.5s1.7-0.6,2.5-1.3v-11.8c-0.8-0.8-1.7-1.3-2.7-1.7C115.3,179.1,114.6,179.1,113.7,179.1z
		 M139.5,177.5l-0.4,1.6c0,0-2.3-1.4-3.3-1.7c-1.7-0.5-3.5-0.4-4.5-0.2c-0.8,0.2-2.4,0.8-3.1,1.3c-0.6,0.4-1.4,1.7-1.7,2.3
		c-0.3,0.7-0.6,2.4-0.6,3.2c-0.1,1.9-0.4,5.6,0,7.4c0.2,1.1,0.8,3.2,1.5,4c0.6,0.7,2.2,1.6,3.1,1.8c1.1,0.3,3.5,0.3,4.7,0
		c1.1-0.2,3.8-1.9,3.8-1.9l0.4,1.7h2.3v-19.3h-2.3V177.5z M138.9,193.3c0,0-2.5,1.5-3.5,1.7c-0.8,0.2-2.5,0.2-3.2,0
		c-0.6-0.2-1.6-0.5-2.4-1.5c-0.6-0.7-0.6-1.7-0.7-2.3c-0.4-2-0.4-6.1,0-8.1c0.1-0.6,0-1.1,0.5-2.1c0.5-0.9,1.2-1.3,1.8-1.6
		c0.8-0.4,2.8-0.4,3.7-0.3c1,0.2,3.8,1.5,3.8,1.5L138.9,193.3L138.9,193.3z"/>
</g>
</svg>
