<?xml version="1.0" encoding="utf-8"?>
<!-- Generator: Adobe Illustrator 17.1.0, SVG Export Plug-In . SVG Version: 6.00 Build 0)  -->
<!DOCTYPE svg PUBLIC "-//W3C//DTD SVG 1.1//EN" "http://www.w3.org/Graphics/SVG/1.1/DTD/svg11.dtd">
<svg version="1.1" xmlns="http://www.w3.org/2000/svg" xmlns:xlink="http://www.w3.org/1999/xlink" x="0px" y="0px"
	 viewBox="0 0 800 660" enable-background="new 0 0 800 660" xml:space="preserve">
<g id="Layer_2">
	
		<radialGradient id="dark_1_" cx="399.9813" cy="329.9318" r="395.506" gradientTransform="matrix(0.9639 0 0 0.88 14.4759 39.66)" gradientUnits="userSpaceOnUse">
		<stop  offset="0.5" style="stop-color:#262626"/>
		<stop  offset="1" style="stop-color:#1A1A1A"/>
	</radialGradient>
	<rect id="dark" fill="url(#dark_1_)" width="800" height="660"/>
</g>

<g id="devs">
	<g id="nextgen-gaming">
		<g>
			<linearGradient id="XMLID_91_" gradientUnits="userSpaceOnUse" x1="236.9668" y1="516.2991" x2="623.8575" y2="138.7873">
				<stop  offset="0" style="stop-color:#3E252A"/>
				<stop  offset="5.331649e-002" style="stop-color:#44282C"/>
				<stop  offset="0.1403" style="stop-color:#562E2F"/>
				<stop  offset="0.2502" style="stop-color:#763331"/>
				<stop  offset="0.3772" style="stop-color:#A7332D"/>
				<stop  offset="0.481" style="stop-color:#DB2028"/>
				<stop  offset="0.9447" style="stop-color:#DB2028"/>
			</linearGradient>
			<path id="XMLID_47_" fill="url(#XMLID_91_)" d="M299,526.6H154.7c-0.9,0-1.3-1.1-0.6-1.6l441.6-390.6c0.6-0.6,1.4-0.9,2.3-0.9
				h47.5c0.8,0,1.2,0.9,0.7,1.5L301.8,525.3C301.1,526.1,300.1,526.6,299,526.6z"/>
			<path id="XMLID_42_" fill="#3E252A" d="M645.4,133.9c0.2,0,0.4,0.2,0.4,0.2c0,0.1,0.1,0.3-0.1,0.4L301.4,525
				c-0.6,0.7-1.5,1.1-2.4,1.1H154.7c-0.3,0-0.4-0.2-0.4-0.3c0-0.1-0.1-0.3,0.1-0.5l441.6-390.6c0.5-0.5,1.2-0.7,1.9-0.7H645.4
				 M645.4,133.4h-47.5c-0.8,0-1.6,0.3-2.3,0.9L154,524.9c-0.6,0.6-0.2,1.6,0.6,1.6H299c1.1,0,2.1-0.5,2.8-1.3l344.2-390.4
				C646.6,134.4,646.2,133.4,645.4,133.4L645.4,133.4z"/>
		</g>
		<g id="XMLID_310_">
			<g>
				<linearGradient id="XMLID_92_" gradientUnits="userSpaceOnUse" x1="403.0578" y1="128.0491" x2="213.6089" y2="294.6566">
					<stop  offset="0" style="stop-color:#E3E9F5"/>
					<stop  offset="0.254" style="stop-color:#B3B7BF"/>
					<stop  offset="0.8104" style="stop-color:#5C6064"/>
					<stop  offset="1" style="stop-color:#434A4C"/>
				</linearGradient>
				<path id="XMLID_45_" fill="url(#XMLID_92_)" d="M402.9,133.4H219.2c-0.7,0-1.1,0.7-0.8,1.3l112.3,210.1c0.6,1.1,2,1.3,2.9,0.5
					l121.1-106.2c0.9-0.7,1.1-2,0.6-3l-50.5-101.5C404.5,133.9,403.7,133.4,402.9,133.4z"/>
				<path id="XMLID_40_" fill="#3E252A" d="M402.9,133.9c0.7,0,1.3,0.4,1.6,1l50.5,101.5c0.4,0.8,0.2,1.8-0.5,2.4L333.3,345.1
					c-0.3,0.2-0.6,0.3-0.9,0.3c-0.5,0-1-0.3-1.2-0.7L218.8,134.5c-0.1-0.2,0-0.3,0-0.4s0.1-0.2,0.4-0.2H402.9 M402.9,133.4H219.2
					c-0.7,0-1.1,0.7-0.8,1.3l112.3,210.1c0.3,0.6,1,1,1.7,1c0.4,0,0.9-0.2,1.2-0.5l121.1-106.2c0.9-0.7,1.1-2,0.6-3l-50.5-101.5
					C404.5,133.9,403.7,133.4,402.9,133.4L402.9,133.4z"/>
			</g>
			<g>
				<linearGradient id="XMLID_93_" gradientUnits="userSpaceOnUse" x1="616.382" y1="368.1886" x2="426.9744" y2="534.7598">
					<stop  offset="0" style="stop-color:#E3E9F5"/>
					<stop  offset="0.254" style="stop-color:#B3B7BF"/>
					<stop  offset="0.8104" style="stop-color:#5C6064"/>
					<stop  offset="1" style="stop-color:#434A4C"/>
				</linearGradient>
				<path id="XMLID_44_" fill="url(#XMLID_93_)" d="M613.4,520.4L506.6,316.3c-0.6-1.2-2.2-1.3-3-0.4L388.5,446.2
					c-0.5,0.6-0.6,1.4-0.2,2.1l39.4,73.7c0.4,0.7,1.1,1.1,1.8,1.1h182.2C613.1,523.2,614,521.7,613.4,520.4z"/>
				<path id="XMLID_23_" fill="#3E252A" d="M504.9,315.8c0.5,0,1,0.3,1.2,0.7l106.8,204.1c0.2,0.4,0.2,0.9,0,1.4
					c-0.3,0.4-0.7,0.7-1.2,0.7H429.5c-0.6,0-1.1-0.3-1.4-0.8l-39.4-73.7c-0.3-0.5-0.2-1.1,0.2-1.6l115.1-130.3
					C504.2,316,504.5,315.8,504.9,315.8 M504.9,315.3c-0.5,0-1,0.2-1.4,0.6L388.5,446.2c-0.5,0.6-0.6,1.4-0.2,2.1l39.4,73.7
					c0.4,0.7,1.1,1.1,1.8,1.1h182.2c1.4,0,2.3-1.5,1.7-2.8L506.6,316.3C506.2,315.7,505.6,315.3,504.9,315.3L504.9,315.3z"/>
			</g>
		</g>
	</g>
</g>
</svg>
