<?xml version="1.0" encoding="utf-8"?>
<!-- Generator: Adobe Illustrator 17.1.0, SVG Export Plug-In . SVG Version: 6.00 Build 0)  -->
<!DOCTYPE svg PUBLIC "-//W3C//DTD SVG 1.1//EN" "http://www.w3.org/Graphics/SVG/1.1/DTD/svg11.dtd">
<svg version="1.1" xmlns="http://www.w3.org/2000/svg" xmlns:xlink="http://www.w3.org/1999/xlink" x="0px" y="0px"
	 viewBox="0 0 800 660" enable-background="new 0 0 800 660" xml:space="preserve">
<g id="Layer_2">
	
		<radialGradient id="SVGID_1_" cx="399.9813" cy="329.9318" r="395.506" gradientTransform="matrix(0.9639 0 0 0.88 14.4759 39.66)" gradientUnits="userSpaceOnUse">
		<stop  offset="0.5" style="stop-color:#262626"/>
		<stop  offset="1" style="stop-color:#1A1A1A"/>
	</radialGradient>
	<rect fill="url(#SVGID_1_)" width="800" height="660"/>
</g>
<g id="Layer_1">
	<path id="online-roulette" fill="#FFFFFF" d="M279.3,378.7c32.3,22,75.2,34,120.7,34s88.4-12.1,120.7-34
		c32.7-22.3,50.8-52,50.8-83.7c0-31.7-18-61.5-50.8-83.7c-32.3-22-75.2-34-120.7-34s-88.4,12.1-120.7,34
		c-32.7,22.3-50.8,52-50.8,83.7C228.5,326.7,246.6,356.4,279.3,378.7z M400,405.2c-0.7,0-7.4-0.1-7.5-0.1l0-2.9
		c2.5,0.1,5,0.2,7.5,0.2c2.5,0,5-0.1,7.5-0.2l0,2.9C407.4,405,400.7,405.2,400,405.2z M281.9,364.4l14.8-2.7
		c1.6,1.9,3.3,3.8,5.2,5.6l-12,4.2C287.1,369.2,284.4,366.8,281.9,364.4z M289.9,332.1c-0.8-3.5-1.2-7.1-1.2-10.6
		c0-1.5,0.1-3,0.2-4.5c0.4-3.8,1.2-7.6,2.4-11.2c1.2-3.7,2.9-7.4,5-10.9c2.1-3.6,4.7-7.1,7.8-10.5c2.5-2.8,5.3-5.5,8.3-8
		c3.6-3,7.6-5.9,11.9-8.5c3.8-2.3,7.8-4.5,12.1-6.4c4.7-2.2,9.8-4.1,14.9-5.8c4.6-1.5,9.3-2.7,14.1-3.7c5.5-1.2,11-2.1,16.6-2.7
		c0.1,0,0.2,0,0.3,0c0.5-0.1,1.1-0.1,1.6-0.2v7.6c-21,2.4-40.3,9.4-54.6,19.9c-15.6,11.6-24.3,26.5-24.3,42.2
		c0,17.2,10.1,33.2,28.4,45.1c17.8,11.6,41.4,18,66.5,18c25.1,0,48.7-6.4,66.5-18c18.3-11.9,28.4-27.9,28.4-45.1
		c0-15.7-8.6-30.7-24.3-42.2C456.3,266,437,259,416,256.6V249c0.3,0,0.6,0.1,0.9,0.1c5.7,0.6,11.3,1.4,16.7,2.6
		c4.8,1,9.5,2.2,14.2,3.7c5.1,1.6,10.2,3.5,15,5.7c4.3,1.9,8.4,4.1,12.2,6.4c4.3,2.6,8.4,5.5,12.1,8.5c3.1,2.6,5.9,5.2,8.4,8
		c3.1,3.4,5.7,6.9,7.9,10.5c2.2,3.6,3.9,7.3,5.2,11c1.3,3.7,2.1,7.6,2.5,11.4c0.2,1.6,0.2,3.2,0.2,4.7c0,3.5-0.4,7.1-1.1,10.5
		c-0.9,4-2.2,7.9-4.1,11.7c-1.9,4-4.4,7.9-7.4,11.6c-3,3.8-6.6,7.4-10.5,10.8c-5.1,4.4-10.9,8.3-17.4,11.8
		c-5.1,2.8-10.7,5.3-16.5,7.4c-7.6,2.8-15.8,5.1-24.3,6.6c-6.5,1.2-13.3,2-20.1,2.4c-7.1,0.4-14.2,0.4-21-0.1
		c-6.7-0.4-13.4-1.3-20-2.5c-8.4-1.6-16.5-3.9-24.1-6.8c-5.7-2.1-11.1-4.6-16.2-7.4c-6.4-3.5-12.1-7.5-17.2-11.8
		c-3.9-3.4-7.4-7-10.3-10.7c-2.9-3.7-5.3-7.5-7.2-11.4C292.1,340,290.7,336.1,289.9,332.1z M400,278.4c0.9,0,1.9-0.1,2.8-0.3v12.7
		c0,1.6-1.3,2.8-2.8,2.8s-2.8-1.3-2.8-2.8v-12.7C398.1,278.3,399.1,278.4,400,278.4z M415.9,264.2c2.6,0.3,5.2,0.7,7.7,1.1
		l-11.8,14.9c-0.5-0.2-1-0.3-1.4-0.4v-5.6C413.4,271.6,415.3,268.1,415.9,264.2z M312.7,318.8c0-9.7,4-18.9,11.1-26.9l49.5,6
		c0.2,2.3,1,4.6,2.3,6.6l-60.5,27.2C313.5,327.5,312.7,323.2,312.7,318.8z M368.2,267.1l13,16.5c-2.9,1.9-5.1,4.3-6.4,6.9l-44-5.3
		C340.3,277.1,353.2,270.8,368.2,267.1z M400,301.2c5.7,0,10.4-4.6,10.4-10.4v-3.2c0.4,0.2,0.8,0.3,1.2,0.5c4.1,1.8,6.9,4.4,7.6,7.3
		c0.1,0.5,0.2,0.9,0.2,1.4c0,2.7-1.9,4.8-3.4,6.1c-2.1,1.8-5,3.1-8.4,4c-4.8,1.2-10.2,1.2-15,0c-3.3-0.8-6.2-2.2-8.4-4
		c-1.6-1.3-3.4-3.4-3.4-6.1c0-0.5,0.1-0.9,0.2-1.4c0.7-2.8,3.4-5.5,7.6-7.3c0.4-0.2,0.8-0.3,1.2-0.5v3.2
		C389.6,296.5,394.3,301.2,400,301.2z M381.3,310.1c1.5,1,3.2,1.9,5,2.6l-27.1,55.1c-18.7-6.3-33.3-16.8-40.9-29.4L381.3,310.1z
		 M393.7,314.8c2.1,0.3,4.2,0.5,6.3,0.5c2.1,0,4.2-0.2,6.3-0.5l27.2,55.3c-10.3,2.7-21.6,4.2-33.5,4.2s-23.1-1.5-33.5-4.2
		L393.7,314.8z M440.8,367.8l-27.1-55.1c1.8-0.7,3.5-1.6,5-2.6l62.9,28.3C474.1,351.1,459.4,361.6,440.8,367.8z M484.9,331.6
		l-60.5-27.2c1.3-2.1,2.1-4.3,2.3-6.6l49.5-6c7.1,8,11.1,17.2,11.1,26.9C487.3,323.2,486.5,327.5,484.9,331.6z M425.2,290.4
		c-1.4-2.6-3.6-5-6.4-6.9l13-16.5c15,3.7,27.9,10.1,37.5,18L425.2,290.4z M389.6,279.7c-0.5,0.1-1,0.3-1.4,0.4l-11.8-14.9
		c2.5-0.5,5.1-0.8,7.7-1.1c0.5,3.9,2.5,7.5,5.5,10V279.7z M510,371.5l-12-4.2c1.8-1.8,3.6-3.7,5.2-5.6l14.8,2.7
		C515.6,366.8,512.9,369.2,510,371.5z M415,401.7c4.9-0.4,9.8-1.1,14.6-1.9l1.6,3.1c-5.3,0.8-10.7,1.3-16.1,1.7L415,401.7z
		 M473.1,385.3l7.5,3.8c-4.6,2-9.3,3.9-14.2,5.5l-3.7-4.4C466.3,388.7,469.8,387,473.1,385.3z M455.3,393.1l3.4,4
		c-6.4,1.9-13,3.4-19.7,4.6l-1.7-3.4C443.5,396.9,449.5,395.2,455.3,393.1z M501.7,377.5c-4,2.6-8.2,5.1-12.6,7.4l-8.2-4.2
		c3.8-2.4,7.4-5,10.7-7.7l11,3.8C502.4,377.1,502,377.3,501.7,377.5z M326.9,385.3c3.3,1.8,6.8,3.4,10.4,5l-3.7,4.4
		c-4.9-1.7-9.6-3.5-14.2-5.5L326.9,385.3z M370.4,399.8c4.8,0.8,9.7,1.5,14.6,1.9l0,3c-5.4-0.4-10.8-0.9-16.1-1.7L370.4,399.8z
		 M361.1,401.7c-6.7-1.2-13.3-2.8-19.7-4.6l3.4-3.9c5.8,2.1,11.8,3.8,18,5.2L361.1,401.7z M308.3,373c3.3,2.7,6.9,5.3,10.8,7.7
		l-8.2,4.2c-4.8-2.5-9.3-5.2-13.5-8L308.3,373z M524,357.8l-15.7-2.9c1.3-1.9,2.4-3.8,3.4-5.7l18.6-0.1
		C528.5,352,526.4,355,524,357.8z M534.4,341.5l-19.2,0.2c0.6-1.7,1.2-3.5,1.7-5.2l20.4-2.5C536.5,336.5,535.5,339,534.4,341.5z
		 M539.7,317.8c0,2.8-0.2,5.6-0.6,8.3l-20.6,2.5c0.3-2.3,0.5-4.7,0.5-7.1c0-0.6,0-1.2,0-1.8l20.8-3.9
		C539.6,316.5,539.7,317.1,539.7,317.8z M518.1,312.2c-0.3-1.8-0.7-3.6-1.2-5.4l19.5-7.9c1.1,3.1,1.9,6.2,2.5,9.4L518.1,312.2z
		 M514.5,299.6c-0.8-1.8-1.6-3.7-2.6-5.5l16.5-10.7c1.9,2.8,3.6,5.6,5,8.5L514.5,299.6z M508,287.7c-1.2-1.8-2.6-3.6-4-5.3
		l14.1-11.1c2,2,3.9,4,5.6,6.1L508,287.7z M499,276.7c-1.2-1.2-2.4-2.4-3.7-3.5l11.2-11.8c2.1,1.6,4.1,3.1,6,4.8L499,276.7z
		 M489.6,268.4c-2.1-1.6-4.3-3.2-6.6-4.7l8.9-11.6c2.9,1.6,5.6,3.2,8.3,5L489.6,268.4z M476.6,259.7c-2-1.1-4-2.2-6-3.2l7.2-11.2
		c2.5,1.1,5,2.2,7.4,3.3L476.6,259.7z M463.7,253.2c-2.7-1.2-5.5-2.3-8.3-3.3l6.3-10.6c3,0.9,6,1.9,9,3L463.7,253.2z M448,247.6
		c-2.6-0.8-5.2-1.5-7.8-2.1l3.8-10.6c3.4,0.7,6.8,1.5,10.2,2.4L448,247.6z M432.8,243.8c-3.4-0.7-6.9-1.2-10.4-1.7l1.2-10.5
		c4.4,0.5,8.7,1.1,12.9,1.8L432.8,243.8z M415,240.6c-0.3-0.3-0.7-0.6-1.1-0.8c0.5-1.4,0.7-2.9,0.7-4.5c0-1.5-0.3-3-0.8-4.5
		c0.8,0,1.5,0.1,2.3,0.2L415,240.6z M407,235.3c0,1.9-0.8,3.8-2.2,5.1c-1.1,1.1-1.5,2.7-0.9,4.1c0.6,1.4,2,2.4,3.5,2.4h1V262
		c0,2.9-1.5,5.6-3.9,7.1c-0.1,0.1-0.2,0.2-0.3,0.2l0,0c-2.5,2-6,2-8.5,0l0,0c-0.1-0.1-0.2-0.2-0.3-0.2c-2.5-1.6-3.9-4.2-3.9-7.1
		v-15.1h1c1.5,0,2.9-0.9,3.5-2.4c0.6-1.4,0.2-3.1-0.9-4.1c-1.4-1.3-2.2-3.1-2.2-5.1c0-4,3.3-7.2,7.3-7
		C404,228.5,407,231.6,407,235.3z M386.1,239.8c-0.4,0.2-0.8,0.5-1.1,0.8l-1.1-9.7c0.8-0.1,1.5-0.1,2.3-0.2c-0.5,1.4-0.7,3-0.7,4.6
		C385.4,236.9,385.6,238.4,386.1,239.8z M376.4,231.6l1.2,10.5c-3.5,0.4-7,1-10.4,1.7l-3.7-10.4C367.7,232.7,372,232.1,376.4,231.6z
		 M356,234.8l3.8,10.6c-2.6,0.6-5.2,1.3-7.8,2.1l-6.2-10.3C349.1,236.4,352.5,235.6,356,234.8z M338.3,239.4l6.3,10.6
		c-2.8,1-5.6,2.1-8.3,3.3l-7-10.8C332.3,241.3,335.3,240.3,338.3,239.4z M322.2,245.3l7.2,11.2c-2.1,1-4.1,2.1-6,3.2l-8.5-11.1
		C317.2,247.4,319.7,246.3,322.2,245.3z M308,252.1l8.9,11.5c-2.3,1.5-4.5,3.1-6.5,4.7L299.7,257C302.4,255.3,305.2,253.7,308,252.1
		z M293.5,261.4l11.1,11.8c-1.3,1.1-2.5,2.3-3.7,3.5l-13.5-10.6C289.4,264.5,291.4,262.9,293.5,261.4z M281.8,271.3l14.1,11.1
		c-1.4,1.8-2.7,3.5-4,5.3l-15.8-10.3C277.9,275.4,279.8,273.3,281.8,271.3z M271.6,283.5l16.5,10.7c-0.9,1.8-1.8,3.6-2.5,5.5
		l-19-7.7C268,289.1,269.7,286.2,271.6,283.5z M263.7,298.9l19.5,7.9c-0.5,1.8-0.9,3.6-1.2,5.4l-20.8-3.9
		C261.7,305.1,262.6,302,263.7,298.9z M281.2,319.7c0,0.6,0,1.2,0,1.8c0,2.4,0.2,4.7,0.5,7.1l-20.6-2.5c-0.4-2.8-0.6-5.6-0.6-8.3
		c0-0.7,0-1.3,0-1.9L281.2,319.7z M283.1,336.4c0.5,1.8,1,3.5,1.7,5.2l-19.3-0.2c-1.1-2.5-2.1-5-2.8-7.5L283.1,336.4z M288.3,349.2
		c1,1.9,2.2,3.9,3.4,5.8l-15.8,2.9c-2.4-2.9-4.5-5.8-6.3-8.8L288.3,349.2z M400,184.7c59.6,0,112,21.5,140.6,53.7
		c-34-26.8-85.5-43-140.6-43s-106.6,16.3-140.6,43C288,206.3,340.4,184.7,400,184.7z M236.5,287.5c1.2-12.2,6.8-23.6,15.4-32.3
		c31.5-32.2,87.5-52.3,148.2-52.3c60.7,0,116.6,20.1,148.2,52.3c8.6,8.8,14.2,20.1,15.4,32.3c0.2,2.5,0.4,5,0.4,7.5
		c0,8-1.3,15.9-3.7,23.4l-0.9-13.4c-0.1-2.1-1.9-3.6-4-3.5c-2.1,0.1-3.6,1.9-3.5,4l0.9,13.7c0.1,2,1.8,3.5,3.8,3.5
		c0.1,0,0.2,0,0.3,0c0.9-0.1,1.7-0.5,2.3-1c-5.4,14.5-15,27.8-28,39.4c10.3-13,16.1-27.7,16.1-43.3c0-50.8-61.2-92.3-139.6-94.8
		c-2.1-1.3-4.5-2.1-7-2.2c-3-0.1-5.8,0.7-8.2,2.2c-4.3,0.1-8.7,0.4-13,0.8c-7.3,0.7-14.6,1.7-21.6,3c-6.4,1.2-12.7,2.7-18.7,4.5
		c-5.7,1.7-11.3,3.6-16.7,5.8c-5.2,2.1-10.2,4.4-14.9,6.8c-5.5,2.9-10.8,6-15.5,9.4c-4.6,3.2-8.9,6.7-12.8,10.3
		c-4.3,4-8.1,8.1-11.4,12.5c-4,5.3-7.2,10.8-9.6,16.4c-3.5,8.2-5.2,16.7-5.2,25.2c0,4.2,0.4,8.4,1.3,12.5c2.2,10.8,7.1,21,14.5,30.5
		c-12.8-11.5-22.3-24.7-27.6-39.1c0.6,0.6,1.4,1,2.3,1c0.1,0,0.2,0,0.3,0c2,0,3.6-1.5,3.8-3.5l0.9-13.7c0.1-2.1-1.4-3.9-3.5-4
		c-2.1-0.1-3.9,1.4-4,3.5l-0.9,13.4c-2.4-7.6-3.7-15.4-3.7-23.4C236.1,292.4,236.2,289.9,236.5,287.5z M612,299.8c0-0.3,0-2,0-2
		c-0.8-36.3-23-70.2-62.7-95.7c-39.9-25.6-92.9-39.7-149.3-39.7s-109.3,14.1-149.3,39.7c-39.7,25.5-61.9,59.4-62.7,95.7
		c0,0,0,1.7,0,2c0,6.8,0.8,13.4,2.2,20c2.8,13.9,8,27.6,15.7,40.8c5,37.5,27.4,72.1,63.1,97.5c35.9,25.6,82.5,39.7,131,39.7
		s95.1-14.1,131-39.7c35.7-25.4,58.1-60,63.1-97.5c7.6-13.2,12.9-26.9,15.6-40.8C611.2,313.2,612,306.5,612,299.8z M400,169.9
		c112.2,0,203.6,57.8,204.4,128.9c-0.1,6.2-0.7,12.4-1.9,18.6c-13.6,63.3-99.2,112.2-202.5,112.2s-188.9-48.9-202.5-112.2
		c-1.2-6.2-1.8-12.4-1.9-18.6C196.4,227.6,287.8,169.9,400,169.9z M567.7,384c-6.8,7.5-14.4,14.7-22.8,21.4
		c-39.8,31.7-91.2,49.2-144.9,49.2s-105.1-17.5-144.9-49.2c-8.4-6.7-16.1-13.9-22.8-21.4c5.6,4.7,11.8,9.2,18.4,13.5
		c39.9,25.6,92.9,39.7,149.3,39.7s109.3-14.1,149.3-39.7C555.9,393.2,562,388.7,567.7,384z M526.7,451.9
		C492,476.5,447,490.1,400,490.1s-92-13.6-126.7-38.3c-28.1-20-47.5-45.9-56-74.2c9.1,12,20.2,23.3,33.1,33.6
		c41.1,32.8,94.2,50.9,149.6,50.9s108.5-18.1,149.6-50.9c12.9-10.3,24-21.6,33.1-33.6C574.1,406,554.7,431.9,526.7,451.9z
		 M297.9,240.8c0.6,1.4,2,2.3,3.5,2.3c0.5,0,1-0.1,1.5-0.3c1.9-0.8,2.8-3,2-4.9l-3.8-8.9c-0.8-1.9-3-2.8-4.9-2c-1.9,0.8-2.8,3-2,4.9
		L297.9,240.8z M497.1,242.8c0.5,0.2,1,0.3,1.5,0.3c1.5,0,2.9-0.9,3.5-2.3l3.8-8.9c0.8-1.9-0.1-4.1-2-4.9c-1.9-0.8-4.1,0.1-4.9,2
		l-3.8,8.9C494.3,239.8,495.2,242,497.1,242.8z M393.4,215.3h13.2c2.1,0,3.8-1.7,3.8-3.8s-1.7-3.8-3.8-3.8h-13.2
		c-2.1,0-3.8,1.7-3.8,3.8S391.3,215.3,393.4,215.3z"/>
</g>
</svg>
