<?xml version="1.0" encoding="utf-8"?>
<!-- Generator: Adobe Illustrator 17.1.0, SVG Export Plug-In . SVG Version: 6.00 Build 0)  -->
<!DOCTYPE svg PUBLIC "-//W3C//DTD SVG 1.1//EN" "http://www.w3.org/Graphics/SVG/1.1/DTD/svg11.dtd">
<svg version="1.1" xmlns="http://www.w3.org/2000/svg" xmlns:xlink="http://www.w3.org/1999/xlink" x="0px" y="0px"
	 viewBox="0 0 800 660" enable-background="new 0 0 800 660" xml:space="preserve">
<g id="Layer_2">
	
		<radialGradient id="SVGID_1_" cx="399.9813" cy="329.9318" r="395.506" gradientTransform="matrix(0.9639 0 0 0.88 14.4759 39.66)" gradientUnits="userSpaceOnUse">
		<stop  offset="0.5" style="stop-color:#262626"/>
		<stop  offset="1" style="stop-color:#1A1A1A"/>
	</radialGradient>
	<rect fill="url(#SVGID_1_)" width="800" height="660"/>
</g>
<g id="Layer_1">
	<path fill="#FFFFFF" d="M592.2,177.2H207.8c-14.7,0-26.8,12.1-26.8,26.8v252c0,14.7,12.1,26.8,26.8,26.8h384.5
		c14.7,0,26.8-12.1,26.8-26.8V204C619,189.2,607,177.2,592.2,177.2z M400,471.2c-12.5,0-22.7-10.2-22.7-22.7s10.2-22.7,22.7-22.7
		s22.7,10.2,22.7,22.7S412.5,471.2,400,471.2z M601.2,407.3c0,4.9-4.1,9-9,9H207.8c-4.9,0-9-4.1-9-9V204c0-4.9,4.1-9,9-9h384.5
		c4.9,0,9,4.1,9,9V407.3z M415.8,439.6c-0.3-0.3-0.7-0.3-1-0.2l-1.8,0.5l-0.2-0.3c-0.4-0.6-0.8-1.1-1.3-1.6c-2.6-2.8-6-4.5-9.8-4.9
		c-0.6-0.1-1.2-0.1-1.7-0.1c-3.3,0-6.4,1-9,2.9c-2.9,2-5,5-6,8.4c-0.1,0.3,0,0.6,0.1,0.8c0.1,0.2,0.4,0.4,0.6,0.5l2,0.5
		c0.5,0.1,1.1-0.2,1.3-0.7c0.7-2.4,2.3-4.6,4.4-6.1c1.9-1.4,4.2-2.1,6.6-2.1c0.4,0,0.9,0,1.3,0.1c2.6,0.3,5,1.5,6.9,3.3l0.6,0.6
		l-1.2,0.4c-0.4,0.1-0.6,0.4-0.7,0.8c-0.1,0.4,0,0.7,0.3,1l5.5,5.2c0.2,0.2,0.5,0.3,0.7,0.3c0.1,0,0.2,0,0.3,0
		c0.4-0.1,0.6-0.4,0.7-0.8l1.8-7.3C416.2,440.3,416.1,439.9,415.8,439.6z M414.3,451.6l-2-0.5c-0.5-0.1-1.1,0.2-1.3,0.7
		c-0.7,2.4-2.3,4.6-4.4,6.1c-1.9,1.4-4.2,2.1-6.6,2.1c-0.4,0-0.9,0-1.3-0.1c-2.6-0.3-5-1.5-6.9-3.3l-0.6-0.6l1.2-0.4
		c0.4-0.1,0.6-0.4,0.7-0.8c0.1-0.4,0-0.7-0.3-1l-5.5-5.2c-0.3-0.3-0.7-0.3-1-0.2c-0.4,0.1-0.6,0.4-0.7,0.8l-1.8,7.3
		c-0.1,0.4,0,0.7,0.3,1c0.3,0.3,0.7,0.3,1,0.2l1.8-0.5l0.2,0.3c0.4,0.6,0.8,1.1,1.3,1.6c2.6,2.8,6,4.5,9.8,4.9
		c0.6,0.1,1.2,0.1,1.7,0.1c3.3,0,6.4-1,9-2.9c2.9-2,5-5,6-8.4c0.1-0.3,0-0.6-0.1-0.8C414.8,451.8,414.6,451.7,414.3,451.6z
		 M425.1,222.6l3.2,3.2v17.6l-3.2,3.2V222.6z M408.5,263.4l3.2-3.2h-30.1l3.2,3.2H408.5z M399.6,235.2l3.5,15.3h8.1l6.5-28.9
		l-8.9-0.7l-3.2,14.7l-3.2-14h-5.7l-3.1,13.9l-3.2-14.6l-9,0.7l6.4,28.9h8.2L399.6,235.2z M311.7,380.2c-0.2,0-0.4,0-0.7,0
		c-0.9,0-1.8,0-2.7-0.1c0.3,0.8,0.7,1.6,1.1,2.4L311.7,380.2z M585.8,284.6v40.5c0,4.5-3.7,8.1-8.1,8.1h-40.5
		c-4.5,0-8.1-3.7-8.1-8.1v-40.5c0-4.5,3.7-8.1,8.1-8.1h40.5C582.1,276.5,585.8,280.1,585.8,284.6z M582.5,284.6
		c0-2.7-2.2-4.9-4.9-4.9h-40.5c-2.7,0-4.9,2.2-4.9,4.9v40.5c0,2.7,2.2,4.9,4.9,4.9h40.5c2.7,0,4.9-2.2,4.9-4.9V284.6z M545.9,249.3
		h22.9v-3.1h-22.9V249.3z M271,284.6v40.5c0,4.5-3.7,8.1-8.1,8.1h-40.5c-4.5,0-8.1-3.7-8.1-8.1v-40.5c0-4.5,3.7-8.1,8.1-8.1h40.5
		C267.3,276.5,271,280.1,271,284.6z M267.7,284.6c0-2.7-2.2-4.9-4.9-4.9h-40.5c-2.7,0-4.9,2.2-4.9,4.9v40.5c0,2.7,2.2,4.9,4.9,4.9
		h40.5c2.7,0,4.9-2.2,4.9-4.9V284.6z M271,214.8v40.5c0,4.5-3.7,8.1-8.1,8.1h-40.5c-4.5,0-8.1-3.7-8.1-8.1v-40.5
		c0-4.5,3.7-8.1,8.1-8.1h40.5C267.3,206.6,271,210.3,271,214.8z M267.7,214.8c0-2.7-2.2-4.9-4.9-4.9h-40.5c-2.7,0-4.9,2.2-4.9,4.9
		v40.5c0,2.7,2.2,4.9,4.9,4.9h40.5c2.7,0,4.9-2.2,4.9-4.9V214.8z M571.2,304.5c0,7.6-6.2,13.8-13.8,13.8c-7.6,0-13.8-6.2-13.8-13.8
		c0-7.6,6.2-13.8,13.8-13.8C565,290.8,571.2,296.9,571.2,304.5z M563.8,307.8c0-1-0.2-1.9-0.7-2.6c-0.4-0.7-1-1.3-1.8-1.7
		c-0.7-0.4-1.7-0.9-3-1.3c-1.2-0.4-1.9-0.8-2.3-1.1c-0.4-0.3-0.5-0.7-0.5-1.3c0-0.5,0.2-1,0.6-1.4c0.4-0.4,0.9-0.6,1.5-0.6
		c1.2,0,2.1,0.8,2.7,2.5l3-1.2c-0.7-2.5-2.3-3.8-4.7-4.1v-2h-2.2v2c-1.6,0.2-2.8,0.8-3.5,1.9c-0.7,1-1.1,2.2-1.1,3.4
		c0,1,0.2,1.8,0.6,2.6c0.4,0.7,1,1.3,1.6,1.7c0.7,0.4,1.6,0.8,2.8,1.2c1.3,0.5,2.2,0.9,2.6,1.2c0.4,0.3,0.6,0.8,0.6,1.4
		c0,0.6-0.2,1.1-0.6,1.5c-0.4,0.4-1,0.6-1.8,0.6c-1.8,0-2.8-0.9-3.1-2.8l-3.4,0.9c0.7,3,2.4,4.7,5.3,5v2.6h2.2v-2.6
		c1.7-0.2,3-0.8,3.9-1.8C563.3,310.6,563.8,309.4,563.8,307.8z M258.4,229.7l-9.7-1.4l-4.3-8.8c-0.3-0.6-1-1-1.7-1
		c-0.7,0-1.4,0.4-1.7,1l-4.3,8.8l-9.7,1.4c-0.7,0.1-1.3,0.6-1.5,1.3c-0.2,0.7,0,1.4,0.5,1.9l7,6.9l-1.7,9.7
		c-0.1,0.7,0.2,1.4,0.7,1.8c0.6,0.4,1.3,0.5,2,0.1l8.7-4.6l8.7,4.6c0.3,0.1,0.6,0.2,0.9,0.2c0.4,0,0.8-0.1,1.1-0.4
		c0.6-0.4,0.9-1.1,0.7-1.8l-1.7-9.7l7-6.9c0.5-0.5,0.7-1.2,0.5-1.9C259.6,230.3,259,229.8,258.4,229.7z M261,303.7
		c0,10.2-8.2,18.4-18.4,18.4c-10.2,0-18.4-8.2-18.4-18.4c0-10.2,8.2-18.4,18.4-18.4C252.8,285.3,261,293.6,261,303.7z M258.7,303.7
		c0-8.9-7.2-16.1-16.1-16.1s-16.1,7.2-16.1,16.1c0,8.9,7.2,16.1,16.1,16.1S258.7,312.6,258.7,303.7z M256.4,303.7
		c0,7.6-6.2,13.8-13.8,13.8c-7.6,0-13.8-6.2-13.8-13.8c0-7.6,6.2-13.8,13.8-13.8C250.2,289.9,256.4,296.1,256.4,303.7z M249,307
		c0-1-0.2-1.9-0.7-2.6c-0.4-0.7-1-1.3-1.8-1.7c-0.7-0.4-1.7-0.9-3-1.3c-1.2-0.4-1.9-0.8-2.3-1.1c-0.4-0.3-0.5-0.7-0.5-1.3
		c0-0.5,0.2-1,0.6-1.4c0.4-0.4,0.9-0.6,1.5-0.6c1.2,0,2.1,0.8,2.7,2.5l3-1.2c-0.7-2.5-2.3-3.8-4.7-4.1v-2h-2.2v2
		c-1.6,0.2-2.8,0.8-3.5,1.9c-0.7,1-1.1,2.2-1.1,3.4c0,1,0.2,1.8,0.6,2.6c0.4,0.7,1,1.3,1.6,1.7c0.7,0.4,1.6,0.8,2.8,1.2
		c1.3,0.5,2.2,0.9,2.6,1.2c0.4,0.3,0.6,0.8,0.6,1.4c0,0.6-0.2,1.1-0.6,1.5c-0.4,0.4-1,0.6-1.8,0.6c-1.8,0-2.8-0.9-3.1-2.8l-3.4,0.9
		c0.7,3,2.4,4.7,5.3,5v2.6h2.2v-2.6c1.7-0.2,3-0.8,3.9-1.8C248.5,309.8,249,308.5,249,307z M271,355.2v40.5c0,4.5-3.7,8.1-8.1,8.1
		h-40.5c-4.5,0-8.1-3.7-8.1-8.1v-40.5c0-4.5,3.7-8.1,8.1-8.1h40.5C267.3,347.1,271,350.8,271,355.2z M267.7,355.2
		c0-2.7-2.2-4.9-4.9-4.9h-40.5c-2.7,0-4.9,2.2-4.9,4.9v40.5c0,2.7,2.2,4.9,4.9,4.9h40.5c2.7,0,4.9-2.2,4.9-4.9V355.2z M572.4,224.2
		c-1.4,0-2.5,1.2-2.5,2.8c0,1,0.5,1.9,1.2,2.3c-1.5,2.3-3.7,5-5.9,5.7c-2.9,1-5.7-5.2-7-8.9c1-0.4,1.7-1.4,1.7-2.6
		c0-1.5-1.1-2.8-2.5-2.8c-1.4,0-2.5,1.2-2.5,2.8c0,1.2,0.7,2.2,1.7,2.6c-1.3,3.7-4.1,10-7,8.9c-2.2-0.8-4.4-3.4-5.9-5.7
		c0.7-0.5,1.2-1.4,1.2-2.3c0-1.5-1.1-2.8-2.5-2.8c-1.4,0-2.5,1.2-2.5,2.8c0,1.5,1.1,2.8,2.5,2.8c0,0,0,0,0.1,0l3.4,15.9h23.1
		l3.4-15.9c0,0,0,0,0.1,0c1.4,0,2.5-1.2,2.5-2.8C575,225.4,573.8,224.2,572.4,224.2z M585.8,214.8v40.5c0,4.5-3.7,8.1-8.1,8.1h-40.5
		c-4.5,0-8.1-3.7-8.1-8.1v-40.5c0-4.5,3.7-8.1,8.1-8.1h40.5C582.1,206.6,585.8,210.3,585.8,214.8z M582.5,214.8
		c0-2.7-2.2-4.9-4.9-4.9h-40.5c-2.7,0-4.9,2.2-4.9,4.9v40.5c0,2.7,2.2,4.9,4.9,4.9h40.5c2.7,0,4.9-2.2,4.9-4.9V214.8z M283.7,333.6
		V210.4c0-1.1-0.9-2-2-2c-1.1,0-2,0.9-2,2v188.3c0,1.1,0.9,2,2,2c1.1,0,2-0.9,2-2v-34.5C278.4,354.8,278.4,343.1,283.7,333.6z
		 M585.8,355.2v40.5c0,4.5-3.7,8.1-8.1,8.1h-40.5c-4.5,0-8.1-3.7-8.1-8.1v-40.5c0-4.5,3.7-8.1,8.1-8.1h40.5
		C582.1,347.1,585.8,350.8,585.8,355.2z M582.5,355.2c0-2.7-2.2-4.9-4.9-4.9h-40.5c-2.7,0-4.9,2.2-4.9,4.9v40.5
		c0,2.7,2.2,4.9,4.9,4.9h40.5c2.7,0,4.9-2.2,4.9-4.9V355.2z M520.3,285.5c0,4.5-1.6,7.9-4.1,10.3v102.9c0,1.1,0.9,2,2,2s2-0.9,2-2
		 M575.8,304.5c0,10.2-8.2,18.4-18.4,18.4s-18.4-8.2-18.4-18.4s8.2-18.4,18.4-18.4S575.8,294.4,575.8,304.5z M573.5,304.5
		c0-8.9-7.2-16.1-16.1-16.1s-16.1,7.2-16.1,16.1s7.2,16.1,16.1,16.1S573.5,313.4,573.5,304.5z M564.4,361.7c-2.8,0-5.2,1.2-7,3.2
		c-1.7-2-4.2-3.2-7-3.2c-5.3,0-9.5,4.5-9.5,10c0,1.5,0.2,2.9,0.7,4.3c0,0,0.4,1.2,0.7,1.9c4,8.6,15.1,14.2,15.1,14.2
		s11-5.6,15.1-14.2c0,0,0.5-1.1,0.7-1.9c0.4-1.4,0.7-2.8,0.7-4.3C573.9,366.2,569.6,361.7,564.4,361.7z M503.8,298.9v26.2
		c0,2.7-2.2,4.9-4.9,4.9h-6.6v3.2h6.6c4.5,0,8.1-3.7,8.1-8.1v-25.7C506.1,299.4,505,299.2,503.8,298.9z M299.7,400.8
		c0-0.1,0-0.3,0-0.4c-2-0.6-3.5-2.5-3.5-4.7v-19.3c-1.1-0.6-2.2-1.3-3.2-2.1v21.4c0,4,2.9,7.3,6.7,8V400.8z M499,347.1h-6.6v3.2h6.6
		c2.7,0,4.9,2.2,4.9,4.9v40.5c0,2.7-2.2,4.9-4.9,4.9h-6.6v3.2h6.6c4.5,0,8.1-3.7,8.1-8.1v-40.5C507.1,350.8,503.4,347.1,499,347.1z
		 M306.4,385.5l1.3-1.3c-0.8-1.3-1.5-2.8-1.9-4.3c-0.8-0.1-1.7-0.3-2.5-0.5c0.5,2.4,1.5,4.6,2.8,6.6
		C306.2,385.7,306.3,385.6,306.4,385.5z M494.1,370.9c1.4,0,2.5-1.2,2.5-2.8c0-1.5-1.1-2.8-2.5-2.8c-0.7,0-1.3,0.3-1.7,0.7v4.1
		c0.1,0.1,0.2,0.2,0.4,0.3c-0.1,0.2-0.2,0.4-0.4,0.5v7.5L494.1,370.9C494,370.9,494.1,370.9,494.1,370.9z M292.9,284.6v38.3l3.2-3.2
		v-35.1c0-2.7,2.2-4.9,4.9-4.9h35l3.2-3.2H301C296.6,276.5,292.9,280.1,292.9,284.6z M307.9,299.9c0.7-0.5,1.2-1.4,1.2-2.3
		c0-1.5-1.1-2.8-2.5-2.8c-1.4,0-2.5,1.2-2.5,2.8c0,1.5,1.1,2.8,2.5,2.8c0,0,0,0,0.1,0l1.6,7.3l3.4-3.4
		C310.2,303,308.9,301.4,307.9,299.9z M321.6,291.3c-1.4,0-2.5,1.2-2.5,2.8c0,0.8,0.3,1.5,0.8,2l3.7-3.7
		C323.1,291.7,322.4,291.3,321.6,291.3z M258.4,369.1l-9.7-1.4l-4.3-8.8c-0.3-0.6-1-1-1.7-1c-0.7,0-1.4,0.4-1.7,1l-4.3,8.8l-9.7,1.4
		c-0.7,0.1-1.3,0.6-1.5,1.3c-0.2,0.7,0,1.4,0.5,1.9l7,6.9l-1.7,9.7c-0.1,0.7,0.2,1.4,0.7,1.8c0.6,0.4,1.3,0.5,2,0.1l8.7-4.6l8.7,4.6
		c0.3,0.1,0.6,0.2,0.9,0.2c0.4,0,0.8-0.1,1.1-0.4c0.6-0.4,0.9-1.1,0.7-1.8l-1.7-9.7l7-6.9c0.5-0.5,0.7-1.2,0.5-1.9
		C259.6,369.7,259,369.2,258.4,369.1z M374.9,255.1v-40.4c0-2.7,2.2-4.9,4.9-4.9h36.6c-0.2-1.1-0.2-2.2,0-3.2h-36.5
		c-4.5,0-8.1,3.7-8.1,8.1v39.4C372.7,254.4,373.8,254.7,374.9,255.1z M362.6,255v-44.7c0-1.1-0.9-2-2-2c-1.1,0-2,0.9-2,2v47
		C359.8,256.4,361.1,255.6,362.6,255z M306.6,236c4,8.6,15.1,14.2,15.1,14.2s11.1-5.6,15.1-14.2c0,0,0.5-1.1,0.7-1.9
		c0.4-1.4,0.7-2.8,0.7-4.3c0-5.5-4.3-10-9.5-10c-2.8,0-5.2,1.2-7,3.2c-1.7-2-4.2-3.2-7-3.2c-5.3,0-9.5,4.5-9.5,10
		c0,1.5,0.2,2.9,0.7,4.3C305.8,234.1,306.2,235.3,306.6,236z M292.9,255.3v-40.5c0-4.5,3.7-8.1,8.1-8.1h40.5c4.5,0,8.1,3.7,8.1,8.1
		v40.5c0,4.5-3.7,8.1-8.1,8.1H301C296.6,263.4,292.9,259.7,292.9,255.3z M296.2,255.3c0,2.7,2.2,4.9,4.9,4.9h40.5
		c2.7,0,4.9-2.2,4.9-4.9v-40.5c0-2.7-2.2-4.9-4.9-4.9H301c-2.7,0-4.9,2.2-4.9,4.9V255.3z M493.6,291.1l-1.2-0.1v21.6l4.2-18.6
		L493.6,291.1z M346.6,361.4c-1.9,1.9-3.4,5.6-3.4,8.3v35h20.3v-55.3c0-2.7-1.5-3.3-3.4-1.4L346.6,361.4z M435.8,328.2
		c-1.9,1.9-3.4,5.6-3.4,8.3v68.2h20.3v-88.5c0-2.7-1.5-3.3-3.4-1.4L435.8,328.2z M465.6,298.4c-1.9,1.9-3.4,5.6-3.4,8.3v97.9H481
		V287.9c0-2.7-1.5-3.3-3.4-1.4L465.6,298.4z M406.7,357.3c0,0-0.9,0.9-2,2c-1.1,1.1-2,4.2-2,6.9v38.4h20.3v-58.7
		c0-2.7-1.5-3.3-3.4-1.4L406.7,357.3z M376.3,347c-1.9-1.9-3.4-1.3-3.4,1.4v56.2h20.3v-35.9c0-2.7-1.5-6.3-3.3-8.1l-3.3-3.3
		L376.3,347z M321,386.9l-6.6,6.6c-1.9,1.9-3.4,5.2-3.4,7.3v3.9h22.7v-25.6c0-2.7-1.5-3.3-3.4-1.4L321,386.9z M505.5,287
		c1.9,1.9,3.4,1.3,3.4-1.4V216c0-5-4.8-9.3-9.7-9.3h-69.1c-2.7,0-3.3,1.5-1.4,3.4l24.6,24.6l-10,10l-46.5,46.6l-24.6-24.6
		c-1.9-1.9-5-1.9-6.9,0l-68.4,68.5c-7.6,7.6-7.6,19.9,0,27.5l0.5,0.5c7.6,7.6,19.9,7.6,27.5,0l43.9-43.9l24.6,24.6
		c1.9,1.9,5,1.9,6.9,0l81.1-81.1L505.5,287z"/>
</g>
</svg>
