<?xml version="1.0" encoding="utf-8"?>
<!-- Generator: Adobe Illustrator 17.1.0, SVG Export Plug-In . SVG Version: 6.00 Build 0)  -->
<!DOCTYPE svg PUBLIC "-//W3C//DTD SVG 1.1//EN" "http://www.w3.org/Graphics/SVG/1.1/DTD/svg11.dtd">
<svg version="1.1" id="scratch-cards" xmlns="http://www.w3.org/2000/svg" xmlns:xlink="http://www.w3.org/1999/xlink" x="0px"
	 y="0px" viewBox="0 0 240 240" enable-background="new 0 0 240 240" xml:space="preserve">
<g id="stars_1_">
	<path fill="#D4D3D3" d="M137.9,33.3H102c-3.2,0-5.8,2.6-5.8,5.8V75c0,3.2,2.6,5.8,5.8,5.8h35.9c3.2,0,5.8-2.6,5.8-5.8V39.1
		C143.7,35.9,141.1,33.3,137.9,33.3z M129.2,62l2.4,13L120,68.7l-11.6,6.4l2.5-13l-9.7-9.1l13.2-1.7l5.7-12l5.7,12l13.2,1.7
		L129.2,62z"/>
	<path fill="#D4D3D3" d="M75,33.3H39.1c-3.2,0-5.8,2.6-5.8,5.8V75c0,3.2,2.6,5.8,5.8,5.8H75c3.2,0,5.8-2.6,5.8-5.8V39.1
		C80.7,35.9,78.2,33.3,75,33.3z M66.2,62l2.5,13L57,68.7l-11.7,6.4l2.5-13l-9.7-9.1l13.2-1.7l5.7-12l5.7,12l13.2,1.7L66.2,62z"/>
	<path fill="#D4D3D3" d="M200.9,33.3H165c-3.2,0-5.8,2.6-5.8,5.8V75c0,3.2,2.6,5.8,5.8,5.8h35.9c3.2,0,5.8-2.6,5.8-5.8V39.1
		C206.7,35.9,204.1,33.3,200.9,33.3z M192.2,62l2.5,13L183,68.7l-11.7,6.4l2.5-13l-9.7-9.1l13.2-1.7l5.7-12l5.7,12l13.2,1.7
		L192.2,62z"/>
	<path fill="#D4D3D3" d="M137.9,96.3H102c-3.2,0-5.8,2.6-5.8,5.8V138c0,3.2,2.6,5.7,5.8,5.7h35.9c3.2,0,5.8-2.6,5.8-5.7v-35.9
		C143.7,98.9,141.1,96.3,137.9,96.3z M129.2,125l2.4,13l-11.6-6.4l-11.6,6.4l2.5-13l-9.7-9.1l13.2-1.7l5.7-12l5.7,12l13.2,1.7
		L129.2,125z"/>
	<path fill="#D4D3D3" d="M75,96.3H39.1c-3.2,0-5.8,2.6-5.8,5.8V138c0,3.2,2.6,5.7,5.8,5.7H75c3.2,0,5.8-2.6,5.8-5.7v-35.9
		C80.7,98.9,78.2,96.3,75,96.3z M66.2,125l2.5,13L57,131.7l-11.7,6.4l2.5-13l-9.7-9.1l13.2-1.7l5.7-12l5.7,12l13.2,1.7L66.2,125z"/>
	<path fill="#D4D3D3" d="M200.9,96.3H165c-3.2,0-5.8,2.6-5.8,5.8V138c0,3.2,2.6,5.7,5.8,5.7h35.9c3.2,0,5.8-2.6,5.8-5.7v-35.9
		C206.7,98.9,204.1,96.3,200.9,96.3z M192.2,125l2.5,13l-11.6-6.4l-11.7,6.4l2.5-13l-9.7-9.1l13.2-1.7l5.7-12l5.7,12l13.2,1.7
		L192.2,125z"/>
	<path fill="#D4D3D3" d="M137.9,159.3H102c-3.2,0-5.8,2.6-5.8,5.8v35.9c0,3.2,2.6,5.8,5.8,5.8h35.9c3.2,0,5.8-2.6,5.8-5.8V165
		C143.7,161.9,141.1,159.3,137.9,159.3z M129.2,188l2.4,13l-11.6-6.4l-11.6,6.4l2.5-13l-9.7-9.1l13.2-1.7l5.7-12l5.7,12l13.2,1.7
		L129.2,188z"/>
	<path fill="#D4D3D3" d="M75,159.3H39.1c-3.2,0-5.8,2.6-5.8,5.8v35.9c0,3.2,2.6,5.8,5.8,5.8H75c3.2,0,5.8-2.6,5.8-5.8V165
		C80.7,161.9,78.2,159.3,75,159.3z M66.2,188l2.5,13L57,194.7L45.4,201l2.5-13l-9.7-9.1l13.2-1.7l5.7-12l5.7,12l13.2,1.7L66.2,188z"
		/>
	<path fill="#D4D3D3" d="M200.9,159.3H165c-3.2,0-5.8,2.6-5.8,5.8v35.9c0,3.2,2.6,5.8,5.8,5.8h35.9c3.2,0,5.8-2.6,5.8-5.8V165
		C206.7,161.9,204.1,159.3,200.9,159.3z M192.2,188l2.5,13l-11.6-6.4l-11.7,6.4l2.5-13l-9.7-9.1l13.2-1.7l5.7-12l5.7,12l13.2,1.7
		L192.2,188z"/>
</g>
<path fill="#D4D3D3" d="M0,0v220.2V240h240v-19.8V0H0z M218.4,205.3c0,7.3-5.9,13.2-13.2,13.2H34.8c-7.3,0-13.2-5.9-13.2-13.2V34.8
	c0-7.3,5.9-13.2,13.2-13.2h170.4c7.3,0,13.2,5.9,13.2,13.2V205.3z"/>
</svg>
