<?xml version="1.0" encoding="utf-8"?>
<!-- Generator: Adobe Illustrator 17.1.0, SVG Export Plug-In . SVG Version: 6.00 Build 0)  -->
<!DOCTYPE svg PUBLIC "-//W3C//DTD SVG 1.1//EN" "http://www.w3.org/Graphics/SVG/1.1/DTD/svg11.dtd">
<svg version="1.1" id="Layer_1" xmlns="http://www.w3.org/2000/svg" xmlns:xlink="http://www.w3.org/1999/xlink" x="0px" y="0px"
	 viewBox="0 21 240 198" enable-background="new 0 21 240 198" xml:space="preserve">
<g id="devs">
	<g id="rabcat">
		<g id="cat">
			<path id="XMLID_441_" fill="#FAD307" d="M55.6,28.9c10.6,10.9,21.1,21.8,31.7,32.7c20.7-8,44.6-8,65.3,0
				c10.6-10.8,21-21.8,31.6-32.7c0.1,24.4,0,48.7,0,73.1c0.1,3.9-2.2,7.2-4.2,10.4c-7,10.2-15.6,19.1-23.5,28.5
				c-4.5,5.5-8.4,11.8-14.5,15.8c-6.4,4.5-14.5,5.5-22.1,5.5c-7.5,0-15.3-1-21.6-5.2c-6.2-4.1-10.3-10.5-15-16.2
				C76,132,68,123.9,61.4,114.6c-2.7-4-6-8.3-5.8-13.4C55.6,77.1,55.5,53,55.6,28.9L55.6,28.9z"/>
			<path id="XMLID_435_" fill="#191719" d="M74.5,98.5c11.3,8.4,22.2,17.1,33.1,25.9c-5.6-1.4-11.1-3-16.6-4.4
				c-2-0.6-4.6-0.8-5.6-3.1C81.8,110.8,77.9,104.8,74.5,98.5L74.5,98.5z"/>
			<path id="XMLID_434_" fill="#191719" d="M132.1,124.4c10.9-8.7,21.9-17.4,33.1-25.8c-3,5.8-6.7,11.3-10,17
				c-0.9,1.4-1.6,3.3-3.5,3.6C145.3,121,138.7,122.7,132.1,124.4L132.1,124.4z"/>
		</g>
		<path fill="#FAD307" d="M131.6,180.1h11.8v7.5h-7.8c-3,2-5.7,10.2,0,14.5h7.8v7h-12.2c0,0-6.8-4.1-6.8-13.4
			C124.4,184.3,131.6,180.1,131.6,180.1z M164.6,180.1v8.5h5.8l0.1,20.4h8l0.2-20.4l5.8,0v-8.5L164.6,180.1L164.6,180.1z M77.3,209
			h-8.5l-4.9-9.1v9.1h-8.3l0-28.8h12.9c3.9,1.2,8.2,5.6,8.2,9.6c0,3.7-2.1,5.8-4,8.6C74.1,201.7,77.3,209,77.3,209z M68.2,191.2
			c0-2.4-4.4-4.2-4.4-4.2v8.1C63.9,195.2,68.2,193.3,68.2,191.2z M169.2,209h-8.4l-1.1-4.5h-7.1l-1.2,4.5h-7.7l8.6-28.9h7.1
			L169.2,209z M154.4,197.7c1.3,0,3.8,0,3.8,0l-1.9-6L154.4,197.7L154.4,197.7L154.4,197.7L154.4,197.7z M103.1,209h-8.5l-1.1-4.5
			h-7.1l-1.2,4.5h-7.7l8.6-28.9h7.1L103.1,209z M88.2,197.7c1.3,0,3.8,0,3.8,0l-1.9-6L88.2,197.7L88.2,197.7L88.2,197.7L88.2,197.7z
			 M124,201.4c-0.2,3.4-6.7,7.6-6.7,7.6h-12.7l0-28.9h13c0,0,5,3.1,5.6,8.2c0.4,2.6-1.7,4.8-2.9,7
			C121.6,197.1,124.1,198.9,124,201.4z M115.2,200.2c0-1.1-3.2-3.1-3.2-3.1v5.9C112,203.1,115.2,201.3,115.2,200.2z M115.2,189.7
			c0-1.1-3.2-2.9-3.2-2.9v5.9C112,192.7,115.2,190.8,115.2,189.7z"/>
	</g>
</g>
</svg>
