<?xml version="1.0" encoding="utf-8"?>
<!-- Generator: Adobe Illustrator 17.1.0, SVG Export Plug-In . SVG Version: 6.00 Build 0)  -->
<!DOCTYPE svg PUBLIC "-//W3C//DTD SVG 1.1//EN" "http://www.w3.org/Graphics/SVG/1.1/DTD/svg11.dtd">
<svg version="1.1" xmlns="http://www.w3.org/2000/svg" xmlns:xlink="http://www.w3.org/1999/xlink" x="0px" y="0px"
	 viewBox="0 0 800 660" enable-background="new 0 0 800 660" xml:space="preserve">
<g id="Layer_2">
		<radialGradient id="light_1_" cx="399.9813" cy="329.9318" r="395.506" gradientTransform="matrix(0.9639 0 0 0.88 14.4759 39.66)" gradientUnits="userSpaceOnUse">
		<stop  offset="0.5" style="stop-color:#FFFFFF"/>
		<stop  offset="1" style="stop-color:#D9D9D9"/>
	</radialGradient>
	<rect id="light" fill="url(#light_1_)" width="800" height="660"/>
</g>

<g id="devs">
	<g id="skillonnet">
		<g id="words_2_">
			<path fill="#3C3C3B" d="M292.3,289.6c8.9-9.8,25.6-10.1,36.2-2.8c9.5,8.1,5.7,21.9,6.5,32.8c-6.6,0-13.3,0-19.9,0
				c0.1-8.3,0.9-25-2.9-25c-4.4,0-5.1,14.3-2.9,20c4.5,11.6,20.4,16.1,24.5,28.1c3,8.7,1.9,18.5,0.6,27.6
				c-1.4,9.6-12.5,13.2-21,13.5c-8.9,0.5-20-2.5-23.1-11.8c-2.4-9.1-1-18.7-1.2-28.1c6.5,0,13,0,19.5,0.1c0.4,8.5-2,26.8,2.6,26.8
				c4.8,0,5.5-13.4,3.6-19.8c-3.8-13.2-22.3-18.3-25.2-31.8C287.4,309.4,286.9,298.2,292.3,289.6L292.3,289.6z M340.5,284.1
				c0,33.1,0,66.2,0,99.3c5.8,0.1,11.6,0.1,17.4,0.2c-0.1-14.3-0.1-28.5,0-42.8c2.2,14.2,4.5,28.4,7,42.6c6.1,0.1,12.2,0.1,18.4,0.2
				c-2.6-14.8-6.3-29.5-8.1-44.4c0.9-12.1,6-23.4,8.2-35.3c-6,0-12,0-18,0c-2.4,11.8-5,23.5-7.3,35.2c-0.3-18.4-0.2-36.8-0.1-55.2
				C352.1,284.1,346.3,284.1,340.5,284.1L340.5,284.1z M386.6,284.2c0,5.1,0,10.3,0.1,15.4c5.9,0,11.7,0,17.6,0
				c0-5.2,0.1-10.4,0.1-15.5C398.4,284.1,392.5,284.1,386.6,284.2L386.6,284.2z M408.7,284.1c-0.1,33.1,0,66.3,0,99.4
				c5.9,0,11.8,0,17.7,0c-0.1-33.2,0-66.4,0-99.5C420.5,284.1,414.6,284.1,408.7,284.1L408.7,284.1z M433,284.1
				c0,33.2,0,66.3,0,99.4c5.9,0,11.8,0,17.7,0.1c-0.1-33.2-0.1-66.4,0-99.6C444.8,284.1,438.9,284.1,433,284.1L433,284.1z
				 M500.6,366.1c-0.3,8-6,15.4-14.1,16.7c-9.2,1.6-20.7,1.6-27.4-6c-5.2-7.8-3.9-17.6-4.1-26.5c0.4-17.2-0.7-34.4,0.5-51.6
				c0.5-9.2,8.4-16.1,17.3-16.6c8.6-0.9,19.2,0,24.6,7.8c4.6,8.3,3.4,18.2,3.7,27.4C500.8,333.5,501.9,349.9,500.6,366.1z
				 M481.1,297.5c0-4.7-6.2-4.6-6.2,0.1v-2.2c-0.4,24.1,0,48.2,0,72.2c0,5.1,6.1,5.1,6.1,0.3C481,343.7,481.1,321.9,481.1,297.5z
				 M525.6,310.7c0,0-0.1-5,0-6.6c-5.9,0-11.7,0-17.5-0.1c-0.1,26.5,0.1,53.1-0.1,79.6c5.9,0,11.8,0,17.8,0c-0.1-21.9,0-43.8,0-65.6
				c0-3.7,5.6-3.7,5.6-0.8c0,22,0.4,44.3,0.6,66.4c5.9,0.1,11.7,0.1,17.6,0c-0.3-22.8-0.2-45.7-0.2-68.5c0-6.5-4.4-13.3-10.9-13.3
				C532.3,301.6,525.6,310.7,525.6,310.7z M386.6,303.9c0,26.5,0,53.1,0,79.6c5.9,0,11.8-0.1,17.7-0.1c0-26.5,0-53,0-79.5
				C398.4,304,392.5,304,386.6,303.9L386.6,303.9z"/>
			<path fill="#1B9DD9" d="M554.7,284l27.2,0.2l10,72.1v-72.1h14.6v99.1h-23.3l-12.9-78.4v78.4h-15.6L554.7,284L554.7,284z
				 M659.8,288.6l0,15.6h-5.2v13.4h5c0,0,0.6,35,0.6,52.8c0,4.2-0.2,8.4,2.2,10.8c3.4,3.4,14,2.4,20.6,2.2
				c-0.1-4.3-0.2-15.1-0.2-15.1s-2.5,0-2.5,0c-1.3,0.1-2.5-1-2.5-2.3c-0.5-17.2-0.3-48.4-0.3-48.4h5.4c0,0,0-9.1,0-13.4
				c-1.3,0-3.9,0-5.1,0c0-5.3-0.1-15.7-0.1-15.7L659.8,288.6L659.8,288.6z M653.1,352.4c0,0,1.6,20.4-6.4,26.8
				c-7.9,5.7-19.4,5.8-27.8,1c-5.8-3.2-6.6-10.5-6.9-16.5c-0.6-13.3-0.4-26.6-0.2-39.9c0.4-7,1-16.3,8.5-19.5
				c10.5-5.3,27.5-3.2,31.5,9.4c2.4,10.5,1.2,32.2,1.2,32.2l-23.7,0.2c0,0,0.3,15,0.3,21.9c0,2.4,5.6,2.6,5.6-0.6c0-4,0-14.7,0-14.7
				L653.1,352.4z M629.3,332.3c0,2.8,6,2.8,6,0c0-4.9,0-9.7,0-14.5c0-2.7-6-2.6-6,0C629.3,317.8,629.3,328.5,629.3,332.3z"/>
		</g>
		<circle id="XMLID_2319_" fill="#1B9DD9" cx="197.2" cy="330" r="80.2"/>
		<path fill="#FFFFFF" d="M247,335.8c-0.5,5-1.8,9.8-3.8,14.2l6.1,3.5l-5.4,9.4l-6.1-3.5c-2.9,4-6.4,7.6-10.4,10.6l3.6,6.1l-9.3,5.5
			l-3.6-6.1c-4.6,2.1-9.6,3.5-14.9,4.1v7h-10.8v-7c-4.9-0.5-9.5-1.8-13.8-3.6l-3.4,6.1l-9.5-5.3l3.4-6.2c-4.2-3-7.9-6.6-10.9-10.7
			l-6.1,3.6l-5.5-9.3l6.1-3.6c-2.1-4.6-3.5-9.6-4.1-14.9h-7v-10.8h7c0.5-5,1.8-9.8,3.8-14.2l-6.1-3.5l5.4-9.4l6.1,3.5
			c2.9-4,6.4-7.6,10.4-10.6l-3.6-6.1l9.3-5.5l3.6,6.1c1.4-0.6,2.9-1.2,4.4-1.7v16.8c-10.8,5.7-18.1,17-18.1,30.1
			c0,18.8,15.3,34,34,34s34-15.3,34-34c0-13.3-7.6-24.8-18.7-30.4v-16.7c1.3,0.4,2.7,0.9,3.9,1.4l3.4-6.1l9.5,5.3l-3.4,6.2
			c4.2,3,7.9,6.6,10.9,10.7l6.1-3.6l5.5,9.3l-6.1,3.6c2.1,4.6,3.5,9.6,4.1,14.9h7v10.8H247z M206.5,264.2h-17.8v58.2h17.8V264.2z"/>
	</g>
</g>
</svg>
