<?xml version="1.0" encoding="utf-8"?>
<!-- Generator: Adobe Illustrator 17.1.0, SVG Export Plug-In . SVG Version: 6.00 Build 0)  -->
<!DOCTYPE svg PUBLIC "-//W3C//DTD SVG 1.1//EN" "http://www.w3.org/Graphics/SVG/1.1/DTD/svg11.dtd">
<svg version="1.1" id="Layer_1" xmlns="http://www.w3.org/2000/svg" xmlns:xlink="http://www.w3.org/1999/xlink" x="0px" y="0px"
	 viewBox="0 21 240 198" enable-background="new 0 21 240 198" xml:space="preserve">
<path id="softswiss_1_" fill="none" stroke="#1E2123" stroke-width="1.5" stroke-miterlimit="10" d="M39.6,192.2
	c-0.5-2.2-1.5-3.3-3.5-3.3c-4.3,0-6.5,7.3-6.5,11.9c0,3.1,1.2,5,3.9,5c1.9,0,4.1-1.2,5.8-2.8c0.2,0.6,0.4,1.1,0.4,1.5
	c0,2-4.2,4.1-8,4.1c-4.5,0-6.4-2.7-6.4-7.5c0-7.3,5.4-14.4,12.3-14.4c2.6,0,4.6,0.8,4.6,2.8C42.1,190.6,41.1,191.5,39.6,192.2z
	 M55.5,203c0.1,0,0.1,0.1,0.1,0.2c0,2-2.8,4.9-4.8,4.9c-1.5,0-2.4-0.9-2.4-2.8c0-0.7,0-1.6,0.1-2.2c-2,3.3-4,5-5.8,5.1h-0.3
	c-2.2,0-2.9-1.6-2.9-3.8c0.1-5.2,4.2-11.2,8.5-11.2c1,0,1.9,0.2,2.7,0.8c0.4-0.5,1-0.7,1.7-0.7c0.9,0,1.6,0.2,2.4,0.7
	c-1,1.5-2.7,8.2-2.7,10.3c0,0.5,0.2,0.9,0.3,1.1c0.3,0,0.8-0.4,1.3-0.9C54.7,203.4,55.2,203,55.5,203z M50,196.8
	c-0.3-1.1-1.3-1.6-2.2-1.6c-2.2,0-4.3,5.2-4.3,8.7c0,0.9,0.3,1.4,0.9,1.4s1.4-0.9,2.4-2.5C48.2,200.8,49.4,198.4,50,196.8z
	 M61,196.1c0,0.5,0.3,1,0.7,1.6c1.2,1.4,2.4,2.7,2.4,4.7c0,3.2-3,5.7-6.3,5.7c-1.9,0-4-1.2-4-3.3c0-0.9,0.6-1.5,1.1-1.8
	c0.6,1.7,1.7,3.2,3.3,3.2c1.3,0,2.1-0.7,2.1-2.2c0-1.3-1.1-2.2-2.2-3.3c-0.7-0.9-1.1-1.9-1.1-2.9c0-3.5,3.5-5,6.6-5
	c1,0,1.4,0.2,1.5,0.8c0,0.5-0.2,1-1,1.6c-0.5-0.5-1.1-0.8-1.6-0.8C61.5,194.5,61,195.1,61,196.1z M71.2,204.3
	c1.2-1.3,1.8-1.7,1.8-1.1c0,0.3-0.1,0.8-0.4,1.5c-0.8,1.8-2.9,3.4-4.4,3.4s-2.3-0.8-2.4-2.5c0-0.6,0-2.3,0.5-4.4
	c0.5-1.6,0.7-3.2,0.9-4.2c0.1-0.5,0.1-1,0.1-1.5c0-0.5-0.1-0.9-0.4-1.4c0.9-0.3,1.9-0.6,2.7-0.6c0.5,0,1,0.1,1.3,0.4
	c0.3,0.3,0.4,0.8,0.3,1.4c-0.1,0.4-0.1,0.9-0.3,1.4c-0.4,1.5-0.9,3.2-1,4c-0.2,0.9-0.4,2.5-0.4,3.3c0,0.5,0.1,0.9,0.3,1.2
	C70.1,205.2,70.6,204.8,71.2,204.3z M72.5,186.7c-1.3,0-2.6,0.2-3.7,0.7c0,0.1,0.1,0.2,0.1,0.4c0,1.1-0.4,2.6-0.4,3.4
	c0,0.4,0.3,1,1.4,0.8c1.6-0.3,1.5-0.3,2.8-2.1c0.7-1.1,0.9-1.5,1.1-2c0-0.1,0-0.2,0-0.3C73.7,187,73.3,186.7,72.5,186.7z
	 M79.5,200.2c-1.3,2.1-1.7,3.2-3,6.4c-0.4,1-0.9,1.5-2.2,1.5c-0.5,0-1.2-0.1-2.1-0.2c0.6-1.5,1.1-3,1.6-4.6c1-3.5,1.5-6,1.5-7.5
	c0-0.7-0.1-1.3-0.3-1.8c1.2-0.5,2.1-0.8,2.8-0.8c0.7,0,1.4,0.3,1.4,1.3c0,1.1-0.5,2.8-1,4.9c1.7-3.1,4.6-6.3,6.9-6.3
	c1.2,0,2,0.9,2,2c0,1.2-0.4,3.1-0.9,5.3c-0.4,1.3-0.8,2.8-0.8,3.7c0,0.5,0.1,0.9,0.3,1.2c0.2-0.1,0.8-0.4,1.3-0.9
	c0.9-0.9,1.3-1.4,1.6-1.4c0.1,0,0.1,0,0.1,0.2c0,2-2.9,4.9-4.8,4.9c-1.4,0-2.4-0.8-2.4-2.5c0-0.9,0.3-1.9,0.5-3.1
	c0.7-3,1.1-5,1.1-5.4s-0.2-0.6-0.4-0.6C82,196.5,80.7,198.2,79.5,200.2z M97,193.1c2.9,0,4.9,1.8,4.9,4.8c0,5.1-3.9,10.2-8.8,10.2
	c-3,0-4.9-1.9-4.9-5c0-2.6,0.9-5,2.6-7C92.5,194.3,94.6,193.1,97,193.1z M96.2,195.1c-2.4,0-4,5.2-4,8.3c0,1.6,0.5,2.8,1.8,2.8
	c2.4,0,3.9-5.1,3.9-8.3C97.9,196.4,97.5,195.1,96.2,195.1z M111.2,203.7c0.4,1.7,2,2.6,3.9,2.6c2.3,0,3.8-1.2,3.8-3.4
	c0-1.2-0.6-2.2-1.7-3c-2.1-1.8-4.9-3-4.9-6.1c0-4.3,3.8-7.1,8.1-7.1c2.2,0,4.2,0.5,4.2,2.1c0,0.9-0.9,1.9-1.8,2.3
	c-0.9-1.4-1.8-2.2-3.6-2.2c-1.9,0-3.2,0.9-3.2,2.8c0,1.7,0.9,2.3,4.6,5.1c1.4,1.2,2.2,2.6,2.2,4.5c0,4.4-4.6,7.3-8.8,7.3
	c-2.3,0-5.4-0.9-5.4-2.9c0-1.1,1-2.5,2.6-2.9C111.1,203.1,111.1,203.3,111.2,203.7z M132.4,193.1c2.9,0,4.9,1.8,4.9,4.8
	c0,5.1-3.9,10.2-8.8,10.2c-3,0-4.9-1.9-4.9-5c0-2.6,0.9-5,2.6-7C127.9,194.3,130.1,193.1,132.4,193.1z M131.6,195.1
	c-2.4,0-4,5.2-4,8.3c0,1.6,0.5,2.8,1.8,2.8c2.4,0,3.9-5.1,3.9-8.3C133.3,196.4,132.9,195.1,131.6,195.1z M138.6,207.1
	c0.2-1.1,1.7-9,2-10.1h-0.6c-0.6,0-1.5-0.2-1.5-0.6c0,0,0-0.1,0-0.1c0.4-1.2,0.7-1.5,2.5-1.5c0.1-0.5,0.2-0.9,0.3-1.3
	c1-4,4.5-6.1,8.5-6.1c1.5,0,2.6,0.3,2.6,1.5c0,0.6-0.7,1.3-2,2c-0.5-1-1.2-1.5-2-1.5c-0.7,0-1.6,0.6-2,1.2c-0.5,0.8-1,2.2-1.4,4.4h1
	c1,0,2.2-0.2,3.1-0.2c0,0.1,0,0.2,0,0.3c0,1.7-1.7,2-3.2,2c-0.5,0-1,0-1.5,0c-0.7,3-1.1,6.1-2.3,9.5c-0.9,2.7-3,4.8-5.7,5.8
	c-0.1,0-0.2,0-0.3,0c-0.4,0-0.5-0.2-0.5-0.4c0-0.2,0.1-0.2,0.3-0.4C137.3,210.4,138.2,208.8,138.6,207.1z M157.9,194.7
	c0,1.3-1,2.2-2.3,2.2c-0.5,0-1,0-1.5,0c-0.2,0-0.4,0-0.6,0c-0.3,1.3-0.6,2.8-1,4.2c-0.2,0.8-0.4,2-0.4,2.9c0,0.9,0.4,1.3,1,1.3
	c0.3,0,0.9-0.5,1.4-1c0.9-0.9,1.4-1.4,1.7-1.4c0.1,0,0.1,0.1,0.1,0.2c0,1.9-2.8,4.9-4.8,4.9c-2.2,0-3.1-1.3-3.1-3.5
	c0-0.5,0.1-1.1,0.1-1.7c0.3-1.6,0.3-2,0.9-4.3c0.6-2.3,1.2-5.1,1.2-6.6c0-0.5,0-0.9-0.3-1.5c1.1-0.7,2-0.9,2.9-0.9
	c0.9,0,1.3,0.5,1.3,1.3c0-0.1-0.1,1.2-0.7,3.9h1.4c0.8,0,1.7,0,2.6-0.2L157.9,194.7L157.9,194.7z M168.4,207.9
	c-0.5,0.1-0.9,0.1-1.7,0.1c0.1-1.3,0.1-2,0.1-2.8c0-1.7,0-3.3-0.1-5c-1.3,2.8-2.8,5.2-4.4,6.7c-0.9,0.9-2.2,1.1-3.5,1.1
	c0.1-0.9,0.1-2.1,0.1-3.6c0-2.1-0.1-4.9-0.2-6.8c-0.1-1.7-0.5-2.8-1.1-3.6c1-0.6,2-0.9,2.8-0.9c1.5,0,1.7,1.1,1.8,3.6
	c0.1,1.4,0.1,3.4,0.1,5.5v1.3c3.1-3.8,3.9-6.7,3.9-8.8c0-0.3,0-0.5-0.1-0.7c0.9-0.4,1.7-0.5,2.3-0.5c1.4,0,1.5,1.8,1.5,5.2
	c0,1.6,0,3.7-0.1,5.9c2.2-2.9,4-7.1,4-9.5c0-0.7-0.2-1.8-0.9-2.5c0.3,0,0.8-0.1,1-0.1c2,0,3.1,0.5,3.1,2
	C177.1,196.8,172.2,207,168.4,207.9z M191.9,203c0.1,0,0.1,0.1,0.1,0.2c0,2-2.8,4.9-4.8,4.9c-1.5,0-2.4-0.9-2.4-2.8
	c0-0.7,0-1.6,0.1-2.2c-2,3.3-4,5-5.8,5.1h-0.3c-2.2,0-2.9-1.6-2.9-3.8c0.1-5.2,4.2-11.2,8.5-11.2c1,0,1.9,0.2,2.7,0.8
	c0.4-0.5,1-0.7,1.7-0.7c0.9,0,1.6,0.2,2.4,0.7c-1,1.5-2.7,8.2-2.7,10.3c0,0.5,0.2,0.9,0.3,1.1c0.3,0,0.8-0.4,1.3-0.9
	C191.1,203.4,191.6,203,191.9,203z M186.4,196.8c-0.3-1.1-1.3-1.6-2.2-1.6c-2.2,0-4.3,5.2-4.3,8.7c0,0.9,0.3,1.4,0.9,1.4
	s1.4-0.9,2.4-2.5C184.6,200.8,185.8,198.4,186.4,196.8z M202.4,193.2c0.9,0,1.1,0.5,1.1,1.3c0,1.2-0.8,2.6-1.9,3.8
	c-0.3-0.4-0.6-0.7-1-0.7c-2.2,0-3.8,4.2-5.7,8.9c-0.4,1-0.9,1.5-2.2,1.5c-0.5,0-1.2-0.1-2.1-0.2c2.1-5.3,3-10.2,3-12.1
	c0-0.7-0.1-1.3-0.3-1.8c1.2-0.5,2.1-0.8,2.8-0.8c0.9,0,1.4,0.5,1.4,1.4c0,1.1-0.4,2.7-0.9,4.5C198.8,195.5,200.7,193.2,202.4,193.2
	L202.4,193.2L202.4,193.2z M213.7,203.7c0.4,0.7,0.3,1.5-0.1,2.1c-0.5,0.6-1.1,1.1-2,1.5c-1.3,0.6-2.8,0.9-4.3,0.9
	c-3.2,0-5-1.4-5.1-4.2c-0.1-2.8,0.9-5.5,2.7-7.6c1.8-2.2,4.1-3.3,6.6-3.3c2.3,0,3.4,1,3.3,2.8c0,1.9-2.4,4.2-6,5.5
	c-0.9,0.3-2.6,1.1-2.7,1.8c0,0.7,0,1.2,0.3,1.6c0.6,0.9,1.6,1.4,2.6,1.2C210.8,205.9,212.3,205,213.7,203.7z M206.3,201.4
	c0.5-1,1.3-1.4,2.3-1.9c1.7-0.9,2.2-1.9,2.5-2.8c0.3-0.9,0-1.8-1-1.8c-1.5,0-2.7,1.9-3.5,5.2C206.6,200.2,206.5,200.6,206.3,201.4z
	 M31.5,168.6l0,1c0,1.2,0.3,2.2,0.8,3.2c0.5,0.9,1.4,1.7,2.7,2.2c1.2,0.5,2.7,0.8,4.4,0.8c2.4,0,4.3-0.5,5.6-1.6
	c1.3-1,1.9-2.3,1.9-3.7c0-0.9-0.3-1.8-1-2.6c-0.7-0.8-2.6-1.8-5.7-3.1c-2.4-1-4-1.8-4.9-2.4c-1.4-0.9-2.4-1.9-3-2.9
	c-0.7-1-0.9-2.3-0.9-3.6c0-1.6,0.4-2.9,1.3-4.2c0.9-1.2,2.1-2.2,3.8-2.9c1.7-0.7,3.5-1,5.6-1c2.5,0,4.6,0.4,6.3,1.2
	c1.7,0.8,2.9,1.9,3.7,3.3c0.8,1.4,1.1,2.7,1.1,3.9c0,0.1,0,0.3,0,0.6l-3.9,0.3c0-0.9-0.1-1.5-0.2-2c-0.3-0.9-0.7-1.6-1.3-2.1
	c-0.6-0.6-1.4-1-2.4-1.4c-1-0.3-2.1-0.5-3.4-0.5c-2.2,0-3.9,0.5-5.2,1.5c-0.9,0.8-1.4,1.8-1.4,3c0,0.8,0.2,1.4,0.6,2
	c0.4,0.6,1.1,1.1,2.1,1.7c0.7,0.4,2.4,1.2,5.1,2.4c2.2,0.9,3.7,1.7,4.5,2.3c1.1,0.7,1.9,1.6,2.6,2.7c0.6,1,0.9,2.2,0.9,3.6
	c0,1.7-0.5,3.1-1.5,4.6c-1,1.4-2.4,2.5-4.1,3.2c-1.8,0.8-3.8,1.1-6.1,1.1c-3.4,0-6.2-0.8-8.4-2.2c-2.2-1.5-3.3-4.2-3.3-8.1
	L31.5,168.6z M60.2,159.8c2.1-2.3,4.8-3.5,8.2-3.5c2.7,0,4.8,0.8,6.4,2.5s2.4,3.9,2.4,6.7c0,2.5-0.5,4.9-1.5,7c-1,2.2-2.5,3.8-4.4,5
	c-1.9,1.1-3.8,1.8-5.9,1.8c-1.7,0-3.3-0.4-4.7-1.1c-1.4-0.7-2.5-1.8-3.2-3.1c-0.8-1.3-1.1-2.9-1.1-4.7
	C56.4,166.1,57.7,162.6,60.2,159.8z M61.6,174.8c1,1.1,2.3,1.6,3.8,1.6c0.8,0,1.6-0.1,2.4-0.5c0.8-0.3,1.5-0.8,2.2-1.5
	c0.7-0.7,1.2-1.4,1.7-2.3s0.9-1.8,1.1-2.8c0.4-1.4,0.7-2.7,0.7-3.9c0-2-0.5-3.5-1.5-4.6c-1-1.1-2.3-1.7-3.8-1.7
	c-1.2,0-2.2,0.3-3.2,0.9c-0.9,0.6-1.9,1.4-2.6,2.5s-1.3,2.3-1.7,3.8c-0.4,1.4-0.6,2.7-0.6,3.8C60.2,172.1,60.7,173.7,61.6,174.8z
	 M85.3,159.7H82l0.6-2.9h3.4l0.7-3.1c0.3-1.6,0.7-2.7,1-3.4c0.3-0.7,0.9-1.3,1.7-1.7c0.8-0.4,1.9-0.7,3.2-0.7c0.9,0,2.3,0.2,4.1,0.6
	l-0.7,3.3c-1.3-0.3-2.3-0.5-3.2-0.5c-0.7,0-1.3,0.2-1.7,0.6c-0.4,0.4-0.7,1.2-1,2.6l-0.5,2.4h4.2l-0.6,2.9h-4.2l-4,19.1h-3.8
	L85.3,159.7z M102.2,178.8c-0.9,0.2-1.8,0.3-2.6,0.3c-1.5,0-2.7-0.4-3.6-1.1c-0.7-0.6-1-1.3-1-2.3c0-0.5,0.2-1.6,0.5-3.3l2.7-12.8
	h-2.9l0.6-2.9h2.9l1.1-5.4l4.3-2.6l-1.7,8h3.7l-0.6,2.9H102l-2.6,12.2c-0.3,1.6-0.5,2.5-0.5,2.8c0,0.4,0.1,0.8,0.4,1
	c0.2,0.2,0.7,0.3,1.2,0.3c0.8,0,1.6-0.1,2.2-0.2L102.2,178.8z M114.6,168.6l0,1c0,1.2,0.3,2.2,0.8,3.2c0.5,0.9,1.4,1.7,2.7,2.2
	s2.7,0.8,4.4,0.8c2.4,0,4.3-0.5,5.6-1.6c1.3-1,1.9-2.3,1.9-3.7c0-0.9-0.3-1.8-1-2.6c-0.7-0.8-2.6-1.8-5.7-3.1c-2.4-1-4-1.8-4.9-2.4
	c-1.4-0.9-2.4-1.9-3-2.9c-0.7-1-0.9-2.3-0.9-3.6c0-1.6,0.4-2.9,1.3-4.2c0.9-1.2,2.1-2.2,3.8-2.9c1.7-0.7,3.5-1,5.6-1
	c2.5,0,4.6,0.4,6.3,1.2c1.7,0.8,2.9,1.9,3.7,3.3c0.8,1.4,1.1,2.7,1.1,3.9c0,0.1,0,0.3,0,0.6l-3.9,0.3c0-0.9-0.1-1.5-0.2-2
	c-0.3-0.9-0.7-1.6-1.3-2.1c-0.6-0.6-1.4-1-2.4-1.4c-1-0.3-2.1-0.5-3.4-0.5c-2.2,0-3.9,0.5-5.2,1.5c-0.9,0.8-1.4,1.8-1.4,3
	c0,0.8,0.2,1.4,0.6,2c0.4,0.6,1.1,1.1,2.1,1.7c0.7,0.4,2.4,1.2,5.1,2.4c2.2,0.9,3.7,1.7,4.5,2.3c1.1,0.7,1.9,1.6,2.6,2.7
	c0.6,1,0.9,2.2,0.9,3.6c0,1.7-0.5,3.1-1.5,4.6c-1,1.4-2.4,2.5-4.1,3.2c-1.8,0.8-3.8,1.1-6.1,1.1c-3.4,0-6.2-0.8-8.4-2.2
	c-2.2-1.5-3.3-4.2-3.3-8.1L114.6,168.6z M138.2,156.8h3.6l1,9.9l0.4,5.6c0,0.4,0,1.2,0.1,2.5c0.4-1.4,0.8-2.5,1-3.2
	c0.3-0.8,0.8-1.8,1.4-3.2l5.2-11.4h4.1l0.7,11c0.1,1.7,0.2,3.9,0.2,6.7c0.7-1.9,1.8-4.4,3.4-7.7l4.7-10h3.8L157,178.7h-3.9
	l-0.8-12.9c0-0.8-0.1-2.4-0.1-4.7c-0.6,1.5-1.2,3.1-2,4.8l-5.8,12.8h-3.9L138.2,156.8z M170.3,156.8h3.8l-4.6,22h-3.8L170.3,156.8z
	 M172,148.4h3.7l-0.9,4.2h-3.7L172,148.4z M178.3,171c0,1.1,0.1,2,0.5,2.8c0.3,0.8,0.9,1.4,1.9,1.9c0.9,0.5,1.9,0.7,3.1,0.7
	c1.7,0,2.9-0.3,3.7-1c0.8-0.7,1.2-1.4,1.2-2.3c0-0.7-0.2-1.3-0.8-1.9c-0.5-0.6-1.8-1.3-3.8-2.1c-2-0.9-3.2-1.4-3.8-1.8
	c-0.9-0.6-1.6-1.2-2.1-2c-0.5-0.8-0.7-1.7-0.7-2.7c0-1.8,0.7-3.2,2.1-4.5c1.4-1.2,3.3-1.9,5.8-1.9c2.8,0,4.8,0.6,6.3,1.9
	c1.4,1.3,2.2,2.9,2.2,5l-3.7,0.2c0-1.3-0.5-2.4-1.4-3.1c-0.9-0.8-2.1-1.1-3.8-1.1c-1.3,0-2.3,0.3-3,0.9c-0.7,0.6-1.1,1.2-1.1,1.9
	s0.3,1.3,0.9,1.8c0.4,0.4,1.5,0.9,3.2,1.7c2.8,1.2,4.7,2.2,5.4,2.9c1.2,1.1,1.8,2.5,1.8,4.2c0,1.1-0.3,2.1-1,3.2
	c-0.7,1-1.7,1.9-3,2.5c-1.4,0.6-3,0.9-4.8,0.9c-2.5,0-4.7-0.6-6.5-1.9c-1.8-1.2-2.6-3.3-2.5-6.1L178.3,171z M198.4,171
	c0,1.1,0.1,2,0.5,2.8c0.3,0.8,0.9,1.4,1.9,1.9c0.9,0.5,1.9,0.7,3.1,0.7c1.7,0,2.9-0.3,3.7-1c0.8-0.7,1.2-1.4,1.2-2.3
	c0-0.7-0.2-1.3-0.8-1.9c-0.5-0.6-1.8-1.3-3.8-2.1c-2-0.9-3.2-1.4-3.8-1.8c-0.9-0.6-1.6-1.2-2.1-2c-0.5-0.8-0.7-1.7-0.7-2.7
	c0-1.8,0.7-3.2,2.1-4.5c1.4-1.2,3.3-1.9,5.8-1.9c2.8,0,4.8,0.6,6.3,1.9c1.4,1.3,2.2,2.9,2.2,5l-3.7,0.2c0-1.3-0.5-2.4-1.4-3.1
	c-0.9-0.8-2.1-1.1-3.8-1.1c-1.3,0-2.3,0.3-3,0.9c-0.7,0.6-1.1,1.2-1.1,1.9s0.3,1.3,0.9,1.8c0.4,0.4,1.5,0.9,3.2,1.7
	c2.8,1.2,4.7,2.2,5.4,2.9c1.2,1.1,1.8,2.5,1.8,4.2c0,1.1-0.3,2.1-1,3.2c-0.7,1-1.7,1.9-3,2.5c-1.4,0.6-3,0.9-4.8,0.9
	c-2.5,0-4.7-0.6-6.5-1.9c-1.8-1.2-2.6-3.3-2.5-6.1L198.4,171z M158.3,27.7c28.5,0,51.6,23.1,51.6,51.6S186.8,131,158.3,131
	s-51.6-23.1-51.6-51.6S129.8,27.7,158.3,27.7z M158.5,48.3c-17.4,0-31.5,14.1-31.5,31.5s14.1,31.5,31.5,31.5S190,97.3,190,79.9
	S175.9,48.3,158.5,48.3z M168,88.6v15.6h-18.2V88.6h-15.6V70.4h15.6V54.8H168v15.6h15.6v18.2C183.5,88.6,168,88.6,168,88.6z
	 M115.8,72.2c1.1-6.2,3.5-11.9,6.9-16.9l6.5,6.5c-1.9,3.1-3.4,6.6-4.2,10.4H115.8z M150.6,123c-6.2-1.2-11.9-3.7-16.9-7.2l6.7-6.7
	c3.1,1.9,6.5,3.3,10.2,4.2V123z M122.7,104.7c-3.4-5-5.8-10.7-6.9-16.9h9.3c0.9,3.7,2.3,7.1,4.3,10.2L122.7,104.7z M176.7,50.7
	c-3.1-2-6.6-3.5-10.4-4.3v-9.5c6.3,1.1,12.2,3.5,17.2,7L176.7,50.7z M194.7,54.9c3.6,5.1,6.1,10.9,7.2,17.3H192
	c-0.9-3.7-2.3-7.2-4.2-10.4L194.7,54.9z M201.9,87.9c-1.1,6.4-3.7,12.2-7.2,17.3l-7.1-7.1c1.9-3.1,3.4-6.6,4.3-10.2
	C191.9,87.9,201.9,87.9,201.9,87.9z M183.5,116.2c-5.1,3.5-10.9,5.9-17.2,7v-9.8c3.7-0.9,7.1-2.3,10.2-4.2L183.5,116.2z M150.6,46.4
	c-3.7,0.9-7.2,2.3-10.4,4.3l-6.6-6.6c5-3.5,10.7-6,16.9-7.2C150.6,37,150.6,46.4,150.6,46.4z M119.8,54.7l-2.6-1
	c3.8-5.9,8.6-10.9,14.3-14.7l1.1,2.7C127.5,45.2,123.2,49.6,119.8,54.7z M133.1,119l-0.9,2.4c-6-3.8-10.9-8.8-14.6-14.6l2.3-1
	C123.3,111.1,127.8,115.6,133.1,119z M112.1,80.3c0,3.2,0.3,6.3,0.9,9.3l-2.4,1c-1.5-6.6-1.5-13.6-0.1-20.5l2.4,1
	C112.4,74,112.1,77.1,112.1,80.3z M183.5,41.3l1.3-3.1c6.1,3.8,11.2,8.8,15,14.5l-3.2,1.3C193.2,49,188.7,44.6,183.5,41.3z
	 M204.8,80.3c0-3.4-0.4-6.8-1.1-10l3.1-1.3c1.6,6.8,1.7,14,0.2,21.1l-3.1-1.2C204.5,86,204.8,83.2,204.8,80.3z M197.5,105.2l2.9,1.2
	c-3.9,6.1-9,11.2-14.8,15l-1.2-2.8C189.7,115.1,194.1,110.5,197.5,105.2z M158.5,126.6c3.4,0,6.6-0.4,9.8-1l1.1,2.6
	c-6.7,1.5-13.9,1.6-20.9,0l1-2.5C152.4,126.3,155.4,126.6,158.5,126.6z M158.5,33.9c-3.3,0-6.5,0.3-9.5,1l-1.2-2.8
	c6.6-1.6,13.7-1.7,20.7-0.3l-1.2,3C164.3,34.2,161.4,33.9,158.5,33.9z M81.7,29.8c28.5,0,51.6,23.1,51.6,51.6s-23.1,51.6-51.6,51.6
	S30,110,30,81.4S53.2,29.8,81.7,29.8z M81.7,133.3c-28.6,0-51.9-23.3-51.9-51.9s23.3-51.9,51.9-51.9s51.9,23.3,51.9,51.9
	S110.3,133.3,81.7,133.3z M81.7,30.1c-28.3,0-51.4,23-51.4,51.4c0,28.3,23,51.4,51.4,51.4s51.4-23,51.4-51.4
	C133,53.1,110,30.1,81.7,30.1z M124.1,52.1c-3.7-5.3-8.2-9.8-13.5-13.4l-19,19V30.8c-3.2-0.6-6.6-0.9-10-0.9c-3.1,0-6.1,0.3-9,0.8
	v27.1L53.3,38.4c-5.3,3.5-10,8-13.7,13.2l19.6,19.6H31.1c-0.7,3.3-1,6.7-1,10.3c0,3,0.3,5.9,0.8,8.7h28.4l-20.2,20.2
	c3.6,5.3,8.2,9.9,13.4,13.5l20.3-20.3v28.6c2.9,0.5,5.9,0.8,9,0.8c3.4,0,6.7-0.3,10-0.9v-28.4l19.9,19.9c5.2-3.7,9.7-8.4,13.2-13.7
	L105,90.2h27.4c0.5-2.8,0.8-5.8,0.8-8.7c0-3.5-0.3-6.9-1-10.3H105L124.1,52.1z M82,33.1c26.9,0,48.7,21.8,48.7,48.7
	S109,130.5,82,130.5s-48.7-21.8-48.7-48.7S55.1,33.1,82,33.1z M82,130.8c-27,0-49-22-49-49s21.9-49,49-49s48.9,22,48.9,49
	S109,130.8,82,130.8z M82,33.3c-26.7,0-48.5,21.8-48.5,48.5s21.8,48.5,48.5,48.5s48.4-21.8,48.4-48.5S108.7,33.3,82,33.3z
	 M104.5,35.1L31.8,94.8c0.1,0.4,0.2,0.8,0.3,1.2l73.4-60.4C105.2,35.5,104.8,35.3,104.5,35.1z M81.7,29.8C53.2,29.8,30,52.9,30,81.4
	c0,3.2,0.3,6.3,0.9,9.4l69.8-57.3C94.8,31.1,88.4,29.8,81.7,29.8z M112.6,40.1l-77.5,63.6c8.3,17.3,26,29.3,46.5,29.3
	c28.5,0,51.6-23.1,51.6-51.6C133.2,64.5,125.1,49.5,112.6,40.1z M105.6,35.7L32.2,96.1c0.8,2.7,1.8,5.2,2.9,7.7l77.5-63.6
	C110.4,38.5,108,37,105.6,35.7z M100.7,33.5L30.9,90.8c0.2,1.4,0.6,2.7,0.9,4l72.7-59.7C103.2,34.5,102,34,100.7,33.5z M82,48
	c18.7,0,33.8,15.1,33.8,33.8s-15.1,33.8-33.8,33.8s-33.8-15.1-33.8-33.8S63.4,48,82,48z M82,115.7c-18.7,0-33.9-15.2-33.9-33.9
	S63.3,47.9,82,47.9S116,63.1,116,81.8S100.7,115.7,82,115.7z M82,48.2c-18.6,0-33.7,15.1-33.7,33.7s15.1,33.7,33.7,33.7
	s33.7-15.1,33.7-33.7S100.6,48.2,82,48.2z M58.1,116.4l1,0.5c-0.1,0.4-0.2,0.7-0.1,0.9c0.1,0.3,0.3,0.5,0.6,0.7
	c0.3,0.2,0.6,0.3,0.9,0.2c0.2,0,0.4-0.1,0.6-0.3c0.1-0.1,0.1-0.2,0.1-0.4s-0.1-0.3-0.2-0.4c-0.1-0.1-0.3-0.4-0.7-0.7
	c-0.5-0.5-0.8-0.9-0.9-1.2c-0.1-0.5-0.1-0.9,0.1-1.3c0.1-0.2,0.4-0.5,0.7-0.6c0.3-0.1,0.6-0.2,0.9-0.1c0.3,0,0.7,0.2,1.1,0.4
	c0.6,0.4,1,0.8,1.2,1.3s0.1,0.9-0.2,1.4l-1-0.6c0.1-0.3,0.1-0.5,0-0.8c-0.1-0.2-0.2-0.4-0.6-0.6c-0.3-0.2-0.6-0.3-0.8-0.2
	c-0.1,0-0.3,0.1-0.4,0.2c-0.1,0.1-0.1,0.2,0,0.4c0,0.2,0.3,0.5,0.8,0.9c0.4,0.4,0.7,0.8,0.9,1c0.1,0.3,0.2,0.6,0.2,0.9
	c0,0.3-0.1,0.6-0.3,0.9c-0.2,0.3-0.4,0.5-0.8,0.7c-0.3,0.1-0.7,0.2-1,0.1c-0.4,0-0.8-0.2-1.2-0.5c-0.7-0.4-1-0.9-1.2-1.4
	C57.7,117.6,57.8,117,58.1,116.4z M63.5,118.5c0.2-0.6,0.5-1,0.9-1.3c0.2-0.2,0.5-0.4,0.9-0.5c0.3-0.1,0.6-0.2,0.9-0.2
	c0.4,0,0.9,0.1,1.3,0.3c0.8,0.3,1.4,0.9,1.6,1.6c0.3,0.7,0.2,1.5-0.1,2.4c-0.4,0.9-0.9,1.5-1.6,1.8c-0.7,0.3-1.4,0.3-2.3,0
	c-0.8-0.3-1.4-0.9-1.7-1.6C63.1,120.2,63.1,119.4,63.5,118.5z M64.7,119c-0.3,0.6-0.3,1.1-0.1,1.6c0.1,0.4,0.5,0.8,0.9,0.9
	c0.4,0.2,0.9,0.2,1.3,0c0.4-0.2,0.8-0.6,1-1.3c0.3-0.6,0.3-1.1,0.2-1.6c-0.1-0.4-0.4-0.8-0.9-0.9c-0.5-0.2-0.9-0.2-1.3,0
	C65.3,117.9,64.9,118.3,64.7,119z M69.1,123.9l1.5-5.8l4,1l-0.2,1l-2.8-0.7l-0.3,1.4l2.4,0.6l-0.2,1l-2.4-0.6l-0.6,2.5L69.1,123.9z
	 M75.9,125.4l0.6-4.9l-1.8-0.2l0.1-1l4.7,0.6l-0.1,1l-1.8-0.2l-0.6,4.9L75.9,125.4z M79.8,123.8l1.2-0.1c0.1,0.4,0.2,0.7,0.4,0.9
	c0.2,0.2,0.5,0.3,0.9,0.3c0.4,0,0.7-0.1,0.9-0.2c0.2-0.2,0.3-0.4,0.3-0.6c0-0.1,0-0.2-0.1-0.4c-0.1-0.1-0.2-0.2-0.4-0.2
	c-0.1,0-0.5-0.1-0.9-0.2c-0.7-0.1-1.1-0.3-1.4-0.6c-0.4-0.3-0.6-0.7-0.6-1.2c0-0.3,0.1-0.6,0.2-0.9c0.2-0.3,0.4-0.5,0.8-0.6
	c0.3-0.1,0.7-0.2,1.2-0.2c0.8,0,1.3,0.1,1.7,0.5c0.4,0.3,0.6,0.8,0.6,1.3l-1.2,0.1c0-0.3-0.2-0.5-0.3-0.7c-0.2-0.1-0.4-0.2-0.8-0.2
	c-0.3,0-0.6,0.1-0.8,0.2c-0.1,0.1-0.2,0.2-0.2,0.4c0,0.1,0,0.3,0.2,0.4c0.1,0.1,0.5,0.2,1.1,0.4c0.6,0.1,1,0.3,1.3,0.4
	c0.3,0.1,0.5,0.3,0.7,0.6c0.1,0.3,0.2,0.6,0.2,0.9c0,0.3-0.1,0.7-0.3,0.9c-0.2,0.3-0.4,0.5-0.8,0.7c-0.3,0.1-0.8,0.2-1.3,0.2
	c-0.8,0-1.3-0.1-1.8-0.5C80.1,125,79.9,124.5,79.8,123.8z M87.1,125.6l-2.4-5.7l1.2-0.2l1.6,3.9l0.4-4.2l1.4-0.2l1.8,3.9l0.2-4.3
	l1.2-0.2l-0.4,6.1l-1.3,0.2l-1.9-4.2l-0.4,4.6L87.1,125.6z M94.4,124l-1.8-5.7l1.1-0.3l1.8,5.7L94.4,124z M96,121.5l1-0.6
	c0.2,0.3,0.5,0.6,0.7,0.6c0.3,0.1,0.6,0,0.9-0.1c0.4-0.1,0.6-0.3,0.7-0.6s0.1-0.4,0-0.7c0-0.1-0.1-0.2-0.2-0.3s-0.3-0.1-0.5,0
	c-0.1,0-0.5,0-1,0.1c-0.7,0.1-1.1,0.1-1.5,0c-0.5-0.1-0.8-0.5-1-0.9c-0.1-0.3-0.1-0.6-0.1-0.9c0-0.3,0.2-0.6,0.5-0.9
	c0.2-0.2,0.6-0.5,1-0.7c0.7-0.3,1.3-0.4,1.8-0.2c0.5,0.1,0.9,0.5,1,1l-1.1,0.5c-0.2-0.3-0.3-0.4-0.6-0.5c-0.2,0-0.5,0-0.8,0.1
	c-0.3,0.1-0.6,0.3-0.7,0.5c-0.1,0.1-0.1,0.3,0,0.4s0.1,0.2,0.3,0.3c0.2,0,0.6,0,1.2,0c0.6-0.1,1-0.1,1.4-0.1c0.3,0,0.6,0.1,0.9,0.3
	c0.2,0.2,0.4,0.4,0.6,0.8c0.1,0.3,0.2,0.7,0.1,1c0,0.3-0.2,0.7-0.5,0.9c-0.3,0.3-0.6,0.5-1.1,0.7c-0.7,0.3-1.3,0.4-1.8,0.2
	C96.8,122.5,96.3,122.1,96,121.5z M101.3,119.2l0.9-0.7c0.3,0.3,0.5,0.5,0.8,0.5s0.6,0,0.9-0.2c0.3-0.2,0.5-0.4,0.6-0.7
	c0.1-0.2,0.1-0.5,0-0.7c-0.1-0.1-0.2-0.2-0.3-0.2c-0.1,0-0.3,0-0.5,0c-0.1,0-0.5,0.1-0.9,0.3c-0.6,0.2-1.1,0.2-1.5,0.2
	c-0.5-0.1-0.9-0.3-1.1-0.8c-0.1-0.3-0.2-0.6-0.2-0.9c0-0.3,0.1-0.6,0.3-0.9c0.2-0.3,0.5-0.5,0.9-0.8c0.7-0.4,1.2-0.5,1.7-0.4
	s0.9,0.4,1.2,0.8l-1,0.7c-0.2-0.2-0.4-0.4-0.6-0.4c-0.2,0-0.5,0-0.8,0.2s-0.5,0.4-0.6,0.6c0,0.1,0,0.3,0,0.4s0.2,0.2,0.3,0.2
	c0.2,0,0.6,0,1.1-0.2c0.6-0.2,1-0.3,1.3-0.3c0.3,0,0.6,0,0.9,0.2c0.3,0.1,0.5,0.4,0.7,0.7c0.2,0.3,0.2,0.6,0.2,1
	c0,0.3-0.1,0.7-0.3,1c-0.2,0.3-0.6,0.6-1,0.9c-0.7,0.4-1.2,0.5-1.8,0.4C102.2,120,101.8,119.8,101.3,119.2z M119.2,104l-1.6,2.2
	l0.9,2.6l-2.6-0.9l-2.2,1.7v-2.8l-2.3-1.6l2.7-0.9l0.8-2.7l1.6,2.2L119.2,104z M50.5,104l-0.6-2.7l-1.8,2.1l-2.8-0.3l1.5,2.4
	l-1.1,2.5l2.7-0.7l2.1,1.9l0.2-2.8l2.4-1.4L50.5,104z M119.2,104l-1.6,2.2l0.9,2.6l-2.6-0.9l-2.2,1.7v-2.8l-2.3-1.6l2.7-0.9l0.8-2.7
	l1.6,2.2L119.2,104z M50.5,103.9l-0.6-2.7l-1.8,2.1l-2.8-0.3l1.5,2.4l-1.1,2.5l2.7-0.7l2.1,1.9l0.2-2.8l2.4-1.4L50.5,103.9z
	 M38.9,80.4l0.2-2.4c0-0.5,0.1-0.8,0.1-1s0.1-0.4,0.3-0.6c0.1-0.2,0.3-0.3,0.5-0.4c0.2-0.1,0.5-0.1,0.7-0.1c0.3,0,0.5,0.1,0.8,0.3
	c0.2,0.2,0.4,0.4,0.5,0.7c0.1-0.3,0.3-0.6,0.6-0.8c0.3-0.2,0.6-0.2,0.9-0.2c0.3,0,0.5,0.1,0.8,0.2s0.4,0.3,0.6,0.6
	c0.1,0.2,0.2,0.5,0.2,0.9c0,0.2,0,0.7-0.1,1.5l-0.2,2L38.9,80.4z M40,79.4l1.4,0.1l0-0.8c0-0.5,0-0.8,0-0.9c0-0.2,0-0.4-0.2-0.5
	c-0.1-0.1-0.2-0.2-0.4-0.2c-0.2,0-0.3,0-0.5,0.1c-0.1,0.1-0.2,0.2-0.2,0.4c0,0.1,0,0.5-0.1,1L40,79.4z M42.3,79.5l1.6,0.1l0.1-1.1
	c0-0.4,0-0.7,0-0.8c0-0.2-0.1-0.3-0.2-0.5s-0.3-0.2-0.5-0.2s-0.3,0-0.5,0.1c-0.1,0.1-0.2,0.2-0.3,0.3s-0.1,0.5-0.2,1L42.3,79.5z
	 M45.5,75.1l-5.9-1.2l0.2-1.2l5.9,1.2L45.5,75.1z M46.4,71.6l-4.7-1.5l-0.5,1.7l-0.9-0.3l1.4-4.6l0.9,0.3L42,69l4.7,1.5L46.4,71.6z
	 M47.1,63.7l0.9-0.9c0.5,0.4,0.8,0.9,0.9,1.4c0.1,0.5,0,1-0.2,1.7c-0.3,0.7-0.9,1.2-1.6,1.4c-0.7,0.2-1.5,0.1-2.3-0.3
	c-0.9-0.4-1.5-1-1.8-1.7c-0.3-0.7-0.2-1.4,0.1-2.2c0.3-0.7,0.8-1.1,1.3-1.3c0.3-0.1,0.8-0.1,1.2-0.1l-0.2,1.2c-0.3,0-0.6,0-0.9,0.1
	c-0.2,0.1-0.5,0.3-0.6,0.6c-0.2,0.4-0.2,0.8,0,1.2c0.2,0.4,0.6,0.7,1.2,1c0.7,0.3,1.2,0.4,1.6,0.3c0.4-0.1,0.7-0.4,0.9-0.8
	c0.1-0.3,0.1-0.6,0.1-0.9C47.7,64.2,47.5,64,47.1,63.7z M47.5,61.3c-0.5-0.3-0.9-0.7-1.1-1.1c-0.2-0.3-0.3-0.6-0.3-0.9
	c0-0.3,0-0.7,0-0.9c0.1-0.4,0.3-0.8,0.5-1.2c0.5-0.7,1.1-1.1,1.9-1.3s1.5,0.1,2.3,0.7c0.8,0.6,1.3,1.2,1.4,1.9s0,1.5-0.5,2.2
	c-0.5,0.7-1.1,1.1-1.9,1.3S48.3,61.8,47.5,61.3z M48.2,60.2c0.6,0.4,1,0.6,1.5,0.5c0.5,0,0.9-0.3,1.1-0.7c0.3-0.4,0.4-0.8,0.2-1.3
	c-0.1-0.5-0.4-0.9-1-1.3c-0.6-0.4-1-0.6-1.5-0.5c-0.4,0-0.8,0.3-1.1,0.7c-0.3,0.4-0.4,0.9-0.3,1.3C47.3,59.4,47.6,59.8,48.2,60.2z
	 M53.9,57.6l-4.5-4l0.8-0.9l4.5,4L53.9,57.6z M55.4,55.9l-4-4.4l0.9-0.8l4.5,1.3l-2.7-2.9l0.9-0.8l4,4.4l-0.9,0.8l-4.4-1.3l2.6,2.9
	L55.4,55.9z M64,46.9l1.2-0.2c0.1,0.7,0.1,1.2,0,1.7c-0.2,0.5-0.6,0.9-1.1,1.2c-0.7,0.4-1.4,0.5-2.1,0.2c-0.7-0.2-1.3-0.8-1.8-1.6
	c-0.5-0.9-0.7-1.7-0.5-2.4c0.2-0.7,0.6-1.3,1.4-1.7c0.6-0.4,1.3-0.5,1.9-0.3c0.4,0.1,0.7,0.3,1.1,0.7l-0.9,0.9
	c-0.2-0.2-0.5-0.4-0.8-0.4c-0.3,0-0.6,0-0.9,0.2c-0.4,0.2-0.6,0.5-0.7,0.9c-0.1,0.4,0,0.9,0.4,1.6c0.4,0.7,0.8,1,1.1,1.2
	c0.4,0.1,0.8,0.1,1.1-0.1c0.3-0.1,0.5-0.4,0.6-0.7C64.1,47.7,64.1,47.3,64,46.9z M72,46l-1.2,0.5l-0.9-1.1l-2.2,0.8v1.4L66.4,48
	l0.1-6.4l1.2-0.4L72,46z M69,44.5l-1.5-1.8v2.4L69,44.5z M71.8,44.1l1.1-0.3c0.1,0.4,0.3,0.6,0.6,0.8c0.2,0.1,0.6,0.2,0.9,0.1
	c0.4-0.1,0.7-0.2,0.8-0.4c0.1-0.2,0.2-0.4,0.2-0.6c0-0.1-0.1-0.2-0.2-0.3c-0.1-0.1-0.2-0.1-0.5-0.2c-0.1,0-0.5,0-1,0
	c-0.7,0-1.1-0.1-1.5-0.3c-0.4-0.2-0.7-0.6-0.8-1.1c0-0.3,0-0.6,0.1-0.9c0.1-0.3,0.3-0.5,0.6-0.8c0.3-0.2,0.7-0.3,1.1-0.4
	c0.7-0.1,1.3-0.1,1.8,0.1c0.4,0.2,0.7,0.6,0.9,1.2l-1.2,0.3c-0.1-0.3-0.3-0.5-0.5-0.6c-0.2-0.1-0.5-0.1-0.8,0
	c-0.3,0-0.6,0.2-0.8,0.4c-0.1,0.1-0.1,0.2-0.1,0.4c0,0.1,0.1,0.2,0.2,0.3c0.2,0.1,0.6,0.1,1.2,0.2c0.6,0,1,0.1,1.4,0.1
	c0.3,0.1,0.6,0.2,0.8,0.5c0.2,0.2,0.3,0.5,0.4,0.9c0,0.3,0,0.7-0.1,1c-0.1,0.3-0.3,0.6-0.7,0.8c-0.3,0.2-0.7,0.4-1.2,0.5
	c-0.8,0.1-1.3,0.1-1.8-0.2C72.4,45.2,72,44.7,71.8,44.1z M77.9,45L77.3,39l1.2-0.1l0.6,5.9L77.9,45z M80.2,44.7l0.1-6h1.2l2.4,4l0-4
	H85l-0.1,6h-1.2l-2.3-3.9l0,3.9H80.2z M86.4,41.9c0.1-0.6,0.3-1.1,0.5-1.5c0.2-0.3,0.4-0.5,0.7-0.7c0.3-0.2,0.6-0.3,0.9-0.4
	c0.4-0.1,0.9-0.1,1.3,0c0.9,0.1,1.5,0.6,1.9,1.2c0.4,0.6,0.6,1.4,0.4,2.4c-0.2,0.9-0.6,1.7-1.2,2.1c-0.6,0.4-1.3,0.6-2.2,0.4
	c-0.9-0.1-1.5-0.6-1.9-1.2C86.3,43.6,86.2,42.8,86.4,41.9z M87.6,42.1c-0.1,0.7,0,1.2,0.2,1.6c0.2,0.4,0.6,0.7,1.1,0.7
	c0.5,0.1,0.9,0,1.3-0.3c0.4-0.3,0.6-0.8,0.7-1.5c0.1-0.7,0-1.2-0.2-1.6c-0.2-0.4-0.6-0.6-1.1-0.7s-0.9,0-1.3,0.3
	C88,40.9,87.7,41.4,87.6,42.1z M95,44.9l1.1,0.3c-0.1,0.4,0,0.7,0,0.9c0.1,0.2,0.4,0.5,0.7,0.6c0.4,0.1,0.7,0.2,0.9,0.1
	s0.4-0.2,0.5-0.4c0-0.1,0-0.2,0-0.4c0-0.1-0.1-0.2-0.3-0.4c-0.1-0.1-0.4-0.3-0.8-0.6c-0.5-0.4-0.9-0.8-1-1.1c-0.2-0.4-0.2-0.9,0-1.3
	c0.1-0.3,0.3-0.5,0.6-0.7c0.3-0.2,0.6-0.3,0.9-0.3c0.3,0,0.8,0.1,1.2,0.3c0.7,0.3,1.1,0.7,1.4,1.1c0.2,0.5,0.2,0.9,0,1.4l-1.1-0.4
	c0.1-0.3,0-0.6,0-0.8c-0.1-0.2-0.3-0.3-0.6-0.5c-0.3-0.1-0.6-0.2-0.9-0.1c-0.1,0-0.2,0.1-0.3,0.3c0,0.1,0,0.3,0,0.4
	c0.1,0.2,0.4,0.4,0.9,0.8c0.5,0.4,0.8,0.7,1,0.9c0.2,0.2,0.3,0.5,0.4,0.8c0,0.3,0,0.6-0.1,0.9s-0.3,0.6-0.6,0.8
	c-0.3,0.2-0.6,0.3-1,0.3c-0.4,0-0.8-0.1-1.3-0.3c-0.7-0.3-1.1-0.7-1.4-1.2C94.9,46.1,94.8,45.5,95,44.9z M100.9,46.3
	c0.3-0.5,0.7-0.9,1-1.1c0.3-0.2,0.6-0.3,0.9-0.4c0.3-0.1,0.7-0.1,0.9,0c0.4,0,0.8,0.2,1.2,0.5c0.8,0.5,1.2,1.1,1.4,1.8
	c0.1,0.8,0,1.5-0.5,2.4c-0.5,0.8-1.1,1.3-1.9,1.5c-0.7,0.2-1.5,0-2.2-0.4c-0.8-0.5-1.2-1.1-1.4-1.8C100.2,48,100.4,47.2,100.9,46.3z
	 M101.9,47c-0.4,0.6-0.5,1.1-0.4,1.6c0.1,0.5,0.3,0.8,0.7,1.1c0.4,0.2,0.9,0.3,1.3,0.2c0.4-0.1,0.9-0.5,1.2-1.1
	c0.4-0.6,0.5-1.1,0.4-1.5c-0.1-0.4-0.3-0.8-0.8-1c-0.4-0.3-0.9-0.3-1.3-0.2C102.8,46.1,102.3,46.4,101.9,47z M104.8,52.5l3.9-4.5
	l3.1,2.7l-0.7,0.8l-2.2-1.9l-0.9,1.1l1.9,1.6l-0.7,0.8l-1.9-1.6l-1.7,1.9L104.8,52.5z M109.4,56.8l3.8-3.3l-1.2-1.3l0.8-0.7l3.1,3.6
	l-0.8,0.7l-1.2-1.3l-3.8,3.3L109.4,56.8z M112.3,60.3l4.3-4.4l0.7,1l-3,2.9l4.1-1.2l0.8,1.2l-3,3.1l4-1.4l0.6,1l-5.8,1.9l-0.7-1.1
	l3.2-3.4l-4.4,1.3L112.3,60.3z M117.6,70.9l-0.5-1.2l1-1l-0.9-2.2l-1.4,0l-0.5-1.2l6.4,0l0.5,1.2L117.6,70.9z M118.9,67.9l1.8-1.6
	l-2.4,0.1L118.9,67.9z M117.7,71.3l5.8-1.3l0.6,2.5c0.1,0.6,0.2,1.1,0.1,1.4c0,0.3-0.2,0.6-0.4,0.8c-0.2,0.2-0.5,0.4-0.9,0.5
	c-0.4,0.1-0.8,0-1.2-0.1c-0.3-0.2-0.6-0.5-0.8-1c-0.1,0.3-0.2,0.5-0.3,0.8c-0.1,0.2-0.4,0.5-0.8,0.9l-1,0.9l-0.3-1.4l1.1-1.1
	c0.4-0.4,0.6-0.7,0.7-0.8s0.1-0.3,0.1-0.4c0-0.1,0-0.3,0-0.6l0-0.2l-2.4,0.5L117.7,71.3z M121.3,71.8l0.2,0.9c0.1,0.6,0.2,0.9,0.3,1
	c0.1,0.1,0.2,0.2,0.3,0.3c0.1,0,0.3,0,0.5,0s0.3-0.1,0.4-0.3c0.1-0.1,0.1-0.3,0.1-0.5c0-0.1,0-0.4-0.2-0.9l-0.2-0.9L121.3,71.8z
	 M118.9,77.1l6-0.4l0.3,4.4l-1,0l-0.2-3.2l-1.3,0.1l0.2,3l-1,0l-0.2-3l-1.6,0.1l0.2,3.3l-1,0L118.9,77.1z M101.3,85.1
	c-1.4-1.7-3.5-2.9-6.2-3.6c1.9-0.8,3.4-1.9,4.5-3.5c1.1-1.6,1.7-3.3,1.7-5.1c0-1.7-0.4-3.3-1.3-4.7c-0.9-1.4-2-2.5-3.4-3.3
	c-1.3-0.9-2.8-1.4-4.6-1.7c-0.8-0.1-1.8-0.2-2.9-0.3v-6.1h-6.7v6h-3.3v-6h-6.7v6h-5.7v39.9h5.7v6h6.7v-6h2.5c0.2,0,0.5,0,0.8,0v6
	h6.7v-6.1c1.5,0,2.6-0.1,3.2-0.1c2.4-0.2,4.3-0.9,5.9-1.9s2.8-2.4,3.8-4.1c0.9-1.7,1.4-3.5,1.4-5.3
	C103.5,88.8,102.8,86.8,101.3,85.1z M88.3,69.6c1.5,0.1,2.6,0.6,3.3,1.4c0.8,0.8,1.1,1.8,1.1,3c0,1.3-0.4,2.3-1.3,3.1
	c-0.9,0.8-2,1.3-3.6,1.4c-0.9,0.1-3,0.1-6.4,0.1h-5.8v-9.2h5.1C84.8,69.4,87.4,69.5,88.3,69.6z M93.1,94.1c-0.8,0.9-1.9,1.4-3.2,1.6
	C89,95.9,87,96,83.8,96h-8.2V85.3h7.2c4,0,6.6,0.2,7.8,0.6c1.2,0.4,2.1,1,2.8,1.8c0.6,0.9,0.9,1.9,0.9,3
	C94.3,92.1,93.9,93.3,93.1,94.1z M100.6,84.3c-1.4-1.7-3.5-2.9-6.2-3.6c1.9-0.8,3.4-1.9,4.5-3.5c1.1-1.6,1.7-3.3,1.7-5.1
	c0-1.7-0.4-3.3-1.3-4.7c-0.9-1.4-2-2.5-3.4-3.3c-1.3-0.9-2.8-1.4-4.6-1.7c-0.8-0.1-1.8-0.2-2.9-0.3v-6.1h-6.7v6h-3.3v-6h-6.7v6H66
	V102h5.7v6h6.7v-6H81c0.2,0,0.5,0,0.8,0v6h6.7v-6.1c1.5,0,2.6-0.1,3.2-0.1c2.4-0.2,4.3-0.9,5.9-1.9c1.6-1,2.8-2.4,3.8-4.1
	c0.9-1.7,1.4-3.5,1.4-5.3C102.8,88,102,86,100.6,84.3z M87.6,68.8c1.5,0.1,2.6,0.6,3.3,1.4c0.8,0.8,1.1,1.8,1.1,3
	c0,1.3-0.4,2.3-1.3,3.1c-0.9,0.8-2,1.3-3.6,1.4c-0.9,0.1-3,0.1-6.4,0.1h-5.9v-9.2H80C84.1,68.7,86.7,68.7,87.6,68.8z M92.4,93.4
	c-0.8,0.9-1.9,1.4-3.2,1.6c-0.9,0.1-2.9,0.2-6.1,0.2h-8.2V84.5H82c4,0,6.6,0.2,7.8,0.6c1.2,0.4,2.1,1,2.8,1.8c0.6,0.9,0.9,1.9,0.9,3
	C93.6,91.4,93.2,92.5,92.4,93.4z M89.9,85.1c-1.2-0.4-3.8-0.6-7.8-0.6h-7.2v10.7h8.2c3.2,0,5.2-0.1,6.1-0.2c1.3-0.2,2.4-0.8,3.2-1.6
	c0.8-0.9,1.2-2,1.2-3.4c0-1.2-0.3-2.2-0.9-3C92,86.1,91.1,85.5,89.9,85.1z M74.9,68.7v9.2h0.3h5.5c3.5,0,5.6,0,6.4-0.1
	c1.5-0.1,2.7-0.6,3.6-1.4c0.9-0.8,1.3-1.8,1.3-3.1c0-1.2-0.4-2.2-1.1-3c-0.8-0.8-1.9-1.2-3.3-1.4c-0.2,0-0.7,0-1.2,0
	c-1.3,0-3.4,0-6.4,0L74.9,68.7L74.9,68.7z M79.9,62L66,73.3v1.3L81.5,62H79.9z M88.5,56h-1.3l-5.5,4.5v1.3l6.7-5.5V56z M94.4,80.7
	c1.9-0.8,3.4-1.9,4.5-3.5c1.1-1.6,1.7-3.3,1.7-5.1c0-1.7-0.4-3.3-1.3-4.7c-0.9-1.4-2-2.5-3.4-3.3c-0.8-0.5-1.6-0.9-2.4-1.1l-7.1,5.8
	c0.5,0,0.9,0,1.2,0c1.5,0.1,2.6,0.6,3.3,1.4c0.8,0.8,1.1,1.8,1.1,3c0,1.3-0.4,2.3-1.3,3.1c-0.9,0.8-2,1.3-3.6,1.4
	c-0.9,0.1-3,0.1-6.4,0.1h-5.5l-9.1,7.5v16.6h5.7v6h6.7v-6h2.5c0.2,0,0.5,0,0.8,0v6h6.7v-6.1c1.5,0,2.6-0.1,3.2-0.1
	c2.4-0.2,4.3-0.9,5.9-1.9c1.6-1,2.8-2.4,3.8-4.1c0.9-1.7,1.4-3.5,1.4-5.3c0-2.3-0.7-4.3-2.1-6C99.2,82.6,97.1,81.4,94.4,80.7z
	 M92.4,93.4c-0.8,0.9-1.9,1.4-3.2,1.6c-0.9,0.1-2.9,0.2-6.1,0.2h-8.2V84.5H82c4,0,6.6,0.2,7.8,0.6c1.2,0.4,2.1,1,2.8,1.8
	c0.6,0.9,0.9,1.9,0.9,3C93.6,91.4,93.2,92.5,92.4,93.4z M78.4,58L66,68.1v0.6l12.4-10.1V58z M74.9,77.9v-9.2H80c3,0,5.1,0,6.4,0
	l7.1-5.8c-0.7-0.2-1.4-0.4-2.1-0.5c-0.8-0.1-1.8-0.2-2.9-0.3v-5.8l-6.7,5.5V62h-0.2L66,74.6v10.7l9.1-7.5
	C75.1,77.9,74.9,77.9,74.9,77.9z M81.7,56v4.5l5.5-4.5H81.7z M78.4,62v-3.4L66,68.8v4.6L79.9,62H78.4z M78.4,56h-6.7v6H66v6.1
	L78.4,58V56z"/>
<g id="softswiss">
	<g id="word_1_">
		<path id="Casino_Software_2_" fill="#BA2A26" d="M39.6,192.2c-0.5-2.2-1.5-3.3-3.5-3.3c-4.3,0-6.5,7.3-6.5,11.9c0,3.1,1.2,5,3.9,5
			c1.9,0,4.1-1.2,5.8-2.8c0.2,0.6,0.4,1.1,0.4,1.5c0,2-4.2,4.1-8,4.1c-4.5,0-6.4-2.7-6.4-7.5c0-7.3,5.4-14.4,12.3-14.4
			c2.6,0,4.6,0.8,4.6,2.8C42.1,190.6,41.1,191.5,39.6,192.2z M55.5,203c0.1,0,0.1,0.1,0.1,0.2c0,2-2.8,4.9-4.8,4.9
			c-1.5,0-2.4-0.9-2.4-2.8c0-0.7,0-1.6,0.1-2.2c-2,3.3-4,5-5.8,5.1h-0.3c-2.2,0-2.9-1.6-2.9-3.8c0.1-5.2,4.2-11.2,8.5-11.2
			c1,0,1.9,0.2,2.7,0.8c0.4-0.5,1-0.7,1.7-0.7c0.9,0,1.6,0.2,2.4,0.7c-1,1.5-2.7,8.2-2.7,10.3c0,0.5,0.2,0.9,0.3,1.1
			c0.3,0,0.8-0.4,1.3-0.9C54.7,203.4,55.2,203,55.5,203z M50,196.8c-0.3-1.1-1.3-1.6-2.2-1.6c-2.2,0-4.3,5.2-4.3,8.7
			c0,0.9,0.3,1.4,0.9,1.4s1.4-0.9,2.4-2.5C48.2,200.8,49.4,198.4,50,196.8z M61,196.1c0,0.5,0.3,1,0.7,1.6c1.2,1.4,2.4,2.7,2.4,4.7
			c0,3.2-3,5.7-6.3,5.7c-1.9,0-4-1.2-4-3.3c0-0.9,0.6-1.5,1.1-1.8c0.6,1.7,1.7,3.2,3.3,3.2c1.3,0,2.1-0.7,2.1-2.2
			c0-1.3-1.1-2.2-2.2-3.3c-0.7-0.9-1.1-1.9-1.1-2.9c0-3.5,3.5-5,6.6-5c1,0,1.4,0.2,1.5,0.8c0,0.5-0.2,1-1,1.6
			c-0.5-0.5-1.1-0.8-1.6-0.8C61.5,194.5,61,195.1,61,196.1z M71.2,204.3c1.2-1.3,1.8-1.7,1.8-1.1c0,0.3-0.1,0.8-0.4,1.5
			c-0.8,1.8-2.9,3.4-4.4,3.4s-2.3-0.8-2.4-2.5c0-0.6,0-2.3,0.5-4.4c0.5-1.6,0.7-3.2,0.9-4.2c0.1-0.5,0.1-1,0.1-1.5
			c0-0.5-0.1-0.9-0.4-1.4c0.9-0.3,1.9-0.6,2.7-0.6c0.5,0,1,0.1,1.3,0.4c0.3,0.3,0.4,0.8,0.3,1.4c-0.1,0.4-0.1,0.9-0.3,1.4
			c-0.4,1.5-0.9,3.2-1,4c-0.2,0.9-0.4,2.5-0.4,3.3c0,0.5,0.1,0.9,0.3,1.2C70.1,205.2,70.6,204.8,71.2,204.3z M72.5,186.7
			c-1.3,0-2.6,0.2-3.7,0.7c0,0.1,0.1,0.2,0.1,0.4c0,1.1-0.4,2.6-0.4,3.4c0,0.4,0.3,1,1.4,0.8c1.6-0.3,1.5-0.3,2.8-2.1
			c0.7-1.1,0.9-1.5,1.1-2c0-0.1,0-0.2,0-0.3C73.7,187,73.3,186.7,72.5,186.7z M79.5,200.2c-1.3,2.1-1.7,3.2-3,6.4
			c-0.4,1-0.9,1.5-2.2,1.5c-0.5,0-1.2-0.1-2.1-0.2c0.6-1.5,1.1-3,1.6-4.6c1-3.5,1.5-6,1.5-7.5c0-0.7-0.1-1.3-0.3-1.8
			c1.2-0.5,2.1-0.8,2.8-0.8c0.7,0,1.4,0.3,1.4,1.3c0,1.1-0.5,2.8-1,4.9c1.7-3.1,4.6-6.3,6.9-6.3c1.2,0,2,0.9,2,2
			c0,1.2-0.4,3.1-0.9,5.3c-0.4,1.3-0.8,2.8-0.8,3.7c0,0.5,0.1,0.9,0.3,1.2c0.2-0.1,0.8-0.4,1.3-0.9c0.9-0.9,1.3-1.4,1.6-1.4
			c0.1,0,0.1,0,0.1,0.2c0,2-2.9,4.9-4.8,4.9c-1.4,0-2.4-0.8-2.4-2.5c0-0.9,0.3-1.9,0.5-3.1c0.7-3,1.1-5,1.1-5.4s-0.2-0.6-0.4-0.6
			C82,196.5,80.7,198.2,79.5,200.2z M97,193.1c2.9,0,4.9,1.8,4.9,4.8c0,5.1-3.9,10.2-8.8,10.2c-3,0-4.9-1.9-4.9-5c0-2.6,0.9-5,2.6-7
			C92.5,194.3,94.6,193.1,97,193.1z M96.2,195.1c-2.4,0-4,5.2-4,8.3c0,1.6,0.5,2.8,1.8,2.8c2.4,0,3.9-5.1,3.9-8.3
			C97.9,196.4,97.5,195.1,96.2,195.1z M111.2,203.7c0.4,1.7,2,2.6,3.9,2.6c2.3,0,3.8-1.2,3.8-3.4c0-1.2-0.6-2.2-1.7-3
			c-2.1-1.8-4.9-3-4.9-6.1c0-4.3,3.8-7.1,8.1-7.1c2.2,0,4.2,0.5,4.2,2.1c0,0.9-0.9,1.9-1.8,2.3c-0.9-1.4-1.8-2.2-3.6-2.2
			c-1.9,0-3.2,0.9-3.2,2.8c0,1.7,0.9,2.3,4.6,5.1c1.4,1.2,2.2,2.6,2.2,4.5c0,4.4-4.6,7.3-8.8,7.3c-2.3,0-5.4-0.9-5.4-2.9
			c0-1.1,1-2.5,2.6-2.9C111.1,203.1,111.1,203.3,111.2,203.7z M132.4,193.1c2.9,0,4.9,1.8,4.9,4.8c0,5.1-3.9,10.2-8.8,10.2
			c-3,0-4.9-1.9-4.9-5c0-2.6,0.9-5,2.6-7C127.9,194.3,130.1,193.1,132.4,193.1z M131.6,195.1c-2.4,0-4,5.2-4,8.3
			c0,1.6,0.5,2.8,1.8,2.8c2.4,0,3.9-5.1,3.9-8.3C133.3,196.4,132.9,195.1,131.6,195.1z M138.6,207.1c0.2-1.1,1.7-9,2-10.1h-0.6
			c-0.6,0-1.5-0.2-1.5-0.6c0,0,0-0.1,0-0.1c0.4-1.2,0.7-1.5,2.5-1.5c0.1-0.5,0.2-0.9,0.3-1.3c1-4,4.5-6.1,8.5-6.1
			c1.5,0,2.6,0.3,2.6,1.5c0,0.6-0.7,1.3-2,2c-0.5-1-1.2-1.5-2-1.5c-0.7,0-1.6,0.6-2,1.2c-0.5,0.8-1,2.2-1.4,4.4h1
			c1,0,2.2-0.2,3.1-0.2c0,0.1,0,0.2,0,0.3c0,1.7-1.7,2-3.2,2c-0.5,0-1,0-1.5,0c-0.7,3-1.1,6.1-2.3,9.5c-0.9,2.7-3,4.8-5.7,5.8
			c-0.1,0-0.2,0-0.3,0c-0.4,0-0.5-0.2-0.5-0.4c0-0.2,0.1-0.2,0.3-0.4C137.3,210.4,138.2,208.8,138.6,207.1z M157.9,194.7
			c0,1.3-1,2.2-2.3,2.2c-0.5,0-1,0-1.5,0c-0.2,0-0.4,0-0.6,0c-0.3,1.3-0.6,2.8-1,4.2c-0.2,0.8-0.4,2-0.4,2.9c0,0.9,0.4,1.3,1,1.3
			c0.3,0,0.9-0.5,1.4-1c0.9-0.9,1.4-1.4,1.7-1.4c0.1,0,0.1,0.1,0.1,0.2c0,1.9-2.8,4.9-4.8,4.9c-2.2,0-3.1-1.3-3.1-3.5
			c0-0.5,0.1-1.1,0.1-1.7c0.3-1.6,0.3-2,0.9-4.3c0.6-2.3,1.2-5.1,1.2-6.6c0-0.5,0-0.9-0.3-1.5c1.1-0.7,2-0.9,2.9-0.9
			c0.9,0,1.3,0.5,1.3,1.3c0-0.1-0.1,1.2-0.7,3.9h1.4c0.8,0,1.7,0,2.6-0.2L157.9,194.7L157.9,194.7z M168.4,207.9
			c-0.5,0.1-0.9,0.1-1.7,0.1c0.1-1.3,0.1-2,0.1-2.8c0-1.7,0-3.3-0.1-5c-1.3,2.8-2.8,5.2-4.4,6.7c-0.9,0.9-2.2,1.1-3.5,1.1
			c0.1-0.9,0.1-2.1,0.1-3.6c0-2.1-0.1-4.9-0.2-6.8c-0.1-1.7-0.5-2.8-1.1-3.6c1-0.6,2-0.9,2.8-0.9c1.5,0,1.7,1.1,1.8,3.6
			c0.1,1.4,0.1,3.4,0.1,5.5v1.3c3.1-3.8,3.9-6.7,3.9-8.8c0-0.3,0-0.5-0.1-0.7c0.9-0.4,1.7-0.5,2.3-0.5c1.4,0,1.5,1.8,1.5,5.2
			c0,1.6,0,3.7-0.1,5.9c2.2-2.9,4-7.1,4-9.5c0-0.7-0.2-1.8-0.9-2.5c0.3,0,0.8-0.1,1-0.1c2,0,3.1,0.5,3.1,2
			C177.1,196.8,172.2,207,168.4,207.9z M191.9,203c0.1,0,0.1,0.1,0.1,0.2c0,2-2.8,4.9-4.8,4.9c-1.5,0-2.4-0.9-2.4-2.8
			c0-0.7,0-1.6,0.1-2.2c-2,3.3-4,5-5.8,5.1h-0.3c-2.2,0-2.9-1.6-2.9-3.8c0.1-5.2,4.2-11.2,8.5-11.2c1,0,1.9,0.2,2.7,0.8
			c0.4-0.5,1-0.7,1.7-0.7c0.9,0,1.6,0.2,2.4,0.7c-1,1.5-2.7,8.2-2.7,10.3c0,0.5,0.2,0.9,0.3,1.1c0.3,0,0.8-0.4,1.3-0.9
			C191.1,203.4,191.6,203,191.9,203z M186.4,196.8c-0.3-1.1-1.3-1.6-2.2-1.6c-2.2,0-4.3,5.2-4.3,8.7c0,0.9,0.3,1.4,0.9,1.4
			s1.4-0.9,2.4-2.5C184.6,200.8,185.8,198.4,186.4,196.8z M202.4,193.2c0.9,0,1.1,0.5,1.1,1.3c0,1.2-0.8,2.6-1.9,3.8
			c-0.3-0.4-0.6-0.7-1-0.7c-2.2,0-3.8,4.2-5.7,8.9c-0.4,1-0.9,1.5-2.2,1.5c-0.5,0-1.2-0.1-2.1-0.2c2.1-5.3,3-10.2,3-12.1
			c0-0.7-0.1-1.3-0.3-1.8c1.2-0.5,2.1-0.8,2.8-0.8c0.9,0,1.4,0.5,1.4,1.4c0,1.1-0.4,2.7-0.9,4.5
			C198.8,195.5,200.7,193.2,202.4,193.2L202.4,193.2L202.4,193.2z M213.7,203.7c0.4,0.7,0.3,1.5-0.1,2.1c-0.5,0.6-1.1,1.1-2,1.5
			c-1.3,0.6-2.8,0.9-4.3,0.9c-3.2,0-5-1.4-5.1-4.2c-0.1-2.8,0.9-5.5,2.7-7.6c1.8-2.2,4.1-3.3,6.6-3.3c2.3,0,3.4,1,3.3,2.8
			c0,1.9-2.4,4.2-6,5.5c-0.9,0.3-2.6,1.1-2.7,1.8c0,0.7,0,1.2,0.3,1.6c0.6,0.9,1.6,1.4,2.6,1.2C210.8,205.9,212.3,205,213.7,203.7z
			 M206.3,201.4c0.5-1,1.3-1.4,2.3-1.9c1.7-0.9,2.2-1.9,2.5-2.8c0.3-0.9,0-1.8-1-1.8c-1.5,0-2.7,1.9-3.5,5.2
			C206.6,200.2,206.5,200.6,206.3,201.4z"/>
		<path id="SoftSwiss_2_" d="M31.5,168.6l0,1c0,1.2,0.3,2.2,0.8,3.2c0.5,0.9,1.4,1.7,2.7,2.2c1.2,0.5,2.7,0.8,4.4,0.8
			c2.4,0,4.3-0.5,5.6-1.6c1.3-1,1.9-2.3,1.9-3.7c0-0.9-0.3-1.8-1-2.6c-0.7-0.8-2.6-1.8-5.7-3.1c-2.4-1-4-1.8-4.9-2.4
			c-1.4-0.9-2.4-1.9-3-2.9c-0.7-1-0.9-2.3-0.9-3.6c0-1.6,0.4-2.9,1.3-4.2c0.9-1.2,2.1-2.2,3.8-2.9c1.7-0.7,3.5-1,5.6-1
			c2.5,0,4.6,0.4,6.3,1.2c1.7,0.8,2.9,1.9,3.7,3.3c0.8,1.4,1.1,2.7,1.1,3.9c0,0.1,0,0.3,0,0.6l-3.9,0.3c0-0.9-0.1-1.5-0.2-2
			c-0.3-0.9-0.7-1.6-1.3-2.1c-0.6-0.6-1.4-1-2.4-1.4c-1-0.3-2.1-0.5-3.4-0.5c-2.2,0-3.9,0.5-5.2,1.5c-0.9,0.8-1.4,1.8-1.4,3
			c0,0.8,0.2,1.4,0.6,2c0.4,0.6,1.1,1.1,2.1,1.7c0.7,0.4,2.4,1.2,5.1,2.4c2.2,0.9,3.7,1.7,4.5,2.3c1.1,0.7,1.9,1.6,2.6,2.7
			c0.6,1,0.9,2.2,0.9,3.6c0,1.7-0.5,3.1-1.5,4.6c-1,1.4-2.4,2.5-4.1,3.2c-1.8,0.8-3.8,1.1-6.1,1.1c-3.4,0-6.2-0.8-8.4-2.2
			c-2.2-1.5-3.3-4.2-3.3-8.1L31.5,168.6z M60.2,159.8c2.1-2.3,4.8-3.5,8.2-3.5c2.7,0,4.8,0.8,6.4,2.5s2.4,3.9,2.4,6.7
			c0,2.5-0.5,4.9-1.5,7c-1,2.2-2.5,3.8-4.4,5c-1.9,1.1-3.8,1.8-5.9,1.8c-1.7,0-3.3-0.4-4.7-1.1c-1.4-0.7-2.5-1.8-3.2-3.1
			c-0.8-1.3-1.1-2.9-1.1-4.7C56.4,166.1,57.7,162.6,60.2,159.8z M61.6,174.8c1,1.1,2.3,1.6,3.8,1.6c0.8,0,1.6-0.1,2.4-0.5
			c0.8-0.3,1.5-0.8,2.2-1.5c0.7-0.7,1.2-1.4,1.7-2.3s0.9-1.8,1.1-2.8c0.4-1.4,0.7-2.7,0.7-3.9c0-2-0.5-3.5-1.5-4.6
			c-1-1.1-2.3-1.7-3.8-1.7c-1.2,0-2.2,0.3-3.2,0.9c-0.9,0.6-1.9,1.4-2.6,2.5s-1.3,2.3-1.7,3.8c-0.4,1.4-0.6,2.7-0.6,3.8
			C60.2,172.1,60.7,173.7,61.6,174.8z M85.3,159.7H82l0.6-2.9h3.4l0.7-3.1c0.3-1.6,0.7-2.7,1-3.4c0.3-0.7,0.9-1.3,1.7-1.7
			c0.8-0.4,1.9-0.7,3.2-0.7c0.9,0,2.3,0.2,4.1,0.6l-0.7,3.3c-1.3-0.3-2.3-0.5-3.2-0.5c-0.7,0-1.3,0.2-1.7,0.6
			c-0.4,0.4-0.7,1.2-1,2.6l-0.5,2.4h4.2l-0.6,2.9h-4.2l-4,19.1h-3.8L85.3,159.7z M102.2,178.8c-0.9,0.2-1.8,0.3-2.6,0.3
			c-1.5,0-2.7-0.4-3.6-1.1c-0.7-0.6-1-1.3-1-2.3c0-0.5,0.2-1.6,0.5-3.3l2.7-12.8h-2.9l0.6-2.9h2.9l1.1-5.4l4.3-2.6l-1.7,8h3.7
			l-0.6,2.9H102l-2.6,12.2c-0.3,1.6-0.5,2.5-0.5,2.8c0,0.4,0.1,0.8,0.4,1c0.2,0.2,0.7,0.3,1.2,0.3c0.8,0,1.6-0.1,2.2-0.2
			L102.2,178.8z M114.6,168.6l0,1c0,1.2,0.3,2.2,0.8,3.2c0.5,0.9,1.4,1.7,2.7,2.2s2.7,0.8,4.4,0.8c2.4,0,4.3-0.5,5.6-1.6
			c1.3-1,1.9-2.3,1.9-3.7c0-0.9-0.3-1.8-1-2.6c-0.7-0.8-2.6-1.8-5.7-3.1c-2.4-1-4-1.8-4.9-2.4c-1.4-0.9-2.4-1.9-3-2.9
			c-0.7-1-0.9-2.3-0.9-3.6c0-1.6,0.4-2.9,1.3-4.2c0.9-1.2,2.1-2.2,3.8-2.9c1.7-0.7,3.5-1,5.6-1c2.5,0,4.6,0.4,6.3,1.2
			c1.7,0.8,2.9,1.9,3.7,3.3c0.8,1.4,1.1,2.7,1.1,3.9c0,0.1,0,0.3,0,0.6l-3.9,0.3c0-0.9-0.1-1.5-0.2-2c-0.3-0.9-0.7-1.6-1.3-2.1
			c-0.6-0.6-1.4-1-2.4-1.4c-1-0.3-2.1-0.5-3.4-0.5c-2.2,0-3.9,0.5-5.2,1.5c-0.9,0.8-1.4,1.8-1.4,3c0,0.8,0.2,1.4,0.6,2
			c0.4,0.6,1.1,1.1,2.1,1.7c0.7,0.4,2.4,1.2,5.1,2.4c2.2,0.9,3.7,1.7,4.5,2.3c1.1,0.7,1.9,1.6,2.6,2.7c0.6,1,0.9,2.2,0.9,3.6
			c0,1.7-0.5,3.1-1.5,4.6c-1,1.4-2.4,2.5-4.1,3.2c-1.8,0.8-3.8,1.1-6.1,1.1c-3.4,0-6.2-0.8-8.4-2.2c-2.2-1.5-3.3-4.2-3.3-8.1
			L114.6,168.6z M138.2,156.8h3.6l1,9.9l0.4,5.6c0,0.4,0,1.2,0.1,2.5c0.4-1.4,0.8-2.5,1-3.2c0.3-0.8,0.8-1.8,1.4-3.2l5.2-11.4h4.1
			l0.7,11c0.1,1.7,0.2,3.9,0.2,6.7c0.7-1.9,1.8-4.4,3.4-7.7l4.7-10h3.8L157,178.7h-3.9l-0.8-12.9c0-0.8-0.1-2.4-0.1-4.7
			c-0.6,1.5-1.2,3.1-2,4.8l-5.8,12.8h-3.9L138.2,156.8z M170.3,156.8h3.8l-4.6,22h-3.8L170.3,156.8z M172,148.4h3.7l-0.9,4.2h-3.7
			L172,148.4z M178.3,171c0,1.1,0.1,2,0.5,2.8c0.3,0.8,0.9,1.4,1.9,1.9c0.9,0.5,1.9,0.7,3.1,0.7c1.7,0,2.9-0.3,3.7-1
			c0.8-0.7,1.2-1.4,1.2-2.3c0-0.7-0.2-1.3-0.8-1.9c-0.5-0.6-1.8-1.3-3.8-2.1c-2-0.9-3.2-1.4-3.8-1.8c-0.9-0.6-1.6-1.2-2.1-2
			c-0.5-0.8-0.7-1.7-0.7-2.7c0-1.8,0.7-3.2,2.1-4.5c1.4-1.2,3.3-1.9,5.8-1.9c2.8,0,4.8,0.6,6.3,1.9c1.4,1.3,2.2,2.9,2.2,5l-3.7,0.2
			c0-1.3-0.5-2.4-1.4-3.1c-0.9-0.8-2.1-1.1-3.8-1.1c-1.3,0-2.3,0.3-3,0.9c-0.7,0.6-1.1,1.2-1.1,1.9s0.3,1.3,0.9,1.8
			c0.4,0.4,1.5,0.9,3.2,1.7c2.8,1.2,4.7,2.2,5.4,2.9c1.2,1.1,1.8,2.5,1.8,4.2c0,1.1-0.3,2.1-1,3.2c-0.7,1-1.7,1.9-3,2.5
			c-1.4,0.6-3,0.9-4.8,0.9c-2.5,0-4.7-0.6-6.5-1.9c-1.8-1.2-2.6-3.3-2.5-6.1L178.3,171z M198.4,171c0,1.1,0.1,2,0.5,2.8
			c0.3,0.8,0.9,1.4,1.9,1.9c0.9,0.5,1.9,0.7,3.1,0.7c1.7,0,2.9-0.3,3.7-1c0.8-0.7,1.2-1.4,1.2-2.3c0-0.7-0.2-1.3-0.8-1.9
			c-0.5-0.6-1.8-1.3-3.8-2.1c-2-0.9-3.2-1.4-3.8-1.8c-0.9-0.6-1.6-1.2-2.1-2c-0.5-0.8-0.7-1.7-0.7-2.7c0-1.8,0.7-3.2,2.1-4.5
			c1.4-1.2,3.3-1.9,5.8-1.9c2.8,0,4.8,0.6,6.3,1.9c1.4,1.3,2.2,2.9,2.2,5l-3.7,0.2c0-1.3-0.5-2.4-1.4-3.1c-0.9-0.8-2.1-1.1-3.8-1.1
			c-1.3,0-2.3,0.3-3,0.9c-0.7,0.6-1.1,1.2-1.1,1.9s0.3,1.3,0.9,1.8c0.4,0.4,1.5,0.9,3.2,1.7c2.8,1.2,4.7,2.2,5.4,2.9
			c1.2,1.1,1.8,2.5,1.8,4.2c0,1.1-0.3,2.1-1,3.2c-0.7,1-1.7,1.9-3,2.5c-1.4,0.6-3,0.9-4.8,0.9c-2.5,0-4.7-0.6-6.5-1.9
			c-1.8-1.2-2.6-3.3-2.5-6.1L198.4,171z"/>
	</g>
	<g id="logo_2_">
		<g id="swiss_1_">
			
				<linearGradient id="XMLID_28_" gradientUnits="userSpaceOnUse" x1="355.6462" y1="45.4956" x2="699.7883" y2="45.4956" gradientTransform="matrix(0.3 0 0 -0.3 -7.629395e-006 93)">
				<stop  offset="0" style="stop-color:#F4F4F4"/>
				<stop  offset="1" style="stop-color:#E2DDE0"/>
			</linearGradient>
			<circle id="XMLID_146_" fill="url(#XMLID_28_)" cx="158.3" cy="79.4" r="51.6"/>
			<g>
				<path fill="#BA2A26" d="M158.5,48.3c-17.4,0-31.5,14.1-31.5,31.5s14.1,31.5,31.5,31.5S190,97.3,190,79.9S175.9,48.3,158.5,48.3z
					 M168,88.6v15.6h-18.2V88.6h-15.6V70.4h15.6V54.8H168v15.6h15.6v18.2C183.5,88.6,168,88.6,168,88.6z M115.8,72.2
					c1.1-6.2,3.5-11.9,6.9-16.9l6.5,6.5c-1.9,3.1-3.4,6.6-4.2,10.4H115.8z M150.6,123c-6.2-1.2-11.9-3.7-16.9-7.2l6.7-6.7
					c3.1,1.9,6.5,3.3,10.2,4.2V123z M122.7,104.7c-3.4-5-5.8-10.7-6.9-16.9h9.3c0.9,3.7,2.3,7.1,4.3,10.2L122.7,104.7z M176.7,50.7
					c-3.1-2-6.6-3.5-10.4-4.3v-9.5c6.3,1.1,12.2,3.5,17.2,7L176.7,50.7z M194.7,54.9c3.6,5.1,6.1,10.9,7.2,17.3H192
					c-0.9-3.7-2.3-7.2-4.2-10.4L194.7,54.9z M201.9,87.9c-1.1,6.4-3.7,12.2-7.2,17.3l-7.1-7.1c1.9-3.1,3.4-6.6,4.3-10.2
					C191.9,87.9,201.9,87.9,201.9,87.9z M183.5,116.2c-5.1,3.5-10.9,5.9-17.2,7v-9.8c3.7-0.9,7.1-2.3,10.2-4.2L183.5,116.2z
					 M150.6,46.4c-3.7,0.9-7.2,2.3-10.4,4.3l-6.6-6.6c5-3.5,10.7-6,16.9-7.2C150.6,37,150.6,46.4,150.6,46.4z M119.8,54.7l-2.6-1
					c3.8-5.9,8.6-10.9,14.3-14.7l1.1,2.7C127.5,45.2,123.2,49.6,119.8,54.7z M133.1,119l-0.9,2.4c-6-3.8-10.9-8.8-14.6-14.6l2.3-1
					C123.3,111.1,127.8,115.6,133.1,119z M112.1,80.3c0,3.2,0.3,6.3,0.9,9.3l-2.4,1c-1.5-6.6-1.5-13.6-0.1-20.5l2.4,1
					C112.4,74,112.1,77.1,112.1,80.3z M183.5,41.3l1.3-3.1c6.1,3.8,11.2,8.8,15,14.5l-3.2,1.3C193.2,49,188.7,44.6,183.5,41.3z
					 M204.8,80.3c0-3.4-0.4-6.8-1.1-10l3.1-1.3c1.6,6.8,1.7,14,0.2,21.1l-3.1-1.2C204.5,86,204.8,83.2,204.8,80.3z M197.5,105.2
					l2.9,1.2c-3.9,6.1-9,11.2-14.8,15l-1.2-2.8C189.7,115.1,194.1,110.5,197.5,105.2z M158.5,126.6c3.4,0,6.6-0.4,9.8-1l1.1,2.6
					c-6.7,1.5-13.9,1.6-20.9,0l1-2.5C152.4,126.3,155.4,126.6,158.5,126.6z M158.5,33.9c-3.3,0-6.5,0.3-9.5,1l-1.2-2.8
					c6.6-1.6,13.7-1.7,20.7-0.3l-1.2,3C164.3,34.2,161.4,33.9,158.5,33.9z"/>
			</g>
		</g>
		<g id="bitcoin_1_">
			<g>
				
					<linearGradient id="XMLID_29_" gradientUnits="userSpaceOnUse" x1="358.2725" y1="-110.5123" x2="186.1727" y2="187.5732" gradientTransform="matrix(0.3 0 0 -0.3 -7.629395e-006 93)">
					<stop  offset="0" style="stop-color:#FCEA75"/>
					<stop  offset="0.5596" style="stop-color:#DFAC26"/>
					<stop  offset="1" style="stop-color:#FCEA75"/>
				</linearGradient>
				<circle id="XMLID_96_" fill="url(#XMLID_29_)" cx="81.7" cy="81.4" r="51.6"/>
				<path fill="#C6AB43" d="M81.7,133.3c-28.6,0-51.9-23.3-51.9-51.9s23.3-51.9,51.9-51.9s51.9,23.3,51.9,51.9
					S110.3,133.3,81.7,133.3z M81.7,30.1c-28.3,0-51.4,23-51.4,51.4c0,28.3,23,51.4,51.4,51.4s51.4-23,51.4-51.4
					C133,53.1,110,30.1,81.7,30.1z"/>
			</g>
			<path id="XMLID_95_" fill="#FCF2C1" d="M124.1,52.1c-3.7-5.3-8.2-9.8-13.5-13.4l-19,19V30.8c-3.2-0.6-6.6-0.9-10-0.9
				c-3.1,0-6.1,0.3-9,0.8v27.1L53.3,38.4c-5.3,3.5-10,8-13.7,13.2l19.6,19.6H31.1c-0.7,3.3-1,6.7-1,10.3c0,3,0.3,5.9,0.8,8.7h28.4
				l-20.2,20.2c3.6,5.3,8.2,9.9,13.4,13.5l20.3-20.3v28.6c2.9,0.5,5.9,0.8,9,0.8c3.4,0,6.7-0.3,10-0.9v-28.4l19.9,19.9
				c5.2-3.7,9.7-8.4,13.2-13.7L105,90.2h27.4c0.5-2.8,0.8-5.8,0.8-8.7c0-3.5-0.3-6.9-1-10.3H105L124.1,52.1z"/>
			<g>
				
					<linearGradient id="XMLID_30_" gradientUnits="userSpaceOnUse" x1="354.71" y1="-103.4147" x2="192.268" y2="177.9429" gradientTransform="matrix(0.3 0 0 -0.3 -7.629395e-006 93)">
					<stop  offset="0" style="stop-color:#FCEA75"/>
					<stop  offset="0.5596" style="stop-color:#DFAC26"/>
					<stop  offset="1" style="stop-color:#FCEA75"/>
				</linearGradient>
				<circle id="XMLID_103_" fill="url(#XMLID_30_)" cx="82" cy="81.8" r="48.7"/>
				
					<linearGradient id="SVGID_1_" gradientUnits="userSpaceOnUse" x1="355.0103" y1="178.5955" x2="191.8431" y2="-104.0186" gradientTransform="matrix(0.3 0 0 -0.3 -7.629395e-006 93)">
					<stop  offset="0" style="stop-color:#FCEA75"/>
					<stop  offset="0.5596" style="stop-color:#DFAC26"/>
					<stop  offset="1" style="stop-color:#DFAC26"/>
				</linearGradient>
				<path fill="url(#SVGID_1_)" d="M82,130.8c-27,0-49-22-49-49s21.9-49,49-49s48.9,22,48.9,49S109,130.8,82,130.8z M82,33.3
					c-26.7,0-48.5,21.8-48.5,48.5s21.8,48.5,48.5,48.5s48.4-21.8,48.4-48.5S108.7,33.3,82,33.3z"/>
			</g>
			<g id="XMLID_97_">
				<path id="XMLID_98_" fill="none" d="M104.5,35.1L31.8,94.8c0.1,0.4,0.2,0.8,0.3,1.2l73.4-60.4C105.2,35.5,104.8,35.3,104.5,35.1
					z"/>
				<path id="XMLID_99_" fill="none" d="M81.7,29.8C53.2,29.8,30,52.9,30,81.4c0,3.2,0.3,6.3,0.9,9.4l69.8-57.3
					C94.8,31.1,88.4,29.8,81.7,29.8z"/>
				<path id="XMLID_100_" fill="none" d="M112.6,40.1l-77.5,63.6c8.3,17.3,26,29.3,46.5,29.3c28.5,0,51.6-23.1,51.6-51.6
					C133.2,64.5,125.1,49.5,112.6,40.1z"/>
				<path id="XMLID_101_" opacity="0.6" fill="#F8DF0B" enable-background="new    " d="M105.6,35.7L32.2,96.1
					c0.8,2.7,1.8,5.2,2.9,7.7l77.5-63.6C110.4,38.5,108,37,105.6,35.7z"/>
				<path id="XMLID_102_" opacity="0.6" fill="#F8DF0B" enable-background="new    " d="M100.7,33.5L30.9,90.8
					c0.2,1.4,0.6,2.7,0.9,4l72.7-59.7C103.2,34.5,102,34,100.7,33.5z"/>
			</g>
			<g>
				<g>
					
						<linearGradient id="XMLID_31_" gradientUnits="userSpaceOnUse" x1="329.8528" y1="-60.361" x2="217.1252" y2="134.8891" gradientTransform="matrix(0.3 0 0 -0.3 -7.629395e-006 93)">
						<stop  offset="0" style="stop-color:#B7B7B8"/>
						<stop  offset="0.5" style="stop-color:#656769"/>
						<stop  offset="1" style="stop-color:#BBBABC"/>
					</linearGradient>
					<circle id="XMLID_304_" fill="url(#XMLID_31_)" cx="82" cy="81.8" r="33.8"/>
					<path fill="#656769" d="M82,115.7c-18.7,0-33.9-15.2-33.9-33.9S63.3,47.9,82,47.9S116,63.1,116,81.8S100.7,115.7,82,115.7z
						 M82,48.2c-18.6,0-33.7,15.1-33.7,33.7s15.1,33.7,33.7,33.7s33.7-15.1,33.7-33.7S100.6,48.2,82,48.2z"/>
				</g>
			</g>
			<path id="XMLID_104_" fill="#BA2A26" d="M58.1,116.4l1,0.5c-0.1,0.4-0.2,0.7-0.1,0.9c0.1,0.3,0.3,0.5,0.6,0.7
				c0.3,0.2,0.6,0.3,0.9,0.2c0.2,0,0.4-0.1,0.6-0.3c0.1-0.1,0.1-0.2,0.1-0.4s-0.1-0.3-0.2-0.4c-0.1-0.1-0.3-0.4-0.7-0.7
				c-0.5-0.5-0.8-0.9-0.9-1.2c-0.1-0.5-0.1-0.9,0.1-1.3c0.1-0.2,0.4-0.5,0.7-0.6c0.3-0.1,0.6-0.2,0.9-0.1c0.3,0,0.7,0.2,1.1,0.4
				c0.6,0.4,1,0.8,1.2,1.3s0.1,0.9-0.2,1.4l-1-0.6c0.1-0.3,0.1-0.5,0-0.8c-0.1-0.2-0.2-0.4-0.6-0.6c-0.3-0.2-0.6-0.3-0.8-0.2
				c-0.1,0-0.3,0.1-0.4,0.2c-0.1,0.1-0.1,0.2,0,0.4c0,0.2,0.3,0.5,0.8,0.9c0.4,0.4,0.7,0.8,0.9,1c0.1,0.3,0.2,0.6,0.2,0.9
				c0,0.3-0.1,0.6-0.3,0.9c-0.2,0.3-0.4,0.5-0.8,0.7c-0.3,0.1-0.7,0.2-1,0.1c-0.4,0-0.8-0.2-1.2-0.5c-0.7-0.4-1-0.9-1.2-1.4
				C57.7,117.6,57.8,117,58.1,116.4z M63.5,118.5c0.2-0.6,0.5-1,0.9-1.3c0.2-0.2,0.5-0.4,0.9-0.5c0.3-0.1,0.6-0.2,0.9-0.2
				c0.4,0,0.9,0.1,1.3,0.3c0.8,0.3,1.4,0.9,1.6,1.6c0.3,0.7,0.2,1.5-0.1,2.4c-0.4,0.9-0.9,1.5-1.6,1.8c-0.7,0.3-1.4,0.3-2.3,0
				c-0.8-0.3-1.4-0.9-1.7-1.6C63.1,120.2,63.1,119.4,63.5,118.5z M64.7,119c-0.3,0.6-0.3,1.1-0.1,1.6c0.1,0.4,0.5,0.8,0.9,0.9
				c0.4,0.2,0.9,0.2,1.3,0c0.4-0.2,0.8-0.6,1-1.3c0.3-0.6,0.3-1.1,0.2-1.6c-0.1-0.4-0.4-0.8-0.9-0.9c-0.5-0.2-0.9-0.2-1.3,0
				C65.3,117.9,64.9,118.3,64.7,119z M69.1,123.9l1.5-5.8l4,1l-0.2,1l-2.8-0.7l-0.3,1.4l2.4,0.6l-0.2,1l-2.4-0.6l-0.6,2.5
				L69.1,123.9z M75.9,125.4l0.6-4.9l-1.8-0.2l0.1-1l4.7,0.6l-0.1,1l-1.8-0.2l-0.6,4.9L75.9,125.4z M79.8,123.8l1.2-0.1
				c0.1,0.4,0.2,0.7,0.4,0.9c0.2,0.2,0.5,0.3,0.9,0.3c0.4,0,0.7-0.1,0.9-0.2c0.2-0.2,0.3-0.4,0.3-0.6c0-0.1,0-0.2-0.1-0.4
				c-0.1-0.1-0.2-0.2-0.4-0.2c-0.1,0-0.5-0.1-0.9-0.2c-0.7-0.1-1.1-0.3-1.4-0.6c-0.4-0.3-0.6-0.7-0.6-1.2c0-0.3,0.1-0.6,0.2-0.9
				c0.2-0.3,0.4-0.5,0.8-0.6c0.3-0.1,0.7-0.2,1.2-0.2c0.8,0,1.3,0.1,1.7,0.5c0.4,0.3,0.6,0.8,0.6,1.3l-1.2,0.1
				c0-0.3-0.2-0.5-0.3-0.7c-0.2-0.1-0.4-0.2-0.8-0.2c-0.3,0-0.6,0.1-0.8,0.2c-0.1,0.1-0.2,0.2-0.2,0.4c0,0.1,0,0.3,0.2,0.4
				c0.1,0.1,0.5,0.2,1.1,0.4c0.6,0.1,1,0.3,1.3,0.4c0.3,0.1,0.5,0.3,0.7,0.6c0.1,0.3,0.2,0.6,0.2,0.9c0,0.3-0.1,0.7-0.3,0.9
				c-0.2,0.3-0.4,0.5-0.8,0.7c-0.3,0.1-0.8,0.2-1.3,0.2c-0.8,0-1.3-0.1-1.8-0.5C80.1,125,79.9,124.5,79.8,123.8z M87.1,125.6
				l-2.4-5.7l1.2-0.2l1.6,3.9l0.4-4.2l1.4-0.2l1.8,3.9l0.2-4.3l1.2-0.2l-0.4,6.1l-1.3,0.2l-1.9-4.2l-0.4,4.6L87.1,125.6z M94.4,124
				l-1.8-5.7l1.1-0.3l1.8,5.7L94.4,124z M96,121.5l1-0.6c0.2,0.3,0.5,0.6,0.7,0.6c0.3,0.1,0.6,0,0.9-0.1c0.4-0.1,0.6-0.3,0.7-0.6
				s0.1-0.4,0-0.7c0-0.1-0.1-0.2-0.2-0.3s-0.3-0.1-0.5,0c-0.1,0-0.5,0-1,0.1c-0.7,0.1-1.1,0.1-1.5,0c-0.5-0.1-0.8-0.5-1-0.9
				c-0.1-0.3-0.1-0.6-0.1-0.9c0-0.3,0.2-0.6,0.5-0.9c0.2-0.2,0.6-0.5,1-0.7c0.7-0.3,1.3-0.4,1.8-0.2c0.5,0.1,0.9,0.5,1,1l-1.1,0.5
				c-0.2-0.3-0.3-0.4-0.6-0.5c-0.2,0-0.5,0-0.8,0.1c-0.3,0.1-0.6,0.3-0.7,0.5c-0.1,0.1-0.1,0.3,0,0.4s0.1,0.2,0.3,0.3
				c0.2,0,0.6,0,1.2,0c0.6-0.1,1-0.1,1.4-0.1c0.3,0,0.6,0.1,0.9,0.3c0.2,0.2,0.4,0.4,0.6,0.8c0.1,0.3,0.2,0.7,0.1,1
				c0,0.3-0.2,0.7-0.5,0.9c-0.3,0.3-0.6,0.5-1.1,0.7c-0.7,0.3-1.3,0.4-1.8,0.2C96.8,122.5,96.3,122.1,96,121.5z M101.3,119.2
				l0.9-0.7c0.3,0.3,0.5,0.5,0.8,0.5s0.6,0,0.9-0.2c0.3-0.2,0.5-0.4,0.6-0.7c0.1-0.2,0.1-0.5,0-0.7c-0.1-0.1-0.2-0.2-0.3-0.2
				c-0.1,0-0.3,0-0.5,0c-0.1,0-0.5,0.1-0.9,0.3c-0.6,0.2-1.1,0.2-1.5,0.2c-0.5-0.1-0.9-0.3-1.1-0.8c-0.1-0.3-0.2-0.6-0.2-0.9
				c0-0.3,0.1-0.6,0.3-0.9c0.2-0.3,0.5-0.5,0.9-0.8c0.7-0.4,1.2-0.5,1.7-0.4s0.9,0.4,1.2,0.8l-1,0.7c-0.2-0.2-0.4-0.4-0.6-0.4
				c-0.2,0-0.5,0-0.8,0.2s-0.5,0.4-0.6,0.6c0,0.1,0,0.3,0,0.4s0.2,0.2,0.3,0.2c0.2,0,0.6,0,1.1-0.2c0.6-0.2,1-0.3,1.3-0.3
				c0.3,0,0.6,0,0.9,0.2c0.3,0.1,0.5,0.4,0.7,0.7c0.2,0.3,0.2,0.6,0.2,1c0,0.3-0.1,0.7-0.3,1c-0.2,0.3-0.6,0.6-1,0.9
				c-0.7,0.4-1.2,0.5-1.8,0.4C102.2,120,101.8,119.8,101.3,119.2z"/>
			<g>
				<g opacity="0.25">
					<path fill="#010101" d="M119.2,104l-1.6,2.2l0.9,2.6l-2.6-0.9l-2.2,1.7v-2.8l-2.3-1.6l2.7-0.9l0.8-2.7l1.6,2.2L119.2,104z
						 M50.5,104l-0.6-2.7l-1.8,2.1l-2.8-0.3l1.5,2.4l-1.1,2.5l2.7-0.7l2.1,1.9l0.2-2.8l2.4-1.4L50.5,104z"/>
				</g>
				<g>
					<path fill="#F7C616" d="M119.2,104l-1.6,2.2l0.9,2.6l-2.6-0.9l-2.2,1.7v-2.8l-2.3-1.6l2.7-0.9l0.8-2.7l1.6,2.2L119.2,104z
						 M50.5,103.9l-0.6-2.7l-1.8,2.1l-2.8-0.3l1.5,2.4l-1.1,2.5l2.7-0.7l2.1,1.9l0.2-2.8l2.4-1.4L50.5,103.9z"/>
				</g>
			</g>
			<g id="XMLID_129_">
				<path fill="#272626" d="M38.9,80.4l0.2-2.4c0-0.5,0.1-0.8,0.1-1s0.1-0.4,0.3-0.6c0.1-0.2,0.3-0.3,0.5-0.4
					c0.2-0.1,0.5-0.1,0.7-0.1c0.3,0,0.5,0.1,0.8,0.3c0.2,0.2,0.4,0.4,0.5,0.7c0.1-0.3,0.3-0.6,0.6-0.8c0.3-0.2,0.6-0.2,0.9-0.2
					c0.3,0,0.5,0.1,0.8,0.2s0.4,0.3,0.6,0.6c0.1,0.2,0.2,0.5,0.2,0.9c0,0.2,0,0.7-0.1,1.5l-0.2,2L38.9,80.4z M40,79.4l1.4,0.1l0-0.8
					c0-0.5,0-0.8,0-0.9c0-0.2,0-0.4-0.2-0.5c-0.1-0.1-0.2-0.2-0.4-0.2c-0.2,0-0.3,0-0.5,0.1c-0.1,0.1-0.2,0.2-0.2,0.4
					c0,0.1,0,0.5-0.1,1L40,79.4z M42.3,79.5l1.6,0.1l0.1-1.1c0-0.4,0-0.7,0-0.8c0-0.2-0.1-0.3-0.2-0.5s-0.3-0.2-0.5-0.2
					s-0.3,0-0.5,0.1c-0.1,0.1-0.2,0.2-0.3,0.3s-0.1,0.5-0.2,1L42.3,79.5z M45.5,75.1l-5.9-1.2l0.2-1.2l5.9,1.2L45.5,75.1z
					 M46.4,71.6l-4.7-1.5l-0.5,1.7l-0.9-0.3l1.4-4.6l0.9,0.3L42,69l4.7,1.5L46.4,71.6z M47.1,63.7l0.9-0.9c0.5,0.4,0.8,0.9,0.9,1.4
					c0.1,0.5,0,1-0.2,1.7c-0.3,0.7-0.9,1.2-1.6,1.4c-0.7,0.2-1.5,0.1-2.3-0.3c-0.9-0.4-1.5-1-1.8-1.7c-0.3-0.7-0.2-1.4,0.1-2.2
					c0.3-0.7,0.8-1.1,1.3-1.3c0.3-0.1,0.8-0.1,1.2-0.1l-0.2,1.2c-0.3,0-0.6,0-0.9,0.1c-0.2,0.1-0.5,0.3-0.6,0.6
					c-0.2,0.4-0.2,0.8,0,1.2c0.2,0.4,0.6,0.7,1.2,1c0.7,0.3,1.2,0.4,1.6,0.3c0.4-0.1,0.7-0.4,0.9-0.8c0.1-0.3,0.1-0.6,0.1-0.9
					C47.7,64.2,47.5,64,47.1,63.7z M47.5,61.3c-0.5-0.3-0.9-0.7-1.1-1.1c-0.2-0.3-0.3-0.6-0.3-0.9c0-0.3,0-0.7,0-0.9
					c0.1-0.4,0.3-0.8,0.5-1.2c0.5-0.7,1.1-1.1,1.9-1.3s1.5,0.1,2.3,0.7c0.8,0.6,1.3,1.2,1.4,1.9s0,1.5-0.5,2.2
					c-0.5,0.7-1.1,1.1-1.9,1.3S48.3,61.8,47.5,61.3z M48.2,60.2c0.6,0.4,1,0.6,1.5,0.5c0.5,0,0.9-0.3,1.1-0.7
					c0.3-0.4,0.4-0.8,0.2-1.3c-0.1-0.5-0.4-0.9-1-1.3c-0.6-0.4-1-0.6-1.5-0.5c-0.4,0-0.8,0.3-1.1,0.7c-0.3,0.4-0.4,0.9-0.3,1.3
					C47.3,59.4,47.6,59.8,48.2,60.2z M53.9,57.6l-4.5-4l0.8-0.9l4.5,4L53.9,57.6z M55.4,55.9l-4-4.4l0.9-0.8l4.5,1.3l-2.7-2.9
					l0.9-0.8l4,4.4l-0.9,0.8l-4.4-1.3l2.6,2.9L55.4,55.9z M64,46.9l1.2-0.2c0.1,0.7,0.1,1.2,0,1.7c-0.2,0.5-0.6,0.9-1.1,1.2
					c-0.7,0.4-1.4,0.5-2.1,0.2c-0.7-0.2-1.3-0.8-1.8-1.6c-0.5-0.9-0.7-1.7-0.5-2.4c0.2-0.7,0.6-1.3,1.4-1.7c0.6-0.4,1.3-0.5,1.9-0.3
					c0.4,0.1,0.7,0.3,1.1,0.7l-0.9,0.9c-0.2-0.2-0.5-0.4-0.8-0.4c-0.3,0-0.6,0-0.9,0.2c-0.4,0.2-0.6,0.5-0.7,0.9
					c-0.1,0.4,0,0.9,0.4,1.6c0.4,0.7,0.8,1,1.1,1.2c0.4,0.1,0.8,0.1,1.1-0.1c0.3-0.1,0.5-0.4,0.6-0.7C64.1,47.7,64.1,47.3,64,46.9z
					 M72,46l-1.2,0.5l-0.9-1.1l-2.2,0.8v1.4L66.4,48l0.1-6.4l1.2-0.4L72,46z M69,44.5l-1.5-1.8v2.4L69,44.5z M71.8,44.1l1.1-0.3
					c0.1,0.4,0.3,0.6,0.6,0.8c0.2,0.1,0.6,0.2,0.9,0.1c0.4-0.1,0.7-0.2,0.8-0.4c0.1-0.2,0.2-0.4,0.2-0.6c0-0.1-0.1-0.2-0.2-0.3
					c-0.1-0.1-0.2-0.1-0.5-0.2c-0.1,0-0.5,0-1,0c-0.7,0-1.1-0.1-1.5-0.3c-0.4-0.2-0.7-0.6-0.8-1.1c0-0.3,0-0.6,0.1-0.9
					c0.1-0.3,0.3-0.5,0.6-0.8c0.3-0.2,0.7-0.3,1.1-0.4c0.7-0.1,1.3-0.1,1.8,0.1c0.4,0.2,0.7,0.6,0.9,1.2l-1.2,0.3
					c-0.1-0.3-0.3-0.5-0.5-0.6c-0.2-0.1-0.5-0.1-0.8,0c-0.3,0-0.6,0.2-0.8,0.4c-0.1,0.1-0.1,0.2-0.1,0.4c0,0.1,0.1,0.2,0.2,0.3
					c0.2,0.1,0.6,0.1,1.2,0.2c0.6,0,1,0.1,1.4,0.1c0.3,0.1,0.6,0.2,0.8,0.5c0.2,0.2,0.3,0.5,0.4,0.9c0,0.3,0,0.7-0.1,1
					c-0.1,0.3-0.3,0.6-0.7,0.8c-0.3,0.2-0.7,0.4-1.2,0.5c-0.8,0.1-1.3,0.1-1.8-0.2C72.4,45.2,72,44.7,71.8,44.1z M77.9,45L77.3,39
					l1.2-0.1l0.6,5.9L77.9,45z M80.2,44.7l0.1-6h1.2l2.4,4l0-4H85l-0.1,6h-1.2l-2.3-3.9l0,3.9H80.2z M86.4,41.9
					c0.1-0.6,0.3-1.1,0.5-1.5c0.2-0.3,0.4-0.5,0.7-0.7c0.3-0.2,0.6-0.3,0.9-0.4c0.4-0.1,0.9-0.1,1.3,0c0.9,0.1,1.5,0.6,1.9,1.2
					c0.4,0.6,0.6,1.4,0.4,2.4c-0.2,0.9-0.6,1.7-1.2,2.1c-0.6,0.4-1.3,0.6-2.2,0.4c-0.9-0.1-1.5-0.6-1.9-1.2
					C86.3,43.6,86.2,42.8,86.4,41.9z M87.6,42.1c-0.1,0.7,0,1.2,0.2,1.6c0.2,0.4,0.6,0.7,1.1,0.7c0.5,0.1,0.9,0,1.3-0.3
					c0.4-0.3,0.6-0.8,0.7-1.5c0.1-0.7,0-1.2-0.2-1.6c-0.2-0.4-0.6-0.6-1.1-0.7s-0.9,0-1.3,0.3C88,40.9,87.7,41.4,87.6,42.1z
					 M95,44.9l1.1,0.3c-0.1,0.4,0,0.7,0,0.9c0.1,0.2,0.4,0.5,0.7,0.6c0.4,0.1,0.7,0.2,0.9,0.1s0.4-0.2,0.5-0.4c0-0.1,0-0.2,0-0.4
					c0-0.1-0.1-0.2-0.3-0.4c-0.1-0.1-0.4-0.3-0.8-0.6c-0.5-0.4-0.9-0.8-1-1.1c-0.2-0.4-0.2-0.9,0-1.3c0.1-0.3,0.3-0.5,0.6-0.7
					c0.3-0.2,0.6-0.3,0.9-0.3c0.3,0,0.8,0.1,1.2,0.3c0.7,0.3,1.1,0.7,1.4,1.1c0.2,0.5,0.2,0.9,0,1.4l-1.1-0.4c0.1-0.3,0-0.6,0-0.8
					c-0.1-0.2-0.3-0.3-0.6-0.5c-0.3-0.1-0.6-0.2-0.9-0.1c-0.1,0-0.2,0.1-0.3,0.3c0,0.1,0,0.3,0,0.4c0.1,0.2,0.4,0.4,0.9,0.8
					c0.5,0.4,0.8,0.7,1,0.9c0.2,0.2,0.3,0.5,0.4,0.8c0,0.3,0,0.6-0.1,0.9s-0.3,0.6-0.6,0.8c-0.3,0.2-0.6,0.3-1,0.3
					c-0.4,0-0.8-0.1-1.3-0.3c-0.7-0.3-1.1-0.7-1.4-1.2C94.9,46.1,94.8,45.5,95,44.9z M100.9,46.3c0.3-0.5,0.7-0.9,1-1.1
					c0.3-0.2,0.6-0.3,0.9-0.4c0.3-0.1,0.7-0.1,0.9,0c0.4,0,0.8,0.2,1.2,0.5c0.8,0.5,1.2,1.1,1.4,1.8c0.1,0.8,0,1.5-0.5,2.4
					c-0.5,0.8-1.1,1.3-1.9,1.5c-0.7,0.2-1.5,0-2.2-0.4c-0.8-0.5-1.2-1.1-1.4-1.8C100.2,48,100.4,47.2,100.9,46.3z M101.9,47
					c-0.4,0.6-0.5,1.1-0.4,1.6c0.1,0.5,0.3,0.8,0.7,1.1c0.4,0.2,0.9,0.3,1.3,0.2c0.4-0.1,0.9-0.5,1.2-1.1c0.4-0.6,0.5-1.1,0.4-1.5
					c-0.1-0.4-0.3-0.8-0.8-1c-0.4-0.3-0.9-0.3-1.3-0.2C102.8,46.1,102.3,46.4,101.9,47z M104.8,52.5l3.9-4.5l3.1,2.7l-0.7,0.8
					l-2.2-1.9l-0.9,1.1l1.9,1.6l-0.7,0.8l-1.9-1.6l-1.7,1.9L104.8,52.5z M109.4,56.8l3.8-3.3l-1.2-1.3l0.8-0.7l3.1,3.6l-0.8,0.7
					l-1.2-1.3l-3.8,3.3L109.4,56.8z M112.3,60.3l4.3-4.4l0.7,1l-3,2.9l4.1-1.2l0.8,1.2l-3,3.1l4-1.4l0.6,1l-5.8,1.9l-0.7-1.1
					l3.2-3.4l-4.4,1.3L112.3,60.3z M117.6,70.9l-0.5-1.2l1-1l-0.9-2.2l-1.4,0l-0.5-1.2l6.4,0l0.5,1.2L117.6,70.9z M118.9,67.9
					l1.8-1.6l-2.4,0.1L118.9,67.9z M117.7,71.3l5.8-1.3l0.6,2.5c0.1,0.6,0.2,1.1,0.1,1.4c0,0.3-0.2,0.6-0.4,0.8
					c-0.2,0.2-0.5,0.4-0.9,0.5c-0.4,0.1-0.8,0-1.2-0.1c-0.3-0.2-0.6-0.5-0.8-1c-0.1,0.3-0.2,0.5-0.3,0.8c-0.1,0.2-0.4,0.5-0.8,0.9
					l-1,0.9l-0.3-1.4l1.1-1.1c0.4-0.4,0.6-0.7,0.7-0.8s0.1-0.3,0.1-0.4c0-0.1,0-0.3,0-0.6l0-0.2l-2.4,0.5L117.7,71.3z M121.3,71.8
					l0.2,0.9c0.1,0.6,0.2,0.9,0.3,1c0.1,0.1,0.2,0.2,0.3,0.3c0.1,0,0.3,0,0.5,0s0.3-0.1,0.4-0.3c0.1-0.1,0.1-0.3,0.1-0.5
					c0-0.1,0-0.4-0.2-0.9l-0.2-0.9L121.3,71.8z M118.9,77.1l6-0.4l0.3,4.4l-1,0l-0.2-3.2l-1.3,0.1l0.2,3l-1,0l-0.2-3l-1.6,0.1
					l0.2,3.3l-1,0L118.9,77.1z"/>
			</g>
			<g id="XMLID_185_">
				<path fill="#7C5F26" d="M101.3,85.1c-1.4-1.7-3.5-2.9-6.2-3.6c1.9-0.8,3.4-1.9,4.5-3.5c1.1-1.6,1.7-3.3,1.7-5.1
					c0-1.7-0.4-3.3-1.3-4.7c-0.9-1.4-2-2.5-3.4-3.3c-1.3-0.9-2.8-1.4-4.6-1.7c-0.8-0.1-1.8-0.2-2.9-0.3v-6.1h-6.7v6h-3.3v-6h-6.7v6
					h-5.7v39.9h5.7v6h6.7v-6h2.5c0.2,0,0.5,0,0.8,0v6h6.7v-6.1c1.5,0,2.6-0.1,3.2-0.1c2.4-0.2,4.3-0.9,5.9-1.9s2.8-2.4,3.8-4.1
					c0.9-1.7,1.4-3.5,1.4-5.3C103.5,88.8,102.8,86.8,101.3,85.1z M88.3,69.6c1.5,0.1,2.6,0.6,3.3,1.4c0.8,0.8,1.1,1.8,1.1,3
					c0,1.3-0.4,2.3-1.3,3.1c-0.9,0.8-2,1.3-3.6,1.4c-0.9,0.1-3,0.1-6.4,0.1h-5.8v-9.2h5.1C84.8,69.4,87.4,69.5,88.3,69.6z
					 M93.1,94.1c-0.8,0.9-1.9,1.4-3.2,1.6C89,95.9,87,96,83.8,96h-8.2V85.3h7.2c4,0,6.6,0.2,7.8,0.6c1.2,0.4,2.1,1,2.8,1.8
					c0.6,0.9,0.9,1.9,0.9,3C94.3,92.1,93.9,93.3,93.1,94.1z"/>
			</g>
			<g id="XMLID_189_">
				
					<linearGradient id="SVGID_2_" gradientUnits="userSpaceOnUse" x1="225.125" y1="115.0631" x2="313.9465" y2="-38.7804" gradientTransform="matrix(0.3 0 0 -0.3 -7.629395e-006 93)">
					<stop  offset="0" style="stop-color:#C6AB43"/>
					<stop  offset="0.5744" style="stop-color:#C6AB43"/>
					<stop  offset="1" style="stop-color:#ECD97A"/>
				</linearGradient>
				<path fill="url(#SVGID_2_)" d="M100.6,84.3c-1.4-1.7-3.5-2.9-6.2-3.6c1.9-0.8,3.4-1.9,4.5-3.5c1.1-1.6,1.7-3.3,1.7-5.1
					c0-1.7-0.4-3.3-1.3-4.7c-0.9-1.4-2-2.5-3.4-3.3c-1.3-0.9-2.8-1.4-4.6-1.7c-0.8-0.1-1.8-0.2-2.9-0.3v-6.1h-6.7v6h-3.3v-6h-6.7v6
					H66V102h5.7v6h6.7v-6H81c0.2,0,0.5,0,0.8,0v6h6.7v-6.1c1.5,0,2.6-0.1,3.2-0.1c2.4-0.2,4.3-0.9,5.9-1.9c1.6-1,2.8-2.4,3.8-4.1
					c0.9-1.7,1.4-3.5,1.4-5.3C102.8,88,102,86,100.6,84.3z M87.6,68.8c1.5,0.1,2.6,0.6,3.3,1.4c0.8,0.8,1.1,1.8,1.1,3
					c0,1.3-0.4,2.3-1.3,3.1c-0.9,0.8-2,1.3-3.6,1.4c-0.9,0.1-3,0.1-6.4,0.1h-5.9v-9.2H80C84.1,68.7,86.7,68.7,87.6,68.8z M92.4,93.4
					c-0.8,0.9-1.9,1.4-3.2,1.6c-0.9,0.1-2.9,0.2-6.1,0.2h-8.2V84.5H82c4,0,6.6,0.2,7.8,0.6c1.2,0.4,2.1,1,2.8,1.8
					c0.6,0.9,0.9,1.9,0.9,3C93.6,91.4,93.2,92.5,92.4,93.4z"/>
			</g>
			<g id="XMLID_193_">
				<path id="XMLID_194_" fill="none" d="M89.9,85.1c-1.2-0.4-3.8-0.6-7.8-0.6h-7.2v10.7h8.2c3.2,0,5.2-0.1,6.1-0.2
					c1.3-0.2,2.4-0.8,3.2-1.6c0.8-0.9,1.2-2,1.2-3.4c0-1.2-0.3-2.2-0.9-3C92,86.1,91.1,85.5,89.9,85.1z"/>
				<path id="XMLID_195_" fill="none" d="M74.9,68.7v9.2h0.3h5.5c3.5,0,5.6,0,6.4-0.1c1.5-0.1,2.7-0.6,3.6-1.4
					c0.9-0.8,1.3-1.8,1.3-3.1c0-1.2-0.4-2.2-1.1-3c-0.8-0.8-1.9-1.2-3.3-1.4c-0.2,0-0.7,0-1.2,0c-1.3,0-3.4,0-6.4,0L74.9,68.7
					L74.9,68.7z"/>
				<polygon id="XMLID_196_" fill="none" points="79.9,62 66,73.3 66,74.6 81.5,62 				"/>
				<polygon id="XMLID_197_" fill="none" points="88.5,56 87.2,56 81.7,60.5 81.7,61.8 88.5,56.4 				"/>
				<path id="XMLID_198_" fill="none" d="M94.4,80.7c1.9-0.8,3.4-1.9,4.5-3.5c1.1-1.6,1.7-3.3,1.7-5.1c0-1.7-0.4-3.3-1.3-4.7
					c-0.9-1.4-2-2.5-3.4-3.3c-0.8-0.5-1.6-0.9-2.4-1.1l-7.1,5.8c0.5,0,0.9,0,1.2,0c1.5,0.1,2.6,0.6,3.3,1.4c0.8,0.8,1.1,1.8,1.1,3
					c0,1.3-0.4,2.3-1.3,3.1c-0.9,0.8-2,1.3-3.6,1.4c-0.9,0.1-3,0.1-6.4,0.1h-5.5l-9.1,7.5v16.6h5.7v6h6.7v-6h2.5c0.2,0,0.5,0,0.8,0
					v6h6.7v-6.1c1.5,0,2.6-0.1,3.2-0.1c2.4-0.2,4.3-0.9,5.9-1.9c1.6-1,2.8-2.4,3.8-4.1c0.9-1.7,1.4-3.5,1.4-5.3c0-2.3-0.7-4.3-2.1-6
					C99.2,82.6,97.1,81.4,94.4,80.7z M92.4,93.4c-0.8,0.9-1.9,1.4-3.2,1.6c-0.9,0.1-2.9,0.2-6.1,0.2h-8.2V84.5H82
					c4,0,6.6,0.2,7.8,0.6c1.2,0.4,2.1,1,2.8,1.8c0.6,0.9,0.9,1.9,0.9,3C93.6,91.4,93.2,92.5,92.4,93.4z"/>
				<polygon id="XMLID_201_" fill="none" points="78.4,58 66,68.1 66,68.8 78.4,58.6 				"/>
				<path id="XMLID_202_" fill="#FFDF7D" d="M74.9,77.9v-9.2H80c3,0,5.1,0,6.4,0l7.1-5.8c-0.7-0.2-1.4-0.4-2.1-0.5
					c-0.8-0.1-1.8-0.2-2.9-0.3v-5.8l-6.7,5.5V62h-0.2L66,74.6v10.7l9.1-7.5C75.1,77.9,74.9,77.9,74.9,77.9z"/>
				<polygon id="XMLID_203_" fill="#FFDF7D" points="81.7,56 81.7,60.5 87.2,56 				"/>
				<polygon id="XMLID_204_" fill="#FFDF7D" points="78.4,62 78.4,58.6 66,68.8 66,73.3 79.9,62 				"/>
				<polygon id="XMLID_205_" fill="#FFDF7D" points="78.4,56 71.7,56 71.7,62 66,62 66,68.1 78.4,58 				"/>
			</g>
		</g>
	</g>
</g>
</svg>
