<?xml version="1.0" encoding="utf-8"?>
<!-- Generator: Adobe Illustrator 17.1.0, SVG Export Plug-In . SVG Version: 6.00 Build 0)  -->
<!DOCTYPE svg PUBLIC "-//W3C//DTD SVG 1.1//EN" "http://www.w3.org/Graphics/SVG/1.1/DTD/svg11.dtd">
<svg version="1.1" xmlns="http://www.w3.org/2000/svg" xmlns:xlink="http://www.w3.org/1999/xlink" x="0px" y="0px"
	 viewBox="0 0 800 660" enable-background="new 0 0 800 660" xml:space="preserve">
<g id="Layer_2">
		<radialGradient id="light_1_" cx="399.9813" cy="329.9318" r="395.506" gradientTransform="matrix(0.9639 0 0 0.88 14.4759 39.66)" gradientUnits="userSpaceOnUse">
		<stop  offset="0.5" style="stop-color:#FFFFFF"/>
		<stop  offset="1" style="stop-color:#D9D9D9"/>
	</radialGradient>
	<rect id="light" fill="url(#light_1_)" width="800" height="660"/>
</g>
<g id="devs">
	<g id="wms">
		<path id="XMLID_2420_" fill="#131212" d="M690.9,329.8c-22.6-15.2-84.4-19.4-84.7-30.7c-0.2-11.7,11.5-12.4,18.8-12.4
			c22.4,0,20.7,17.8,20.7,17.8h53c0-41.1-47.7-40.8-71.9-40.8c-49.1,0-67.6,10.5-73.7,25.3v-21.8h-39.2h-10.7h-32.4l-26.3,84.1
			l-26.8-84.1h-35.2H371h-30.4H336h-43.6l-17.4,78.5l-23.4-78.5h-18.2h-28.4H191L166.9,348l-16.8-80.7H96.9l30.4,125.1h26.4h22.5
			h19.8l23.1-77.6l23.1,77.6h22.3h24.3h22.3L336,287.2v105.2h46.5v-92.9l32.9,92.9h16.4h25.9h10.3l35.3-96.1v96.1h49.9v-17.9
			c7.1,12.6,25.7,21.7,73.7,21.7c57.1,0,76.3-18.7,76.3-41.6C703,354.6,704.9,339.3,690.9,329.8z M625.9,372.7
			c-25.8-0.4-22.3-20.8-22.3-20.8h-50.6v-35.5c15.4,30.9,94.1,24,94.1,42.6C647.2,365.5,641.4,373,625.9,372.7z"/>
		<path id="XMLID_2423_" fill="#0063A0" d="M690.9,329.8c-22.6-15.2-84.4-19.4-84.7-30.7c-0.2-11.7,11.5-12.4,18.8-12.4
			c22.4,0,20.7,17.8,20.7,17.8h53c0-41.1-47.7-40.8-71.9-40.8c-49.1,0-67.6,10.5-73.7,25.3v-21.8h-39.2h-10.7h-32.4l-12.4,39.8
			l38.2,7.4l6.6-18.1v19.4l49.9,9.6v-8.9c2.1,4.2,5.4,7.8,9.6,10.8l140.4,27.1C703.2,352.3,703.8,338.6,690.9,329.8z"/>
		<polygon id="XMLID_2424_" fill="#0063A0" points="371,267.3 340.7,267.3 336,267.3 292.3,267.3 290.7,274.7 428.5,301.3 
			417.6,267.3 382.4,267.3 		"/>
	</g>
</g>
</svg>
