<?xml version="1.0" encoding="utf-8"?>
<!-- Generator: Adobe Illustrator 17.1.0, SVG Export Plug-In . SVG Version: 6.00 Build 0)  -->
<!DOCTYPE svg PUBLIC "-//W3C//DTD SVG 1.1//EN" "http://www.w3.org/Graphics/SVG/1.1/DTD/svg11.dtd">
<svg version="1.1" xmlns="http://www.w3.org/2000/svg" xmlns:xlink="http://www.w3.org/1999/xlink" x="0px" y="0px"
	 viewBox="0 0 800 660" enable-background="new 0 0 800 660" xml:space="preserve">
<g id="Layer_2">
	
		<radialGradient id="SVGID_1_" cx="399.9813" cy="329.9318" r="395.506" gradientTransform="matrix(0.9639 0 0 0.88 14.4759 39.66)" gradientUnits="userSpaceOnUse">
		<stop  offset="0.5" style="stop-color:#262626"/>
		<stop  offset="1" style="stop-color:#1A1A1A"/>
	</radialGradient>
	<rect fill="url(#SVGID_1_)" width="800" height="660"/>
</g>
<g id="Layer_1">
	<path id="casino-bonuses_3_" fill="#FFFFFF" d="M246,337.2c-3-3.5-5.1-8.1-5.1-13.2l4-101.7c0.5-10.1,9.1-17.7,18.7-17.7l19.2,0.5
		l-5.1,126l-21.8,10.6C252.6,341.8,248.5,339.8,246,337.2z M356.8,290.7l-20.2-21.2c-1-1-1-2-0.5-3c0.5-1,1.5-2,2.5-2l28.8-3
		c1,0,2-0.5,2.5-1.5l14.2-25.8c0.5-1,1.5-1.5,3-1.5c1,0,2,0.5,2.5,2l11.6,26.8c0.5,1,1,1.5,2,1.5l10.1,2l55.1-27.3l1-23.8
		l-164.4-7.1l-4.6,113.8l56.7-28.3C357.3,291.7,357.3,291.2,356.8,290.7z M510.6,220.9c5.6,0,10.6,1.5,15.7,3
		c-3-5.6-8.6-9.1-15.2-9.6l-19.2-0.5l-0.5,11.6l1-0.5C497.9,222.4,504.5,220.9,510.6,220.9z M248,371.6c-4.6,2-7.6,6.1-9.1,10.6
		c-1.5,4.6-1,9.6,1,13.7l53.1,107.2c3,6.6,9.6,10.1,16.2,10.1c2.5,0,5.6-0.5,8.1-2l22.8-11.1L270.8,360L248,371.6z M579.9,360.5
		l-53.1-107.2c-3-6.6-9.6-10.1-16.2-10.1c-2.5,0-5.6,0.5-8.1,2l-22.8,11.1L549,395.9l22.8-11.1c4.6-2,7.6-6.1,9.1-10.6
		C582.4,369.6,582.4,364.6,579.9,360.5z M460,266.4L529.3,406l-169.5,84l-69.3-139.6L460,266.4z M464.6,407.6l-21.2-28.8l11.6-33.4
		c0.5-1,0-2.5-0.5-3c-1-1-2-1-3-1L419,351.9c-1,0.5-2,0-2.5-0.5l-26.8-20.7c-1-0.5-2-1-3-0.5c-1,0.5-1.5,1.5-1.5,2.5v33.9
		c0,1-0.5,2-1.5,2.5l-28.3,20.2c-1,0.5-1.5,2-1.5,3s1,2,2,2.5l32.4,10.6c1,0.5,1.5,1,2,2l9.6,32.9c0.5,1,1.5,2,2.5,2
		c1,0,2.5-0.5,3-1l19.7-27.8c0.5-1,1.5-1.5,2.5-1l33.9,1c1,0,2-0.5,2.5-1.5C465.6,410.1,465.6,408.6,464.6,407.6z"/>
</g>
</svg>
