<?xml version="1.0" encoding="utf-8"?>
<!-- Generator: Adobe Illustrator 17.1.0, SVG Export Plug-In . SVG Version: 6.00 Build 0)  -->
<!DOCTYPE svg PUBLIC "-//W3C//DTD SVG 1.1//EN" "http://www.w3.org/Graphics/SVG/1.1/DTD/svg11.dtd">
<svg version="1.1" id="Layer_1" xmlns="http://www.w3.org/2000/svg" xmlns:xlink="http://www.w3.org/1999/xlink" x="0px" y="0px"
	 viewBox="0 21 240 198" enable-background="new 0 21 240 198" xml:space="preserve">
<path id="merkur_1_" fill="none" stroke="#23255A" stroke-width="1.5" stroke-miterlimit="10" d="M130.9,23.5l1.9,23l16.6-14
	L143,57.3l28.8-12l-18.3,22.8l29.7,1.8l-27.2,16.6l24.3,9.8l-25.5,1l11.2,26.9l-24.8-15.1l2.6,30.9l-17.7-21l-7.2,20.1l-7.3-20.3
	l-17,19.8l4.7-29.2l-27.7,12.3l18-22.3l-28.5,3L82.3,90l-25.6-8.5L86.2,76L65.5,56.5l23.1,4.5L78.1,36.6l24.6,17.1l-2-26.4
	l15.4,21.1L130.9,23.5z M120.9,52.6c17.8,0,32.3,13.6,32.3,30.3s-14.5,30.3-32.3,30.3S88.6,99.6,88.6,82.9S103.1,52.6,120.9,52.6z
	 M98.1,67.3c1.8-0.8,4.3-0.9,5.9,0.4c1.5,1.1,2.4,2.8,2.6,4.6c0.4,1.8,0.1,3.8-0.3,5.6c-0.1,0-0.4,0-0.5,0c0.5-2.7,0.4-5.7-1.3-8.1
	c-0.8-1.2-2.1-1.7-3.5-1.9c-2.2,0.1-4.3,1.2-5.3,3c-0.5,0.8-0.9,1.6-1.3,2.4c0-0.6,0-1.2,0.1-1.7C95,69.8,96.4,68.3,98.1,67.3
	L98.1,67.3z M117.2,68.3c-3.3,1.4-6.2,3.9-7,7.3c-0.2,1.5,0,3.1,0.9,4.4c0.9,1.4,2.6,2.3,4.4,2.3c1.7,0,3.5,0,5.3,0
	c0.1,0.6,0,1.2-0.2,1.8c0.4,0,0.9,0.2,1-0.3c0.4-0.7,0.6-1.8-0.1-2.3c-1.8-0.1-3.7,0-5.5-0.1c-0.9-0.1-1.9-0.3-2.7-0.8
	c-1.3-0.8-1.9-2.4-2-3.8c0-2.3,1.4-4.3,3.1-5.9c1.7-1.4,3.9-2.3,6-3c0.4-0.2,1-0.2,1.1-0.7C120,67.2,118.6,67.8,117.2,68.3
	L117.2,68.3z M133.4,70.3c-1.6,1.5-2.3,3.7-2.5,5.7c0.1,0,0.3,0,0.4,0c0.7-2.3,1.9-4.7,4.1-5.9c2.6-1.3,5.8,0.3,7,2.6
	c1.2,2.3,1.3,5,1.4,7.5c0.4-0.1,0.6-0.3,0.6-0.7c0.2-2.1,0.2-4.3-0.6-6.4c-0.8-2-2.4-3.7-4.6-4.2C137.2,68.3,134.9,68.8,133.4,70.3
	L133.4,70.3z M99.5,72.2c-1.3,0.5-2,2-2.4,3.2c-0.5,1.9-0.7,4,0.4,5.7c0.5,0.9,1.9,1,2.8,0.6c1.4-0.9,2-2.6,2.2-4.1
	c0.2-1.5,0.3-3.3-0.6-4.6C101.5,72.3,100.4,71.9,99.5,72.2L99.5,72.2z M137.2,73.6c-1.5,0.3-2.2,1.7-2.6,2.9c-0.7,2-1,4.1-0.3,6.1
	c0.2,0.8,0.9,1.6,1.9,1.4c1.2,0,2-0.9,2.6-1.7c1.3-2.2,1.6-5,0.7-7.3C139.1,74.1,138.1,73.6,137.2,73.6L137.2,73.6z M145.3,93
	c-1.4-0.1-2.1-1.4-3.1-2.2c-2.5,4.7-6.4,8.9-11.3,11.5c-3.3,1.7-7,2.5-10.8,2.5c-0.9-0.2-1.8-0.1-2.8-0.3c-4.7-0.7-9-3.2-12.3-6.4
	c-2.5-2.5-4.7-5.2-6.5-8.2c-1,0.5-1.9,1.3-3,1.7c-0.1-0.1-0.4-0.4-0.5-0.5c2.3-1.4,4.1-3.4,5.4-5.7c0.2,0.1,0.3,0.2,0.5,0.4
	c-0.3,1.2-0.9,2.1-1.5,3.2c0.2,0,0.6,0.2,0.8,0.2c13.6,2.6,27.8,3,41.3,0.3c-0.3-1.2-0.8-2.3-0.9-3.5c0.9-0.1,0.9,0.7,1.2,1.2
	c0.7,1.9,1.8,3.7,3.4,5.1C145.3,92.5,145.3,92.7,145.3,93z M141,90.6c-6.8,1.3-13.7,2-20.6,1.8c-5.8,0.1-11.5-0.6-17.2-1.6
	c-1.1-0.2-2.1-0.5-3.2-0.6c2.1,3.4,4.7,6.7,8.1,9.1c3.4,2.5,7.6,4.3,12,4.3c3.9,0.1,7.8-1,11.2-3C135.4,98.2,138.7,94.7,141,90.6z
	 M21.2,153.7h12.6c0,0,5.8,17.1,6.4,18.7l7.1-18.7h11.8l0,28.3h-7.9l0.1-21.6L43.7,182h-7.5L29,160.4l0,21.6h-7.8L21.2,153.7
	L21.2,153.7z M67.6,181.9h21.7v-5.4H75.8v-6.3h12.3v-5.4H75.8v-5.8h13.5v-5.4H67.6V181.9L67.6,181.9z M128.5,181.9c0,0,5.4,0,8.1,0
	c0-4.3,0-12.8,0-12.8s6.2,8.5,9.3,12.8c3.4,0,6.9,0,10.3,0l-11.8-15.2l10.9-13h-9.6l-9.1,11.6v-11.6h-8V181.9L128.5,181.9z
	 M160.6,153.7c0,0,0.1,19.4,0.3,20.6c0.5,2.6,2.1,4.9,4.4,6.3c2.6,1.5,5.7,2,8.7,1.9c3.8,0,8-1,10.5-3.8c1.7-2,2.5-4.7,2.4-7.2
	c0-5.9,0-17.7,0-17.7h-8c0,0,0.1,16.9-0.3,19c-0.1,0.3-0.2,0.6-0.3,0.9c-0.5,1.3-1.4,2.6-2.9,3c-1.8,0.5-4.1,0.3-5.3-1.2
	c-1.3-1.4-1.5-3.4-1.5-5.1c0-5.6,0-16.6,0-16.6L160.6,153.7L160.6,153.7z M122,181.9c-2.8,0-5.6,0-8.4,0c-0.3-0.8-0.5-1.6-0.8-2.5
	c-0.6-1.7-1.1-3.5-1.8-5.2c-0.5-1.2-1.2-2.5-2.5-3.1c-1.2-0.5-3.7-0.4-3.7-0.4v11.1l-8.2,0v-28.2c0,0,9.3,0,13.9,0
	c1.9,0.1,3.9,0.2,5.6,0.9c2.1,0.8,3.9,2.5,4.3,4.6c0.4,1.8,0.2,3.9-0.7,5.6s-2.8,2.8-4.7,3.2c0.7,0.4,1.4,0.7,1.9,1.3
	c0.8,1.1,1.2,2.4,1.7,3.6C119.6,175.4,121.8,181.5,122,181.9z M112.1,160.8c-0.5-0.8-1.5-1.2-2.4-1.4c-1.7-0.3-5.1-0.3-5.1-0.3v6.3
	c0,0,1.3,0,1.9,0c1.5,0,3.2,0,4.6-0.7c0.7-0.3,1-1,1.3-1.6C112.5,162.3,112.6,161.5,112.1,160.8z M220.1,181.9c-2.8,0-5.6,0-8.4,0
	c-0.3-0.8-0.5-1.6-0.8-2.5c-0.6-1.7-1.1-3.5-1.8-5.2c-0.5-1.2-1.2-2.5-2.5-3.1c-1.2-0.5-3.7-0.4-3.7-0.4v11.1l-8.2,0v-28.2
	c0,0,9.3,0,13.9,0c1.9,0.1,3.9,0.2,5.6,0.9c2.1,0.8,3.9,2.5,4.3,4.6c0.4,1.8,0.2,3.9-0.7,5.6s-2.8,2.8-4.7,3.2
	c0.7,0.4,1.4,0.7,1.9,1.3c0.8,1.1,1.2,2.4,1.7,3.6C217.7,175.4,220,181.5,220.1,181.9z M209.9,160.3c-1-0.8-2.3-1.1-3.6-1.1
	c-1.2-0.2-2.3,0-3.5-0.1c0,2.1,0,4.2,0,6.3c1.8,0,3.6,0.1,5.3-0.3c1-0.2,2-0.8,2.3-1.7C210.8,162.4,210.7,161.1,209.9,160.3z
	 M22.9,193c-1.8,2.2-2.8,5-3,7.8v2.6c0.3,3.3,1.4,6.6,4,9c2.1,2.1,5.1,3.3,8.2,3.7c3.9,0.4,8-0.1,11.6-1.6c0-4.5,0-9,0-13.5
	c-3.2-0.2-6.4,0-9.7-0.1c0,0.8,0,1.5,0,2.3c2.3,0,4.6,0,6.9,0c0,3.2,0,6.4,0,9.7c-3.6,1.2-7.7,1.4-11.3,0.1c-2.6-1-4.7-3-5.8-5.6
	c-1.2-2.9-1.3-6.2-0.5-9.2c0.8-2.7,2.6-5.2,5.3-6.5c2.9-1.5,6.4-1.6,9.6-1.1c1.3,0.2,2.7,0.6,3.9,1.2c0.1-0.8,0.2-1.7,0.3-2.5
	c-2.9-1.2-6-1.5-9.1-1.3C29.2,188.2,25.3,190,22.9,193L22.9,193z M206.5,188.3c-2.6,0.6-5.2,1.8-7,3.7c-2.1,2.1-3.4,4.9-3.8,7.7
	c-0.4,3.8,0.1,7.8,2.5,11c1.4,2,3.5,3.4,5.8,4.3c4,1.5,8.5,1.3,12.6,0.3c0.9-0.3,1.8-0.6,2.7-0.9c0-4.5,0-9.1,0-13.6
	c-3.2,0.1-6.4-0.1-9.6,0.1c0,0.8,0,1.5,0,2.2c2.3,0,4.7,0,7,0c0,3.2,0,6.4,0,9.6c-2.7,0.9-5.6,1.3-8.5,0.9c-2.4-0.3-4.8-1.3-6.4-3
	c-1.9-1.8-2.9-4.3-3.2-6.8c-0.3-2.6,0-5.2,1.1-7.5c1.1-2.3,3-4.2,5.5-5.2c3.4-1.3,7.3-1.1,10.9-0.2c0.6,0.2,1.2,0.4,1.7,0.7
	c0.2-0.9,0.3-1.7,0.2-2.6c-1.6-0.6-3.2-0.9-4.9-1.2C210.8,187.9,208.6,187.9,206.5,188.3L206.5,188.3z M91.3,188.4
	c0,9.1,0,18.2,0,27.4c0.9,0,1.7,0,2.6,0c0.1-8.2,0-16.5,0-24.8c3.7,8.2,7.1,16.6,10.8,24.8c0.9,0,1.8,0,2.7,0
	c2.3-5.6,4.8-11.1,7.2-16.6c1.2-2.8,2.5-5.5,3.5-8.2c0.1,3,0.1,19.5,0,24.8c0.9,0.1,1.9,0.1,2.8,0c0-9.1,0-18.2,0-27.3
	c-1.4,0-2.8,0-4.2,0c-3.5,8.1-7,16.3-10.6,24.4c-1.6-3.3-2.9-6.7-4.4-10c-1.8-4.1-3.6-8.2-5.4-12.4c-0.3-0.7-0.6-1.3-0.8-2
	C94.1,188.4,92.7,188.4,91.3,188.4L91.3,188.4z M139.6,188.4c0,9.1,0,18.2,0,27.4c0.9,0,1.8,0,2.6,0c0-9.1,0-18.2,0-27.4
	C141.4,188.4,140.5,188.4,139.6,188.4L139.6,188.4z M177.8,214.8c0.2,0.3,0.4,0.7,0.7,0.9c1.2,0,2.3,0,3.5,0c0-9.1,0-18.2,0-27.4
	c-0.9,0-2.6,0-2.6,0v24.2l-14.8-24.2c0,0-2.4,0-3.7,0l0,0c0,9.1,0,18.2,0,27.4c0.8,0,2.6,0,2.6,0v-24.3
	C163.5,191.4,173,207,177.8,214.8 M79.8,215.8c-0.9,0-1.8,0-2.8,0c-0.5-1.2-1-2.4-1.5-3.7c-0.6-1.3-1.1-2.6-1.7-4
	c-4.9,0-9.8,0-14.7,0c-1.2,2.5-2.2,5.1-3.3,7.6c-0.9,0-1.7,0-2.6,0c3.6-8.5,7.3-16.9,10.9-25.4c0.3-0.6,0.6-1.3,0.8-1.9c1,0,2,0,3,0
	c3.2,7.3,6.3,14.6,9.4,21.9C78.3,212.1,79.1,213.9,79.8,215.8z M72.9,205.9c-0.4-1.2-1-2.4-1.5-3.6c-1.7-3.9-3.2-7.7-4.9-11.5
	c-2.1,5.1-4.3,10.1-6.4,15.1C64.4,205.9,68.7,206,72.9,205.9z"/>
<g id="merkur_2_">
	<g id="sun">
		<polygon id="XMLID_1807_" fill="#F7CE15" points="130.9,23.5 132.8,46.6 149.4,32.5 143,57.3 171.8,45.3 153.5,68.1 183.2,69.9 
			156.1,86.5 180.4,96.2 154.8,97.2 166,124.1 141.3,108.9 143.8,139.8 126.1,118.9 118.9,139 111.6,118.6 94.6,138.4 99.3,109.2 
			71.6,121.5 89.6,99.2 61.1,102.2 82.3,90 56.8,81.5 86.2,76 65.5,56.5 88.6,61.1 78.1,36.6 102.7,53.7 100.7,27.3 116.1,48.4 		
			"/>
		<ellipse id="XMLID_1806_" fill="#FDFEFD" cx="120.9" cy="82.9" rx="32.3" ry="30.3"/>
		<path fill="#010101" d="M98.1,67.3c1.8-0.8,4.3-0.9,5.9,0.4c1.5,1.1,2.4,2.8,2.6,4.6c0.4,1.8,0.1,3.8-0.3,5.6c-0.1,0-0.4,0-0.5,0
			c0.5-2.7,0.4-5.7-1.3-8.1c-0.8-1.2-2.1-1.7-3.5-1.9c-2.2,0.1-4.3,1.2-5.3,3c-0.5,0.8-0.9,1.6-1.3,2.4c0-0.6,0-1.2,0.1-1.7
			C95,69.8,96.4,68.3,98.1,67.3L98.1,67.3z M117.2,68.3c-3.3,1.4-6.2,3.9-7,7.3c-0.2,1.5,0,3.1,0.9,4.4c0.9,1.4,2.6,2.3,4.4,2.3
			c1.7,0,3.5,0,5.3,0c0.1,0.6,0,1.2-0.2,1.8c0.4,0,0.9,0.2,1-0.3c0.4-0.7,0.6-1.8-0.1-2.3c-1.8-0.1-3.7,0-5.5-0.1
			c-0.9-0.1-1.9-0.3-2.7-0.8c-1.3-0.8-1.9-2.4-2-3.8c0-2.3,1.4-4.3,3.1-5.9c1.7-1.4,3.9-2.3,6-3c0.4-0.2,1-0.2,1.1-0.7
			C120,67.2,118.6,67.8,117.2,68.3L117.2,68.3z M133.4,70.3c-1.6,1.5-2.3,3.7-2.5,5.7c0.1,0,0.3,0,0.4,0c0.7-2.3,1.9-4.7,4.1-5.9
			c2.6-1.3,5.8,0.3,7,2.6c1.2,2.3,1.3,5,1.4,7.5c0.4-0.1,0.6-0.3,0.6-0.7c0.2-2.1,0.2-4.3-0.6-6.4c-0.8-2-2.4-3.7-4.6-4.2
			C137.2,68.3,134.9,68.8,133.4,70.3L133.4,70.3z M99.5,72.2c-1.3,0.5-2,2-2.4,3.2c-0.5,1.9-0.7,4,0.4,5.7c0.5,0.9,1.9,1,2.8,0.6
			c1.4-0.9,2-2.6,2.2-4.1c0.2-1.5,0.3-3.3-0.6-4.6C101.5,72.3,100.4,71.9,99.5,72.2L99.5,72.2z M137.2,73.6
			c-1.5,0.3-2.2,1.7-2.6,2.9c-0.7,2-1,4.1-0.3,6.1c0.2,0.8,0.9,1.6,1.9,1.4c1.2,0,2-0.9,2.6-1.7c1.3-2.2,1.6-5,0.7-7.3
			C139.1,74.1,138.1,73.6,137.2,73.6L137.2,73.6z M145.3,93c-1.4-0.1-2.1-1.4-3.1-2.2c-2.5,4.7-6.4,8.9-11.3,11.5
			c-3.3,1.7-7,2.5-10.8,2.5c-0.9-0.2-1.8-0.1-2.8-0.3c-4.7-0.7-9-3.2-12.3-6.4c-2.5-2.5-4.7-5.2-6.5-8.2c-1,0.5-1.9,1.3-3,1.7
			c-0.1-0.1-0.4-0.4-0.5-0.5c2.3-1.4,4.1-3.4,5.4-5.7c0.2,0.1,0.3,0.2,0.5,0.4c-0.3,1.2-0.9,2.1-1.5,3.2c0.2,0,0.6,0.2,0.8,0.2
			c13.6,2.6,27.8,3,41.3,0.3c-0.3-1.2-0.8-2.3-0.9-3.5c0.9-0.1,0.9,0.7,1.2,1.2c0.7,1.9,1.8,3.7,3.4,5.1
			C145.3,92.5,145.3,92.7,145.3,93z M141,90.6c-6.8,1.3-13.7,2-20.6,1.8c-5.8,0.1-11.5-0.6-17.2-1.6c-1.1-0.2-2.1-0.5-3.2-0.6
			c2.1,3.4,4.7,6.7,8.1,9.1c3.4,2.5,7.6,4.3,12,4.3c3.9,0.1,7.8-1,11.2-3C135.4,98.2,138.7,94.7,141,90.6z"/>
	</g>
	<path id="name" fill="#CCDAE2" d="M21.2,153.7h12.6c0,0,5.8,17.1,6.4,18.7l7.1-18.7h11.8l0,28.3h-7.9l0.1-21.6L43.7,182h-7.5
		L29,160.4l0,21.6h-7.8L21.2,153.7L21.2,153.7z M67.6,181.9h21.7v-5.4H75.8v-6.3h12.3v-5.4H75.8v-5.8h13.5v-5.4H67.6V181.9
		L67.6,181.9z M128.5,181.9c0,0,5.4,0,8.1,0c0-4.3,0-12.8,0-12.8s6.2,8.5,9.3,12.8c3.4,0,6.9,0,10.3,0l-11.8-15.2l10.9-13h-9.6
		l-9.1,11.6v-11.6h-8V181.9L128.5,181.9z M160.6,153.7c0,0,0.1,19.4,0.3,20.6c0.5,2.6,2.1,4.9,4.4,6.3c2.6,1.5,5.7,2,8.7,1.9
		c3.8,0,8-1,10.5-3.8c1.7-2,2.5-4.7,2.4-7.2c0-5.9,0-17.7,0-17.7h-8c0,0,0.1,16.9-0.3,19c-0.1,0.3-0.2,0.6-0.3,0.9
		c-0.5,1.3-1.4,2.6-2.9,3c-1.8,0.5-4.1,0.3-5.3-1.2c-1.3-1.4-1.5-3.4-1.5-5.1c0-5.6,0-16.6,0-16.6L160.6,153.7L160.6,153.7z
		 M122,181.9c-2.8,0-5.6,0-8.4,0c-0.3-0.8-0.5-1.6-0.8-2.5c-0.6-1.7-1.1-3.5-1.8-5.2c-0.5-1.2-1.2-2.5-2.5-3.1
		c-1.2-0.5-3.7-0.4-3.7-0.4v11.1l-8.2,0v-28.2c0,0,9.3,0,13.9,0c1.9,0.1,3.9,0.2,5.6,0.9c2.1,0.8,3.9,2.5,4.3,4.6
		c0.4,1.8,0.2,3.9-0.7,5.6s-2.8,2.8-4.7,3.2c0.7,0.4,1.4,0.7,1.9,1.3c0.8,1.1,1.2,2.4,1.7,3.6C119.6,175.4,121.8,181.5,122,181.9z
		 M112.1,160.8c-0.5-0.8-1.5-1.2-2.4-1.4c-1.7-0.3-5.1-0.3-5.1-0.3v6.3c0,0,1.3,0,1.9,0c1.5,0,3.2,0,4.6-0.7c0.7-0.3,1-1,1.3-1.6
		C112.5,162.3,112.6,161.5,112.1,160.8z M220.1,181.9c-2.8,0-5.6,0-8.4,0c-0.3-0.8-0.5-1.6-0.8-2.5c-0.6-1.7-1.1-3.5-1.8-5.2
		c-0.5-1.2-1.2-2.5-2.5-3.1c-1.2-0.5-3.7-0.4-3.7-0.4v11.1l-8.2,0v-28.2c0,0,9.3,0,13.9,0c1.9,0.1,3.9,0.2,5.6,0.9
		c2.1,0.8,3.9,2.5,4.3,4.6c0.4,1.8,0.2,3.9-0.7,5.6s-2.8,2.8-4.7,3.2c0.7,0.4,1.4,0.7,1.9,1.3c0.8,1.1,1.2,2.4,1.7,3.6
		C217.7,175.4,220,181.5,220.1,181.9z M209.9,160.3c-1-0.8-2.3-1.1-3.6-1.1c-1.2-0.2-2.3,0-3.5-0.1c0,2.1,0,4.2,0,6.3
		c1.8,0,3.6,0.1,5.3-0.3c1-0.2,2-0.8,2.3-1.7C210.8,162.4,210.7,161.1,209.9,160.3z M22.9,193c-1.8,2.2-2.8,5-3,7.8v2.6
		c0.3,3.3,1.4,6.6,4,9c2.1,2.1,5.1,3.3,8.2,3.7c3.9,0.4,8-0.1,11.6-1.6c0-4.5,0-9,0-13.5c-3.2-0.2-6.4,0-9.7-0.1c0,0.8,0,1.5,0,2.3
		c2.3,0,4.6,0,6.9,0c0,3.2,0,6.4,0,9.7c-3.6,1.2-7.7,1.4-11.3,0.1c-2.6-1-4.7-3-5.8-5.6c-1.2-2.9-1.3-6.2-0.5-9.2
		c0.8-2.7,2.6-5.2,5.3-6.5c2.9-1.5,6.4-1.6,9.6-1.1c1.3,0.2,2.7,0.6,3.9,1.2c0.1-0.8,0.2-1.7,0.3-2.5c-2.9-1.2-6-1.5-9.1-1.3
		C29.2,188.2,25.3,190,22.9,193L22.9,193z M206.5,188.3c-2.6,0.6-5.2,1.8-7,3.7c-2.1,2.1-3.4,4.9-3.8,7.7c-0.4,3.8,0.1,7.8,2.5,11
		c1.4,2,3.5,3.4,5.8,4.3c4,1.5,8.5,1.3,12.6,0.3c0.9-0.3,1.8-0.6,2.7-0.9c0-4.5,0-9.1,0-13.6c-3.2,0.1-6.4-0.1-9.6,0.1
		c0,0.8,0,1.5,0,2.2c2.3,0,4.7,0,7,0c0,3.2,0,6.4,0,9.6c-2.7,0.9-5.6,1.3-8.5,0.9c-2.4-0.3-4.8-1.3-6.4-3c-1.9-1.8-2.9-4.3-3.2-6.8
		c-0.3-2.6,0-5.2,1.1-7.5c1.1-2.3,3-4.2,5.5-5.2c3.4-1.3,7.3-1.1,10.9-0.2c0.6,0.2,1.2,0.4,1.7,0.7c0.2-0.9,0.3-1.7,0.2-2.6
		c-1.6-0.6-3.2-0.9-4.9-1.2C210.8,187.9,208.6,187.9,206.5,188.3L206.5,188.3z M91.3,188.4c0,9.1,0,18.2,0,27.4c0.9,0,1.7,0,2.6,0
		c0.1-8.2,0-16.5,0-24.8c3.7,8.2,7.1,16.6,10.8,24.8c0.9,0,1.8,0,2.7,0c2.3-5.6,4.8-11.1,7.2-16.6c1.2-2.8,2.5-5.5,3.5-8.2
		c0.1,3,0.1,19.5,0,24.8c0.9,0.1,1.9,0.1,2.8,0c0-9.1,0-18.2,0-27.3c-1.4,0-2.8,0-4.2,0c-3.5,8.1-7,16.3-10.6,24.4
		c-1.6-3.3-2.9-6.7-4.4-10c-1.8-4.1-3.6-8.2-5.4-12.4c-0.3-0.7-0.6-1.3-0.8-2C94.1,188.4,92.7,188.4,91.3,188.4L91.3,188.4z
		 M139.6,188.4c0,9.1,0,18.2,0,27.4c0.9,0,1.8,0,2.6,0c0-9.1,0-18.2,0-27.4C141.4,188.4,140.5,188.4,139.6,188.4L139.6,188.4z
		 M177.8,214.8c0.2,0.3,0.4,0.7,0.7,0.9c1.2,0,2.3,0,3.5,0c0-9.1,0-18.2,0-27.4c-0.9,0-2.6,0-2.6,0v24.2l-14.8-24.2c0,0-2.4,0-3.7,0
		l0,0c0,9.1,0,18.2,0,27.4c0.8,0,2.6,0,2.6,0v-24.3C163.5,191.4,173,207,177.8,214.8 M79.8,215.8c-0.9,0-1.8,0-2.8,0
		c-0.5-1.2-1-2.4-1.5-3.7c-0.6-1.3-1.1-2.6-1.7-4c-4.9,0-9.8,0-14.7,0c-1.2,2.5-2.2,5.1-3.3,7.6c-0.9,0-1.7,0-2.6,0
		c3.6-8.5,7.3-16.9,10.9-25.4c0.3-0.6,0.6-1.3,0.8-1.9c1,0,2,0,3,0c3.2,7.3,6.3,14.6,9.4,21.9C78.3,212.1,79.1,213.9,79.8,215.8z
		 M72.9,205.9c-0.4-1.2-1-2.4-1.5-3.6c-1.7-3.9-3.2-7.7-4.9-11.5c-2.1,5.1-4.3,10.1-6.4,15.1C64.4,205.9,68.7,206,72.9,205.9z"/>
</g>
</svg>
