<?xml version="1.0" encoding="utf-8"?>
<!-- Generator: Adobe Illustrator 17.1.0, SVG Export Plug-In . SVG Version: 6.00 Build 0)  -->
<!DOCTYPE svg PUBLIC "-//W3C//DTD SVG 1.1//EN" "http://www.w3.org/Graphics/SVG/1.1/DTD/svg11.dtd">
<svg version="1.1" xmlns="http://www.w3.org/2000/svg" xmlns:xlink="http://www.w3.org/1999/xlink" x="0px" y="0px"
	 viewBox="0 0 800 660" enable-background="new 0 0 800 660" xml:space="preserve">
<g id="Layer_2">
		<radialGradient id="dark_1_" cx="399.9813" cy="329.9318" r="395.506" gradientTransform="matrix(0.9639 0 0 0.88 14.4759 39.66)" gradientUnits="userSpaceOnUse">
		<stop  offset="0.5" style="stop-color:#262626"/>
		<stop  offset="1" style="stop-color:#1A1A1A"/>
	</radialGradient>
	<rect id="dark" fill="url(#dark_1_)" width="800" height="660"/>
</g>

<g id="devs">
	<g id="thunderkick">
		<path id="XMLID_2128_" fill="#FFFFFF" d="M196.7,426.4l-40.8,1.3c-0.7,0-1.4,0.3-1.9,0.9c-0.5,0.5-0.7,1.2-0.7,1.9l0.7,11.1
			c0.1,1.4,1.3,2.5,2.6,2.4l11.1-0.1l2.5,52.2c0,0.7,0.4,1.4,0.9,1.8c0.5,0.5,1.2,0.7,1.9,0.7l12.5-0.8l0,0c1.4-0.1,2.5-1.3,2.4-2.7
			l-1.5-51.5l11-0.1c0.7,0,1.4-0.3,1.9-0.8c0.5-0.5,0.7-1.2,0.7-2l-0.8-11.9C199.3,427.5,198.1,426.4,196.7,426.4z M244.3,429.8
			l-12.3-0.7c-1.4,0-2.6,1.1-2.6,2.5l-0.2,27.2l-5.4,1.2l-1.4-30.9c-0.1-1.4-1.2-2.5-2.6-2.5l-12.2,0.3c-0.7,0-1.4,0.3-1.9,0.8
			c-0.5,0.5-0.8,1.2-0.8,1.9l2.2,68.7c0,1.4,1.2,2.6,2.6,2.6l12.2-0.3c0.7,0,1.4-0.3,1.9-0.8c0.5-0.5,0.8-1.2,0.8-1.9l-1.3-23
			l4.8,0.3l0.8,20.6c0,0.7,0.2,1.4,0.7,1.9c0.5,0.5,1.2,0.8,1.9,0.8l12.7,0.9c0,0,0.1,0,0.2,0c1.3-0.1,2.4-1.2,2.5-2.5l0.1-64.4
			c0-0.7-0.2-1.4-0.7-1.9C245.7,430.1,245,429.8,244.3,429.8z M290.1,424l-11.2,0.9c-1.4,0.1-2.4,1.2-2.4,2.6c0,0,0.1,43,0,48.6
			c-0.1,3.3,0.3,8.9-3.3,9.1c-2.5,0.1-3.4-3.6-3.4-8.8c-0.1-5.8,0.4-45.8,0.4-46.3c0-1.3-1-2.5-2.3-2.6l-12.8-1.4
			c-0.7-0.1-1.5,0.2-2,0.7c-0.5,0.5-0.9,1.2-0.9,2c0,0,0.5,50.4,0.5,52.2c0.1,6.5,5.2,18.3,19.4,17.9c15.9-0.4,18.8-9.9,19.7-20.9
			c0.4-4.6,1.2-46.6,1.2-51.2c0-0.7-0.3-1.4-0.8-1.9C291.5,424.2,290.8,424,290.1,424z M339.5,426.8l-11.7,0.6l0,0
			c-0.7,0-1.4,0.4-1.8,0.9c-0.5,0.5-0.7,1.2-0.7,1.9l1.9,32.3l-12.1-33.3c-0.4-1.1-1.5-1.8-2.7-1.7l-11.7,1.3
			c-1.3,0.1-2.4,1.3-2.3,2.6l1.9,63.6c0,1.4,1.1,2.5,2.4,2.6l11.7,0.9c0.7,0.1,1.5-0.2,2-0.7c0.5-0.5,0.8-1.3,0.8-2l-1.8-27.8
			l10.1,28.9c0.4,1,1.3,1.6,2.3,1.7l12.3,0c0.1,0,0.2,0,0.3,0c0.6,0,1.2-0.3,1.7-0.7c0.5-0.5,0.8-1.2,0.8-1.9l-0.8-66.4
			c0-0.7-0.3-1.4-0.8-1.9C340.9,427,340.2,426.8,339.5,426.8z M355.1,425.5c-0.8,0-1.6,0-2.5,0c-1.4,0-2.5,1.1-2.5,2.5l-2.1,66.1
			c0,1.4,1,2.6,2.4,2.7c0.1,0,1.5,0.1,3.9,0.1l0,0c8.2,0,27.8-1.5,32.3-15.3c3.8-11.5,3.2-27.1,2.2-34.6
			C386.9,432.5,375.9,425.5,355.1,425.5z M372.5,469c-1.4,11.2-4.9,11.9-8.7,13.2l1.8-41.5c1.3,0.3,3,0.3,5.2,3.2
			C373.9,448.1,373.9,458.1,372.5,469z M427,485.2l-15.3,1.2L411,472l9.9-0.5c1.3-0.1,2.3-1.1,2.4-2.3l0.9-8.8
			c0.1-0.8-0.2-1.5-0.7-2.1c-0.5-0.6-1.3-0.8-2-0.8l-10.8,0.6v-15.5h15.9h0c1.5,0,2.6-1.2,2.6-2.6c0-0.2,0-0.4-0.1-0.6l-0.9-9.3
			c-0.1-1.4-1.3-2.4-2.7-2.4l-29.1,0.7c-1.4,0-2.6,1.2-2.5,2.6l0.9,65.4c0,1.4,1.2,2.6,2.6,2.6l29.4,0c1.4,0,2.6-1.1,2.6-2.5
			l0.2-8.5c0-0.7-0.3-1.5-0.8-2C428.5,485.4,427.7,485.1,427,485.2z M474.6,446.8c-0.7-9.2-3.8-21.4-23.8-21.4
			c-4.3,0-9.3,0.6-14.9,1.7c-1.2,0.2-2.1,1.3-2.1,2.6l0.9,64c0,1.4,1.1,2.5,2.4,2.6l9.2,0.7c0.7,0.1,1.4-0.2,2-0.7
			c0.5-0.5,0.8-1.2,0.8-1.9l0-20.6l4.7-0.3l5.2,22.1c0.2,1.2,1.3,2.1,2.6,2.1c0.1,0,0.1,0,0.2,0l9.2-0.7c0.7-0.1,1.4-0.4,1.9-1
			c0.4-0.6,0.6-1.3,0.5-2.1l-6.5-24.6C471.3,465.9,475.5,459.6,474.6,446.8z M458.1,455.8c-2.4,2.5-6.4,3.3-9,3.5v-18.9
			c0.8-0.2,1.7-0.3,2.5-0.3c3.5,0,7.8,1.6,8.4,9.1C460.2,452.1,459.6,454.2,458.1,455.8z M509.6,465.6c3.8-5,13.4-16.6,12.4-36.8
			c0-0.7-0.3-1.4-0.9-1.8c-0.5-0.5-1.2-0.7-1.9-0.7l-10.9,0.7c-1.4,0.1-2.5,1.3-2.4,2.8c0.4,5.7-3.4,18-8.9,25.7l0.8-24.9
			c0-0.7-0.3-1.4-0.8-1.9c-0.5-0.5-1.2-0.8-1.9-0.8l-14,0.2c-0.7,0-1.4,0.3-1.9,0.8c-0.5,0.5-0.7,1.2-0.7,1.9l1.4,66.2
			c0,0.7,0.3,1.4,0.9,1.9c0.6,0.5,1.3,0.7,2,0.6l10.9-1.4c1.3-0.2,2.3-1.3,2.3-2.6l0.2-19.4c2.2,1.3,8.7,10.8,9.8,20.1
			c0.2,1.3,1.3,2.3,2.6,2.3l11.5,0c0.1,0,0.1,0,0.2,0c0.6,0,1.2-0.3,1.7-0.8c0.5-0.5,0.8-1.2,0.7-1.9
			C522.7,493.3,518.8,473,509.6,465.6z M542.2,424.9l-12.5,1.6c-1.3,0.2-2.3,1.3-2.3,2.6l-0.1,64.9c0,0.7,0.3,1.4,0.8,1.9
			c0.5,0.5,1.2,0.7,1.9,0.7c0,0,0.1,0,0.1,0l13.6-1c1.4-0.1,2.5-1.3,2.4-2.6l-1-65.5c0-0.8-0.3-1.5-0.9-1.9
			C543.7,425,543,424.8,542.2,424.9z M568.8,426.7c-3.8,0.2-16.2,2.5-17.2,20.7c-0.1,2.3-0.3,4.5-0.4,6.6
			c-0.8,12.4-1.3,21.4,0.3,29.2c1,4.6,4.9,15.5,20.3,15.5c1,0,2,0,3-0.1c6.4-0.5,11.2-2.6,14.2-6.1c4.2-5,3.7-11.5,3.4-14.9
			l-0.1-0.7c-0.1-1.4-1.3-2.5-2.7-2.4l-9.7,0.4c-0.7,0-1.4,0.4-1.9,1c-0.5,0.6-0.7,1.3-0.6,2.1c0.2,1.3,0.4,5.5-1.3,7.5
			c-0.4,0.5-1.2,1.2-3.1,1.3l-0.1,0c-1.4,0-2.5-0.4-3.3-1.3c-1.4-1.5-3-5.1-2.6-14.1c0.1-2.1,0.2-4.5,0.3-7.1
			c0.3-6.7,0.6-14.2,1.2-19l0-0.2c0.5-3.6,1.2-5.1,4.2-5.3c2.2-0.1,3.7,0.3,4.5,1.3c1,1.2,0.9,3.3,0.8,4c-0.1,0.8,0,1.6,0.5,2.2
			c0.5,0.6,1.2,1,2,1l11.7,0.2c1.4,0,2.6-1.1,2.7-2.5c0-0.3,0.2-7.5-5.2-13C585,428.3,578,426.1,568.8,426.7z M646.6,493.1
			c-0.2-0.8-5.2-20.6-15.5-30c5-4.7,15.3-14.1,11.9-35.4c-0.2-1.4-1.5-2.3-2.9-2.2l-13.5,1.5c-0.7,0.1-1.4,0.4-1.8,1
			c-0.4,0.6-0.6,1.3-0.5,2c0,0.2,2.8,15.6-7.7,24.9l0.3-26.3c0-0.7-0.3-1.5-0.9-2c-0.6-0.5-1.3-0.7-2-0.7l-13.5,1.5
			c-1.4,0.2-2.4,1.3-2.3,2.7l1.6,65.7c0,0.7,0.3,1.4,0.9,1.9c0.5,0.4,1.1,0.7,1.8,0.6c0.1,0,0.1,0,0.2,0l11.4-1.3
			c1.3-0.1,2.3-1.2,2.3-2.5l1-20.5c3.6,3.7,9.7,13.3,10.6,21.3c0.2,1.4,1.5,2.4,2.9,2.3l13.5-1.5c0.7-0.1,1.4-0.5,1.8-1.1
			C646.6,494.6,646.8,493.8,646.6,493.1z"/>
		<path id="XMLID_2125_" fill="#FFFFFF" d="M527.5,290.6l9.6-66.9l-40.1-84l-27.2,9.3l-35.5-38.1l-62.8-34.2l-13.7,50.8l-9.7-26.6
			l-48.2,47.1l-27,47.1l-1.2,48.9l-19-9l13,78.3l29.4,50.4l69.3,23.8l56.8,2.1l97.9-35.8l28.2-69.7L527.5,290.6z M485.1,253.4
			l-55.5,1.5l-2,62.4l-3,37l-48.4-0.5v-35.5l-4-62l-58,2.5l-2-60l85.4-0.5l88.4-2.5l1.5,8L485.1,253.4z"/>
	</g>
</g>
</svg>
