<?xml version="1.0" encoding="utf-8"?>
<!-- Generator: Adobe Illustrator 17.1.0, SVG Export Plug-In . SVG Version: 6.00 Build 0)  -->
<!DOCTYPE svg PUBLIC "-//W3C//DTD SVG 1.1//EN" "http://www.w3.org/Graphics/SVG/1.1/DTD/svg11.dtd">
<svg version="1.1" xmlns="http://www.w3.org/2000/svg" xmlns:xlink="http://www.w3.org/1999/xlink" x="0px" y="0px"
	 viewBox="0 0 800 660" enable-background="new 0 0 800 660" xml:space="preserve">
<g id="Layer_2">
		<radialGradient id="light_1_" cx="399.9813" cy="329.9318" r="395.506" gradientTransform="matrix(0.9639 0 0 0.88 14.4759 39.66)" gradientUnits="userSpaceOnUse">
		<stop  offset="0.5" style="stop-color:#FFFFFF"/>
		<stop  offset="1" style="stop-color:#D9D9D9"/>
	</radialGradient>
	<rect id="light" fill="url(#light_1_)" width="800" height="660"/>
</g>

<g id="devs">
	<g id="_x31_x2-gaming_1_">
		<g id="XMLID_564_">
			<path id="XMLID_565_" fill="#008C47" stroke="#316938" stroke-miterlimit="10" d="M188.8,374.2l31.2-43.1l0,0l-31.7-45H209
				l22,29.7l0.1,0.1l21.7-30h5.7l32.2-43.7c-16.9-11.2-37.2-17.7-59-17.7c-58.8,0-106.4,47.2-106.4,105.5
				c0,33.9,16.2,64.1,41.3,83.4l27-39.2H188.8z M182.1,367.2h-21.3c-0.2,0-0.4-0.2-0.4-0.4v-64.2c0-5.1-1.9-6.7-12.4-6.8
				c-0.2,0-0.4-0.2-0.4-0.4V288c0-0.2,0.2-0.4,0.4-0.4H166c12.1,0,16.6,5.7,16.6,16.6c0,23.3,0,58.3,0,62.6
				C182.5,367,182.4,367.2,182.1,367.2z"/>
			<path id="XMLID_568_" fill="#99999B" stroke="#646562" stroke-miterlimit="10" d="M298.5,247.9l-27.8,38h5.4l-31.1,43.1l31.3,45
				h-21.3L233.2,345l-21.1,29.2h-6l-30.7,45.3c16.3,10.1,35.6,16,56.3,16c58.8,0,106.4-47.2,106.4-105.5
				C338.1,296.8,322.6,267.2,298.5,247.9z M325.9,367.2l-48,0.4c0-5.6-0.2-9.6,0-23.1c0-2,2.5-6,5-8.5c9.8-9.6,25.5-18.3,25.5-24.7
				v-7.8c-0.1-3.8-0.9-7.1-5.6-7.1c-8.3,0.1-6.4,5.4-6.4,11.5c0,0.1-0.1,0.3-0.2,0.4l-17.5,13c-0.3,0.2-0.7,0-0.7-0.4
				c-0.2-6.7-1.1-14.4-0.2-18.7c1.8-9.4,10-15.4,24.7-15.3c16.6,0.1,22.7,6.5,23.5,10.9c1.2,6.3,1.2,12.4,0.2,16.8
				c-1.2,5.5-7.8,11.6-18.4,20.3c-6.1,5-10.5,9.6-10.6,11.7c-0.1,2.8,0,7.4,0.1,8.8c0,0.2,0.2,0.4,0.5,0.4h28.1
				c0.3,0,0.5,0.2,0.5,0.5l0,10.4C326.4,367,326.2,367.2,325.9,367.2z"/>
		</g>
		<g id="_x31_x2-gaming">
			<path d="M408.3,292.2v49.2c0,7.3-2.6,13.3-7.9,18c-5.3,4.7-12,7.1-20.3,7.1c-6.2,0-12.5-1.3-18.7-4v-14.2
				c6.1,3.5,11.8,5.2,17.1,5.2c3.9,0,7-1.1,9.5-3.2c2.5-2.1,3.7-4.8,3.7-8.1v-1.9c-3.9,2.6-7.9,4-12,4c-6.8,0-12.3-2.5-16.6-7.5
				c-4.3-5-6.5-11.4-6.5-19.2c0-7.8,2.2-14.2,6.5-19.2c4.3-5,9.8-7.5,16.6-7.5c4.1,0,8.1,1.3,12,4v-2.7H408.3z M373.7,317.6
				c0,3.7,0.9,6.6,2.8,8.9c1.9,2.3,4.3,3.5,7.3,3.5c2.8,0,5.5-1.2,8-3.6v-17.7c-2.5-2.4-5.2-3.6-8-3.6c-3,0-5.4,1.1-7.3,3.4
				C374.6,310.9,373.7,313.9,373.7,317.6z M441.7,343v-3.2c-4.3,2.9-8.9,4.4-13.6,4.4c-4.8,0-8.7-1.5-11.8-4.4
				c-3.1-2.9-4.6-6.6-4.6-11.2c0-5.4,2.3-9.8,6.9-13.2c4.6-3.4,10.5-5.1,17.8-5.1c0.8,0,2.6,0.1,5.3,0.2v-0.9c0-1.8-0.8-3.3-2.3-4.4
				c-1.5-1.1-3.5-1.7-5.8-1.7c-5.7,0-11.5,1.7-17.5,5.2v-13.4c6.4-2.9,12.9-4.4,19.5-4.4c6.6,0,11.8,1.8,15.8,5.5
				c4,3.7,5.9,8.5,5.9,14.3V343H441.7z M428,326.1c0,1.6,0.5,2.9,1.6,4c1.1,1,2.5,1.5,4.3,1.5c2.6,0,5.3-1.2,7.8-3.7v-7.8
				c-2-0.1-3.5-0.2-4.5-0.2c-2.8,0-5,0.6-6.7,1.7C428.8,322.8,428,324.3,428,326.1z M463.7,343v-50.8h16.6v3.2
				c3.9-2.9,8.4-4.4,13.5-4.4c6.2,0,10.9,2.4,14.2,7.3c4.9-4.9,10.5-7.3,16.6-7.3c5.2,0,9.3,1.7,12.5,5.1c3.2,3.4,4.8,7.9,4.8,13.4
				V343h-16.5v-30.9c0-1.9-0.6-3.5-1.8-4.7c-1.2-1.3-2.7-1.9-4.5-1.9c-2.8,0-5.5,1.3-8,3.9V343h-16.6v-30.9c0-2-0.6-3.6-1.7-4.8
				c-1.2-1.2-2.6-1.8-4.5-1.8c-2.8,0-5.5,1.3-8,3.9V343H463.7z M548.2,343v-50.8h16.6V343H548.2z M571.3,343v-50.8h16.6v3.6
				c4.4-3.2,9.1-4.8,13.9-4.8c5.4,0,9.7,1.7,13.2,5.2c3.4,3.5,5.1,8,5.1,13.5V343h-16.6v-30.3c0-2.1-0.7-3.8-2-5.2c-1.3-1.4-3-2-5-2
				c-3.1,0-5.9,1.4-8.6,4.1V343H571.3z M674.8,292.2v49.2c0,7.3-2.6,13.3-7.9,18c-5.3,4.7-12,7.1-20.3,7.1c-6.2,0-12.5-1.3-18.7-4
				v-14.2c6.1,3.5,11.8,5.2,17.1,5.2c3.9,0,7-1.1,9.5-3.2c2.5-2.1,3.7-4.8,3.7-8.1v-1.9c-3.9,2.6-7.9,4-12,4
				c-6.8,0-12.3-2.5-16.6-7.5c-4.3-5-6.5-11.4-6.5-19.2c0-7.8,2.2-14.2,6.5-19.2c4.3-5,9.8-7.5,16.6-7.5c4.1,0,8.1,1.3,12,4v-2.7
				H674.8z M640.1,317.6c0,3.7,0.9,6.6,2.8,8.9c1.9,2.3,4.3,3.5,7.3,3.5c2.8,0,5.5-1.2,8-3.6v-17.7c-2.5-2.4-5.2-3.6-8-3.6
				c-3,0-5.4,1.1-7.3,3.4C641,310.9,640.1,313.9,640.1,317.6z"/>
			<path id="XMLID_587_" fill="#008C47" d="M547.4,278.6c0-2.7,0.8-4.9,2.5-6.6c1.7-1.7,3.9-2.5,6.6-2.5c2.6,0,4.8,0.8,6.5,2.5
				c1.7,1.7,2.5,3.9,2.5,6.5c0,2.6-0.9,4.7-2.6,6.4c-1.7,1.7-3.9,2.5-6.5,2.5c-2.7,0-4.9-0.8-6.6-2.5
				C548.2,283.3,547.4,281.2,547.4,278.6z"/>
		</g>
	</g>
</g>
</svg>
