<?xml version="1.0" encoding="utf-8"?>
<!-- Generator: Adobe Illustrator 17.1.0, SVG Export Plug-In . SVG Version: 6.00 Build 0)  -->
<!DOCTYPE svg PUBLIC "-//W3C//DTD SVG 1.1//EN" "http://www.w3.org/Graphics/SVG/1.1/DTD/svg11.dtd">
<svg version="1.1" id="Layer_1" xmlns="http://www.w3.org/2000/svg" xmlns:xlink="http://www.w3.org/1999/xlink" x="0px" y="0px"
	 viewBox="0 21 240 198" enable-background="new 0 21 240 198" xml:space="preserve">
<g id="devs">
	<path fill="none" stroke="#1E2123" stroke-width="1.5" stroke-miterlimit="10" d="M107.6,97.8c-0.3-2.3-2.3-4.3-4.6-4.5l-19.8-1.4
		c-2.3-0.2-5.5,1.1-7,2.8l-5.8,6.2c-1.5,1.7-2.6,5-2.4,7.3l2.1,19.6c0.3,2.3,2.3,4.3,4.6,4.5l19.8,1.4c2.3,0.2,5.5-1.1,7-2.8
		l5.8-6.2c1.5-1.7,2.6-4.9,2.4-7.3L107.6,97.8z M104.8,119.1c0-0.1,0-0.2,0-0.2c-0.2-1.6,0.3-3.4,1-4c0.6-0.6,1.3,0.2,1.4,1.7
		c0,0.1,0,0.1,0,0.2c0.1,1.6-0.3,3.4-1,4C105.6,121.3,105,120.6,104.8,119.1 M95.2,98c-0.1,0-0.2,0-0.2,0c-1.5-0.2-2.2-0.8-1.4-1.5
		c0.7-0.6,2.4-1.1,3.9-1c0.1,0,0.2,0,0.2,0c1.5,0.2,2.2,0.8,1.4,1.5C98.4,97.7,96.7,98.1,95.2,98 M87.8,90.2c-1.8-2-5.1-2.5-7.4-1.1
		l-15.8,9.6c-2.3,1.4-4.5,4.7-4.8,7.4l-0.9,7.1c-0.4,2.6,0.8,6.5,2.6,8.5l12.2,13.7c1.8,2,5.1,2.5,7.4,1.1l15.8-9.6
		c2.3-1.4,4.5-4.7,4.8-7.4l0.9-7.1c0.4-2.6-0.8-6.5-2.6-8.5L87.8,90.2z M97.8,105.3c-1-1.1-1.9-1.3-2.1-0.6
		c-0.2,0.8,0.5,2.5,1.5,3.8c0.1,0.1,0.1,0.2,0.2,0.2c1,1.1,1.9,1.3,2.1,0.6c0.2-0.8-0.5-2.5-1.5-3.8C98,105.4,97.9,105.4,97.8,105.3
		 M88,102.1c-1-1.1-1.9-1.3-2.1-0.6c-0.2,0.8,0.5,2.5,1.5,3.8c0.1,0.1,0.1,0.2,0.2,0.2c1,1.1,1.9,1.3,2.1,0.6
		c0.2-0.8-0.5-2.6-1.5-3.8C88.1,102.3,88.1,102.2,88,102.1 M91,122.5c-1.1-1.2-2.9-1.5-4.3-0.7c-1.4,0.8-1.7,2.4-0.6,3.6
		c1.1,1.2,3,1.5,4.3,0.7C91.8,125.3,92,123.7,91,122.5 M36.3,132.5c3.1,4.8,10.4,9.4,16.1,10.2l18.2,2.4c5.7,0.8,11.8-3.1,13.6-8.6
		l5.7-17.7c1.7-5.5,0.6-13.9-2.5-18.7l-1.5-2.2c-3.1-4.8-10.4-9.4-16.1-10.2l-18.2-2.4c-5.7-0.8-11.9,3.1-13.6,8.6l-5.7,17.7
		c-1.7,5.5-0.6,13.9,2.5,18.7L36.3,132.5z M40.2,122.1l17.3,2.3c5.5,0.8,11.5-3,13.2-8.3L76,99.4c1.7-5.3-1.4-10.3-6.9-11L52,86.1
		c-5.5-0.8-11.5,3-13.2,8.3l-5.4,16.7C31.6,116.5,34.7,121.4,40.2,122.1 M64.3,100.3c2.2,0.4,4.5-1.1,5.3-3.2
		c0.7-2.1-0.5-4.1-2.6-4.4c-2.2-0.4-4.5,1.1-5.3,3.2C61,98,62.2,100,64.3,100.3 M84.1,135.6l5.4-16.7c1.7-5.3,1.7-11.9-0.2-14.7
		l-5.7-8.8c-1.8-2.8-4.7-0.8-6.4,4.6l-5.4,16.7c-1.7,5.3-1.7,11.9,0.2,14.7l5.7,8.8C79.5,143,82.4,140.9,84.1,135.6 M87.6,115.3
		c0.6-1.9,0.6-4.5,0-5.7c-0.7-1.3-1.8-0.6-2.5,1.4c0,0.1-0.1,0.2-0.1,0.3c-0.6,1.9-0.6,4.5,0,5.7c0.7,1.3,1.8,0.6,2.6-1.4
		C87.5,115.5,87.5,115.4,87.6,115.3 M76.7,126.6c0.6-1.9,0.6-4.5,0-5.7c-0.7-1.3-1.8-0.6-2.5,1.4c0,0.1-0.1,0.2-0.1,0.3
		c-0.6,1.9-0.6,4.5,0,5.7c0.7,1.3,1.8,0.6,2.6-1.4C76.7,126.8,76.7,126.7,76.7,126.6 M52.6,142.3l17.2,2.3c5.5,0.8,8.5-1,6.7-3.8
		l-5.7-8.8c-1.8-2.8-7.8-5.7-13.4-6.4l-17.3-2.3c-5.5-0.7-8.6,1-6.7,3.8l5.7,8.8C41.1,138.7,47.1,141.5,52.6,142.3 M73.3,108.7
		c-1.5-5.6-6.9-12.2-12.1-14.7L39.7,83.5C34.4,81,27.4,82.7,24,87.4L9.7,106.9c-3.4,4.7-5,13-3.5,18.6l1.5,5.8
		c1.5,5.6,6.9,12.2,12.1,14.7l21.5,10.5c5.2,2.5,12.2,0.8,15.6-3.8l14.3-19.6c3.4-4.6,4.9-13,3.5-18.6L73.3,108.7z M65.6,120
		l-17.9-8.7c-5.7-2.8-13.5-0.8-17.3,4.3l-11.8,16.1c-3.8,5.2-2.2,11.7,3.5,14.4l17.9,8.7c5.7,2.8,13.5,0.8,17.3-4.3l11.9-16.1
		C73,129.2,71.4,122.8,65.6,120 M61.7,128c-2.2-1.1-5.3-0.4-6.8,1.6c-1.5,2-1,4.5,1.3,5.7c2.2,1.1,5.3,0.4,6.8-1.6
		C64.5,131.7,63.9,129.2,61.7,128 M31.8,135c-2.2-1.1-5.3-0.4-6.8,1.6c-1.5,2-1,4.5,1.3,5.7c2.2,1.1,5.3,0.4,6.8-1.6
		C34.6,138.7,34,136.1,31.8,135 M22.9,89.7l-11.8,16.1C7.3,111,5,118.2,6,121.9l3.1,11.5c1,3.7,4.9,2.5,8.7-2.6l11.8-16.1
		c3.8-5.2,6.1-12.4,5.1-16.1L31.6,87C30.6,83.3,26.7,84.5,22.9,89.7 M24.5,93.6c-1.4,1.9-2.3,4.6-2,6.1c0.3,1.6,1.7,1.3,3.3-0.6
		c0.1-0.1,0.2-0.2,0.2-0.3c1.4-1.9,2.3-4.6,2-6.1c-0.3-1.6-1.7-1.3-3.3,0.6C24.7,93.4,24.6,93.5,24.5,93.6 M14.7,121.6
		c-1.4,1.9-2.3,4.6-2,6.2c0.3,1.6,1.7,1.3,3.3-0.6c0.1-0.1,0.2-0.2,0.2-0.3c1.4-1.9,2.3-4.6,2-6.2c-0.3-1.6-1.7-1.3-3.3,0.6
		C14.8,121.3,14.7,121.5,14.7,121.6 M59.5,93.7L41.6,85c-5.7-2.8-9.6-2-8.6,1.7l3.1,11.5c1,3.7,6.4,8.9,12.2,11.7l17.9,8.7
		c5.7,2.8,9.6,2,8.6-1.7l-3.1-11.5C70.7,101.7,65.2,96.4,59.5,93.7 M61.3,98.5c-2.2-1.1-3.6-0.8-3.4,0.5c0.2,1.4,2.2,3.5,4.5,4.7
		c0.1,0.1,0.2,0.2,0.3,0.2c2.2,1,3.6,0.8,3.4-0.5c-0.2-1.4-2.2-3.5-4.5-4.7C61.5,98.6,61.5,98.5,61.3,98.5 M45,99.9
		c-2.1-1-3.6-0.8-3.4,0.5c0.2,1.4,2.2,3.5,4.5,4.7c0.1,0.1,0.2,0.2,0.3,0.2c2.1,1.1,3.6,0.8,3.4-0.5c-0.2-1.4-2.2-3.5-4.5-4.7
		C45.2,99.9,45.1,99.9,45,99.9"/>
	<g>
		<g id="XMLID_2302_">
			<g id="XMLID_18_">
				
					<linearGradient id="XMLID_50_" gradientUnits="userSpaceOnUse" x1="111.4525" y1="-405.325" x2="144.1069" y2="-350.4648" gradientTransform="matrix(0.6983 0 0 0.6983 -0.3983 376.6755)">
					<stop  offset="0" style="stop-color:#9E1D22"/>
					<stop  offset="0.8616" style="stop-color:#DA2228"/>
				</linearGradient>
				<path id="XMLID_19_" fill="url(#XMLID_50_)" d="M107.6,97.8c-0.3-2.3-2.3-4.3-4.6-4.5l-19.8-1.4c-2.3-0.2-5.5,1.1-7,2.8
					l-5.8,6.2c-1.5,1.7-2.6,5-2.4,7.3l2.1,19.6c0.3,2.3,2.3,4.3,4.6,4.5l19.8,1.4c2.3,0.2,5.5-1.1,7-2.8l5.8-6.2
					c1.5-1.7,2.6-4.9,2.4-7.3L107.6,97.8z"/>
			</g>
			<path id="XMLID_17_" fill="#FFFFFF" d="M104.8,119.1c0-0.1,0-0.2,0-0.2c-0.2-1.6,0.3-3.4,1-4c0.6-0.6,1.3,0.2,1.4,1.7
				c0,0.1,0,0.1,0,0.2c0.1,1.6-0.3,3.4-1,4C105.6,121.3,105,120.6,104.8,119.1"/>
			<path id="XMLID_16_" fill="#FFFFFF" d="M95.2,98c-0.1,0-0.2,0-0.2,0c-1.5-0.2-2.2-0.8-1.4-1.5c0.7-0.6,2.4-1.1,3.9-1
				c0.1,0,0.2,0,0.2,0c1.5,0.2,2.2,0.8,1.4,1.5C98.4,97.7,96.7,98.1,95.2,98"/>
		</g>
		<g id="XMLID_2292_">
			<g id="XMLID_1_">
				
					<linearGradient id="XMLID_51_" gradientUnits="userSpaceOnUse" x1="95.6846" y1="-353.386" x2="132.5791" y2="-397.8319" gradientTransform="matrix(0.6983 0 0 0.6983 -0.3983 376.6755)">
					<stop  offset="0.4969" style="stop-color:#9E1D22"/>
					<stop  offset="0.6851" style="stop-color:#E02228"/>
				</linearGradient>
				<path id="XMLID_21_" fill="url(#XMLID_51_)" d="M87.8,90.2c-1.8-2-5.1-2.5-7.4-1.1l-15.8,9.6c-2.3,1.4-4.5,4.7-4.8,7.4l-0.9,7.1
					c-0.4,2.6,0.8,6.5,2.6,8.5l12.2,13.7c1.8,2,5.1,2.5,7.4,1.1l15.8-9.6c2.3-1.4,4.5-4.7,4.8-7.4l0.9-7.1c0.4-2.6-0.8-6.5-2.6-8.5
					L87.8,90.2z"/>
			</g>
			<path id="XMLID_2_" fill="#FFFFFF" d="M97.8,105.3c-1-1.1-1.9-1.3-2.1-0.6c-0.2,0.8,0.5,2.5,1.5,3.8c0.1,0.1,0.1,0.2,0.2,0.2
				c1,1.1,1.9,1.3,2.1,0.6c0.2-0.8-0.5-2.5-1.5-3.8C98,105.4,97.9,105.4,97.8,105.3"/>
			<path id="XMLID_3_" fill="#FFFFFF" d="M88,102.1c-1-1.1-1.9-1.3-2.1-0.6c-0.2,0.8,0.5,2.5,1.5,3.8c0.1,0.1,0.1,0.2,0.2,0.2
				c1,1.1,1.9,1.3,2.1,0.6c0.2-0.8-0.5-2.6-1.5-3.8C88.1,102.3,88.1,102.2,88,102.1"/>
			<path id="XMLID_4_" fill="#FFFFFF" d="M91,122.5c-1.1-1.2-2.9-1.5-4.3-0.7c-1.4,0.8-1.7,2.4-0.6,3.6c1.1,1.2,3,1.5,4.3,0.7
				C91.8,125.3,92,123.7,91,122.5"/>
		</g>
		<g id="XMLID_1887_">
			<g id="XMLID_1946_" enable-background="new    ">
				<g id="XMLID_2288_">
					
						<radialGradient id="XMLID_52_" cx="-369.449" cy="41.6465" r="45.0141" gradientTransform="matrix(-0.663 0.219 -0.219 -0.663 -174.5946 223.7375)" gradientUnits="userSpaceOnUse">
						<stop  offset="0.3968" style="stop-color:#EF3731"/>
						<stop  offset="1" style="stop-color:#B42026"/>
					</radialGradient>
					<path id="XMLID_2472_" fill="url(#XMLID_52_)" d="M36.3,132.5c3.1,4.8,10.4,9.4,16.1,10.2l18.2,2.4c5.7,0.8,11.8-3.1,13.6-8.6
						l5.7-17.7c1.7-5.5,0.6-13.9-2.5-18.7l-1.5-2.2c-3.1-4.8-10.4-9.4-16.1-10.2l-18.2-2.4c-5.7-0.8-11.9,3.1-13.6,8.6l-5.7,17.7
						c-1.7,5.5-0.6,13.9,2.5,18.7L36.3,132.5z"/>
				</g>
				<g id="XMLID_2280_" enable-background="new    ">
					<path id="XMLID_2285_" fill="none" d="M40.2,122.1l17.3,2.3c5.5,0.8,11.5-3,13.2-8.3L76,99.4c1.7-5.3-1.4-10.3-6.9-11L52,86.1
						c-5.5-0.8-11.5,3-13.2,8.3l-5.4,16.7C31.6,116.5,34.7,121.4,40.2,122.1"/>
					<path id="XMLID_2282_" fill="none" d="M64.3,100.3c2.2,0.4,4.5-1.1,5.3-3.2c0.7-2.1-0.5-4.1-2.6-4.4c-2.2-0.4-4.5,1.1-5.3,3.2
						C61,98,62.2,100,64.3,100.3"/>
				</g>
				<g id="XMLID_2099_" enable-background="new    ">
					<path id="XMLID_2277_" fill="none" d="M84.1,135.6l5.4-16.7c1.7-5.3,1.7-11.9-0.2-14.7l-5.7-8.8c-1.8-2.8-4.7-0.8-6.4,4.6
						l-5.4,16.7c-1.7,5.3-1.7,11.9,0.2,14.7l5.7,8.8C79.5,143,82.4,140.9,84.1,135.6"/>
					<path id="XMLID_2276_" fill="#FFFFFF" d="M87.6,115.3c0.6-1.9,0.6-4.5,0-5.7c-0.7-1.3-1.8-0.6-2.5,1.4c0,0.1-0.1,0.2-0.1,0.3
						c-0.6,1.9-0.6,4.5,0,5.7c0.7,1.3,1.8,0.6,2.6-1.4C87.5,115.5,87.5,115.4,87.6,115.3"/>
					<path id="XMLID_2275_" fill="#FFFFFF" d="M76.7,126.6c0.6-1.9,0.6-4.5,0-5.7c-0.7-1.3-1.8-0.6-2.5,1.4c0,0.1-0.1,0.2-0.1,0.3
						c-0.6,1.9-0.6,4.5,0,5.7c0.7,1.3,1.8,0.6,2.6-1.4C76.7,126.8,76.7,126.7,76.7,126.6"/>
				</g>
				<g id="XMLID_1948_">
					<path id="XMLID_2096_" fill="none" d="M52.6,142.3l17.2,2.3c5.5,0.8,8.5-1,6.7-3.8l-5.7-8.8c-1.8-2.8-7.8-5.7-13.4-6.4
						l-17.3-2.3c-5.5-0.7-8.6,1-6.7,3.8l5.7,8.8C41.1,138.7,47.1,141.5,52.6,142.3"/>
				</g>
			</g>
		</g>
		<g id="XMLID_2470_">
			<g id="XMLID_1514_">
				
					<radialGradient id="XMLID_53_" cx="135.0424" cy="-90" r="120.8711" gradientTransform="matrix(0.3 0 0 -0.3 -7.629395e-006 93)" gradientUnits="userSpaceOnUse">
					<stop  offset="0.3968" style="stop-color:#EF3731"/>
					<stop  offset="1" style="stop-color:#B42026"/>
				</radialGradient>
				<path id="XMLID_2390_" fill="url(#XMLID_53_)" d="M73.3,108.7c-1.5-5.6-6.9-12.2-12.1-14.7L39.7,83.5C34.4,81,27.4,82.7,24,87.4
					L9.7,106.9c-3.4,4.7-5,13-3.5,18.6l1.5,5.8c1.5,5.6,6.9,12.2,12.1,14.7l21.5,10.5c5.2,2.5,12.2,0.8,15.6-3.8l14.3-19.6
					c3.4-4.6,4.9-13,3.5-18.6L73.3,108.7z"/>
			</g>
			<g id="XMLID_1344_">
				
					<radialGradient id="XMLID_54_" cx="101.9095" cy="-359.4182" r="80.2632" gradientTransform="matrix(0.6983 0 0 0.6983 -0.3983 376.6755)" gradientUnits="userSpaceOnUse">
					<stop  offset="0.1791" style="stop-color:#B42026"/>
					<stop  offset="1" style="stop-color:#DA2228"/>
				</radialGradient>
				<path id="XMLID_1385_" fill="url(#XMLID_54_)" d="M65.6,120l-17.9-8.7c-5.7-2.8-13.5-0.8-17.3,4.3l-11.8,16.1
					c-3.8,5.2-2.2,11.7,3.5,14.4l17.9,8.7c5.7,2.8,13.5,0.8,17.3-4.3l11.9-16.1C73,129.2,71.4,122.8,65.6,120"/>
				
					<linearGradient id="XMLID_55_" gradientUnits="userSpaceOnUse" x1="87.9188" y1="-345.6358" x2="81.8865" y2="-356.0841" gradientTransform="matrix(0.6983 0 0 0.6983 -0.3983 376.6755)">
					<stop  offset="0" style="stop-color:#FFFFFF"/>
					<stop  offset="0" style="stop-color:#B0B8B8"/>
					<stop  offset="0.6488" style="stop-color:#FFFFFF"/>
					<stop  offset="1" style="stop-color:#FFFFFF"/>
					<stop  offset="1" style="stop-color:#FFFFFF"/>
				</linearGradient>
				<path id="XMLID_1384_" fill="url(#XMLID_55_)" d="M61.7,128c-2.2-1.1-5.3-0.4-6.8,1.6c-1.5,2-1,4.5,1.3,5.7
					c2.2,1.1,5.3,0.4,6.8-1.6C64.5,131.7,63.9,129.2,61.7,128"/>
				
					<linearGradient id="XMLID_56_" gradientUnits="userSpaceOnUse" x1="37.5653" y1="-335.2552" x2="36.3187" y2="-347.1147" gradientTransform="matrix(0.6981 1.211061e-002 -1.211061e-002 0.6981 -0.9466 376.3615)">
					<stop  offset="0" style="stop-color:#FFFFFF"/>
					<stop  offset="0" style="stop-color:#B0B8B8"/>
					<stop  offset="0.6488" style="stop-color:#FFFFFF"/>
					<stop  offset="1" style="stop-color:#FFFFFF"/>
					<stop  offset="1" style="stop-color:#FFFFFF"/>
				</linearGradient>
				<path id="XMLID_1356_" fill="url(#XMLID_56_)" d="M31.8,135c-2.2-1.1-5.3-0.4-6.8,1.6c-1.5,2-1,4.5,1.3,5.7
					c2.2,1.1,5.3,0.4,6.8-1.6C34.6,138.7,34,136.1,31.8,135"/>
			</g>
			<g id="XMLID_1140_">
				
					<linearGradient id="XMLID_57_" gradientUnits="userSpaceOnUse" x1="15.9996" y1="-389.5329" x2="49.7479" y2="-370.0482" gradientTransform="matrix(0.6983 0 0 0.6983 -0.3983 376.6755)">
					<stop  offset="0" style="stop-color:#9E1D22"/>
					<stop  offset="0.5215" style="stop-color:#DA2228"/>
				</linearGradient>
				<path id="XMLID_1210_" fill="url(#XMLID_57_)" d="M22.9,89.7l-11.8,16.1C7.3,111,5,118.2,6,121.9l3.1,11.5
					c1,3.7,4.9,2.5,8.7-2.6l11.8-16.1c3.8-5.2,6.1-12.4,5.1-16.1L31.6,87C30.6,83.3,26.7,84.5,22.9,89.7"/>
				<path id="XMLID_1208_" fill="#FFFFFF" d="M24.5,93.6c-1.4,1.9-2.3,4.6-2,6.1c0.3,1.6,1.7,1.3,3.3-0.6c0.1-0.1,0.2-0.2,0.2-0.3
					c1.4-1.9,2.3-4.6,2-6.1c-0.3-1.6-1.7-1.3-3.3,0.6C24.7,93.4,24.6,93.5,24.5,93.6"/>
				<path id="XMLID_1205_" fill="#FFFFFF" d="M14.7,121.6c-1.4,1.9-2.3,4.6-2,6.2c0.3,1.6,1.7,1.3,3.3-0.6c0.1-0.1,0.2-0.2,0.2-0.3
					c1.4-1.9,2.3-4.6,2-6.2c-0.3-1.6-1.7-1.3-3.3,0.6C14.8,121.3,14.7,121.5,14.7,121.6"/>
			</g>
			<g id="XMLID_885_">
				
					<radialGradient id="XMLID_58_" cx="55.3226" cy="-386.8279" r="43.2924" gradientTransform="matrix(0.6983 0 0 0.6983 -0.3983 376.6755)" gradientUnits="userSpaceOnUse">
					<stop  offset="0.1932" style="stop-color:#F15A59"/>
					<stop  offset="0.8498" style="stop-color:#D52328"/>
				</radialGradient>
				<path id="XMLID_1129_" fill="url(#XMLID_58_)" d="M59.5,93.7L41.6,85c-5.7-2.8-9.6-2-8.6,1.7l3.1,11.5c1,3.7,6.4,8.9,12.2,11.7
					l17.9,8.7c5.7,2.8,9.6,2,8.6-1.7l-3.1-11.5C70.7,101.7,65.2,96.4,59.5,93.7"/>
				<path id="XMLID_887_" fill="#FFFFFF" d="M61.3,98.5c-2.2-1.1-3.6-0.8-3.4,0.5c0.2,1.4,2.2,3.5,4.5,4.7c0.1,0.1,0.2,0.2,0.3,0.2
					c2.2,1,3.6,0.8,3.4-0.5c-0.2-1.4-2.2-3.5-4.5-4.7C61.5,98.6,61.5,98.5,61.3,98.5"/>
				<path id="XMLID_886_" fill="#FFFFFF" d="M45,99.9c-2.1-1-3.6-0.8-3.4,0.5c0.2,1.4,2.2,3.5,4.5,4.7c0.1,0.1,0.2,0.2,0.3,0.2
					c2.1,1.1,3.6,0.8,3.4-0.5c-0.2-1.4-2.2-3.5-4.5-4.7C45.2,99.9,45.1,99.9,45,99.9"/>
			</g>
		</g>
	</g>
	<g id="XMLID_2323_">
		<path id="XMLID_2329_" fill="#FFFFFF" stroke="#010101" stroke-miterlimit="10" d="M138.9,121.9c-0.5-0.1-3.5-0.2-7.5-0.2
			c-4.1-0.1-9.2-0.2-14-0.2h-1.6l-0.6-1.5c3-2.7,12.4-10,12.4-15.8c0-5.6-6.6-6.5-10.5-6.7l1.3-7.1c13.8,1.1,19.2,6.4,19.2,11.8
			c0,6.5-6.3,10.5-8.1,11.8v0.4l9.4-0.5v8L138.9,121.9L138.9,121.9z"/>
		<path id="XMLID_2331_" fill="#FFFFFF" stroke="#010101" stroke-miterlimit="10" d="M148.7,100.9c0-1.3-0.1-8.9-0.2-9.8
			c6.2,0,9.5,0.1,13.2,0.5c8.9,1.1,10.1,4.7,10.1,7.1c0,1.6-0.9,4.2-5.4,6.4v0.3c3,0.5,6.7,2.5,6.7,6.6c0,4.9-6.5,9.9-20.6,9.9h-4.1
			c0.2-2.3,0.2-15.3,0.2-16.1L148.7,100.9L148.7,100.9L148.7,100.9z M157.6,104c1.8,0,4.9-1.7,4.9-4.9c0-2.8-3.1-3.3-4.9-3.2V104z
			 M157.6,116.5c2.3,0,5.9-1.9,5.9-4.3c0-2.7-3-4.2-5.9-4V116.5z"/>
		<path id="XMLID_2399_" fill="#FFFFFF" stroke="#010101" stroke-miterlimit="10" d="M183.8,121.5c0.1-1,0.2-5.5,0.2-6.1v-1.9
			c0-5.5-2.4-10-5.6-12c-1.7-1.1-3.5-1.8-4.9-2.3l3.3-8.8c2.9,0.9,5.8,2.3,8,4.5c1.6,1.6,3.1,3.8,4.2,7.1h0.4
			c0.9-2.9,2.7-5.1,4.7-7.1c2-2,4.7-3.6,8-4.5l2.7,8.8c-1.9,0.4-4.5,1.6-6.5,3.2c-2.5,2.1-4.8,6.1-4.8,11v2.7c0,0.5,0.2,4.4,0.2,5.3
			L183.8,121.5C183.8,121.4,183.8,121.5,183.8,121.5z"/>
		<path id="XMLID_2401_" fill="#FFFFFF" stroke="#010101" stroke-miterlimit="10" d="M231.6,121.9c-0.5-0.1-3.5-0.2-7.5-0.2
			c-4.1-0.1-9.2-0.2-14-0.2h-1.6l-0.6-1.5c3-2.7,12.5-10,12.5-15.8c0-5.6-6.6-6.5-10.5-6.7l1.3-7.1c13.8,1.1,19.2,6.4,19.2,11.8
			c0,6.5-6.3,10.5-8.1,11.8v0.4l9.4-0.5L231.6,121.9L231.6,121.9z"/>
	</g>
	<g id="XMLID_2289_">
		<path id="XMLID_2290_" fill="#EC2227" stroke="#010101" stroke-width="0.5" stroke-miterlimit="10" d="M122.3,144.8v-2.1h10.5
			v12.6h-3.2V153c-0.8,0.8-1.8,1.3-2.9,1.8c-1.1,0.4-2.3,0.6-3.6,0.6c-0.4,0-0.9,0-1.6-0.1c-0.6-0.1-1.3-0.2-2-0.4
			c-0.7-0.2-1.3-0.6-2-1.1c-0.7-0.5-1.3-1.2-1.8-2.1c-0.5-0.9-1-2-1.3-3.4c-0.4-1.4-0.5-3-0.5-4.9c0-2.4,0.2-4.4,0.7-6.1
			c0.4-1.7,1.1-3,1.9-4c0.9-1.1,1.8-1.8,3-2.3c1.2-0.5,2.5-0.7,4.1-0.7c1.3,0,2.5,0.2,3.4,0.5c1,0.4,1.8,0.8,2.4,1.4
			c0.6,0.6,1.1,1.3,1.4,2.1s0.5,1.7,0.5,2.6h-3.2c0.1-0.5,0-1.1-0.2-1.6c-0.2-0.5-0.4-1-0.8-1.5c-0.4-0.4-0.9-0.8-1.4-1.1
			c-0.5-0.3-1.3-0.4-2-0.4c-1.1,0-2,0.2-2.7,0.5c-0.8,0.4-1.4,0.9-1.8,1.4c-0.5,0.5-0.9,1.3-1.1,2c-0.3,0.8-0.5,1.6-0.6,2.3
			c-0.2,0.8-0.2,1.6-0.3,2.3c0,0.8-0.1,1.4-0.1,2c0,0.5,0,1.2,0.1,1.9c0,0.7,0.2,1.5,0.2,2.3c0.2,0.8,0.4,1.5,0.5,2.3
			c0.2,0.8,0.6,1.4,1.1,2c0.5,0.5,1.1,1.1,1.8,1.4c0.7,0.4,1.6,0.5,2.5,0.5c0.8,0,1.5-0.2,2.3-0.4c0.8-0.2,1.4-0.6,2-1.2
			c0.5-0.5,1.1-1.2,1.5-2.1c0.4-0.9,0.5-1.9,0.5-3.1v-1.6L122.3,144.8L122.3,144.8z"/>
		<path id="XMLID_2294_" fill="#EC2227" stroke="#010101" stroke-width="0.5" stroke-miterlimit="10" d="M156.5,154.8h-3.5l-2.7-7.1
			h-9.4l-2.7,7.1h-3.5l10.9-26.2L156.5,154.8z M141.8,145.6h7.8l-4-9.8L141.8,145.6z"/>
		<path id="XMLID_2303_" fill="#EC2227" stroke="#010101" stroke-width="0.5" stroke-miterlimit="10" d="M174.7,130.6h3.2v24.2h-3.2
			v-18.4h-0.1l-6.4,11.8l-6.3-11.8l-0.1,0.1v18.4h-3.2v-24.2h3.1l6.5,12L174.7,130.6z"/>
		<path id="XMLID_2310_" fill="#EC2227" stroke="#010101" stroke-width="0.5" stroke-miterlimit="10" d="M192.4,132.7h-4.2v20h4.2
			v2.1h-11.6v-2.1h4.2v-20h-4.2v-2.1h11.6V132.7z"/>
		<path id="XMLID_2315_" fill="#EC2227" stroke="#010101" stroke-width="0.5" stroke-miterlimit="10" d="M195.8,130.6h3.7l9.4,18.1
			h0.2v-18.1h3.2v24.5h-3l-10.1-19.5l-0.1,0.1v19.2h-3.2L195.8,130.6L195.8,130.6L195.8,130.6z"/>
		<path id="XMLID_2321_" fill="#EC2227" stroke="#010101" stroke-width="0.5" stroke-miterlimit="10" d="M223.3,144.8v-2.1h10.5
			v12.6h-3.2V153c-0.8,0.8-1.8,1.3-2.9,1.8c-1.1,0.4-2.3,0.6-3.6,0.6c-0.4,0-0.9,0-1.6-0.1c-0.6-0.1-1.3-0.2-2-0.4s-1.3-0.6-2-1.1
			c-0.7-0.5-1.3-1.2-1.8-2.1c-0.5-0.9-1-2-1.3-3.4c-0.4-1.3-0.5-3-0.5-4.9c0-2.4,0.2-4.4,0.7-6.1c0.4-1.7,1.1-3,1.9-4
			c0.9-1.1,1.8-1.8,3-2.3c1.2-0.5,2.5-0.7,4.1-0.7c1.3,0,2.5,0.2,3.4,0.5c1,0.4,1.8,0.8,2.4,1.4c0.6,0.6,1.1,1.3,1.4,2.1
			c0.3,0.8,0.5,1.7,0.5,2.6h-3.2c0.1-0.5,0-1.1-0.2-1.6c-0.2-0.5-0.4-1-0.8-1.5c-0.4-0.4-0.9-0.8-1.4-1.1c-0.5-0.3-1.3-0.4-2-0.4
			c-1.1,0-2,0.2-2.7,0.5c-0.8,0.4-1.4,0.9-1.8,1.4c-0.5,0.5-0.9,1.3-1.1,2c-0.3,0.8-0.5,1.6-0.6,2.3c-0.1,0.7-0.2,1.6-0.3,2.3
			c0,0.8-0.1,1.4-0.1,2c0,0.5,0,1.2,0.1,1.9c0,0.7,0.2,1.5,0.2,2.3c0.2,0.8,0.4,1.5,0.5,2.3c0.2,0.8,0.6,1.4,1.1,2
			c0.5,0.5,1.1,1.1,1.8,1.4c0.7,0.4,1.6,0.5,2.5,0.5c0.8,0,1.5-0.2,2.3-0.4c0.8-0.2,1.4-0.6,2-1.2c0.5-0.5,1.1-1.2,1.5-2.1
			c0.4-0.9,0.5-1.9,0.5-3.1v-1.6L223.3,144.8L223.3,144.8z"/>
	</g>
</g>
</svg>
