<?xml version="1.0" encoding="utf-8"?>
<!-- Generator: Adobe Illustrator 17.1.0, SVG Export Plug-In . SVG Version: 6.00 Build 0)  -->
<!DOCTYPE svg PUBLIC "-//W3C//DTD SVG 1.1//EN" "http://www.w3.org/Graphics/SVG/1.1/DTD/svg11.dtd">
<svg version="1.1" xmlns="http://www.w3.org/2000/svg" xmlns:xlink="http://www.w3.org/1999/xlink" x="0px" y="0px"
	 viewBox="0 0 800 660" enable-background="new 0 0 800 660" xml:space="preserve">
<g id="Layer_2">
	
		<radialGradient id="SVGID_1_" cx="399.9813" cy="329.9318" r="395.506" gradientTransform="matrix(0.9639 0 0 0.88 14.4759 39.66)" gradientUnits="userSpaceOnUse">
		<stop  offset="0.5" style="stop-color:#262626"/>
		<stop  offset="1" style="stop-color:#1A1A1A"/>
	</radialGradient>
	<rect fill="url(#SVGID_1_)" width="800" height="660"/>
</g>
<g id="Layer_1">
	<path id="real-money-slots_1_" fill="#FFFFFF" d="M276.2,367.2V204.3 M344.5,367.2V204.3 M412.7,204.3v162.9 M480.9,367.2V204.3
		 M396.1,203.9H361c-2.3,0-4.2,1.9-4.2,4.2v35.1c0,2.3,1.9,4.2,4.2,4.2h35.1c2.3,0,4.2-1.9,4.2-4.2v-35.1
		C400.3,205.8,398.4,203.9,396.1,203.9 M396.1,201.1c3.9,0,7,3.2,7,7v35.1c0,3.9-3.2,7-7,7H361c-3.9,0-7-3.2-7-7v-35.1
		c0-3.9,3.2-7,7-7H396.1L396.1,201.1z M396.1,264.3H361c-2.3,0-4.2,1.9-4.2,4.2v35.1c0,2.3,1.9,4.2,4.2,4.2h35.1
		c2.3,0,4.2-1.9,4.2-4.2v-35.1C400.3,266.2,398.4,264.3,396.1,264.3 M396.1,261.5c3.9,0,7,3.2,7,7v35.1c0,3.9-3.2,7-7,7H361
		c-3.9,0-7-3.2-7-7v-35.1c0-3.9,3.2-7,7-7H396.1L396.1,261.5z M396.1,325.5H361c-2.3,0-4.2,1.9-4.2,4.2v35.1c0,2.3,1.9,4.2,4.2,4.2
		h35.1c2.3,0,4.2-1.9,4.2-4.2v-35.1C400.3,327.3,398.4,325.5,396.1,325.5 M396.1,322.6c3.9,0,7,3.2,7,7v35.1c0,3.9-3.2,7-7,7H361
		c-3.9,0-7-3.2-7-7v-35.1c0-3.9,3.2-7,7-7H396.1L396.1,322.6z M328,203.9H293c-2.3,0-4.2,1.9-4.2,4.2v35.1c0,2.3,1.9,4.2,4.2,4.2
		H328c2.3,0,4.2-1.9,4.2-4.2v-35.1C332.2,205.8,330.3,203.9,328,203.9 M328,201.1c3.9,0,7,3.2,7,7v35.1c0,3.9-3.2,7-7,7H293
		c-3.9,0-7-3.2-7-7v-35.1c0-3.9,3.2-7,7-7H328L328,201.1z M328,264.3H293c-2.3,0-4.2,1.9-4.2,4.2v35.1c0,2.3,1.9,4.2,4.2,4.2H328
		c2.3,0,4.2-1.9,4.2-4.2v-35.1C332.2,266.2,330.3,264.3,328,264.3 M328,261.5c3.9,0,7,3.2,7,7v35.1c0,3.9-3.2,7-7,7H293
		c-3.9,0-7-3.2-7-7v-35.1c0-3.9,3.2-7,7-7H328L328,261.5z M328,325.5H293c-2.3,0-4.2,1.9-4.2,4.2v35.1c0,2.3,1.9,4.2,4.2,4.2H328
		c2.3,0,4.2-1.9,4.2-4.2v-35.1C332.2,327.3,330.3,325.5,328,325.5 M328,322.6c3.9,0,7,3.2,7,7v35.1c0,3.9-3.2,7-7,7H293
		c-3.9,0-7-3.2-7-7v-35.1c0-3.9,3.2-7,7-7H328L328,322.6z M259.9,203.9h-35.1c-2.3,0-4.2,1.9-4.2,4.2v35.1c0,2.3,1.9,4.2,4.2,4.2
		h35.1c2.3,0,4.2-1.9,4.2-4.2v-35.1C264.2,205.8,262.3,203.9,259.9,203.9 M259.9,201.1c3.9,0,7,3.2,7,7v35.1c0,3.9-3.2,7-7,7h-35.1
		c-3.9,0-7-3.2-7-7v-35.1c0-3.9,3.2-7,7-7H259.9L259.9,201.1z M259.9,264.3h-35.1c-2.3,0-4.2,1.9-4.2,4.2v35.1
		c0,2.3,1.9,4.2,4.2,4.2h35.1c2.3,0,4.2-1.9,4.2-4.2v-35.1C264.2,266.2,262.3,264.3,259.9,264.3 M259.9,261.5c3.9,0,7,3.2,7,7v35.1
		c0,3.9-3.2,7-7,7h-35.1c-3.9,0-7-3.2-7-7v-35.1c0-3.9,3.2-7,7-7H259.9L259.9,261.5z M259.9,325.5h-35.1c-2.3,0-4.2,1.9-4.2,4.2
		v35.1c0,2.3,1.9,4.2,4.2,4.2h35.1c2.3,0,4.2-1.9,4.2-4.2v-35.1C264.2,327.3,262.3,325.5,259.9,325.5 M259.9,322.6c3.9,0,7,3.2,7,7
		v35.1c0,3.9-3.2,7-7,7h-35.1c-3.9,0-7-3.2-7-7v-35.1c0-3.9,3.2-7,7-7H259.9L259.9,322.6z M464.2,203.9h-35.1
		c-2.3,0-4.2,1.9-4.2,4.2v35.1c0,2.3,1.9,4.2,4.2,4.2h35.1c2.3,0,4.2-1.9,4.2-4.2v-35.1C468.4,205.8,466.5,203.9,464.2,203.9
		 M464.2,201.1c3.9,0,7,3.2,7,7v35.1c0,3.9-3.2,7-7,7h-35.1c-3.9,0-7-3.2-7-7v-35.1c0-3.9,3.2-7,7-7H464.2L464.2,201.1z
		 M464.2,264.3h-35.1c-2.3,0-4.2,1.9-4.2,4.2v35.1c0,2.3,1.9,4.2,4.2,4.2h35.1c2.3,0,4.2-1.9,4.2-4.2v-35.1
		C468.4,266.2,466.5,264.3,464.2,264.3 M464.2,261.5c3.9,0,7,3.2,7,7v35.1c0,3.9-3.2,7-7,7h-35.1c-3.9,0-7-3.2-7-7v-35.1
		c0-3.9,3.2-7,7-7H464.2L464.2,261.5z M464.2,325.5h-35.1c-2.3,0-4.2,1.9-4.2,4.2v35.1c0,2.3,1.9,4.2,4.2,4.2h35.1
		c2.3,0,4.2-1.9,4.2-4.2v-35.1C468.4,327.3,466.5,325.5,464.2,325.5 M464.2,322.6c3.9,0,7,3.2,7,7v35.1c0,3.9-3.2,7-7,7h-35.1
		c-3.9,0-7-3.2-7-7v-35.1c0-3.9,3.2-7,7-7H464.2L464.2,322.6z M532.3,203.9h-35.1c-2.3,0-4.2,1.9-4.2,4.2v35.1
		c0,2.3,1.9,4.2,4.2,4.2h35.1c2.3,0,4.2-1.9,4.2-4.2v-35.1C536.5,205.8,534.6,203.9,532.3,203.9 M532.3,201.1c3.9,0,7,3.2,7,7v35.1
		c0,3.9-3.2,7-7,7h-35.1c-3.9,0-7-3.2-7-7v-35.1c0-3.9,3.2-7,7-7H532.3L532.3,201.1z M532.3,264.3h-35.1c-2.3,0-4.2,1.9-4.2,4.2
		v35.1c0,2.3,1.9,4.2,4.2,4.2h35.1c2.3,0,4.2-1.9,4.2-4.2v-35.1C536.5,266.2,534.6,264.3,532.3,264.3 M532.3,261.5c3.9,0,7,3.2,7,7
		v35.1c0,3.9-3.2,7-7,7h-35.1c-3.9,0-7-3.2-7-7v-35.1c0-3.9,3.2-7,7-7H532.3L532.3,261.5z M532.3,325.5h-35.1
		c-2.3,0-4.2,1.9-4.2,4.2v35.1c0,2.3,1.9,4.2,4.2,4.2h35.1c2.3,0,4.2-1.9,4.2-4.2v-35.1C536.5,327.3,534.6,325.5,532.3,325.5
		 M532.3,322.6c3.9,0,7,3.2,7,7v35.1c0,3.9-3.2,7-7,7h-35.1c-3.9,0-7-3.2-7-7v-35.1c0-3.9,3.2-7,7-7H532.3L532.3,322.6z
		 M386.3,213.5l-2.8,12.7l-2.8-12.2h-4.9l-2.7,12l-2.7-12.6l-7.8,0.6l5.5,25h7.1l3-13.2l3.1,13.2h7l5.6-25L386.3,213.5z M455,273.8
		l-2.8,12.7l-2.8-12.2h-4.9l-2.7,12l-2.7-12.6l-7.8,0.6l5.5,25h7.1l3-13.2l3.1,13.2h7l5.6-25L455,273.8z M326,279.7
		c0,1.3-1,2.4-2.2,2.4c0,0,0,0-0.1,0l-3,13.8h-20l-3-13.8c0,0,0,0-0.1,0c-1.2,0-2.2-1.1-2.2-2.4c0-1.3,1-2.4,2.2-2.4
		c1.2,0,2.2,1.1,2.2,2.4c0,0.9-0.4,1.6-1,2c1.3,2,3.2,4.3,5.1,5c2.5,0.9,4.9-4.5,6.1-7.7c-0.9-0.3-1.5-1.2-1.5-2.3
		c0-1.3,1-2.4,2.2-2.4c1.2,0,2.2,1.1,2.2,2.4c0,1-0.6,1.9-1.5,2.3c1.2,3.2,3.5,8.6,6.1,7.7c1.9-0.7,3.8-3,5.1-5c-0.6-0.4-1-1.2-1-2
		c0-1.3,1-2.4,2.2-2.4C325,277.3,326,278.4,326,279.7z M300.9,299h19.8v-2.7h-19.8V299z M462.2,340.8c0,1.3-1,2.4-2.2,2.4
		c0,0,0,0-0.1,0l-3,13.8h-20l-3-13.8c0,0,0,0-0.1,0c-1.2,0-2.2-1.1-2.2-2.4c0-1.3,1-2.4,2.2-2.4c1.2,0,2.2,1.1,2.2,2.4
		c0,0.9-0.4,1.6-1,2c1.3,2,3.2,4.3,5.1,5c2.5,0.9,4.9-4.5,6.1-7.7c-0.9-0.3-1.5-1.2-1.5-2.3c0-1.3,1-2.4,2.2-2.4
		c1.2,0,2.2,1.1,2.2,2.4c0,1-0.6,1.9-1.5,2.3c1.2,3.2,3.5,8.6,6.1,7.7c1.9-0.7,3.8-3,5.1-5c-0.6-0.4-1-1.2-1-2c0-1.3,1-2.4,2.2-2.4
		C461.2,338.4,462.2,339.5,462.2,340.8z M437,360.2h19.8v-2.7H437V360.2z M530,218.7c0,1.3-1,2.4-2.2,2.4c0,0,0,0-0.1,0l-3,13.8h-20
		l-3-13.8c0,0,0,0-0.1,0c-1.2,0-2.2-1.1-2.2-2.4c0-1.3,1-2.4,2.2-2.4c1.2,0,2.2,1.1,2.2,2.4c0,0.9-0.4,1.6-1,2c1.3,2,3.2,4.3,5.1,5
		c2.5,0.9,4.9-4.5,6.1-7.7c-0.9-0.3-1.5-1.2-1.5-2.3c0-1.3,1-2.4,2.2-2.4c1.2,0,2.2,1.1,2.2,2.4c0,1-0.6,1.9-1.5,2.3
		c1.2,3.2,3.5,8.6,6.1,7.7c1.9-0.7,3.8-3,5.1-5c-0.6-0.4-1-1.2-1-2c0-1.3,1-2.4,2.2-2.4C529,216.3,530,217.4,530,218.7z M504.8,238
		h19.8v-2.7h-19.8V238z M514.7,271.9c-7.7,0-13.9,6.2-13.9,13.9c0,7.7,6.2,13.9,13.9,13.9c7.7,0,13.9-6.2,13.9-13.9
		C528.7,278.1,522.4,271.9,514.7,271.9 M514.7,269.9c8.8,0,15.9,7.1,15.9,15.9c0,8.8-7.1,15.9-15.9,15.9s-15.9-7.1-15.9-15.9
		C498.8,277,506,269.9,514.7,269.9L514.7,269.9z M526.7,285.8c0,6.6-5.3,11.9-11.9,11.9c-6.6,0-11.9-5.3-11.9-11.9
		c0-6.6,5.3-11.9,11.9-11.9C521.3,273.9,526.7,279.2,526.7,285.8z M520.3,288.6c0-0.9-0.2-1.6-0.6-2.2c-0.4-0.6-0.9-1.1-1.5-1.5
		c-0.6-0.4-1.5-0.7-2.6-1.2c-1-0.4-1.7-0.7-2-0.9c-0.3-0.3-0.5-0.6-0.5-1.1c0-0.5,0.2-0.9,0.5-1.2c0.3-0.3,0.7-0.5,1.3-0.5
		c1.1,0,1.8,0.7,2.3,2.2l2.6-1.1c-0.6-2.1-2-3.3-4.1-3.6v-1.7h-1.9v1.7c-1.4,0.2-2.4,0.7-3.1,1.6c-0.6,0.9-1,1.9-1,3
		c0,0.8,0.2,1.6,0.5,2.2c0.4,0.6,0.8,1.1,1.4,1.5c0.6,0.4,1.4,0.7,2.4,1.1c1.2,0.4,1.9,0.7,2.2,1c0.3,0.3,0.5,0.7,0.5,1.2
		c0,0.5-0.2,0.9-0.5,1.3c-0.3,0.4-0.9,0.5-1.6,0.5c-1.5,0-2.4-0.8-2.7-2.5l-2.9,0.8c0.6,2.6,2.1,4,4.6,4.3v2.2h1.9v-2.2
		c1.5-0.2,2.6-0.7,3.4-1.5C519.9,291.1,520.3,290,520.3,288.6z M310.5,333.3c-7.7,0-13.9,6.2-13.9,13.9c0,7.7,6.2,13.9,13.9,13.9
		s13.9-6.2,13.9-13.9C324.4,339.5,318.2,333.3,310.5,333.3 M310.5,331.3c8.8,0,15.9,7.1,15.9,15.9c0,8.8-7.1,15.9-15.9,15.9
		s-15.9-7.1-15.9-15.9C294.6,338.4,301.7,331.3,310.5,331.3L310.5,331.3z M322.4,347.2c0,6.6-5.3,11.9-11.9,11.9
		c-6.6,0-11.9-5.3-11.9-11.9c0-6.6,5.3-11.9,11.9-11.9C317.1,335.3,322.4,340.6,322.4,347.2z M316,350c0-0.9-0.2-1.6-0.6-2.2
		c-0.4-0.6-0.9-1.1-1.5-1.5c-0.6-0.4-1.5-0.7-2.6-1.2c-1-0.4-1.7-0.7-2-0.9c-0.3-0.3-0.5-0.6-0.5-1.1c0-0.5,0.2-0.9,0.5-1.2
		c0.3-0.3,0.7-0.5,1.3-0.5c1.1,0,1.8,0.7,2.3,2.2l2.6-1.1c-0.6-2.1-2-3.3-4.1-3.6v-1.7h-1.9v1.7c-1.4,0.2-2.4,0.7-3.1,1.6
		c-0.6,0.9-1,1.9-1,3c0,0.8,0.2,1.6,0.5,2.2c0.4,0.6,0.8,1.1,1.4,1.5c0.6,0.4,1.4,0.7,2.4,1.1c1.2,0.4,1.9,0.7,2.2,1
		c0.3,0.3,0.5,0.7,0.5,1.2c0,0.5-0.2,0.9-0.5,1.3c-0.3,0.4-0.9,0.5-1.6,0.5c-1.5,0-2.4-0.8-2.7-2.5l-2.9,0.8c0.6,2.6,2.1,4,4.6,4.3
		v2.2h1.9v-2.2c1.5-0.2,2.6-0.7,3.4-1.5C315.6,352.5,316,351.4,316,350z M242.4,271.2c-7.7,0-13.9,6.2-13.9,13.9s6.2,13.9,13.9,13.9
		c7.7,0,13.9-6.2,13.9-13.9S250.1,271.2,242.4,271.2 M242.4,269.2c8.8,0,15.9,7.1,15.9,15.9s-7.1,15.9-15.9,15.9
		s-15.9-7.1-15.9-15.9S233.6,269.2,242.4,269.2L242.4,269.2z M254.3,285.1c0,6.6-5.3,11.9-11.9,11.9c-6.6,0-11.9-5.3-11.9-11.9
		c0-6.6,5.3-11.9,11.9-11.9C249,273.2,254.3,278.5,254.3,285.1z M247.9,287.9c0-0.9-0.2-1.6-0.6-2.2c-0.4-0.6-0.9-1.1-1.5-1.5
		c-0.6-0.4-1.5-0.7-2.6-1.2c-1-0.4-1.7-0.7-2-0.9c-0.3-0.3-0.5-0.6-0.5-1.1c0-0.5,0.2-0.9,0.5-1.2c0.3-0.3,0.7-0.5,1.3-0.5
		c1.1,0,1.8,0.7,2.3,2.2l2.6-1.1c-0.6-2.1-2-3.3-4.1-3.6v-1.7h-1.9v1.7c-1.4,0.2-2.4,0.7-3.1,1.6c-0.6,0.9-1,1.9-1,3
		c0,0.8,0.2,1.6,0.5,2.2c0.4,0.6,0.8,1.1,1.4,1.5c0.6,0.4,1.4,0.7,2.4,1.1c1.2,0.4,1.9,0.7,2.2,1c0.3,0.3,0.5,0.7,0.5,1.2
		c0,0.5-0.2,0.9-0.5,1.3c-0.3,0.4-0.9,0.5-1.6,0.5c-1.5,0-2.4-0.8-2.7-2.5l-2.9,0.8c0.6,2.6,2.1,4,4.6,4.3v2.2h1.9v-2.2
		c1.5-0.2,2.6-0.7,3.4-1.5C247.5,290.4,247.9,289.3,247.9,287.9z M393.5,281.6c-0.2-0.6-0.7-1-1.3-1.1l-8.4-1.2l-3.8-7.6
		c-0.3-0.5-0.8-0.9-1.4-0.9c-0.6,0-1.2,0.3-1.4,0.9l-3.8,7.6l-8.4,1.2c-0.6,0.1-1.1,0.5-1.3,1.1c-0.2,0.6,0,1.2,0.4,1.6l6.1,5.9
		l-1.4,8.4c-0.1,0.6,0.1,1.2,0.6,1.6c0.5,0.4,1.2,0.4,1.7,0.1l7.5-4l7.5,4c0.2,0.1,0.5,0.2,0.7,0.2c0.3,0,0.7-0.1,0.9-0.3
		c0.5-0.4,0.7-1,0.6-1.6l-1.4-8.4l6.1-5.9C393.5,282.8,393.7,282.2,393.5,281.6z M257.3,222.1c-0.2-0.6-0.7-1-1.3-1.1l-8.4-1.2
		l-3.8-7.6c-0.3-0.5-0.8-0.9-1.4-0.9c-0.6,0-1.2,0.3-1.4,0.9l-3.8,7.6l-8.4,1.2c-0.6,0.1-1.1,0.5-1.3,1.1c-0.2,0.6,0,1.2,0.4,1.6
		l6.1,5.9l-1.4,8.4c-0.1,0.6,0.1,1.2,0.6,1.6c0.5,0.4,1.2,0.4,1.7,0.1l7.5-4l7.5,4c0.2,0.1,0.5,0.2,0.7,0.2c0.3,0,0.7-0.1,0.9-0.3
		c0.5-0.4,0.7-1,0.6-1.6l-1.4-8.4l6.1-5.9C257.4,223.4,257.5,222.7,257.3,222.1z M257.3,342.7c-0.2-0.6-0.7-1-1.3-1.1l-8.4-1.2
		l-3.8-7.6c-0.3-0.5-0.8-0.9-1.4-0.9c-0.6,0-1.2,0.3-1.4,0.9l-3.8,7.6l-8.4,1.2c-0.6,0.1-1.1,0.5-1.3,1.1c-0.2,0.6,0,1.2,0.4,1.6
		l6.1,5.9l-1.4,8.4c-0.1,0.6,0.1,1.2,0.6,1.6c0.5,0.4,1.2,0.4,1.7,0.1l7.5-4l7.5,4c0.2,0.1,0.5,0.2,0.7,0.2c0.3,0,0.7-0.1,0.9-0.3
		c0.5-0.4,0.7-1,0.6-1.6l-1.4-8.4l6.1-5.9C257.4,343.9,257.5,343.3,257.3,342.7z M461.2,221c0,1.3-0.2,2.5-0.6,3.7
		c-0.2,0.6-0.6,1.6-0.6,1.6c-3.5,7.5-13,12.3-13,12.3s-9.6-4.8-13-12.3c-0.3-0.6-0.6-1.6-0.6-1.6c-0.4-1.2-0.6-2.4-0.6-3.7
		c0-4.8,3.7-8.6,8.2-8.6c2.4,0,4.5,1.1,6,2.8c1.5-1.7,3.7-2.8,6-2.8C457.5,212.3,461.2,216.2,461.2,221z M392.8,343.9
		c0,1.3-0.2,2.5-0.6,3.7c-0.2,0.6-0.6,1.6-0.6,1.6c-3.5,7.5-13,12.3-13,12.3s-9.6-4.8-13-12.3c-0.3-0.6-0.6-1.6-0.6-1.6
		c-0.4-1.2-0.6-2.4-0.6-3.7c0-4.8,3.7-8.6,8.2-8.6c2.4,0,4.5,1.1,6,2.8c1.5-1.7,3.7-2.8,6-2.8C389.2,335.3,392.8,339.1,392.8,343.9z
		 M325,221.1c0,1.3-0.2,2.5-0.6,3.7c-0.2,0.6-0.6,1.6-0.6,1.6c-3.5,7.5-13,12.3-13,12.3s-9.6-4.8-13-12.3c-0.3-0.6-0.6-1.6-0.6-1.6
		c-0.4-1.2-0.6-2.4-0.6-3.7c0-4.8,3.7-8.6,8.2-8.6c2.4,0,4.5,1.1,6,2.8c1.5-1.7,3.7-2.8,6-2.8C321.4,212.5,325,216.4,325,221.1z
		 M529,343.9c0,1.3-0.2,2.5-0.6,3.7c-0.2,0.6-0.6,1.6-0.6,1.6c-3.5,7.5-13,12.3-13,12.3s-9.6-4.8-13-12.3c-0.3-0.6-0.6-1.6-0.6-1.6
		c-0.4-1.2-0.6-2.4-0.6-3.7c0-4.8,3.7-8.6,8.2-8.6c2.4,0,4.5,1.1,6,2.8c1.5-1.7,3.7-2.8,6-2.8C525.3,335.3,529,339.1,529,343.9z
		 M610.9,444.7c0,15.5-9,29-22,35.5c9.9-8,16.4-20.9,16.4-35.5c0-14.6-6.5-27.5-16.4-35.5C601.9,415.8,610.9,429.2,610.9,444.7z
		 M601.7,448.8c2.5-25-18.4-46-43.5-43.5c-18.5,1.8-33.6,16.8-35.4,35.4c-2.5,25.1,18.5,46,43.5,43.5
		C584.8,482.3,599.8,467.3,601.7,448.8z M591.2,440.9c2.4,19.1-13.7,35.2-32.8,32.8c-13-1.6-23.5-12.2-25.2-25.2
		c-2.4-19.1,13.7-35.2,32.8-32.8C579,417.4,589.6,427.9,591.2,440.9z M565.3,432.1c3.5,0,5.2,1.4,5.2,4.2l0,0.7h6.2v-0.9
		c0-3.7-0.9-6.2-2.6-7.6c-1.8-1.4-5-2-9.8-2v-3.7H560v3.7c-5,0-8.4,0.7-10.3,2.1c-1.8,1.4-2.8,4.1-2.8,7.9c0,4,0.9,6.7,2.8,8.1
		c1.8,1.4,5.3,2.2,10.3,2.2V457l-0.9,0c-2.6,0-4.2-0.3-5-1c-0.7-0.7-1.1-2.2-1.1-4.5v-0.7h-6.4l0,1.3c0,3.8,0.9,6.5,2.7,8
		c1.8,1.5,5,2.3,9.5,2.3l1.2,0v4.2h4.3v-4.2l1.3,0c4.5,0,7.7-0.8,9.5-2.4c1.8-1.6,2.7-4.4,2.7-8.4c0-3.7-0.8-6.2-2.5-7.6
		c-1.7-1.4-4.9-2.2-9.6-2.5l-1.4-0.1v-9.4H565.3L565.3,432.1z M560,441.3c-0.6,0-0.9-0.1-0.9-0.1c-3.8,0-5.6-1.6-5.6-4.7
		c0-3,1.9-4.5,5.7-4.5l0.9,0V441.3L560,441.3z M564.3,447.1c2.9,0,4.8,0.3,5.7,0.9c0.9,0.6,1.4,1.9,1.4,3.8c0,3.5-2,5.3-6.1,5.3
		h-0.9L564.3,447.1L564.3,447.1z M398,409.1c-0.2-0.2-0.6-0.3-0.9-0.2l-1.5,0.5l-0.2-0.3c-0.3-0.5-0.7-1-1.1-1.4
		c-2.2-2.4-5.2-3.9-8.4-4.3c-0.5-0.1-1-0.1-1.5-0.1c-2.8,0-5.5,0.9-7.8,2.5c-2.5,1.8-4.3,4.3-5.2,7.2c-0.1,0.2,0,0.5,0.1,0.7
		c0.1,0.2,0.3,0.4,0.6,0.4l1.7,0.5c0.5,0.1,0.9-0.1,1.1-0.6c0.6-2.1,2-4,3.8-5.3c1.7-1.2,3.7-1.8,5.7-1.8c0.4,0,0.7,0,1.1,0.1
		c2.2,0.2,4.4,1.3,6,2.9l0.5,0.5l-1.1,0.3c-0.3,0.1-0.5,0.3-0.6,0.7c-0.1,0.3,0,0.6,0.3,0.9l4.7,4.5c0.2,0.2,0.4,0.2,0.6,0.2
		c0.1,0,0.2,0,0.3,0c0.3-0.1,0.5-0.3,0.6-0.7l1.5-6.3C398.3,409.7,398.2,409.4,398,409.1z M396.6,419.5l-1.7-0.5
		c-0.5-0.1-0.9,0.1-1.1,0.6c-0.6,2.1-2,4-3.8,5.3c-1.7,1.2-3.7,1.8-5.7,1.8c-0.4,0-0.7,0-1.1-0.1c-2.2-0.2-4.4-1.3-6-2.9l-0.5-0.5
		l1.1-0.3c0.3-0.1,0.5-0.3,0.6-0.7c0.1-0.3,0-0.6-0.3-0.9l-4.7-4.5c-0.2-0.2-0.6-0.3-0.9-0.2c-0.3,0.1-0.5,0.3-0.6,0.7l-1.5,6.3
		c-0.1,0.3,0,0.6,0.3,0.9c0.2,0.2,0.6,0.3,0.9,0.2l1.5-0.5l0.2,0.3c0.3,0.5,0.7,1,1.1,1.4c2.2,2.4,5.2,3.9,8.4,4.3
		c0.5,0.1,1,0.1,1.5,0.1c2.8,0,5.5-0.9,7.8-2.5c2.5-1.8,4.3-4.3,5.2-7.2c0.1-0.2,0-0.5-0.1-0.7C397,419.7,396.8,419.6,396.6,419.5z
		 M517.4,438c2-19.6,18.5-36.1,38.1-38.1c8.3-0.8,16.4,0,23.6,3.7V199.5c0-13.1-10.7-23.9-23.9-23.9H212.9
		c-13.1,0-23.9,10.7-23.9,23.9v224.4c0,13.1,10.7,23.9,23.9,23.9h304.6C517.1,444.5,517.1,441.2,517.4,438z M205,380.5v-181
		c0-4.3,3.7-8,8-8h342.2c4.3,0,8,3.7,8,8v181c0,4.3-3.7,8-8,8H212.9C208.6,388.5,205,384.8,205,380.5z M384.1,437.4
		c-11.2,0-20.2-9-20.2-20.2c0-11.2,9-20.2,20.2-20.2c11.2,0,20.2,9,20.2,20.2C404.3,428.3,395.2,437.4,384.1,437.4z"/>
</g>
</svg>
