<?xml version="1.0" encoding="utf-8"?>
<!-- Generator: Adobe Illustrator 17.1.0, SVG Export Plug-In . SVG Version: 6.00 Build 0)  -->
<!DOCTYPE svg PUBLIC "-//W3C//DTD SVG 1.1//EN" "http://www.w3.org/Graphics/SVG/1.1/DTD/svg11.dtd">
<svg version="1.1" xmlns="http://www.w3.org/2000/svg" xmlns:xlink="http://www.w3.org/1999/xlink" x="0px" y="0px"
	 viewBox="0 0 800 660" enable-background="new 0 0 800 660" xml:space="preserve">
<g id="Layer_2">
	
		<radialGradient id="light_1_" cx="399.9813" cy="329.9318" r="395.506" gradientTransform="matrix(0.9639 0 0 0.88 14.4759 39.66)" gradientUnits="userSpaceOnUse">
		<stop  offset="0.5" style="stop-color:#FFFFFF"/>
		<stop  offset="1" style="stop-color:#D9D9D9"/>
	</radialGradient>
	<rect id="light" fill="url(#light_1_)" width="800" height="660"/>
</g>

<g id="devs">
	
	<path id="egt" fill="#E73F2D" d="M204.7,356l24.6-90.3h49.4l-4,15.3h-34l-6,18.3h32.9l-3.9,15.9h-32.9l-6.8,25.6h33l-3.9,15.3
		H204.7z M362.3,331.2c-3.6,5-7.2,9.8-11.8,13.7c-4.7,3.9-9.9,6.9-15.7,9.1c-5.8,2.2-11.9,3.3-18.2,3.3c-6.6,0-12.6-1.2-18.1-3.5
		c-5.5-2.4-10-5.6-13.6-9.8c-3.6-4.2-6.1-9.1-7.5-14.8c-1.4-5.7-1.5-11.8-0.1-18.4c1.3-6.6,3.8-12.7,7.5-18.4
		c3.7-5.7,8.2-10.6,13.5-14.8c5.3-4.2,11.1-7.4,17.5-9.8c6.4-2.4,12.9-3.5,19.5-3.5c8,0,15.1,1.7,21.2,5c6.1,3.3,10.9,7.9,14.2,13.6
		l-13.7,8.5c-2.3-4.1-5.6-7.3-9.8-9.6c-4.2-2.3-6.9-3.4-12.5-3.4c-4.6,0-9.1,0.8-13.5,2.4c-4.4,1.6-8.4,3.9-12,6.7
		c-3.6,2.9-6.7,6.3-9.3,10.2c-2.6,3.9-4.3,8.3-5.2,13c-4.1,21.8,8.5,28.3,12.3,29.9c3.7,1.6,5.7,2.4,10.3,2.4c7.4,0,13.9-2,19.4-6
		s9.7-7.2,12.6-13.9h-28.5l3.9-14.1h45.8C370.4,309.1,368.2,322.9,362.3,331.2z M443.7,265.8l-4,15.3H420l-21.7,75h-15.4l21.7-75
		h-19.7l4-15.3H443.7z M528.9,265.4c-25.5,0-46.1,20.6-46.1,46.1c0,25.5,20.6,46.1,46.1,46.1c25.5,0,46.1-20.6,46.1-46.1
		C575,286.1,554.4,265.4,528.9,265.4z M430.1,202.5c95.2,25.4,156.3,64.8,156.3,109c0,76.6-183.4,138.7-409.7,138.7
		c-18.2,0-36.1-0.4-53.6-1.2c44.9,5.5,93.5,8.5,144.2,8.5c226.3,0,409.7-59.5,409.7-133C676.9,269.9,575.3,222.9,430.1,202.5z"/>
</g>
</svg>
