<?xml version="1.0" encoding="utf-8"?>
<!-- Generator: Adobe Illustrator 17.1.0, SVG Export Plug-In . SVG Version: 6.00 Build 0)  -->
<!DOCTYPE svg PUBLIC "-//W3C//DTD SVG 1.1//EN" "http://www.w3.org/Graphics/SVG/1.1/DTD/svg11.dtd">
<svg version="1.1" xmlns="http://www.w3.org/2000/svg" xmlns:xlink="http://www.w3.org/1999/xlink" x="0px" y="0px"
	 viewBox="0 0 800 660" enable-background="new 0 0 800 660" xml:space="preserve">
<g id="Layer_2">
	
		<radialGradient id="SVGID_1_" cx="399.9813" cy="329.9318" r="395.506" gradientTransform="matrix(0.9639 0 0 0.88 14.4759 39.66)" gradientUnits="userSpaceOnUse">
		<stop  offset="0.5" style="stop-color:#262626"/>
		<stop  offset="1" style="stop-color:#1A1A1A"/>
	</radialGradient>
	<rect fill="url(#SVGID_1_)" width="800" height="660"/>
</g>
<g id="Layer_1">
	<path fill="#FFFFFF" d="M276.3,350.3c23.9,16.3,55.7,25.2,89.4,25.2s65.5-9,89.4-25.2c24.2-16.5,37.6-38.5,37.6-62
		c0-23.5-13.4-45.5-37.6-62c-23.9-16.3-55.7-25.2-89.4-25.2s-65.5,9-89.4,25.2c-24.2,16.5-37.6,38.5-37.6,62
		C238.7,311.8,252,333.8,276.3,350.3z M365.7,369.9c-0.5,0-5.5-0.1-5.5-0.1l0-2.1c1.8,0.1,3.7,0.1,5.5,0.1c1.8,0,3.7-0.1,5.5-0.1
		l0,2.1C371.1,369.8,366.2,369.9,365.7,369.9z M278.2,339.7l11-2c1.2,1.4,2.5,2.8,3.8,4.2l-8.9,3.1C282,343.3,280,341.5,278.2,339.7
		z M284.1,315.8c-0.6-2.6-0.9-5.2-0.9-7.9c0-1.1,0.1-2.2,0.2-3.3c0.3-2.8,0.9-5.6,1.8-8.3c0.9-2.8,2.2-5.5,3.7-8.1
		c1.6-2.7,3.5-5.3,5.8-7.8c1.9-2.1,3.9-4.1,6.2-5.9c2.7-2.2,5.6-4.4,8.8-6.3c2.8-1.7,5.8-3.3,9-4.8c3.5-1.6,7.2-3.1,11-4.3
		c3.4-1.1,6.9-2,10.4-2.8c4-0.9,8.2-1.5,12.3-2c0.1,0,0.1,0,0.2,0c0.4,0,0.8-0.1,1.2-0.1v5.6c-15.6,1.7-29.8,6.9-40.4,14.8
		c-11.6,8.6-18,19.7-18,31.3c0,12.7,7.5,24.6,21,33.4c13.2,8.6,30.7,13.3,49.2,13.3c18.6,0,36-4.7,49.2-13.3
		c13.6-8.8,21-20.7,21-33.4c0-11.6-6.4-22.7-18-31.3c-10.6-7.8-24.9-13-40.4-14.8v-5.6c0.2,0,0.4,0,0.7,0.1
		c4.2,0.4,8.4,1.1,12.4,1.9c3.5,0.7,7.1,1.6,10.5,2.7c3.8,1.2,7.5,2.6,11.1,4.2c3.2,1.4,6.2,3,9,4.7c3.2,1.9,6.2,4.1,8.9,6.3
		c2.3,1.9,4.4,3.9,6.3,5.9c2.3,2.5,4.2,5.1,5.9,7.8c1.6,2.6,2.9,5.4,3.9,8.2c0.9,2.8,1.6,5.6,1.8,8.4c0.1,1.2,0.2,2.3,0.2,3.5
		c0,2.6-0.3,5.2-0.8,7.8c-0.6,2.9-1.7,5.9-3,8.7c-1.4,2.9-3.3,5.8-5.5,8.6c-2.2,2.8-4.9,5.5-7.8,8c-3.8,3.2-8.1,6.2-12.9,8.8
		c-3.8,2.1-7.9,3.9-12.2,5.5c-5.7,2.1-11.7,3.8-18,4.9c-4.8,0.9-9.8,1.5-14.9,1.8c-5.2,0.3-10.5,0.3-15.6,0c-5-0.3-10-1-14.8-1.9
		c-6.2-1.2-12.2-2.9-17.9-5c-4.2-1.6-8.2-3.4-12-5.5c-4.7-2.6-9-5.5-12.7-8.7c-2.9-2.5-5.5-5.2-7.7-7.9c-2.1-2.7-4-5.6-5.4-8.5
		C285.7,321.6,284.7,318.7,284.1,315.8z M365.7,276c0.7,0,1.4-0.1,2.1-0.2v9.4c0,1.2-0.9,2.1-2.1,2.1s-2.1-0.9-2.1-2.1v-9.4
		C364.3,276,365,276,365.7,276z M377.4,265.5c1.9,0.2,3.8,0.5,5.7,0.8l-8.7,11c-0.4-0.1-0.7-0.2-1.1-0.3v-4.1
		C375.6,271,377,268.4,377.4,265.5z M301,305.9c0-7.2,3-14,8.2-19.9l36.6,4.4c0.1,1.7,0.7,3.4,1.7,4.9l-44.8,20.1
		C301.6,312.4,301,309.2,301,305.9z M342.1,267.6l9.6,12.2c-2.1,1.4-3.8,3.2-4.8,5.1l-32.6-3.9C321.5,275.1,331,270.4,342.1,267.6z
		 M365.7,292.9c4.2,0,7.7-3.4,7.7-7.7v-2.3c0.3,0.1,0.6,0.2,0.9,0.4c3.1,1.3,5.1,3.3,5.6,5.4c0.1,0.3,0.1,0.7,0.1,1
		c0,2-1.4,3.5-2.5,4.5c-1.6,1.3-3.7,2.3-6.2,2.9c-3.5,0.9-7.6,0.9-11.1,0c-2.5-0.6-4.6-1.6-6.2-2.9c-1.2-1-2.5-2.5-2.5-4.5
		c0-0.4,0-0.7,0.1-1c0.5-2.1,2.6-4,5.6-5.4c0.3-0.1,0.6-0.2,0.9-0.4v2.3C358,289.5,361.4,292.9,365.7,292.9z M351.8,299.5
		c1.1,0.7,2.4,1.4,3.7,1.9l-20,40.8c-13.8-4.7-24.7-12.4-30.3-21.8L351.8,299.5z M361,303c1.5,0.2,3.1,0.4,4.7,0.4
		c1.6,0,3.1-0.1,4.7-0.4l20.1,41c-7.6,2-16,3.1-24.8,3.1c-8.8,0-17.1-1.1-24.8-3.1L361,303z M395.8,342.3l-20-40.8
		c1.3-0.5,2.6-1.2,3.7-1.9l46.6,21C420.5,329.9,409.7,337.6,395.8,342.3z M428.6,315.5l-44.8-20.1c1-1.5,1.6-3.2,1.7-4.9l36.6-4.4
		c5.2,5.9,8.2,12.8,8.2,19.9C430.3,309.2,429.7,312.4,428.6,315.5z M384.3,284.9c-1-1.9-2.6-3.7-4.8-5.1l9.6-12.2
		c11.1,2.8,20.7,7.4,27.8,13.3L384.3,284.9z M358,277c-0.4,0.1-0.7,0.2-1.1,0.3l-8.7-11c1.9-0.3,3.8-0.6,5.7-0.8
		c0.4,2.9,1.8,5.5,4.1,7.4V277z M447.1,345l-8.9-3.1c1.4-1.4,2.6-2.7,3.8-4.2l10.9,2C451.2,341.5,449.3,343.3,447.1,345z
		 M376.8,367.3c3.6-0.3,7.3-0.8,10.8-1.4l1.2,2.3c-3.9,0.6-7.9,1-11.9,1.3L376.8,367.3z M419.8,355.2l5.5,2.8
		c-3.4,1.5-6.9,2.9-10.5,4.1l-2.8-3.2C414.8,357.7,417.3,356.5,419.8,355.2z M406.6,361l2.5,2.9c-4.7,1.4-9.6,2.5-14.6,3.4l-1.3-2.5
		C397.8,363.8,402.3,362.5,406.6,361z M441,349.4c-2.9,2-6.1,3.8-9.3,5.5l-6.1-3.1c2.8-1.8,5.5-3.7,8-5.7l8.1,2.8
		C441.5,349.1,441.2,349.3,441,349.4z M311.5,355.2c2.5,1.3,5.1,2.5,7.7,3.7l-2.8,3.2c-3.6-1.2-7.1-2.6-10.5-4.1L311.5,355.2z
		 M343.8,365.9c3.6,0.6,7.2,1.1,10.8,1.4l0,2.2c-4-0.3-8-0.7-11.9-1.2L343.8,365.9z M336.8,367.3c-5-0.9-9.9-2.1-14.6-3.4l2.5-2.9
		c4.3,1.5,8.7,2.8,13.4,3.8L336.8,367.3z M297.7,346.1c2.5,2,5.1,3.9,8,5.7l-6.1,3.1c-3.6-1.9-6.9-3.9-10-6L297.7,346.1z
		 M457.5,334.9l-11.6-2.2c0.9-1.4,1.8-2.8,2.5-4.3l13.8-0.1C460.8,330.6,459.3,332.7,457.5,334.9z M465.2,322.7l-14.2,0.1
		c0.5-1.3,0.9-2.6,1.2-3.9l15.1-1.8C466.7,319,466,320.9,465.2,322.7z M469.1,305.2c0,2.1-0.2,4.1-0.5,6.2l-15.3,1.8
		c0.2-1.7,0.3-3.5,0.3-5.2c0-0.4,0-0.9,0-1.3l15.4-2.9C469.1,304.2,469.1,304.7,469.1,305.2z M453.1,301.1c-0.2-1.3-0.5-2.7-0.9-4
		l14.4-5.8c0.8,2.3,1.4,4.6,1.8,7L453.1,301.1z M450.4,291.8c-0.6-1.4-1.2-2.7-1.9-4l12.2-8c1.4,2.1,2.7,4.2,3.7,6.3L450.4,291.8z
		 M445.7,282.9c-0.9-1.3-1.9-2.7-2.9-3.9l10.5-8.2c1.5,1.5,2.9,3,4.2,4.5L445.7,282.9z M439,274.8c-0.9-0.9-1.8-1.7-2.7-2.6l8.3-8.8
		c1.6,1.1,3,2.3,4.5,3.5L439,274.8z M432,268.6c-1.5-1.2-3.2-2.4-4.9-3.5l6.6-8.6c2.1,1.2,4.2,2.4,6.1,3.7L432,268.6z M422.4,262.2
		c-1.4-0.8-2.9-1.6-4.5-2.4l5.4-8.3c1.9,0.8,3.7,1.6,5.4,2.5L422.4,262.2z M412.8,257.4c-2-0.9-4.1-1.7-6.1-2.4l4.7-7.8
		c2.3,0.7,4.5,1.4,6.6,2.2L412.8,257.4z M401.2,253.2c-1.9-0.6-3.8-1.1-5.7-1.6l2.8-7.9c2.6,0.5,5.1,1.1,7.5,1.8L401.2,253.2z
		 M390,250.4c-2.5-0.5-5.1-0.9-7.7-1.3l0.9-7.8c3.2,0.3,6.4,0.8,9.6,1.3L390,250.4z M376.8,248c-0.2-0.3-0.5-0.5-0.8-0.6
		c0.3-1.1,0.5-2.2,0.5-3.3c0-1.1-0.2-2.3-0.6-3.3c0.6,0,1.1,0.1,1.7,0.1L376.8,248z M370.9,244.1c0,1.4-0.6,2.8-1.6,3.8
		c-0.8,0.8-1.1,2-0.7,3.1c0.4,1.1,1.4,1.7,2.6,1.7h0.7v11.2c0,2.1-1.1,4.1-2.9,5.3c-0.1,0.1-0.2,0.1-0.2,0.2l0,0
		c-1.8,1.5-4.4,1.5-6.3,0l0,0c-0.1-0.1-0.2-0.1-0.2-0.2c-1.8-1.2-2.9-3.1-2.9-5.3v-11.2h0.7c1.1,0,2.2-0.7,2.6-1.7s0.2-2.3-0.6-3.1
		c-1-1-1.6-2.3-1.6-3.8c0-2.9,2.4-5.3,5.4-5.2C368.6,239.1,370.8,241.4,370.9,244.1z M355.4,247.4c-0.3,0.2-0.6,0.4-0.8,0.6
		l-0.8-7.2c0.6,0,1.1-0.1,1.7-0.1c-0.4,1.1-0.5,2.2-0.5,3.4C354.9,245.3,355,246.4,355.4,247.4z M348.2,241.4l0.9,7.8
		c-2.6,0.3-5.2,0.7-7.7,1.2l-2.7-7.7C341.8,242.2,344.9,241.7,348.2,241.4z M333,243.8l2.8,7.9c-1.9,0.5-3.9,1-5.7,1.6l-4.6-7.6
		C328,244.9,330.5,244.3,333,243.8z M320,247.1l4.7,7.8c-2.1,0.7-4.1,1.6-6.1,2.4l-5.2-8C315.5,248.6,317.7,247.8,320,247.1z
		 M308,251.5l5.4,8.3c-1.5,0.8-3,1.6-4.5,2.4l-6.3-8.2C304.3,253.1,306.2,252.3,308,251.5z M297.5,256.6l6.6,8.6
		c-1.7,1.1-3.3,2.3-4.8,3.5l-7.9-8.4C293.4,258.9,295.4,257.7,297.5,256.6z M286.8,263.4l8.3,8.8c-0.9,0.8-1.8,1.7-2.7,2.6l-10-7.8
		C283.7,265.8,285.2,264.6,286.8,263.4z M278.1,270.8l10.4,8.2c-1.1,1.3-2,2.6-2.9,4l-11.7-7.6C275.2,273.8,276.6,272.3,278.1,270.8
		z M270.6,279.8l12.2,7.9c-0.7,1.3-1.3,2.7-1.9,4l-14-5.7C267.9,283.9,269.2,281.8,270.6,279.8z M264.7,291.2l14.4,5.8
		c-0.4,1.3-0.6,2.7-0.9,4l-15.4-2.9C263.2,295.8,263.9,293.5,264.7,291.2z M277.7,306.6c0,0.4,0,0.9,0,1.3c0,1.7,0.1,3.5,0.3,5.2
		l-15.3-1.8c-0.3-2-0.5-4.1-0.5-6.2c0-0.5,0-1,0-1.4L277.7,306.6z M279.1,319c0.4,1.3,0.8,2.6,1.2,3.9l-14.3-0.1
		c-0.8-1.8-1.5-3.7-2.1-5.6L279.1,319z M282.9,328.4c0.8,1.4,1.6,2.9,2.5,4.3l-11.7,2.2c-1.8-2.1-3.3-4.3-4.7-6.5L282.9,328.4z
		 M365.7,206.6c44.2,0,82.9,16,104.2,39.7c-25.2-19.8-63.3-31.9-104.2-31.9s-78.9,12-104.2,31.9
		C282.7,222.6,321.5,206.6,365.7,206.6z M244.5,282.8c0.9-9,5-17.5,11.4-23.9c23.4-23.8,64.8-38.7,109.7-38.7
		c45,0,86.4,14.9,109.7,38.7c6.4,6.5,10.5,14.9,11.4,23.9c0.2,1.8,0.3,3.7,0.3,5.5c0,6-1,11.8-2.8,17.3l-0.7-9.9
		c-0.1-1.5-1.4-2.7-3-2.6c-1.5,0.1-2.7,1.4-2.6,3l0.7,10.2c0.1,1.5,1.3,2.6,2.8,2.6c0.1,0,0.1,0,0.2,0c0.7,0,1.3-0.3,1.7-0.8
		c-4,10.7-11.1,20.6-20.7,29.2c7.6-9.6,12-20.5,12-32.1c0-37.6-45.4-68.3-103.4-70.2c-1.5-0.9-3.3-1.5-5.2-1.6
		c-2.2-0.1-4.3,0.5-6.1,1.6c-3.2,0.1-6.5,0.3-9.6,0.6c-5.4,0.5-10.8,1.2-16,2.3c-4.7,0.9-9.4,2-13.9,3.4c-4.2,1.2-8.4,2.7-12.4,4.3
		c-3.9,1.5-7.6,3.3-11.1,5.1c-4.1,2.1-8,4.5-11.5,7c-3.4,2.4-6.6,5-9.5,7.6c-3.2,2.9-6,6-8.4,9.2c-2.9,3.9-5.3,8-7.1,12.2
		c-2.6,6.1-3.9,12.4-3.9,18.7c0,3.1,0.3,6.2,0.9,9.3c1.6,8,5.3,15.6,10.8,22.6c-9.5-8.5-16.5-18.3-20.5-28.9c0.5,0.4,1,0.7,1.7,0.8
		c0.1,0,0.1,0,0.2,0c1.5,0,2.7-1.1,2.8-2.6l0.7-10.2c0.1-1.5-1.1-2.9-2.6-3c-1.5-0.1-2.9,1.1-3,2.6l-0.7,9.9
		c-1.8-5.6-2.8-11.4-2.8-17.3C244.3,286.4,244.3,284.6,244.5,282.8z M522.6,291.9c0-0.2,0-1.5,0-1.5c-0.6-26.9-17-52-46.4-70.9
		c-29.6-19-68.8-29.4-110.5-29.4s-81,10.5-110.5,29.4c-29.4,18.9-45.8,44-46.4,70.9c0,0,0,1.2,0,1.5c0,5,0.6,10,1.6,14.8
		c2,10.3,6,20.4,11.6,30.2c3.7,27.8,20.3,53.4,46.7,72.2c26.6,18.9,61.1,29.4,97,29.4s70.4-10.4,97-29.4
		c26.4-18.8,43-44.4,46.7-72.2c5.6-9.8,9.6-19.9,11.6-30.2C522.1,301.8,522.6,296.9,522.6,291.9z M365.7,195.7
		c83.1,0,150.8,42.8,151.4,95.5c0,4.6-0.5,9.2-1.4,13.8c-10.1,46.9-73.5,83.1-150,83.1s-139.9-36.2-150-83.1
		c-0.9-4.6-1.3-9.2-1.4-13.8C214.9,238.4,282.5,195.7,365.7,195.7z M489.8,354.2c-5,5.6-10.7,10.9-16.9,15.9
		c-29.5,23.5-67.6,36.4-107.3,36.4s-77.8-12.9-107.3-36.4c-6.2-5-11.9-10.3-16.9-15.9c4.2,3.5,8.7,6.8,13.7,10
		c29.6,19,68.8,29.4,110.5,29.4s81-10.5,110.5-29.4C481.1,361,485.7,357.7,489.8,354.2z M459.5,404.5c-25.7,18.3-59,28.3-93.8,28.3
		s-68.1-10.1-93.8-28.3c-20.8-14.8-35.2-34-41.5-55c6.8,8.9,15,17.3,24.5,24.9c30.4,24.3,69.8,37.7,110.8,37.7s80.3-13.4,110.8-37.7
		c9.6-7.6,17.8-16,24.5-24.9C494.6,370.5,480.3,389.7,459.5,404.5z M290.1,248.2c0.4,1.1,1.5,1.7,2.6,1.7c0.4,0,0.7-0.1,1.1-0.2
		c1.4-0.6,2.1-2.2,1.5-3.7l-2.8-6.6c-0.6-1.4-2.2-2.1-3.7-1.5c-1.4,0.6-2.1,2.2-1.5,3.7L290.1,248.2z M437.6,249.7
		c0.4,0.1,0.7,0.2,1.1,0.2c1.1,0,2.1-0.6,2.6-1.7l2.8-6.6c0.6-1.4-0.1-3.1-1.5-3.7c-1.4-0.6-3.1,0.1-3.7,1.5l-2.8,6.6
		C435.5,247.5,436.2,249.1,437.6,249.7z M360.8,229.3h9.8c1.5,0,2.8-1.2,2.8-2.8s-1.2-2.8-2.8-2.8h-9.8c-1.5,0-2.8,1.2-2.8,2.8
		S359.2,229.3,360.8,229.3z M591,467.3c-7.6-10.7-14.3-22.7-19.8-35.6c-4.2-9.9-7.8-20.6-10.7-31.7h0.7c0.9,0,1.7-0.8,1.7-1.7
		c0-0.9-0.8-1.7-1.7-1.7h-1.5c-0.1-0.5-0.2-1-0.4-1.5c-11.7-48.3-6.9-90.7-6.9-91.1c0.1-0.5-0.1-0.9-0.4-1.3
		c-0.3-0.4-0.7-0.6-1.1-0.6l-2.6-0.3v-8.6c0-0.9-0.8-1.7-1.7-1.7c-0.9,0-1.7,0.8-1.7,1.7v8.6l-2.6,0.3c-0.4,0-0.9,0.3-1.1,0.6
		c-0.3,0.4-0.4,0.8-0.4,1.3c0,0.4,4.8,42.8-6.9,91.1c-0.1,0.5-0.2,1-0.4,1.5h-1.5c-0.9,0-1.7,0.8-1.7,1.7c0,0.9,0.8,1.7,1.7,1.7h0.7
		c-2.9,11.1-6.5,21.8-10.7,31.7c-5.5,12.9-12.1,24.9-19.8,35.6c-0.4,0.5-0.4,1.2-0.1,1.8c0.3,0.6,0.9,0.9,1.5,0.9h17.6
		c0.5,0,0.9-0.2,1.2-0.5c0.3-0.3,0.5-0.8,0.5-1.2c0-0.3,0-0.5,0-0.8c0-13.1,10.6-23.7,23.7-23.7c13.1,0,23.7,10.6,23.7,23.7
		c0,0.3,0,0.5,0,0.8c0,0.5,0.1,0.9,0.5,1.2c0.3,0.3,0.8,0.5,1.2,0.5h17.6c0.6,0,1.2-0.4,1.5-0.9C591.4,468.4,591.4,467.8,591,467.3
		L591,467.3z M537.3,395.9c10.5-43.4,7.9-82.1,7.1-90.6l2.2-0.2l2.3,0.2c-0.8,8.5-3.4,47.2,7.1,90.6c0.1,0.2,0.1,0.4,0.2,0.7h-19
		C537.2,396.4,537.3,396.1,537.3,395.9L537.3,395.9z M573.7,466.5c-0.4-14.5-12.4-26.2-27-26.2c-14.6,0-26.6,11.7-27,26.2h-12.7
		c7-10.2,13.1-21.5,18.3-33.6c4.4-10.3,8.1-21.4,11.1-33H557c3,11.6,6.7,22.7,11.1,33c5.1,12.1,11.3,23.4,18.3,33.6H573.7z
		 M573.7,466.5 M552.2,407.6c-0.2-0.7-0.9-1.3-1.6-1.3h-7.7c-0.8,0-1.4,0.5-1.6,1.3l-6.5,24.1c-0.2,0.6,0,1.3,0.6,1.8
		c0.5,0.4,1.2,0.5,1.8,0.2c3-1.5,6.3-2.3,9.6-2.3c3.3,0,6.6,0.8,9.6,2.3c0.2,0.1,0.5,0.2,0.8,0.2c0.4,0,0.8-0.1,1.1-0.4
		c0.5-0.4,0.7-1.1,0.6-1.8L552.2,407.6z M546.7,427.9c-2.7,0-5.3,0.4-7.8,1.3l5.3-19.5h5.1l5.3,19.5
		C552,428.3,549.3,427.9,546.7,427.9L546.7,427.9z M546.7,427.9"/>
</g>
</svg>
