<?xml version="1.0" encoding="utf-8"?>
<!-- Generator: Adobe Illustrator 17.1.0, SVG Export Plug-In . SVG Version: 6.00 Build 0)  -->
<!DOCTYPE svg PUBLIC "-//W3C//DTD SVG 1.1//EN" "http://www.w3.org/Graphics/SVG/1.1/DTD/svg11.dtd">
<svg version="1.1" xmlns="http://www.w3.org/2000/svg" xmlns:xlink="http://www.w3.org/1999/xlink" x="0px" y="0px"
	 viewBox="0 0 800 660" enable-background="new 0 0 800 660" xml:space="preserve">
<g id="Layer_2">
	
		<radialGradient id="SVGID_1_" cx="399.9813" cy="329.9318" r="395.506" gradientTransform="matrix(0.9639 0 0 0.88 14.4759 39.66)" gradientUnits="userSpaceOnUse">
		<stop  offset="0.5" style="stop-color:#262626"/>
		<stop  offset="1" style="stop-color:#1A1A1A"/>
	</radialGradient>
	<rect fill="url(#SVGID_1_)" width="800" height="660"/>
</g>
<g id="Layer_1">
	<path fill="#FFFFFF" d="M612.5,416.3V243.7c0-18.3-14.9-33.2-33.2-33.2H220.7c-18.3,0-33.2,14.9-33.2,33.2v172.6
		c0,18.3,14.9,33.2,33.2,33.2h358.6C597.6,449.5,612.5,434.6,612.5,416.3L612.5,416.3z M200.8,416.3V243.7c0-11,8.9-19.9,19.9-19.9
		h19.9v166c0,3.7,3,6.6,6.6,6.6c3.7,0,6.6-3,6.6-6.6v-166h292.2v166c0,3.7,3,6.6,6.6,6.6c3.7,0,6.6-3,6.6-6.6v-166h19.9
		c11,0,19.9,8.9,19.9,19.9v172.6c0,11-8.9,19.9-19.9,19.9h-19.9v-19.9c0-3.7-3-6.6-6.6-6.6c-3.7,0-6.6,3-6.6,6.6v19.9H253.9v-19.9
		c0-3.7-3-6.6-6.6-6.6c-3.7,0-6.6,3-6.6,6.6v19.9h-19.9C209.7,436.2,200.8,427.3,200.8,416.3L200.8,416.3z M200.8,416.3
		 M585.9,343.3v-26.6c0-3.7-3-6.6-6.6-6.6s-6.6,3-6.6,6.6v26.6c0,3.7,3,6.6,6.6,6.6S585.9,346.9,585.9,343.3L585.9,343.3z
		 M585.9,343.3 M585.9,296.8c0-1.8-0.7-3.5-1.9-4.7c-1.2-1.2-2.9-1.9-4.7-1.9c-1.8,0-3.5,0.7-4.7,1.9c-1.2,1.2-1.9,2.9-1.9,4.7
		c0,1.8,0.7,3.5,1.9,4.7c1.2,1.2,2.9,1.9,4.7,1.9c1.8,0,3.5-0.7,4.7-1.9C585.2,300.3,585.9,298.5,585.9,296.8L585.9,296.8z
		 M585.9,296.8 M234,330c0-7.3-6-13.3-13.3-13.3c-7.3,0-13.3,6-13.3,13.3c0,7.3,6,13.3,13.3,13.3C228,343.3,234,337.3,234,330
		L234,330z M234,330 M283.5,401.8h72.1c1.2,0,2.2-1,2.2-2.2V260.4c0-1.2-1-2.2-2.2-2.2h-72.1c-1.2,0-2.2,1-2.2,2.2v139.3
		C281.3,400.8,282.3,401.8,283.5,401.8L283.5,401.8z M298.3,397.4V387h44.6v10.4H298.3z M347.3,397.4v-12.6c0-1.2-1-2.2-2.2-2.2h-49
		c-1.2,0-2.2,1-2.2,2.2v12.6h-8.2v-65.3h21.1c-3.3,6.5-5.6,15.5-4.3,27.3c0.1,1.1,1,1.9,2.1,1.9c1.4,0,5.1,0,10.9,0
		c10,0,22.9,0,22.9,0c0.7,0,1.3-0.3,1.8-0.9c0.4-0.6,0.5-1.3,0.3-1.9c-0.1-0.2-3.9-12.7-2.4-26.4h15.3v65.3H347.3z M320.2,319.9
		l-0.2-0.4c-0.4-0.8-1.3-1.3-2.2-1.3c-0.3,0-0.6,0-1,0c-2.2,0-4.9-0.5-8-1.4c-1.5-0.4-2.8-0.6-4-0.6c-2.7,0-4.2,1.1-5,2.1
		c-0.8,1-1.2,2.2-1.3,3.2l-3.8,0l-0.8-17l4.7-0.6v0.5c0,0.5,0.2,1.1,0.5,1.5c0.7,0.8,1.8,1,2.7,0.5c4.2-2.4,8.7-3.6,13.3-3.6
		c9.5,0,16.5,5.2,16.5,5.3c0.7,0.5,1.6,0.6,2.3,0.2l8.4-4.2c0.6,0.8,1.4,1.8,2.1,2.6c-5.1,5.5-8.6,12.7-10.1,21h-19.6
		c1.8-2.3,3.6-3.8,4.8-4.8C320.6,322.2,320.8,320.9,320.2,319.9L320.2,319.9z M333.8,332.2c-0.3,2.6-0.4,5.2-0.3,8
		c0.1,7.3,1.4,13.5,2.2,16.9c-4.4,0-12.9,0-20,0c-4,0-7,0-8.9,0c-0.9-11.1,1.8-19.3,5.1-24.9H333.8z M300.8,264.3
		c2.1-1.1,5.1-1.8,8.1-1.8c3.1,0,6,0.6,8.1,1.8c1.6,0.9,2.6,2,2.6,2.9c0,1-1,2.1-2.6,2.9c-2.1,1.1-5.1,1.8-8.1,1.8
		c-3.1,0-6-0.6-8.1-1.8c-1.6-0.9-2.6-2-2.6-2.9C298.2,266.3,299.2,265.2,300.8,264.3L300.8,264.3z M322.4,272
		c2.1-1.1,5.1-1.8,8.1-1.8s6,0.6,8.1,1.8c1.6,0.9,2.6,2,2.6,2.9c0,1-1,2.1-2.6,2.9c-2.1,1.1-5.1,1.8-8.1,1.8c-3.1,0-6-0.6-8.1-1.8
		c-1.6-0.9-2.6-2-2.6-2.9C319.8,274,320.8,272.9,322.4,272L322.4,272z M323,262.6h20.5c-1.6,2.1-6.6,3.3-10.2,3.3
		C329.6,265.9,324.6,264.6,323,262.6L323,262.6z M295.9,262.6c-1.3,1.4-2.1,3-2.1,4.7c0,5.2,6.5,9.1,15.1,9.1c2.4,0,4.6-0.3,6.5-0.8
		c0.4,4.9,6.8,8.5,15.1,8.5c8.6,0,15.1-3.9,15.1-9.1c0-2.4-1.4-4.6-3.9-6.2c3.5-1.4,5.8-3.6,6.4-6.2h5.2v65.3h-14.6
		c1.4-6.9,4.4-13.8,10.2-19.3c0.4-0.4,0.7-1,0.7-1.6s-0.2-1.2-0.7-1.6c-0.7-0.7-3-3.6-4.3-5.2c-0.6-0.8-1.8-1.1-2.7-0.6l-8.9,4.4
		c-2.6-1.7-9.3-5.4-18-5.4c-4.2,0-8.3,0.9-12.2,2.6c-0.1-0.5-0.3-0.9-0.7-1.2c-0.5-0.4-1.1-0.6-1.7-0.5l-9.2,1.2
		c-1.1,0.1-2,1.1-1.9,2.3l1,21.1c0.1,1.2,1,2.1,2.2,2.1l8.1,0h0c0.6,0,1.3-0.3,1.7-0.8c0.4-0.5,0.6-1.2,0.5-1.8
		c-0.1-0.5-0.1-1.7,0.4-2.3c0.5-0.6,2.2-0.7,4.3,0c2.3,0.7,4.4,1.1,6.3,1.4c-1.4,1.4-2.9,3.2-4.4,5.4h-23.7v-65.3H295.9z
		 M295.9,262.6 M363.9,401.8h72.1c1.2,0,2.2-1,2.2-2.2V260.4c0-1.2-1-2.2-2.2-2.2h-72.1c-1.2,0-2.2,1-2.2,2.2v139.3
		C361.7,400.8,362.7,401.8,363.9,401.8L363.9,401.8z M378.7,397.4V387h44.6v10.4H378.7z M427.7,397.4v-12.6c0-1.2-1-2.2-2.2-2.2h-49
		c-1.2,0-2.2,1-2.2,2.2v12.6h-8.2v-65.3h21.1c-3.3,6.5-5.6,15.5-4.3,27.3c0.1,1.1,1,1.9,2.1,1.9c1.4,0,5.1,0,10.9,0
		c10,0,22.9,0,22.9,0c0.7,0,1.3-0.3,1.8-0.9c0.4-0.6,0.5-1.3,0.3-1.9c-0.1-0.2-3.9-12.7-2.4-26.4h15.3v65.3H427.7z M400.6,319.9
		l-0.2-0.4c-0.4-0.8-1.3-1.3-2.2-1.3c-0.3,0-0.6,0-1,0c-2.2,0-4.9-0.5-8-1.4c-1.5-0.4-2.8-0.6-4-0.6c-2.7,0-4.2,1.1-5,2.1
		c-0.8,1-1.2,2.2-1.3,3.2l-3.8,0l-0.8-17l4.7-0.6v0.5c0,0.5,0.2,1.1,0.5,1.5c0.7,0.8,1.8,1,2.7,0.5c4.2-2.4,8.7-3.6,13.3-3.6
		c9.5,0,16.4,5.2,16.5,5.3c0.7,0.5,1.6,0.6,2.3,0.2l8.4-4.2c0.6,0.8,1.4,1.8,2.1,2.6c-5.1,5.5-8.6,12.7-10.1,21h-19.6
		c1.8-2.3,3.6-3.8,4.8-4.8C401,322.2,401.2,320.9,400.6,319.9L400.6,319.9z M414.2,332.2c-0.3,2.6-0.4,5.2-0.3,8
		c0.1,7.3,1.4,13.5,2.2,16.9c-4.4,0-12.9,0-20,0c-4,0-7,0-8.9,0c-0.9-11.1,1.8-19.3,5.1-24.9H414.2z M381.2,264.3
		c2.1-1.1,5.1-1.8,8.1-1.8c3.1,0,6,0.6,8.1,1.8c1.6,0.9,2.6,2,2.6,2.9c0,1-1,2.1-2.6,2.9c-2.1,1.1-5.1,1.8-8.1,1.8
		c-3.1,0-6-0.6-8.1-1.8c-1.6-0.9-2.6-2-2.6-2.9C378.6,266.3,379.6,265.2,381.2,264.3L381.2,264.3z M402.8,272
		c2.1-1.1,5.1-1.8,8.1-1.8c3.1,0,6,0.6,8.1,1.8c1.6,0.9,2.6,2,2.6,2.9c0,1-1,2.1-2.6,2.9c-2.1,1.1-5.1,1.8-8.1,1.8
		c-3.1,0-6-0.6-8.1-1.8c-1.6-0.9-2.6-2-2.6-2.9C400.2,274,401.2,272.9,402.8,272L402.8,272z M403.4,262.6h20.5
		c-1.6,2.1-6.6,3.3-10.2,3.3S405,264.6,403.4,262.6L403.4,262.6z M376.3,262.6c-1.3,1.4-2.1,3-2.1,4.7c0,5.2,6.5,9.1,15.1,9.1
		c2.4,0,4.6-0.3,6.5-0.8c0.4,4.9,6.8,8.5,15.1,8.5c8.6,0,15.1-3.9,15.1-9.1c0-2.4-1.4-4.6-3.9-6.2c3.5-1.4,5.8-3.6,6.4-6.2h5.2v65.3
		h-14.6c1.4-6.9,4.4-13.8,10.2-19.3c0.4-0.4,0.7-1,0.7-1.6c0-0.6-0.2-1.2-0.7-1.6c-0.7-0.7-3-3.6-4.3-5.2c-0.6-0.8-1.8-1.1-2.7-0.6
		l-8.9,4.4c-2.6-1.7-9.3-5.4-18-5.4c-4.2,0-8.3,0.9-12.2,2.6c-0.1-0.5-0.3-0.9-0.7-1.2c-0.5-0.4-1.1-0.6-1.7-0.5l-9.2,1.2
		c-1.1,0.1-2,1.1-1.9,2.3l1,21.1c0.1,1.2,1,2.1,2.2,2.1l8.1,0h0c0.6,0,1.3-0.3,1.7-0.8c0.4-0.5,0.6-1.2,0.5-1.8
		c-0.1-0.5-0.1-1.7,0.4-2.3c0.5-0.6,2.1-0.7,4.3,0c2.3,0.7,4.4,1.1,6.3,1.4c-1.4,1.4-2.9,3.2-4.4,5.4h-23.7v-65.3H376.3z
		 M376.3,262.6 M444.3,401.8h72.1c1.2,0,2.2-1,2.2-2.2V260.4c0-1.2-1-2.2-2.2-2.2h-72.1c-1.2,0-2.2,1-2.2,2.2v139.3
		C442.1,400.8,443.1,401.8,444.3,401.8L444.3,401.8z M459.1,397.4V387h44.6v10.4H459.1z M508.1,397.4v-12.6c0-1.2-1-2.2-2.2-2.2h-49
		c-1.2,0-2.2,1-2.2,2.2v12.6h-8.2v-65.3h21.1c-3.3,6.5-5.6,15.5-4.3,27.3c0.1,1.1,1,1.9,2.1,1.9c1.4,0,5.1,0,10.9,0
		c10,0,22.9,0,22.9,0c0.7,0,1.3-0.3,1.8-0.9c0.4-0.6,0.5-1.3,0.3-1.9c-0.1-0.2-3.9-12.7-2.4-26.4h15.3v65.3H508.1z M481,319.9
		l-0.2-0.4c-0.4-0.8-1.3-1.3-2.2-1.3c-0.3,0-0.6,0-1,0c-2.2,0-4.9-0.5-8-1.4c-1.5-0.4-2.8-0.6-4-0.6c-2.7,0-4.2,1.1-5,2.1
		c-0.8,1-1.2,2.2-1.3,3.2l-3.8,0l-0.8-17l4.7-0.6v0.5c0,0.5,0.2,1.1,0.5,1.5c0.7,0.8,1.9,1,2.7,0.5c4.2-2.4,8.7-3.6,13.3-3.6
		c9.5,0,16.4,5.2,16.5,5.3c0.7,0.5,1.6,0.6,2.3,0.2l8.4-4.2c0.6,0.8,1.4,1.8,2.1,2.6c-5.1,5.5-8.6,12.7-10.1,21h-19.6
		c1.8-2.3,3.6-3.8,4.8-4.8C481.4,322.2,481.6,320.9,481,319.9L481,319.9z M494.6,332.2c-0.3,2.6-0.4,5.2-0.3,8
		c0.1,7.3,1.4,13.5,2.2,16.9c-4.4,0-12.9,0-20,0c-4,0-7,0-8.9,0c-0.9-11.1,1.8-19.3,5.1-24.9H494.6z M461.6,264.3
		c2.1-1.1,5.1-1.8,8.1-1.8c3.1,0,6,0.6,8.1,1.8c1.6,0.9,2.6,2,2.6,2.9c0,1-1,2.1-2.6,2.9c-2.1,1.1-5.1,1.8-8.1,1.8
		c-3.1,0-6-0.6-8.1-1.8c-1.6-0.9-2.6-2-2.6-2.9C459,266.3,460,265.2,461.6,264.3L461.6,264.3z M483.2,272c2.1-1.1,5.1-1.8,8.1-1.8
		c3.1,0,6,0.6,8.1,1.8c1.6,0.9,2.6,2,2.6,2.9c0,1-1,2.1-2.6,2.9c-2.1,1.1-5.1,1.8-8.1,1.8c-3.1,0-6-0.6-8.1-1.8
		c-1.6-0.9-2.6-2-2.6-2.9C480.6,274,481.6,272.9,483.2,272L483.2,272z M483.8,262.6h20.5c-1.6,2.1-6.6,3.3-10.2,3.3
		C490.4,265.9,485.4,264.6,483.8,262.6L483.8,262.6z M456.7,262.6c-1.3,1.4-2.1,3-2.1,4.7c0,5.2,6.5,9.1,15.1,9.1
		c2.4,0,4.6-0.3,6.5-0.8c0.4,4.9,6.8,8.5,15.1,8.5c8.6,0,15.1-3.9,15.1-9.1c0-2.4-1.4-4.6-3.9-6.2c3.5-1.4,5.8-3.6,6.4-6.2h5.2v65.3
		h-14.6c1.4-6.9,4.4-13.8,10.2-19.3c0.4-0.4,0.7-1,0.7-1.6c0-0.6-0.2-1.2-0.7-1.6c-0.7-0.7-3-3.6-4.3-5.2c-0.6-0.8-1.8-1.1-2.7-0.6
		l-8.9,4.4c-2.6-1.7-9.3-5.4-18-5.4c-4.2,0-8.3,0.9-12.2,2.6c-0.1-0.5-0.3-0.9-0.7-1.2c-0.5-0.4-1.1-0.6-1.7-0.5l-9.2,1.2
		c-1.1,0.1-2,1.1-1.9,2.3l1,21.1c0.1,1.2,1,2.1,2.2,2.1l8.1,0h0c0.6,0,1.3-0.3,1.7-0.8c0.4-0.5,0.6-1.2,0.5-1.8
		c-0.1-0.5-0.1-1.7,0.4-2.3c0.5-0.6,2.2-0.7,4.3,0c2.3,0.7,4.4,1.1,6.3,1.4c-1.4,1.4-2.9,3.2-4.4,5.4h-23.7v-65.3H456.7z
		 M456.7,262.6 M525,249.9H275c-1.2,0-2.2,1-2.2,2.2V408c0,1.2,1,2.2,2.2,2.2h250c1.2,0,2.2-1,2.2-2.2V252
		C527.2,250.8,526.2,249.9,525,249.9L525,249.9z M522.8,405.8H277.2V254.2h245.6V405.8z M522.8,405.8"/>
</g>
</svg>
