<?xml version="1.0" encoding="utf-8"?>
<!-- Generator: Adobe Illustrator 17.1.0, SVG Export Plug-In . SVG Version: 6.00 Build 0)  -->
<!DOCTYPE svg PUBLIC "-//W3C//DTD SVG 1.1//EN" "http://www.w3.org/Graphics/SVG/1.1/DTD/svg11.dtd">
<svg version="1.1" xmlns="http://www.w3.org/2000/svg" xmlns:xlink="http://www.w3.org/1999/xlink" x="0px" y="0px"
	 viewBox="0 0 800 660" enable-background="new 0 0 800 660" xml:space="preserve">
<g id="Layer_2">
		<radialGradient id="light_1_" cx="399.9813" cy="329.9318" r="395.506" gradientTransform="matrix(0.9639 0 0 0.88 14.4759 39.66)" gradientUnits="userSpaceOnUse">
		<stop  offset="0.5" style="stop-color:#FFFFFF"/>
		<stop  offset="1" style="stop-color:#D9D9D9"/>
	</radialGradient>
	<rect id="light" fill="url(#light_1_)" width="800" height="660"/>
</g>
<g id="devs">

	<path id="novomatic" fill="#1C2D5B" d="M100.1,374H120v-1.7c-0.7,0-2.1,0-2.1-1.4V312l55.2,58.2c0.7,2.1-1.4,1.7-2.7,1.7v2.1h21.2
		v-1.7c-1,0-2.1,0-2.4-2.1v-80.2c0-1,1-1.4,2.4-1.4V287h-21.2v1.7c2.1,0,2.7,0.3,2.7,2.4v53.8l-50.7-54.5c-0.7-1-0.7-1.7,1.7-1.4
		v-1.7H99.7v1.7c1.4-0.3,2.4-0.3,2.4,1l-0.3,80.8c0,1-0.7,1-2.1,1.4L100.1,374L100.1,374z M686.9,365.5c4.5-2.7,2.7-2.4,6.5-4.5
		c0.7-0.7,4.1-3.1,5.5-0.7l1.4-0.7l-12.3-17.8l-1.4,0.7c0.7,3.4-0.7,5.8-3.4,7.5c-30.8,26.7-75.4,3.4-62.3-32.2
		c11-25,44.2-22.6,61.3-11.3c1.4,1.4,1.7,2.1,1.7,4.5l2.1,0.7l11.3-18.2l-1-0.7c-4.5,2.7-3.8,1.7-7.9-0.3c-14-7.2-30.5-9.2-45.9-6.2
		c-28.4,6.2-42.8,26.4-37.7,54.1C614.6,374.4,657.8,384.7,686.9,365.5L686.9,365.5z M284,363.4h16.1V362c-1.4,0-1.7-1-1.4-2.1
		l24.3-55.5c0.7-2.1,1.4-2.1,2.1-2.1v-1h-15.8v1c1,0,2.1,0.7,1.7,1.7L293.3,347l-19.9-42.5c-0.3-0.7-0.7-2.4,1.4-2.4v-1H258v1
		c2.4,0.3,2.1,1,2.7,2.1l24.7,55.8c0.3,0.7,0,1.7-1,1.7v1.7H284z M525.5,360l-16.1-34.3l-9.6-20.6c-0.7-0.7-0.7-2.7,1.4-2.7v-1
		h-17.8v1c2.1,0,2.1,1.4,1.7,2.4c-3.4,6.9-6.5,13.7-9.6,20.9c-1,2.7-2.7,5.1-3.8,7.9l-12.3,27.1c-0.3,0.7-0.3,1.4-1.4,1.4v1.4h14.7
		V362c-2.1,0-1-1.7-1-2.7l6.2-13h28.4l6.2,13c0.3,1.4,0.7,2.7-1.7,2.7v1.4h16.4V362C526.2,362,526.2,361.4,525.5,360L525.5,360z
		 M500.5,335.7h-17.5c-0.3,0-0.3-0.3-0.3-0.7l4.5-9.6l4.5-10.3l4.8,10.3l4.5,9.6C500.9,335.7,500.5,335.7,500.5,335.7L500.5,335.7z
		 M459.4,362c-1,0-2.1-0.3-2.1-1.7v-56.2c0-0.7,1-1,1.7-1.4v-1h-18.2v1c1,0,2.1,1,1.7,1.7l-18.8,34.9l-18.2-34.3c0,0-1-2.4,1.7-2.4
		v-1h-17.8v1c2.4,0,2.1,2.1,2.1,2.4V361c0,0.7-0.7,1.4-2.1,1.4v1.4h13.7v-1.4c-1,0-2.1-0.3-2.1-1.4v-38.7l21.6,41.4l22.6-42.5v39.1
		c0,1.7-1.7,1.7-1.7,1.7v1.4h15.1L459.4,362L459.4,362z M552.6,363.4V362c-0.7-0.3-2.1,0-2.4-1.4l0.3-47.6h21.2
		c1.7,0,2.1,0.7,2.1,1.7h1.4v-13.4h-1.7c0,1-0.3,1-2.7,1.4H518c-1-0.3-1.7-0.3-2.1-1l-0.7-0.3v13.4h1c0-1,0-1.7,1.7-1.7h19.9v47.6
		c0,1-1,1.4-2.1,1.4v1.4H552.6L552.6,363.4z M596.8,363.4V362c-1,0-2.4-0.7-2.4-2.1v-55.5c0-1.4,0.7-2.1,2.1-2.1v-1h-16.1v1
		c2.4,0,2.1,0.7,2.1,2.1l0.3,55.8c-0.3,1-1,1.7-2.4,1.7v1.4L596.8,363.4L596.8,363.4z M265.2,331.9c-1-16.8-15.1-30.5-34.9-30.5
		c-20.2,0-35.3,13-35.6,30.5c0,0.3,0,0.7,0,0.7c0,17.8,14.4,30.5,34.6,30.5c20.9,0,36.3-11.6,36.3-29.5
		C265.5,333.3,265.5,332.6,265.2,331.9L265.2,331.9z M254.9,333.3c0,12.3-11,20.6-25,20.6c-14.7,0-24.7-9.2-24.7-21.6l0,0
		c0.3-12.3,11-21.6,25-21.6c14,0,24,9.6,24.7,21.6C254.9,332.2,254.9,332.6,254.9,333.3L254.9,333.3z M388.9,331.9
		c-1-16.8-15.1-30.5-34.9-30.5c-20.6,0-35.3,13-35.6,30.5c0,0.3,0,0.7,0,0.7c0,17.8,14,30.5,34.6,30.5c20.6,0,36-11.6,36-29.5
		C388.9,333.3,388.9,332.6,388.9,331.9L388.9,331.9z M378.6,333.3c0,12.3-11,20.6-25.3,20.6s-24.3-9.2-24.3-21.6l0,0
		c0-12.3,10.6-21.6,25-21.6c14,0,24,9.6,24.7,21.6C378.6,332.2,378.6,332.6,378.6,333.3L378.6,333.3z"/>
</g>
</svg>
