<?xml version="1.0" encoding="utf-8"?>
<!-- Generator: Adobe Illustrator 17.1.0, SVG Export Plug-In . SVG Version: 6.00 Build 0)  -->
<!DOCTYPE svg PUBLIC "-//W3C//DTD SVG 1.1//EN" "http://www.w3.org/Graphics/SVG/1.1/DTD/svg11.dtd">
<svg version="1.1" id="Layer_1" xmlns="http://www.w3.org/2000/svg" xmlns:xlink="http://www.w3.org/1999/xlink" x="0px" y="0px"
	 viewBox="0 21 240 198" enable-background="new 0 21 240 198" xml:space="preserve">
<path id="wms_1_" fill="none" stroke="#1E2123" stroke-width="1.5" stroke-miterlimit="10" d="M232.2,119.9
	c-8.7-5.9-32.6-7.5-32.7-11.8c-0.1-4.5,4.4-4.8,7.3-4.8c8.6,0,8,6.9,8,6.9h20.4c0-15.9-18.4-15.7-27.7-15.7
	c-18.9,0-26.1,4.1-28.4,9.8v-8.4h-15.1h-4.1h-12.5l-10.1,32.4l-10.3-32.4h-13.6h-4.4H97.1h-1.8H78.5l-6.7,30.3l-9-30.3h-7h-11h-5.4
	l-9.3,31.2l-6.5-31.1H3.1l11.7,48.3H25h8.7h7.6l8.9-29.9l8.9,29.9h8.6h9.4h8.6l9.6-40.6v40.6h17.9v-35.8l12.7,35.8h6.3h10h4
	l13.6-37.1v37.1h19.2v-6.9c2.7,4.9,9.9,8.4,28.4,8.4c22,0,29.4-7.2,29.4-16C236.9,129.5,237.6,123.6,232.2,119.9z M207.1,136.5
	c-10-0.2-8.6-8-8.6-8H179v-13.7c5.9,11.9,36.3,9.3,36.3,16.4C215.4,133.7,213.1,136.6,207.1,136.5z M232.2,119.9
	c-8.7-5.9-32.6-7.5-32.7-11.8c-0.1-4.5,4.4-4.8,7.3-4.8c8.6,0,8,6.9,8,6.9h20.4c0-15.9-18.4-15.7-27.7-15.7
	c-18.9,0-26.1,4.1-28.4,9.8v-8.4h-15.1h-4.1h-12.5l-4.8,15.4l14.7,2.9l2.5-7v7.5l19.2,3.7v-3.4c0.8,1.6,2.1,3,3.7,4.2l54.2,10.5
	C237,128.6,237.2,123.3,232.2,119.9z M108.8,95.8H97.1h-1.8H78.4l-0.6,2.9l53.2,10.3l-4.2-13.1h-13.6H108.8z"/>
<g id="wms">
	<path id="XMLID_2420_" fill="#131212" d="M232.2,119.9c-8.7-5.9-32.6-7.5-32.7-11.8c-0.1-4.5,4.4-4.8,7.3-4.8c8.6,0,8,6.9,8,6.9
		h20.4c0-15.9-18.4-15.7-27.7-15.7c-18.9,0-26.1,4.1-28.4,9.8v-8.4h-15.1h-4.1h-12.5l-10.1,32.4l-10.3-32.4h-13.6h-4.4H97.1h-1.8
		H78.5l-6.7,30.3l-9-30.3h-7h-11h-5.4l-9.3,31.2l-6.5-31.1H3.1l11.7,48.3H25h8.7h7.6l8.9-29.9l8.9,29.9h8.6h9.4h8.6l9.6-40.6v40.6
		h17.9v-35.8l12.7,35.8h6.3h10h4l13.6-37.1v37.1h19.2v-6.9c2.7,4.9,9.9,8.4,28.4,8.4c22,0,29.4-7.2,29.4-16
		C236.9,129.5,237.6,123.6,232.2,119.9z M207.1,136.5c-10-0.2-8.6-8-8.6-8H179v-13.7c5.9,11.9,36.3,9.3,36.3,16.4
		C215.4,133.7,213.1,136.6,207.1,136.5z"/>
	<path fill="#0063A0" d="M232.2,119.9c-8.7-5.9-32.6-7.5-32.7-11.8c-0.1-4.5,4.4-4.8,7.3-4.8c8.6,0,8,6.9,8,6.9h20.4
		c0-15.9-18.4-15.7-27.7-15.7c-18.9,0-26.1,4.1-28.4,9.8v-8.4h-15.1h-4.1h-12.5l-4.8,15.4l14.7,2.9l2.5-7v7.5l19.2,3.7v-3.4
		c0.8,1.6,2.1,3,3.7,4.2l54.2,10.5C237,128.6,237.2,123.3,232.2,119.9z M108.8,95.8H97.1h-1.8H78.4l-0.6,2.9l53.2,10.3l-4.2-13.1
		h-13.6H108.8z"/>
</g>
</svg>
