<?xml version="1.0" encoding="utf-8"?>
<!-- Generator: Adobe Illustrator 17.1.0, SVG Export Plug-In . SVG Version: 6.00 Build 0)  -->
<!DOCTYPE svg PUBLIC "-//W3C//DTD SVG 1.1//EN" "http://www.w3.org/Graphics/SVG/1.1/DTD/svg11.dtd">
<svg version="1.1" id="Layer_1" xmlns="http://www.w3.org/2000/svg" xmlns:xlink="http://www.w3.org/1999/xlink" x="0px" y="0px"
	 viewBox="0 21 240 198" enable-background="new 0 21 240 198" xml:space="preserve">
<path id="artistocrat_1_" fill="none" stroke="#1E2123" stroke-width="1.5" stroke-miterlimit="10" d="M13.5,135.9
	c0.6-2.1,2.5-6.4,5.8-10.9c2.8-3.7,8.9-8.4,8.9-8.4v19.3L13.5,135.9L13.5,135.9z M149.4,114.7l0-4.2l22.9,0l0,4.3L149.4,114.7
	L149.4,114.7z M62.4,153v-34.5h-4.5v34.5L62.4,153L62.4,153z M160.6,106.5c6.5,0,11.8-5.3,11.8-11.8c0-6.5-5.3-11.8-11.8-11.8
	c-6.5,0-11.8,5.3-11.8,11.8C148.8,101.2,154.1,106.5,160.6,106.5L160.6,106.5z M124.9,122.7l0-4l-43.7,0l0,4l7.5,0l0,30.3h3.7v-30.3
	L124.9,122.7L124.9,122.7z M235.9,117.9h-21.5l0,4.3h8.4V153h4.4v-30.6l8.7,0L235.9,117.9L235.9,117.9z M32.7,107.6
	c0,0-11.7,7.1-18.9,17.7C6.2,136.4,4,153,4,153l5,0l1.5-7.1l1.5-5.7h16.4l0,12.9l4.2,0L32.7,107.6L32.7,107.6z M45.2,119
	c-3-1.2-8.2-0.8-8.2-0.8V153h4.4l0-10.5h0.7h0.7c0,0,2.1,5.6,4.9,7.9c2.3,1.9,7.1,2.9,7.1,2.9l0-4.3c0,0-3.9-1.4-5.7-3.1
	c-1.4-1.4-2.1-2.5-2.7-4.4c4.7-2.1,7-5.7,7.1-11C53.8,123.4,50.4,121.2,45.2,119L45.2,119z M49.4,129.8c0,7.2-7.8,8.2-7.8,8.2v-15.3
	C41.6,122.6,49.4,123,49.4,129.8L49.4,129.8z M107,117.7c3.4-3.2,8-5.1,13.1-5.1c10.5,0,19.1,8.5,19.1,19c0,10.5-8.5,19-19.1,19
	s-19.1-8.5-19.1-19c0-2.8,0.5-5.2,1.5-7.5h-5.2c-0.9,2.4-1,4.8-1,7.5c0,13.1,10.7,23.7,23.8,23.7s23.8-10.6,23.8-23.7
	s-10.7-23.7-23.8-23.7c-8,0-15.1,3.8-19.4,9.8L107,117.7L107,117.7z M172.4,148.6c-2.3,1.6-5.1,2.4-8.2,2.4
	c-8.1,0-14.7-6.5-14.7-14.6c0-8.1,6.6-14.6,14.7-14.6c3,0,5.8,0.9,8.1,2.4V120c-2.4-1.2-5.2-1.9-8.1-1.9c-10.1,0-18.4,8.2-18.4,18.3
	s8.2,18.3,18.4,18.3c2.9,0,6.1-0.7,8.5-1.8L172.4,148.6L172.4,148.6z M186.5,118.9c-3-0.9-8.2-0.8-8.2-0.8v35l4.4,0l0-10.6h0.7h0.7
	c0,0,2.1,5.6,4.9,7.9c2.4,1.9,7.2,2.9,7.2,2.9v-4.3c0,0-3.9-1.4-5.7-3.1c-1.4-1.4-2.1-2.5-2.7-4.4c4.7-2.1,7-5.7,7.1-11
	C195.1,123.2,191.3,120.3,186.5,118.9L186.5,118.9z M190.7,129.6c0,7.2-7.8,8.2-7.8,8.2v-15.3C182.9,122.4,190.7,122.8,190.7,129.6
	L190.7,129.6z M199.1,118.8V153l3.9,0v-9.3h11.5c0,0,0.2,1,0.4,1.7c0.5,1.4,0.4,2.2,0.5,3.6c0.2,1.6,0.2,4,0.2,4l4.3,0
	c0,0,0-5.2-0.7-8.4c-0.8-3.8-2-5.7-3.5-9.3C211,124.3,199.1,118.8,199.1,118.8L199.1,118.8z M212.6,139.2l0.1,0.3l-9.6,0V126
	c0,0,3.4,2.8,5.6,5.9C210.4,134.5,212.6,139.2,212.6,139.2L212.6,139.2z M69.5,139.5c1.6,1.6,4.7,4.6,4.7,7c0,2.4-1.4,4.6-3,6.5h5.4
	c1.2-1.9,2-4.1,2-6.5c0-4.2-3.8-7.9-6.1-10.1c-0.4-0.4-0.8-0.8-1-1c-2.1-2.4-3-4.9-3-7.7c0-4.2,3.5-4.7,4.9-4.7
	c2.5,0,4.6,1.6,6.1,3.2v-5.7c-1.7-1.1-3.7-1.9-6.1-1.9c-5.6,0-9.4,3.7-9.4,9.1c0,3.8,1.4,7.3,4.1,10.5C68.6,138.6,69,139,69.5,139.5
	L69.5,139.5z"/>
<path id="artistocrat" fill="#5097FF" d="M13.5,135.9c0.6-2.1,2.5-6.4,5.8-10.9c2.8-3.7,8.9-8.4,8.9-8.4v19.3L13.5,135.9L13.5,135.9
	z M149.4,114.7l0-4.2l22.9,0l0,4.3L149.4,114.7L149.4,114.7z M62.4,153v-34.5h-4.5v34.5L62.4,153L62.4,153z M160.6,106.5
	c6.5,0,11.8-5.3,11.8-11.8c0-6.5-5.3-11.8-11.8-11.8c-6.5,0-11.8,5.3-11.8,11.8C148.8,101.2,154.1,106.5,160.6,106.5L160.6,106.5z
	 M124.9,122.7l0-4l-43.7,0l0,4l7.5,0l0,30.3h3.7v-30.3L124.9,122.7L124.9,122.7z M235.9,117.9h-21.5l0,4.3h8.4V153h4.4v-30.6l8.7,0
	L235.9,117.9L235.9,117.9z M32.7,107.6c0,0-11.7,7.1-18.9,17.7C6.2,136.4,4,153,4,153l5,0l1.5-7.1l1.5-5.7h16.4l0,12.9l4.2,0
	L32.7,107.6L32.7,107.6z M45.2,119c-3-1.2-8.2-0.8-8.2-0.8V153h4.4l0-10.5h0.7h0.7c0,0,2.1,5.6,4.9,7.9c2.3,1.9,7.1,2.9,7.1,2.9
	l0-4.3c0,0-3.9-1.4-5.7-3.1c-1.4-1.4-2.1-2.5-2.7-4.4c4.7-2.1,7-5.7,7.1-11C53.8,123.4,50.4,121.2,45.2,119L45.2,119z M49.4,129.8
	c0,7.2-7.8,8.2-7.8,8.2v-15.3C41.6,122.6,49.4,123,49.4,129.8L49.4,129.8z M107,117.7c3.4-3.2,8-5.1,13.1-5.1
	c10.5,0,19.1,8.5,19.1,19c0,10.5-8.5,19-19.1,19s-19.1-8.5-19.1-19c0-2.8,0.5-5.2,1.5-7.5h-5.2c-0.9,2.4-1,4.8-1,7.5
	c0,13.1,10.7,23.7,23.8,23.7s23.8-10.6,23.8-23.7s-10.7-23.7-23.8-23.7c-8,0-15.1,3.8-19.4,9.8L107,117.7L107,117.7z M172.4,148.6
	c-2.3,1.6-5.1,2.4-8.2,2.4c-8.1,0-14.7-6.5-14.7-14.6c0-8.1,6.6-14.6,14.7-14.6c3,0,5.8,0.9,8.1,2.4V120c-2.4-1.2-5.2-1.9-8.1-1.9
	c-10.1,0-18.4,8.2-18.4,18.3s8.2,18.3,18.4,18.3c2.9,0,6.1-0.7,8.5-1.8L172.4,148.6L172.4,148.6z M186.5,118.9
	c-3-0.9-8.2-0.8-8.2-0.8v35l4.4,0l0-10.6h0.7h0.7c0,0,2.1,5.6,4.9,7.9c2.4,1.9,7.2,2.9,7.2,2.9v-4.3c0,0-3.9-1.4-5.7-3.1
	c-1.4-1.4-2.1-2.5-2.7-4.4c4.7-2.1,7-5.7,7.1-11C195.1,123.2,191.3,120.3,186.5,118.9L186.5,118.9z M190.7,129.6
	c0,7.2-7.8,8.2-7.8,8.2v-15.3C182.9,122.4,190.7,122.8,190.7,129.6L190.7,129.6z M199.1,118.8V153l3.9,0v-9.3h11.5
	c0,0,0.2,1,0.4,1.7c0.5,1.4,0.4,2.2,0.5,3.6c0.2,1.6,0.2,4,0.2,4l4.3,0c0,0,0-5.2-0.7-8.4c-0.8-3.8-2-5.7-3.5-9.3
	C211,124.3,199.1,118.8,199.1,118.8L199.1,118.8z M212.6,139.2l0.1,0.3l-9.6,0V126c0,0,3.4,2.8,5.6,5.9
	C210.4,134.5,212.6,139.2,212.6,139.2L212.6,139.2z M69.5,139.5c1.6,1.6,4.7,4.6,4.7,7c0,2.4-1.4,4.6-3,6.5h5.4c1.2-1.9,2-4.1,2-6.5
	c0-4.2-3.8-7.9-6.1-10.1c-0.4-0.4-0.8-0.8-1-1c-2.1-2.4-3-4.9-3-7.7c0-4.2,3.5-4.7,4.9-4.7c2.5,0,4.6,1.6,6.1,3.2v-5.7
	c-1.7-1.1-3.7-1.9-6.1-1.9c-5.6,0-9.4,3.7-9.4,9.1c0,3.8,1.4,7.3,4.1,10.5C68.6,138.6,69,139,69.5,139.5L69.5,139.5z"/>
</svg>
