<?xml version="1.0" encoding="utf-8"?>
<!-- Generator: Adobe Illustrator 17.1.0, SVG Export Plug-In . SVG Version: 6.00 Build 0)  -->
<!DOCTYPE svg PUBLIC "-//W3C//DTD SVG 1.1//EN" "http://www.w3.org/Graphics/SVG/1.1/DTD/svg11.dtd">
<svg version="1.1" xmlns="http://www.w3.org/2000/svg" xmlns:xlink="http://www.w3.org/1999/xlink" x="0px" y="0px"
	 viewBox="0 0 800 660" enable-background="new 0 0 800 660" xml:space="preserve">
<g id="Layer_2">
	
		<radialGradient id="light_1_" cx="399.9813" cy="329.9318" r="395.506" gradientTransform="matrix(0.9639 0 0 0.88 14.4759 39.66)" gradientUnits="userSpaceOnUse">
		<stop  offset="0.5" style="stop-color:#FFFFFF"/>
		<stop  offset="1" style="stop-color:#D9D9D9"/>
	</radialGradient>
	<rect id="light" fill="url(#light_1_)" width="800" height="660"/>
</g>

<g id="devs">
	
	<g id="barcrest">
		<linearGradient id="XMLID_25_" gradientUnits="userSpaceOnUse" x1="400.5784" y1="412.0419" x2="400.5784" y2="318.1221">
			<stop  offset="0.6687" style="stop-color:#FFFFFF"/>
			<stop  offset="1" style="stop-color:#007CBB"/>
		</linearGradient>
		<path id="XMLID_1310_" opacity="0.39" fill="url(#XMLID_25_)" d="M233.1,397.3c-1,0,2.1,0,9.3,0c5.2,0,6.2-5.3,6.2-10.6
			s-2.1-10.6-6.2-10.6c-8.3-1.1-10.4,0-10.4-1.1L233.1,397.3L233.1,397.3z M233.1,362.4c25.9,5.3,27-34.8,0-28.5V362.4L233.1,362.4z
			 M306.8,352.9c0-5.3,1-8.4-1-12.7c-3.1-9.5-15.6-6.3-16.6,0C286,349.8,293.3,354,306.8,352.9L306.8,352.9z M473.8,361.4
			c0,7.4,1,11.6,4.2,15.8c1,2.1,5.2,4.2,8.3,0C490.4,374.1,479,365.6,473.8,361.4L473.8,361.4z M218.6,405.7v-81.3
			c0-3.2,2.1-5.3,6.2-5.3c9.3-1.1,8.3-1.1,18.7-1.1c12.4,0,17.6,5.3,23.9,17.9h7.3c5.2-21.1,30.1-16.9,32.2-10.6
			c4.2-8.4,13.5-3.2,14.5,1.1c0,4.2,0,6.3,0,9.5h14.5c0-4.2,0-5.3,0-8.4c1-11.6,15.6-7.4,14.5,0c0,1.1,0,3.2,0,8.4h23.9
			c3.1-10.6,11.4-14.8,20.7-14.8c9.3,0,17.6,3.2,20.8,14.8h7.3c0-5.3,0-5.3,1-9.5c0-9.5,13.5-6.3,13.5,0v9.5h23.9
			c4.2-8.4,10.4-12.7,19.7-13.7c9.3-1.1,17.6,4.2,21.8,13.7h4.2c5.2-9.5,12.5-13.7,22.8-12.7c9.3,0,15.6,4.2,20.7,12.7H562
			c-1-10.6,0-15.8,7.3-15.8c5.2,1.1,7.3,3.2,6.2,15.8v16.9v26.4c0,0,7.3,0,7.3,7.4c-1,7.4-7.3,7.4-7.3,7.4c1,10.6-1,13.7-7.3,12.7
			c-5.2,0-7.3-3.2-6.2-12.7c0,0-7.3,0-7.3-7.4c1-7.4,5.2-7.4,7.3-7.4v-26.4h-11.4c-7.3,14.8-13.5,12.7-21.8,20
			c-2.1,1.1-4.1,7.4,3.1,8.4c4.1,1.1,6.2-2.1,10.4-3.2c7.3-2.1,11.4,7.4,5.2,12.7c-6.2,5.3-15.6,4.2-19.7,3.2
			c-3.1-1.1-12.4-3.2-15.6-11.6c-4.2-13.7,4.1-20.1,13.5-25.3c5.2-4.2,12.4-7.4,10.4-13.7c-2.1-5.3-8.3-7.4-12.5-5.3
			c-6.2,4.2-5.2,6.3-6.2,11.6c0,3.2-1,3.2-7.3,3.2c-4.2,0-6.2,0-11.4,0c-4.2,0-6.2-1.1-6.2-4.2c0-6.3-4.2-12.7-9.3-11.6
			c-6.2,1.1-8.3,5.3-8.3,10.6c13.5,9.5,14.5,8.4,22.8,17.9c4.1,4.2,6.2,16.9-1,23.2c-5.2,5.3-10.4,7.4-18.7,5.3
			c-7.3-1.1-12.4-4.2-15.6-11.6c-3.1-10.6-2.1-14.8-3.1-29.5h-21.8c0,8.4,0,13.7,0,17.9c0,9.5,8.3,7.4,14.5,8.4
			c4.1,0,7.3,10.6-1,13.7c-5.2,2.1-11.4-1.1-13.5-5.3c-1,6.3-14.5,8.4-14.5-3.2c0-12.7,0-7.4,0-31.7h-13.5c-3.1,0-4.2-1.1-4.2-4.2
			s0-7.4-2.1-10.6c-3.1-3.2-9.3-3.2-12.4,0c-3.1,4.2-5,29.3,0,38c3.1,4.2,9.3,2.1,10.4-2.1c0-6.3,12.4-9.5,12.4,2.1
			c-1,9.5-4.1,10.6-8.3,13.7c-4.1,3.2-19.7,5.3-25.9-3.2c-7.3-9.5-6.2-15.8-7.3-33.8h-21.8c1,9.5-1,16.9,2.1,20
			c4.2,4.2,6.2,4.2,11.4,4.2c6.2,0,7.3,10.6,3.1,12.7c-5.2,4.2-10.4,3.2-17.6-3.2c-2.1,10.6-13.5,4.2-13.5-2.1c1-3.2,0-21.1,0-31.7
			h-15.6l1,23.2c0,8.4-7.3,15.8-23.9,15.8c-1,0-9.3,0-14.5-4.2c-8.3-7.4,0-14.8,5.2-12.7c9.3,4.2,17.6,5.3,18.7-2.1
			c0-3.2-1-8.4,0-8.4c-27,1.1-29-9.5-30.1-11.6h-9.3c0,0,0,7.4-3.1,11.6c-3.1,3.2-8.3,5.3-8.3,5.3c14.5,9.5,8.3,42.2-8.3,42.2h-23.9
			C221.7,412,217.6,411,218.6,405.7L218.6,405.7z"/>
		<linearGradient id="XMLID_26_" gradientUnits="userSpaceOnUse" x1="174.9228" y1="312.5771" x2="625.0669" y2="312.5771">
			<stop  offset="0" style="stop-color:#183A66"/>
			<stop  offset="0.25" style="stop-color:#0082BF"/>
			<stop  offset="0.5" style="stop-color:#7BB5E2"/>
			<stop  offset="0.75" style="stop-color:#007CBB"/>
			<stop  offset="1" style="stop-color:#183A66"/>
		</linearGradient>
		<path id="XMLID_1316_" fill="url(#XMLID_26_)" d="M597.2,272c1.3-0.9,2.9-1.8,4-2.3c0.2-0.1,0.1-0.4-0.1-0.4
			c-1.8,0.3-5.3,1.4-6.3,0.9c-1-0.6-2.1-4.2-2.8-5.8c-0.1-0.2-0.4-0.1-0.4,0.1c0.2,1.1,0.2,2.9,0.1,4.4
			c-45.3-24.3-120.7-32-120.7-32s77.5,10.5,120.1,34.2c-0.8,1-3.5,2.1-5,2.7c-0.2,0.1-0.1,0.4,0.1,0.4c1.8-0.3,6.1-1.4,7.1-0.8
			c1,0.6,1.3,3.8,2,5.4c0.1,0.2,0.4,0.1,0.4-0.1c-0.3-1.7-0.5-3.9,0-5c13.2,8.2,22.2,17.8,22.8,29c1.2,24.5-34.4,34.7-69.6,46.6
			c-43,9.6-92.1,14.6-148.7,14.6s-106.7-5.1-148.7-14.6c-35.1-11.9-67.6-21.4-67.6-46.6c0-42.5,149-65.8,149-65.8
			S174.9,253.2,174.9,310c0,42,115.9,78.2,225.1,78.2c110.3-1.1,225.1-36.2,225.1-78.2C625.1,294.5,613.7,282,597.2,272z"/>
		<linearGradient id="XMLID_27_" gradientUnits="userSpaceOnUse" x1="142.4133" y1="331.2455" x2="657.5867" y2="331.2455">
			<stop  offset="0" style="stop-color:#183A66"/>
			<stop  offset="0.25" style="stop-color:#0082BF"/>
			<stop  offset="0.5" style="stop-color:#7BB5E2"/>
			<stop  offset="0.75" style="stop-color:#007CBB"/>
			<stop  offset="1" style="stop-color:#183A66"/>
		</linearGradient>
		<path id="XMLID_1317_" fill="url(#XMLID_27_)" d="M481.3,231.4c0,0,153.7,25.4,153.7,77.9c0,57.4-146.4,86.7-235,86.7
			c-85.6,0-235.6-29.1-235.6-86.7c0-56.1,158.7-77.9,158.7-77.9s-180.6,21.6-180.6,96.5c0,55.4,132.6,103.2,257.6,103.2
			c126.2-1.5,257.6-47.8,257.6-103.2C657.6,252.2,481.3,231.4,481.3,231.4z"/>
		<linearGradient id="XMLID_28_" gradientUnits="userSpaceOnUse" x1="218.431" y1="275.8261" x2="582.7258" y2="275.8261">
			<stop  offset="0" style="stop-color:#0061A2"/>
			<stop  offset="0.394" style="stop-color:#0078B1"/>
			<stop  offset="0.6994" style="stop-color:#0082BF"/>
			<stop  offset="1" style="stop-color:#7BB5E2"/>
		</linearGradient>
		<path id="XMLID_1388_" fill="url(#XMLID_28_)" d="M233.1,243.6l-1,22.2c0-1.1,2.1,0,10.4-1.1c4.1,0,6.2-5.3,6.2-10.6
			c0-5.3-1-10.6-6.2-10.6C235.2,243.6,232.1,243.6,233.1,243.6L233.1,243.6z M233.1,278.5V307C260.1,313.3,259.1,273.2,233.1,278.5
			L233.1,278.5z M306.8,288c-13.5-1.1-20.8,3.2-17.6,12.7C290.2,307,306.8,308.3,306.8,288L306.8,288z M473.8,279.5
			c5.2-4.2,16.6-12.7,12.5-15.8c-3.1-4.2-7.3-2.1-8.3,0C474.8,267.9,473.8,272.1,473.8,279.5L473.8,279.5z M218.6,235.2
			c-1-5.3,3.1-6.3,5.2-6.3h23.9c16.6,0,22.8,32.7,8.3,42.2c0,0,5.2,2.1,8.3,5.3c3.1,4.2,3.1,11.6,3.1,11.6h9.3
			c1-2.1,3.1-12.7,30.1-11.6c-1,0,0-5.3,0-8.4c-1-7.4-9.3-6.3-18.7-2.1c-5.2,2.1-13.5-5.3-5.2-12.7c5.2-4.2,13.5-4.2,14.5-4.2
			c16.6,0,23.9,7.4,23.9,15.8l-1,23.2h15.6c0-10.6,1-28.5,0-31.7c0-6.3,11.4-12.7,13.5-2.1c7.3-6.3,12.5-7.4,17.6-3.2
			c4.1,2.1,3.1,12.7-3.1,12.7c-5.2,0-7.3,0-11.4,4.2c-3.1,3.2-2.1,20-2.1,20h21.8c1-17.9,0-24.3,7.3-33.8c6.2-8.4,21.8-6.3,25.9-3.2
			c4.2,3.2,7.3,4.2,8.3,13.7c0,11.6-12.4,8.4-12.4,2.1c-1-4.2-7.3-6.3-10.4-2.1c-5,8.6-3.1,33.8,0,38c3.1,3.2,9.3,3.2,12.4,0
			c2.1-3.2,2.1-7.4,2.1-10.6s1-4.2,4.2-4.2H423c0-24.3,0-19,0-31.7c0-11.6,13.5-9.5,14.5-3.2c2.1-4.2,8.3-7.4,13.5-5.3
			c8.3,3.2,5.2,13.7,1,13.7c-6.2,1.1-14.5-1.1-14.5,8.4c0,4.2,0,9.5,0,17.9h21.8c1-14.8,0-19,3.1-29.5c3.1-7.4,8.3-10.6,15.6-11.6
			c8.3-2.1,13.5,0,18.7,5.3c7.3,6.3,5.2,19,1,23.2c-8.3,9.5-9.3,8.4-22.8,17.9c0,5.3,2.1,9.5,8.3,10.6c5.2,1.1,9.3-5.3,9.3-11.6
			c0-3.2,2.1-4.2,6.2-4.2c5.2,0,7.3,0,11.4,0c6.2,0,7.3,0,7.3,3.2c1,5.3,0,7.4,6.2,11.6c4.2,2.1,10.4,0,12.5-5.3
			c2.1-6.3-5.2-9.5-10.4-13.7c-9.3-5.3-17.6-11.6-13.5-25.3c3.1-8.4,12.5-10.6,15.6-11.6c4.2-1.1,13.5-2.1,19.7,3.2
			c6.2,5.3,2.1,14.8-5.2,12.7c-4.1-1.1-6.2-4.2-10.4-3.2c-7.3,1.1-5.2,7.4-3.1,8.4c8.3,7.4,14.5,5.3,21.8,20H562v-26.4
			c-2.1,0-6.2,0-7.3-7.4c0-7.4,7.3-7.4,7.3-7.4c-1-9.5,1-12.7,6.2-12.7c6.2-1.1,8.3,2.1,7.3,12.7c0,0,6.2,0,7.3,7.4
			c0,7.4-7.3,7.4-7.3,7.4V288v16.9c1,12.7-1,14.8-6.2,15.8c-7.3,0-8.3-5.3-7.3-15.8h-11.4c-5.2,8.4-11.4,12.7-20.7,12.7
			c-10.4,1.1-17.6-3.2-22.8-12.7h-4.2c-4.2,9.5-12.5,14.8-21.8,13.7c-9.3-1.1-15.6-5.3-19.7-13.7h-23.9v9.5c0,6.3-13.5,9.5-13.5,0
			c-1-4.2-1-4.2-1-9.5h-7.3c-3.1,11.6-11.4,14.8-20.8,14.8c-9.3,0-17.6-4.2-20.7-14.8h-23.9c0,5.3,0,7.4,0,8.4
			c1,7.4-13.5,11.6-14.5,0c0-3.2,0-4.2,0-8.4h-14.5v9.5c-1,4.2-10.4,9.5-14.5,1.1c-2.1,6.3-27,10.6-32.2-10.6h-7.3
			c-6.2,12.7-11.4,17.9-23.9,17.9c-10.4,0-9.3,0-18.7-1.1c-4.1,0-6.2-2.1-6.2-5.3L218.6,235.2L218.6,235.2z"/>
	</g>
</g>
</svg>
