<?xml version="1.0" encoding="utf-8"?>
<!-- Generator: Adobe Illustrator 17.1.0, SVG Export Plug-In . SVG Version: 6.00 Build 0)  -->
<!DOCTYPE svg PUBLIC "-//W3C//DTD SVG 1.1//EN" "http://www.w3.org/Graphics/SVG/1.1/DTD/svg11.dtd">
<svg version="1.1" id="craps" xmlns="http://www.w3.org/2000/svg" xmlns:xlink="http://www.w3.org/1999/xlink" x="0px" y="0px"
	 viewBox="0 0 240 240" enable-background="new 0 0 240 240" xml:space="preserve">
<g>
	<path fill="#D4D3D3" d="M114.5,42.9c-2.5-5-8.7-7-13.6-4.5L5.6,86.8c-5,2.5-7,8.7-4.5,13.7l48.3,95.3c2.5,5,8.7,7,13.7,4.5
		l42.8-21.8V86.3c-1.2,1.6-2.7,3-4.6,3.9c-6.5,3.3-14.5,0.7-17.8-5.8c-3.3-6.5-0.7-14.5,5.8-17.8c6.1-3.1,13.4-1,17,4.5
		c1.7-7.3,8.1-12.8,15.9-13.1L114.5,42.9z M47.1,117.8c-6.5,3.3-14.5,0.7-17.8-5.8c-3.3-6.5-0.7-14.5,5.8-17.8s14.5-0.7,17.8,5.8
		C56.2,106.5,53.6,114.5,47.1,117.8z M74.6,172c-6.5,3.3-14.5,0.7-17.8-5.8s-0.7-14.5,5.8-17.8s14.5-0.7,17.8,5.8
		C83.7,160.7,81.1,168.7,74.6,172z M93.8,113.4c3.3,6.5,0.7,14.5-5.8,17.8c-6.5,3.3-14.5,0.7-17.8-5.8c-3.3-6.5-0.7-14.5,5.8-17.8
		C82.5,104.2,90.5,106.8,93.8,113.4z"/>
	<path fill="#D4D3D3" d="M229.6,64.8H122.7c-5.6,0-10.2,4.5-10.2,10.2v106.8c0,5.6,4.6,10.2,10.2,10.2h106.8
		c5.6,0,10.2-4.6,10.2-10.2V74.9C239.8,69.3,235.2,64.8,229.6,64.8z M145.8,172c-7.3,0-13.2-5.9-13.2-13.2c0-7.3,5.9-13.2,13.2-13.2
		c7.3,0,13.2,5.9,13.2,13.2C159,166,153.1,172,145.8,172z M176.2,141.6c-7.3,0-13.2-5.9-13.2-13.2c0-7.3,5.9-13.2,13.2-13.2
		c7.3,0,13.2,5.9,13.2,13.2C189.4,135.6,183.5,141.6,176.2,141.6z M206.6,111.2c-7.3,0-13.2-5.9-13.2-13.2c0-7.3,5.9-13.2,13.2-13.2
		c7.3,0,13.2,5.9,13.2,13.2C219.8,105.2,213.9,111.2,206.6,111.2z"/>
</g>
</svg>
