<?xml version="1.0" encoding="utf-8"?>
<!-- Generator: Adobe Illustrator 17.1.0, SVG Export Plug-In . SVG Version: 6.00 Build 0)  -->
<!DOCTYPE svg PUBLIC "-//W3C//DTD SVG 1.1//EN" "http://www.w3.org/Graphics/SVG/1.1/DTD/svg11.dtd">
<svg version="1.1" xmlns="http://www.w3.org/2000/svg" xmlns:xlink="http://www.w3.org/1999/xlink" x="0px" y="0px"
	 viewBox="0 0 800 660" enable-background="new 0 0 800 660" xml:space="preserve">
<g id="Layer_2">
	
		<radialGradient id="dark_1_" cx="399.9813" cy="329.9318" r="395.506" gradientTransform="matrix(0.9639 0 0 0.88 14.4759 39.66)" gradientUnits="userSpaceOnUse">
		<stop  offset="0.5" style="stop-color:#262626"/>
		<stop  offset="1" style="stop-color:#1A1A1A"/>
	</radialGradient>
	<rect id="dark" fill="url(#dark_1_)" width="800" height="660"/>
	
</g>

<g id="devs">
	<g id="elk">
		<g id="XMLID_729_">
			<g>
				<path id="XMLID_38_" fill="#E21F27" d="M192.4,303.7h114.1V274H172.1c-13,0-23.6,10.6-23.6,23.6v64.8c0,13,10.6,23.6,23.6,23.6
					h134.3v-28.6H192.4c-3.8,0-6.8-3.1-6.8-6.8v-6h120.9v-29.3H185.5v-4.7C185.5,306.8,188.6,303.7,192.4,303.7z"/>
				<path id="XMLID_22_" d="M306.4,274v29.7H192.4c-3.8,0-6.8,3.1-6.8,6.8v4.7h120.9v29.3H185.5v6c0,3.8,3.1,6.8,6.8,6.8h114.1V386
					H172.1c-13,0-23.6-10.6-23.6-23.6v-64.8c0-13,10.6-23.6,23.6-23.6H306.4 M326,254.4h-19.6H172.1c-23.8,0-43.2,19.4-43.2,43.2
					v64.8c0,23.8,19.4,43.2,43.2,43.2h134.3H326V386v-21.9v-19.6v-21.3v-19.6V274V254.4L326,254.4z"/>
			</g>
			<g>
				<polygon id="XMLID_37_" fill="#E21F27" points="353.8,357.1 353.8,274 314.9,274 314.9,386 318.9,386 353.8,386 472.1,386 
					472.1,357.1 				"/>
				<path id="XMLID_20_" d="M353.8,274v83.2h118.3V386H353.8h-34.8h-4V274H353.8 M373.3,254.4h-19.6h-38.8h-19.6V274V386v19.6h19.6
					h4h34.8h118.3h19.6V386v-28.9v-19.6h-19.6h-98.8V274V254.4L373.3,254.4z"/>
			</g>
			<g>
				<polygon id="XMLID_36_" fill="#E21F27" points="632.8,274 585.8,274 520,321.3 520,274 481.7,274 481.7,386 520,386 520,333.1 
					585,386 632.8,386 565.4,330 				"/>
				<path id="XMLID_15_" d="M632.8,274l-67.4,56l67.4,56H585l-65-52.9V386h-38.3V274H520v47.3l65.8-47.3H632.8 M687,254.4h-54.2
					h-47.1h-6.3l-5.1,3.7l-34.8,25V274v-19.6H520h-38.3h-19.6V274V386v19.6h19.6H520h19.6V386v-11.7l33.1,26.9l5.4,4.4h7h47.9H687
					L645.3,371L596,330l49.3-41L687,254.4L687,254.4z"/>
			</g>
		</g>
		<g id="XMLID_789_">
			<g>
				<path id="XMLID_35_" fill="#E21F27" d="M192.4,303.7h114.1V274H172.1c-13,0-23.6,10.6-23.6,23.6v64.8c0,13,10.6,23.6,23.6,23.6
					h134.3v-28.6H192.4c-3.8,0-6.8-3.1-6.8-6.8v-6h120.9v-29.3H185.5v-4.7C185.5,306.8,188.6,303.7,192.4,303.7z"/>
				<path id="XMLID_10_" fill="#FFFFFF" d="M306.4,274v29.7H192.4c-3.8,0-6.8,3.1-6.8,6.8v4.7h120.9v29.3H185.5v6
					c0,3.8,3.1,6.8,6.8,6.8h114.1V386H172.1c-13,0-23.6-10.6-23.6-23.6v-64.8c0-13,10.6-23.6,23.6-23.6H306.4 M319.5,260.9h-13
					H172.1c-20.2,0-36.7,16.5-36.7,36.7v64.8c0,20.2,16.5,36.7,36.7,36.7h134.3h13v-13v-28.4v-13v-27.8v-13V274V260.9L319.5,260.9z"
					/>
			</g>
			<g>
				<polygon id="XMLID_34_" fill="#E21F27" points="353.8,357.1 353.8,274 314.9,274 314.9,386 318.9,386 353.8,386 472.1,386 
					472.1,357.1 				"/>
				<path id="XMLID_9_" fill="#FFFFFF" d="M353.8,274v83.2h118.3V386H353.8h-34.8h-4V274H353.8 M366.8,260.9h-13h-38.8h-13v13V386
					v13h13h4h34.8h118.3h13v-13v-28.9v-13h-13H366.8V274V260.9L366.8,260.9z"/>
			</g>
			<g>
				<polygon id="XMLID_33_" fill="#E21F27" points="632.8,274 585.8,274 520,321.3 520,274 481.7,274 481.7,386 520,386 520,333.1 
					585,386 632.8,386 565.4,330 				"/>
				<path id="XMLID_8_" fill="#FFFFFF" d="M632.8,274l-67.4,56l67.4,56H585l-65-52.9V386h-38.3V274H520v47.3l65.8-47.3H632.8
					 M668.9,260.9h-36.1h-47.1h-4.2l-3.4,2.5L533,295.8V274v-13h-13h-38.3h-13v13V386v13h13H520h13v-13v-25.5l43.7,35.6l3.6,2.9h4.6
					h47.9h36.1L641.2,376l-55.3-46l55.3-46L668.9,260.9L668.9,260.9z"/>
			</g>
		</g>
		<g id="XMLID_808_">
			<g>
				<linearGradient id="XMLID_65_" gradientUnits="userSpaceOnUse" x1="227.4549" y1="273.974" x2="227.4549" y2="386.026">
					<stop  offset="0" style="stop-color:#EEEEEF"/>
					<stop  offset="1" style="stop-color:#D0D1D3"/>
				</linearGradient>
				<path id="XMLID_32_" fill="url(#XMLID_65_)" d="M192.4,303.7h114.1V274H172.1c-13,0-23.6,10.6-23.6,23.6v64.8
					c0,13,10.6,23.6,23.6,23.6h134.3v-28.6H192.4c-3.8,0-6.8-3.1-6.8-6.8v-6h120.9v-29.3H185.5v-4.7
					C185.5,306.8,188.6,303.7,192.4,303.7z"/>
				<path id="XMLID_7_" d="M306.4,274v29.7H192.4c-3.8,0-6.8,3.1-6.8,6.8v4.7h120.9v29.3H185.5v6c0,3.8,3.1,6.8,6.8,6.8h114.1V386
					H172.1c-13,0-23.6-10.6-23.6-23.6v-64.8c0-13,10.6-23.6,23.6-23.6H306.4 M313,267.5h-6.5H172.1c-16.6,0-30.2,13.5-30.2,30.2
					v64.8c0,16.6,13.5,30.2,30.2,30.2h134.3h6.5V386v-28.6v-6.3v-6.5v-29.3v-5v-6.5V274V267.5L313,267.5z"/>
			</g>
			<g>
				<linearGradient id="XMLID_66_" gradientUnits="userSpaceOnUse" x1="393.5183" y1="273.974" x2="393.5183" y2="386.026">
					<stop  offset="0" style="stop-color:#EEEEEF"/>
					<stop  offset="1" style="stop-color:#D0D1D3"/>
				</linearGradient>
				<polygon id="XMLID_31_" fill="url(#XMLID_66_)" points="353.8,357.1 353.8,274 314.9,274 314.9,386 318.9,386 353.8,386 
					472.1,386 472.1,357.1 				"/>
				<path id="XMLID_6_" d="M353.8,274v83.2h118.3V386H353.8h-34.8h-4V274H353.8 M360.3,267.5h-6.5h-38.8h-6.5v6.5V386v6.5h6.5h4
					h34.8h118.3h6.5V386v-28.9v-6.5h-6.5H360.3V274V267.5L360.3,267.5z"/>
			</g>
			<g>
				<linearGradient id="XMLID_67_" gradientUnits="userSpaceOnUse" x1="557.2657" y1="273.974" x2="557.2657" y2="386.026">
					<stop  offset="0" style="stop-color:#EEEEEF"/>
					<stop  offset="1" style="stop-color:#D0D1D3"/>
				</linearGradient>
				<polygon id="XMLID_24_" fill="url(#XMLID_67_)" points="632.8,274 585.8,274 520,321.3 520,274 481.7,274 481.7,386 520,386 
					520,333.1 585,386 632.8,386 565.4,330 				"/>
				<path id="XMLID_5_" d="M632.8,274l-67.4,56l67.4,56H585l-65-52.9V386h-38.3V274H520v47.3l65.8-47.3H632.8 M650.9,267.5h-18.1
					h-47.1h-2.1l-1.7,1.2l-55.5,39.9V274v-6.5H520h-38.3h-6.5v6.5V386v6.5h6.5H520h6.5V386v-39.2l54.3,44.2l1.8,1.5h2.3h47.9h18.1
					L637,381l-61.4-51l61.4-51L650.9,267.5L650.9,267.5z"/>
			</g>
		</g>
	</g>
</g>
</svg>
