<?xml version="1.0" encoding="utf-8"?>
<!-- Generator: Adobe Illustrator 17.1.0, SVG Export Plug-In . SVG Version: 6.00 Build 0)  -->
<!DOCTYPE svg PUBLIC "-//W3C//DTD SVG 1.1//EN" "http://www.w3.org/Graphics/SVG/1.1/DTD/svg11.dtd">
<svg version="1.1" id="Layer_1" xmlns="http://www.w3.org/2000/svg" xmlns:xlink="http://www.w3.org/1999/xlink" x="0px" y="0px"
	 viewBox="0 21 240 198" enable-background="new 0 21 240 198" xml:space="preserve">
<g id="devs">
	<g id="endorphina">
		
			<linearGradient id="XMLID_2_" gradientUnits="userSpaceOnUse" x1="160.2574" y1="-89.8687" x2="160.2574" y2="61.1315" gradientTransform="matrix(0.3 0 0 -0.3 -7.629395e-006 93)">
			<stop  offset="0.1352" style="stop-color:#232157"/>
			<stop  offset="0.5948" style="stop-color:#28AAE2"/>
		</linearGradient>
		<path id="XMLID_935_" fill="url(#XMLID_2_)" d="M83.4,88.6c0.9,0.5,1.8-0.7,1-1.5C78.8,82,67.6,74.7,50.2,74.7
			c-22.1,0-38.8,12.3-38.8,19.6c0,8.2,16,12.5,16.7,24.9c0,0.5,0.4,0.8,0.9,0.8h26.7c0.6,0,1-0.6,0.8-1.2
			c-2.4-6.9-24.8-11.3-24.8-26.7C31.7,78.6,63.7,78.2,83.4,88.6z"/>
		
			<linearGradient id="XMLID_3_" gradientUnits="userSpaceOnUse" x1="160.2574" y1="-88.4837" x2="160.2574" y2="64.4881" gradientTransform="matrix(0.3 0 0 0.3 -7.629395e-006 147.216)">
			<stop  offset="0" style="stop-color:#908F8F"/>
			<stop  offset="0" style="stop-color:#908F8F"/>
			<stop  offset="0" style="stop-color:#572614"/>
			<stop  offset="1" style="stop-color:#FAA31D"/>
		</linearGradient>
		<path id="XMLID_936_" fill="url(#XMLID_3_)" d="M83.4,151.4c0.9-0.5,1.8,0.7,1,1.5c-5.7,5.2-16.8,12.5-34.3,12.5
			c-22.1,0-38.8-12.3-38.8-19.6c0-8.2,16-12.8,16.7-24.9c0-0.5,0.4-0.8,0.9-0.8h26.7c0.6,0,1,0.6,0.8,1.2
			c-2.4,6.9-24.8,11.3-24.8,26.7C31.7,161.4,63.7,161.8,83.4,151.4z"/>
		
			<linearGradient id="XMLID_4_" gradientUnits="userSpaceOnUse" x1="113.4334" y1="2.1124" x2="113.4334" y2="-184.9966" gradientTransform="matrix(0.3 0 0 0.3 -7.629395e-006 147.216)">
			<stop  offset="0" style="stop-color:#908F8F"/>
			<stop  offset="7.000000e-002" style="stop-color:#6A1C24"/>
			<stop  offset="0.25" style="stop-color:#DD1F26"/>
			<stop  offset="0.75" style="stop-color:#DD1F26"/>
			<stop  offset="0.93" style="stop-color:#6A1C24"/>
		</linearGradient>
		<path id="XMLID_937_" fill="url(#XMLID_4_)" d="M11.7,91.7c-0.4,1.1-0.4,1.8-0.4,2.5c0,8.4,16.7,12.7,16.7,25.7
			c0,12.7-16.7,17.4-16.7,25.7c0,0.7,0,1.5,0.4,2.2c-2.2-8,26.8-14.9,40.2-22.1c0,0,0,0,0.1,0c2.9-1.8,4.7-3.6,4.7-5.8
			c0-2.2-1.8-4-4.7-5.8c0,0,0,0-0.1,0C38.5,107,9.6,100.1,11.7,91.7z"/>
		
			<linearGradient id="XMLID_5_" gradientUnits="userSpaceOnUse" x1="172.7301" y1="-72.9761" x2="172.7301" y2="-111.2565" gradientTransform="matrix(0.3 0 0 0.3 -7.629395e-006 147.216)">
			<stop  offset="0" style="stop-color:#DD1F26"/>
			<stop  offset="1" style="stop-color:#F9B8B8"/>
		</linearGradient>
		<path id="XMLID_938_" fill="url(#XMLID_5_)" d="M49.6,124.4c-1.3,2,1.3,0.4,3-0.6l0,0c1.9-1.1,3-2.3,3-3.7s-1.2-2.3-3-3.7l0,0
			c-1.6-1-5.2-4.1-4.5-1.4C48.9,117.6,53.5,118.3,49.6,124.4z"/>
		<g id="XMLID_1390_">
			<g id="XMLID_1397_">
				<path fill="#0B2A49" d="M74,129c-3,0-5.3-0.6-6.8-1.9c-1.5-1.3-2.2-3.5-2.2-6.6c0-1.5,0.2-2.8,0.6-3.9c0.4-1.1,1-2,1.9-2.6
					c0.8-0.6,1.7-1,2.6-1.2c0.9-0.2,2-0.4,3.2-0.4c2.4,0,4.2,0.5,5.4,1.6c1.2,1.1,1.8,2.8,1.8,5c0,0.9-0.2,1.7-0.6,2.2
					c-0.4,0.6-0.9,1-1.5,1.2c-0.6,0.2-1.2,0.3-1.9,0.4c-0.5,0-1.1,0.1-1.6,0.1c-0.2,0-0.4,0-0.6,0c-0.2,0-0.3,0-0.5,0
					c-0.5,0-1.1,0-1.7,0.1c-0.5,0.1-1,0.2-1.4,0.3c0.1,0.1,0.2,0.2,0.4,0.4c0.5,0.2,1.1,0.4,1.9,0.4h0.2c0.7,0,1.5,0,2.2-0.1
					c0.8-0.1,1.6-0.2,2.3-0.3c1.1-0.2,1.3-0.2,1.3-0.2h0.6l0,0.6c0.1,1.7-0.3,3-1.1,3.8C77.8,128.6,76.3,129,74,129z M72.9,117.1
					c-0.4,0-0.8,0.1-1.1,0.2c-0.6,0.2-1.3,0.6-1.3,2c0.3-0.1,0.6-0.1,0.9-0.2c0.7-0.1,1.4-0.1,2-0.1c0.5,0,1-0.1,1.3-0.3
					c0.3-0.2,0.4-0.3,0.4-0.6c0-0.3-0.5-0.6-0.7-0.6C73.9,117.2,73.3,117.1,72.9,117.1z"/>
				<path fill="#FFFFFF" d="M73.3,113.1c2.2,0,3.9,0.5,5,1.4c1.1,0.9,1.6,2.5,1.6,4.6c0,0.8-0.2,1.4-0.5,1.9
					c-0.3,0.5-0.7,0.8-1.2,0.9c-0.5,0.2-1.1,0.3-1.8,0.4c-0.5,0-1,0.1-1.5,0.1c-0.2,0-0.4,0-0.6,0c-0.2,0-0.3,0-0.5,0
					c-0.6,0-1.1,0-1.7,0.1c-0.8,0.1-1.5,0.2-2,0.5c0,0.6,0.3,1,0.8,1.3c0.6,0.3,1.3,0.4,2.1,0.4c0.1,0,0.2,0,0.3,0
					c0.8,0,1.5,0,2.3-0.1c0.8-0.1,1.6-0.2,2.3-0.3c0.7-0.1,1.1-0.2,1.3-0.2c0.1,1.6-0.2,2.7-0.9,3.3s-2.1,1-4.2,1
					c-2.9,0-5-0.6-6.4-1.8c-1.4-1.2-2-3.2-2-6.1c0-1.5,0.2-2.7,0.6-3.7c0.4-1,0.9-1.8,1.6-2.3c0.7-0.5,1.5-0.9,2.4-1.1
					C71.1,113.2,72.1,113.1,73.3,113.1 M69.9,120.1c0.3-0.2,0.8-0.4,1.5-0.4c0.7-0.1,1.3-0.1,2-0.1c0.6,0,1.1-0.1,1.6-0.4
					c0.5-0.2,0.7-0.6,0.7-1.1c0-0.5-0.4-0.9-1.1-1.2c-0.6-0.2-1.1-0.4-1.7-0.4c-0.5,0-0.9,0.1-1.3,0.2
					C70.2,117.2,69.6,118.3,69.9,120.1 M73.3,111.9c-1.3,0-2.4,0.1-3.4,0.4c-1,0.2-2,0.7-2.8,1.3c-0.9,0.7-1.6,1.6-2,2.8
					c-0.4,1.1-0.6,2.5-0.6,4.1c0,3.2,0.8,5.6,2.4,7c1.6,1.4,4,2,7.2,2c2.5,0,4.1-0.4,5-1.3c0.9-0.9,1.4-2.3,1.3-4.3l0-1.1h-1.1
					c0,0-0.1,0-0.2,0c0.6-0.3,1-0.7,1.4-1.3c0.4-0.7,0.6-1.5,0.6-2.6c0-2.4-0.7-4.3-2-5.4C77.7,112.5,75.8,111.9,73.3,111.9
					L73.3,111.9z M71.2,118.5c0.2-0.4,0.6-0.6,0.8-0.7c0.3-0.1,0.6-0.2,0.9-0.2c0.4,0,0.8,0.1,1.2,0.3c0.2,0.1,0.3,0.1,0.4,0.2l0,0
					c-0.3,0.2-0.7,0.2-1.1,0.2c-0.6,0-1.3,0-2,0.1C71.3,118.5,71.2,118.5,71.2,118.5L71.2,118.5z"/>
			</g>
			<g id="XMLID_1417_">
				<path fill="#0B2A49" d="M96.6,128.8c-0.3,0-0.6,0-0.9,0c-0.5,0-1-0.2-1.5-0.4c-0.6-0.2-0.9-0.6-1.2-1.1c-0.2-0.5-0.4-1-0.3-1.7
					v-7.2c-0.1-0.5-0.5-1.1-2.1-1.1c-0.3,0-0.6,0-0.9,0.1c-0.7,0.1-1.1,0.2-1.4,0.2c0,0.2,0,0.4,0,0.6v7.4c0,0.6-0.1,1.2-0.4,1.7
					c-0.3,0.5-0.7,0.9-1.2,1.1c-0.4,0.2-0.9,0.3-1.5,0.4c-0.3,0-0.6,0-0.9,0c-0.3,0-0.5,0-0.8,0l-0.6,0V115c0-2.1,3.6-2.4,6.3-2.5
					c0.2,0,0.4,0,0.6,0c5.3,0,8,2,8.1,5.8v10.4l-0.6,0C97.2,128.8,96.9,128.8,96.6,128.8z"/>
				<path fill="#FFFFFF" d="M90,113c5,0,7.4,1.7,7.5,5.2v9.9c-0.3,0-0.6,0-0.8,0c-0.3,0-0.6,0-0.8,0c-0.4,0-0.9-0.2-1.3-0.3
					c-0.4-0.2-0.7-0.4-0.9-0.8c-0.2-0.4-0.3-0.8-0.3-1.4v-5.9v0v-1.4c-0.2-1.1-1.1-1.7-2.7-1.7c-0.3,0-0.7,0-1,0.1
					c-1.1,0.2-1.8,0.2-2,0.3c0,0.3,0.1,0.7,0.1,1.1v7.4c0,0.6-0.1,1-0.3,1.4c-0.2,0.4-0.5,0.6-0.9,0.8c-0.4,0.2-0.8,0.3-1.3,0.3
					c-0.2,0-0.5,0-0.8,0c-0.2,0-0.5,0-0.8,0v-13.2c0-1.2,1.9-1.8,5.7-1.9C89.5,113,89.8,113,90,113 M90,111.8v1.2V111.8L90,111.8
					c-0.2,0-0.4,0-0.6,0c-2,0-6.8,0.2-6.8,3.1v13.2v1.1l1.1,0.1c0.3,0,0.6,0,0.9,0c0.4,0,0.7,0,0.9,0c0.6,0,1.1-0.2,1.6-0.4
					c0.6-0.3,1.2-0.7,1.5-1.3c0.3-0.6,0.4-1.2,0.4-2v-7.4c0,0,0-0.1,0-0.1c0.2,0,0.5-0.1,0.9-0.1c0.3,0,0.6-0.1,0.9-0.1
					c1.2,0,1.4,0.4,1.5,0.6v1.2v0v5.9c0,0.7,0.1,1.4,0.4,2c0.3,0.6,0.8,1.1,1.5,1.4c0.5,0.2,1.1,0.4,1.6,0.4c0.3,0,0.6,0,0.9,0
					c0.3,0,0.6,0,0.9,0l1.1-0.1v-1.1v-9.9C98.6,115.4,97.1,111.8,90,111.8L90,111.8z"/>
			</g>
			<g id="XMLID_1419_">
				<path fill="#0B2A49" d="M109.2,128.9c-3,0-5.1-0.7-6.4-2c-1.3-1.3-2-3.5-2-6.4c0-1.1,0.2-2.2,0.5-3.1c0.3-0.9,0.7-1.7,1.3-2.3
					c0.5-0.6,1.1-1.1,1.9-1.5s1.4-0.7,2.1-0.8c0.7-0.2,1.5-0.2,2.2-0.2c1,0,1.8,0.1,2.4,0.3v-6.8l0.9,0.7c0.2,0.2,0.4,0.2,0.7,0.3
					c0.4,0,0.7,0.1,1,0.1c0.4,0,0.8,0.1,1.1,0.2c0.5,0.2,0.8,0.5,1.1,1c0.2,0.5,0.3,1.1,0.3,1.9v16.3l-0.2,0.2c0,0-0.1,0.1-0.2,0.3
					c-0.2,0.2-0.3,0.4-0.5,0.5c-0.2,0.2-0.4,0.3-0.8,0.6c-0.4,0.2-0.8,0.4-1.3,0.5c-0.4,0.1-1,0.2-1.8,0.3
					C111,128.9,110.1,128.9,109.2,128.9z M109.4,117.2c-0.2,0-0.4,0-0.6,0c-0.3,0-0.6,0.1-1,0.3c-0.3,0.2-0.6,0.4-0.9,0.6
					s-0.4,0.6-0.6,1c-0.2,0.5-0.2,1-0.2,1.7c0,0.6,0.1,1.1,0.3,1.6c0.2,0.4,0.4,0.7,0.6,0.9c0.2,0.2,0.6,0.4,0.9,0.5
					c0.4,0.1,0.8,0.2,1.1,0.2c0.1,0,0.2,0,0.4,0c0.2,0,0.5,0,0.7,0c0.5,0,0.7-0.1,0.9-0.1h0c0-0.4,0-1.3,0-3.1v-3.4
					c-0.1,0-0.2,0-0.3-0.1c-0.2,0-0.6-0.1-1-0.1C109.7,117.2,109.5,117.2,109.4,117.2z"/>
				<path fill="#FFFFFF" d="M111.7,107.2c0.3,0.2,0.6,0.3,1,0.4s0.8,0.1,1.1,0.1c0.4,0,0.7,0,0.9,0.2c0.3,0.1,0.6,0.4,0.7,0.7
					c0.2,0.4,0.3,0.9,0.3,1.7v16c0,0-0.1,0.1-0.3,0.3c-0.2,0.2-0.3,0.4-0.4,0.5c-0.1,0.1-0.4,0.3-0.7,0.5c-0.4,0.2-0.7,0.4-1.1,0.4
					c-0.4,0.1-1,0.2-1.7,0.3c-0.7,0.1-1.5,0.1-2.4,0.1c-2.8,0-4.8-0.6-6-1.8c-1.2-1.2-1.8-3.2-1.8-6c0-1.1,0.2-2,0.4-2.9
					c0.3-0.9,0.7-1.6,1.1-2.1c0.5-0.6,1.1-1,1.7-1.4c0.7-0.4,1.3-0.6,2-0.7c0.7-0.2,1.4-0.2,2.1-0.2c1.4,0,2.4,0.2,3,0.7
					L111.7,107.2 M109.5,124.7c0.2,0,0.5,0,0.8,0c0.4,0,0.7-0.1,0.9-0.1c0.2,0,0.3-0.1,0.5-0.1h0c0,0,0-1.2,0-3.6V117
					c-0.2-0.1-0.5-0.1-0.8-0.2c-0.3,0-0.6-0.1-1.1-0.1c-0.2,0-0.4,0-0.5,0c-0.2,0-0.4,0-0.7,0c-0.4,0-0.7,0.2-1.1,0.3
					c-0.4,0.2-0.7,0.4-1,0.7c-0.3,0.3-0.5,0.7-0.7,1.3c-0.2,0.6-0.3,1.2-0.3,1.9c0,0.7,0.1,1.3,0.3,1.8c0.2,0.5,0.5,0.9,0.8,1.2
					c0.3,0.3,0.7,0.5,1.2,0.6s0.9,0.2,1.3,0.2C109.3,124.6,109.4,124.7,109.5,124.7 M110.6,104.9v2.3v4.9c-0.5-0.1-1.1-0.2-1.8-0.2
					c-0.8,0-1.6,0.1-2.3,0.2c-0.8,0.2-1.6,0.5-2.3,0.9c-0.8,0.4-1.5,1-2,1.6c-0.6,0.7-1.1,1.5-1.4,2.5c-0.3,1-0.5,2.1-0.5,3.3
					c0,3.1,0.7,5.4,2.2,6.9c1.4,1.4,3.7,2.2,6.9,2.2c0.9,0,1.8,0,2.6-0.2c0.7-0.1,1.4-0.2,1.9-0.3c0.5-0.1,1-0.3,1.4-0.6
					c0.4-0.2,0.7-0.4,0.9-0.6c0.2-0.2,0.4-0.4,0.6-0.6c0.1-0.1,0.2-0.2,0.2-0.2l0.3-0.3v-0.5v-16c0-0.9-0.1-1.6-0.4-2.1
					c-0.4-0.9-1-1.2-1.4-1.3c-0.4-0.1-0.9-0.2-1.3-0.2c-0.3,0-0.6,0-0.9-0.1c-0.2,0-0.4-0.1-0.5-0.2L110.6,104.9L110.6,104.9z
					 M109.5,123.5c-0.1,0-0.2,0-0.4,0c-0.3,0-0.6-0.1-1-0.2c-0.3-0.1-0.6-0.2-0.7-0.4c-0.2-0.2-0.4-0.4-0.5-0.7
					c-0.2-0.4-0.2-0.8-0.2-1.3c0-0.6,0.1-1.1,0.2-1.5c0.1-0.4,0.3-0.6,0.4-0.8c0.2-0.2,0.4-0.4,0.7-0.5c0.3-0.1,0.6-0.2,0.8-0.2
					c0.2,0,0.4,0,0.6,0c0.2,0,0.3,0,0.4,0c0.3,0,0.5,0,0.7,0.1v2.9c0,1.3,0,2.1,0,2.6c-0.1,0-0.2,0-0.4,0
					C110,123.5,109.7,123.5,109.5,123.5L109.5,123.5z"/>
			</g>
			<g id="XMLID_1422_">
				<path fill="#0B2A49" d="M128.1,128.8c-1,0-2-0.1-2.8-0.2c-0.8-0.1-1.5-0.3-2.1-0.6c-0.6-0.2-1.1-0.6-1.6-1
					c-0.4-0.4-0.8-0.8-1.1-1.2c-0.3-0.4-0.5-0.9-0.7-1.6c-0.2-0.6-0.3-1.1-0.4-1.7c-0.1-0.5-0.2-1.1-0.2-1.9c0-0.1,0-0.3,0-0.5
					c0-0.1,0-0.4,0.1-1.1c0.1-0.6,0.2-1.1,0.3-1.6c0.2-0.5,0.4-1.1,0.8-1.7s0.9-1.2,1.5-1.7c0.6-0.5,1.4-0.8,2.4-1.1
					c0.9-0.3,2-0.4,3.3-0.4c0.8,0,1.7,0.1,2.4,0.2c0.7,0.1,1.4,0.3,1.9,0.6c0.6,0.2,1,0.6,1.5,0.9c0.4,0.4,0.8,0.7,1.1,1.1
					c0.3,0.4,0.6,0.8,0.7,1.3c0.2,0.4,0.3,0.9,0.4,1.2c0.1,0.4,0.2,0.7,0.2,1.2c0,0.4,0.1,0.7,0.1,1s0,0.5,0,0.9c0,0.3,0,0.5,0,0.6
					c0,0.3,0,0.6,0,0.8c0,0.3-0.1,0.6-0.2,1.2s-0.2,1-0.4,1.5c-0.2,0.4-0.5,0.9-0.9,1.4c-0.4,0.5-0.9,1-1.4,1.3
					c-0.5,0.4-1.2,0.6-2,0.9C130,128.7,129,128.8,128.1,128.8z M124.4,120.9c0,0.6,0.1,1.1,0.2,1.4s0.2,0.6,0.4,0.9
					c0.2,0.3,0.5,0.4,0.9,0.6c0.5,0.2,1.1,0.2,1.9,0.2c0.6,0,1-0.1,1.4-0.2s0.6-0.4,0.8-0.5c0.2-0.2,0.3-0.4,0.4-0.7
					c0.2-0.4,0.2-0.6,0.2-0.7c0-0.2,0-0.4,0-0.6v-0.7c0-0.1,0-0.3,0-0.5c0-0.2,0-0.4-0.1-0.5c0-0.2-0.1-0.4-0.2-0.6
					c-0.1-0.2-0.2-0.4-0.2-0.5c-0.1-0.1-0.2-0.3-0.4-0.4s-0.3-0.3-0.5-0.4c-0.2-0.1-0.4-0.2-0.7-0.2s-0.6-0.1-1-0.1
					c-0.6,0-1.2,0.1-1.6,0.3c-0.5,0.2-0.8,0.4-0.9,0.6c-0.2,0.2-0.3,0.5-0.4,0.8c-0.2,0.5-0.2,0.7-0.2,0.8c0,0.2,0,0.5,0,0.8
					L124.4,120.9z"/>
				<path fill="#FFFFFF" d="M127.5,113.1c0.8,0,1.6,0.1,2.2,0.2c0.7,0.1,1.3,0.3,1.8,0.5c0.5,0.2,0.9,0.5,1.3,0.8
					c0.4,0.3,0.7,0.6,0.9,0.9c0.2,0.3,0.5,0.7,0.6,1.1c0.2,0.4,0.3,0.8,0.4,1.1c0.1,0.3,0.2,0.7,0.2,1.1c0,0.4,0,0.7,0.1,0.9
					c0,0.2,0,0.5,0,0.8c0,0.4,0,0.5,0,0.6c0,0.3,0,0.6,0,0.8c0,0.2-0.1,0.6-0.2,1.1c-0.1,0.5-0.2,0.9-0.4,1.4
					c-0.2,0.4-0.4,0.8-0.8,1.3c-0.4,0.5-0.8,0.9-1.3,1.2s-1.1,0.6-1.9,0.8c-0.8,0.2-1.7,0.3-2.6,0.3c-1,0-1.9-0.1-2.7-0.2
					s-1.5-0.3-2-0.5c-0.6-0.2-1-0.5-1.4-0.9c-0.4-0.4-0.7-0.7-1-1.1c-0.2-0.4-0.5-0.9-0.6-1.4c-0.2-0.6-0.3-1.1-0.4-1.6
					c-0.1-0.5-0.2-1.1-0.2-1.9c0-0.1,0-0.2,0-0.4c0-0.2,0-0.6,0.1-1.1c0.1-0.5,0.2-1,0.3-1.5c0.2-0.5,0.4-1,0.7-1.6
					c0.4-0.6,0.8-1.1,1.3-1.5c0.6-0.4,1.3-0.7,2.2-1.1C125.3,113.2,126.4,113.1,127.5,113.1 M127.8,124.5c0.6,0,1.2-0.1,1.6-0.3
					c0.4-0.2,0.8-0.4,1-0.7c0.2-0.2,0.4-0.6,0.5-0.9c0.1-0.4,0.2-0.6,0.2-0.8c0-0.2,0-0.4,0-0.6c0,0,0-0.1,0-0.3c0-0.2,0-0.3,0-0.4
					c0-0.1,0-0.3,0-0.5c0-0.2,0-0.4-0.1-0.6c0-0.2-0.1-0.4-0.2-0.6c-0.1-0.2-0.2-0.4-0.3-0.6c-0.1-0.2-0.3-0.4-0.5-0.5
					c-0.2-0.2-0.4-0.3-0.6-0.4c-0.2-0.1-0.5-0.2-0.9-0.3c-0.4-0.1-0.7-0.1-1.1-0.1c-0.7,0-1.3,0.1-1.9,0.3c-0.5,0.2-0.9,0.4-1.1,0.7
					c-0.2,0.3-0.4,0.6-0.6,1c-0.1,0.4-0.2,0.7-0.2,1s0,0.6,0,0.9c0,0.1,0,0.2,0,0.2c0,0.6,0.1,1.1,0.2,1.5c0.1,0.4,0.3,0.7,0.6,1.1
					c0.3,0.4,0.7,0.6,1.2,0.8C126.3,124.5,127,124.5,127.8,124.5 M127.5,111.9c-1.3,0-2.4,0.2-3.5,0.5c-1.1,0.3-1.9,0.7-2.5,1.3
					c-0.6,0.5-1.2,1.1-1.6,1.8c-0.4,0.7-0.7,1.3-0.9,1.9c-0.2,0.6-0.3,1.1-0.4,1.7c-0.1,0.8-0.1,1.1-0.1,1.3c0,0.2,0,0.4,0,0.5
					c0,0.7,0.1,1.3,0.2,1.9c0.1,0.6,0.2,1.1,0.4,1.8c0.2,0.7,0.5,1.3,0.8,1.7s0.7,0.9,1.2,1.3c0.5,0.5,1.1,0.8,1.8,1.1
					c0.6,0.2,1.4,0.4,2.2,0.6c0.8,0.1,1.8,0.2,2.8,0.2c1.1,0,2-0.1,2.9-0.4c0.9-0.2,1.6-0.6,2.2-0.9c0.6-0.4,1.1-0.9,1.5-1.5
					c0.4-0.6,0.7-1.1,0.9-1.6c0.2-0.5,0.4-1,0.4-1.6c0.1-0.6,0.2-0.9,0.2-1.2c0-0.3,0-0.6,0-0.9c0,0,0-0.2,0-0.5c0-0.4,0-0.7,0-0.9
					c0-0.2,0-0.6-0.1-1c0-0.5-0.1-0.9-0.2-1.3c-0.1-0.4-0.2-0.8-0.4-1.2c-0.2-0.6-0.5-1-0.8-1.4c-0.3-0.4-0.7-0.7-1.1-1.1
					c-0.5-0.4-1-0.7-1.6-1s-1.3-0.4-2-0.6C129.2,112,128.4,111.9,127.5,111.9L127.5,111.9z M125,120.8v-0.2v0v0c0-0.3,0-0.6,0-0.8
					c0,0,0-0.2,0.2-0.7c0.1-0.2,0.2-0.4,0.3-0.6c0,0,0.2-0.2,0.7-0.4c0.4-0.2,0.8-0.2,1.4-0.2c0.3,0,0.6,0,0.9,0.1
					c0.2,0,0.4,0.1,0.6,0.2c0.1,0.1,0.2,0.2,0.4,0.2c0.1,0.1,0.2,0.2,0.3,0.4c0,0.1,0.1,0.2,0.2,0.3c0.1,0.2,0.1,0.4,0.2,0.5
					c0,0.1,0,0.2,0.1,0.4c0,0.3,0,0.4,0,0.4v0.4v0.3c0,0.2,0,0.4,0,0.5c0,0,0,0.2-0.2,0.6c-0.1,0.2-0.2,0.4-0.3,0.6
					c0,0-0.2,0.2-0.6,0.4c-0.3,0.1-0.7,0.2-1.1,0.2c-0.7,0-1.3-0.1-1.7-0.2c-0.3-0.1-0.5-0.2-0.6-0.4c-0.2-0.2-0.3-0.5-0.4-0.7
					C125.1,121.8,125.1,121.4,125,120.8L125,120.8z"/>
			</g>
			<g id="XMLID_1425_">
				<path fill="#0B2A49" d="M142.8,129.1c-0.3-0.2-0.6-0.4-1.1-0.5c-0.5-0.1-1-0.2-1.3-0.3c-0.5-0.1-0.9-0.4-1.3-0.8
					c-0.4-0.5-0.6-1.1-0.6-1.9v-7.3c0-0.1,0-0.3,0-0.5c0-0.2,0-0.5,0.1-0.9c0.1-0.4,0.2-0.7,0.3-1.1c0.2-0.4,0.4-0.8,0.6-1.2
					c0.3-0.4,0.6-0.8,1.1-1.1c0.4-0.3,0.9-0.6,1.6-0.8c0.6-0.2,1.3-0.3,2.1-0.3h5.7l-0.4,0.7c0,0.1,0,0.2,0,0.4c0,0.4,0,0.7,0,1.1
					c0,0.4-0.1,0.7-0.2,1.1c-0.2,0.5-0.5,0.9-0.9,1.2c-0.4,0.3-1,0.4-1.6,0.4c-0.7,0-1.3,0-1.7,0.1c-0.3,0-0.6,0.2-0.9,0.3
					c-0.2,0.2-0.4,0.3-0.4,0.6c-0.1,0.4-0.2,0.8-0.2,1.5v9.8L142.8,129.1z"/>
				<path fill="#FFFFFF" d="M149.1,113.1c0,0,0,0.2,0,0.6c0,0.4,0,0.7,0,1s-0.1,0.7-0.2,1s-0.3,0.7-0.7,0.9
					c-0.4,0.2-0.7,0.3-1.3,0.3c-0.7,0-1.3,0-1.8,0.1s-0.8,0.2-1.1,0.4c-0.3,0.2-0.6,0.5-0.7,0.9c-0.1,0.4-0.2,0.9-0.2,1.6v8.7
					c-0.3-0.2-0.7-0.4-1.3-0.6c-0.6-0.1-1-0.2-1.3-0.3c-0.4-0.1-0.7-0.3-1-0.6c-0.3-0.4-0.4-0.9-0.4-1.5v-7.3c0-0.1,0-0.3,0-0.4
					c0-0.2,0-0.4,0.1-0.8c0-0.4,0.2-0.7,0.3-1c0.1-0.4,0.3-0.7,0.6-1.1c0.2-0.4,0.6-0.7,0.9-0.9c0.4-0.3,0.8-0.5,1.4-0.7
					c0.6-0.2,1.2-0.3,1.9-0.3c1.2,0,2.1,0,2.7,0c0.6,0,0.9,0,0.9,0c0,0,0.2,0,0.3,0C148.4,113.1,148.7,113.1,149.1,113.1 M151,111.9
					h-1.9h-0.8h-0.3H147h-2.7c-0.8,0-1.6,0.1-2.3,0.3c-0.7,0.2-1.3,0.5-1.7,0.9c-0.5,0.4-0.9,0.7-1.2,1.2c-0.3,0.4-0.6,0.9-0.7,1.3
					c-0.2,0.4-0.3,0.8-0.3,1.2c-0.1,0.4-0.1,0.7-0.1,0.9c0,0.2,0,0.4,0,0.5v7.3c0,0.9,0.2,1.7,0.7,2.3c0.5,0.6,1,0.9,1.7,1.1
					c0.4,0.1,0.8,0.2,1.3,0.3c0.4,0.1,0.7,0.2,0.9,0.4l1.9,1.3v-2.3v-8.7c0-0.7,0.1-1.1,0.1-1.3c0-0.2,0.1-0.2,0.2-0.2
					c0.2-0.1,0.4-0.2,0.6-0.2c0.4,0,0.9-0.1,1.6-0.1c0.7,0,1.4-0.2,1.9-0.5c0.6-0.4,1-0.9,1.1-1.5c0.1-0.4,0.2-0.8,0.3-1.2
					c0-0.4,0-0.8,0-1.2c0-0.1,0-0.2,0-0.2L151,111.9L151,111.9z"/>
			</g>
			<g id="XMLID_1427_">
				<path fill="#0B2A49" d="M156.2,134.7c-0.2-0.2-0.6-0.3-1-0.3c-0.5,0-0.9-0.1-1.3-0.1c-0.4,0-0.9-0.2-1.5-0.8
					c-0.4-0.5-0.6-1.2-0.6-2.3v-16.3l0.2-0.2c0,0,0.1-0.1,0.2-0.3c0.2-0.2,0.4-0.4,0.5-0.5c0.2-0.1,0.4-0.3,0.8-0.5
					c0.4-0.2,0.8-0.4,1.3-0.5c0.4-0.1,1-0.2,1.8-0.3c0.7-0.1,1.6-0.2,2.5-0.2c3,0,5.1,0.7,6.4,2c1.3,1.3,2,3.5,2,6.4
					c0,1.4-0.2,2.7-0.7,3.8c-0.5,1.1-1.1,1.9-1.9,2.5s-1.6,1-2.5,1.3c-0.9,0.3-1.8,0.4-2.8,0.4c-0.9,0-1.7-0.1-2.4-0.2v6.7
					L156.2,134.7z M157.2,124c0.2,0,0.3,0.1,0.4,0.1c0.3,0,0.7,0.1,1.2,0.1c0.1,0,0.2,0,0.3,0c0.3,0,0.6,0,0.9-0.2
					c0.4-0.1,0.7-0.3,1.1-0.6c0.3-0.2,0.6-0.6,0.7-1c0.2-0.5,0.3-1.2,0.3-1.9c0-0.6-0.1-1.1-0.3-1.5c-0.2-0.4-0.4-0.7-0.6-1
					c-0.2-0.2-0.6-0.4-0.9-0.5c-0.4-0.1-0.8-0.2-1.1-0.2c-0.1,0-0.2,0-0.3,0c-0.2,0-0.5,0-0.8,0c-0.5,0-0.7,0.1-0.9,0.1h0
					c0,0.4,0,1.3,0,3.1L157.2,124L157.2,124z"/>
				<path fill="#FFFFFF" d="M159.1,113c2.8,0,4.8,0.6,6,1.8c1.2,1.2,1.8,3.2,1.8,6c0,1.4-0.2,2.5-0.7,3.5c-0.4,1-1,1.8-1.8,2.3
					c-0.7,0.6-1.5,0.9-2.3,1.2c-0.8,0.2-1.7,0.4-2.6,0.4c-1.3,0-2.2-0.1-3-0.4v6.3c-0.3-0.2-0.7-0.4-1.3-0.4c-0.6,0-1-0.1-1.4-0.1
					c-0.4,0-0.7-0.2-1-0.6c-0.3-0.4-0.4-1-0.4-1.9v-16c0,0,0.1-0.1,0.3-0.3c0.2-0.2,0.3-0.4,0.4-0.4c0.1-0.1,0.4-0.3,0.7-0.5
					c0.4-0.2,0.7-0.4,1.1-0.5c0.4-0.1,1-0.2,1.7-0.3C157.4,113.1,158.2,113,159.1,113 M159.1,124.8c0.4,0,0.7,0,1.1-0.2
					c0.4-0.2,0.9-0.4,1.3-0.6c0.4-0.3,0.7-0.7,0.9-1.3c0.2-0.6,0.4-1.3,0.4-2.2c0-0.7-0.1-1.3-0.4-1.8c-0.2-0.5-0.5-0.9-0.8-1.2
					c-0.3-0.3-0.7-0.5-1.2-0.6c-0.5-0.1-0.9-0.2-1.2-0.2c-0.1,0-0.2,0-0.4,0c-0.2,0-0.6,0-0.9,0c-0.5,0-0.8,0.1-0.9,0.1
					c-0.1,0-0.3,0-0.5,0.1h0c0,0,0,1.2,0,3.6v3.9c0.3,0.1,0.6,0.2,0.9,0.2c0.4,0,0.7,0.1,1.3,0.1C158.9,124.8,159,124.8,159.1,124.8
					 M159.1,111.8c-0.9,0-1.8,0-2.6,0.2c-0.7,0.1-1.4,0.2-1.9,0.3c-0.5,0.1-1,0.3-1.4,0.6c-0.4,0.2-0.7,0.4-0.9,0.6
					c-0.2,0.2-0.4,0.4-0.6,0.6c-0.1,0.1-0.2,0.2-0.2,0.2l-0.3,0.3v0.5v16c0,1.1,0.2,2,0.7,2.6c0.7,0.9,1.4,1.1,1.9,1.1
					c0.4,0,0.7,0,1.3,0.1c0.3,0,0.6,0.1,0.7,0.2l1.9,1.3v-2.3v-4.9c0.6,0.1,1.1,0.1,1.8,0.1c1,0,2-0.2,3-0.4
					c0.9-0.3,1.9-0.7,2.7-1.3c0.9-0.7,1.6-1.6,2.1-2.8c0.5-1.1,0.7-2.5,0.7-4c0-3.1-0.7-5.4-2.2-6.9
					C164.5,112.6,162.2,111.8,159.1,111.8L159.1,111.8z M157.7,118c0.1,0,0.2,0,0.4,0c0.3,0,0.5,0,0.7,0c0.1,0,0.2,0,0.2,0
					c0.2,0,0.5,0.1,1,0.2c0.3,0.1,0.6,0.2,0.7,0.4c0.1,0.1,0.3,0.3,0.5,0.8c0.2,0.4,0.2,0.8,0.2,1.3c0,0.7-0.1,1.3-0.3,1.7
					c-0.2,0.4-0.3,0.6-0.5,0.7c-0.3,0.2-0.6,0.4-0.9,0.5c-0.2,0.1-0.5,0.1-0.7,0.1c-0.1,0-0.2,0-0.2,0c-0.4,0-0.8-0.1-1.1-0.1v-2.9
					C157.7,119.3,157.7,118.5,157.7,118L157.7,118z"/>
			</g>
			<g id="XMLID_1430_">
				<path fill="#0B2A49" d="M183.5,128.9c-1.1,0-2-0.3-2.6-0.8c-0.6-0.6-0.9-1.3-0.9-2.4v-3c0-3.4-0.2-4.4-0.3-4.7
					c-0.1-0.2-0.4-0.6-2-0.6c-0.7,0-1.4,0.1-2,0.3v8c0,1.7-0.7,2.4-1.4,2.7c-0.7,0.3-1.5,0.5-2.6,0.5c-0.2,0-0.5,0-0.7,0l-0.6,0
					v-22.9l0.9,0.7c0.2,0.2,0.6,0.3,1,0.3c0.5,0,0.9,0.1,1.3,0.1c0.4,0,0.9,0.2,1.5,0.8c0.4,0.5,0.6,1.3,0.6,2.3v2.8
					c0.9-0.2,2.2-0.3,3.9-0.3c1.1,0,2,0.2,2.9,0.6s1.4,0.8,1.8,1.4c0.4,0.5,0.6,1.1,0.8,1.7c0.2,0.6,0.3,1.1,0.3,1.4
					c0,0.3,0,0.6,0,0.8v10.4l-0.5,0.1C184.3,128.8,183.8,128.9,183.5,128.9z"/>
				<path fill="#FFFFFF" d="M170.9,107c0.3,0.2,0.7,0.4,1.3,0.4c0.6,0,1,0.1,1.4,0.1c0.4,0,0.7,0.2,1,0.6s0.4,1,0.4,1.9v3.6
					c0.9-0.4,2.4-0.6,4.5-0.6c1,0,1.9,0.2,2.6,0.5c0.7,0.4,1.3,0.7,1.6,1.2c0.3,0.4,0.6,0.9,0.7,1.5c0.2,0.6,0.3,1,0.3,1.3
					s0,0.5,0,0.7v9.9c-0.4,0-0.8,0.1-1.1,0.1c-2,0-3-0.9-3-2.6c0-0.7,0-1.8,0-3c0-2.7-0.1-4.3-0.4-4.9c-0.3-0.6-1.1-0.9-2.6-0.9
					c-0.9,0-1.8,0.2-2.7,0.5v8.4c0,1.1-0.3,1.8-1,2.1c-0.6,0.3-1.4,0.4-2.4,0.4c-0.2,0-0.4,0-0.7,0L170.9,107 M169.7,104.7v2.3v21.2
					v1.1l1.1,0.1c0.2,0,0.5,0,0.7,0c1.2,0,2.1-0.2,2.9-0.5c0.7-0.3,1.8-1.1,1.7-3.2v-7.5c0.5-0.1,1-0.2,1.5-0.2
					c1.1,0,1.4,0.2,1.5,0.3c0.1,0.2,0.3,1.1,0.3,4.4v3c0,2.4,1.5,3.8,4.1,3.8c0.4,0,0.8,0,1.3-0.1l1-0.1v-1v-9.8c0-0.2,0-0.5,0-0.8
					c0-0.4-0.1-0.9-0.3-1.5c-0.2-0.7-0.5-1.3-0.9-1.9c-0.4-0.6-1.1-1.1-2-1.5c-0.9-0.4-1.9-0.6-3.1-0.6c-1.3,0-2.4,0.1-3.3,0.2V110
					c0-1.1-0.2-2-0.7-2.6c-0.7-0.9-1.4-1.1-1.9-1.1c-0.4,0-0.7,0-1.3-0.1c-0.3,0-0.6-0.1-0.7-0.2L169.7,104.7L169.7,104.7z"/>
			</g>
			<g id="XMLID_1432_">
				<path fill="#0B2A49" d="M189.4,128.8c-0.2,0-0.5,0-0.7,0l-0.6,0v-17.1l0.9,0.7c0.2,0.2,0.5,0.3,0.9,0.3
					c-0.4-0.1-0.8-0.4-1.1-0.7c-0.6-0.6-0.8-1.2-0.8-2c0-0.7,0.3-1.4,0.8-2c0.6-0.6,1.2-0.8,2-0.8c0.7,0,1.4,0.3,2,0.8
					c0.6,0.6,0.8,1.2,0.8,2c0,0.7-0.3,1.4-0.8,2c-0.4,0.4-0.9,0.7-1.5,0.8c0,0,0.1,0,0.1,0c0.4,0,0.9,0.2,1.5,0.8
					c0.4,0.5,0.6,1.3,0.6,2.3v9.8c0,1.7-0.7,2.4-1.4,2.7C191.4,128.6,190.5,128.8,189.4,128.8L189.4,128.8z"/>
				<path fill="#FFFFFF" d="M190.8,107.8c0.6,0,1.1,0.2,1.5,0.6c0.4,0.4,0.6,0.9,0.6,1.5c0,0.6-0.2,1.1-0.6,1.5
					c-0.4,0.4-0.9,0.6-1.5,0.6s-1.1-0.2-1.5-0.6c-0.4-0.4-0.6-0.9-0.6-1.5c0-0.6,0.2-1.1,0.6-1.5C189.7,108,190.2,107.8,190.8,107.8
					 M188.8,112.8c0.3,0.2,0.7,0.4,1.3,0.4c0.6,0,1,0.1,1.4,0.1c0.4,0,0.7,0.2,1,0.6c0.3,0.4,0.4,1,0.4,1.9v9.8c0,1.1-0.3,1.8-1,2.1
					c-0.6,0.3-1.4,0.4-2.4,0.4c-0.2,0-0.4,0-0.7,0L188.8,112.8 M190.8,106.6c-0.9,0-1.7,0.4-2.4,1s-1,1.5-1,2.4c0,0.3,0,0.6,0.1,0.9
					v2v15.4v1.1l1.1,0.1c0.2,0,0.5,0,0.7,0c1.2,0,2.1-0.2,2.9-0.5c0.7-0.3,1.8-1.1,1.7-3.2v-9.8c0-1.1-0.2-2-0.7-2.6
					c-0.2-0.2-0.3-0.4-0.5-0.5c0.1-0.1,0.2-0.2,0.4-0.3c0.6-0.6,1-1.5,1-2.4s-0.4-1.7-1-2.4C192.5,107,191.7,106.6,190.8,106.6
					L190.8,106.6z"/>
			</g>
			<g id="XMLID_1437_">
				<path fill="#0B2A49" d="M209.9,128.8c-0.3,0-0.6,0-0.9,0c-0.5,0-1-0.2-1.5-0.4c-0.6-0.2-0.9-0.6-1.2-1.1c-0.2-0.5-0.4-1-0.3-1.7
					v-7.2c-0.1-0.5-0.5-1.1-2.1-1.1c-0.3,0-0.6,0-0.9,0.1c-0.7,0.1-1.1,0.2-1.4,0.2c0,0.2,0,0.4,0,0.6v7.4c0,0.6-0.1,1.2-0.4,1.7
					c-0.3,0.5-0.7,0.9-1.2,1.1c-0.4,0.2-0.9,0.3-1.5,0.4c-0.3,0-0.6,0-0.9,0c-0.3,0-0.5,0-0.8,0l-0.6,0V115c0-2.1,3.6-2.4,6.3-2.5
					c0.2,0,0.4,0,0.6,0c5.3,0,8,2,8.1,5.8v10.4l-0.6,0C210.4,128.8,210.1,128.8,209.9,128.8z"/>
				<path fill="#FFFFFF" d="M203.2,113c5,0,7.4,1.7,7.5,5.2v9.9c-0.3,0-0.6,0-0.8,0c-0.3,0-0.6,0-0.8,0c-0.5,0-0.9-0.2-1.3-0.3
					c-0.4-0.2-0.7-0.4-0.9-0.8s-0.3-0.8-0.3-1.4v-5.9v0v-1.4c-0.2-1.1-1.1-1.7-2.7-1.7c-0.3,0-0.7,0-1,0.1c-1.1,0.2-1.8,0.2-2,0.3
					c0,0.3,0.1,0.7,0.1,1.1v7.4c0,0.6-0.1,1-0.3,1.4c-0.2,0.4-0.5,0.6-0.9,0.8c-0.4,0.2-0.8,0.3-1.3,0.3c-0.2,0-0.5,0-0.8,0
					c-0.2,0-0.5,0-0.8,0v-13.2c0-1.2,1.9-1.8,5.7-1.9C202.8,113,203,113,203.2,113 M203.2,111.8v1.2V111.8L203.2,111.8
					c-0.2,0-0.4,0-0.6,0c-2,0-6.8,0.2-6.8,3.1v13.2v1.1l1.1,0.1c0.3,0,0.6,0,0.9,0c0.4,0,0.7,0,0.9,0c0.6,0,1.1-0.2,1.6-0.4
					c0.6-0.3,1.2-0.7,1.5-1.3c0.3-0.6,0.4-1.2,0.4-2v-7.4c0,0,0-0.1,0-0.1c0.2,0,0.5-0.1,0.9-0.1c0.3,0,0.6-0.1,0.9-0.1
					c1.2,0,1.4,0.4,1.5,0.6v1.2v0v5.9c0,0.7,0.1,1.4,0.4,2c0.3,0.6,0.8,1.1,1.5,1.4c0.5,0.2,1.1,0.4,1.6,0.4c0.3,0,0.6,0,0.9,0
					c0.3,0,0.6,0,0.9,0l1.1-0.1v-1.1v-9.9C211.9,115.4,210.3,111.8,203.2,111.8L203.2,111.8z"/>
			</g>
			<g id="XMLID_1440_">
				<path fill="#0B2A49" d="M218.9,128.8c-0.1,0-0.2,0-0.3,0s-0.3,0-0.7-0.1c-0.3,0-0.7-0.1-0.9-0.2c-0.3-0.1-0.7-0.3-1-0.5
					c-0.4-0.2-0.7-0.5-1-0.9c-0.3-0.3-0.5-0.7-0.7-1.3c-0.2-0.5-0.3-1.1-0.3-1.7c0-1.1,0.2-2,0.4-2.7c0.3-0.8,0.7-1.4,1.4-1.9
					c0.6-0.4,1.2-0.7,1.9-0.9c0.7-0.2,1.5-0.2,2.4-0.2c1.9,0,2.7-0.2,3-0.3c0.5-0.2,0.5-0.4,0.5-0.4c0-0.3-0.5-0.5-1.3-0.7
					c-0.7-0.1-1.5-0.2-2.2-0.2c-0.4,0-0.9,0-1.4,0.1c-1.3,0.1-2.2,0.3-2.8,0.5l-0.8,0.3v-0.9c0,0,0-0.1,0-0.1c0-0.1,0-0.2,0-0.7
					c0-0.3,0-0.6,0.1-0.8c0-0.3,0.2-0.6,0.3-0.9c0.2-0.4,0.4-0.7,0.7-0.9c0.3-0.3,0.7-0.5,1.1-0.6c0.5-0.2,1-0.2,1.6-0.2h0.7
					c0.2,0,0.5,0,0.7,0c0.2,0,0.5,0,0.7,0c0.5,0,1,0,1.5,0.1c0.6,0,1.1,0.1,1.6,0.2c0.5,0.1,1,0.3,1.4,0.5c0.5,0.2,0.9,0.5,1.3,0.9
					c0.4,0.4,0.7,0.8,1,1.3c0.3,0.5,0.5,1.1,0.7,1.8c0.2,0.7,0.2,1.5,0.2,2.3v3c0,0.8-0.1,1.5-0.3,2.2c-0.2,0.7-0.4,1.2-0.7,1.7
					c-0.3,0.4-0.6,0.8-1,1.1c-0.4,0.3-0.8,0.6-1.1,0.7c-0.4,0.2-0.7,0.3-1.2,0.4c-0.4,0.1-0.8,0.2-1,0.2s-0.5,0-0.9,0L218.9,128.8
					L218.9,128.8z M223.8,122.2c-0.1,0-0.2,0.1-0.4,0.2c-0.6,0.2-1.1,0.4-1.7,0.4c-0.8,0-1.5,0.1-1.9,0.3c-0.2,0.1-0.5,0.2-0.5,0.4
					c0,0.3,0.1,0.4,0.3,0.6c0.2,0.1,0.6,0.3,2.1,0.3c0.5,0,0.9,0,1.1,0c0.2,0,0.3,0,0.5-0.1c0.2-0.1,0.3-0.2,0.3-0.2l0,0
					c0,0,0-0.1,0.1-0.4c0-0.3,0.1-0.6,0.1-0.9C223.8,122.4,223.8,122.3,223.8,122.2z"/>
				<path fill="#FFFFFF" d="M220.4,113.1c0.2,0,0.5,0,0.7,0c0.5,0,1,0,1.5,0.1c0.5,0,1,0.1,1.5,0.2c0.5,0.1,0.9,0.3,1.3,0.5
					c0.4,0.2,0.8,0.4,1.2,0.8c0.4,0.4,0.7,0.7,0.9,1.1c0.3,0.4,0.5,1,0.6,1.6c0.2,0.6,0.2,1.3,0.2,2.2v0.2v0.2v0.2v0.2v0.2v0.2v0.2
					v0.3v0.3v0.3v0.4v0.2c0,0.7-0.1,1.4-0.2,2c-0.2,0.6-0.4,1.1-0.6,1.5c-0.2,0.4-0.6,0.7-0.9,1c-0.4,0.3-0.7,0.5-1,0.6
					c-0.3,0.1-0.7,0.2-1.1,0.3c-0.4,0.1-0.7,0.1-0.9,0.2c-0.2,0-0.5,0-0.8,0H219c0,0-0.1,0-0.2,0c-0.1,0-0.3,0-0.6-0.1
					c-0.3,0-0.6-0.1-0.9-0.2c-0.3-0.1-0.6-0.2-0.9-0.4c-0.4-0.2-0.6-0.4-0.9-0.7c-0.2-0.3-0.4-0.6-0.6-1.1c-0.2-0.4-0.2-0.9-0.2-1.5
					c0-1,0.1-1.9,0.4-2.5c0.2-0.7,0.6-1.2,1.1-1.6c0.5-0.4,1.1-0.6,1.7-0.8c0.6-0.2,1.4-0.2,2.3-0.2c1.6,0,2.6-0.1,3.2-0.3
					c0.6-0.2,0.9-0.5,0.9-0.9c0-0.6-0.6-1-1.8-1.3c-0.7-0.1-1.5-0.2-2.3-0.2c-0.5,0-0.9,0-1.5,0.1c-1.3,0.1-2.3,0.3-3,0.6
					c0,0,0-0.1,0-0.2c0-0.1,0-0.3,0-0.5c0-0.3,0-0.5,0.1-0.7c0-0.2,0.1-0.5,0.3-0.8c0.1-0.3,0.3-0.6,0.6-0.7
					c0.2-0.2,0.6-0.4,0.9-0.5c0.4-0.2,0.8-0.2,1.4-0.2c0.2,0,0.4,0,0.7,0C219.9,113.1,220.2,113.1,220.4,113.1 M224.4,121
					c-0.1,0.1-0.2,0.2-0.3,0.3c-0.1,0.1-0.4,0.3-0.9,0.5c-0.5,0.2-0.9,0.3-1.5,0.3c-0.9,0-1.6,0.1-2.2,0.3c-0.6,0.2-0.8,0.5-0.8,0.9
					c0,0.5,0.2,0.8,0.6,1.1c0.4,0.2,1.2,0.4,2.4,0.4c0.5,0,0.9,0,1.1,0c0.3,0,0.5-0.1,0.7-0.2c0.2-0.1,0.4-0.2,0.5-0.4
					c0.1-0.1,0.2-0.4,0.2-0.7c0.1-0.4,0.1-0.7,0.1-1C224.4,122.2,224.4,121.7,224.4,121 M220.4,111.9c-0.2,0-0.5,0-0.7,0h-0.7
					c-0.7,0-1.3,0.1-1.8,0.3c-0.6,0.2-1,0.5-1.3,0.7c-0.4,0.3-0.6,0.7-0.8,1.1c-0.2,0.4-0.3,0.7-0.4,1.1c0,0.3-0.1,0.6-0.1,0.9
					c0,0.4,0,0.6,0,0.8c0,0,0,0,0,0v1.7l1.6-0.6c0.4-0.2,1.1-0.4,2.6-0.5c0.4,0,0.9-0.1,1.3-0.1c0.7,0,1.5,0.1,2.1,0.2
					c0.1,0,0.2,0,0.2,0c-0.4,0.1-1.1,0.1-2.3,0.1c-1,0-1.9,0.1-2.6,0.2c-0.8,0.2-1.5,0.5-2.2,1c-0.7,0.5-1.2,1.2-1.6,2.1
					c-0.3,0.8-0.5,1.8-0.5,2.9c0,0.7,0.1,1.3,0.3,1.9c0.2,0.6,0.5,1.1,0.8,1.5c0.3,0.4,0.7,0.7,1.1,1c0.4,0.3,0.8,0.4,1.1,0.6
					c0.3,0.1,0.7,0.2,1.1,0.2c0.3,0,0.6,0.1,0.7,0.1c0.2,0,0.2,0,0.4,0h3.7c0.4,0,0.6,0,0.9,0s0.6-0.1,1.1-0.2
					c0.5-0.1,0.9-0.2,1.3-0.4c0.4-0.2,0.8-0.4,1.3-0.8c0.5-0.4,0.9-0.8,1.2-1.3c0.3-0.5,0.6-1.1,0.7-1.8c0.2-0.7,0.3-1.5,0.3-2.3
					v-0.2v-0.4v-0.3v-0.3v-0.3v-0.2v-0.2v-0.2V120v-0.2v-0.2v-0.2c0-0.9-0.1-1.7-0.2-2.4c-0.2-0.7-0.4-1.4-0.7-2
					c-0.3-0.5-0.7-1-1.1-1.4c-0.5-0.4-1-0.8-1.5-1c-0.5-0.2-1-0.4-1.5-0.5c-0.6-0.2-1.1-0.2-1.7-0.3c-0.5,0-1,0-1.5-0.1
					C220.9,111.9,220.6,111.9,220.4,111.9L220.4,111.9z M220.1,123.5c0.4-0.1,0.9-0.2,1.5-0.2c0.5,0,1-0.1,1.5-0.2
					c0,0.1,0,0.2,0,0.2s0,0.1,0,0.2c0,0,0,0-0.1,0c-0.1,0-0.1,0-0.2,0c-0.2,0-0.6,0-1.1,0C220.8,123.6,220.4,123.5,220.1,123.5
					L220.1,123.5z"/>
			</g>
		</g>
	</g>
</g>
</svg>
