<?xml version="1.0" encoding="utf-8"?>
<!-- Generator: Adobe Illustrator 17.1.0, SVG Export Plug-In . SVG Version: 6.00 Build 0)  -->
<!DOCTYPE svg PUBLIC "-//W3C//DTD SVG 1.1//EN" "http://www.w3.org/Graphics/SVG/1.1/DTD/svg11.dtd">
<svg version="1.1" id="Layer_1" xmlns="http://www.w3.org/2000/svg" xmlns:xlink="http://www.w3.org/1999/xlink" x="0px" y="0px"
	 viewBox="0 21 240 198" enable-background="new 0 21 240 198" xml:space="preserve">
<path id="genesis-gaming_1_" fill="none" stroke="#1E2123" stroke-width="1.5" stroke-miterlimit="10" d="M116.6,125.5V99.4h5.8
	v26.1H116.6z M112.4,89.5c-15.1,2.5-27.6,12.7-33.2,26.4h7.2h16.1v-5.8H90c4.2-5.5,9.5-9.9,16.1-12.3v22H74.3
	c5.7-19.7,23.9-34.2,45.4-34.2s39.7,14.4,45.4,34.2h-32.2v-22c6.6,2.5,11.9,6.8,16.1,12.3h-12.5v5.8h16.1h7.2
	c-5.6-13.7-18-23.9-33.2-26.4v36H173C169.4,99.2,146.9,79,119.7,79s-49.7,20.2-53.4,46.4h46 M116.6,89.1v6.2c1-0.1,1.9-0.1,2.9-0.1
	c1,0,1.9,0,2.9,0.1v-6.2c-1-0.1-1.9-0.1-2.9-0.1C118.5,89.1,117.5,89.1,116.6,89.1z M233.7,148.5c0,3-2.4,5.4-5.4,5.4h-25
	c-1,0-1.9-0.8-1.9-1.9s0.8-1.9,1.9-1.9h25c0.9,0,1.6-0.7,1.6-1.6s-0.7-1.6-1.6-1.6h-22c-3,0-5.4-2.4-5.4-5.4c0-3,2.4-5.4,5.4-5.4
	h25.7c1,0,1.9,0.8,1.9,1.9c0,1-0.8,1.9-1.9,1.9h-25.7c-0.9,0-1.6,0.7-1.6,1.6c0,0.9,0.7,1.6,1.6,1.6h22
	C231.3,143.1,233.7,145.6,233.7,148.5z M160.5,140h25.7c1,0,1.9-0.8,1.9-1.9c0-1-0.8-1.9-1.9-1.9h-25.7c-3,0-5.4,2.4-5.4,5.4
	c0,3,2.4,5.4,5.4,5.4h22c0.9,0,1.6,0.7,1.6,1.6s-0.7,1.6-1.6,1.6h-25c-1,0-1.9,0.8-1.9,1.9s0.8,1.9,1.9,1.9h25c3,0,5.4-2.4,5.4-5.4
	c0-3-2.4-5.4-5.4-5.4h-22c-0.9,0-1.6-0.7-1.6-1.6C158.9,140.7,159.6,140,160.5,140z M194.3,136.2c-1,0-1.9,0.8-1.9,1.9v14
	c0,1,0.8,1.9,1.9,1.9c1,0,1.9-0.8,1.9-1.9v-14C196.2,137,195.3,136.2,194.3,136.2z M148.9,149.8h-23.6c-0.7,0-3-2-3-4.7
	c0-2.7,2.3-4.7,3-4.7h20.1c0.9,0,1.6,0.7,1.6,1.6s-0.7,1.6-1.6,1.6h-19.1c-1,0-1.9,0.8-1.9,1.9s0.8,1.9,1.9,1.9h19.1
	c3,0,5.4-2.4,5.4-5.4c0-3-2.4-5.4-5.4-5.4h-20.1c-3.1,0-6.8,3.9-6.8,8.5c0,4.6,3.7,8.5,6.8,8.5h23.6c1,0,1.9-0.8,1.9-1.9
	C150.8,150.7,149.9,149.8,148.9,149.8z M74.6,149.8H50.9c-0.7,0-3-2-3-4.7c0-2.7,2.3-4.7,3-4.7H71c0.9,0,1.6,0.7,1.6,1.6
	s-0.7,1.6-1.6,1.6H51.9c-1,0-1.9,0.8-1.9,1.9s0.8,1.9,1.9,1.9H71c3,0,5.4-2.4,5.4-5.4c0-3-2.4-5.4-5.4-5.4H50.9
	c-3.1,0-6.8,3.9-6.8,8.5c0,4.6,3.7,8.5,6.8,8.5h23.6c1,0,1.9-0.8,1.9-1.9C76.5,150.7,75.6,149.8,74.6,149.8z M38.9,142.1v5.9
	c0,1.4-0.6,2.8-1.5,3.8c0.8,1,1.4,2.3,1.4,3.8c0,3-2.4,5.4-5.4,5.4h-13c-1,0-1.9-0.8-1.9-1.9c0-1,0.8-1.9,1.9-1.9h13
	c0.9,0,1.6-0.7,1.6-1.6c0-1-0.8-1.9-1.6-1.9c0,0,0,0-0.1,0c0,0-0.1,0-0.2,0l-20.8,0c-3.2,0-6.3-4.1-6.3-8.5c0-3.7,2.5-8.2,6.1-8.5
	h0.2l20.8-0.1C36.3,136.5,38.9,139,38.9,142.1z M12.4,149.8l20.8,0c1,0,1.9-0.8,1.9-1.9v-5.8c0-1-0.8-1.9-1.9-1.9l-20.7,0.1
	c-0.8,0.2-2.7,1.9-2.7,4.7C9.8,147.9,11.7,149.8,12.4,149.8z M107.8,136.5H86.5c-3.1,0-5.6,2.5-5.6,5.6v11.5h3.8v-11.5
	c0-1,0.8-1.9,1.9-1.9h21.4c1,0,1.9,0.8,1.9,1.9v11.5h3.8v-11.5C113.5,139,110.9,136.5,107.8,136.5z"/>
<g id="genesis-gaming">
	<path fill="#ED1C24" d="M116.6,125.5V99.4h5.8v26.1H116.6z M112.4,89.5c-15.1,2.5-27.6,12.7-33.2,26.4h7.2h16.1v-5.8H90
		c4.2-5.5,9.5-9.9,16.1-12.3v22H74.3c5.7-19.7,23.9-34.2,45.4-34.2s39.7,14.4,45.4,34.2h-32.2v-22c6.6,2.5,11.9,6.8,16.1,12.3h-12.5
		v5.8h16.1h7.2c-5.6-13.7-18-23.9-33.2-26.4v36H173C169.4,99.2,146.9,79,119.7,79s-49.7,20.2-53.4,46.4h46 M116.6,89.1v6.2
		c1-0.1,1.9-0.1,2.9-0.1c1,0,1.9,0,2.9,0.1v-6.2c-1-0.1-1.9-0.1-2.9-0.1C118.5,89.1,117.5,89.1,116.6,89.1z"/>
	<path id="XMLID_500_" fill="#FFFFFF" d="M233.7,148.5c0,3-2.4,5.4-5.4,5.4h-25c-1,0-1.9-0.8-1.9-1.9s0.8-1.9,1.9-1.9h25
		c0.9,0,1.6-0.7,1.6-1.6s-0.7-1.6-1.6-1.6h-22c-3,0-5.4-2.4-5.4-5.4c0-3,2.4-5.4,5.4-5.4h25.7c1,0,1.9,0.8,1.9,1.9
		c0,1-0.8,1.9-1.9,1.9h-25.7c-0.9,0-1.6,0.7-1.6,1.6c0,0.9,0.7,1.6,1.6,1.6h22C231.3,143.1,233.7,145.6,233.7,148.5z M160.5,140
		h25.7c1,0,1.9-0.8,1.9-1.9c0-1-0.8-1.9-1.9-1.9h-25.7c-3,0-5.4,2.4-5.4,5.4c0,3,2.4,5.4,5.4,5.4h22c0.9,0,1.6,0.7,1.6,1.6
		s-0.7,1.6-1.6,1.6h-25c-1,0-1.9,0.8-1.9,1.9s0.8,1.9,1.9,1.9h25c3,0,5.4-2.4,5.4-5.4c0-3-2.4-5.4-5.4-5.4h-22
		c-0.9,0-1.6-0.7-1.6-1.6C158.9,140.7,159.6,140,160.5,140z M194.3,136.2c-1,0-1.9,0.8-1.9,1.9v14c0,1,0.8,1.9,1.9,1.9
		c1,0,1.9-0.8,1.9-1.9v-14C196.2,137,195.3,136.2,194.3,136.2z M148.9,149.8h-23.6c-0.7,0-3-2-3-4.7c0-2.7,2.3-4.7,3-4.7h20.1
		c0.9,0,1.6,0.7,1.6,1.6s-0.7,1.6-1.6,1.6h-19.1c-1,0-1.9,0.8-1.9,1.9s0.8,1.9,1.9,1.9h19.1c3,0,5.4-2.4,5.4-5.4
		c0-3-2.4-5.4-5.4-5.4h-20.1c-3.1,0-6.8,3.9-6.8,8.5c0,4.6,3.7,8.5,6.8,8.5h23.6c1,0,1.9-0.8,1.9-1.9
		C150.8,150.7,149.9,149.8,148.9,149.8z M74.6,149.8H50.9c-0.7,0-3-2-3-4.7c0-2.7,2.3-4.7,3-4.7H71c0.9,0,1.6,0.7,1.6,1.6
		s-0.7,1.6-1.6,1.6H51.9c-1,0-1.9,0.8-1.9,1.9s0.8,1.9,1.9,1.9H71c3,0,5.4-2.4,5.4-5.4c0-3-2.4-5.4-5.4-5.4H50.9
		c-3.1,0-6.8,3.9-6.8,8.5c0,4.6,3.7,8.5,6.8,8.5h23.6c1,0,1.9-0.8,1.9-1.9C76.5,150.7,75.6,149.8,74.6,149.8z M38.9,142.1v5.9
		c0,1.4-0.6,2.8-1.5,3.8c0.8,1,1.4,2.3,1.4,3.8c0,3-2.4,5.4-5.4,5.4h-13c-1,0-1.9-0.8-1.9-1.9c0-1,0.8-1.9,1.9-1.9h13
		c0.9,0,1.6-0.7,1.6-1.6c0-1-0.8-1.9-1.6-1.9c0,0,0,0-0.1,0c0,0-0.1,0-0.2,0l-20.8,0c-3.2,0-6.3-4.1-6.3-8.5c0-3.7,2.5-8.2,6.1-8.5
		h0.2l20.8-0.1C36.3,136.5,38.9,139,38.9,142.1z M12.4,149.8l20.8,0c1,0,1.9-0.8,1.9-1.9v-5.8c0-1-0.8-1.9-1.9-1.9l-20.7,0.1
		c-0.8,0.2-2.7,1.9-2.7,4.7C9.8,147.9,11.7,149.8,12.4,149.8z M107.8,136.5H86.5c-3.1,0-5.6,2.5-5.6,5.6v11.5h3.8v-11.5
		c0-1,0.8-1.9,1.9-1.9h21.4c1,0,1.9,0.8,1.9,1.9v11.5h3.8v-11.5C113.5,139,110.9,136.5,107.8,136.5z"/>
</g>
</svg>
