<?xml version="1.0" encoding="utf-8"?>
<!-- Generator: Adobe Illustrator 17.1.0, SVG Export Plug-In . SVG Version: 6.00 Build 0)  -->
<!DOCTYPE svg PUBLIC "-//W3C//DTD SVG 1.1//EN" "http://www.w3.org/Graphics/SVG/1.1/DTD/svg11.dtd">
<svg version="1.1" xmlns="http://www.w3.org/2000/svg" xmlns:xlink="http://www.w3.org/1999/xlink" x="0px" y="0px"
	 viewBox="0 0 800 660" enable-background="new 0 0 800 660" xml:space="preserve">
<g id="Layer_2">
	
		<radialGradient id="light_1_" cx="399.9813" cy="329.9318" r="395.506" gradientTransform="matrix(0.9639 0 0 0.88 14.4759 39.66)" gradientUnits="userSpaceOnUse">
		<stop  offset="0.5" style="stop-color:#FFFFFF"/>
		<stop  offset="1" style="stop-color:#D9D9D9"/>
	</radialGradient>
	<rect id="light" fill="url(#light_1_)" width="800" height="660"/>
</g>

<g id="devs">
	<g id="isoftbet">
		<path id="XMLID_369_" fill="#2E5769" d="M215.5,301.3c-0.5-6.6-2.3-11.8-5.2-15.6c-2.9-3.8-7.2-5.7-13-5.7
			c-4.9,0-8.9,1.5-11.8,4.3c-3,2.9-4.4,6.6-4.4,11.2c0,5.5,1.7,10,5.1,13.6c3.4,3.6,8.6,7.8,15.6,12.6c4.5,3,8.1,5.5,10.8,7.7
			c2.7,2.2,5.3,4.8,7.8,7.7c2.5,3,4.5,6.4,6,10.3c1.5,3.9,2.3,8.3,2.3,13.2c0,9.5-2.6,16.9-7.9,22.2c-5.2,5.3-12.7,8-22.5,8
			c-9.2,0-16.4-3.1-21.7-9.2c-5.3-6.1-8.1-14.2-8.3-24.3h11.8c0.2,7.1,2,12.7,5.2,16.7c3.3,4,8,6,14.3,6c5.5,0,9.8-1.7,12.9-5.1
			c3.1-3.4,4.7-8.2,4.7-14.4c0-5.7-1.8-10.5-5.3-14.4c-3.6-3.9-9.1-8.4-16.5-13.5c-4.2-3-7.6-5.5-10.3-7.6c-2.7-2.1-5.2-4.6-7.6-7.3
			c-2.4-2.7-4.3-5.8-5.7-9.4c-1.4-3.5-2.1-7.4-2.1-11.6c0-8.3,2.6-15,7.9-20c5.2-5,12.1-7.5,20.7-7.5c8.6,0,15.6,2.8,20.8,8.4
			c5.2,5.6,8,13.5,8.4,23.8H215.5z M311.4,357.9c-1.6,7.8-3.8,14.1-6.7,18.9c-2.9,4.9-6.4,8.4-10.5,10.7c-4.1,2.2-8.7,3.4-13.9,3.4
			c-5.1,0-9.7-1.1-13.8-3.4c-4-2.2-7.5-5.8-10.5-10.7c-3-4.9-5.2-11.2-6.8-18.9c-1.6-7.8-2.4-17.1-2.4-27.9
			c0-10.8,0.8-20.1,2.4-27.9c1.6-7.8,3.8-14.1,6.7-18.9c2.9-4.9,6.4-8.4,10.5-10.7c4.1-2.2,8.7-3.4,13.9-3.4c5.1,0,9.8,1.1,13.9,3.4
			c4.1,2.2,7.6,5.8,10.5,10.7c2.9,4.9,5.1,11.2,6.7,18.9c1.6,7.8,2.4,17.1,2.4,27.9C313.8,340.8,313,350.1,311.4,357.9z
			 M299.4,305.5c-1-6.5-2.5-11.6-4.3-15.3c-1.9-3.7-4-6.3-6.5-7.9c-2.5-1.5-5.2-2.3-8.3-2.3c-3.1,0-5.8,0.8-8.3,2.3
			c-2.5,1.5-4.6,4.2-6.5,7.9c-1.9,3.7-3.3,8.8-4.3,15.3c-1,6.5-1.6,14.7-1.6,24.5s0.5,18,1.6,24.5c1,6.5,2.5,11.6,4.3,15.3
			c1.9,3.7,4,6.3,6.5,7.9c2.5,1.5,5.2,2.3,8.3,2.3c3.1,0,5.8-0.8,8.3-2.3c2.5-1.5,4.6-4.2,6.5-7.9c1.9-3.7,3.3-8.8,4.3-15.3
			c1-6.5,1.6-14.7,1.6-24.5S300.4,312,299.4,305.5z M335,270.8h50.9v10.8h-38.1V322h28.5v10.8h-28.5v56.4H335V270.8z M463.1,270.8
			v10.8h-24.3v107.6H426V281.6h-24.3v-10.8H463.1z"/>
		<path id="XMLID_491_" fill="#F6B519" d="M476.9,270.8h31.5c8.7,0,15.6,2.7,20.5,8c4.9,5.3,7.4,12.4,7.4,21.2
			c0,6.3-1.5,11.9-4.4,16.6c-3,4.7-7.5,7.9-13.6,9.7v0.3c6.9,1.9,12.1,5.4,15.5,10.6c3.4,5.2,5.2,11.6,5.2,19.3
			c0,21.9-12.7,32.8-38.1,32.8h-24V270.8z M489.7,321.6h7.2c9.4,0,16.2-1.6,20.3-4.9c4.2-3.3,6.2-8.9,6.2-16.7
			c0-6.7-1.6-11.4-4.8-14.2c-3.2-2.8-8.6-4.2-16.2-4.2h-12.8V321.6z M489.7,378.4h12.8c7.9,0,13.8-1.8,17.7-5.3
			c3.9-3.6,5.9-9.1,5.9-16.7c0-8-1.9-14-5.7-18c-3.8-4-9.8-6-18-6h-12.8V378.4z M613.5,270.8v10.8h-41.3V322h30.5v10.8h-30.5v45.6
			h43.3v10.8h-56.1V270.8H613.5z M688,270.8v10.8h-24.3v107.6h-12.8V281.6h-24.3v-10.8H688z"/>
		<g>
			<path fill="#F6B519" d="M132,320.2c2.1,0,4.2-0.3,6.1-0.9v71.6h-12.2v-71.6C127.9,319.9,129.9,320.2,132,320.2z M132.4,279
				c-5.9,0-10.7,4.8-10.7,10.7s4.8,10.7,10.7,10.7c5.9,0,10.7-4.8,10.7-10.7S138.2,279,132.4,279 M132.4,269.2
				c11.3,0,20.4,9.1,20.4,20.4s-9.1,20.4-20.4,20.4c-11.3,0-20.4-9.1-20.4-20.4S121.1,269.2,132.4,269.2L132.4,269.2z"/>
		</g>
	</g>
</g>
</svg>
