<?xml version="1.0" encoding="utf-8"?>
<!-- Generator: Adobe Illustrator 17.1.0, SVG Export Plug-In . SVG Version: 6.00 Build 0)  -->
<!DOCTYPE svg PUBLIC "-//W3C//DTD SVG 1.1//EN" "http://www.w3.org/Graphics/SVG/1.1/DTD/svg11.dtd">
<svg version="1.1" id="Layer_1" xmlns="http://www.w3.org/2000/svg" xmlns:xlink="http://www.w3.org/1999/xlink" x="0px" y="0px"
	 viewBox="0 21 240 198" enable-background="new 0 21 240 198" xml:space="preserve">
<path id="isoftbet_1_" fill="none" stroke="#1E2123" stroke-width="1.5" stroke-miterlimit="10" d="M46.7,109.6
	c-0.2-2.6-0.9-4.7-2.1-6.2c-1.2-1.5-2.9-2.3-5.2-2.3c-1.9,0-3.5,0.6-4.7,1.7c-1.2,1.2-1.7,2.6-1.7,4.4c0,2.2,0.7,4,2,5.4
	c1.4,1.4,3.4,3.1,6.2,5c1.8,1.2,3.2,2.2,4.3,3.1s2.1,1.9,3.1,3.1c1,1.2,1.8,2.5,2.4,4.1c0.6,1.5,0.9,3.3,0.9,5.2
	c0,3.8-1,6.7-3.1,8.8c-2.1,2.1-5,3.2-8.9,3.2c-3.7,0-6.5-1.2-8.6-3.7c-2.1-2.4-3.2-5.6-3.3-9.7h4.7c0.1,2.8,0.8,5,2.1,6.6
	c1.3,1.6,3.2,2.4,5.7,2.4c2.2,0,3.9-0.7,5.1-2c1.2-1.4,1.9-3.3,1.9-5.7c0-2.3-0.7-4.2-2.1-5.7c-1.4-1.5-3.6-3.3-6.6-5.4
	c-1.7-1.2-3-2.2-4.1-3c-1.1-0.8-2.1-1.8-3-2.9c-1-1.1-1.7-2.3-2.3-3.7c-0.6-1.4-0.8-2.9-0.8-4.6c0-3.3,1-6,3.1-7.9
	c2.1-2,4.8-3,8.2-3c3.4,0,6.2,1.1,8.3,3.3c2.1,2.2,3.2,5.4,3.3,9.5L46.7,109.6L46.7,109.6z M84.8,132.1c-0.6,3.1-1.5,5.6-2.7,7.5
	c-1.2,1.9-2.5,3.3-4.2,4.3c-1.6,0.9-3.5,1.4-5.5,1.4c-2,0-3.9-0.4-5.5-1.4c-1.6-0.9-3-2.3-4.2-4.3s-2.1-4.4-2.7-7.5
	c-0.6-3.1-1-6.8-1-11.1c0-4.3,0.3-8,1-11.1c0.6-3.1,1.5-5.6,2.7-7.5c1.2-1.9,2.5-3.3,4.2-4.3c1.6-0.9,3.5-1.4,5.5-1.4
	c2,0,3.9,0.4,5.5,1.4c1.6,0.9,3,2.3,4.2,4.3c1.2,1.9,2,4.4,2.7,7.5c0.6,3.1,1,6.8,1,11.1C85.8,125.3,85.4,129,84.8,132.1z M80,111.3
	c-0.4-2.6-1-4.6-1.7-6.1c-0.8-1.5-1.6-2.5-2.6-3.1c-1-0.6-2.1-0.9-3.3-0.9c-1.2,0-2.3,0.3-3.3,0.9c-1,0.6-1.8,1.7-2.6,3.1
	c-0.8,1.5-1.3,3.5-1.7,6.1c-0.4,2.6-0.6,5.8-0.6,9.7c0,3.9,0.2,7.2,0.6,9.7c0.4,2.6,1,4.6,1.7,6.1c0.8,1.5,1.6,2.5,2.6,3.1
	c1,0.6,2.1,0.9,3.3,0.9s2.3-0.3,3.3-0.9c1-0.6,1.8-1.7,2.6-3.1c0.8-1.5,1.3-3.5,1.7-6.1c0.4-2.6,0.6-5.8,0.6-9.7
	C80.7,117.1,80.4,113.8,80,111.3z M94.2,97.5h20.2v4.3H99.3v16h11.3v4.3H99.3v22.4h-5.1V97.5z M145.1,97.5v4.3h-9.7v42.7h-5.1v-42.7
	h-9.7v-4.3C120.7,97.5,145.1,97.5,145.1,97.5z M150.5,97.5h12.5c3.5,0,6.2,1.1,8.1,3.2c1.9,2.1,2.9,4.9,2.9,8.4
	c0,2.5-0.6,4.7-1.7,6.6c-1.2,1.9-3,3.1-5.4,3.9v0.1c2.7,0.8,4.8,2.1,6.2,4.2c1.4,2.1,2.1,4.6,2.1,7.7c0,8.7-5,13-15.1,13h-9.5
	L150.5,97.5L150.5,97.5z M155.6,117.7h2.9c3.7,0,6.4-0.6,8.1-1.9c1.7-1.3,2.5-3.5,2.5-6.6c0-2.7-0.6-4.5-1.9-5.6
	c-1.3-1.1-3.4-1.7-6.4-1.7h-5.1L155.6,117.7L155.6,117.7z M155.6,140.2h5.1c3.1,0,5.5-0.7,7-2.1c1.5-1.4,2.3-3.6,2.3-6.6
	c0-3.2-0.8-5.6-2.3-7.2c-1.5-1.6-3.9-2.4-7.1-2.4h-5.1L155.6,140.2L155.6,140.2z M204.8,97.5v4.3h-16.4v16h12.1v4.3h-12.1v18.1h17.2
	v4.3h-22.3v-47H204.8z M234.4,97.5v4.3h-9.7v42.7h-5.1v-42.7H210v-4.3C210,97.5,234.4,97.5,234.4,97.5z M13.5,117.1
	c0.8,0,1.7-0.1,2.4-0.4v28.4h-4.8v-28.4C11.9,117,12.7,117.1,13.5,117.1z M13.7,100.7c-2.3,0-4.3,1.9-4.3,4.3s1.9,4.3,4.3,4.3
	s4.3-1.9,4.3-4.3S16,100.7,13.7,100.7 M13.7,96.8c4.5,0,8.1,3.6,8.1,8.1c0,4.5-3.6,8.1-8.1,8.1c-4.5,0-8.1-3.6-8.1-8.1
	C5.6,100.5,9.2,96.8,13.7,96.8L13.7,96.8z"/>
<g id="isoftbet">
	<path id="XMLID_369_" fill="#2E5769" d="M46.7,109.6c-0.2-2.6-0.9-4.7-2.1-6.2c-1.2-1.5-2.9-2.3-5.2-2.3c-1.9,0-3.5,0.6-4.7,1.7
		c-1.2,1.2-1.7,2.6-1.7,4.4c0,2.2,0.7,4,2,5.4c1.4,1.4,3.4,3.1,6.2,5c1.8,1.2,3.2,2.2,4.3,3.1s2.1,1.9,3.1,3.1
		c1,1.2,1.8,2.5,2.4,4.1c0.6,1.5,0.9,3.3,0.9,5.2c0,3.8-1,6.7-3.1,8.8c-2.1,2.1-5,3.2-8.9,3.2c-3.7,0-6.5-1.2-8.6-3.7
		c-2.1-2.4-3.2-5.6-3.3-9.7h4.7c0.1,2.8,0.8,5,2.1,6.6c1.3,1.6,3.2,2.4,5.7,2.4c2.2,0,3.9-0.7,5.1-2c1.2-1.4,1.9-3.3,1.9-5.7
		c0-2.3-0.7-4.2-2.1-5.7c-1.4-1.5-3.6-3.3-6.6-5.4c-1.7-1.2-3-2.2-4.1-3c-1.1-0.8-2.1-1.8-3-2.9c-1-1.1-1.7-2.3-2.3-3.7
		c-0.6-1.4-0.8-2.9-0.8-4.6c0-3.3,1-6,3.1-7.9c2.1-2,4.8-3,8.2-3c3.4,0,6.2,1.1,8.3,3.3c2.1,2.2,3.2,5.4,3.3,9.5L46.7,109.6
		L46.7,109.6z M84.8,132.1c-0.6,3.1-1.5,5.6-2.7,7.5c-1.2,1.9-2.5,3.3-4.2,4.3c-1.6,0.9-3.5,1.4-5.5,1.4c-2,0-3.9-0.4-5.5-1.4
		c-1.6-0.9-3-2.3-4.2-4.3s-2.1-4.4-2.7-7.5c-0.6-3.1-1-6.8-1-11.1c0-4.3,0.3-8,1-11.1c0.6-3.1,1.5-5.6,2.7-7.5
		c1.2-1.9,2.5-3.3,4.2-4.3c1.6-0.9,3.5-1.4,5.5-1.4c2,0,3.9,0.4,5.5,1.4c1.6,0.9,3,2.3,4.2,4.3c1.2,1.9,2,4.4,2.7,7.5
		c0.6,3.1,1,6.8,1,11.1C85.8,125.3,85.4,129,84.8,132.1z M80,111.3c-0.4-2.6-1-4.6-1.7-6.1c-0.8-1.5-1.6-2.5-2.6-3.1
		c-1-0.6-2.1-0.9-3.3-0.9c-1.2,0-2.3,0.3-3.3,0.9c-1,0.6-1.8,1.7-2.6,3.1c-0.8,1.5-1.3,3.5-1.7,6.1c-0.4,2.6-0.6,5.8-0.6,9.7
		c0,3.9,0.2,7.2,0.6,9.7c0.4,2.6,1,4.6,1.7,6.1c0.8,1.5,1.6,2.5,2.6,3.1c1,0.6,2.1,0.9,3.3,0.9s2.3-0.3,3.3-0.9
		c1-0.6,1.8-1.7,2.6-3.1c0.8-1.5,1.3-3.5,1.7-6.1c0.4-2.6,0.6-5.8,0.6-9.7C80.7,117.1,80.4,113.8,80,111.3z M94.2,97.5h20.2v4.3
		H99.3v16h11.3v4.3H99.3v22.4h-5.1V97.5z M145.1,97.5v4.3h-9.7v42.7h-5.1v-42.7h-9.7v-4.3C120.7,97.5,145.1,97.5,145.1,97.5z"/>
	<path id="XMLID_491_" fill="#F6B519" d="M150.5,97.5h12.5c3.5,0,6.2,1.1,8.1,3.2c1.9,2.1,2.9,4.9,2.9,8.4c0,2.5-0.6,4.7-1.7,6.6
		c-1.2,1.9-3,3.1-5.4,3.9v0.1c2.7,0.8,4.8,2.1,6.2,4.2c1.4,2.1,2.1,4.6,2.1,7.7c0,8.7-5,13-15.1,13h-9.5L150.5,97.5L150.5,97.5z
		 M155.6,117.7h2.9c3.7,0,6.4-0.6,8.1-1.9c1.7-1.3,2.5-3.5,2.5-6.6c0-2.7-0.6-4.5-1.9-5.6c-1.3-1.1-3.4-1.7-6.4-1.7h-5.1
		L155.6,117.7L155.6,117.7z M155.6,140.2h5.1c3.1,0,5.5-0.7,7-2.1c1.5-1.4,2.3-3.6,2.3-6.6c0-3.2-0.8-5.6-2.3-7.2
		c-1.5-1.6-3.9-2.4-7.1-2.4h-5.1L155.6,140.2L155.6,140.2z M204.8,97.5v4.3h-16.4v16h12.1v4.3h-12.1v18.1h17.2v4.3h-22.3v-47H204.8z
		 M234.4,97.5v4.3h-9.7v42.7h-5.1v-42.7H210v-4.3C210,97.5,234.4,97.5,234.4,97.5z"/>
	<g>
		<path fill="#F6B519" d="M13.5,117.1c0.8,0,1.7-0.1,2.4-0.4v28.4h-4.8v-28.4C11.9,117,12.7,117.1,13.5,117.1z M13.7,100.7
			c-2.3,0-4.3,1.9-4.3,4.3s1.9,4.3,4.3,4.3s4.3-1.9,4.3-4.3S16,100.7,13.7,100.7 M13.7,96.8c4.5,0,8.1,3.6,8.1,8.1
			c0,4.5-3.6,8.1-8.1,8.1c-4.5,0-8.1-3.6-8.1-8.1C5.6,100.5,9.2,96.8,13.7,96.8L13.7,96.8z"/>
	</g>
</g>
</svg>
