<?xml version="1.0" encoding="utf-8"?>
<!-- Generator: Adobe Illustrator 19.0.0, SVG Export Plug-In . SVG Version: 6.00 Build 0)  -->
<svg version="1.1" id="keno" xmlns="http://www.w3.org/2000/svg" xmlns:xlink="http://www.w3.org/1999/xlink" x="0px" y="0px"
	 viewBox="-1319 781 240 240" style="enable-background:new -1319 781 240 240;" xml:space="preserve">
<style type="text/css">
	.st0{fill:#D4D3D3;}
</style>
<g>
	<rect x="-1313.3" y="865.8" class="st0" width="70.3" height="70.3"/>
	<rect x="-1313.3" y="945" class="st0" width="70.3" height="70.3"/>
	<rect x="-1234.2" y="786.7" class="st0" width="70.3" height="70.3"/>
	<rect x="-1234.2" y="945" class="st0" width="70.3" height="70.3"/>
	<rect x="-1155" y="786.7" class="st0" width="70.3" height="70.3"/>
	<rect x="-1155" y="865.8" class="st0" width="70.3" height="70.3"/>
</g>
<g>
	<path class="st0" d="M-1119.9,939.2c-22.6,0-40.9,18.3-40.9,40.9c0,22.6,18.3,40.9,40.9,40.9c22.6,0,40.9-18.3,40.9-40.9
		C-1079,957.5-1097.3,939.2-1119.9,939.2z M-1119.9,1010.5c-16.8,0-30.4-13.6-30.4-30.4c0-16.8,13.6-30.4,30.4-30.4
		c16.8,0,30.4,13.6,30.4,30.4C-1089.5,996.9-1103.1,1010.5-1119.9,1010.5z"/>
	<path class="st0" d="M-1119.9,1008.7c-15.8,0-28.6-12.8-28.6-28.6c0-15.8,12.8-28.6,28.6-28.6c15.8,0,28.6,12.8,28.6,28.6
		C-1091.3,995.9-1104.1,1008.7-1119.9,1008.7z M-1119.9,953.3c-14.8,0-26.8,12-26.8,26.8c0,14.8,12,26.8,26.8,26.8
		c14.8,0,26.8-12,26.8-26.8C-1093.1,965.3-1105.1,953.3-1119.9,953.3z"/>
	<g>
		<path class="st0" d="M-1111.3,985.7c0,1.9-0.6,3.6-1.8,4.9c-1.6,1.8-4,2.6-7.3,2.6c-3.2,0-5.6-0.9-7.2-2.6c-1.2-1.4-1.9-3-1.9-4.9
			c0-1.1,0.3-2.2,0.9-3.1c0.6-1,1.5-1.7,2.6-2.3c-1.1-0.7-1.9-1.5-2.4-2.5c-0.4-0.8-0.6-1.7-0.6-2.7c0-1.9,0.6-3.4,1.8-4.7
			c1.5-1.6,3.7-2.4,6.7-2.4c3,0,5.2,0.8,6.7,2.4c1.2,1.3,1.8,2.9,1.8,4.7c0,1.2-0.3,2.3-1,3.3c-0.5,0.7-1.1,1.3-2,1.8
			c1.1,0.6,2,1.3,2.6,2.3C-1111.6,983.5-1111.3,984.5-1111.3,985.7z M-1118.4,984.8c0-0.5-0.2-1-0.6-1.4c-0.4-0.4-0.9-0.6-1.4-0.6
			c-0.5,0-1,0.2-1.4,0.6s-0.6,0.9-0.6,1.4c0,0.5,0.2,1,0.6,1.4c0.4,0.4,0.9,0.6,1.4,0.6c0.6,0,1-0.2,1.4-0.6
			C-1118.6,985.7-1118.4,985.3-1118.4,984.8z M-1118.7,975.9c0-0.5-0.2-0.9-0.5-1.2c-0.3-0.3-0.7-0.5-1.2-0.5
			c-0.5,0-0.8,0.2-1.2,0.5c-0.3,0.3-0.5,0.7-0.5,1.2c0,0.5,0.2,0.9,0.5,1.2c0.3,0.3,0.7,0.5,1.2,0.5c0.5,0,0.9-0.2,1.2-0.5
			C-1118.8,976.8-1118.7,976.4-1118.7,975.9z"/>
	</g>
</g>
<g>
	<path class="st0" d="M-1198.6,860.1c-22.6,0-40.9,18.3-40.9,40.9c0,22.6,18.3,40.9,40.9,40.9s40.9-18.3,40.9-40.9
		C-1157.7,878.4-1176,860.1-1198.6,860.1z M-1198.6,931.4c-16.8,0-30.4-13.6-30.4-30.4c0-16.8,13.6-30.4,30.4-30.4
		c16.8,0,30.4,13.6,30.4,30.4C-1168.2,917.8-1181.8,931.4-1198.6,931.4z"/>
	<path class="st0" d="M-1198.6,929.6c-15.8,0-28.6-12.8-28.6-28.6c0-15.8,12.8-28.6,28.6-28.6c15.8,0,28.6,12.8,28.6,28.6
		C-1170,916.8-1182.8,929.6-1198.6,929.6z M-1198.6,874.2c-14.8,0-26.8,12-26.8,26.8c0,14.8,12,26.8,26.8,26.8
		c14.8,0,26.8-12,26.8-26.8C-1171.8,886.2-1183.8,874.2-1198.6,874.2z"/>
	<g>
		<path class="st0" d="M-1198.6,906.7l-1.4,6.9h-16.6l9-12.7c1-1.4,1.5-2.5,1.5-3.4c0-0.6-0.2-1-0.6-1.3c-0.4-0.3-0.9-0.5-1.4-0.5
			c-0.5,0-0.9,0.2-1.3,0.5c-0.4,0.4-0.5,0.8-0.5,1.3c0,0.9,0.4,1.5,1.3,1.9l-3.8,5.6c-1.3-0.6-2.3-1.5-3.1-2.6c-1-1.4-1.5-3.1-1.5-5
			c0-2.4,0.8-4.4,2.5-6c1.7-1.6,4-2.5,6.8-2.5c2.6,0,4.8,0.8,6.3,2.3c1.6,1.5,2.4,3.6,2.4,6.1c0,1.6-0.4,3.1-1.3,4.6
			c-0.6,1.1-1.6,2.3-2.8,3.7l-1.1,1.1H-1198.6z"/>
		<path class="st0" d="M-1179.1,906.5c0,2.2-0.8,4-2.4,5.4c-1.7,1.5-4.1,2.2-7,2.2c-1.2,0-2.4-0.1-3.5-0.4c-1.6-0.4-3.1-1-4.6-1.9
			l2.7-5.9c0.7,0.5,1.5,0.8,2.3,1.1c0.8,0.3,1.6,0.4,2.5,0.4c0.9,0,1.6-0.2,2.1-0.7c0.3-0.3,0.5-0.7,0.5-1.2c0-0.7-0.3-1.2-1-1.5
			c-0.4-0.2-1-0.2-1.7-0.2h-1.9v-5.4h2.1c0.8,0,1.4-0.2,1.8-0.6c0.3-0.3,0.4-0.6,0.4-1c0-0.4-0.1-0.7-0.4-0.9
			c-0.4-0.3-1-0.5-1.9-0.5c-0.7,0-1.4,0.1-2.2,0.4c-0.8,0.2-1.5,0.6-2.2,1.1l-2.8-5.5c1.5-1,3.1-1.7,4.7-2.1
			c1.2-0.3,2.4-0.5,3.6-0.5c3,0,5.2,0.8,6.7,2.4c1.1,1.2,1.7,2.6,1.7,4.3c0,1.2-0.3,2.3-1,3.2c-0.6,0.9-1.5,1.6-2.6,2.1
			c1.2,0.4,2.3,1.1,3,2.1C-1179.5,904-1179.1,905.1-1179.1,906.5z"/>
	</g>
</g>
<g>
	<path class="st0" d="M-1278.1,781c-22.6,0-40.9,18.3-40.9,40.9c0,22.6,18.3,40.9,40.9,40.9s40.9-18.3,40.9-40.9
		C-1237.2,799.3-1255.5,781-1278.1,781z M-1278.1,852.3c-16.8,0-30.4-13.6-30.4-30.4c0-16.8,13.6-30.4,30.4-30.4
		c16.8,0,30.4,13.6,30.4,30.4C-1247.7,838.7-1261.3,852.3-1278.1,852.3z"/>
	<path class="st0" d="M-1278.1,850.5c-15.8,0-28.6-12.8-28.6-28.6s12.8-28.6,28.6-28.6s28.6,12.8,28.6,28.6
		S-1262.4,850.5-1278.1,850.5z M-1278.1,795.1c-14.8,0-26.8,12-26.8,26.8c0,14.8,12,26.8,26.8,26.8c14.8,0,26.8-12,26.8-26.8
		C-1251.3,807.1-1263.3,795.1-1278.1,795.1z"/>
	<g>
		<path class="st0" d="M-1278,810.3l-8.4,24.1l-8.3,0.6l7-17.9h-8.6l1.5-6.8H-1278z"/>
		<path class="st0" d="M-1258.7,826.4c0,2.4-0.7,4.3-2.2,5.9c-1.7,1.8-4,2.7-7,2.7c-2.8,0-5.1-0.9-6.8-2.8c-1.5-1.7-2.3-3.8-2.3-6.3
			c0-1.8,0.5-3.8,1.5-6.1c0.8-1.8,1.9-3.7,3.3-5.8c1.1-1.6,2.2-3.1,3.4-4.4l7.5,2.1c-1.4,1.3-2.6,2.7-3.7,4c-0.8,1-1.6,2-2.3,2.9
			c0.5-0.1,0.9-0.2,1.4-0.2c1.6,0,3.1,0.6,4.4,1.8C-1259.5,821.8-1258.7,823.8-1258.7,826.4z M-1265.8,826.1c0-0.5-0.2-1-0.6-1.4
			c-0.4-0.4-0.8-0.6-1.4-0.6c-0.5,0-0.9,0.2-1.3,0.5s-0.6,0.8-0.6,1.4c0,0.5,0.2,1,0.6,1.4c0.4,0.4,0.8,0.6,1.4,0.6
			c0.6,0,1.1-0.2,1.4-0.6C-1266,827-1265.8,826.6-1265.8,826.1z"/>
	</g>
</g>
</svg>
