<?xml version="1.0" encoding="utf-8"?>
<!-- Generator: Adobe Illustrator 17.1.0, SVG Export Plug-In . SVG Version: 6.00 Build 0)  -->
<!DOCTYPE svg PUBLIC "-//W3C//DTD SVG 1.1//EN" "http://www.w3.org/Graphics/SVG/1.1/DTD/svg11.dtd">
<svg version="1.1" xmlns="http://www.w3.org/2000/svg" xmlns:xlink="http://www.w3.org/1999/xlink" x="0px" y="0px"
	 viewBox="0 0 800 660" enable-background="new 0 0 800 660" xml:space="preserve">
<g id="Layer_2">
		<radialGradient id="light_1_" cx="399.9813" cy="329.9318" r="395.506" gradientTransform="matrix(0.9639 0 0 0.88 14.4759 39.66)" gradientUnits="userSpaceOnUse">
		<stop  offset="0.5" style="stop-color:#FFFFFF"/>
		<stop  offset="1" style="stop-color:#D9D9D9"/>
	</radialGradient>
	<rect id="light" fill="url(#light_1_)" width="800" height="660"/>
</g>

<g id="devs">
	<g id="leander">
		<path fill="#ED1C24" d="M400.2,102l112.2,65c2.8,1.6,4.6,4.7,4.6,8l-0.2,124.4c0,3.3-1.8,6.3-4.6,8l-107.8,62
			c-2.8,1.6-6.4,1.6-9.2,0l-107.6-62.4c-2.8-1.6-4.6-4.7-4.6-8l0.2-124.4c0-3.3,1.8-6.3,4.6-8L400.2,102 M395.7,83.4L269.5,156
			c-2.8,1.6-4.6,4.7-4.6,8l-0.3,145.6c0,3.3,1.7,6.3,4.6,8l126,73c2.8,1.6,6.4,1.7,9.2,0L530.5,318c2.8-1.6,4.6-4.7,4.6-8l0.3-145.6
			c0-3.3-1.7-6.3-4.6-8l-126-73C402,81.8,398.5,81.8,395.7,83.4z M428.7,332.7l-28.5-17.1l-28.5,17.1l28.5,17.1L428.7,332.7z
			 M477.3,242.9l-24.6-39.2l-52.3,31.5l-52.6-31.5l-26.2,39.2l26.8,40.6L336,313.3l26.5,15.7l28.4-18.2l-21.5-13.3
			c-2.7-2.1-3.1-6.8,0.3-6.8h59.5c3.3,0,3.2,4.5,0.8,6.8l-21.4,13.3l28.2,18.2l26.8-15.7l-12.1-29.8L477.3,242.9z M364.9,262.9
			l-33.6-21.9h24.5l9.1,6.1V262.9z M434.4,262.9V247l9.1-6.1H468L434.4,262.9z"/>
		<path id="XMLID_533_" fill="#ED1C24" d="M241.2,490.1h-49.5v-75.2h17.5v60.1h31.9V490.1z M304.5,466.6l-42.2,0.1
			c1.4,4.1,2.2,4.3,4.7,6.8c2.5,2.5,6.3,4,10.3,3.8c5.9-0.2,10.8-2.8,13.3-5.7l9.3,9.8c-6.1,4.6-6.1,4.6-10.1,6.8
			c-4.4,2.4-8.5,2.4-14.4,2.4c-8.5,0-15.8-3.1-21-8.5c-5.3-5.4-7.9-12.3-7.9-20.9c0-8.5,2.8-15.7,8.3-21.5
			c5.5-5.8,12.3-8.7,20.4-8.7c7.9,0,16.1,1.9,21.1,7c6.8,6.9,8.3,11.6,8.3,19.2C304.5,459.5,304.5,466.6,304.5,466.6z M262.8,455
			h24.9c-0.1-3.4-2.3-10.3-12.3-10.3C270.8,444.7,264.7,447.7,262.8,455z M564.6,466.6l-42.2,0.1c1.4,4.1,2.2,4.3,4.7,6.8
			c2.5,2.5,6.3,4,10.3,3.8c5.9-0.2,10.8-2.8,13.3-5.7l9.3,9.8c-6.1,4.6-6.1,4.6-10.1,6.8c-4.4,2.4-8.5,2.4-14.4,2.4
			c-8.5,0-15.8-3.1-21-8.5c-5.3-5.4-7.9-12.3-7.9-20.9c0-8.5,2.8-15.7,8.3-21.5c5.5-5.8,12.3-8.7,20.4-8.7c7.9,0,16.1,1.9,21.1,7
			c6.8,6.9,8.3,11.6,8.3,19.2C564.6,459.5,564.6,466.6,564.6,466.6z M522.9,455h24.9c-0.1-3.4-2.3-10.3-12.3-10.3
			C530.8,444.7,524.8,447.7,522.9,455z M365.2,490.1h-16.3v-6c-3.5,4.2-7.8,6.2-15.2,6.2c-5.9,0-11-1.6-15.2-4.9
			c-4.2-3.3-6.3-7.7-6.3-13.4c0-4.5,1.5-9.2,4.2-12.2c2.7-2.9,5.8-4.5,9.4-5.5c3.7-1.1,7.8-0.9,12.4-0.9c3.3,0,10.8,0.6,10.8,0.6
			c0-7.7-4-10-8.8-10c-6.2,0-15.9,3.9-17.9,5.9l-7.6-10.3c0,0,13.2-8.3,25.7-8.3c11.5,0,15,1.8,19.2,6c4.2,4.3,5.5,10.6,5.5,18.3
			V490.1z M348.5,470.5c0.3-1.3,0-5.5,0-5.5c-3.3,0.7-12.2-1-16.7,1.2c-2.6,1.3-2.7,3-2.7,6.1c0,4.5,5.5,5.1,8,5.1
			C343.6,477.3,347.4,475.1,348.5,470.5z M375.2,431.4h16.6v7.7c4.3-6,10.2-7.9,17.6-7.9c6.2,0,11.3,2.8,15.2,7.8
			c3.4,4.4,4.8,7.4,4.8,21.8v29.3H413v-28.6c0-5.8-0.6-10.9-1.7-13.2c-1.4-2.7-3.9-4-7.5-4c-2.3,0-4.6,0.6-6.8,1.9s-4.1,4.1-5.4,6.4
			v37.5h-16.4V431.4z M498.2,490.1h-16.5l-0.2-7c-1.9,2.9-4.4,5-7.6,6.3c-3.2,1.3-6.5,2-9.8,2c-4.4,0-13.6-3.6-19.3-10.8
			c-4.8-6-5.9-10.7-5.9-19c0-13.1,2.5-16.1,7.6-21.8c5.1-5.7,11.4-8.6,19-8.6c7,0,12.4,3.3,16.4,7.9v-28.5h16.4V490.1z M481.8,466.5
			c0.7-2.6,0.9-8.2,0-10.7c-1.9-5.1-4.7-10.5-13.1-10.5c-4.6,0-8.1,1.7-10.6,5c-2.5,3.3-3.7,7.2-3.7,11.7c0,4.4,1.3,7.1,3.9,10.3
			c2.6,3.2,6,4.8,10.2,4.8C474.4,477.2,479.6,474.5,481.8,466.5z M590.4,431.4v9.5c4.1-8.9,15.5-10.4,17.9-9.5v15
			c-1.6-0.9-15.8-2-17.3,14.2c-0.7,7.4-0.6,29.5-0.6,29.5h-16.7v-58.7H590.4z"/>
	</g>
</g>
</svg>
