<?xml version="1.0" encoding="utf-8"?>
<!-- Generator: Adobe Illustrator 17.1.0, SVG Export Plug-In . SVG Version: 6.00 Build 0)  -->
<!DOCTYPE svg PUBLIC "-//W3C//DTD SVG 1.1//EN" "http://www.w3.org/Graphics/SVG/1.1/DTD/svg11.dtd">
<svg version="1.1" id="Layer_1" xmlns="http://www.w3.org/2000/svg" xmlns:xlink="http://www.w3.org/1999/xlink" x="0px" y="0px"
	 viewBox="0 21 240 198" enable-background="new 0 21 240 198" xml:space="preserve">
<path id="devs_1_" fill="none" stroke="#1E2123" stroke-width="1.5" stroke-miterlimit="10" d="M120.1,35.6L170.7,65
	c1.3,0.7,2.1,2.1,2.1,3.6l-0.1,56.2c0,1.5-0.8,2.8-2.1,3.6l-48.7,28c-1.3,0.7-2.9,0.7-4.2,0l-48.6-28.2c-1.3-0.7-2.1-2.1-2.1-3.6
	l0.1-56.2c0-1.5,0.8-2.8,2.1-3.6L120.1,35.6 M118.1,27.2L61.1,60c-1.3,0.7-2.1,2.1-2.1,3.6l-0.1,65.7c0,1.5,0.8,2.8,2.1,3.6
	l56.9,32.9c1.3,0.7,2.9,0.8,4.2,0l56.9-32.8c1.3-0.7,2.1-2.1,2.1-3.6l0.1-65.7c0-1.5-0.8-2.8-2.1-3.6l-56.9-32.9
	C120.9,26.5,119.3,26.5,118.1,27.2z M133,139.8l-12.9-7.7l-12.9,7.7l12.9,7.7L133,139.8z M154.9,99.2l-11.1-17.7l-23.6,14.2
	L96.4,81.5L84.6,99.2l12.1,18.3L91.1,131l12,7.1l12.8-8.2l-9.7-6c-1.2-0.9-1.4-3.1,0.1-3.1h26.9c1.5,0,1.4,2,0.4,3.1l-9.7,6
	l12.7,8.2l12.1-7.1l-5.5-13.5L154.9,99.2z M104.2,108.3L89,98.4H100l4.1,2.8V108.3z M135.5,108.3v-7.2l4.1-2.8h11.1L135.5,108.3z
	 M48.3,210.8H26v-33.9h7.9V204h14.4L48.3,210.8L48.3,210.8z M76.9,200.2l-19,0c0.6,1.9,1,1.9,2.1,3.1s2.8,1.8,4.6,1.7
	c2.7-0.1,4.9-1.3,6-2.6l4.2,4.4c-2.8,2.1-2.8,2.1-4.6,3.1c-2,1.1-3.8,1.1-6.5,1.1c-3.8,0-7.1-1.4-9.5-3.8c-2.4-2.4-3.6-5.6-3.6-9.4
	c0-3.8,1.3-7.1,3.7-9.7c2.5-2.6,5.6-3.9,9.2-3.9c3.6,0,7.3,0.9,9.5,3.2c3.1,3.1,3.7,5.2,3.7,8.7C76.9,197,76.9,200.2,76.9,200.2z
	 M58.1,195h11.2c0-1.5-1-4.6-5.6-4.6C61.7,190.3,58.9,191.7,58.1,195z M194.3,200.2l-19,0c0.6,1.9,1,1.9,2.1,3.1s2.8,1.8,4.6,1.7
	c2.7-0.1,4.9-1.3,6-2.6l4.2,4.4c-2.8,2.1-2.8,2.1-4.6,3.1c-2,1.1-3.8,1.1-6.5,1.1c-3.8,0-7.1-1.4-9.5-3.8c-2.4-2.4-3.6-5.6-3.6-9.4
	c0-3.8,1.3-7.1,3.7-9.7c2.5-2.6,5.6-3.9,9.2-3.9c3.6,0,7.3,0.9,9.5,3.2c3.1,3.1,3.7,5.2,3.7,8.7C194.3,197,194.3,200.2,194.3,200.2z
	 M175.5,195h11.2c0-1.5-1-4.6-5.6-4.6C179,190.3,176.3,191.7,175.5,195z M104.3,210.8h-7.4v-2.7c-1.6,1.9-3.5,2.8-6.9,2.8
	c-2.7,0-5-0.7-6.9-2.2c-1.9-1.5-2.8-3.5-2.8-6c0-2,0.7-4.2,1.9-5.5c1.2-1.3,2.6-2,4.2-2.5c1.7-0.5,3.5-0.4,5.6-0.4
	c1.5,0,4.9,0.3,4.9,0.3c0-3.5-1.8-4.5-4-4.5c-2.8,0-7.2,1.8-8.1,2.7l-3.4-4.6c0,0,6-3.7,11.6-3.7c5.2,0,6.8,0.8,8.7,2.7
	c1.9,1.9,2.5,4.8,2.5,8.3L104.3,210.8L104.3,210.8z M96.8,202c0.1-0.6,0-2.5,0-2.5c-1.5,0.3-5.5-0.5-7.5,0.5
	c-1.2,0.6-1.2,1.4-1.2,2.8c0,2,2.5,2.3,3.6,2.3C94.5,205,96.3,204,96.8,202z M108.8,184.3h7.5v3.5c1.9-2.7,4.6-3.6,7.9-3.6
	c2.8,0,5.1,1.3,6.9,3.5c1.5,2,2.2,3.3,2.2,9.8v13.2h-7.4v-12.9c0-2.6-0.3-4.9-0.8-6c-0.6-1.2-1.8-1.8-3.4-1.8c-1,0-2.1,0.3-3.1,0.9
	c-1,0.6-1.9,1.9-2.4,2.9v16.9h-7.4V184.3z M164.3,210.8h-7.4l-0.1-3.2c-0.9,1.3-2,2.3-3.4,2.8s-2.9,0.9-4.4,0.9
	c-2,0-6.1-1.6-8.7-4.9c-2.2-2.7-2.7-4.8-2.7-8.6c0-5.9,1.1-7.3,3.4-9.8c2.3-2.6,5.1-3.9,8.6-3.9c3.2,0,5.6,1.5,7.4,3.6v-12.9h7.4
	L164.3,210.8L164.3,210.8z M156.9,200.2c0.3-1.2,0.4-3.7,0-4.8c-0.9-2.3-2.1-4.7-5.9-4.7c-2.1,0-3.7,0.8-4.8,2.3
	c-1.1,1.5-1.7,3.2-1.7,5.3c0,2,0.6,3.2,1.8,4.6c1.2,1.4,2.7,2.2,4.6,2.2C153.6,205,155.9,203.8,156.9,200.2z M205.9,184.3v4.3
	c1.9-4,7-4.7,8.1-4.3v6.8c-0.7-0.4-7.1-0.9-7.8,6.4c-0.3,3.3-0.3,13.3-0.3,13.3h-7.5v-26.5H205.9z"/>
<path id="devs" fill="#FF0000" d="M120.1,35.6L170.7,65c1.3,0.7,2.1,2.1,2.1,3.6l-0.1,56.2c0,1.5-0.8,2.8-2.1,3.6l-48.7,28
	c-1.3,0.7-2.9,0.7-4.2,0l-48.6-28.2c-1.3-0.7-2.1-2.1-2.1-3.6l0.1-56.2c0-1.5,0.8-2.8,2.1-3.6L120.1,35.6 M118.1,27.2L61.1,60
	c-1.3,0.7-2.1,2.1-2.1,3.6l-0.1,65.7c0,1.5,0.8,2.8,2.1,3.6l56.9,32.9c1.3,0.7,2.9,0.8,4.2,0l56.9-32.8c1.3-0.7,2.1-2.1,2.1-3.6
	l0.1-65.7c0-1.5-0.8-2.8-2.1-3.6l-56.9-32.9C120.9,26.5,119.3,26.5,118.1,27.2z M133,139.8l-12.9-7.7l-12.9,7.7l12.9,7.7L133,139.8z
	 M154.9,99.2l-11.1-17.7l-23.6,14.2L96.4,81.5L84.6,99.2l12.1,18.3L91.1,131l12,7.1l12.8-8.2l-9.7-6c-1.2-0.9-1.4-3.1,0.1-3.1h26.9
	c1.5,0,1.4,2,0.4,3.1l-9.7,6l12.7,8.2l12.1-7.1l-5.5-13.5L154.9,99.2z M104.2,108.3L89,98.4H100l4.1,2.8V108.3z M135.5,108.3v-7.2
	l4.1-2.8h11.1L135.5,108.3z M48.3,210.8H26v-33.9h7.9V204h14.4L48.3,210.8L48.3,210.8z M76.9,200.2l-19,0c0.6,1.9,1,1.9,2.1,3.1
	s2.8,1.8,4.6,1.7c2.7-0.1,4.9-1.3,6-2.6l4.2,4.4c-2.8,2.1-2.8,2.1-4.6,3.1c-2,1.1-3.8,1.1-6.5,1.1c-3.8,0-7.1-1.4-9.5-3.8
	c-2.4-2.4-3.6-5.6-3.6-9.4c0-3.8,1.3-7.1,3.7-9.7c2.5-2.6,5.6-3.9,9.2-3.9c3.6,0,7.3,0.9,9.5,3.2c3.1,3.1,3.7,5.2,3.7,8.7
	C76.9,197,76.9,200.2,76.9,200.2z M58.1,195h11.2c0-1.5-1-4.6-5.6-4.6C61.7,190.3,58.9,191.7,58.1,195z M194.3,200.2l-19,0
	c0.6,1.9,1,1.9,2.1,3.1s2.8,1.8,4.6,1.7c2.7-0.1,4.9-1.3,6-2.6l4.2,4.4c-2.8,2.1-2.8,2.1-4.6,3.1c-2,1.1-3.8,1.1-6.5,1.1
	c-3.8,0-7.1-1.4-9.5-3.8c-2.4-2.4-3.6-5.6-3.6-9.4c0-3.8,1.3-7.1,3.7-9.7c2.5-2.6,5.6-3.9,9.2-3.9c3.6,0,7.3,0.9,9.5,3.2
	c3.1,3.1,3.7,5.2,3.7,8.7C194.3,197,194.3,200.2,194.3,200.2z M175.5,195h11.2c0-1.5-1-4.6-5.6-4.6C179,190.3,176.3,191.7,175.5,195
	z M104.3,210.8h-7.4v-2.7c-1.6,1.9-3.5,2.8-6.9,2.8c-2.7,0-5-0.7-6.9-2.2c-1.9-1.5-2.8-3.5-2.8-6c0-2,0.7-4.2,1.9-5.5
	c1.2-1.3,2.6-2,4.2-2.5c1.7-0.5,3.5-0.4,5.6-0.4c1.5,0,4.9,0.3,4.9,0.3c0-3.5-1.8-4.5-4-4.5c-2.8,0-7.2,1.8-8.1,2.7l-3.4-4.6
	c0,0,6-3.7,11.6-3.7c5.2,0,6.8,0.8,8.7,2.7c1.9,1.9,2.5,4.8,2.5,8.3L104.3,210.8L104.3,210.8z M96.8,202c0.1-0.6,0-2.5,0-2.5
	c-1.5,0.3-5.5-0.5-7.5,0.5c-1.2,0.6-1.2,1.4-1.2,2.8c0,2,2.5,2.3,3.6,2.3C94.5,205,96.3,204,96.8,202z M108.8,184.3h7.5v3.5
	c1.9-2.7,4.6-3.6,7.9-3.6c2.8,0,5.1,1.3,6.9,3.5c1.5,2,2.2,3.3,2.2,9.8v13.2h-7.4v-12.9c0-2.6-0.3-4.9-0.8-6
	c-0.6-1.2-1.8-1.8-3.4-1.8c-1,0-2.1,0.3-3.1,0.9c-1,0.6-1.9,1.9-2.4,2.9v16.9h-7.4V184.3z M164.3,210.8h-7.4l-0.1-3.2
	c-0.9,1.3-2,2.3-3.4,2.8s-2.9,0.9-4.4,0.9c-2,0-6.1-1.6-8.7-4.9c-2.2-2.7-2.7-4.8-2.7-8.6c0-5.9,1.1-7.3,3.4-9.8
	c2.3-2.6,5.1-3.9,8.6-3.9c3.2,0,5.6,1.5,7.4,3.6v-12.9h7.4L164.3,210.8L164.3,210.8z M156.9,200.2c0.3-1.2,0.4-3.7,0-4.8
	c-0.9-2.3-2.1-4.7-5.9-4.7c-2.1,0-3.7,0.8-4.8,2.3c-1.1,1.5-1.7,3.2-1.7,5.3c0,2,0.6,3.2,1.8,4.6c1.2,1.4,2.7,2.2,4.6,2.2
	C153.6,205,155.9,203.8,156.9,200.2z M205.9,184.3v4.3c1.9-4,7-4.7,8.1-4.3v6.8c-0.7-0.4-7.1-0.9-7.8,6.4
	c-0.3,3.3-0.3,13.3-0.3,13.3h-7.5v-26.5H205.9z"/>
</svg>
