<?xml version="1.0" encoding="utf-8"?>
<!-- Generator: Adobe Illustrator 17.1.0, SVG Export Plug-In . SVG Version: 6.00 Build 0)  -->
<!DOCTYPE svg PUBLIC "-//W3C//DTD SVG 1.1//EN" "http://www.w3.org/Graphics/SVG/1.1/DTD/svg11.dtd">
<svg version="1.1" xmlns="http://www.w3.org/2000/svg" xmlns:xlink="http://www.w3.org/1999/xlink" x="0px" y="0px"
	 viewBox="0 0 800 660" enable-background="new 0 0 800 660" xml:space="preserve">
<g id="Layer_2">
	
		<radialGradient id="SVGID_1_" cx="399.9813" cy="329.9318" r="395.506" gradientTransform="matrix(0.9639 0 0 0.88 14.4759 39.66)" gradientUnits="userSpaceOnUse">
		<stop  offset="0.5" style="stop-color:#262626"/>
		<stop  offset="1" style="stop-color:#1A1A1A"/>
	</radialGradient>
	<rect fill="url(#SVGID_1_)" width="800" height="660"/>
</g>
<g id="Layer_1">
	<path id="live-dealer-casino_1_" fill="#FFFFFF" d="M548.9,200.1H251.1c-3.2,0-5.8,2.6-5.8,5.8v198.6c0,3.2,2.6,5.8,5.8,5.8h297.8
		c3.2,0,5.8-2.6,5.8-5.8V205.9C554.7,202.7,552.1,200.1,548.9,200.1z M543.1,398.6H256.9V211.7h286.2V398.6z M396.8,295.1v-65.9
		c0-2.8,2.3-5.1,5.1-5.1c2.8,0,5.1,2.3,5.1,5.1v60.7h16.8c2.8,0,5.1,2.3,5.1,5.1c0,2.8-2.3,5.1-5.1,5.1h-22
		C399.1,300.2,396.8,297.9,396.8,295.1z M435.2,295.1v-65.9c0-2.8,2.3-5.1,5.1-5.1c2.8,0,5.1,2.3,5.1,5.1v65.9
		c0,2.8-2.3,5.1-5.1,5.1C437.5,300.2,435.2,297.9,435.2,295.1z M451.8,230.2c-0.5-2.8,1.3-5.5,4.1-6c2.8-0.5,5.5,1.3,6,4.1l8.7,45.1
		l8.7-45.1c0.5-2.8,3.2-4.6,6-4.1c2.8,0.5,4.6,3.2,4.1,6l-12.4,64.6c-0.6,3.2-3.2,5.4-6.3,5.4s-5.7-2.2-6.3-5.4L451.8,230.2z
		 M495.6,295.1v-65.9c0-2.8,2.3-5.1,5.1-5.1h22c2.8,0,5.1,2.3,5.1,5.1c0,2.8-2.3,5.1-5.1,5.1h-16.8V257h11.3c2.8,0,5.1,2.3,5.1,5.1
		s-2.3,5.1-5.1,5.1h-11.3v22.6h16.8c2.8,0,5.1,2.3,5.1,5.1c0,2.8-2.3,5.1-5.1,5.1h-22C497.9,300.2,495.6,297.9,495.6,295.1z
		 M548.9,175.3H251.1c-16.9,0-30.6,13.7-30.6,30.6v198.6c0,16.9,13.7,30.6,30.6,30.6h87.3v13.2h-19c-10.1,0-18.2,8.2-18.2,18.2v12.4
		c0,3.2,2.6,5.8,5.8,5.8h186.1c3.2,0,5.8-2.6,5.8-5.8v-12.4c0-10.1-8.2-18.2-18.2-18.2h-19v-13.2h87.3c16.9,0,30.6-13.7,30.6-30.6
		V205.9C579.6,189,565.8,175.3,548.9,175.3z M487.3,466.5v6.6H312.7v-6.6c0-3.6,3-6.6,6.6-6.6h161.3
		C484.3,459.9,487.3,462.9,487.3,466.5z M450,448.3H350v-13.2H450V448.3z M567.9,404.5c0,10.5-8.5,19-19,19H251.1
		c-10.5,0-19-8.5-19-19V205.9c0-10.5,8.5-19,19-19h297.8c10.5,0,19,8.5,19,19V404.5z M403,338.1c-3.6-6-8.6-10.2-14.6-12.1
		l-16.8-5.4c-0.6-0.2-1.1-0.2-1.6,0l-2.6-4c-0.8-1.2-2.4-1.5-3.6-0.8l-1.3,0.8v-3.8c0-0.4-0.1-0.8-0.3-1.1
		c8.3-7.4,13.7-18.5,13.7-31v-9.3c6.7-18.8,6.6-40.4,2.1-45.9c0,0,0,0,0,0l0,0c0,0,0,0,0,0c0-0.1-0.1-0.1-0.2-0.2
		c0,0-0.1-0.1-0.1-0.1c0,0-0.1-0.1-0.1-0.1c0,0-0.1-0.1-0.1-0.1c0,0,0,0-0.1,0c-0.1,0-0.1-0.1-0.2-0.1c0,0,0,0-0.1,0
		c-0.1,0-0.1-0.1-0.2-0.1c0,0-0.1,0-0.1,0c0,0-0.1,0-0.1-0.1c0,0-0.1,0-0.1,0c0,0-0.1,0-0.1,0c0,0-0.1,0-0.1,0c0,0-0.1,0-0.1,0
		c0,0-0.1,0-0.1,0c0,0-0.1,0-0.1,0c0,0-0.1,0-0.1,0c-0.1,0-0.1,0-0.2,0c0,0-0.1,0-0.1,0c-0.1,0-0.2,0-0.2,0c0,0,0,0,0,0c0,0,0,0,0,0
		c0,0,0,0,0,0c-6.3,1.2-13.7-0.5-21.6-2.4c-12.4-2.9-25.2-5.9-35.2,2.4c-0.5,0-1.1-0.1-1.6-0.1c-11.8,0-21.4,9.6-21.4,21.4
		c0,12.6,4.5,27.2,5.4,29.9v4.9c0,12.4,5.3,23.6,13.6,31c-0.2,0.4-0.3,0.8-0.3,1.2v3.8l-1.3-0.8c-1.2-0.7-2.8-0.4-3.6,0.8l-2.6,4
		c-0.5-0.2-1.1-0.2-1.6,0l-16.8,5.4c-5.9,1.9-11,6.1-14.6,12.1c-3.2,5.4-5,12-5,18.4v23.3c0,5.9,4.8,10.7,10.7,10.7h32.2
		c0,0,0,0,0,0c0,0,0,0,0,0h53.6c0,0,0,0,0,0c0,0,0,0,0,0h32.2c5.9,0,10.7-4.8,10.7-10.7v-23.3C408.1,350,406.3,343.5,403,338.1z
		 M313.5,385.1L293.4,330l10.2-3.3c0.1,0.4,0.3,0.8,0.5,1.1l3.5,4.4c-0.9,1-1.4,2.4-1.4,3.8v17.8c0,1.9,0.9,3.7,2.5,4.8
		c1,0.7,2.1,1,3.3,1c0.7,0,1.4-0.1,2-0.4l15.9-6c1.5,1.5,3.5,2.4,5.7,2.4h5.4c2.2,0,4.2-0.9,5.7-2.4l15.9,6c0.7,0.2,1.4,0.4,2,0.4
		c1.2,0,2.3-0.4,3.3-1c1.6-1.1,2.5-2.9,2.5-4.8V336c0-1.1-0.3-2.2-0.9-3.1l3.2-5.4c0.2-0.3,0.3-0.5,0.3-0.8l10.2,3.3l-20.1,55.2
		H313.5z M284.8,333.8c1.2-0.8,2.4-1.5,3.6-2.1l19.4,53.4h-23v-50.9C284.8,334.1,284.8,333.9,284.8,333.8z M327.7,342.2L327.7,342.2
		l-5.4,0c-1.5,0-2.7,1.2-2.7,2.7c0,1.5,1.2,2.7,2.7,2.7h5.4v0.8l-15.5,5.8c-0.1,0.1-0.3,0-0.4-0.1c-0.1-0.1-0.2-0.2-0.2-0.4V336
		c0-0.2,0.1-0.3,0.2-0.4c0.1-0.1,0.2-0.1,0.2-0.1c0.1,0,0.1,0,0.2,0l15.5,5.8V342.2z M335.7,339.5h5.4c1.5,0,2.7,1.2,2.7,2.7v5.4
		c0,1.5-1.2,2.7-2.7,2.7h-5.4c-1.5,0-2.7-1.2-2.7-2.7v-5.4C333,340.7,334.2,339.5,335.7,339.5z M364.6,335.6c0.1-0.1,0.3,0,0.4,0.1
		c0.1,0.1,0.2,0.2,0.2,0.4v17.8c0,0.2-0.1,0.3-0.2,0.4s-0.3,0.1-0.4,0.1l-15.5-5.8v-0.8h5.4c1.5,0,2.7-1.2,2.7-2.7
		c0-1.5-1.2-2.7-2.7-2.7h-5.4v0v-0.8L364.6,335.6z M388.5,331.7c1.2,0.5,2.4,1.2,3.6,2.1c0,0.1,0,0.3,0,0.4v50.9h-23L388.5,331.7z
		 M364.4,321.7l3,4.5l-2.4,4c-0.8,0-1.6,0.1-2.3,0.4l-15.9,6c-1-1-2.2-1.7-3.6-2.1L364.4,321.7z M306.3,280.6v-2.7
		c0-9.5,6.8-16.9,6.8-16.9c1-1.1,1-2.8-0.1-3.8c-1.1-1-2.8-1-3.8,0.1c-0.2,0.2-3.2,3.4-5.5,8.5c-1.4-5.7-2.9-13.2-2.9-20
		c0-8.9,7.2-16.1,16.1-16.1c2.1,0,4.2,0.4,6.2,1.2c1.4,0.6,2.9-0.1,3.5-1.4c0.5-1.2,0-2.6-1-3.3c7.5-3.6,17-1.3,27,1
		c6.1,1.4,12.5,2.9,18.4,2.9c1.2,0,2.4-0.1,3.5-0.2c0.8,2.1,1.5,6.5,1.4,13c-0.2,7.2-1.4,14.8-3.5,21.9l-5-7.2c-0.7-1-2-1.4-3.1-1
		c-0.1,0-6.5,2.4-16,2.3c-12.7-0.2-24.4-4.4-35-12.6c-1.2-0.9-2.9-0.7-3.8,0.5c-0.9,1.2-0.7,2.9,0.5,3.8
		c14.4,11.2,28.9,13.6,38.5,13.7c7.3,0.1,12.9-1.2,15.7-2l6.5,9.3v9c0,19.2-14.4,34.8-32.1,34.8
		C320.7,315.4,306.3,299.8,306.3,280.6z M319.6,315.4c5.5,3.4,12,5.4,18.8,5.4c6.8,0,13.2-2,18.7-5.4v4.4l-18.8,11.3l-18.8-11.3
		V315.4L319.6,315.4z M312.4,321.7l21.2,12.7c-1.4,0.4-2.6,1.1-3.6,2.1l-15.9-6c-0.4-0.1-0.7-0.2-1.1-0.3l-3.4-4.2L312.4,321.7z
		 M274.1,379.8v-23.3c0-7,2.2-12.9,5.4-17.3v45.9l0,0C276.5,385.1,274.1,382.7,274.1,379.8z M402.7,379.8c0,3-2.4,5.4-5.4,5.4v-45.9
		c3.2,4.4,5.4,10.4,5.4,17.3V379.8z M343.8,363.7c0,3-2.4,5.4-5.4,5.4c-3,0-5.4-2.4-5.4-5.4c0-3,2.4-5.4,5.4-5.4
		C341.4,358.3,343.8,360.7,343.8,363.7z M343.8,377.1c0,3-2.4,5.4-5.4,5.4c-3,0-5.4-2.4-5.4-5.4c0-3,2.4-5.4,5.4-5.4
		C341.4,371.7,343.8,374.1,343.8,377.1z M433.1,366.4c0.3,0,0.4,0,0.7,0l0,0c0.1,0,0.1,0,0.3,0l0,0l0,0l0,0c0.1,0,0.1,0,0.3,0
		c0,0,0,0,0.1,0c0,0,0,0,0.1,0s0.1,0,0.3,0h0.1l0,0l0,0l0,0c0.1,0,0.1,0,0.3,0l0,0l0,0c-0.5,1.2-1.1,2.1-1.7,3.2v0.1
		c-0.5,0.9-0.5,2.1,0,3.2c0.5,0.9,1.6,1.6,2.8,1.6h8.2c1.2,0,2.1-0.7,2.8-1.6c0.5-0.9,0.5-2.3,0-3.2l0,0c-0.7-1.1-1.2-2-1.7-3.2l0,0
		l0,0l0,0c0.1,0,0.1,0,0.3,0l0,0l0,0l0,0h0.1c0.1,0,0.1,0,0.3,0c0,0,0,0,0.1,0c0,0,0,0,0.1,0c0.1,0,0.1,0,0.3,0h0.1l0,0
		c0.1,0,0.3,0,0.3,0l0,0c0.3,0,0.4,0,0.7,0c2.5,0,4.9-0.9,6.9-2.5c1.1,1.3,2.1,2.9,3.3,4.4c0.9,1.3,2,2.6,3.2,4.2
		c0.7,0.8,1.6,1.3,2.5,1.3c1.1,0,2-0.5,2.5-1.3c0,0,0,0,0-0.1c0.5,0.5,1.3,0.8,2.1,0.8h0.8c1.1,0,2.1-0.5,2.8-1.5
		c0.1,0.7,0.5,1.3,1.1,1.7c0.1,1.1,0.7,2,1.6,2.6c0.5,0.9,1.6,1.6,2.8,1.6h2c1.2,0,2.3-0.7,2.8-1.6c0.8-0.5,1.5-1.5,1.6-2.5
		c0.3,0.1,0.7,0.1,1.1,0.1h8.1c1.2,0,2.3-0.7,2.8-1.6c0.5-0.9,0.5-2.3,0-3.2l0,0c-0.9-1.5-1.6-2.6-2.1-4.5h0.1
		c0.9,0.3,1.7,0.3,2.6,0.3c0.4,0,0.8,0,1.2-0.1c0.1,0.4,0.4,0.8,0.7,1.1l6.5,7c0.7,0.7,1.5,1.1,2.4,1.1h0.1c0.9,0,1.7-0.4,2.4-1.1
		l17.6-19.2c1.1-1.2,1.1-3,0-4.2l-17.9-19.1c-0.7-0.7-1.5-1.1-2.4-1.1h-0.1c-0.9,0-1.7,0.4-2.4,1.1l-5.2,5.7
		c-1.9-4-5.8-6.6-10.5-6.6c-3.2,0-6.2,1.3-8.3,3.6c-2.3-2.3-5.2-3.6-8.2-3.6l0,0H472l0,0c-3.2,0.1-6.1,1.6-8.2,4.1
		c-2.1-2.6-5-4.1-8.2-4.1l0,0h-0.1h-0.1c-3.7,0-7.3,1.9-9.4,5c-0.1-0.1-0.1-0.3-0.3-0.3c-0.8-1.1-1.7-2.1-2.6-3.2
		c-0.7-0.8-1.5-1.2-2.5-1.2c-0.9,0-1.9,0.4-2.5,1.2c-0.9,1.2-1.9,2.3-2.8,3.3c-7.7,9.4-11.5,14-12.7,20.3c-0.5,3,0.3,6,2.1,8.3
		C426.8,365,429.9,366.4,433.1,366.4z M481.8,364.3C481.8,364.5,481.7,364.5,481.8,364.3l-4.4,0.1c-0.1,0-0.1,0.1-0.1,0.1v1.9
		c0,0.1,0.1,0.1,0.1,0.1h0.8c0.1,0,0.1,0.1,0.1,0.1v2c0,0.1,0.1,0.1,0.1,0.1h0.8c0.1,0,0.1,0.1,0.1,0.1v1.9c0,0.1,0.1,0.1,0.1,0.1
		h0.8c0.1,0,0.1,0.1,0.1,0.1v1.9c0,0.1-0.1,0.1-0.1,0.1h-0.8c-0.1,0-0.1,0.1-0.1,0.1v0.8c0,0.1-0.1,0.1-0.1,0.1h-1.9
		c-0.1,0-0.1-0.1-0.1-0.1v-0.8c0-0.1-0.1-0.1-0.1-0.1h-0.8c-0.1,0-0.1-0.1-0.1-0.1v-1.9c0-0.1-0.1-0.1-0.1-0.1h-0.8
		c-0.1,0-0.1-0.1-0.1-0.1v-1.6c0-0.1-0.1-0.1-0.1-0.1h-0.8c-0.1,0-0.1-0.1-0.1-0.1v-2c0-0.1-0.1-0.1-0.1-0.1h-2
		c-0.1,0-0.1,0.1-0.1,0.1v0.8c0,0.1-0.1,0.1-0.1,0.1H471c-0.1,0-0.1,0.1-0.1,0.1v0.8c0,0.1-0.1,0.1-0.1,0.1h-0.8
		c-0.1,0-0.1,0.1-0.1,0.1v0.8c0,0.1-0.1,0.1-0.1,0.1h-0.8c-0.1,0-0.1-0.1-0.1-0.1v-18.8c0-0.1,0.1-0.1,0.1-0.1h0.8
		c0.1,0,0.1,0.1,0.1,0.1v0.8c0,0.1,0.1,0.1,0.1,0.1h0.8c0.1,0,0.1,0.1,0.1,0.1v0.8c0,0.1,0.1,0.1,0.1,0.1h0.8c0.1,0,0.1,0.1,0.1,0.1
		v0.8c0,0.1,0.1,0.1,0.1,0.1h0.8c0.1,0,0.1,0.1,0.1,0.1v0.8c0,0.1,0.1,0.1,0.1,0.1h0.8c0.1,0,0.1,0.1,0.1,0.1v0.8
		c0,0.1,0.1,0.1,0.1,0.1h0.8c0.1,0,0.1,0.1,0.1,0.1v0.8c0,0.1,0.1,0.1,0.1,0.1h0.8c0.1,0,0.1,0.1,0.1,0.1v0.8c0,0.1,0.1,0.1,0.1,0.1
		h0.8c0.1,0,0.1,0.1,0.1,0.1v0.8c0,0.1,0.1,0.1,0.1,0.1h0.8c0.1,0,0.1,0.1,0.1,0.1v0.8c0,0.1,0.1,0.1,0.1,0.1h0.8
		c0.1,0,0.1,0.1,0.1,0.1v0.8c0,0.1,0.1,0.1,0.1,0.1h0.8c0.1,0,0.1,0.1,0.1,0.1v0.8c0,0.1,0.1,0.1,0.1,0.1h0.8c0.1,0,0.1,0.1,0.1,0.1
		L481.8,364.3L481.8,364.3z M500,339.8l6.9-7.4l0,0l0,0l17.6,19.2l-17.6,19.2l0,0l0,0l-6.5-7c4.1-1.6,7-5.7,7-10.3
		c0-4.9-3.3-9.1-7.7-10.6c0.1-0.8,0.3-1.5,0.3-2.3C500,340.4,500,340.1,500,339.8z M488.8,332.4c4,0,7.1,2.8,8.1,6.4
		c0.1,0.7,0.3,1.3,0.3,2c0,0.9-0.1,1.7-0.4,2.5c-0.3,0.7-0.5,1.2-0.8,1.9c0.7,0,1.2-0.3,5.6,2.8c0.1,2.3,1.2,4.5,3,5.7
		c0,3.8-2.8,7-6.4,7.9c-0.7,0.1-1.3,0.3-2,0.3s-1.3-0.1-2-0.3c-2-0.4-3.6-1.6-4.8-3.2c0,2,0.1,4.9,0.5,6.4c0.8,2.6,1.7,4.4,2.8,6.1
		h-8.1c1.1-1.7,2-3.3,2.8-6.1c0.4-1.5,0.5-4.4,0.5-6.4c-1.3,1.7-3.2,2.9-5.3,3.2c0,0-0.1,0-0.1-0.1c-0.3-0.5-0.7-0.9-1.1-1.1
		c-0.3-0.5-0.7-0.9-1.1-1.1c-0.3-0.5-0.7-0.9-1.2-1.2c-0.3-0.5-0.7-0.9-1.1-1.1c-0.1-0.3-0.3-0.5-0.5-0.8c3.2-4.8,4.9-8.6,5.7-12.8
		c0.4-2.6,0-5.3-1.2-7.5C483.7,333.8,486.1,332.4,488.8,332.4z M455.4,332.4L455.4,332.4C455.5,332.4,455.5,332.4,455.4,332.4
		c3.4,0.1,6.8,2.3,8.5,7.7c1.7-5.4,5-7.7,8.3-7.7h0.1h0.1c2.5,0,5,1.3,6.6,3.3c0.8,1.1,1.5,2.4,1.7,3.8c0.1,0.9,0.1,1.9,0.1,2.8
		c0,0.1,0,0.4-0.1,0.5c-0.1,0.8-0.3,1.5-0.5,2.3c-0.8,2.9-2.3,5.8-4.5,9.3c-0.3-0.3-0.5-0.5-0.9-0.7c-0.3-0.5-0.7-0.9-1.1-1.1
		c-0.3-0.5-0.7-0.9-1.2-1.2c-0.3-0.5-0.7-0.9-1.2-1.1c-0.4-0.8-1.1-1.3-2-1.3h-0.8c-1.2,0-2.3,0.9-2.3,2.3v16
		c-0.8,1.1-1.7,2.3-2.6,3.6l0,0l0,0c-2.8-3.7-5.2-6.9-7.1-9.5c1.2-2,1.7-4.4,1.2-6.8c-0.9-5.3-4.1-9.7-10.2-17.1
		C449.1,334.3,452.2,332.4,455.4,332.4z M425.7,354.9c1.1-6,5.4-10.7,14.8-22.1c1.5,1.9,2.9,3.6,4.1,5c0.8,0.9,1.5,1.9,2.1,2.6
		c5,6.2,7.7,10.1,8.5,14.4c0.3,1.5,0.1,2.8-0.4,3.8c-0.4,0.9-0.9,1.7-1.6,2.4c-1.5,1.5-3.7,2.4-5.8,2.3l0,0c-0.1,0-0.1,0-0.3,0
		c0,0,0,0-0.1,0c-0.1,0-0.1,0-0.3,0h-0.1h-0.1h-0.1c-0.1,0-0.1,0-0.1,0s-0.1,0-0.3,0c0,0,0,0-0.1,0c-0.1,0-0.1,0-0.3,0
		c0,0,0,0-0.1,0c-0.1,0-0.1,0-0.3-0.1l0,0c-1.6-0.7-3.2-1.9-4.2-4c0,2,0.1,4.6,0.5,6c0.8,2.8,1.7,4.4,2.8,6.1h-7.8
		c1.1-1.7,2-3.3,2.8-6.1c0.4-1.3,0.5-4,0.5-6c-1.1,2.1-2.6,3.3-4.2,4l0,0c-0.1,0-0.1,0-0.3,0.1c0,0,0,0-0.1,0c-0.1,0-0.1,0-0.3,0
		h-0.1c-0.1,0-0.1,0-0.3,0h-0.1h-0.1H434h-0.1c-0.1,0-0.1,0-0.3,0c0,0,0,0-0.1,0c-0.1,0-0.1,0-0.3,0l0,0
		C429.1,363.5,424.8,359.8,425.7,354.9z"/>
</g>
</svg>
