<?xml version="1.0" encoding="utf-8"?>
<!-- Generator: Adobe Illustrator 17.1.0, SVG Export Plug-In . SVG Version: 6.00 Build 0)  -->
<!DOCTYPE svg PUBLIC "-//W3C//DTD SVG 1.1//EN" "http://www.w3.org/Graphics/SVG/1.1/DTD/svg11.dtd">
<svg version="1.1" id="live-dealer-casino_1_" xmlns="http://www.w3.org/2000/svg" xmlns:xlink="http://www.w3.org/1999/xlink"
	 x="0px" y="0px" viewBox="0 0 240 240" enable-background="new 0 0 240 240" xml:space="preserve">
<path fill="#D4D3D3" d="M91.3,150.9l26.5,11.8c1,0.5,2.2,0.5,3.2,0l26.5-11.8c2.6-1.2,5.6,0.8,5.6,3.7v25.4c0,2.9-3,4.8-5.6,3.7
	l-26.5-11.8c-1-0.5-2.2-0.5-3.2,0l-26.5,11.8c-2.6,1.2-5.6-0.8-5.6-3.7v-25.4C85.7,151.6,88.6,149.7,91.3,150.9z"/>
<path fill="#D4D3D3" d="M180.5,157.8l-45.2,70c-3,4.7,0.3,10.8,5.9,10.8H230c3.9,0,7-3.1,7-7v-55.4c0-3-1.9-5.7-4.8-6.6L188.6,155
	C185.6,154,182.2,155.1,180.5,157.8z"/>
<path fill="#D4D3D3" d="M51.2,155L7.6,169.6c-2.9,1-4.8,3.6-4.8,6.6v55.4c0,3.9,3.1,7,7,7h88.9c5.5,0,8.9-6.1,5.9-10.8l-45.2-70
	C57.5,155.1,54.2,154,51.2,155z"/>
<ellipse fill="#D4D3D3" cx="119.4" cy="69" rx="59.5" ry="68"/>
</svg>
