<?xml version="1.0" encoding="utf-8"?>
<!-- Generator: Adobe Illustrator 17.1.0, SVG Export Plug-In . SVG Version: 6.00 Build 0)  -->
<!DOCTYPE svg PUBLIC "-//W3C//DTD SVG 1.1//EN" "http://www.w3.org/Graphics/SVG/1.1/DTD/svg11.dtd">
<svg version="1.1" xmlns="http://www.w3.org/2000/svg" xmlns:xlink="http://www.w3.org/1999/xlink" x="0px" y="0px"
	 viewBox="0 0 800 660" enable-background="new 0 0 800 660" xml:space="preserve">
<g id="Layer_2">
		<radialGradient id="light_1_" cx="399.9813" cy="329.9318" r="395.506" gradientTransform="matrix(0.9639 0 0 0.88 14.4759 39.66)" gradientUnits="userSpaceOnUse">
		<stop  offset="0.5" style="stop-color:#FFFFFF"/>
		<stop  offset="1" style="stop-color:#D9D9D9"/>
	</radialGradient>
	<rect id="light" fill="url(#light_1_)" width="800" height="660"/>
</g>

<g id="devs">
	<g id="microgaming">
		<linearGradient id="XMLID_69_" gradientUnits="userSpaceOnUse" x1="329.2355" y1="346.5677" x2="470.7704" y2="101.422">
			<stop  offset="0" style="stop-color:#3FA860"/>
			<stop  offset="0.9" style="stop-color:#00A4E1"/>
		</linearGradient>
		<path id="XMLID_637_" fill="url(#XMLID_69_)" d="M400,82.5c-78.2,0-141.5,63.4-141.5,141.5c0,14.1,2.1,27.7,5.9,40.5
			c37.3-50,79.7-127.6,84.7-139.4c4.6-10.8,8.4-16.1,21.1-13.4c3.5,0.7,8.9,6.5,7.4,18.3c-8.4,66.9-1.6,170.9,14.5,157.9
			c14.5-11.7,47.2-75.6,57.4-100.5c5.3-13.1,8.1-20.5,19.8-19.4c9.2,0.9,10.6,11.2,10.8,14.6c2.3,45.7,22.5,78.2,25,82.4
			c4.7,8.1-3.2,8.7-14.7-3.7c-7.1-7.7-17.6-24.4-24.6-43.8c-2-5.7-40.5,111.7-85.1,97.9c-34-10.5-34-87.9-32.3-125.4
			c0.2-3.6-35.6,70.1-66.3,112c25.3,38.2,68.7,63.4,118,63.4c78.2,0,141.5-63.4,141.5-141.5C541.5,145.8,478.2,82.5,400,82.5z"/>
		<g id="XMLID_638_">
			<linearGradient id="XMLID_70_" gradientUnits="userSpaceOnUse" x1="660.2083" y1="456.8384" x2="142.6666" y2="454.3463">
				<stop  offset="0" style="stop-color:#3FA860"/>
				<stop  offset="0.7308" style="stop-color:#00A4E1"/>
			</linearGradient>
			<path id="XMLID_639_" fill="url(#XMLID_70_)" d="M202.4,429l-18.7,56.8h-3.6L161.2,429h-0.9l0,56.8h-6.9v-62.6h12.5l16.1,48.8
				h0.1l15.9-48.8h12.8v62.6h-6.9l-0.3-56.8H202.4z"/>
			<linearGradient id="XMLID_71_" gradientUnits="userSpaceOnUse" x1="660.179" y1="462.9142" x2="142.6374" y2="460.422">
				<stop  offset="0" style="stop-color:#3FA860"/>
				<stop  offset="0.7308" style="stop-color:#00A4E1"/>
			</linearGradient>
			<path id="XMLID_641_" fill="url(#XMLID_71_)" d="M312.6,442.5c-3.2,0-6.9-0.8-11.9,1.6c-2,1-4.1,2-6.1,3.8l0,37.6h-7.9v-47.6h5.7
				l0.9,4.9c2.1-1.8,4.2-3.1,6.6-3.9c7.1-2.4,11.9-2.3,13.2-1.5L312.6,442.5z"/>
			<linearGradient id="XMLID_72_" gradientUnits="userSpaceOnUse" x1="660.1785" y1="463.0257" x2="142.6368" y2="460.5335">
				<stop  offset="0" style="stop-color:#3FA860"/>
				<stop  offset="0.7308" style="stop-color:#00A4E1"/>
			</linearGradient>
			<path id="XMLID_643_" fill="url(#XMLID_72_)" d="M357.5,463.8c0,4.4-0.4,8-1.2,10.9c-0.8,2.9-2.1,5.2-3.7,6.9
				c-1.7,1.7-3.8,3-6.4,3.7c-2.6,0.7-5.7,1.1-9.4,1.1c-3.6,0-6.7-0.4-9.4-1.1c-2.6-0.7-4.8-1.9-6.4-3.7c-1.7-1.7-2.9-4.1-3.7-6.9
				c-0.8-2.9-1.2-6.5-1.2-10.9v-5.2c0-4.3,0.4-7.4,1.2-10.3c0.8-2.9,2.1-5.2,3.7-6.9c1.7-1.7,3.8-3,6.4-3.7c2.6-0.7,5.7-1.1,9.3-1.1
				c3.6,0,6.7,0.4,9.3,1.1c2.6,0.7,4.7,1.9,6.4,3.7c1.7,1.7,3,4.1,3.8,6.9c0.8,2.9,1.2,6,1.2,10.3V463.8z M349.9,457.8
				c0-3.2-0.2-5.9-0.6-8c-0.4-2.1-1.1-3.7-2.2-4.9c-1-1.2-2.4-2-4-2.5c-1.7-0.5-3.8-0.7-6.3-0.7c-2.5,0-4.6,0.2-6.3,0.7
				c-1.7,0.5-3,1.3-4,2.5c-1,1.2-1.7,2.8-2.1,4.9c-0.4,2.1-0.6,5.5-0.6,8.7v5.2c0,3.3,0.2,7.1,0.6,9.2c0.4,2.1,1.1,3.7,2.1,4.9
				c1,1.2,2.3,2,4,2.5c1.7,0.5,3.8,0.7,6.3,0.7c2.5,0,4.6-0.2,6.3-0.7c1.7-0.5,3-1.3,4-2.5c1-1.2,1.7-2.8,2.2-4.9
				c0.4-2.1,0.6-5.9,0.6-9.2V457.8z"/>
			<linearGradient id="XMLID_73_" gradientUnits="userSpaceOnUse" x1="660.1758" y1="463.5897" x2="142.6341" y2="461.0975">
				<stop  offset="0" style="stop-color:#3FA860"/>
				<stop  offset="0.7308" style="stop-color:#00A4E1"/>
			</linearGradient>
			<path id="XMLID_646_" fill="url(#XMLID_73_)" d="M278,469.8c0,4.4,0.1,0.6-0.2,4.7c-0.2,3-1.4,5.4-3.1,7.1
				c-1.7,1.7-3.8,3-6.4,3.7c-2.6,0.7-5.7,1.1-9.4,1.1c-3.6,0-6.7-0.4-9.4-1.1c-2.6-0.7-4.3-1.7-6-3.5c-1.7-1.7-2.9-4.1-3.7-6.9
				c-0.8-2.9-1.2-6.5-1.2-10.9v-5.2c0-4.3,0.4-7.4,1.2-10.3c0.8-2.9,2.1-5.2,3.7-6.9c1.7-1.7,3.4-2.8,6-3.5c2.6-0.7,5.7-1.1,9.3-1.1
				c3.6,0,6.7,0.4,9.3,1.1c2.6,0.7,4.7,1.9,6.4,3.7c1.7,1.7,2.5,3.9,2.9,6.9c0.4,4.1,0.3,0.3,0.3,4.6l-6.6,0.1
				c-0.1-3-1.1-7.2-2.1-8.4c-1-1.2-2.4-2-4-2.5c-1.7-0.5-3.8-0.7-6.3-0.7c-2.5,0-4.6,0.2-6.3,0.7c-1.7,0.5-3,1.3-4,2.5
				c-1,1.2-1.7,2.8-2.1,4.9c-0.4,2.1-0.6,5.5-0.6,8.7v5.2c0,3.3,0.2,7.1,0.6,9.2c0.4,2.1,1.1,3.7,2.1,4.9c1,1.2,2.3,2,4,2.5
				c1.7,0.5,3.8,0.7,6.3,0.7c2.5,0,4.6-0.2,6.3-0.7c1.7-0.5,3-1.3,4-2.5c1-1.2,1.9-4.3,1.9-7.9"/>
			<linearGradient id="XMLID_74_" gradientUnits="userSpaceOnUse" x1="660.184" y1="461.8893" x2="142.6423" y2="459.3971">
				<stop  offset="0" style="stop-color:#3FA860"/>
				<stop  offset="0.7308" style="stop-color:#00A4E1"/>
			</linearGradient>
			<path id="XMLID_648_" fill="url(#XMLID_74_)" d="M470.8,441.9c2.6-1.9,5.7-3.3,8.3-4.2c1.9-0.6,4.6-1.1,7.4-1.1
				c3.3,0,5.9,0.5,7.9,1.6c2,1.1,3.3,2,4.6,3.7c2.6-1.8,4.7-2.5,7.3-3.6c2.6-1,5.9-1.8,8.9-1.8c2.9,0,6,0.8,7.9,1.4
				c1.8,0.6,3.2,1.4,4.3,2.7c1.1,1.3,2.2,3.9,2.6,5.9c0.4,2,0.3,2.7,0.3,5.3v33.5l-7.2,0.2v-33.5c0-3.5-1.2-6.1-2.5-7.4
				c-1.2-1.3-3.4-3-6.8-3c-1.8,0-5.1,0.1-7.3,1c-2.2,0.9-3.4,1.6-5.4,3.1l0.2,39.7h-6.8v-33.5c0-1.7,0-3.2-0.4-4.4
				c-0.9-2.5-1.9-3.1-2.5-3.8c-0.7-0.7-2.1-1.4-3.2-1.7c-1.1-0.3-2.2-0.6-3.9-0.6c-1.9,0-4.4,0.2-6.6,1c-2.2,0.8-4.2,1.9-6.2,3.5
				l-0.2,39.4h-7v-47.4l5.8-0.1L470.8,441.9z"/>
			<linearGradient id="XMLID_75_" gradientUnits="userSpaceOnUse" x1="660.217" y1="455.036" x2="142.6753" y2="452.5438">
				<stop  offset="0" style="stop-color:#3FA860"/>
				<stop  offset="0.7308" style="stop-color:#00A4E1"/>
			</linearGradient>
			<path id="XMLID_650_" fill="url(#XMLID_75_)" d="M540.7,423.5h7.7v7.7h-7.7V423.5z M540.9,437.8h7.3v47.7h-7.3V437.8z"/>
			<linearGradient id="XMLID_76_" gradientUnits="userSpaceOnUse" x1="660.2078" y1="456.9299" x2="142.6662" y2="454.4377">
				<stop  offset="0" style="stop-color:#3FA860"/>
				<stop  offset="0.7308" style="stop-color:#00A4E1"/>
			</linearGradient>
			<path id="XMLID_653_" fill="url(#XMLID_76_)" d="M222.3,423.9h7.7v7.7h-7.7V423.9z M222.5,438.1h7.3v47.7h-7.3V438.1z"/>
			<linearGradient id="XMLID_77_" gradientUnits="userSpaceOnUse" x1="660.1851" y1="461.6419" x2="142.6435" y2="459.1497">
				<stop  offset="0" style="stop-color:#3FA860"/>
				<stop  offset="0.7308" style="stop-color:#00A4E1"/>
			</linearGradient>
			<path id="XMLID_656_" fill="url(#XMLID_77_)" d="M564.1,437.9l0.9,4.6c2.6-1.8,5.2-3.2,7.8-4.2c2.6-0.9,5.6-1.4,9-1.4
				c2.9,0,5.4,0.3,7.6,0.9c2.1,0.6,3.8,1.5,5.2,2.8c1.3,1.3,2.3,3.2,3,5.3c0.6,2.1,1,4.8,1,8v31.6h-8v-31.6c0-2.1-0.2-5.5-0.7-6.9
				c-0.4-1.4-1.1-2.4-1.9-3.2c-0.9-0.8-2-1.3-3.3-1.7c-1.4-0.3-3-0.5-4.8-0.5c-2.5,0-4.9,0.4-7.3,1.2c-2.4,0.8-4.6,1.7-6.7,3.2v39.4
				h-7.5v-47.5H564.1z"/>
			<linearGradient id="XMLID_78_" gradientUnits="userSpaceOnUse" x1="660.1458" y1="469.821" x2="142.6041" y2="467.3289">
				<stop  offset="0" style="stop-color:#3FA860"/>
				<stop  offset="0.7308" style="stop-color:#00A4E1"/>
			</linearGradient>
			<path id="XMLID_658_" fill="url(#XMLID_78_)" d="M638.9,480.6c-2.2,1.5-3.9,2.7-6.4,3.7c-2.5,1-5,1.5-7.5,1.5
				c-2.8,0-5.4-0.3-7.6-0.9c-2.3-0.6-4.2-1.7-5.7-3.3c-1.6-1.6-2.8-3.8-3.6-6.6c-0.8-2.8-1.3-6.5-1.3-10.9v-5.8
				c0-4.4,0.4-8.1,1.3-10.9c0.8-2.8,2-5,3.6-6.6c1.6-1.6,3.5-2.7,5.7-3.3c2.3-0.6,4.8-0.9,7.6-0.9c2.7,0,5.4,0.5,8,1.6
				c2.6,1.1,5.1,2.4,7.3,4.1l0.2-4.7l6.3,0v48.3c0,5.4-2.1,10.4-4.9,13.1c-2.9,2.7-6.8,3.5-13.7,3.5c-2.4,0-4.9,0.5-7.6,0.2
				c-2.7-0.3-4.9-0.3-7.2-0.9l0.9-4.7c2.4,0.8,16.3,0.4,17.7,0.1c1.4-0.3,3.2-1.7,4.1-2.5c0.9-0.8,1.6-2,2.1-3.4
				c0.4-1.4,0.7-3.2,0.7-5.3V480.6z M626.3,441.7c-2.1,0-3.8,0.2-5.3,0.7c-1.4,0.5-2.7,1.3-3.6,2.5c-1,1.2-2.1,4-2.5,6
				c-0.5,2-0.7,4.5-0.7,7.5v5.4c0,3.1,0.2,5.6,0.7,7.6c0.4,2,1.2,4.7,2.1,5.9c1,1.2,2.2,2,3.6,2.5c1.4,0.5,3.2,0.7,5.3,0.7
				c2.2,0,5-0.2,7.5-1.2c2.5-1,4.3-1.6,6.1-3.3v-29.1c-1.9-1.9-4.1-3.3-6.6-4.2C630.4,441.7,628.5,441.7,626.3,441.7z"/>
			<linearGradient id="XMLID_79_" gradientUnits="userSpaceOnUse" x1="660.1401" y1="470.9855" x2="142.5985" y2="468.4933">
				<stop  offset="0" style="stop-color:#3FA860"/>
				<stop  offset="0.7308" style="stop-color:#00A4E1"/>
			</linearGradient>
			<path id="XMLID_662_" fill="url(#XMLID_79_)" d="M397.1,480.6c-2.2,1.5-3.9,2.7-6.4,3.7c-2.5,1-5,1.5-7.5,1.5
				c-2.8,0-5.4-0.3-7.6-0.9c-2.3-0.6-4.2-1.7-5.7-3.3c-1.6-1.6-2.8-3.8-3.6-6.6c-0.8-2.8-1.3-6.5-1.3-10.9v-5.8
				c0-4.4,0.4-8.1,1.3-10.9c0.8-2.8,2-5,3.6-6.6c1.6-1.6,3.5-2.7,5.7-3.3c2.3-0.6,4.8-0.9,7.6-0.9c2.7,0,5.4,0.5,8,1.6
				c2.6,1.1,5.1,2.4,7.3,4.1l0.2-4.7l6.3,0v48.3c0,5.4-2.1,10.4-4.9,13.1c-2.9,2.7-6.8,3.5-13.7,3.5c-2.4,0-4.9,0.5-7.6,0.2
				c-2.7-0.3-4.9-0.3-7.2-0.9l0.9-4.7c2.4,0.8,16.3,0.4,17.7,0.1c1.4-0.3,3.2-1.7,4.1-2.5c0.9-0.8,1.6-2,2.1-3.4
				c0.4-1.4,0.7-3.2,0.7-5.3V480.6z M384.5,441.7c-2.1,0-3.8,0.2-5.3,0.7c-1.4,0.5-2.7,1.3-3.6,2.5c-1,1.2-2.1,4-2.5,6
				c-0.5,2-0.7,4.5-0.7,7.5v5.4c0,3.1,0.2,5.6,0.7,7.6c0.4,2,1.2,4.7,2.1,5.9c1,1.2,2.2,2,3.6,2.5c1.4,0.5,3.2,0.7,5.3,0.7
				c2.2,0,5-0.2,7.5-1.2c2.5-1,4.3-1.6,6.1-3.3v-29.1c-1.9-1.9-4.1-3.3-6.6-4.2C388.5,441.7,386.6,441.7,384.5,441.7z"/>
			<linearGradient id="XMLID_80_" gradientUnits="userSpaceOnUse" x1="660.1805" y1="462.5939" x2="142.6389" y2="460.1017">
				<stop  offset="0" style="stop-color:#3FA860"/>
				<stop  offset="0.7308" style="stop-color:#00A4E1"/>
			</linearGradient>
			<path id="XMLID_666_" fill="url(#XMLID_80_)" d="M448.3,437.8l-1.1,3.9c0,0-5.6-3.5-8.2-4.3c-4.3-1.3-8.7-1-11-0.6
				c-2.1,0.4-5.9,1.9-7.6,3.2c-1.4,1.1-3.4,4.1-4.1,5.7c-0.8,1.8-1.4,5.9-1.6,7.9c-0.3,4.6-0.9,13.9,0,18.4c0.5,2.7,2,7.8,3.8,9.9
				c1.4,1.7,5.5,3.9,7.6,4.5c2.8,0.8,8.7,0.7,11.5,0c2.6-0.6,9.5-4.7,9.5-4.7l1,4.2h5.8v-47.8H448.3z M446.8,476.7
				c0,0-6.2,3.6-8.6,4.2c-1.9,0.5-6.1,0.6-8,0c-1.6-0.5-4-1.2-5.9-3.6c-1.4-1.7-1.4-4.2-1.7-5.7c-1-4.9-0.9-15.1,0-20.1
				c0.3-1.4,0-2.6,1.3-5.2c1.2-2.2,3-3.3,4.4-3.9c2.1-0.9,6.9-1,9.1-0.7c2.5,0.4,9.3,3.8,9.3,3.8V476.7z"/>
		</g>
	</g>
</g>
</svg>
