<?xml version="1.0" encoding="utf-8"?>
<!-- Generator: Adobe Illustrator 17.1.0, SVG Export Plug-In . SVG Version: 6.00 Build 0)  -->
<!DOCTYPE svg PUBLIC "-//W3C//DTD SVG 1.1//EN" "http://www.w3.org/Graphics/SVG/1.1/DTD/svg11.dtd">
<svg version="1.1" id="mobile-casino_1_" xmlns="http://www.w3.org/2000/svg" xmlns:xlink="http://www.w3.org/1999/xlink" x="0px"
	 y="0px" viewBox="0 0 240 240" enable-background="new 0 0 240 240" xml:space="preserve">
<path fill="#D4D3D3" d="M233.9,82.9c0-6.8-5.5-12.2-12.2-12.2h-12.2v26.5h12.2c6.8,0,12.2-5.5,12.2-12.2V82.9z"/>
<path fill="#D4D3D3" d="M233.9,114.1c0-6.8-5.5-12.2-12.2-12.2h-12.2v26.5h12.2c6.8,0,12.2-5.5,12.2-12.2V114.1z"/>
<path fill="#D4D3D3" d="M233.9,147.5v-2c0-6.8-5.5-12.2-12.2-12.2h-12.2v26.5h12.2C228.4,159.7,233.9,154.2,233.9,147.5z"/>
<path fill="#D4D3D3" d="M240.3,36.7V35c0-6.8-5.3-10.7-11.7-8.8l-19.1,2.2v28.2l19.3-3.7C235.1,50.8,240.3,43.5,240.3,36.7z"/>
<path fill="#D4D3D3" d="M167.3,185.2h25.6c6.7,0,12.1-5.4,12.1-12.1V17.4c0-6.7-5.4-12.1-12.1-12.1h-81.6c-6.7,0-12.1,5.4-12.1,12.1
	v40.9v51h16.4V28.6c0-1.8,1.5-3.3,3.3-3.3h66.4c1.9,0,3.3,1.5,3.3,3.3v119.8c0,1.9-1.5,3.3-3.3,3.3h-59.4v20.8
	c-0.4,1.5-0.9,2.7-0.9,2.7h21.3c-1.2-1.4-2-3.1-2-5.1c0-4.2,3.4-7.6,7.6-7.6c4.2,0,7.6,3.4,7.6,7.6c0,2-0.8,3.8-2,5.1h11.9l-1.1,5.8
	C168.2,181.3,167.9,182.8,167.3,185.2z"/>
<path fill="#D4D3D3" d="M116.1,230.3c7.1-3.6,17.1-7.8,25.8-14.1c13.3-9.5,18-34,18-34h-35.3c-7.4,16.8-22.5,31.1-23.3,31.8
	c-0.9,0.9-2.1,1.3-3.3,1.3c-1.3,0-2.6-0.5-3.6-1.6c-1.8-2-1.7-5,0.3-6.9c0.2-0.2,17.9-16.8,22.9-33.6v-26.8h41.1
	c9,0,16.3-6.8,16.3-15.2c0-8.4-7.3-15.2-16.3-15.2H91.4V68.6L64.8,86.5c-7.7,4.6-16.7,15.2-20,23.6L1.9,226.3c-1.9,5,1,9.1,6.3,9.1
	h89.9C103.5,235.4,111.3,232.7,116.1,230.3z"/>
</svg>
