<?xml version="1.0" encoding="utf-8"?>
<!-- Generator: Adobe Illustrator 17.1.0, SVG Export Plug-In . SVG Version: 6.00 Build 0)  -->
<!DOCTYPE svg PUBLIC "-//W3C//DTD SVG 1.1//EN" "http://www.w3.org/Graphics/SVG/1.1/DTD/svg11.dtd">
<svg version="1.1" id="Layer_1" xmlns="http://www.w3.org/2000/svg" xmlns:xlink="http://www.w3.org/1999/xlink" x="0px" y="0px"
	 viewBox="0 21 240 198" enable-background="new 0 21 240 198" xml:space="preserve">
<path id="devs_1_" fill="none" stroke="#1E2123" stroke-width="1.5" stroke-miterlimit="10" d="M76.3,205H14c-0.4,0-0.6-0.5-0.3-0.7
	L204.6,35.5c0.3-0.3,0.6-0.4,1-0.4h20.5c0.3,0,0.5,0.4,0.3,0.6L77.5,204.4C77.2,204.8,76.8,205,76.3,205z M226.1,35.2
	c0.1,0,0.2,0.1,0.2,0.1c0,0,0,0.1,0,0.2L77.4,204.3c-0.3,0.3-0.6,0.5-1,0.5H14c-0.1,0-0.2-0.1-0.2-0.1s0-0.1,0-0.2L204.7,35.6
	c0.2-0.2,0.5-0.3,0.8-0.3L226.1,35.2 M226.1,35h-20.5c-0.3,0-0.7,0.1-1,0.4L13.7,204.2c-0.3,0.3-0.1,0.7,0.3,0.7h62.4
	c0.5,0,0.9-0.2,1.2-0.6L226.3,35.6C226.6,35.5,226.4,35,226.1,35L226.1,35z M121.2,35H41.8c-0.3,0-0.5,0.3-0.3,0.6L90,126.4
	c0.3,0.5,0.9,0.6,1.3,0.2l52.3-45.9c0.4-0.3,0.5-0.9,0.3-1.3l-21.8-43.9C121.9,35.2,121.6,35,121.2,35z M121.2,35.2
	c0.3,0,0.6,0.2,0.7,0.4l21.8,43.9c0.2,0.3,0.1,0.8-0.2,1l-52.4,45.9c-0.1,0.1-0.3,0.1-0.4,0.1c-0.2,0-0.4-0.1-0.5-0.3L41.7,35.5
	c0-0.1,0-0.1,0-0.2s0-0.1,0.2-0.1L121.2,35.2 M121.2,35H41.8c-0.3,0-0.5,0.3-0.3,0.6L90,126.4c0.1,0.3,0.4,0.4,0.7,0.4
	c0.2,0,0.4-0.1,0.5-0.2l52.3-45.9c0.4-0.3,0.5-0.9,0.3-1.3l-21.8-43.9C121.9,35.2,121.6,35,121.2,35L121.2,35z M212.2,202.3
	l-46.2-88.2c-0.3-0.5-1-0.6-1.3-0.2L115,170.2c-0.2,0.3-0.3,0.6-0.1,0.9l17,31.9c0.2,0.3,0.5,0.5,0.8,0.5h78.8
	C212.1,203.5,212.5,202.9,212.2,202.3z M165.3,113.9c0.2,0,0.4,0.1,0.5,0.3l46.2,88.2c0.1,0.2,0.1,0.4,0,0.6
	c-0.1,0.2-0.3,0.3-0.5,0.3h-78.8c-0.3,0-0.5-0.1-0.6-0.3l-17-31.9c-0.1-0.2-0.1-0.5,0.1-0.7l49.8-56.3
	C165,113.9,165.2,113.9,165.3,113.9 M165.3,113.6c-0.2,0-0.4,0.1-0.6,0.3L115,170.2c-0.2,0.3-0.3,0.6-0.1,0.9l17,31.9
	c0.2,0.3,0.5,0.5,0.8,0.5h78.8c0.6,0,1-0.6,0.7-1.2l-46.2-88.2C165.9,113.8,165.6,113.6,165.3,113.6L165.3,113.6z"/>
<g id="devs">
	<g id="nextgen-gaming">
		<g>
			
				<linearGradient id="XMLID_9_" gradientUnits="userSpaceOnUse" x1="165.1069" y1="-358.4644" x2="722.5496" y2="185.4649" gradientTransform="matrix(0.3 0 0 -0.3 -7.629395e-006 93)">
				<stop  offset="0" style="stop-color:#3E252A"/>
				<stop  offset="5.331649e-002" style="stop-color:#44282C"/>
				<stop  offset="0.1403" style="stop-color:#562E2F"/>
				<stop  offset="0.2502" style="stop-color:#763331"/>
				<stop  offset="0.3772" style="stop-color:#A7332D"/>
				<stop  offset="0.481" style="stop-color:#DB2028"/>
				<stop  offset="0.9447" style="stop-color:#DB2028"/>
			</linearGradient>
			<path id="XMLID_47_" fill="url(#XMLID_9_)" d="M76.3,205H14c-0.4,0-0.6-0.5-0.3-0.7L204.6,35.5c0.3-0.3,0.6-0.4,1-0.4h20.5
				c0.3,0,0.5,0.4,0.3,0.6L77.5,204.4C77.2,204.8,76.8,205,76.3,205z"/>
			<path id="XMLID_42_" fill="#3E252A" d="M226.1,35.2c0.1,0,0.2,0.1,0.2,0.1c0,0,0,0.1,0,0.2L77.4,204.3c-0.3,0.3-0.6,0.5-1,0.5H14
				c-0.1,0-0.2-0.1-0.2-0.1s0-0.1,0-0.2L204.7,35.6c0.2-0.2,0.5-0.3,0.8-0.3L226.1,35.2 M226.1,35h-20.5c-0.3,0-0.7,0.1-1,0.4
				L13.7,204.2c-0.3,0.3-0.1,0.7,0.3,0.7h62.4c0.5,0,0.9-0.2,1.2-0.6L226.3,35.6C226.6,35.5,226.4,35,226.1,35L226.1,35z"/>
		</g>
		<g id="XMLID_310_">
			<g>
				
					<linearGradient id="XMLID_10_" gradientUnits="userSpaceOnUse" x1="404.3128" y1="201.0491" x2="131.3496" y2="-39.0035" gradientTransform="matrix(0.3 0 0 -0.3 -7.629395e-006 93)">
					<stop  offset="0" style="stop-color:#E3E9F5"/>
					<stop  offset="0.254" style="stop-color:#B3B7BF"/>
					<stop  offset="0.8104" style="stop-color:#5C6064"/>
					<stop  offset="1" style="stop-color:#434A4C"/>
				</linearGradient>
				<path id="XMLID_45_" fill="url(#XMLID_10_)" d="M121.2,35H41.8c-0.3,0-0.5,0.3-0.3,0.6L90,126.4c0.3,0.5,0.9,0.6,1.3,0.2
					l52.3-45.9c0.4-0.3,0.5-0.9,0.3-1.3l-21.8-43.9C121.9,35.2,121.6,35,121.2,35z"/>
				<path id="XMLID_40_" fill="#3E252A" d="M121.2,35.2c0.3,0,0.6,0.2,0.7,0.4l21.8,43.9c0.2,0.3,0.1,0.8-0.2,1l-52.4,45.9
					c-0.1,0.1-0.3,0.1-0.4,0.1c-0.2,0-0.4-0.1-0.5-0.3L41.7,35.5c0-0.1,0-0.1,0-0.2s0-0.1,0.2-0.1L121.2,35.2 M121.2,35H41.8
					c-0.3,0-0.5,0.3-0.3,0.6L90,126.4c0.1,0.3,0.4,0.4,0.7,0.4c0.2,0,0.4-0.1,0.5-0.2l52.3-45.9c0.4-0.3,0.5-0.9,0.3-1.3l-21.8-43.9
					C121.9,35.2,121.6,35,121.2,35L121.2,35z"/>
			</g>
			<g>
				
					<linearGradient id="XMLID_11_" gradientUnits="userSpaceOnUse" x1="711.7371" y1="-145.0197" x2="438.8334" y2="-385.0201" gradientTransform="matrix(0.3 0 0 -0.3 -7.629395e-006 93)">
					<stop  offset="0" style="stop-color:#E3E9F5"/>
					<stop  offset="0.254" style="stop-color:#B3B7BF"/>
					<stop  offset="0.8104" style="stop-color:#5C6064"/>
					<stop  offset="1" style="stop-color:#434A4C"/>
				</linearGradient>
				<path id="XMLID_44_" fill="url(#XMLID_11_)" d="M212.2,202.3l-46.2-88.2c-0.3-0.5-1-0.6-1.3-0.2L115,170.2
					c-0.2,0.3-0.3,0.6-0.1,0.9l17,31.9c0.2,0.3,0.5,0.5,0.8,0.5h78.8C212.1,203.5,212.5,202.9,212.2,202.3z"/>
				<path id="XMLID_23_" fill="#3E252A" d="M165.3,113.9c0.2,0,0.4,0.1,0.5,0.3l46.2,88.2c0.1,0.2,0.1,0.4,0,0.6
					c-0.1,0.2-0.3,0.3-0.5,0.3h-78.8c-0.3,0-0.5-0.1-0.6-0.3l-17-31.9c-0.1-0.2-0.1-0.5,0.1-0.7l49.8-56.3
					C165,113.9,165.2,113.9,165.3,113.9 M165.3,113.6c-0.2,0-0.4,0.1-0.6,0.3L115,170.2c-0.2,0.3-0.3,0.6-0.1,0.9l17,31.9
					c0.2,0.3,0.5,0.5,0.8,0.5h78.8c0.6,0,1-0.6,0.7-1.2l-46.2-88.2C165.9,113.8,165.6,113.6,165.3,113.6L165.3,113.6z"/>
			</g>
		</g>
	</g>
</g>
</svg>
