<?xml version="1.0" encoding="utf-8"?>
<!-- Generator: Adobe Illustrator 17.1.0, SVG Export Plug-In . SVG Version: 6.00 Build 0)  -->
<!DOCTYPE svg PUBLIC "-//W3C//DTD SVG 1.1//EN" "http://www.w3.org/Graphics/SVG/1.1/DTD/svg11.dtd">
<svg version="1.1" id="Layer_1" xmlns="http://www.w3.org/2000/svg" xmlns:xlink="http://www.w3.org/1999/xlink" x="0px" y="0px"
	 viewBox="0 21 240 198" enable-background="new 0 21 240 198" xml:space="preserve">
<path id="novomatic_1_" fill="none" stroke="#1E2123" stroke-width="1.5" stroke-miterlimit="10" d="M8.1,136.4h7.4v-0.6
	c-0.3,0-0.8,0-0.8-0.5v-22L35.3,135c0.3,0.8-0.5,0.6-1,0.6v0.8h7.9v-0.6c-0.4,0-0.8,0-0.9-0.8v-29.9c0-0.4,0.4-0.5,0.9-0.5v-0.6
	h-7.9v0.6c0.8,0,1,0.1,1,0.9v20.1l-18.9-20.3c-0.3-0.4-0.3-0.6,0.6-0.5v-0.6H7.9v0.6c0.5-0.1,0.9-0.1,0.9,0.4l-0.1,30.2
	c0,0.4-0.3,0.4-0.8,0.5L8.1,136.4L8.1,136.4z M227.1,133.2c1.7-1,1-0.9,2.4-1.7c0.3-0.3,1.5-1.2,2.1-0.3l0.5-0.3l-4.6-6.6l-0.5,0.3
	c0.3,1.3-0.3,2.2-1.3,2.8c-11.5,10-28.1,1.3-23.3-12c4.1-9.3,16.5-8.4,22.9-4.2c0.5,0.5,0.6,0.8,0.6,1.7l0.8,0.3l4.2-6.8l-0.4-0.3
	c-1.7,1-1.4,0.6-2.9-0.1c-5.2-2.7-11.4-3.4-17.1-2.3c-10.6,2.3-16,9.9-14.1,20.2C200.1,136.6,216.2,140.4,227.1,133.2L227.1,133.2z
	 M76.7,132.5h6v-0.5c-0.5,0-0.6-0.4-0.5-0.8l9.1-20.7c0.3-0.8,0.5-0.8,0.8-0.8v-0.4h-5.9v0.4c0.4,0,0.8,0.3,0.6,0.6l-6.6,16.1
	l-7.4-15.9c-0.1-0.3-0.3-0.9,0.5-0.9v-0.4H67v0.4c0.9,0.1,0.8,0.4,1,0.8l9.2,20.8c0.1,0.3,0,0.6-0.4,0.6v0.6
	C76.9,132.5,76.7,132.5,76.7,132.5z M166.8,131.2l-6-12.8l-3.6-7.7c-0.3-0.3-0.3-1,0.5-1v-0.4h-6.6v0.4c0.8,0,0.8,0.5,0.6,0.9
	c-1.3,2.6-2.4,5.1-3.6,7.8c-0.4,1-1,1.9-1.4,2.9l-4.6,10.1c-0.1,0.3-0.1,0.5-0.5,0.5v0.5h5.5v-0.6c-0.8,0-0.4-0.6-0.4-1l2.3-4.9
	h10.6l2.3,4.9c0.1,0.5,0.3,1-0.6,1v0.5h6.1v-0.5C167.1,131.9,167.1,131.7,166.8,131.2L166.8,131.2z M157.5,122.1H151
	c-0.1,0-0.1-0.1-0.1-0.3l1.7-3.6l1.7-3.8l1.8,3.8l1.7,3.6C157.7,122.1,157.5,122.1,157.5,122.1L157.5,122.1z M142.2,131.9
	c-0.4,0-0.8-0.1-0.8-0.6v-21c0-0.3,0.4-0.4,0.6-0.5v-0.4h-6.8v0.4c0.4,0,0.8,0.4,0.6,0.6l-7,13l-6.8-12.8c0,0-0.4-0.9,0.6-0.9v-0.4
	H116v0.4c0.9,0,0.8,0.8,0.8,0.9v20.9c0,0.3-0.3,0.5-0.8,0.5v0.5h5.1v-0.5c-0.4,0-0.8-0.1-0.8-0.5v-14.4l8.1,15.5l8.4-15.9v14.6
	c0,0.6-0.6,0.6-0.6,0.6v0.5h5.6L142.2,131.9L142.2,131.9z M177,132.5v-0.5c-0.3-0.1-0.8,0-0.9-0.5l0.1-17.8h7.9
	c0.6,0,0.8,0.3,0.8,0.6h0.5v-5h-0.6c0,0.4-0.1,0.4-1,0.5H164c-0.4-0.1-0.6-0.1-0.8-0.4l-0.3-0.1v5h0.4c0-0.4,0-0.6,0.6-0.6h7.4v17.8
	c0,0.4-0.4,0.5-0.8,0.5v0.5L177,132.5L177,132.5z M193.5,132.5v-0.5c-0.4,0-0.9-0.3-0.9-0.8v-20.7c0-0.5,0.3-0.8,0.8-0.8v-0.4h-6
	v0.4c0.9,0,0.8,0.3,0.8,0.8l0.1,20.8c-0.1,0.4-0.4,0.6-0.9,0.6v0.5L193.5,132.5L193.5,132.5z M69.7,120.7c-0.4-6.3-5.6-11.4-13-11.4
	c-7.5,0-13.2,4.9-13.3,11.4c0,0.1,0,0.3,0,0.3c0,6.6,5.4,11.4,12.9,11.4c7.8,0,13.5-4.3,13.5-11C69.8,121.2,69.8,121,69.7,120.7
	L69.7,120.7z M65.8,121.2c0,4.6-4.1,7.7-9.3,7.7c-5.5,0-9.2-3.4-9.2-8.1l0,0c0.1-4.6,4.1-8.1,9.3-8.1s9,3.6,9.2,8.1
	C65.8,120.8,65.8,121,65.8,121.2L65.8,121.2z M115.9,120.7c-0.4-6.3-5.6-11.4-13-11.4c-7.7,0-13.2,4.9-13.3,11.4c0,0.1,0,0.3,0,0.3
	c0,6.6,5.2,11.4,12.9,11.4s13.4-4.3,13.4-11C115.9,121.2,115.9,121,115.9,120.7L115.9,120.7z M112,121.2c0,4.6-4.1,7.7-9.4,7.7
	s-9.1-3.4-9.1-8.1l0,0c0-4.6,4-8.1,9.3-8.1c5.2,0,9,3.6,9.2,8.1C112,120.8,112,121,112,121.2L112,121.2z"/>
<path id="novomatic" fill="#B0C7F7" d="M8.1,136.4h7.4v-0.6c-0.3,0-0.8,0-0.8-0.5v-22L35.3,135c0.3,0.8-0.5,0.6-1,0.6v0.8h7.9v-0.6
	c-0.4,0-0.8,0-0.9-0.8v-29.9c0-0.4,0.4-0.5,0.9-0.5v-0.6h-7.9v0.6c0.8,0,1,0.1,1,0.9v20.1l-18.9-20.3c-0.3-0.4-0.3-0.6,0.6-0.5v-0.6
	H7.9v0.6c0.5-0.1,0.9-0.1,0.9,0.4l-0.1,30.2c0,0.4-0.3,0.4-0.8,0.5L8.1,136.4L8.1,136.4z M227.1,133.2c1.7-1,1-0.9,2.4-1.7
	c0.3-0.3,1.5-1.2,2.1-0.3l0.5-0.3l-4.6-6.6l-0.5,0.3c0.3,1.3-0.3,2.2-1.3,2.8c-11.5,10-28.1,1.3-23.3-12c4.1-9.3,16.5-8.4,22.9-4.2
	c0.5,0.5,0.6,0.8,0.6,1.7l0.8,0.3l4.2-6.8l-0.4-0.3c-1.7,1-1.4,0.6-2.9-0.1c-5.2-2.7-11.4-3.4-17.1-2.3c-10.6,2.3-16,9.9-14.1,20.2
	C200.1,136.6,216.2,140.4,227.1,133.2L227.1,133.2z M76.7,132.5h6v-0.5c-0.5,0-0.6-0.4-0.5-0.8l9.1-20.7c0.3-0.8,0.5-0.8,0.8-0.8
	v-0.4h-5.9v0.4c0.4,0,0.8,0.3,0.6,0.6l-6.6,16.1l-7.4-15.9c-0.1-0.3-0.3-0.9,0.5-0.9v-0.4H67v0.4c0.9,0.1,0.8,0.4,1,0.8l9.2,20.8
	c0.1,0.3,0,0.6-0.4,0.6v0.6C76.9,132.5,76.7,132.5,76.7,132.5z M166.8,131.2l-6-12.8l-3.6-7.7c-0.3-0.3-0.3-1,0.5-1v-0.4h-6.6v0.4
	c0.8,0,0.8,0.5,0.6,0.9c-1.3,2.6-2.4,5.1-3.6,7.8c-0.4,1-1,1.9-1.4,2.9l-4.6,10.1c-0.1,0.3-0.1,0.5-0.5,0.5v0.5h5.5v-0.6
	c-0.8,0-0.4-0.6-0.4-1l2.3-4.9h10.6l2.3,4.9c0.1,0.5,0.3,1-0.6,1v0.5h6.1v-0.5C167.1,131.9,167.1,131.7,166.8,131.2L166.8,131.2z
	 M157.5,122.1H151c-0.1,0-0.1-0.1-0.1-0.3l1.7-3.6l1.7-3.8l1.8,3.8l1.7,3.6C157.7,122.1,157.5,122.1,157.5,122.1L157.5,122.1z
	 M142.2,131.9c-0.4,0-0.8-0.1-0.8-0.6v-21c0-0.3,0.4-0.4,0.6-0.5v-0.4h-6.8v0.4c0.4,0,0.8,0.4,0.6,0.6l-7,13l-6.8-12.8
	c0,0-0.4-0.9,0.6-0.9v-0.4H116v0.4c0.9,0,0.8,0.8,0.8,0.9v20.9c0,0.3-0.3,0.5-0.8,0.5v0.5h5.1v-0.5c-0.4,0-0.8-0.1-0.8-0.5v-14.4
	l8.1,15.5l8.4-15.9v14.6c0,0.6-0.6,0.6-0.6,0.6v0.5h5.6L142.2,131.9L142.2,131.9z M177,132.5v-0.5c-0.3-0.1-0.8,0-0.9-0.5l0.1-17.8
	h7.9c0.6,0,0.8,0.3,0.8,0.6h0.5v-5h-0.6c0,0.4-0.1,0.4-1,0.5H164c-0.4-0.1-0.6-0.1-0.8-0.4l-0.3-0.1v5h0.4c0-0.4,0-0.6,0.6-0.6h7.4
	v17.8c0,0.4-0.4,0.5-0.8,0.5v0.5L177,132.5L177,132.5z M193.5,132.5v-0.5c-0.4,0-0.9-0.3-0.9-0.8v-20.7c0-0.5,0.3-0.8,0.8-0.8v-0.4
	h-6v0.4c0.9,0,0.8,0.3,0.8,0.8l0.1,20.8c-0.1,0.4-0.4,0.6-0.9,0.6v0.5L193.5,132.5L193.5,132.5z M69.7,120.7
	c-0.4-6.3-5.6-11.4-13-11.4c-7.5,0-13.2,4.9-13.3,11.4c0,0.1,0,0.3,0,0.3c0,6.6,5.4,11.4,12.9,11.4c7.8,0,13.5-4.3,13.5-11
	C69.8,121.2,69.8,121,69.7,120.7L69.7,120.7z M65.8,121.2c0,4.6-4.1,7.7-9.3,7.7c-5.5,0-9.2-3.4-9.2-8.1l0,0
	c0.1-4.6,4.1-8.1,9.3-8.1s9,3.6,9.2,8.1C65.8,120.8,65.8,121,65.8,121.2L65.8,121.2z M115.9,120.7c-0.4-6.3-5.6-11.4-13-11.4
	c-7.7,0-13.2,4.9-13.3,11.4c0,0.1,0,0.3,0,0.3c0,6.6,5.2,11.4,12.9,11.4s13.4-4.3,13.4-11C115.9,121.2,115.9,121,115.9,120.7
	L115.9,120.7z M112,121.2c0,4.6-4.1,7.7-9.4,7.7s-9.1-3.4-9.1-8.1l0,0c0-4.6,4-8.1,9.3-8.1c5.2,0,9,3.6,9.2,8.1
	C112,120.8,112,121,112,121.2L112,121.2z"/>
</svg>
