<?xml version="1.0" encoding="utf-8"?>
<!-- Generator: Adobe Illustrator 17.1.0, SVG Export Plug-In . SVG Version: 6.00 Build 0)  -->
<!DOCTYPE svg PUBLIC "-//W3C//DTD SVG 1.1//EN" "http://www.w3.org/Graphics/SVG/1.1/DTD/svg11.dtd">
<svg version="1.1" id="online-casino-instant_1_" xmlns="http://www.w3.org/2000/svg" xmlns:xlink="http://www.w3.org/1999/xlink"
	 x="0px" y="0px" viewBox="0 0 240 240" enable-background="new 0 0 240 240" xml:space="preserve">
<rect x="91.7" y="177.7" fill="#D4D3D3" width="56.7" height="9.9"/>
<path fill="#D4D3D3" d="M68.2,140c0.3,0,0.5,0,0.8,0h0.1c0.1,0,0.2,0,0.4,0l0,0h0.1c0,0,0,0,0.1,0s0.2,0,0.3,0h0.1h0.1
	c0.1,0,0.2,0,0.3-0.1c0.1,0,0.1,0,0.2,0h0.1c0,0,0,0,0.1,0l0,0c0.1,0,0.2,0,0.3-0.1h-0.1c0,0,0,0,0.1,0c-0.6,1.4-1.3,2.5-2.1,3.9
	l-0.1,0.1c-0.7,1.2-0.7,2.7,0,3.9s2,2,3.4,2h10.1c1.4,0,2.7-0.7,3.4-2c0.7-1.2,0.7-2.7,0-3.9v-0.1c-0.8-1.3-1.5-2.5-2.1-3.9l0,0l0,0
	l0,0c0.1,0,0.2,0,0.3,0.1l0,0h0.1l0,0c0.1,0,0.1,0,0.2,0s0.2,0,0.3,0.1h0.1h0.1c0.1,0,0.2,0,0.4,0.1h0.1l0,0c0.1,0,0.2,0,0.4,0
	c0,0,0,0,0.1,0c0.3,0,0.5,0,0.8,0c3.1,0,6.1-1.1,8.5-3.1c1.3,1.7,2.6,3.5,4,5.4c1.2,1.6,2.5,3.3,3.9,5.2c0.7,1,1.9,1.6,3.2,1.6
	c1.2,0,2.4-0.6,3.2-1.6c0,0,0-0.1,0.1-0.1c0.7,0.6,1.6,0.9,2.6,0.9h1c1.4,0,2.6-0.7,3.4-1.8c0.2,0.8,0.7,1.6,1.3,2.1
	c0.1,1.4,0.9,2.5,2,3.2c0.7,1.2,2,2,3.5,2h2.4c1.5,0,2.8-0.8,3.5-2c1.1-0.7,1.8-1.8,1.9-3c0.4,0.1,0.8,0.2,1.3,0.2h10
	c1.4,0,2.7-0.8,3.4-2s0.7-2.7,0-3.9v-0.1c-1.1-1.8-2-3.3-2.7-5.6c0.1,0,0.1,0,0.2,0.1c1.1,0.3,2.2,0.4,3.3,0.4c0.5,0,0.9,0,1.4-0.1
	c0.2,0.5,0.4,0.9,0.8,1.3l7.9,8.6c0.7,0.8,1.8,1.3,2.9,1.3h0.1c1.1,0,2.1-0.5,2.9-1.3l21.8-23.6c1.4-1.5,1.4-3.8,0-5.3l-21.8-23.6
	c-0.7-0.8-1.8-1.3-2.9-1.3h-0.1c-1.1,0-2.1,0.4-2.9,1.3l-6.4,7c-2.3-5-7.2-8.2-12.8-8.2c-3.9,0-7.6,1.6-10.3,4.4
	c-2.7-2.8-6.4-4.4-10.2-4.4h-0.2c-0.1,0-0.1,0-0.2,0l0,0c-4,0.1-7.5,1.9-10.1,5.1c-2.6-3.2-6.2-5-10.1-5.1l0,0c-0.1,0-0.1,0-0.2,0
	h-0.2c-4.6,0-9,2.4-11.6,6.2c-0.1-0.1-0.2-0.2-0.3-0.4c-1-1.3-2.1-2.6-3.3-4c-0.7-0.9-1.9-1.4-3-1.4s-2.3,0.5-3,1.4
	c-1.2,1.5-2.3,2.8-3.4,4.1c-9.5,11.6-14.3,17.4-15.7,25c-0.7,3.7,0.2,7.3,2.6,10.2C60.4,138.2,64.3,140,68.2,140z M128.4,137.4
	c0,0.1-0.1,0.2-0.2,0.2H123c-0.1,0-0.2,0.1-0.2,0.2v2.4c0,0.1,0.1,0.2,0.2,0.2h1c0.1,0,0.2,0.1,0.2,0.2v2.4c0,0.1,0.1,0.2,0.2,0.2h1
	c0.1,0,0.2,0.1,0.2,0.2v2.4c0,0.1,0.1,0.2,0.2,0.2h1c0.1,0,0.2,0.1,0.2,0.2v2.4c0,0.1-0.1,0.2-0.2,0.2h-1c-0.1,0-0.2,0.1-0.2,0.2v1
	c0,0.1-0.1,0.2-0.2,0.2H123c-0.1,0-0.2-0.1-0.2-0.2v-1c0-0.1-0.1-0.2-0.2-0.2h-1c-0.1,0-0.2-0.1-0.2-0.2v-2.4c0-0.1-0.1-0.2-0.2-0.2
	h-1c-0.1,0-0.2-0.1-0.2-0.2v-2.4c0-0.1-0.1-0.2-0.2-0.2h-1c-0.1,0-0.2-0.1-0.2-0.2v-2.4c0-0.1-0.1-0.2-0.2-0.2H116
	c-0.1,0-0.2,0.1-0.2,0.2v1c0,0.1-0.1,0.2-0.2,0.2h-1c-0.1,0-0.2,0.1-0.2,0.2v1c0,0.1-0.1,0.2-0.2,0.2h-1c-0.1,0-0.2,0.1-0.2,0.2v1
	c0,0.1-0.1,0.2-0.2,0.2h-1c-0.1,0-0.2-0.1-0.2-0.2v-23.2c0-0.1,0.1-0.2,0.2-0.2h1c0.1,0,0.2,0.1,0.2,0.2v1c0,0.1,0.1,0.2,0.2,0.2h1
	c0.1,0,0.2,0.1,0.2,0.2v1c0,0.1,0.1,0.2,0.2,0.2h1c0.1,0,0.2,0.1,0.2,0.2v1c0,0.1,0.1,0.2,0.2,0.2h1c0.1,0,0.2,0.1,0.2,0.2v1
	c0,0.1,0.1,0.2,0.2,0.2h1c0.1,0,0.2,0.1,0.2,0.2v1c0,0.1,0.1,0.2,0.2,0.2h1c0.1,0,0.2,0.1,0.2,0.2v1c0,0.1,0.1,0.2,0.2,0.2h1
	c0.1,0,0.2,0.1,0.2,0.2v1c0,0.1,0.1,0.2,0.2,0.2h1c0.1,0,0.2,0.1,0.2,0.2v1c0,0.1,0.1,0.2,0.2,0.2h1c0.1,0,0.2,0.1,0.2,0.2v1
	c0,0.1,0.1,0.2,0.2,0.2h1c0.1,0,0.2,0.1,0.2,0.2v1c0,0.1,0.1,0.2,0.2,0.2h1c0.1,0,0.2,0.1,0.2,0.2v1c0,0.1,0.1,0.2,0.2,0.2h1
	c0.1,0,0.2,0.1,0.2,0.2L128.4,137.4L128.4,137.4z M150.7,107.2l8.5-9.2h0.1l0,0l21.8,23.6l-21.8,23.6v-0.1l-0.1,0.1l-7.9-8.6
	c5.1-2,8.7-7,8.7-12.7c0-6.1-4-11.3-9.5-13c0.2-0.9,0.3-1.8,0.3-2.8C150.8,107.8,150.7,107.5,150.7,107.2z M137.1,98
	c4.8,0,8.9,3.4,10,7.9c0.2,0.8,0.3,1.6,0.3,2.4c0,1.1-0.2,2.2-0.5,3.2c-0.3,0.8-0.6,1.5-1,2.2c0.1,0,0.2,0,0.4,0
	c5.7,0,10.3,4.6,10.3,10.3c0,4.8-3.3,8.9-7.8,10c-0.8,0.2-1.6,0.3-2.5,0.3c-0.8,0-1.6-0.1-2.4-0.3c-2.4-0.6-4.4-1.9-5.8-3.8
	c0.1,2.4,0.2,6,0.7,7.8c0.9,3.3,2.1,5.3,3.4,7.5h-10c1.3-2.1,2.5-4.1,3.4-7.5c0.5-1.8,0.7-5.3,0.7-7.8c-1.6,2.1-3.9,3.6-6.6,4
	c-0.1,0-0.1-0.1-0.2-0.1c-0.3-0.6-0.8-1.1-1.4-1.4c-0.3-0.6-0.8-1.1-1.4-1.4c-0.3-0.6-0.8-1.2-1.4-1.4c-0.3-0.6-0.8-1.1-1.4-1.4
	c-0.2-0.4-0.4-0.7-0.7-0.9c3.9-5.9,6.1-10.6,7-15.9c0.6-3.3,0.1-6.5-1.4-9.3C130.6,99.7,133.6,98,137.1,98z M95.7,98L95.7,98
	c0.1,0,0.2,0,0.2,0c4.1,0.1,8.2,2.8,10.2,9.5c2.1-6.7,6.2-9.4,10.2-9.5h0.1h0.1c3.1,0,6.2,1.6,8.2,4.2c1.1,1.3,1.8,3,2.1,4.8
	c0.2,1.1,0.2,2.2,0.1,3.4c0,0.2-0.1,0.5-0.1,0.7c-0.2,0.9-0.4,1.8-0.6,2.7c-1,3.6-2.8,7.1-5.5,11.4c-0.3-0.4-0.7-0.7-1.1-0.9
	c-0.3-0.6-0.8-1.1-1.4-1.4c-0.3-0.6-0.8-1.1-1.4-1.4c-0.3-0.6-0.8-1.1-1.4-1.4c-0.4-1-1.4-1.6-2.5-1.6h-1c-1.5,0-2.7,1.2-2.7,2.7
	V141c-1,1.4-2.1,2.8-3.3,4.4l0,0l0,0c-3.4-4.6-6.3-8.4-8.8-11.8c1.5-2.5,2.1-5.4,1.5-8.3c-1.2-6.6-5.1-11.9-12.6-21.1
	C88,100.3,91.8,98,95.7,98z M59.1,125.7c1.4-7.4,6.7-13.2,18.2-27.4c1.9,2.3,3.6,4.3,5.1,6.2c1,1.2,1.9,2.3,2.7,3.3
	c6.3,7.8,9.4,12.4,10.4,17.8c0.3,1.8,0.1,3.4-0.5,4.8c-0.4,1.1-1.1,2.1-2,2.9c-1.9,1.8-4.5,2.9-7.2,2.7l0,0c-0.1,0-0.2,0-0.3,0h-0.1
	c-0.1,0-0.2,0-0.2,0h-0.1c-0.1,0-0.2,0-0.2,0c-0.1,0-0.1,0-0.2,0s-0.2,0-0.2-0.1c-0.1,0-0.2,0-0.2-0.1h-0.1c-0.1,0-0.2-0.1-0.2-0.1
	h-0.1c-0.1,0-0.2-0.1-0.3-0.1c0,0,0,0-0.1,0c-2-0.7-3.9-2.3-5.2-4.8c0.1,2.4,0.2,5.7,0.7,7.4c0.9,3.4,2.1,5.4,3.4,7.5H72.3
	c1.3-2.1,2.5-4.2,3.4-7.5c0.5-1.7,0.6-4.9,0.7-7.4c-1.3,2.5-3.2,4.1-5.2,4.8c0,0,0,0-0.1,0s-0.2,0.1-0.3,0.1h-0.1
	c-0.1,0-0.2,0-0.3,0.1h-0.1c-0.1,0-0.2,0-0.2,0.1c-0.1,0-0.2,0-0.2,0.1c-0.1,0-0.1,0-0.2,0s-0.2,0-0.2,0h-0.1c-0.1,0-0.2,0-0.2,0
	h-0.1c-0.1,0-0.2,0-0.3,0l0,0C63.4,136.5,58,131.8,59.1,125.7z"/>
<path fill="#D4D3D3" d="M223.3,158.1V60.4c0-17.5-14.3-31.7-31.8-31.7h-143C31,28.7,16.8,43,16.8,60.5v97.7
	C6.7,162.1,0,171.8,0,182.6C0,197.1,12,209,26.8,209h186.4c14.8,0,26.8-11.9,26.8-26.4C240.1,171.8,233.4,162.1,223.3,158.1z
	 M29.6,60.5c0-10.4,8.5-18.9,18.9-18.9h143c10.4,0,18.9,8.5,18.9,18.9V164h-9.9V60.5c0-4.9-4.1-9-9-9h-143c-4.9,0-9,4.1-9,9V164
	h-9.9V60.5z M44.5,76.8V60.5c0-2.2,1.8-4,4-4h143c2.2,0,4,1.8,4,4v16.3H44.5L44.5,76.8z M195.1,81.4V164H45V81.4H195.1z
	 M213.2,196.1H26.8c-7.7,0-14-6.1-14-13.6s6.3-13.5,14-13.5h186.4c7.7,0,14,6.1,14,13.5S220.9,196.1,213.2,196.1z"/>
<circle fill="#D4D3D3" cx="66.1" cy="66.5" r="3.8"/>
<circle fill="#D4D3D3" cx="74.9" cy="66.5" r="3.8"/>
<circle fill="#D4D3D3" cx="57.3" cy="66.5" r="3.8"/>
</svg>
