<?xml version="1.0" encoding="utf-8"?>
<!-- Generator: Adobe Illustrator 17.1.0, SVG Export Plug-In . SVG Version: 6.00 Build 0)  -->
<!DOCTYPE svg PUBLIC "-//W3C//DTD SVG 1.1//EN" "http://www.w3.org/Graphics/SVG/1.1/DTD/svg11.dtd">
<svg version="1.1" xmlns="http://www.w3.org/2000/svg" xmlns:xlink="http://www.w3.org/1999/xlink" x="0px" y="0px"
	 viewBox="0 0 800 660" enable-background="new 0 0 800 660" xml:space="preserve">
<g id="Layer_2">
	
		<radialGradient id="SVGID_1_" cx="399.9813" cy="329.9318" r="395.506" gradientTransform="matrix(0.9639 0 0 0.88 14.4759 39.66)" gradientUnits="userSpaceOnUse">
		<stop  offset="0.5" style="stop-color:#262626"/>
		<stop  offset="1" style="stop-color:#1A1A1A"/>
	</radialGradient>
	<rect fill="url(#SVGID_1_)" width="800" height="660"/>
</g>
<g id="Layer_1">
	<path fill="#FFFFFF" d="M563.6,212.2H236.4c-3.6,0-6.5,2.9-6.5,6.5v196.4c0,3.6,2.9,6.5,6.5,6.5h327.3c3.6,0,6.5-2.9,6.5-6.5V218.7
		C570.2,215.1,567.2,212.2,563.6,212.2z M557.1,408.5H242.9V225.3h314.2V408.5z M602.9,434.7h-6.5V216.1c0-16.6-13.5-30.1-30.2-30.1
		H233.8c-16.6,0-30.2,13.5-30.2,30.1v218.6h-6.5c-3.6,0-6.5,2.9-6.5,6.5v13c0,10.9,8.8,19.7,19.7,19.7h379.4
		c10.9,0,19.7-8.8,19.7-19.7v-13C609.5,437.7,606.5,434.7,602.9,434.7z M216.7,216.1c0-9.4,7.7-17,17.1-17h332.4
		c9.4,0,17.1,7.6,17.1,17v218.6H216.7V216.1z M596.4,454.3c0,3.7-3,6.6-6.6,6.6H210.3c-3.7,0-6.6-3-6.6-6.6v-6.5h170.2l0,0
		c0,3.6,2.9,6.5,6.5,6.5h39.3c3.6,0,6.5-2.9,6.5-6.5l0,0h170.2V454.3z M373.8,375.8h52.4c7.2,0,13.1-5.9,13.1-13.1v-91.6
		c0-7.2-5.9-13.1-13.1-13.1h-52.4c-7.2,0-13.1,5.9-13.1,13.1v91.6C360.7,369.9,366.6,375.8,373.8,375.8z M373.8,271.1l52.4,0v91.6
		h-52.4V271.1z M400,330c-7.2,0-13.1-5.9-13.1-13.1c0-7.2,5.9-13.1,13.1-13.1s13.1,5.9,13.1,13.1C413.1,324.1,407.2,330,400,330z
		 M382.3,288.8c-1.2-1.2-1.9-2.9-1.9-4.6c0-1.7,0.7-3.4,1.9-4.6c1.2-1.2,2.9-1.9,4.6-1.9c1.7,0,3.4,0.7,4.6,1.9s1.9,2.9,1.9,4.6
		c0,1.7-0.7,3.4-1.9,4.6c-1.2,1.2-2.9,1.9-4.6,1.9C385.2,290.7,383.5,290,382.3,288.8z M417.7,279.6c1.2,1.2,1.9,2.9,1.9,4.6
		c0,1.7-0.7,3.4-1.9,4.6s-2.9,1.9-4.6,1.9c-1.7,0-3.4-0.7-4.6-1.9s-1.9-2.9-1.9-4.6c0-1.7,0.7-3.4,1.9-4.6s2.9-1.9,4.6-1.9
		C414.8,277.6,416.5,278.3,417.7,279.6z M417.7,345c1.2,1.2,1.9,2.9,1.9,4.6c0,1.7-0.7,3.4-1.9,4.6c-1.2,1.2-2.9,1.9-4.6,1.9
		c-1.7,0-3.4-0.7-4.6-1.9c-1.2-1.2-1.9-2.9-1.9-4.6c0-1.7,0.7-3.4,1.9-4.6s2.9-1.9,4.6-1.9C414.8,343.1,416.5,343.8,417.7,345z
		 M391.5,345c1.2,1.2,1.9,2.9,1.9,4.6c0,1.7-0.7,3.4-1.9,4.6c-1.2,1.2-2.9,1.9-4.6,1.9c-1.7,0-3.4-0.7-4.6-1.9
		c-1.2-1.2-1.9-2.9-1.9-4.6c0-1.7,0.7-3.4,1.9-4.6s2.9-1.9,4.6-1.9C388.6,343.1,390.3,343.8,391.5,345z M282.2,375.8h52.4
		c7.2,0,13.1-5.9,13.1-13.1v-91.6c0-7.2-5.9-13.1-13.1-13.1h-52.4c-7.2,0-13.1,5.9-13.1,13.1v91.6
		C269.1,369.9,275,375.8,282.2,375.8z M282.2,271.1l52.4,0v91.6h-52.4V271.1z M308.4,330c-7.2,0-13.1-5.9-13.1-13.1
		c0-7.2,5.9-13.1,13.1-13.1c7.2,0,13.1,5.9,13.1,13.1C321.5,324.1,315.6,330,308.4,330z M290.6,288.8c-1.2-1.2-1.9-2.9-1.9-4.6
		c0-1.7,0.7-3.4,1.9-4.6s2.9-1.9,4.6-1.9c1.7,0,3.4,0.7,4.6,1.9c1.2,1.2,1.9,2.9,1.9,4.6c0,1.7-0.7,3.4-1.9,4.6
		c-1.2,1.2-2.9,1.9-4.6,1.9C293.6,290.7,291.9,290,290.6,288.8z M326.1,279.6c1.2,1.2,1.9,2.9,1.9,4.6c0,1.7-0.7,3.4-1.9,4.6
		c-1.2,1.2-2.9,1.9-4.6,1.9c-1.7,0-3.4-0.7-4.6-1.9s-1.9-2.9-1.9-4.6c0-1.7,0.7-3.4,1.9-4.6c1.2-1.2,2.9-1.9,4.6-1.9
		C323.2,277.6,324.9,278.3,326.1,279.6z M326.1,345c1.2,1.2,1.9,2.9,1.9,4.6c0,1.7-0.7,3.4-1.9,4.6c-1.2,1.2-2.9,1.9-4.6,1.9
		c-1.7,0-3.4-0.7-4.6-1.9c-1.2-1.2-1.9-2.9-1.9-4.6c0-1.7,0.7-3.4,1.9-4.6s2.9-1.9,4.6-1.9C323.2,343.1,324.9,343.8,326.1,345z
		 M299.9,345c1.2,1.2,1.9,2.9,1.9,4.6c0,1.7-0.7,3.4-1.9,4.6c-1.2,1.2-2.9,1.9-4.6,1.9c-1.7,0-3.4-0.7-4.6-1.9
		c-1.2-1.2-1.9-2.9-1.9-4.6c0-1.7,0.7-3.4,1.9-4.6s2.9-1.9,4.6-1.9C297,343.1,298.7,343.8,299.9,345z M452.4,330v32.7
		c0,7.2,5.9,13.1,13.1,13.1h52.4c7,0,12.7-5.5,13.1-12.4c0-0.2,0-0.4,0-0.7V330c0,0,0,0,0,0v-32.7c0,0,0,0,0,0v-26.2
		c0-7.2-5.9-13.1-13.1-13.1h-26.2c0,0,0,0,0,0h-26.2c-7.2,0-13.1,5.9-13.1,13.1v26.2c0,0,0,0,0,0V330C452.4,330,452.4,330,452.4,330
		z M488.9,271.1l28.9,28.9v14.2l-43.1-43.1H488.9z M517.8,332.7v14.2l-52.4-52.4v-14.2L517.8,332.7z M515.1,362.7h-14.2l-35.4-35.4
		v-14.2L515.1,362.7z M465.5,345.8l16.9,16.9h-16.9V345.8z M517.8,271.1v10.4l-10.4-10.4H517.8z"/>
</g>
</svg>
