<?xml version="1.0" encoding="utf-8"?>
<!-- Generator: Adobe Illustrator 17.1.0, SVG Export Plug-In . SVG Version: 6.00 Build 0)  -->
<!DOCTYPE svg PUBLIC "-//W3C//DTD SVG 1.1//EN" "http://www.w3.org/Graphics/SVG/1.1/DTD/svg11.dtd">
<svg version="1.1" id="Layer_1" xmlns="http://www.w3.org/2000/svg" xmlns:xlink="http://www.w3.org/1999/xlink" x="0px" y="0px"
	 viewBox="0 21 240 198" enable-background="new 0 21 240 198" xml:space="preserve">
<g id="devs">
	<g id="rival">
		<g id="XMLID_2759_">
			<path fill="#FFFFFF" d="M90.1,146.4c-1.1,0-2.7-0.2-3.8-0.3c-2.2-0.3-2.7-1.6-3-3.6c-0.3-3.2-0.3-9-0.3-16.2v-13
				c0-11.2,0-13.3,0.2-15.7c0.2-2.6,0.7-3.8,2.7-4.2c0.9-0.2,1.5-0.2,2.2-0.2c0.7,0,1.2-0.2,1.2-0.7c0-0.5-0.6-0.6-1.6-0.6
				c-2.8,0-7.2,0.2-9,0.2c-2.2,0-6.8-0.2-9.6-0.2c-1.2,0-1.8,0.2-1.8,0.6c0,0.6,0.5,0.7,1.2,0.7c0.9,0,1.9,0.1,2.7,0.3
				c1.6,0.4,2.4,1.6,2.5,4.1c0.2,2.4,0.2,4.4,0.2,15.7v13c0,7.2,0,13-0.4,16.1c-0.2,2.2-0.7,3.4-2.2,3.7c-0.7,0.2-1.6,0.3-2.7,0.3
				c-0.1,0-0.1,0-0.2,0c0,0-0.1,0-0.1,0c-0.6,0-1.3-0.1-2.1-0.2c-1.1-0.2-4.1-0.7-8.3-5.1c-4.4-4.6-9.5-11.2-16.1-19.5
				c7.5-6.1,9.8-11.1,9.8-16.6c0-5-3-8.7-5.1-10.1c-4-2.7-9-3.2-13.6-3.2c-2.3,0-7.9,0.2-10.4,0.2c-1.6,0-6.2-0.2-10.1-0.2
				c-1.1,0-1.6,0.2-1.6,0.7s0.5,0.7,1.3,0.7c1,0,2.3,0.1,2.9,0.2c2.4,0.5,3,1.7,3.2,4.2c0.2,2.4,0.2,4.4,0.2,15.7v13
				c0,6.8,0,12.7-0.4,15.8c-0.3,2.2-0.7,3.8-2.2,4.1c-0.7,0.2-1.6,0.3-2.7,0.3c-0.9,0-1.2,0.2-1.2,0.6c0,0.5,0.5,0.8,1.5,0.8
				c3,0,7.6-0.2,9-0.2c1.1,0,6.6,0.2,10.9,0.2c0.9,0,1.5-0.2,1.5-0.8c0-0.4-0.3-0.6-0.9-0.6c-0.9,0-2.5-0.2-3.6-0.3
				c-2.2-0.3-2.7-1.9-2.9-4.1c-0.4-3.1-0.4-9-0.4-15.8v-1c0-0.5,0.2-0.6,0.6-0.6l6.5,0.2c0.5,0,0.9,0.1,1.3,0.5
				c0.9,1.1,4.4,6.2,7.3,10.2c4.1,5.7,7,9.2,10.1,10.9c1.9,1,3.8,1.4,7.9,1.4h7c0.2,0,0.4,0,0.6,0c0.2,0,0.3,0,0.5,0
				c3,0,7.6-0.2,9.3-0.2c2,0,6.6,0.2,11.6,0.2c0.8,0,1.4-0.2,1.4-0.8C91.3,146.7,90.9,146.4,90.1,146.4z M38.6,119.9
				c-1.3,0.9-2.3,1.3-5.2,1.3c-1.9,0-4.1-0.2-5.6-0.7c-0.5-0.2-0.7-0.5-0.7-1.3V96.6c0-0.6,0.2-0.9,0.7-1c0.7-0.2,2.1-0.3,3.9-0.3
				c4.4,0,11.3,3,11.3,13.6C43,114.9,40.9,118.3,38.6,119.9z M100.2,99.1c-1.7-4.1-3-4.9-5.6-5.6c-1.1-0.3-2.3-0.3-2.9-0.3
				c-0.7,0-0.9-0.2-0.9-0.7c0-0.6,0.8-0.7,1.9-0.7c3.9,0,8.1,0.2,10.8,0.2c1.9,0,5.4-0.2,9.1-0.2c0.9,0,1.7,0.2,1.7,0.7
				c0,0.5-0.5,0.7-1.1,0.7c-1.2,0-2.3,0.1-2.9,0.5c-0.5,0.4-0.7,0.9-0.7,1.6c0,0.9,0.7,3,1.7,5.7l12.7,33.6h0.3
				c3.2-8.1,20.7-51.8,22.6-56.7c1.5-4.1,1.4-5.9,6.6-5.6c1.3,0,4.7-0.2,7-0.2c0.9,0,1.6,0.2,1.6,0.7s-0.5,0.7-1.2,0.7
				s-2.3,0-3.6,0.9c-0.9,0.7-2.1,1.9-4.1,6.6c-2.9,7-14.1,30.7-18.2,39.9c-4.7,10.8-8.2,18.9-9.8,22.6c-1.9,4.3-2.4,5.5-3.4,5.5
				c-0.9,0-1.4-1-2.8-4.5L100.2,99.1z M134.7,159.9c-0.7,1.9-2.7,7.9-5.1,7.9c-0.8,0-5.7,0.2-9.6,0.2c-0.9,0-1.4-0.2-1.4-0.8
				c0-0.5,0.3-0.6,0.9-0.6c0.7,0,1.7-0.1,2.3-0.2c3.4-0.5,5.2-3,6.7-6.6l28.3-66.7c0.9-2.2,1.3-3,2.1-3c0.7,0,1.1,0.7,1.9,2.4
				c1.8,4.1,14.1,34.3,18.8,45.6c2.8,6.6,5,7.7,6.5,8.1c1.1,0.2,2.2,0.3,3.1,0.3c0.6,0,0.9,0.1,0.9,0.6c0,0.6-0.7,0.8-3.4,0.8
				c-2.7,0-12.3,0-18.2-0.2c-1.3-0.1-2.2-0.1-2.2-0.6c0-0.5,0.3-0.6,1-0.7c0.5-0.2,4.8-0.7,4.2-2.3c-1.6-3.9-14.1-38.1-14.1-38.1
				c-0.1-0.3-0.2-0.7-0.4-0.7s-0.4,0.4-0.5,0.7L134.7,159.9z M206.6,126.3c0,9.5,0,14.6,1.6,15.9c1.3,1.1,3.2,1.6,9,1.6
				c3.9,0,6.8-0.1,8.7-2.1c0.9-0.9,1.8-3,1.9-4.4c0.1-0.7,0.2-1.1,0.8-1.1c0.5,0,0.6,0.4,0.6,1.3c0,0.8-0.5,6.4-1.1,8.5
				c-0.5,1.6-0.8,2-4.7,2c-5.3,0-9.2-0.2-12.5-0.2c-3.3-0.2-6-0.2-9-0.2c-0.8,0-2.4,0-4.2,0.1c-1.7,0-3.6,0.2-5.1,0.2
				c-0.9,0-1.5-0.2-1.5-0.8c0-0.4,0.3-0.6,1.2-0.6c1.1,0,2-0.2,2.7-0.3c1.5-0.3,1.9-1.9,2.2-4.1c0.4-3.1,0.4-9,0.4-15.8v-13
				c0-11.2,0-13.3-0.2-15.7c-0.2-2.5-0.7-3.7-3.2-4.2c-0.6-0.2-1.5-0.2-2.4-0.2c-0.8,0-1.3-0.2-1.3-0.7c0-0.5,0.5-0.7,1.6-0.7
				c3.5,0,8.1,0.2,10.1,0.2c1.8,0,7.2-0.2,10.1-0.2c1,0,1.6,0.2,1.6,0.7s-0.5,0.7-1.3,0.7c-0.8,0-2,0.1-2.9,0.2
				c-2,0.4-2.6,1.6-2.7,4.2c-0.2,2.4-0.2,4.4-0.2,15.7L206.6,126.3L206.6,126.3z"/>
			<path fill="#818385" d="M121.7,149c-1.1,0-1.6-1.2-3-4.6L100,99.1c-1.7-4.1-2.9-4.8-5.5-5.5c-1.1-0.3-2.3-0.3-2.8-0.3
				c-0.5,0-1.1-0.1-1.1-0.9c0-0.9,1.2-0.9,2.1-0.9c2.2,0,4.4,0.1,6.5,0.1c1.6,0,3.1,0.1,4.3,0.1c0.8,0,1.8,0,3.1-0.1
				c1.7-0.1,3.9-0.2,6-0.2c1.3,0,1.9,0.3,1.9,0.9c0,0.9-1,0.9-1.3,0.9c-1.1,0-2.2,0-2.8,0.5c-0.5,0.3-0.6,0.8-0.6,1.4
				c0,0.8,0.6,2.7,1.7,5.6l12.7,33.5l0,0c1.5-3.8,5.7-14.2,10.1-25.3c5.6-14.1,11.4-28.6,12.5-31.3c0.2-0.5,0.3-0.9,0.5-1.4
				c1.1-3.2,1.6-4.6,6.3-4.4c0.6,0,1.9,0,3.2-0.1c1.3-0.1,2.7-0.1,3.8-0.1c0.5,0,1.7,0,1.7,0.9c0,0.9-1,0.9-1.4,0.9
				c-0.7,0-2.2,0-3.5,0.8c-0.9,0.6-2,1.9-4,6.6c-1.6,3.9-5.8,13-9.9,21.8c-3.3,7.2-6.5,14.1-8.3,18.1c-2.8,6.3-5.1,11.7-6.9,15.9
				c-1.3,2.9-2.2,5.2-2.9,6.7l-0.4,0.9C123.2,148,122.8,149,121.7,149z M92.7,92c-1.1,0-1.7,0.1-1.7,0.5c0,0.3,0,0.5,0.7,0.5
				c0.6,0,1.8,0,2.9,0.3c2.8,0.8,4.1,1.7,5.8,5.7l18.7,45.3c1.4,3.4,1.8,4.4,2.6,4.4c0.8,0,1.3-1,2.8-4.4l0.4-0.9
				c0.7-1.5,1.7-3.8,2.9-6.7c1.8-4.1,4.1-9.5,6.9-15.9c1.8-4.1,4.9-10.9,8.3-18.1c4.1-8.8,8.3-17.9,9.9-21.7c1.9-4.6,3-6,4.1-6.8
				c1.4-0.9,3-0.9,3.8-0.9c0.9,0,1-0.2,1-0.5s-0.2-0.5-1.3-0.5c-1.1,0-2.5,0.1-3.8,0.1c-1.3,0.1-2.6,0.1-3.2,0.1
				c-4.4-0.2-4.8,1-5.9,4.1c-0.2,0.4-0.3,0.9-0.5,1.4c-1,2.7-6.8,17.3-12.5,31.3c-4.5,11.2-8.7,21.8-10.1,25.4l0,0.2h-0.6l0-0.2
				L111.1,101c-1.1-3-1.7-4.9-1.7-5.8c0-0.8,0.3-1.3,0.8-1.7c0.6-0.5,1.8-0.6,3-0.6c0.9,0,0.9-0.3,0.9-0.5c0-0.3-0.6-0.5-1.5-0.5
				c-2.2,0-4.3,0.1-6,0.2c-1.3,0-2.3,0.1-3.1,0.1c-1.2,0-2.7,0-4.3-0.1C97.1,92.1,94.9,92,92.7,92z M89.9,148c-3,0-5.9-0.1-8.1-0.2
				c-1.5,0-2.6-0.1-3.4-0.1c-0.7,0-2,0-3.5,0.1c-1.9,0.1-4.2,0.2-5.9,0.2c-0.2,0-0.3,0-0.5,0c-0.2,0-0.3,0-0.6,0h-7
				c-4.1,0-6-0.3-8-1.4c-3.1-1.7-5.9-5-10.2-10.9c-1.3-1.7-2.6-3.6-3.8-5.3c-1.6-2.3-3-4.3-3.5-4.9c-0.3-0.4-0.7-0.5-1.2-0.5
				l-6.5-0.2c-0.3,0-0.4,0.1-0.4,0.4v1c0,6.8,0,12.7,0.4,15.8c0.2,2.3,0.8,3.6,2.7,3.9c1.1,0.2,2.7,0.3,3.6,0.3c1,0,1.1,0.6,1.1,0.8
				c0,0.9-1.3,0.9-1.7,0.9c-2.8,0-6.2-0.1-8.5-0.2c-1.1,0-2-0.1-2.4-0.1c-0.6,0-1.7,0-3,0.1c-1.9,0.1-4.3,0.2-6,0.2
				c-0.4,0-1.7,0-1.7-0.9c0-0.8,1.1-0.8,1.4-0.8c0.9,0,1.7-0.1,2.6-0.3c1.4-0.3,1.7-1.9,2-3.9c0.4-3.1,0.4-9,0.4-15.8v-13
				c0-11.3,0-13.3-0.2-15.7c-0.2-2.4-0.6-3.5-3-4c-0.6-0.2-1.9-0.2-2.8-0.2c-0.5,0-1.5,0-1.5-0.9c0-0.8,0.9-0.9,1.8-0.9
				c2.4,0,5.1,0.1,7.2,0.2c1.3,0,2.4,0.1,3,0.1c1.3,0,3.4-0.1,5.4-0.1c2,0,3.9-0.1,5-0.1c4.5,0,9.6,0.4,13.8,3.2
				c1.8,1.2,5.1,4.9,5.1,10.3c0,6.1-2.9,11.1-9.7,16.6c0.8,1.1,1.7,2.1,2.5,3.1c5.4,6.8,9.7,12.2,13.5,16.2c4,4.1,7,4.7,8.1,5h0.1
				c0.8,0.2,1.5,0.2,2.1,0.2c0,0,0.1,0,0.1,0h0.1c0,0,0.1,0,0.2,0c0.9,0,1.7-0.1,2.6-0.3c1.2-0.2,1.7-1.2,2-3.5
				c0.4-3.1,0.4-8.9,0.4-16.1v-13c0-11.3,0-13.3-0.2-15.7c-0.2-2.4-0.8-3.6-2.4-4c-0.7-0.2-1.6-0.3-2.6-0.3c-0.4,0-1.4,0-1.4-0.9
				c0-0.7,0.9-0.8,2-0.8c1.5,0,3.5,0.1,5.4,0.1c1.6,0,3.2,0.1,4.2,0.1c0.8,0,2.2,0,3.6-0.1c1.8-0.1,3.8-0.1,5.4-0.1
				c0.5,0,1.7,0,1.7,0.8c0,0.9-1,0.9-1.4,0.9c-0.7,0-1.3,0.1-2.2,0.2c-1.7,0.3-2.4,1.3-2.6,4c-0.2,2.4-0.2,4.4-0.2,15.7v13
				c0,7.3,0,13,0.3,16.2c0.2,2,0.7,3.2,2.8,3.5c1,0.2,2.7,0.3,3.8,0.3c1.1,0,1.4,0.4,1.4,0.8C91.5,147.3,91.4,148,89.9,148z
				 M78.3,147.4c0.8,0,1.9,0,3.4,0.1c2.3,0.1,5.2,0.2,8.1,0.2c0.3,0,1.2,0,1.2-0.5c0-0.3-0.6-0.4-1-0.4c-1.1,0-2.8-0.2-3.8-0.3
				c-2.3-0.3-2.9-1.7-3.2-3.8c-0.3-3.2-0.3-9-0.3-16.3v-13c0-11.3,0-13.3,0.2-15.7c0.2-2.5,0.6-4,2.9-4.4c0.9-0.2,1.5-0.2,2.2-0.2
				c0.8,0,1-0.2,1-0.5c0-0.3-0.7-0.4-1.3-0.4c-1.6,0-3.6,0.1-5.4,0.1c-1.4,0-2.8,0.1-3.6,0.1c-1,0-2.5,0-4.2-0.1
				C72.6,92,70.7,92,69.1,92c-1.1,0-1.6,0.1-1.6,0.4c0,0.3,0.2,0.5,1,0.5c1.1,0,2,0.1,2.7,0.3c1.7,0.4,2.5,1.7,2.7,4.3
				c0.2,2.4,0.2,4.4,0.2,15.7v13c0,7.3,0,13-0.4,16.2c-0.2,2.2-0.7,3.6-2.3,3.9c-0.9,0.2-1.8,0.3-2.7,0.3c0,0-0.1,0-0.1,0h-0.1h0
				c0,0,0,0-0.1,0c-0.6,0-1.3-0.1-2.1-0.2h-0.1c-1.1-0.2-4.2-0.8-8.3-5.1c-3.8-4-8.1-9.4-13.5-16.2c-0.8-1.1-1.7-2.1-2.6-3.3
				l-0.1-0.2l0.2-0.1c6.8-5.5,9.7-10.4,9.7-16.4c0-5.2-3.2-8.8-4.9-10c-4.1-2.8-9.1-3.2-13.5-3.2c-1.1,0-3,0-5,0.1
				c-2.1,0-4.1,0.1-5.4,0.1c-0.6,0-1.6,0-3-0.1C17.6,92.1,15,92,12.5,92c-1.3,0-1.4,0.2-1.4,0.5c0,0.2,0.1,0.5,1.1,0.5
				c1,0,2.3,0.1,2.9,0.2c2.6,0.6,3.2,1.9,3.3,4.4c0.2,2.4,0.2,4.4,0.2,15.7v13c0,6.8,0,12.7-0.4,15.8c-0.3,2.1-0.7,3.9-2.3,4.3
				c-0.9,0.2-1.8,0.3-2.7,0.3c-1,0-1,0.3-1,0.4s0,0.5,1.3,0.5c1.7,0,4.1-0.1,6-0.2c1.3,0,2.4-0.1,3-0.1c0.4,0,1.2,0,2.4,0.1
				c2.2,0.1,5.6,0.2,8.5,0.2c1.3,0,1.3-0.4,1.3-0.5c0-0.3-0.2-0.4-0.7-0.4c-0.9,0-2.6-0.2-3.6-0.3c-2.5-0.3-2.8-2.3-3.1-4.3
				c-0.4-3.1-0.4-9-0.4-15.9v-1c0-0.4,0.2-0.8,0.8-0.8l6.5,0.2c0.5,0,1.1,0.1,1.5,0.6c0.6,0.6,1.9,2.6,3.6,4.9
				c1.2,1.7,2.5,3.6,3.8,5.3c4.3,5.9,7,9.2,10.1,10.8c1.9,1.1,3.8,1.4,7.8,1.4h7c0.2,0,0.4,0,0.6,0h0h0c0.2,0,0.3,0,0.5,0
				c1.7,0,3.9-0.1,5.9-0.2C76.3,147.4,77.6,147.4,78.3,147.4z M33.4,121.4c-2.2,0-4.3-0.3-5.7-0.8c-0.7-0.3-0.8-0.8-0.8-1.5V96.6
				c0-0.6,0.2-1.1,0.8-1.3c0.7-0.2,1.9-0.3,4-0.3c4.3,0,11.6,2.9,11.6,13.8c0,7-2.8,10.1-4.4,11.3C37.4,121.1,36.5,121.4,33.4,121.4
				z M31.7,95.5c-2,0-3.2,0.1-3.9,0.3c-0.4,0.1-0.5,0.3-0.5,0.8v22.5c0,0.8,0.2,0.9,0.5,1.1c1.4,0.5,3.4,0.7,5.5,0.7
				c3,0,3.9-0.3,5.1-1.2c1.6-1.2,4.3-4.1,4.3-10.9C42.8,98.3,35.8,95.5,31.7,95.5z M120,168.2c-0.8,0-1.6-0.1-1.6-0.9
				c0-0.8,0.8-0.8,1.1-0.8c0.7,0,1.7-0.1,2.3-0.2c3-0.4,4.9-2.3,6.5-6.5L156.6,93c0.9-2.2,1.4-3.1,2.3-3.1c0.8,0,1.3,0.8,2.1,2.5
				c0.9,2,4.1,9.9,7.9,19c4,9.7,8.5,20.7,10.9,26.5c2.7,6.3,4.7,7.6,6.4,7.9c1.2,0.2,2.3,0.3,3.1,0.3c0.4,0,1.2,0,1.2,0.8
				c0,0.8-0.9,0.9-3.6,0.9c-8.2,0-14.3,0-18.2-0.2h-0.3c-1.3-0.1-2.1-0.1-2.1-0.8s0.6-0.8,1.2-0.9c0,0,0.2,0,0.4-0.1
				c0.9-0.2,3.2-0.6,3.6-1.4c0.1-0.2,0.1-0.3,0-0.5c-1.6-3.8-14-37.8-14.1-38.1l0-0.1c0-0.1-0.1-0.4-0.2-0.5c0,0-0.2,0.2-0.2,0.5
				L135,159.9c-0.1,0.2-0.2,0.5-0.3,0.8c-0.9,2.5-2.7,7.3-4.9,7.3c-0.3,0-0.9,0-1.8,0C125.7,168.1,122.7,168.2,120,168.2z
				 M158.9,90.4c-0.6,0-1,0.8-1.9,2.8l-28.3,66.7c-1.2,3.1-3,6.3-6.9,6.8c-0.6,0.1-1.6,0.2-2.3,0.2c-0.7,0-0.7,0.2-0.7,0.4
				c0,0.3,0.1,0.5,1.2,0.5c2.6,0,5.7-0.1,7.8-0.2c0.9,0,1.6,0,1.8,0c1.9,0,3.7-4.7,4.5-7c0.1-0.3,0.2-0.6,0.3-0.8l21.9-53.9
				c0.1-0.3,0.3-0.8,0.6-0.8s0.5,0.5,0.6,0.8v0.1c0.1,0.3,12.5,34.2,14.1,38.1c0.1,0.3,0.1,0.6,0,0.8c-0.5,1-2.8,1.4-3.9,1.6
				c-0.2,0-0.3,0.1-0.4,0.1c-0.8,0.1-0.9,0.2-0.9,0.5c0,0.3,0.8,0.3,1.7,0.4h0.3c3.9,0.1,10,0.2,18.2,0.2c2.7,0,3.2-0.2,3.2-0.5
				c0-0.3-0.1-0.4-0.8-0.4c-0.8,0-1.9,0-3.2-0.3c-1.8-0.4-4-1.7-6.7-8.2c-2.5-5.9-7-16.8-10.9-26.5c-3.8-9.2-7-17.1-7.9-19
				C159.8,90.9,159.4,90.4,158.9,90.4z M223.4,148.2c-4,0-7.2-0.1-10-0.2c-0.9,0-1.7,0-2.5-0.1c-3.5-0.2-6.2-0.2-9-0.2
				c-0.8,0-2.4,0-4.2,0.1c-0.9,0-1.8,0-2.7,0.1c-0.9,0-1.7,0.1-2.4,0.1c-0.4,0-1.7,0-1.7-0.9c0-0.8,1.1-0.8,1.4-0.8
				c0.9,0,1.7-0.1,2.6-0.3c1.4-0.3,1.7-1.9,2-3.9c0.4-3.1,0.4-9,0.4-15.8v-13c0-11.3,0-13.3-0.2-15.7c-0.2-2.4-0.6-3.5-3-4
				c-0.6-0.2-1.4-0.2-2.4-0.2c-0.5,0-1.5,0-1.5-0.9c0-0.8,0.9-0.9,1.8-0.9c2,0,4.3,0.1,6.4,0.2c1.6,0,2.9,0.1,3.8,0.1
				c0.8,0,2.2,0,3.9-0.1c2.1-0.1,4.5-0.1,6.2-0.1c0.6,0,1.7,0,1.7,0.9s-1,0.9-1.6,0.9c-0.8,0-1.9,0.1-2.8,0.2
				c-1.7,0.3-2.4,1.3-2.6,4c-0.2,2.4-0.2,4.4-0.2,15.7v13c0,9.3,0,14.5,1.5,15.8c1.2,1,2.9,1.6,8.8,1.6c4.1,0,6.8-0.2,8.5-2
				c0.8-0.9,1.7-2.9,1.9-4.3c0-0.5,0.2-1.3,1-1.3c0.8,0,0.8,0.8,0.8,1.5c0,0.9-0.5,6.4-1.1,8.6C227.8,147.9,227.3,148.2,223.4,148.2
				z M201.8,147.4c2.9,0,5.5,0.1,9,0.2c0.8,0,1.6,0,2.5,0.1c2.8,0.1,5.9,0.2,10,0.2c3.8,0,4.1-0.3,4.4-1.9c0.6-2.1,1.1-7.6,1.1-8.5
				c0-1-0.1-1.1-0.4-1.1c-0.3,0-0.5,0.2-0.6,0.9c-0.2,1.5-1.1,3.6-2,4.6c-2,2.1-5.2,2.1-8.8,2.1c-6,0-7.9-0.6-9.1-1.7
				c-1.6-1.4-1.6-6.3-1.6-16.1v-13c0-11.3,0-13.3,0.2-15.7c0.2-2.5,0.6-4,2.9-4.4c0.9-0.2,2.1-0.2,2.9-0.2c1,0,1.1-0.2,1.1-0.5
				c0-0.2-0.1-0.5-1.3-0.5c-1.6,0-4,0.1-6.2,0.1c-1.7,0-3.2,0.1-3.9,0.1c-0.9,0-2.2,0-3.8-0.1c-2.1-0.1-4.4-0.2-6.4-0.2
				c-1.3,0-1.4,0.2-1.4,0.5c0,0.2,0.1,0.5,1.1,0.5c1,0,1.9,0.1,2.5,0.2c2.6,0.6,3.2,1.9,3.3,4.4c0.2,2.4,0.2,4.4,0.2,15.7v13
				c0,6.8,0,12.7-0.4,15.8c-0.3,2.1-0.7,3.9-2.3,4.3c-0.9,0.2-1.8,0.3-2.7,0.3c-1,0-1,0.3-1,0.4s0,0.5,1.3,0.5c0.7,0,1.5,0,2.4-0.1
				c0.9,0,1.9-0.1,2.7-0.1C199.4,147.4,201,147.4,201.8,147.4z"/>
		</g>
		<polygon id="XMLID_299_" fill="#EC2427" points="158.2,138.3 151.3,133.9 157.9,130.1 164.2,134.3 		"/>
	</g>
</g>
</svg>
