<?xml version="1.0" encoding="utf-8"?>
<!-- Generator: Adobe Illustrator 17.1.0, SVG Export Plug-In . SVG Version: 6.00 Build 0)  -->
<!DOCTYPE svg PUBLIC "-//W3C//DTD SVG 1.1//EN" "http://www.w3.org/Graphics/SVG/1.1/DTD/svg11.dtd">
<svg version="1.1" id="Layer_1" xmlns="http://www.w3.org/2000/svg" xmlns:xlink="http://www.w3.org/1999/xlink" x="0px" y="0px"
	 viewBox="0 21 240 198" enable-background="new 0 21 240 198" xml:space="preserve">
<path id="thunderkick" fill="#F7F7F7" stroke="#1E2123" stroke-miterlimit="10" d="M35.8,174.6L19,175.1c-0.3,0-0.6,0.1-0.8,0.4
	c-0.2,0.2-0.3,0.5-0.3,0.8l0.3,4.6c0,0.6,0.5,1,1.1,1l4.6,0l1,21.6c0,0.3,0.2,0.6,0.4,0.7c0.2,0.2,0.5,0.3,0.8,0.3l5.2-0.3l0,0
	c0.6,0,1-0.5,1-1.1l-0.6-21.3l4.6,0c0.3,0,0.6-0.1,0.8-0.3c0.2-0.2,0.3-0.5,0.3-0.8l-0.3-4.9C36.9,175.1,36.4,174.6,35.8,174.6z
	 M55.5,176l-5.1-0.3c-0.6,0-1.1,0.5-1.1,1L49.3,188l-2.2,0.5l-0.6-12.8c0-0.6-0.5-1-1.1-1l-5.1,0.1c-0.3,0-0.6,0.1-0.8,0.3
	c-0.2,0.2-0.3,0.5-0.3,0.8l0.9,28.4c0,0.6,0.5,1.1,1.1,1.1l5.1-0.1c0.3,0,0.6-0.1,0.8-0.3c0.2-0.2,0.3-0.5,0.3-0.8l-0.5-9.5l2,0.1
	l0.3,8.5c0,0.3,0.1,0.6,0.3,0.8c0.2,0.2,0.5,0.3,0.8,0.3l5.3,0.4c0,0,0,0,0.1,0c0.5,0,1-0.5,1-1l0-26.7c0-0.3-0.1-0.6-0.3-0.8
	C56.1,176.1,55.8,176,55.5,176z M74.5,173.6l-4.6,0.4c-0.6,0-1,0.5-1,1.1c0,0,0,17.8,0,20.1c0,1.4,0.1,3.7-1.4,3.8
	c-1,0-1.4-1.5-1.4-3.6c0-2.4,0.2-19,0.2-19.2c0-0.5-0.4-1-1-1.1l-5.3-0.6c-0.3,0-0.6,0.1-0.8,0.3c-0.2,0.2-0.4,0.5-0.4,0.8
	c0,0,0.2,20.9,0.2,21.6c0,2.7,2.2,7.6,8,7.4c6.6-0.2,7.8-4.1,8.2-8.7c0.2-1.9,0.5-19.3,0.5-21.2c0-0.3-0.1-0.6-0.3-0.8
	C75.1,173.7,74.8,173.6,74.5,173.6z M95,174.8l-4.8,0.2l0,0c-0.3,0-0.6,0.2-0.7,0.4c-0.2,0.2-0.3,0.5-0.3,0.8l0.8,13.4l-5-13.8
	c-0.2-0.5-0.6-0.7-1.1-0.7l-4.8,0.5c-0.5,0-1,0.5-1,1.1l0.8,26.3c0,0.6,0.5,1,1,1.1l4.8,0.4c0.3,0,0.6-0.1,0.8-0.3
	c0.2-0.2,0.3-0.5,0.3-0.8L85,191.8l4.2,12c0.2,0.4,0.5,0.7,1,0.7h5.1c0,0,0.1,0,0.1,0c0.2,0,0.5-0.1,0.7-0.3
	c0.2-0.2,0.3-0.5,0.3-0.8L96,175.9c0-0.3-0.1-0.6-0.3-0.8C95.5,174.8,95.2,174.8,95,174.8z M101.4,174.2c-0.3,0-0.7,0-1,0
	c-0.6,0-1,0.5-1,1l-0.9,27.4c0,0.6,0.4,1.1,1,1.1c0,0,0.6,0,1.6,0l0,0c3.4,0,11.5-0.6,13.4-6.3c1.6-4.8,1.3-11.2,0.9-14.3
	C114.6,177.1,110,174.2,101.4,174.2z M108.6,192.2c-0.6,4.6-2,4.9-3.6,5.5l0.7-17.2c0.5,0.1,1.2,0.1,2.2,1.3
	C109.2,183.6,109.2,187.7,108.6,192.2z M131.2,198.9l-6.3,0.5l-0.3-6l4.1-0.2c0.5,0,1-0.5,1-1l0.4-3.6c0-0.3-0.1-0.6-0.3-0.9
	c-0.2-0.2-0.5-0.3-0.8-0.3l-4.5,0.2v-6.4h6.6l0,0c0.6,0,1.1-0.5,1.1-1.1c0-0.1,0-0.2,0-0.2l-0.4-3.8c0-0.6-0.5-1-1.1-1l-12,0.3
	c-0.6,0-1.1,0.5-1,1.1l0.4,27.1c0,0.6,0.5,1.1,1.1,1.1h12.2c0.6,0,1.1-0.5,1.1-1l0.1-3.5c0-0.3-0.1-0.6-0.3-0.8
	C131.8,199,131.5,198.9,131.2,198.9z M150.9,183c-0.3-3.8-1.6-8.9-9.9-8.9c-1.8,0-3.8,0.2-6.2,0.7c-0.5,0.1-0.9,0.5-0.9,1.1
	l0.4,26.5c0,0.6,0.5,1,1,1.1l3.8,0.3c0.3,0,0.6-0.1,0.8-0.3c0.2-0.2,0.3-0.5,0.3-0.8v-8.5l1.9-0.1l2.2,9.1c0.1,0.5,0.5,0.9,1.1,0.9
	c0,0,0,0,0.1,0l3.8-0.3c0.3,0,0.6-0.2,0.8-0.4c0.2-0.2,0.2-0.5,0.2-0.9l-2.7-10.2C149.5,191,151.3,188.3,150.9,183z M144.1,186.8
	c-1,1-2.6,1.4-3.7,1.4v-7.8c0.3-0.1,0.7-0.1,1-0.1c1.4,0,3.2,0.7,3.5,3.8C144.9,185.2,144.7,186.1,144.1,186.8z M165.4,190.8
	c1.6-2.1,5.5-6.9,5.1-15.2c0-0.3-0.1-0.6-0.4-0.7c-0.2-0.2-0.5-0.3-0.8-0.3l-4.5,0.3c-0.6,0-1,0.5-1,1.2c0.2,2.4-1.4,7.5-3.7,10.6
	l0.3-10.3c0-0.3-0.1-0.6-0.3-0.8c-0.2-0.2-0.5-0.3-0.8-0.3l-5.8,0.1c-0.3,0-0.6,0.1-0.8,0.3c-0.2,0.2-0.3,0.5-0.3,0.8l0.6,27.4
	c0,0.3,0.1,0.6,0.4,0.8c0.2,0.2,0.5,0.3,0.8,0.2l4.5-0.6c0.5-0.1,1-0.5,1-1.1l0.1-8c0.9,0.5,3.6,4.5,4.1,8.3c0.1,0.5,0.5,1,1.1,1
	h4.8c0,0,0,0,0.1,0c0.2,0,0.5-0.1,0.7-0.3c0.2-0.2,0.3-0.5,0.3-0.8C170.8,202.3,169.2,193.9,165.4,190.8z M178.9,174l-5.2,0.7
	c-0.5,0.1-1,0.5-1,1.1l0,26.9c0,0.3,0.1,0.6,0.3,0.8c0.2,0.2,0.5,0.3,0.8,0.3h0l5.6-0.4c0.6,0,1-0.5,1-1.1l-0.4-27.1
	c0-0.3-0.1-0.6-0.4-0.8C179.5,174,179.2,173.9,178.9,174z M189.9,174.7c-1.6,0.1-6.7,1-7.1,8.6c0,1-0.1,1.9-0.2,2.7
	c-0.3,5.1-0.5,8.9,0.1,12.1c0.4,1.9,2,6.4,8.4,6.4c0.4,0,0.8,0,1.2,0c2.6-0.2,4.6-1.1,5.9-2.5c1.7-2.1,1.5-4.8,1.4-6.2l0-0.3
	c0-0.6-0.5-1-1.1-1l-4,0.2c-0.3,0-0.6,0.2-0.8,0.4c-0.2,0.2-0.3,0.5-0.2,0.9c0.1,0.5,0.2,2.3-0.5,3.1c-0.2,0.2-0.5,0.5-1.3,0.5h0
	c-0.6,0-1-0.2-1.4-0.5c-0.6-0.6-1.2-2.1-1.1-5.8c0-0.9,0.1-1.9,0.1-2.9c0.1-2.8,0.2-5.9,0.5-7.9v-0.1c0.2-1.5,0.5-2.1,1.7-2.2
	c0.9,0,1.5,0.1,1.9,0.5c0.4,0.5,0.4,1.4,0.3,1.7c0,0.3,0,0.7,0.2,0.9c0.2,0.2,0.5,0.4,0.8,0.4l4.8,0.1c0.6,0,1.1-0.5,1.1-1
	c0-0.1,0.1-3.1-2.2-5.4C196.6,175.4,193.7,174.5,189.9,174.7z M222.1,202.2c-0.1-0.3-2.2-8.5-6.4-12.4c2.1-1.9,6.3-5.8,4.9-14.7
	c-0.1-0.6-0.6-1-1.2-0.9l-5.6,0.6c-0.3,0-0.6,0.2-0.7,0.4c-0.2,0.2-0.2,0.5-0.2,0.8c0,0.1,1.2,6.5-3.2,10.3l0.1-10.9
	c0-0.3-0.1-0.6-0.4-0.8c-0.2-0.2-0.5-0.3-0.8-0.3L203,175c-0.6,0.1-1,0.5-1,1.1l0.7,27.2c0,0.3,0.1,0.6,0.4,0.8
	c0.2,0.2,0.5,0.3,0.7,0.2c0,0,0,0,0.1,0l4.7-0.5c0.5,0,1-0.5,1-1l0.4-8.5c1.5,1.5,4,5.5,4.4,8.8c0.1,0.6,0.6,1,1.2,1l5.6-0.6
	c0.3,0,0.6-0.2,0.7-0.5C222.1,202.8,222.2,202.5,222.1,202.2z M172.8,118.4l4-27.7l-16.6-34.8l-11.3,3.8L134.2,44l-26-14.2l-5.7,21
	l-4-11l-20,19.5L67.4,78.9l-0.5,20.2L59,95.4l5.4,32.4l12.2,20.9l28.7,9.9l23.5,0.9l40.5-14.8l11.7-28.9L172.8,118.4z M155.2,103
	l-23,0.6l-0.8,25.8l-1.2,15.3l-20-0.2v-14.7l-1.7-25.7l-24,1l-0.8-24.8l35.4-0.2l36.6-1l0.6,3.3L155.2,103z"/>
</svg>
