<?xml version="1.0" encoding="utf-8"?>
<!-- Generator: Adobe Illustrator 17.1.0, SVG Export Plug-In . SVG Version: 6.00 Build 0)  -->
<!DOCTYPE svg PUBLIC "-//W3C//DTD SVG 1.1//EN" "http://www.w3.org/Graphics/SVG/1.1/DTD/svg11.dtd">
<svg version="1.1" xmlns="http://www.w3.org/2000/svg" xmlns:xlink="http://www.w3.org/1999/xlink" x="0px" y="0px"
	 viewBox="0 0 800 660" enable-background="new 0 0 800 660" xml:space="preserve">
<g id="Layer_2">
	
		<radialGradient id="SVGID_1_" cx="399.9813" cy="329.9318" r="395.506" gradientTransform="matrix(0.9639 0 0 0.88 14.4759 39.66)" gradientUnits="userSpaceOnUse">
		<stop  offset="0.5" style="stop-color:#262626"/>
		<stop  offset="1" style="stop-color:#1A1A1A"/>
	</radialGradient>
	<rect fill="url(#SVGID_1_)" width="800" height="660"/>
</g>
<g id="Layer_1">
	<path fill="#FFFFFF" d="M608.4,340L581,242.9c-3.5-12.4-15-20.6-27.2-20.6c-2.1,0-4,0.2-6.1,0.7l24.1,27.9
		c8.9,10.3,13.2,23.4,12.2,37c-1,13.6-7.3,26-17.6,34.9l-100.8,86.8l123.2-34.7C603.8,370.7,612.5,355,608.4,340z M589.9,355.7
		l-3.1-9.4l-5.2,1c0.5,0.3,0.9,0.7,1.2,1.2c0.3,0.5,0.7,1.2,1,1.9c0.9,2.3,0.7,4.4-0.2,6.1c-1,1.7-2.8,3-5.4,3.8
		c-2.3,0.7-4.4,0.7-6.4-0.2c-2.1-0.9-3.5-2.6-4.4-5.4c-0.7-2.3-0.9-4.5-0.2-6.6c0.7-2.1,2.1-4.2,4.2-4.2h0.2l2.1,5.4
		c-0.9,0.3-1.6,0.9-1.9,1.6c-0.3,0.7-0.3,1.6-0.2,2.4c0.3,1,0.9,1.6,1.7,1.7c0.9,0.2,1.7,0.2,3-0.3c1.4-0.5,2.3-1,2.8-1.7
		c0.5-0.7,0.7-1.6,0.3-2.6c-0.2-0.7-0.7-1.2-1-1.6c-0.5-0.3-1-0.5-1.6-0.5l-1.4-5.1l13.8-3.1l4.7,13.9L589.9,355.7z M450.3,185.4
		l33.6,15.2c25.6,11.5,37,41.7,25.5,67.3l-54.7,121.3l97.1-83.5c11.9-10.1,13.1-28.1,3-39.9L489,189.4c-5.6-6.4-13.4-9.8-21.4-9.8
		C461.4,179.5,455.3,181.4,450.3,185.4z M544.6,279L544.6,279l3.8,4.4l-11.5,10.1l1.7,1.9l-3.3,3l-1.7-1.9l-4,3.5l-3.8-4.4l4-3.5
		l-6.4-7.3l2.4-2.6L544.6,279z M538.8,284.1v-0.2l-0.9,0.2l-8.2,1.4l3.3,3.7L538.8,284.1z M382.8,192c0.2,0,0.3,0,0.7,0
		c27.7,0,50.6,22.5,50.9,50.2l1.7,133l52.6-116.6c6.4-14.1,0-31-14.1-37.5l-91.9-41.5c-3.7-1.7-7.7-2.4-11.5-2.4
		c-10.3,0-20.2,5.6-25.1,15.2L382.8,192z M474.1,247.1c-0.5,1-1.2,1.9-2.3,2.4c-1,0.5-2.3,0.9-3.5,0.9c1,1,1.7,2.1,1.9,3.3
		c0.3,1.2,0.2,2.4-0.3,3.8c-0.9,2.1-2.4,3.5-4.5,3.8c-2.1,0.5-4.5,0.2-7-0.9c-2.1-0.9-3.8-2.3-4.9-4.2c-1-1.9-1.2-3.8-0.2-5.9l0,0
		l5.2,2.3c-0.3,0.7-0.3,1.6,0,2.3c0.3,0.7,0.9,1.2,1.7,1.7c0.9,0.3,1.7,0.5,2.6,0.2c0.9-0.3,1.4-0.9,1.7-1.6c0.5-1,0.5-2.1,0.2-2.8
		c-0.3-0.7-1-1.4-2.1-1.9l-2.4-1l1.7-4l2.4,1c1,0.3,1.7,0.5,2.6,0.2c0.7-0.3,1.4-0.9,1.7-1.7c0.3-0.7,0.3-1.4,0.2-2.1
		s-0.9-1.2-1.7-1.6c-0.7-0.3-1.4-0.3-2.1-0.2c-0.7,0.2-1.2,0.5-1.4,1.2l-5.2-2.3V240c0.7-1.9,2.1-3,4.2-3.5c2.1-0.5,4-0.2,6.3,0.7
		c2.4,1,4.2,2.6,5.2,4.4C475,243.1,475,245,474.1,247.1z M282.4,215.9c-15,0.2-27.2,12.2-27.9,27l33.3-16c7-3.3,14.3-5.1,22-5.1
		c19.5,0,37.5,11.3,46,28.8l57.7,119.8l-1.6-128c-0.2-15.5-12.9-27.9-28.2-27.9c-0.2,0-0.2,0-0.3,0L282.4,215.9z M394.3,239.3
		c0,1.6-0.3,3-1,4.2c-0.7,1.2-2.3,3.1-4.4,5.6l-3.3,3.8v0.2l9.8-0.5l0.2,4.5l-17.6,0.7l-0.2-3.8l7.7-8.9c1-1.2,1.7-2.3,2.1-3.3
		c0.5-0.9,0.7-1.7,0.7-2.4c0-1-0.3-1.7-0.9-2.3c-0.5-0.5-1.2-0.9-2.3-0.7c-0.9,0-1.6,0.5-2.1,1.2c-0.5,0.7-0.7,1.7-0.7,2.8l-5.8,0.2
		v-0.2c-0.2-2.3,0.5-4.4,2.1-5.9c1.6-1.7,3.5-2.6,6.1-2.6c2.8-0.2,4.9,0.5,6.6,1.7C393.4,235.1,394.3,236.8,394.3,239.3z M297.7,480
		l90.8-43.8c13.9-6.8,19.9-23.7,13.2-37.8l-66.6-138.1c-4.9-10.1-15-16-25.6-16c-4.2,0-8.2,0.9-12.2,2.8l-90.8,43.8
		c-13.9,6.8-19.9,23.7-13.2,37.8l66.4,138.1c4.9,10.1,15,16,25.6,16C289.7,482.8,293.9,481.9,297.7,480z M327,348.4l-11,50.7
		l-46-21.6l11-50.7L327,348.4z M327.2,283l-5.4,2.3l-3.3-4l-7.3,3.1l0.7,5.1l-5.4,2.3l-2.4-26.3l5.8-2.4L327.2,283z M309.6,270.6
		l1.2,9.2l4.9-2.1l-5.9-7.3L309.6,270.6z"/>
</g>
</svg>
