<?xml version="1.0" encoding="utf-8"?>
<!-- Generator: Adobe Illustrator 17.1.0, SVG Export Plug-In . SVG Version: 6.00 Build 0)  -->
<!DOCTYPE svg PUBLIC "-//W3C//DTD SVG 1.1//EN" "http://www.w3.org/Graphics/SVG/1.1/DTD/svg11.dtd">
<svg version="1.1" id="virtual-reality-casino_1_" xmlns="http://www.w3.org/2000/svg" xmlns:xlink="http://www.w3.org/1999/xlink"
	 x="0px" y="0px" viewBox="0 0 240 240" enable-background="new 0 0 240 240" xml:space="preserve">
<path fill="#D4D3D3" d="M199.6,98.7c-2.7-8-5.3-14.9-7.5-20c-3.4-7.7-5.3-10.2-8.1-10.4c-2.5-0.2-5.1-0.5-7.6-0.7
	c-2.1-0.2-3.9,1.4-4,3.4c-0.2,2.1,1.4,3.9,3.4,4c2.1,0.2,4.2,0.4,6.3,0.5c1.6,2.4,5.6,11.1,11.2,28c5.4,16.1,10,33,12.1,44.2
	c0.8,4.1,0.1,6.8-2,8.1c-5.2,3.2-11.8,3.9-13.7,4c-17.4-7.5-42.8-11.8-69.9-11.8c-27,0-52.4,4.3-69.7,11.7c-2-0.1-8.4-0.7-13.5-3.8
	c-2.2-1.3-2.8-3.7-2-8c4.7-25,18.5-66,22.9-72.3c20.7-1.9,41.7-2.8,62.3-2.8c5.9,0,11.8,0.1,17.7,0.2c2.1,0.1,3.8-1.6,3.9-3.7
	c0.1-2.1-1.6-3.8-3.7-3.9c-6-0.2-12-0.2-17.9-0.2c-21.3,0-42.9,1-64.2,3c-2.8,0.3-4.7,2.7-8,10.5c-2.2,5-4.7,11.9-7.4,20
	c-5.7,17.2-10.7,35.5-13,47.8c-1.4,7.4,0.4,12.7,5.4,15.8c8.2,5.1,18.4,4.9,18.5,4.9c0.4,0,0.8-0.1,1.2-0.3
	c16.4-7.2,41-11.4,67.5-11.4c26.3,0,50.9,4.1,67.3,11.3l0,0c0.6,0.3,1.4,0.4,2.6,0.4c1.4,0,3.3-0.2,5.5-0.6
	c3.2-0.6,7.8-1.8,12.1-4.4c4.9-3,6.9-8.6,5.5-15.9C210.5,134.2,205.5,116,199.6,98.7z M191.5,161c0.5,0.5,0.9,1.3,1,2.2
	C192.5,162.4,192.1,161.6,191.5,161z"/>
<path fill="#D4D3D3" d="M152,73.6c3,0.1,5.9,0.3,8.9,0.5c0.1,0,0.2,0,0.2,0c2,0,3.6-1.5,3.7-3.5c0.1-2.1-1.5-3.9-3.5-4
	c-3-0.2-6-0.3-9-0.5c-2.1-0.1-3.8,1.5-3.9,3.6S150,73.5,152,73.6z"/>
<path fill="#D4D3D3" d="M228.8,80.5h-12.6c-0.3-1.9-0.5-3.8-0.8-5.7c-1.1-8.1-8.3-15.4-16.1-16.3c-26.3-3-53-4.5-79.4-4.5
	s-53.1,1.5-79.4,4.5c-7.8,0.9-15,8.2-16.1,16.3c-0.3,1.9-0.5,3.8-0.8,5.7H11.3C5.1,80.5,0,85.6,0,91.8v37.6
	c0,6.2,5.1,11.3,11.3,11.3h3.8c-0.9,6.2-1.8,12.4-2.6,18.4c-0.6,3.9,0.4,7.7,2.8,10.9s6,5.3,10,5.9c8.1,1.1,16.4,2.1,24.7,2.9
	c0.5,0,1,0.1,1.4,0.1c2.2,0,4.3-0.5,6.3-1.4c14.4-6.5,37.6-10.4,62.1-10.4s47.8,3.9,62.1,10.4c2,0.9,4.1,1.4,6.3,1.4
	c0.5,0,1,0,1.4-0.1c8.3-0.8,16.6-1.8,24.7-2.9c4-0.6,7.6-2.7,10-5.9s3.4-7,2.8-10.9c-0.9-6-1.7-12.1-2.6-18.4h4.3
	c6.2,0,11.3-5.1,11.3-11.3V91.8C240,85.6,235,80.5,228.8,80.5z M11.3,133.1c-2.1,0-3.7-1.7-3.7-3.7V91.8c0-2.1,1.7-3.7,3.7-3.7h11.1
	c-2.1,15.5-4.2,30.5-6.3,45.1h-4.8V133.1z M218.3,165.4c-1.2,1.6-3,2.7-5,3c-8,1.1-16.2,2-24.4,2.8c-1.3,0.1-2.6-0.1-3.8-0.7
	c-15.5-7.1-39.3-11.1-65.2-11.1s-49.7,4-65.2,11.1c-1.2,0.6-2.6,0.8-3.8,0.7c-8.2-0.8-16.4-1.8-24.4-2.8c-2-0.3-3.8-1.3-5.1-3
	c-1.2-1.6-1.7-3.4-1.4-5.3c3.8-26.2,7.8-54.6,11.8-84.2c0.6-4.7,5.1-9.3,9.5-9.9c26-2.9,52.4-4.4,78.6-4.4s52.6,1.5,78.5,4.4
	c4.4,0.5,8.9,5.1,9.5,9.9c4,29.7,8,58,11.8,84.2C220,161.9,219.5,163.8,218.3,165.4z M232.5,129.4c0,2.1-1.7,3.7-3.7,3.7h-5.3
	c-2.1-14.5-4.2-29.6-6.3-45.1h11.6c2.1,0,3.7,1.7,3.7,3.7V129.4L232.5,129.4z"/>
<path fill="#D4D3D3" d="M108.5,133.1c-2.1,0-3.8,1.7-3.8,3.8s1.7,3.8,3.8,3.8H131c2.1,0,3.8-1.7,3.8-3.8s-1.7-3.8-3.8-3.8H108.5z"/>
<path fill="#D4D3D3" d="M86,136.9c0,4.1,3.4,7.5,7.5,7.5s7.5-3.4,7.5-7.5s-3.4-7.5-7.5-7.5S86,132.7,86,136.9z"/>
<path fill="#D4D3D3" d="M89.5,111.9c0.2,0,0.3,0,0.5,0l0,0c0.1,0,0.1,0,0.2,0l0,0l0,0l0,0c0.1,0,0.1,0,0.2,0c0,0,0,0,0.1,0
	c0,0,0,0,0.1,0s0.1,0,0.2,0h0.1l0,0l0,0l0,0c0.1,0,0.1,0,0.2,0l0,0l0,0c-0.4,0.9-0.8,1.6-1.3,2.4v0.1c-0.4,0.7-0.4,1.6,0,2.4
	c0.4,0.7,1.2,1.2,2.1,1.2h6.2c0.9,0,1.6-0.5,2.1-1.2c0.4-0.7,0.4-1.7,0-2.4l0,0c-0.5-0.8-0.9-1.5-1.3-2.4l0,0l0,0l0,0
	c0.1,0,0.1,0,0.2,0l0,0l0,0l0,0h0.1c0.1,0,0.1,0,0.2,0c0,0,0,0,0.1,0c0,0,0,0,0.1,0s0.1,0,0.2,0h0.1l0,0c0.1,0,0.2,0,0.2,0l0,0
	c0.2,0,0.3,0,0.5,0c1.9,0,3.7-0.7,5.2-1.9c0.8,1,1.6,2.2,2.5,3.3c0.7,1,1.5,2,2.4,3.2c0.5,0.6,1.2,1,1.9,1c0.8,0,1.5-0.4,1.9-1
	c0,0,0,0,0-0.1c0.4,0.4,1,0.6,1.6,0.6h0.6c0.8,0,1.6-0.4,2.1-1.1c0.1,0.5,0.4,1,0.8,1.3c0.1,0.8,0.5,1.5,1.2,2
	c0.4,0.7,1.2,1.2,2.1,1.2h1.5c0.9,0,1.7-0.5,2.1-1.2c0.6-0.4,1.1-1.1,1.2-1.9c0.2,0.1,0.5,0.1,0.8,0.1h6.1c0.9,0,1.7-0.5,2.1-1.2
	c0.4-0.7,0.4-1.7,0-2.4l0,0c-0.7-1.1-1.2-2-1.6-3.4h0.1c0.7,0.2,1.3,0.2,2,0.2c0.3,0,0.6,0,0.9-0.1c0.1,0.3,0.3,0.6,0.5,0.8l4.9,5.3
	c0.5,0.5,1.1,0.8,1.8,0.8h0.1c0.7,0,1.3-0.3,1.8-0.8l13.3-14.5c0.8-0.9,0.8-2.3,0-3.2L147,84.6c-0.5-0.5-1.1-0.8-1.8-0.8h-0.1
	c-0.7,0-1.3,0.3-1.8,0.8l-3.9,4.3c-1.4-3-4.4-5-7.9-5c-2.4,0-4.7,1-6.3,2.7c-1.7-1.7-3.9-2.7-6.2-2.7l0,0h-0.1l0,0
	c-2.4,0.1-4.6,1.2-6.2,3.1c-1.6-2-3.8-3.1-6.2-3.1l0,0h-0.1h-0.1c-2.8,0-5.5,1.4-7.1,3.8c-0.1-0.1-0.1-0.2-0.2-0.2
	c-0.6-0.8-1.3-1.6-2-2.4c-0.5-0.6-1.1-0.9-1.9-0.9c-0.7,0-1.4,0.3-1.9,0.9c-0.7,0.9-1.4,1.7-2.1,2.5c-5.8,7.1-8.7,10.6-9.6,15.3
	c-0.4,2.3,0.2,4.5,1.6,6.3C84.7,110.8,87.1,111.9,89.5,111.9z M126.3,110.3C126.3,110.4,126.2,110.4,126.3,110.3l-3.3,0.1
	c-0.1,0-0.1,0.1-0.1,0.1v1.4c0,0.1,0.1,0.1,0.1,0.1h0.6c0.1,0,0.1,0.1,0.1,0.1v1.5c0,0.1,0.1,0.1,0.1,0.1h0.6c0.1,0,0.1,0.1,0.1,0.1
	v1.4c0,0.1,0.1,0.1,0.1,0.1h0.6c0.1,0,0.1,0.1,0.1,0.1v1.4c0,0.1-0.1,0.1-0.1,0.1h-0.6c-0.1,0-0.1,0.1-0.1,0.1v0.6
	c0,0.1-0.1,0.1-0.1,0.1H123c-0.1,0-0.1-0.1-0.1-0.1V117c0-0.1-0.1-0.1-0.1-0.1h-0.6c-0.1,0-0.1-0.1-0.1-0.1v-1.4
	c0-0.1-0.1-0.1-0.1-0.1h-0.6c-0.1,0-0.1-0.1-0.1-0.1V114c0-0.1-0.1-0.1-0.1-0.1h-0.6c-0.1,0-0.1-0.1-0.1-0.1v-1.5
	c0-0.1-0.1-0.1-0.1-0.1h-1.5c-0.1,0-0.1,0.1-0.1,0.1v0.6c0,0.1-0.1,0.1-0.1,0.1h-0.6c-0.1,0-0.1,0.1-0.1,0.1v0.6
	c0,0.1-0.1,0.1-0.1,0.1h-0.6c-0.1,0-0.1,0.1-0.1,0.1v0.6c0,0.1-0.1,0.1-0.1,0.1h-0.6c-0.1,0-0.1-0.1-0.1-0.1v-14.2
	c0-0.1,0.1-0.1,0.1-0.1h0.6c0.1,0,0.1,0.1,0.1,0.1v0.6c0,0.1,0.1,0.1,0.1,0.1h0.6c0.1,0,0.1,0.1,0.1,0.1v0.6c0,0.1,0.1,0.1,0.1,0.1
	h0.6c0.1,0,0.1,0.1,0.1,0.1v0.6c0,0.1,0.1,0.1,0.1,0.1h0.6c0.1,0,0.1,0.1,0.1,0.1v0.6c0,0.1,0.1,0.1,0.1,0.1h0.6
	c0.1,0,0.1,0.1,0.1,0.1v0.6c0,0.1,0.1,0.1,0.1,0.1h0.6c0.1,0,0.1,0.1,0.1,0.1v0.6c0,0.1,0.1,0.1,0.1,0.1h0.6c0.1,0,0.1,0.1,0.1,0.1
	v0.6c0,0.1,0.1,0.1,0.1,0.1h0.6c0.1,0,0.1,0.1,0.1,0.1v0.6c0,0.1,0.1,0.1,0.1,0.1h0.6c0.1,0,0.1,0.1,0.1,0.1v0.6
	c0,0.1,0.1,0.1,0.1,0.1h0.6c0.1,0,0.1,0.1,0.1,0.1v0.6c0,0.1,0.1,0.1,0.1,0.1h0.6c0.1,0,0.1,0.1,0.1,0.1v0.6c0,0.1,0.1,0.1,0.1,0.1
	h0.6c0.1,0,0.1,0.1,0.1,0.1L126.3,110.3L126.3,110.3z M140,91.8l5.2-5.6l0,0l0,0l13.3,14.5l-13.3,14.5l0,0l0,0l-4.9-5.3
	c3.1-1.2,5.3-4.3,5.3-7.8c0-3.7-2.5-6.9-5.8-8c0.1-0.6,0.2-1.1,0.2-1.7C140,92.2,140,92,140,91.8z M131.6,86.2c3,0,5.4,2.1,6.1,4.8
	c0.1,0.5,0.2,1,0.2,1.5c0,0.7-0.1,1.3-0.3,1.9c-0.2,0.5-0.4,0.9-0.6,1.4c0.5,0,0.9-0.2,4.2,2.1c0.1,1.7,0.9,3.4,2.3,4.3
	c0,2.9-2.1,5.3-4.8,6c-0.5,0.1-1,0.2-1.5,0.2s-1-0.1-1.5-0.2c-1.5-0.3-2.7-1.2-3.6-2.4c0,1.5,0.1,3.7,0.4,4.8c0.6,2,1.3,3.3,2.1,4.6
	h-6.1c0.8-1.3,1.5-2.5,2.1-4.6c0.3-1.1,0.4-3.3,0.4-4.8c-1,1.3-2.4,2.2-4,2.4c0,0-0.1,0-0.1-0.1c-0.2-0.4-0.5-0.7-0.8-0.8
	c-0.2-0.4-0.5-0.7-0.8-0.8c-0.2-0.4-0.5-0.7-0.9-0.9c-0.2-0.4-0.5-0.7-0.8-0.8c-0.1-0.2-0.2-0.4-0.4-0.6c2.4-3.6,3.7-6.5,4.3-9.7
	c0.3-2,0-4-0.9-5.7C127.7,87.2,129.5,86.2,131.6,86.2z M106.3,86.2L106.3,86.2C106.4,86.2,106.4,86.2,106.3,86.2
	c2.6,0.1,5.1,1.7,6.4,5.8c1.3-4.1,3.8-5.8,6.3-5.8h0.1h0.1c1.9,0,3.8,1,5,2.5c0.6,0.8,1.1,1.8,1.3,2.9c0.1,0.7,0.1,1.4,0.1,2.1
	c0,0.1,0,0.3-0.1,0.4c-0.1,0.6-0.2,1.1-0.4,1.7c-0.6,2.2-1.7,4.4-3.4,7c-0.2-0.2-0.4-0.4-0.7-0.5c-0.2-0.4-0.5-0.7-0.8-0.8
	c-0.2-0.4-0.5-0.7-0.9-0.9c-0.2-0.4-0.5-0.7-0.9-0.8c-0.3-0.6-0.8-1-1.5-1h-0.6c-0.9,0-1.7,0.7-1.7,1.7v12.1c-0.6,0.8-1.3,1.7-2,2.7
	l0,0l0,0c-2.1-2.8-3.9-5.2-5.4-7.2c0.9-1.5,1.3-3.3,0.9-5.1c-0.7-4-3.1-7.3-7.7-12.9C101.6,87.6,103.9,86.2,106.3,86.2z M83.9,103.2
	c0.8-4.5,4.1-8.1,11.2-16.7c1.1,1.4,2.2,2.7,3.1,3.8c0.6,0.7,1.1,1.4,1.6,2c3.8,4.7,5.8,7.6,6.4,10.9c0.2,1.1,0.1,2.1-0.3,2.9
	c-0.3,0.7-0.7,1.3-1.2,1.8c-1.1,1.1-2.8,1.8-4.4,1.7l0,0c-0.1,0-0.1,0-0.2,0c0,0,0,0-0.1,0s-0.1,0-0.2,0h-0.1h-0.1h-0.1
	c-0.1,0-0.1,0-0.1,0s-0.1,0-0.2,0c0,0,0,0-0.1,0s-0.1,0-0.2,0c0,0,0,0-0.1,0s-0.1,0-0.2-0.1l0,0c-1.2-0.5-2.4-1.4-3.2-3
	c0,1.5,0.1,3.5,0.4,4.5c0.6,2.1,1.3,3.3,2.1,4.6H92c0.8-1.3,1.5-2.5,2.1-4.6c0.3-1,0.4-3,0.4-4.5c-0.8,1.6-2,2.5-3.2,3l0,0
	c-0.1,0-0.1,0-0.2,0.1c0,0,0,0-0.1,0s-0.1,0-0.2,0h-0.1c-0.1,0-0.1,0-0.2,0h-0.1h-0.1h-0.1h-0.1c-0.1,0-0.1,0-0.2,0c0,0,0,0-0.1,0
	s-0.1,0-0.2,0l0,0C86.5,109.7,83.2,106.9,83.9,103.2z"/>
</svg>
