<?xml version="1.0" encoding="utf-8"?>
<!-- Generator: Adobe Illustrator 19.0.0, SVG Export Plug-In . SVG Version: 6.00 Build 0)  -->
<svg version="1.1" xmlns="http://www.w3.org/2000/svg" xmlns:xlink="http://www.w3.org/1999/xlink" x="0px" y="0px"
	 viewBox="0 0 70 70" style="enable-background:new 0 0 70 70;" xml:space="preserve">
<style type="text/css">
	.st2{fill:#FFFFFF;}
</style>
<g id="tabs-shadow">
	<path id="video-review_1_" d="M15.6,28.7c-0.1-1-0.5-2-1-2.8L64.3,9.3l-2.6-7.8c-0.4-1.1-1.6-1.8-2.7-1.4L4.8,18.2
		c-1.1,0.4-1.8,1.6-1.4,2.7l1.3,3.8c-1.3,1.2-2.1,2.9-2.1,4.8C2.6,32,4,34.1,6,35.2v30.6C6,67,6.9,68,8.1,68h57.1
		c1.2,0,2.2-1,2.2-2.2V28.7H15.6z M47.3,6.5l6.6-2.2l-1.6,6.4L45.7,13L47.3,6.5z M31,12l6.6-2.2L36,16.2l-6.6,2.2L31,12z M9.1,32.8
		c-1.8,0-3.3-1.5-3.3-3.3c0-1.8,1.5-3.3,3.3-3.3c1.8,0,3.3,1.5,3.3,3.3C12.4,31.3,11,32.8,9.1,32.8z M14.7,17.4l6.6-2.2l-1.6,6.4
		l-6.6,2.2L14.7,17.4z M21.2,36.1h-6.9l3.5-5.6h6.9L21.2,36.1z M35,30.5h6.9l-3.5,5.6h-6.9L35,30.5z M29.4,60.4v-19l18.1,9.5
		L29.4,60.4z M55.5,36.1h-6.9l3.5-5.6h6.9L55.5,36.1z"/>
</g>
<g id="tabs">
	<path id="video-review" class="st2" d="M15.6,29.7c-0.1-1-0.5-2-1-2.8l49.8-16.6l-2.6-7.8c-0.4-1.1-1.6-1.8-2.7-1.4L4.8,19.2
		c-1.1,0.4-1.8,1.6-1.4,2.7l1.3,3.8c-1.3,1.2-2.1,2.9-2.1,4.8C2.6,33,4,35.1,6,36.2v30.6C6,68,6.9,69,8.1,69h57.1
		c1.2,0,2.2-1,2.2-2.2V29.7H15.6z M47.3,7.5l6.6-2.2l-1.6,6.4L45.7,14L47.3,7.5z M31,13l6.6-2.2L36,17.2l-6.6,2.2L31,13z M9.1,33.8
		c-1.8,0-3.3-1.5-3.3-3.3s1.5-3.3,3.3-3.3c1.8,0,3.3,1.5,3.3,3.3S11,33.8,9.1,33.8z M14.7,18.4l6.6-2.2l-1.6,6.4l-6.6,2.2L14.7,18.4
		z M21.2,37.1h-6.9l3.5-5.6h6.9L21.2,37.1z M35,31.5h6.9l-3.5,5.6h-6.9L35,31.5z M29.4,61.4v-19l18.1,9.5L29.4,61.4z M55.5,37.1
		h-6.9l3.5-5.6h6.9L55.5,37.1z"/>
</g>
</svg>
