<?xml version="1.0" encoding="utf-8"?>
<!-- Generator: Adobe Illustrator 17.1.0, SVG Export Plug-In . SVG Version: 6.00 Build 0)  -->
<!DOCTYPE svg PUBLIC "-//W3C//DTD SVG 1.1//EN" "http://www.w3.org/Graphics/SVG/1.1/DTD/svg11.dtd">
<svg version="1.1" id="Layer_1" xmlns="http://www.w3.org/2000/svg" xmlns:xlink="http://www.w3.org/1999/xlink" x="0px" y="0px"
	 viewBox="0 21 240 198" enable-background="new 0 21 240 198" xml:space="preserve">
<path id="barcrest_1_" fill="none" stroke="#1E2123" stroke-width="1.5" stroke-miterlimit="10" d="M47,149.4c-0.4,0,0.9,0,4.1,0
	c2.3,0,2.7-2.3,2.7-4.6c0-2.3-0.9-4.6-2.7-4.6c-3.6-0.5-4.5,0-4.5-0.5L47,149.4L47,149.4z M47,134.2c11.3,2.3,11.8-15.2,0-12.5
	V134.2L47,134.2z M79.2,130c0-2.3,0.4-3.7-0.4-5.6c-1.4-4.2-6.8-2.8-7.3,0C70.1,128.7,73.3,130.5,79.2,130L79.2,130z M152.2,133.7
	c0,3.2,0.4,5.1,1.8,6.9c0.4,0.9,2.3,1.8,3.6,0C159.5,139.3,154.5,135.6,152.2,133.7L152.2,133.7z M40.7,153.1v-35.5
	c0-1.4,0.9-2.3,2.7-2.3c4.1-0.5,3.6-0.5,8.2-0.5c5.4,0,7.7,2.3,10.4,7.8h3.2c2.3-9.2,13.2-7.4,14.1-4.6c1.8-3.7,5.9-1.4,6.3,0.5
	c0,1.8,0,2.8,0,4.2H92c0-1.8,0-2.3,0-3.7c0.4-5.1,6.8-3.2,6.3,0c0,0.5,0,1.4,0,3.7h10.4c1.4-4.6,5-6.5,9-6.5c4.1,0,7.7,1.4,9.1,6.5
	h3.2c0-2.3,0-2.3,0.4-4.2c0-4.2,5.9-2.8,5.9,0v4.2h10.4c1.8-3.7,4.5-5.6,8.6-6c4.1-0.5,7.7,1.8,9.5,6h1.8c2.3-4.2,5.5-6,10-5.6
	c4.1,0,6.8,1.8,9,5.6h4.9c-0.4-4.6,0-6.9,3.2-6.9c2.3,0.5,3.2,1.4,2.7,6.9v7.4v11.5c0,0,3.2,0,3.2,3.2c-0.4,3.2-3.2,3.2-3.2,3.2
	c0.4,4.6-0.4,6-3.2,5.6c-2.3,0-3.2-1.4-2.7-5.6c0,0-3.2,0-3.2-3.2c0.4-3.2,2.3-3.2,3.2-3.2V130h-5c-3.2,6.5-5.9,5.6-9.5,8.7
	c-0.9,0.5-1.8,3.2,1.4,3.7c1.8,0.5,2.7-0.9,4.5-1.4c3.2-0.9,5,3.2,2.3,5.6s-6.8,1.8-8.6,1.4c-1.4-0.5-5.4-1.4-6.8-5.1
	c-1.8-6,1.8-8.8,5.9-11.1c2.3-1.8,5.4-3.2,4.5-6c-0.9-2.3-3.6-3.2-5.5-2.3c-2.7,1.8-2.3,2.8-2.7,5.1c0,1.4-0.4,1.4-3.2,1.4
	c-1.8,0-2.7,0-5,0c-1.8,0-2.7-0.5-2.7-1.8c0-2.8-1.8-5.6-4.1-5.1c-2.7,0.5-3.6,2.3-3.6,4.6c5.9,4.2,6.3,3.7,10,7.8
	c1.8,1.8,2.7,7.4-0.4,10.1c-2.3,2.3-4.5,3.2-8.2,2.3c-3.2-0.5-5.4-1.8-6.8-5.1c-1.4-4.6-0.9-6.5-1.4-12.9h-9.5c0,3.7,0,6,0,7.8
	c0,4.2,3.6,3.2,6.3,3.7c1.8,0,3.2,4.6-0.4,6c-2.3,0.9-5-0.5-5.9-2.3c-0.4,2.8-6.3,3.7-6.3-1.4c0-5.6,0-3.2,0-13.9h-5.9
	c-1.4,0-1.8-0.5-1.8-1.8s0-3.2-0.9-4.6c-1.4-1.4-4.1-1.4-5.4,0c-1.4,1.8-2.2,12.8,0,16.6c1.4,1.8,4.1,0.9,4.5-0.9
	c0-2.8,5.4-4.2,5.4,0.9c-0.4,4.2-1.8,4.6-3.6,6c-1.8,1.4-8.6,2.3-11.3-1.4c-3.2-4.2-2.7-6.9-3.2-14.8h-9.5c0.4,4.2-0.4,7.4,0.9,8.7
	c1.8,1.8,2.7,1.8,5,1.8c2.7,0,3.2,4.6,1.4,5.6c-2.3,1.8-4.5,1.4-7.7-1.4c-0.9,4.6-5.9,1.8-5.9-0.9c0.4-1.4,0-9.2,0-13.9h-6.8
	l0.4,10.1c0,3.7-3.2,6.9-10.4,6.9c-0.4,0-4.1,0-6.3-1.8c-3.6-3.2,0-6.5,2.3-5.6c4.1,1.8,7.7,2.3,8.2-0.9c0-1.4-0.4-3.7,0-3.7
	c-11.8,0.5-12.7-4.2-13.2-5.1H62c0,0,0,3.2-1.4,5.1c-1.4,1.4-3.6,2.3-3.6,2.3c6.3,4.2,3.6,18.4-3.6,18.4H42.9
	C42,155.8,40.2,155.4,40.7,153.1L40.7,153.1z M206.2,94.6c0.6-0.4,1.3-0.8,1.7-1c0.1,0,0-0.2,0-0.2c-0.8,0.1-2.3,0.6-2.8,0.4
	c-0.4-0.3-0.9-1.8-1.2-2.5c0-0.1-0.2,0-0.2,0c0.1,0.5,0.1,1.3,0,1.9c-19.8-10.6-52.8-14-52.8-14s33.9,4.6,52.5,15
	c-0.3,0.4-1.5,0.9-2.2,1.2c-0.1,0,0,0.2,0,0.2c0.8-0.1,2.7-0.6,3.1-0.3c0.4,0.3,0.6,1.7,0.9,2.4c0,0.1,0.2,0,0.2,0
	c-0.1-0.7-0.2-1.7,0-2.2c5.8,3.6,9.7,7.8,10,12.7c0.5,10.7-15,15.2-30.4,20.4c-18.8,4.2-40.3,6.4-65,6.4s-46.6-2.2-65-6.4
	c-15.3-5.2-29.6-9.4-29.6-20.4c0-18.6,65.1-28.8,65.1-28.8s-69.1,7.1-69.1,32c0,18.4,50.7,34.2,98.4,34.2
	c48.2-0.5,98.4-15.8,98.4-34.2C218.4,104.5,213.4,99,206.2,94.6z M155.5,76.9c0,0,67.2,11.1,67.2,34.1c0,25.1-64,37.9-102.7,37.9
	c-37.4,0-103-12.7-103-37.9c0-24.5,69.4-34.1,69.4-34.1s-79,9.4-79,42.2c0,24.2,58,45.1,112.6,45.1c55.2-0.7,112.6-20.9,112.6-45.1
	C232.6,86,155.5,76.9,155.5,76.9z M47,82.2l-0.4,9.7c0-0.5,0.9,0,4.5-0.5c1.8,0,2.7-2.3,2.7-4.6c0-2.3-0.4-4.6-2.7-4.6
	C47.9,82.2,46.6,82.2,47,82.2L47,82.2z M47,97.5v12.5C58.8,112.7,58.4,95.2,47,97.5L47,97.5z M79.2,101.6c-5.9-0.5-9.1,1.4-7.7,5.6
	C72,109.9,79.2,110.5,79.2,101.6L79.2,101.6z M152.2,97.9c2.3-1.8,7.3-5.6,5.5-6.9c-1.4-1.8-3.2-0.9-3.6,0
	C152.7,92.9,152.2,94.7,152.2,97.9L152.2,97.9z M40.7,78.6c-0.4-2.3,1.4-2.8,2.3-2.8h10.4c7.3,0,10,14.3,3.6,18.4
	c0,0,2.3,0.9,3.6,2.3c1.4,1.8,1.4,5.1,1.4,5.1h4.1c0.4-0.9,1.4-5.6,13.2-5.1c-0.4,0,0-2.3,0-3.7c-0.4-3.2-4.1-2.8-8.2-0.9
	c-2.3,0.9-5.9-2.3-2.3-5.6c2.3-1.8,5.9-1.8,6.3-1.8c7.3,0,10.4,3.2,10.4,6.9l-0.4,10.1H92c0-4.6,0.4-12.5,0-13.9
	c0-2.8,5-5.6,5.9-0.9c3.2-2.8,5.5-3.2,7.7-1.4c1.8,0.9,1.4,5.6-1.4,5.6c-2.3,0-3.2,0-5,1.8c-1.4,1.4-0.9,8.7-0.9,8.7h9.5
	c0.4-7.8,0-10.6,3.2-14.8c2.7-3.7,9.5-2.8,11.3-1.4c1.8,1.4,3.2,1.8,3.6,6c0,5.1-5.4,3.7-5.4,0.9c-0.4-1.8-3.2-2.8-4.5-0.9
	c-2.2,3.8-1.4,14.8,0,16.6c1.4,1.4,4.1,1.4,5.4,0c0.9-1.4,0.9-3.2,0.9-4.6c0-1.4,0.4-1.8,1.8-1.8h5.9c0-10.6,0-8.3,0-13.9
	c0-5.1,5.9-4.2,6.3-1.4c0.9-1.8,3.6-3.2,5.9-2.3c3.6,1.4,2.3,6,0.4,6c-2.7,0.5-6.3-0.5-6.3,3.7c0,1.8,0,4.2,0,7.8h9.5
	c0.4-6.5,0-8.3,1.4-12.9c1.4-3.2,3.6-4.6,6.8-5.1c3.6-0.9,5.9,0,8.2,2.3c3.2,2.8,2.3,8.3,0.4,10.1c-3.6,4.2-4.1,3.7-10,7.8
	c0,2.3,0.9,4.2,3.6,4.6c2.3,0.5,4.1-2.3,4.1-5.1c0-1.4,0.9-1.8,2.7-1.8c2.3,0,3.2,0,5,0c2.7,0,3.2,0,3.2,1.4c0.4,2.3,0,3.2,2.7,5.1
	c1.8,0.9,4.5,0,5.5-2.3c0.9-2.8-2.3-4.2-4.5-6c-4.1-2.3-7.7-5.1-5.9-11.1c1.4-3.7,5.5-4.6,6.8-5.1c1.8-0.5,5.9-0.9,8.6,1.4
	s0.9,6.5-2.3,5.6c-1.8-0.5-2.7-1.8-4.5-1.4c-3.2,0.5-2.3,3.2-1.4,3.7c3.6,3.2,6.3,2.3,9.5,8.7h5V90c-0.9,0-2.7,0-3.2-3.2
	c0-3.2,3.2-3.2,3.2-3.2c-0.4-4.2,0.4-5.6,2.7-5.6c2.7-0.5,3.6,0.9,3.2,5.6c0,0,2.7,0,3.2,3.2c0,3.2-3.2,3.2-3.2,3.2v11.7v7.4
	c0.4,5.6-0.4,6.5-2.7,6.9c-3.2,0-3.6-2.3-3.2-6.9h-5c-2.3,3.7-5,5.6-9,5.6c-4.5,0.5-7.7-1.4-10-5.6H165c-1.8,4.2-5.5,6.5-9.5,6
	c-4.1-0.5-6.8-2.3-8.6-6h-10.4v4.2c0,2.8-5.9,4.2-5.9,0c-0.4-1.8-0.4-1.8-0.4-4.2h-3.2c-1.4,5.1-5,6.5-9.1,6.5c-4.1,0-7.7-1.8-9-6.5
	H98.3c0,2.3,0,3.2,0,3.7c0.4,3.2-5.9,5.1-6.3,0c0-1.4,0-1.8,0-3.7h-6.3v4.2c-0.4,1.8-4.5,4.2-6.3,0.5c-0.9,2.8-11.8,4.6-14.1-4.6H62
	c-2.7,5.6-5,7.8-10.4,7.8c-4.5,0-4.1,0-8.2-0.5c-1.8,0-2.7-0.9-2.7-2.3L40.7,78.6L40.7,78.6z"/>
<g id="barcrest">
	
		<linearGradient id="XMLID_6_" gradientUnits="userSpaceOnUse" x1="400.8617" y1="-209.5524" x2="400.8617" y2="-72.6914" gradientTransform="matrix(0.3 0 0 -0.3 -7.629395e-006 93)">
		<stop  offset="0.6687" style="stop-color:#FFFFFF"/>
		<stop  offset="1" style="stop-color:#007CBB"/>
	</linearGradient>
	<path id="XMLID_1310_" opacity="0.39" fill="url(#XMLID_6_)" enable-background="new    " d="M47,149.4c-0.4,0,0.9,0,4.1,0
		c2.3,0,2.7-2.3,2.7-4.6c0-2.3-0.9-4.6-2.7-4.6c-3.6-0.5-4.5,0-4.5-0.5L47,149.4L47,149.4z M47,134.2c11.3,2.3,11.8-15.2,0-12.5
		V134.2L47,134.2z M79.2,130c0-2.3,0.4-3.7-0.4-5.6c-1.4-4.2-6.8-2.8-7.3,0C70.1,128.7,73.3,130.5,79.2,130L79.2,130z M152.2,133.7
		c0,3.2,0.4,5.1,1.8,6.9c0.4,0.9,2.3,1.8,3.6,0C159.5,139.3,154.5,135.6,152.2,133.7L152.2,133.7z M40.7,153.1v-35.5
		c0-1.4,0.9-2.3,2.7-2.3c4.1-0.5,3.6-0.5,8.2-0.5c5.4,0,7.7,2.3,10.4,7.8h3.2c2.3-9.2,13.2-7.4,14.1-4.6c1.8-3.7,5.9-1.4,6.3,0.5
		c0,1.8,0,2.8,0,4.2H92c0-1.8,0-2.3,0-3.7c0.4-5.1,6.8-3.2,6.3,0c0,0.5,0,1.4,0,3.7h10.4c1.4-4.6,5-6.5,9-6.5c4.1,0,7.7,1.4,9.1,6.5
		h3.2c0-2.3,0-2.3,0.4-4.2c0-4.2,5.9-2.8,5.9,0v4.2h10.4c1.8-3.7,4.5-5.6,8.6-6c4.1-0.5,7.7,1.8,9.5,6h1.8c2.3-4.2,5.5-6,10-5.6
		c4.1,0,6.8,1.8,9,5.6h4.9c-0.4-4.6,0-6.9,3.2-6.9c2.3,0.5,3.2,1.4,2.7,6.9v7.4v11.5c0,0,3.2,0,3.2,3.2c-0.4,3.2-3.2,3.2-3.2,3.2
		c0.4,4.6-0.4,6-3.2,5.6c-2.3,0-3.2-1.4-2.7-5.6c0,0-3.2,0-3.2-3.2c0.4-3.2,2.3-3.2,3.2-3.2V130h-5c-3.2,6.5-5.9,5.6-9.5,8.7
		c-0.9,0.5-1.8,3.2,1.4,3.7c1.8,0.5,2.7-0.9,4.5-1.4c3.2-0.9,5,3.2,2.3,5.6s-6.8,1.8-8.6,1.4c-1.4-0.5-5.4-1.4-6.8-5.1
		c-1.8-6,1.8-8.8,5.9-11.1c2.3-1.8,5.4-3.2,4.5-6c-0.9-2.3-3.6-3.2-5.5-2.3c-2.7,1.8-2.3,2.8-2.7,5.1c0,1.4-0.4,1.4-3.2,1.4
		c-1.8,0-2.7,0-5,0c-1.8,0-2.7-0.5-2.7-1.8c0-2.8-1.8-5.6-4.1-5.1c-2.7,0.5-3.6,2.3-3.6,4.6c5.9,4.2,6.3,3.7,10,7.8
		c1.8,1.8,2.7,7.4-0.4,10.1c-2.3,2.3-4.5,3.2-8.2,2.3c-3.2-0.5-5.4-1.8-6.8-5.1c-1.4-4.6-0.9-6.5-1.4-12.9h-9.5c0,3.7,0,6,0,7.8
		c0,4.2,3.6,3.2,6.3,3.7c1.8,0,3.2,4.6-0.4,6c-2.3,0.9-5-0.5-5.9-2.3c-0.4,2.8-6.3,3.7-6.3-1.4c0-5.6,0-3.2,0-13.9h-5.9
		c-1.4,0-1.8-0.5-1.8-1.8s0-3.2-0.9-4.6c-1.4-1.4-4.1-1.4-5.4,0c-1.4,1.8-2.2,12.8,0,16.6c1.4,1.8,4.1,0.9,4.5-0.9
		c0-2.8,5.4-4.2,5.4,0.9c-0.4,4.2-1.8,4.6-3.6,6c-1.8,1.4-8.6,2.3-11.3-1.4c-3.2-4.2-2.7-6.9-3.2-14.8h-9.5c0.4,4.2-0.4,7.4,0.9,8.7
		c1.8,1.8,2.7,1.8,5,1.8c2.7,0,3.2,4.6,1.4,5.6c-2.3,1.8-4.5,1.4-7.7-1.4c-0.9,4.6-5.9,1.8-5.9-0.9c0.4-1.4,0-9.2,0-13.9h-6.8
		l0.4,10.1c0,3.7-3.2,6.9-10.4,6.9c-0.4,0-4.1,0-6.3-1.8c-3.6-3.2,0-6.5,2.3-5.6c4.1,1.8,7.7,2.3,8.2-0.9c0-1.4-0.4-3.7,0-3.7
		c-11.8,0.5-12.7-4.2-13.2-5.1H62c0,0,0,3.2-1.4,5.1c-1.4,1.4-3.6,2.3-3.6,2.3c6.3,4.2,3.6,18.4-3.6,18.4H42.9
		C42,155.8,40.2,155.4,40.7,153.1L40.7,153.1z"/>
	
		<linearGradient id="XMLID_7_" gradientUnits="userSpaceOnUse" x1="71.9359" y1="-64.5717" x2="727.9727" y2="-64.5717" gradientTransform="matrix(0.3 0 0 -0.3 -7.629395e-006 93)">
		<stop  offset="0" style="stop-color:#183A66"/>
		<stop  offset="0.25" style="stop-color:#0082BF"/>
		<stop  offset="0.5" style="stop-color:#7BB5E2"/>
		<stop  offset="0.75" style="stop-color:#007CBB"/>
		<stop  offset="1" style="stop-color:#183A66"/>
	</linearGradient>
	<path id="XMLID_1316_" fill="url(#XMLID_7_)" d="M206.2,94.6c0.6-0.4,1.3-0.8,1.7-1c0.1,0,0-0.2,0-0.2c-0.8,0.1-2.3,0.6-2.8,0.4
		c-0.4-0.3-0.9-1.8-1.2-2.5c0-0.1-0.2,0-0.2,0c0.1,0.5,0.1,1.3,0,1.9c-19.8-10.6-52.8-14-52.8-14s33.9,4.6,52.5,15
		c-0.3,0.4-1.5,0.9-2.2,1.2c-0.1,0,0,0.2,0,0.2c0.8-0.1,2.7-0.6,3.1-0.3c0.4,0.3,0.6,1.7,0.9,2.4c0,0.1,0.2,0,0.2,0
		c-0.1-0.7-0.2-1.7,0-2.2c5.8,3.6,9.7,7.8,10,12.7c0.5,10.7-15,15.2-30.4,20.4c-18.8,4.2-40.3,6.4-65,6.4s-46.6-2.2-65-6.4
		c-15.3-5.2-29.6-9.4-29.6-20.4c0-18.6,65.1-28.8,65.1-28.8s-69.1,7.1-69.1,32c0,18.4,50.7,34.2,98.4,34.2
		c48.2-0.5,98.4-15.8,98.4-34.2C218.4,104.5,213.4,99,206.2,94.6z"/>
	
		<linearGradient id="XMLID_8_" gradientUnits="userSpaceOnUse" x1="24.7222" y1="-91.8215" x2="775.4777" y2="-91.8215" gradientTransform="matrix(0.3 0 0 -0.3 -7.629395e-006 93)">
		<stop  offset="0" style="stop-color:#183A66"/>
		<stop  offset="0.25" style="stop-color:#0082BF"/>
		<stop  offset="0.5" style="stop-color:#7BB5E2"/>
		<stop  offset="0.75" style="stop-color:#007CBB"/>
		<stop  offset="1" style="stop-color:#183A66"/>
	</linearGradient>
	<path id="XMLID_1317_" fill="url(#XMLID_8_)" d="M155.5,76.9c0,0,67.2,11.1,67.2,34.1c0,25.1-64,37.9-102.7,37.9
		c-37.4,0-103-12.7-103-37.9c0-24.5,69.4-34.1,69.4-34.1s-79,9.4-79,42.2c0,24.2,58,45.1,112.6,45.1c55.2-0.7,112.6-20.9,112.6-45.1
		C232.6,86,155.5,76.9,155.5,76.9z"/>
	
		<linearGradient id="XMLID_9_" gradientUnits="userSpaceOnUse" x1="135.3909" y1="-11.092" x2="666.3326" y2="-11.092" gradientTransform="matrix(0.3 0 0 -0.3 -7.629395e-006 93)">
		<stop  offset="0" style="stop-color:#0061A2"/>
		<stop  offset="0.394" style="stop-color:#0078B1"/>
		<stop  offset="0.6994" style="stop-color:#0082BF"/>
		<stop  offset="1" style="stop-color:#7BB5E2"/>
	</linearGradient>
	<path id="XMLID_1388_" fill="url(#XMLID_9_)" d="M47,82.2l-0.4,9.7c0-0.5,0.9,0,4.5-0.5c1.8,0,2.7-2.3,2.7-4.6
		c0-2.3-0.4-4.6-2.7-4.6C47.9,82.2,46.6,82.2,47,82.2L47,82.2z M47,97.5v12.5C58.8,112.7,58.4,95.2,47,97.5L47,97.5z M79.2,101.6
		c-5.9-0.5-9.1,1.4-7.7,5.6C72,109.9,79.2,110.5,79.2,101.6L79.2,101.6z M152.2,97.9c2.3-1.8,7.3-5.6,5.5-6.9
		c-1.4-1.8-3.2-0.9-3.6,0C152.7,92.9,152.2,94.7,152.2,97.9L152.2,97.9z M40.7,78.6c-0.4-2.3,1.4-2.8,2.3-2.8h10.4
		c7.3,0,10,14.3,3.6,18.4c0,0,2.3,0.9,3.6,2.3c1.4,1.8,1.4,5.1,1.4,5.1h4.1c0.4-0.9,1.4-5.6,13.2-5.1c-0.4,0,0-2.3,0-3.7
		c-0.4-3.2-4.1-2.8-8.2-0.9c-2.3,0.9-5.9-2.3-2.3-5.6c2.3-1.8,5.9-1.8,6.3-1.8c7.3,0,10.4,3.2,10.4,6.9l-0.4,10.1H92
		c0-4.6,0.4-12.5,0-13.9c0-2.8,5-5.6,5.9-0.9c3.2-2.8,5.5-3.2,7.7-1.4c1.8,0.9,1.4,5.6-1.4,5.6c-2.3,0-3.2,0-5,1.8
		c-1.4,1.4-0.9,8.7-0.9,8.7h9.5c0.4-7.8,0-10.6,3.2-14.8c2.7-3.7,9.5-2.8,11.3-1.4c1.8,1.4,3.2,1.8,3.6,6c0,5.1-5.4,3.7-5.4,0.9
		c-0.4-1.8-3.2-2.8-4.5-0.9c-2.2,3.8-1.4,14.8,0,16.6c1.4,1.4,4.1,1.4,5.4,0c0.9-1.4,0.9-3.2,0.9-4.6c0-1.4,0.4-1.8,1.8-1.8h5.9
		c0-10.6,0-8.3,0-13.9c0-5.1,5.9-4.2,6.3-1.4c0.9-1.8,3.6-3.2,5.9-2.3c3.6,1.4,2.3,6,0.4,6c-2.7,0.5-6.3-0.5-6.3,3.7
		c0,1.8,0,4.2,0,7.8h9.5c0.4-6.5,0-8.3,1.4-12.9c1.4-3.2,3.6-4.6,6.8-5.1c3.6-0.9,5.9,0,8.2,2.3c3.2,2.8,2.3,8.3,0.4,10.1
		c-3.6,4.2-4.1,3.7-10,7.8c0,2.3,0.9,4.2,3.6,4.6c2.3,0.5,4.1-2.3,4.1-5.1c0-1.4,0.9-1.8,2.7-1.8c2.3,0,3.2,0,5,0
		c2.7,0,3.2,0,3.2,1.4c0.4,2.3,0,3.2,2.7,5.1c1.8,0.9,4.5,0,5.5-2.3c0.9-2.8-2.3-4.2-4.5-6c-4.1-2.3-7.7-5.1-5.9-11.1
		c1.4-3.7,5.5-4.6,6.8-5.1c1.8-0.5,5.9-0.9,8.6,1.4s0.9,6.5-2.3,5.6c-1.8-0.5-2.7-1.8-4.5-1.4c-3.2,0.5-2.3,3.2-1.4,3.7
		c3.6,3.2,6.3,2.3,9.5,8.7h5V90c-0.9,0-2.7,0-3.2-3.2c0-3.2,3.2-3.2,3.2-3.2c-0.4-4.2,0.4-5.6,2.7-5.6c2.7-0.5,3.6,0.9,3.2,5.6
		c0,0,2.7,0,3.2,3.2c0,3.2-3.2,3.2-3.2,3.2v11.7v7.4c0.4,5.6-0.4,6.5-2.7,6.9c-3.2,0-3.6-2.3-3.2-6.9h-5c-2.3,3.7-5,5.6-9,5.6
		c-4.5,0.5-7.7-1.4-10-5.6H165c-1.8,4.2-5.5,6.5-9.5,6c-4.1-0.5-6.8-2.3-8.6-6h-10.4v4.2c0,2.8-5.9,4.2-5.9,0
		c-0.4-1.8-0.4-1.8-0.4-4.2h-3.2c-1.4,5.1-5,6.5-9.1,6.5c-4.1,0-7.7-1.8-9-6.5H98.3c0,2.3,0,3.2,0,3.7c0.4,3.2-5.9,5.1-6.3,0
		c0-1.4,0-1.8,0-3.7h-6.3v4.2c-0.4,1.8-4.5,4.2-6.3,0.5c-0.9,2.8-11.8,4.6-14.1-4.6H62c-2.7,5.6-5,7.8-10.4,7.8
		c-4.5,0-4.1,0-8.2-0.5c-1.8,0-2.7-0.9-2.7-2.3L40.7,78.6L40.7,78.6z"/>
</g>
</svg>
