<?xml version="1.0" encoding="utf-8"?>
<!-- Generator: Adobe Illustrator 19.0.0, SVG Export Plug-In . SVG Version: 6.00 Build 0)  -->
<svg version="1.1" id="bingo" xmlns="http://www.w3.org/2000/svg" xmlns:xlink="http://www.w3.org/1999/xlink" x="0px" y="0px"
	 viewBox="-1319 781 240 240" style="enable-background:new -1319 781 240 240;" xml:space="preserve">
<style type="text/css">
	.st0{fill:#D4D3D3;}
</style>
<g>
	<path class="st0" d="M-1133.3,809c-2.5,0-4.6,0.9-6.3,2.6c-1.7,1.7-2.6,3.8-2.6,6.4c0,2.5,0.9,4.6,2.6,6.3c1.7,1.7,3.8,2.6,6.3,2.6
		c2.5,0,4.6-0.9,6.3-2.6c1.7-1.7,2.6-3.8,2.6-6.3c0-2.5-0.9-4.6-2.6-6.3C-1128.8,809.9-1130.9,809-1133.3,809z"/>
	<path class="st0" d="M-1273,821.5h-1.5v6.8h1.5c1.4,0,2.5-0.4,3.1-1.3c0.5-0.6,0.7-1.4,0.7-2.2c0-1-0.3-1.8-1-2.4
		C-1270.7,821.9-1271.7,821.5-1273,821.5z"/>
	<path class="st0" d="M-1270.7,812.5c0.6-0.6,0.9-1.3,0.9-2.2c0-0.9-0.3-1.6-0.9-2.2c-0.6-0.5-1.4-0.8-2.5-0.8h-1.3v6.1h1.5
		C-1272,813.4-1271.3,813.1-1270.7,812.5z"/>
	<path class="st0" d="M-1112.4,781.4h-175.3c-9.9,0-18,8.1-18,18v203.1c0,9.9,8.1,18,18,18h175.3c9.9,0,18-8.1,18-18V799.4
		C-1094.4,789.5-1102.5,781.4-1112.4,781.4z M-1108.6,899.5h-49.6v-47h31.6c9.9,0,18,8.1,18,18V899.5z M-1228.6,955.8v-45.1h59.1
		v45.1H-1228.6z M-1169.4,967v42.3h-59.1V967H-1169.4z M-1239.8,955.8h-51.6v-45.1h51.6V955.8z M-1169.4,852.5v47h-59.1v-47H-1169.4
		z M-1158.2,910.7h49.6v45.1h-49.6V910.7z M-1148.8,803.5c4.3-4,9.4-5.9,15.4-5.9c6,0,11.1,2,15.4,5.9c4.3,4,6.5,8.8,6.5,14.5
		c0,5.6-2.1,10.5-6.4,14.4c-4.3,4-9.4,6-15.5,6c-6,0-11.1-2-15.4-5.9c-4.3-4-6.5-8.8-6.5-14.5S-1153.1,807.4-1148.8,803.5z
		 M-1187.3,803.2c4.3-3.8,9.4-5.7,15.3-5.7c2.8,0,5.4,0.5,7.8,1.5c1.1,0.5,2.8,1.3,5,2.7l0.3,0.2l-6.5,9.7c-1-0.9-2.2-1.5-3.4-1.9
		c-1.3-0.4-2.4-0.6-3.5-0.6c-2.5,0-4.6,0.9-6.1,2.6c-1.6,1.7-2.3,3.9-2.3,6.6c0,2.3,0.5,4.2,1.6,5.7c1.4,2,3.4,3,6.2,3h1l1.3-0.2
		V823h-5.9l2.2-8.9h15.6V835c-2.1,1.1-4.5,1.9-7,2.5c-2.6,0.6-5,0.9-7.4,0.9c-6.7,0-11.9-2.3-15.7-6.9c-3.3-4-4.9-8.7-4.9-14.1
		C-1193.8,811.7-1191.6,807-1187.3,803.2z M-1233.1,798.5h11.9l11.3,18.6l0.1-18.6l11.8-0.9v39.9h-11.6l-11.7-18.8l-0.1,18.8
		l-11.8,0.9V798.5z M-1251.7,798.5l12.3-0.9v39.9l-12.3,0.9V798.5z M-1286.8,798.5h16c4.4,0,7.8,1.1,10.2,3.2
		c2.1,1.9,3.1,4.2,3.1,7.1c0,1.8-0.4,3.4-1.3,4.9c-0.8,1.4-2.1,2.5-3.8,3.3c2.1,0.9,3.7,2.2,4.8,4c0.9,1.6,1.4,3.4,1.4,5.5
		c0,3.3-1.2,5.9-3.6,8c-2.4,2-5.5,3.1-9.3,3.1h-17.7V798.5z M-1273.4,852.5h33.6v47h-51.6v-29
		C-1291.4,860.6-1283.3,852.5-1273.4,852.5z M-1291.4,991.3V967h51.6v42.3h-33.6C-1283.3,1009.3-1291.4,1001.2-1291.4,991.3z
		 M-1126.6,1009.3h-31.6V967h49.6v24.3C-1108.6,1001.2-1116.7,1009.3-1126.6,1009.3z"/>
</g>
<g>
	<path class="st0" d="M-1206.6,891.9l-8.1,0.7v-18l-5,2.1l-2.2-5.4l15.4-8.2V891.9z"/>
	<path class="st0" d="M-1179.4,873.7c0,2-0.4,4-1.2,6.1c-0.6,1.6-1.6,3.4-2.9,5.5c-0.8,1.3-2,3-3.5,5l-1.8,2.4l-8.7-2.7
		c1.2-1.1,2.3-2.3,3.3-3.5c1.3-1.5,2.5-3,3.6-4.5l-0.9,0.1l-0.9,0c-2.1,0-3.9-0.8-5.4-2.5c-1.6-1.8-2.4-4-2.4-6.6
		c0-2.8,0.9-5,2.7-6.8c1.9-1.9,4.6-2.9,7.9-2.9c3.1,0,5.6,1,7.4,3C-1180.3,868.1-1179.4,870.6-1179.4,873.7z M-1187.5,873.4
		c0-0.6-0.2-1.1-0.6-1.5c-0.4-0.4-0.9-0.6-1.6-0.6c-0.6,0-1.1,0.2-1.6,0.6c-0.4,0.4-0.7,0.9-0.7,1.5c0,0.6,0.2,1.1,0.6,1.6
		c0.4,0.4,0.9,0.6,1.6,0.6c0.6,0,1.1-0.2,1.6-0.6C-1187.8,874.5-1187.5,874-1187.5,873.4z"/>
</g>
<g>
	<path class="st0" d="M-1141,891.9l-8.1,0.7v-18l-5,2.1l-2.2-5.4l15.4-8.2V891.9z"/>
	<path class="st0" d="M-1112.7,863.8l-9.8,28.1l-9.7,0.7l8.2-20.8h-10l1.8-8H-1112.7z"/>
</g>
<g>
	<path class="st0" d="M-1256,883.8c0,2.3-0.7,4.2-2.1,5.7c-1.9,2-4.7,3.1-8.5,3.1c-3.7,0-6.6-1-8.4-3.1c-1.4-1.6-2.2-3.5-2.2-5.7
		c0-1.3,0.4-2.5,1.1-3.6c0.7-1.1,1.7-2,3.1-2.7c-1.3-0.8-2.2-1.7-2.7-2.9c-0.5-0.9-0.7-2-0.7-3.1c0-2.2,0.7-4,2.1-5.5
		c1.7-1.9,4.4-2.8,7.8-2.8c3.4,0,6,0.9,7.8,2.8c1.4,1.5,2.1,3.3,2.1,5.5c0,1.4-0.4,2.7-1.1,3.9c-0.6,0.8-1.3,1.5-2.3,2.1
		c1.3,0.7,2.4,1.6,3.1,2.7C-1256.3,881.2-1256,882.5-1256,883.8z M-1264.3,882.7c0-0.6-0.2-1.2-0.7-1.6c-0.5-0.5-1-0.7-1.6-0.7
		c-0.6,0-1.1,0.2-1.6,0.7c-0.5,0.5-0.7,1-0.7,1.7c0,0.6,0.2,1.2,0.7,1.6c0.5,0.5,1,0.7,1.6,0.7c0.7,0,1.2-0.2,1.7-0.7
		C-1264.5,883.9-1264.3,883.3-1264.3,882.7z M-1264.6,872.4c0-0.6-0.2-1-0.5-1.4c-0.4-0.4-0.8-0.5-1.4-0.5c-0.5,0-1,0.2-1.4,0.5
		c-0.4,0.4-0.6,0.8-0.6,1.4c0,0.5,0.2,1,0.6,1.4c0.4,0.4,0.8,0.6,1.4,0.6c0.6,0,1.1-0.2,1.4-0.6
		C-1264.8,873.4-1264.6,872.9-1264.6,872.4z"/>
</g>
<g>
	<path class="st0" d="M-1256,940.1l-1.7,8h-19.4l10.5-14.8c1.1-1.6,1.7-3,1.7-4c0-0.7-0.2-1.2-0.7-1.5c-0.5-0.4-1-0.6-1.6-0.6
		c-0.6,0-1.1,0.2-1.5,0.6c-0.4,0.4-0.6,0.9-0.6,1.5c0,1,0.5,1.7,1.5,2.2l-4.4,6.6c-1.5-0.7-2.7-1.8-3.6-3.1
		c-1.1-1.6-1.7-3.6-1.7-5.8c0-2.8,1-5.2,2.9-7c2-1.9,4.7-2.9,7.9-2.9c3.1,0,5.6,0.9,7.4,2.7s2.8,4.2,2.8,7.1c0,1.9-0.5,3.7-1.5,5.4
		c-0.7,1.3-1.8,2.7-3.3,4.3l-1.2,1.3H-1256z"/>
</g>
<g>
	<path class="st0" d="M-1271.1,1002.1l-8.1,0.7v-18l-5,2.1l-2.2-5.4l15.4-8.2V1002.1z"/>
	<path class="st0" d="M-1248.3,1002.1l-8.1,0.7v-18l-5,2.1l-2.2-5.4l15.4-8.2V1002.1z"/>
</g>
<g>
	<path class="st0" d="M-1205.7,1002.1l-8.1,0.7v-18l-5,2.1l-2.2-5.4l15.4-8.2V1002.1z"/>
	<path class="st0" d="M-1179.1,988c0,5.7-1.2,9.7-3.6,12.2c-1.7,1.7-4,2.6-6.8,2.6c-2.8,0-5.1-0.9-6.8-2.6
		c-2.5-2.5-3.7-6.5-3.7-12.2c0-5.4,1.1-9.4,3.4-11.8c1.7-1.9,4.1-2.9,7.1-2.9c3,0,5.3,0.9,7.1,2.8
		C-1180.3,978.6-1179.1,982.6-1179.1,988z M-1187.6,988.1c0-2.8-0.2-4.5-0.5-5.3c-0.3-0.8-0.8-1.1-1.6-1.1c-0.7,0-1.2,0.3-1.5,1
		c-0.4,0.9-0.5,2.7-0.5,5.5c0,2.8,0.1,4.5,0.5,5.3c0.3,0.8,0.8,1.1,1.6,1.1c0.7,0,1.3-0.4,1.6-1.1
		C-1187.7,992.6-1187.6,990.8-1187.6,988.1z"/>
</g>
<g>
	<path class="st0" d="M-1123.7,992.8c0,2.8-0.9,5.1-2.6,6.9c-2,2.1-4.7,3.2-8.2,3.2c-3.3,0-5.9-1.1-7.9-3.3c-1.7-2-2.6-4.4-2.6-7.3
		c0-2.1,0.6-4.5,1.7-7.1c0.9-2,2.2-4.3,3.9-6.7c1.3-1.9,2.6-3.6,4-5.2l8.8,2.5c-1.6,1.6-3.1,3.1-4.3,4.6c-1,1.2-1.9,2.3-2.6,3.4
		c0.5-0.2,1.1-0.2,1.7-0.2c1.9,0,3.6,0.7,5.2,2.1C-1124.7,987.4-1123.7,989.8-1123.7,992.8z M-1132.1,992.4c0-0.6-0.2-1.1-0.7-1.6
		c-0.5-0.5-1-0.7-1.6-0.7c-0.6,0-1.1,0.2-1.6,0.6c-0.5,0.4-0.7,1-0.7,1.6c0,0.6,0.2,1.2,0.7,1.6c0.4,0.4,1,0.7,1.6,0.7
		c0.7,0,1.2-0.2,1.6-0.7C-1132.3,993.5-1132.1,993-1132.1,992.4z"/>
</g>
<g>
	<path class="st0" d="M-1135.7,939.9c0,2.5-0.9,4.6-2.8,6.2c-2,1.7-4.7,2.6-8.2,2.6c-1.4,0-2.8-0.2-4.1-0.5
		c-1.8-0.4-3.6-1.2-5.3-2.2l3.2-6.8c0.8,0.5,1.7,1,2.6,1.3s1.9,0.5,2.9,0.5c1.1,0,1.9-0.3,2.4-0.8c0.4-0.4,0.6-0.8,0.6-1.4
		c0-0.9-0.4-1.4-1.1-1.7c-0.5-0.2-1.1-0.3-2-0.3h-2.3v-6.3h2.4c1,0,1.7-0.2,2.1-0.6c0.3-0.3,0.5-0.7,0.5-1.2c0-0.4-0.2-0.8-0.5-1.1
		c-0.5-0.4-1.2-0.6-2.2-0.6c-0.8,0-1.7,0.1-2.5,0.4c-0.9,0.3-1.7,0.7-2.6,1.3l-3.2-6.4c1.7-1.1,3.6-1.9,5.5-2.4
		c1.4-0.4,2.8-0.6,4.2-0.6c3.5,0,6.1,0.9,7.8,2.8c1.3,1.4,2,3.1,2,5c0,1.4-0.4,2.7-1.1,3.8c-0.8,1.1-1.8,1.9-3,2.5
		c1.4,0.5,2.6,1.3,3.5,2.4C-1136.2,936.9-1135.7,938.3-1135.7,939.9z"/>
	<path class="st0" d="M-1111.2,940.1l-1.7,8h-19.4l10.5-14.8c1.1-1.6,1.7-3,1.7-4c0-0.7-0.2-1.2-0.7-1.5s-1-0.6-1.6-0.6
		c-0.6,0-1.1,0.2-1.5,0.6c-0.4,0.4-0.6,0.9-0.6,1.5c0,1,0.5,1.7,1.5,2.2l-4.4,6.6c-1.5-0.7-2.7-1.8-3.6-3.1
		c-1.1-1.6-1.7-3.6-1.7-5.8c0-2.8,1-5.2,2.9-7c2-1.9,4.7-2.9,7.9-2.9c3.1,0,5.6,0.9,7.4,2.7c1.8,1.8,2.8,4.2,2.8,7.1
		c0,1.9-0.5,3.7-1.5,5.4c-0.7,1.3-1.8,2.7-3.3,4.3l-1.2,1.3H-1111.2z"/>
</g>
<g>
	<path class="st0" d="M-1200.1,940.1l-1.7,8h-19.4l10.5-14.8c1.1-1.6,1.7-3,1.7-4c0-0.7-0.2-1.2-0.7-1.5c-0.5-0.4-1-0.6-1.6-0.6
		c-0.6,0-1.1,0.2-1.5,0.6c-0.4,0.4-0.6,0.9-0.6,1.5c0,1,0.5,1.7,1.5,2.2l-4.4,6.6c-1.5-0.7-2.7-1.8-3.6-3.1
		c-1.1-1.6-1.7-3.6-1.7-5.8c0-2.8,1-5.2,2.9-7c2-1.9,4.7-2.9,7.9-2.9c3.1,0,5.6,0.9,7.4,2.7s2.8,4.2,2.8,7.1c0,1.9-0.5,3.7-1.5,5.4
		c-0.7,1.3-1.8,2.7-3.3,4.3l-1.2,1.3H-1200.1z"/>
	<path class="st0" d="M-1177.4,939.9c0,2.5-0.9,4.6-2.8,6.2c-2,1.7-4.7,2.6-8.2,2.6c-1.4,0-2.8-0.2-4.1-0.5
		c-1.8-0.4-3.6-1.2-5.3-2.2l3.2-6.8c0.8,0.5,1.7,1,2.6,1.3c0.9,0.3,1.9,0.5,2.9,0.5c1.1,0,1.9-0.3,2.4-0.8c0.4-0.4,0.6-0.8,0.6-1.4
		c0-0.9-0.4-1.4-1.1-1.7c-0.5-0.2-1.1-0.3-2-0.3h-2.3v-6.3h2.4c1,0,1.7-0.2,2.1-0.6c0.3-0.3,0.5-0.7,0.5-1.2c0-0.4-0.2-0.8-0.5-1.1
		c-0.5-0.4-1.2-0.6-2.2-0.6c-0.8,0-1.7,0.1-2.5,0.4c-0.9,0.3-1.7,0.7-2.6,1.3l-3.2-6.4c1.7-1.1,3.6-1.9,5.5-2.4
		c1.4-0.4,2.8-0.6,4.2-0.6c3.5,0,6.1,0.9,7.8,2.8c1.3,1.4,2,3.1,2,5c0,1.4-0.4,2.7-1.1,3.8c-0.8,1.1-1.8,1.9-3,2.5
		c1.4,0.5,2.6,1.3,3.5,2.4C-1177.9,936.9-1177.4,938.3-1177.4,939.9z"/>
</g>
</svg>
