<?xml version="1.0" encoding="utf-8"?>
<!-- Generator: Adobe Illustrator 19.0.0, SVG Export Plug-In . SVG Version: 6.00 Build 0)  -->
<svg version="1.1" id="online-casino" xmlns="http://www.w3.org/2000/svg" xmlns:xlink="http://www.w3.org/1999/xlink" x="0px"
	 y="0px" viewBox="-14 46 800 660" style="enable-background:new -14 46 800 660;" xml:space="preserve">
<style type="text/css">
	.st0{fill:url(#SVGID_1_);}
	.st1{fill:#FFFFFF;}
</style>
<radialGradient id="SVGID_1_" cx="386.4871" cy="372.0682" r="395.4959" gradientTransform="matrix(0.9639 0 0 -0.88 13.4651 703.42)" gradientUnits="userSpaceOnUse">
	<stop  offset="0.5" style="stop-color:#262626"/>
	<stop  offset="1" style="stop-color:#1A1A1A"/>
</radialGradient>
<rect x="-14" y="46" class="st0" width="800" height="660"/>
<path id="mobile-casino_1_" class="st1" d="M532.2,340.2c0,7.8-6.3,14.3-14.3,14.3h-7.3v-31h7.3c7.8,0,14.3,6.3,14.3,14.3V340.2z
	 M532.2,374.3c0-8-6.4-14.3-14.3-14.3h-7.3v31h7.3c8,0,14.3-6.4,14.3-14.3V374.3z M528.2,413.4v-2.3c0-8-6.4-14.3-14.3-14.3h-3.3v31
	h3.3C521.8,427.7,528.2,421.2,528.2,413.4z M539.7,283.7v-2c0-8-6.2-12.5-13.7-10.3l-15.4,2.6v33l15.6-4.3
	C533.6,300.2,539.7,291.7,539.7,283.7z M342.6,560.3c9.4-4.7,19.5-10.3,31-18.6c17.5-12.5,23.7-44.8,23.7-44.8h-43.5
	c-9.8,22.2-29.7,41-30.7,41.9c-1.2,1.2-2.8,1.7-4.4,1.7c-1.7,0-3.4-0.7-4.7-2.1c-2.4-2.6-2.2-6.6,0.4-9.1
	c0.3-0.3,23.6-22.2,30.2-44.3v-35.3h54.2c11.9,0,21.5-9,21.5-20s-9.6-20-21.5-20h-88.7v-62.5L275,370.7c-10.2,6.1-22,20-26.4,31.1
	L192,555.1c-2.5,6.6,1.3,12,8.3,12h118.5C326,567.1,336.3,563.5,342.6,560.3z M504.4,209.1v278.2c0,12-9.6,21.6-21.6,21.6H400
	c1.1-4.3,3.8-13.9,3.8-13.9s2.7,0.6,5.9,0.6c4.1,0,13.4-2.7,13.4-13.7c0-7.5-6.1-13.6-13.6-13.6c-7.5,0-13.6,6.1-13.6,13.6
	c0,3.6,1.4,6.6,3.6,9.1h-50c0,0,0.9-2.1,1.6-4.8v-21.9H491c3.2,0,5.9-2.5,5.9-5.9V222.6c0-3.2-2.5-5.9-5.9-5.9H328.8
	c-3.2,0-5.9,2.7-5.9,5.9v180.1h-7.5V282.2v-73.1c0-12,9.6-21.6,21.6-21.6h145.8C494.7,187.5,504.4,197.2,504.4,209.1z M433,202.8
	c0-1.5-1.2-2.8-2.8-2.8h-38.5c-1.5,0-2.8,1.2-2.8,2.8s1.2,2.8,2.8,2.8h38.5C431.8,205.5,433,204.3,433,202.8z M474.9,298.3
	c3.1,7.8,4.7,16.4,4.7,25.2c0,8.2-1.4,16-4.1,23.4c-2.7,7.4-6.4,14.4-11.3,20.3c-10.5,12.9-25.4,22.2-42.7,25c-3.9,0.6-7.8,1-11.7,1
	c-4.1,0-8-0.4-11.7-1c-17.2-2.9-32.2-11.9-42.7-25c-4.7-6-8.6-12.9-11.3-20.3s-4.1-15.2-4.1-23.4c0-8.8,1.6-17.4,4.7-25.2
	c2.9-7.2,7-14,11.9-19.9c10.5-12.3,25-20.7,41.4-23.6c3.9-0.6,7.8-1,11.7-1s7.8,0.4,11.7,1c16.4,2.9,31,11.3,41.4,23.6
	C467.9,284.1,472,290.9,474.9,298.3L474.9,298.3z M466.7,303c-2.7-7.4-6.8-14.2-11.9-20.1l-12.3,7.2c5.5,5.5,9.8,12.3,12.1,19.9
	L466.7,303L466.7,303z M447.2,323.5c0-20.5-16.8-37.3-37.3-37.3s-37.3,16.8-37.3,37.3c0,20.5,16.8,37.3,37.3,37.3
	S447.2,344,447.2,323.5L447.2,323.5z M409.9,263c-3.9,0-7.8,0.4-11.7,1.2v14.2c3.7-0.8,7.6-1.4,11.7-1.4s8,0.4,11.7,1.4v-14.2
	C417.7,263.4,413.8,263,409.9,263L409.9,263z M365.1,283.1c-5.3,5.7-9.4,12.5-12.1,19.9l12.3,7.2c2.3-7.6,6.6-14.6,12.1-19.9
	L365.1,283.1L365.1,283.1z M352.4,342.2c2.5,7.4,6.4,14.4,11.3,20.1l12.3-7c-5.3-5.5-9.2-12.5-11.3-20.3L352.4,342.2L352.4,342.2z
	 M409.9,384c3.9,0,7.8-0.4,11.7-1.2v-14.2c-3.7,0.8-7.6,1.4-11.7,1.4s-8-0.4-11.7-1.4v14.2C402.1,383.6,406,384,409.9,384L409.9,384
	z M456,362.5c4.9-6,8.8-12.9,11.3-20.1l-12.3-7.2c-2.1,7.6-6,14.6-11.3,20.3L456,362.5L456,362.5z M413.8,318.4
	c8.4,3.1,11.7,6.8,11.9,13.3c0,6.2-4.5,11.5-12.5,12.9v3.7c0,2.1-1.4,3.5-3.5,3.5c-2.1,0-3.5-1.6-3.5-3.5v-3.1
	c-2.9,0-5.5-0.6-7.8-1.2c-2.3-0.8-3.7-3.1-3.1-5.5v-0.2c0.2-1,1-1.8,1.8-2.3s1.8-0.6,2.9-0.2c2.3,0.8,4.9,1.4,7.8,1.4
	c4.1,0,6.8-1.4,6.8-4.3c0-2.7-2.3-4.3-7.4-6.2c-7.4-2.5-12.5-6-12.5-12.7c0-6.2,4.3-11.1,11.7-12.5v-3.3c0-2.1,1.6-3.7,3.7-3.5
	c1.8,0.2,3.1,1.6,3.1,3.5v2.7c2.5,0,4.5,0.4,6.2,0.8c2.3,0.6,3.7,2.9,3.1,5.1v0.2c-0.4,1-1,1.8-1.8,2.3c-0.8,0.4-1.8,0.4-2.9,0.2
	c-1.6-0.6-3.7-1-6.4-1c-4.5,0-6,1.8-6,3.9C405.4,314.7,407.8,316.1,413.8,318.4L413.8,318.4z"/>
</svg>
