<?xml version="1.0" encoding="utf-8"?>
<!-- Generator: Adobe Illustrator 17.1.0, SVG Export Plug-In . SVG Version: 6.00 Build 0)  -->
<!DOCTYPE svg PUBLIC "-//W3C//DTD SVG 1.1//EN" "http://www.w3.org/Graphics/SVG/1.1/DTD/svg11.dtd">
<svg version="1.1" id="Layer_1" xmlns="http://www.w3.org/2000/svg" xmlns:xlink="http://www.w3.org/1999/xlink" x="0px" y="0px"
	 viewBox="0 21 240 198" enable-background="new 0 21 240 198" xml:space="preserve">
<path id="quickspin_1_" fill="none" stroke="#1E2123" stroke-width="1.5" stroke-miterlimit="10" d="M10.3,110.2
	c0-6.2,4.9-10.7,11.6-10.7h0.2c6.7,0,11.6,4.5,11.6,10.7c0,1.8-1.5,3.3-3.3,3.3s-3.3-1.5-3.3-3.3c0-2.8-2.5-4.1-5-4.1h-0.2
	c-2.4,0-5,1.2-5,4.1c0,1.8-1.5,3.3-3.3,3.3S10.3,112.1,10.3,110.2z M33.7,134c0-1.8-1.5-3.3-3.3-3.3c-1.8,0-3.3,1.5-3.3,3.3
	c0,2.8-2.5,4.1-5,4.1h-0.2c-2.4,0-5-1.2-5-4.1c0-1.8-1.5-3.3-3.3-3.3s-3.3,1.5-3.3,3.3c0,6.2,4.9,10.7,11.6,10.7h0.2
	c0.9,0,1.7-0.1,2.6-0.2l2.9,5.7c0.6,1.1,2.4,1.4,4,0.5l0,0c1.6-0.8,2.5-2.4,1.9-3.5l-2.9-5.7C32.5,139.6,33.7,137.1,33.7,134z
	 M16.9,130.8v-17.3c-0.9,0.9-2,1.4-3.3,1.4c-1.3,0-2.5-0.5-3.3-1.4v17.4c0.9-0.9,2-1.4,3.3-1.4C14.9,129.4,16.1,130,16.9,130.8z
	 M27,113.4v17.4c0.9-0.9,2-1.4,3.3-1.4c1.3,0,2.4,0.5,3.3,1.4v-17.3c-0.9,0.9-2,1.4-3.3,1.4C29.1,114.9,27.8,114.3,27,113.4z
	 M85,113.5c1.8,0,3.3-1.5,3.3-3.3c0-2.8,2.5-4.1,5-4.1h0.2c2.4,0,5,1.2,5,4.1c0,1.8,1.5,3.3,3.3,3.3c1.8,0,3.3-1.5,3.3-3.3
	c0-6.2-4.9-10.7-11.6-10.7h-0.2c-6.7,0-11.6,4.5-11.6,10.7C81.7,112.1,83.2,113.5,85,113.5z M101.7,130.7c-1.8,0-3.3,1.5-3.3,3.3
	c0,2.8-2.5,4.1-5,4.1h-0.2c-2.4,0-5-1.2-5-4.1c0-1.8-1.5-3.3-3.3-3.3s-3.3,1.5-3.3,3.3c0,6.2,4.9,10.7,11.6,10.7h0.2
	c6.7,0,11.6-4.5,11.6-10.7C105,132.2,103.6,130.7,101.7,130.7z M88.3,130.8v-17.3c-0.9,0.9-2,1.4-3.3,1.4c-1.3,0-2.5-0.5-3.3-1.4
	v17.4c0.9-0.9,2-1.4,3.3-1.4C86.3,129.4,87.4,130,88.3,130.8z M139.8,113.5c1.8,0,3.3-1.5,3.3-3.3c0-2.8,2.5-4.1,5-4.1h0.2
	c2.4,0,5,1.2,5,4.1c0,1.8,1.5,3.3,3.3,3.3c1.8,0,3.3-1.5,3.3-3.3c0-6.2-4.9-10.7-11.6-10.7H148c-6.7,0-11.6,4.5-11.6,10.7
	C136.4,112.1,137.9,113.5,139.8,113.5z M142.3,114.8c-1.1,0.7-2.4,0.8-3.7,0.4l13.1,17.9c0.2-1.3,0.9-2.5,2-3.2
	c1.1-0.7,2.4-0.8,3.6-0.4l-13.1-17.7C144,113,143.4,114.1,142.3,114.8z M156.5,130.7c-1.8,0-3.3,1.5-3.3,3.3c0,2.8-2.5,4.1-5,4.1
	H148c-2.4,0-5-1.2-5-4.1c0-1.8-1.5-3.3-3.3-3.3c-1.8,0-3.3,1.5-3.3,3.3c0,6.2,4.9,10.7,11.6,10.7h0.2c6.7,0,11.6-4.5,11.6-10.7
	C159.8,132.2,158.3,130.7,156.5,130.7z M59.5,130.7c-1.8,0-3.3,1.5-3.3,3.3c0,2.8-2.5,4.1-5,4.1H51c-2.4,0-5-1.2-5-4.1
	c0-1.8-1.5-3.3-3.3-3.3c-1.8,0-3.3,1.5-3.3,3.3c0,6.2,4.9,10.7,11.6,10.7h0.2c6.7,0,11.6-4.5,11.6-10.7
	C62.8,132.2,61.3,130.7,59.5,130.7z M59.5,99.5c-1.8,0-3.3,1.5-3.3,3.3v9.1v3.3v15.4c0.9-0.9,2-1.4,3.3-1.4c1.3,0,2.4,0.5,3.3,1.4
	v-15.3V112v-9.1C62.8,101,61.3,99.5,59.5,99.5z M46.1,130.6v-15.3V112v-9.1c0-1.8-1.5-3.3-3.3-3.3s-3.3,1.5-3.3,3.3v9.1v3.3v15.4
	c0.9-0.9,2-1.4,3.3-1.4C44.1,129.3,45.3,129.8,46.1,130.6z M75.6,115.3V112v-9.1c0-1.8-1.5-3.3-3.3-3.3c-1.8,0-3.3,1.5-3.3,3.3v9.1
	v3.3v14.1l0,0v12c0,1.8,1.5,3.3,3.3,3.3l0,0c1.8,0,3.3-1.5,3.3-3.3V129l0,0V115.3z M198.7,115.3V112v-9.1c0-1.8-1.5-3.3-3.3-3.3
	c-1.8,0-3.3,1.5-3.3,3.3v9.1v3.3v14.1l0,0v12c0,1.8,1.5,3.3,3.3,3.3l0,0c1.8,0,3.3-1.5,3.3-3.3V129l0,0V115.3z M210.7,120.2
	l-1.3-2.7l-1.6-3.3l-3.7-7.4v5.2v3.3v14.1l0,0v12c0,1.8,1.5,3.3,3.3,3.3l0,0c1.8,0,3.3-1.5,3.3-3.3V129l0,0L210.7,120.2L210.7,120.2
	z M223.1,127.4L223.1,127.4l-6.7-13.5l-1.6-3.2l-4.5-9c-0.9-1.8-3-2.6-4.6-1.8s-2.3,3-1.4,4.7l4.4,9l1.6,3.3l6.9,13.9l0,0l5.9,11.9
	c0.9,1.8,3,2.6,4.6,1.8l0,0c1.6-0.8,2.3-3,1.4-4.7L223.1,127.4z M229.7,129v-13.7V112v-9.1c0-1.8-1.5-3.3-3.3-3.3
	c-1.8,0-3.3,1.5-3.3,3.3v9.1v3.3v9.1l1.2,2.5l5.4,10.9L229.7,129L229.7,129z M115.3,117.8l-5.6,8.2c-0.9,1.2-0.3,3.1,1.2,4.1
	c1.5,1,3.4,0.9,4.3-0.3l5.8-8.4l0,0l6.4-9.3l1.6-2.2l4.3-6.2c0.9-1.2,0.3-3.1-1.2-4.1c-1.5-1-3.4-0.9-4.3,0.3l-4.3,6.2l-1.6,2.3
	L115.3,117.8L115.3,117.8z M130.1,133.5L130.1,133.5l-4.3-8.4l-1-2l-1.5-2.9l-1.2,1.8l-3,4.4l0.9,1.7l4.4,8.7l0,0l3.8,7.4
	c0.6,1.1,2.4,1.4,4,0.5l0,0c1.6-0.8,2.5-2.4,1.9-3.5L130.1,133.5z M115.8,114.7v-2.9v-9.2c0-1.8-1.5-3.3-3.3-3.3s-3.3,1.5-3.3,3.3
	v9.1v3.3v9.2l5-7.2L115.8,114.7z M110.1,131.2c-0.3-0.2-0.6-0.5-0.9-0.7v10.8c0,1.8,1.5,3.3,3.3,3.3l0,0c1.8,0,3.3-1.5,3.3-3.3V131
	c-0.7,0.8-1.7,1.2-2.9,1.2C112,132.1,110.9,131.8,110.1,131.2z M179,99.2C179,99.2,179,99.2,179,99.2l-4.5-0.1h-2.9h-4.2
	c-1.6,0-2.9,1.3-2.9,3.4c0,2.1,1.3,3.4,2.9,3.4h4.1h3h3.8c2.3,0.2,3.4,3.4,3.4,6.2v0.2c0,2.8-1,6.4-3.4,6.6h-3.8h-2.9h-4.2
	c-1.6,0-2.9,1.3-2.9,3.4c0,2.1,1.3,3.4,2.9,3.4h4.1h3h4.6c0,0,0,0,0-0.1c4.9-0.7,8.4-6.1,8.4-13.4v-0.2
	C187.4,104.9,183.9,99.9,179,99.2z M171.1,127.2h-3.7c-1.2,0-2.1-0.4-2.9-1.2v3.3l0,0v12c0,1.8,1.5,3.3,3.3,3.3l0,0
	c1.8,0,3.3-1.5,3.3-3.3V129l0,0V127.2z M171.1,117.7v-2.4V112v-4.7h-3.7c-1.2,0-2.1-0.4-2.9-1.2v5.8v3.3v3.7
	c0.7-0.7,1.7-1.2,2.9-1.2L171.1,117.7L171.1,117.7z"/>
<path id="quickspin" fill="#F26922" d="M10.3,110.2c0-6.2,4.9-10.7,11.6-10.7h0.2c6.7,0,11.6,4.5,11.6,10.7c0,1.8-1.5,3.3-3.3,3.3
	s-3.3-1.5-3.3-3.3c0-2.8-2.5-4.1-5-4.1h-0.2c-2.4,0-5,1.2-5,4.1c0,1.8-1.5,3.3-3.3,3.3S10.3,112.1,10.3,110.2z M33.7,134
	c0-1.8-1.5-3.3-3.3-3.3c-1.8,0-3.3,1.5-3.3,3.3c0,2.8-2.5,4.1-5,4.1h-0.2c-2.4,0-5-1.2-5-4.1c0-1.8-1.5-3.3-3.3-3.3
	s-3.3,1.5-3.3,3.3c0,6.2,4.9,10.7,11.6,10.7h0.2c0.9,0,1.7-0.1,2.6-0.2l2.9,5.7c0.6,1.1,2.4,1.4,4,0.5l0,0c1.6-0.8,2.5-2.4,1.9-3.5
	l-2.9-5.7C32.5,139.6,33.7,137.1,33.7,134z M16.9,130.8v-17.3c-0.9,0.9-2,1.4-3.3,1.4c-1.3,0-2.5-0.5-3.3-1.4v17.4
	c0.9-0.9,2-1.4,3.3-1.4C14.9,129.4,16.1,130,16.9,130.8z M27,113.4v17.4c0.9-0.9,2-1.4,3.3-1.4c1.3,0,2.4,0.5,3.3,1.4v-17.3
	c-0.9,0.9-2,1.4-3.3,1.4C29.1,114.9,27.8,114.3,27,113.4z M85,113.5c1.8,0,3.3-1.5,3.3-3.3c0-2.8,2.5-4.1,5-4.1h0.2
	c2.4,0,5,1.2,5,4.1c0,1.8,1.5,3.3,3.3,3.3c1.8,0,3.3-1.5,3.3-3.3c0-6.2-4.9-10.7-11.6-10.7h-0.2c-6.7,0-11.6,4.5-11.6,10.7
	C81.7,112.1,83.2,113.5,85,113.5z M101.7,130.7c-1.8,0-3.3,1.5-3.3,3.3c0,2.8-2.5,4.1-5,4.1h-0.2c-2.4,0-5-1.2-5-4.1
	c0-1.8-1.5-3.3-3.3-3.3s-3.3,1.5-3.3,3.3c0,6.2,4.9,10.7,11.6,10.7h0.2c6.7,0,11.6-4.5,11.6-10.7C105,132.2,103.6,130.7,101.7,130.7
	z M88.3,130.8v-17.3c-0.9,0.9-2,1.4-3.3,1.4c-1.3,0-2.5-0.5-3.3-1.4v17.4c0.9-0.9,2-1.4,3.3-1.4C86.3,129.4,87.4,130,88.3,130.8z
	 M139.8,113.5c1.8,0,3.3-1.5,3.3-3.3c0-2.8,2.5-4.1,5-4.1h0.2c2.4,0,5,1.2,5,4.1c0,1.8,1.5,3.3,3.3,3.3c1.8,0,3.3-1.5,3.3-3.3
	c0-6.2-4.9-10.7-11.6-10.7H148c-6.7,0-11.6,4.5-11.6,10.7C136.4,112.1,137.9,113.5,139.8,113.5z M142.3,114.8
	c-1.1,0.7-2.4,0.8-3.7,0.4l13.1,17.9c0.2-1.3,0.9-2.5,2-3.2c1.1-0.7,2.4-0.8,3.6-0.4l-13.1-17.7C144,113,143.4,114.1,142.3,114.8z
	 M156.5,130.7c-1.8,0-3.3,1.5-3.3,3.3c0,2.8-2.5,4.1-5,4.1H148c-2.4,0-5-1.2-5-4.1c0-1.8-1.5-3.3-3.3-3.3c-1.8,0-3.3,1.5-3.3,3.3
	c0,6.2,4.9,10.7,11.6,10.7h0.2c6.7,0,11.6-4.5,11.6-10.7C159.8,132.2,158.3,130.7,156.5,130.7z M59.5,130.7c-1.8,0-3.3,1.5-3.3,3.3
	c0,2.8-2.5,4.1-5,4.1H51c-2.4,0-5-1.2-5-4.1c0-1.8-1.5-3.3-3.3-3.3c-1.8,0-3.3,1.5-3.3,3.3c0,6.2,4.9,10.7,11.6,10.7h0.2
	c6.7,0,11.6-4.5,11.6-10.7C62.8,132.2,61.3,130.7,59.5,130.7z M59.5,99.5c-1.8,0-3.3,1.5-3.3,3.3v9.1v3.3v15.4
	c0.9-0.9,2-1.4,3.3-1.4c1.3,0,2.4,0.5,3.3,1.4v-15.3V112v-9.1C62.8,101,61.3,99.5,59.5,99.5z M46.1,130.6v-15.3V112v-9.1
	c0-1.8-1.5-3.3-3.3-3.3s-3.3,1.5-3.3,3.3v9.1v3.3v15.4c0.9-0.9,2-1.4,3.3-1.4C44.1,129.3,45.3,129.8,46.1,130.6z M75.6,115.3V112
	v-9.1c0-1.8-1.5-3.3-3.3-3.3c-1.8,0-3.3,1.5-3.3,3.3v9.1v3.3v14.1l0,0v12c0,1.8,1.5,3.3,3.3,3.3l0,0c1.8,0,3.3-1.5,3.3-3.3V129l0,0
	V115.3z M198.7,115.3V112v-9.1c0-1.8-1.5-3.3-3.3-3.3c-1.8,0-3.3,1.5-3.3,3.3v9.1v3.3v14.1l0,0v12c0,1.8,1.5,3.3,3.3,3.3l0,0
	c1.8,0,3.3-1.5,3.3-3.3V129l0,0V115.3z M210.7,120.2l-1.3-2.7l-1.6-3.3l-3.7-7.4v5.2v3.3v14.1l0,0v12c0,1.8,1.5,3.3,3.3,3.3l0,0
	c1.8,0,3.3-1.5,3.3-3.3V129l0,0L210.7,120.2L210.7,120.2z M223.1,127.4L223.1,127.4l-6.7-13.5l-1.6-3.2l-4.5-9
	c-0.9-1.8-3-2.6-4.6-1.8s-2.3,3-1.4,4.7l4.4,9l1.6,3.3l6.9,13.9l0,0l5.9,11.9c0.9,1.8,3,2.6,4.6,1.8l0,0c1.6-0.8,2.3-3,1.4-4.7
	L223.1,127.4z M229.7,129v-13.7V112v-9.1c0-1.8-1.5-3.3-3.3-3.3c-1.8,0-3.3,1.5-3.3,3.3v9.1v3.3v9.1l1.2,2.5l5.4,10.9L229.7,129
	L229.7,129z M115.3,117.8l-5.6,8.2c-0.9,1.2-0.3,3.1,1.2,4.1c1.5,1,3.4,0.9,4.3-0.3l5.8-8.4l0,0l6.4-9.3l1.6-2.2l4.3-6.2
	c0.9-1.2,0.3-3.1-1.2-4.1c-1.5-1-3.4-0.9-4.3,0.3l-4.3,6.2l-1.6,2.3L115.3,117.8L115.3,117.8z M130.1,133.5L130.1,133.5l-4.3-8.4
	l-1-2l-1.5-2.9l-1.2,1.8l-3,4.4l0.9,1.7l4.4,8.7l0,0l3.8,7.4c0.6,1.1,2.4,1.4,4,0.5l0,0c1.6-0.8,2.5-2.4,1.9-3.5L130.1,133.5z
	 M115.8,114.7v-2.9v-9.2c0-1.8-1.5-3.3-3.3-3.3s-3.3,1.5-3.3,3.3v9.1v3.3v9.2l5-7.2L115.8,114.7z M110.1,131.2
	c-0.3-0.2-0.6-0.5-0.9-0.7v10.8c0,1.8,1.5,3.3,3.3,3.3l0,0c1.8,0,3.3-1.5,3.3-3.3V131c-0.7,0.8-1.7,1.2-2.9,1.2
	C112,132.1,110.9,131.8,110.1,131.2z M179,99.2C179,99.2,179,99.2,179,99.2l-4.5-0.1h-2.9h-4.2c-1.6,0-2.9,1.3-2.9,3.4
	c0,2.1,1.3,3.4,2.9,3.4h4.1h3h3.8c2.3,0.2,3.4,3.4,3.4,6.2v0.2c0,2.8-1,6.4-3.4,6.6h-3.8h-2.9h-4.2c-1.6,0-2.9,1.3-2.9,3.4
	c0,2.1,1.3,3.4,2.9,3.4h4.1h3h4.6c0,0,0,0,0-0.1c4.9-0.7,8.4-6.1,8.4-13.4v-0.2C187.4,104.9,183.9,99.9,179,99.2z M171.1,127.2h-3.7
	c-1.2,0-2.1-0.4-2.9-1.2v3.3l0,0v12c0,1.8,1.5,3.3,3.3,3.3l0,0c1.8,0,3.3-1.5,3.3-3.3V129l0,0V127.2z M171.1,117.7v-2.4V112v-4.7
	h-3.7c-1.2,0-2.1-0.4-2.9-1.2v5.8v3.3v3.7c0.7-0.7,1.7-1.2,2.9-1.2L171.1,117.7L171.1,117.7z"/>
</svg>
