<?xml version="1.0" encoding="utf-8"?>
<!-- Generator: Adobe Illustrator 19.0.0, SVG Export Plug-In . SVG Version: 6.00 Build 0)  -->
<svg version="1.1" id="sic-bo" xmlns="http://www.w3.org/2000/svg" xmlns:xlink="http://www.w3.org/1999/xlink" x="0px" y="0px"
	 viewBox="-1319 781 240 240" style="enable-background:new -1319 781 240 240;" xml:space="preserve">
<style type="text/css">
	.st0{fill:#D4D3D3;}
</style>
<path class="st0" d="M-1091.1,914.3l-73.9-18.7c-8-2-16.2,2.9-18.2,10.9l-18.7,73.9c-2,8,2.9,16.2,10.9,18.2l73.9,18.7
	c8,2,16.2-2.9,18.2-10.9l18.7-73.9C-1078.3,924.5-1083.1,916.3-1091.1,914.3z M-1177.8,990.9c-5.5-1.4-8.8-7-7.4-12.5
	c1.4-5.5,7-8.8,12.5-7.4c5.5,1.4,8.8,7,7.4,12.5C-1166.7,989-1172.3,992.3-1177.8,990.9z M-1170.3,961.1c-5.5-1.4-8.8-7-7.4-12.5
	c1.4-5.5,7-8.8,12.5-7.4c5.5,1.4,8.8,7,7.4,12.5C-1159.2,959.2-1164.8,962.5-1170.3,961.1z M-1162.8,931.3c-5.5-1.4-8.8-7-7.4-12.5
	c1.4-5.5,7-8.8,12.5-7.4c5.5,1.4,8.8,7,7.4,12.5C-1151.7,929.4-1157.3,932.7-1162.8,931.3z M-1124.9,1004.3c-5.5-1.4-8.8-7-7.4-12.5
	c1.4-5.5,7-8.8,12.5-7.4c5.5,1.4,8.8,7,7.4,12.5C-1113.9,1002.3-1119.4,1005.7-1124.9,1004.3z M-1117.4,974.5
	c-5.5-1.4-8.8-7-7.4-12.5c1.4-5.5,7-8.8,12.5-7.4c5.5,1.4,8.8,7,7.4,12.5C-1106.3,972.5-1111.9,975.9-1117.4,974.5z M-1109.9,944.7
	c-5.5-1.4-8.8-7-7.4-12.5c1.4-5.5,7-8.8,12.5-7.4c5.5,1.4,8.8,7,7.4,12.5C-1098.8,942.8-1104.4,946.1-1109.9,944.7z"/>
<path class="st0" d="M-1234.6,894.7l-73,21.8c-7.9,2.4-12.4,10.7-10,18.6l21.8,73c2.4,7.9,10.7,12.4,18.6,10l73-21.8
	c7.9-2.4,12.4-10.7,10-18.6l-21.8-73C-1218.3,896.9-1226.7,892.4-1234.6,894.7z M-1269.7,1004.8c-5.4,1.6-11.1-1.5-12.8-6.9
	c-1.6-5.4,1.5-11.1,6.9-12.8c5.4-1.6,11.1,1.5,12.8,6.9C-1261.2,997.4-1264.3,1003.2-1269.7,1004.8z M-1287.3,946
	c-5.4,1.6-11.1-1.5-12.8-6.9c-1.6-5.4,1.5-11.1,6.9-12.8c5.4-1.6,11.1,1.5,12.8,6.9C-1278.8,938.7-1281.8,944.4-1287.3,946z
	 M-1251.5,967.3c-5.4,1.6-11.1-1.5-12.8-6.9c-1.6-5.4,1.5-11.1,6.9-12.8c5.4-1.6,11.1,1.5,12.8,6.9
	C-1243,960-1246.1,965.7-1251.5,967.3z M-1217.5,989.2c-5.4,1.6-11.1-1.5-12.8-6.9c-1.6-5.4,1.5-11.1,6.9-12.8
	c5.4-1.6,11.1,1.5,12.8,6.9C-1209,981.8-1212.1,987.6-1217.5,989.2z M-1235.1,930.4c-5.4,1.6-11.1-1.5-12.8-6.9
	c-1.6-5.4,1.5-11.1,6.9-12.8c5.4-1.6,11.1,1.5,12.8,6.9C-1226.6,923.1-1229.7,928.8-1235.1,930.4z"/>
<path class="st0" d="M-1200.1,785.3l-63.6,37.9c-6.9,4.1-9.1,13.1-5,19.9l37.9,63.6c4.1,6.9,13.1,9.1,19.9,5l63.6-37.9
	c6.9-4.1,9.1-13.1,5-19.9l-37.9-63.6C-1184.3,783.5-1193.3,781.2-1200.1,785.3z M-1207.1,897.4c-4.7,2.8-10.8,1.3-13.7-3.5
	c-2.8-4.7-1.3-10.8,3.5-13.7c4.7-2.8,10.8-1.3,13.7,3.5C-1200.8,888.5-1202.4,894.6-1207.1,897.4z M-1222.4,871.8
	c-4.7,2.8-10.8,1.3-13.7-3.5c-2.8-4.7-1.3-10.8,3.5-13.7c4.7-2.8,10.8-1.3,13.7,3.5C-1216.1,862.8-1217.6,869-1222.4,871.8z
	 M-1237.6,846.2c-4.7,2.8-10.8,1.3-13.7-3.5c-2.8-4.7-1.3-10.8,3.5-13.7c4.7-2.8,10.8-1.3,13.7,3.5S-1232.9,843.3-1237.6,846.2z
	 M-1161.6,870.3c-4.7,2.8-10.8,1.3-13.7-3.5c-2.8-4.7-1.3-10.8,3.5-13.7c4.7-2.8,10.8-1.3,13.7,3.5
	C-1155.3,861.3-1156.9,867.5-1161.6,870.3z M-1176.9,844.7c-4.7,2.8-10.8,1.3-13.7-3.5s-1.3-10.8,3.5-13.7
	c4.7-2.8,10.8-1.3,13.7,3.5C-1170.6,835.7-1172.2,841.9-1176.9,844.7z M-1192.2,819.1c-4.7,2.8-10.8,1.3-13.7-3.5
	c-2.8-4.7-1.3-10.8,3.5-13.7c4.7-2.8,10.8-1.3,13.7,3.5C-1185.9,810.1-1187.4,816.2-1192.2,819.1z"/>
</svg>
