<?xml version="1.0" encoding="utf-8"?>
<!-- Generator: Adobe Illustrator 17.1.0, SVG Export Plug-In . SVG Version: 6.00 Build 0)  -->
<!DOCTYPE svg PUBLIC "-//W3C//DTD SVG 1.1//EN" "http://www.w3.org/Graphics/SVG/1.1/DTD/svg11.dtd">
<svg version="1.1" id="Layer_1" xmlns="http://www.w3.org/2000/svg" xmlns:xlink="http://www.w3.org/1999/xlink" x="0px" y="0px"
	 viewBox="0 21 240 198" enable-background="new 0 21 240 198" xml:space="preserve">
<path id="worldmatch_1_" fill="none" stroke="#1E2123" stroke-width="1.5" stroke-linejoin="round" stroke-miterlimit="10" d="
	M15.4,167.5L10,144.6h5.5l1.7,9.4c0.5,2.7,1,5.7,1.3,8h0.1c0.4-2.5,0.9-5.2,1.5-8l1.9-9.4h5.5l1.8,9.6c0.5,2.7,0.9,5.1,1.2,7.7h0.1
	c0.3-2.5,0.8-5.2,1.3-8l1.9-9.4H39l-5.9,22.9h-5.5l-1.9-9.9c-0.4-2.3-0.8-4.4-1.1-7.1h-0.1c-0.4,2.6-0.8,4.8-1.3,7.1l-2.1,9.9
	L15.4,167.5L15.4,167.5z M62.1,155.8c0,7.5-4.5,12.1-11.1,12.1c-6.7,0-10.7-5.1-10.7-11.7c0-6.9,4.4-12,11.1-12
	C58.3,144.2,62.1,149.5,62.1,155.8z M45.7,156.1c0,4.5,2.1,7.7,5.5,7.7c3.5,0,5.5-3.3,5.5-7.8c0-4.1-1.9-7.7-5.5-7.7
	C47.7,148.3,45.7,151.7,45.7,156.1z M65.5,144.9c1.7-0.3,4.1-0.5,6.8-0.5c3.4,0,5.7,0.5,7.3,1.8c1.3,1.1,2.1,2.7,2.1,4.8
	c0,2.9-2.1,4.9-4,5.6v0.1c1.6,0.6,2.5,2.2,3,4.3c0.7,2.6,1.4,5.6,1.9,6.5h-5.3c-0.4-0.6-0.9-2.5-1.6-5.4c-0.6-2.9-1.6-3.6-3.7-3.7
	h-1.5v9h-5.1L65.5,144.9L65.5,144.9z M70.6,154.8h2c2.6,0,4.1-1.3,4.1-3.3c0-2.1-1.4-3.2-3.8-3.2c-1.2,0-1.9,0.1-2.3,0.2V154.8z
	 M85.4,144.6h5.2v18.6h9v4.4H85.4V144.6z M102.6,144.9c1.9-0.3,4.4-0.5,6.9-0.5c4.3,0,7.1,0.8,9.3,2.5c2.3,1.8,3.8,4.6,3.8,8.6
	c0,4.4-1.6,7.4-3.8,9.3c-2.4,2-6,3-10.5,3c-2.7,0-4.6-0.2-5.8-0.4V144.9z M107.8,163.6c0.4,0.1,1.1,0.1,1.8,0.1c4.6,0,7.7-2.5,7.7-8
	c0-4.8-2.7-7.3-7.1-7.3c-1.1,0-1.9,0.1-2.3,0.2V163.6z M145.3,158.7c-0.1-2.7-0.2-6.1-0.2-9.4H145c-0.7,2.9-1.7,6.2-2.5,8.9
	l-2.8,8.9h-4l-2.4-8.9c-0.8-2.7-1.5-5.9-2.1-8.9h-0.1c-0.1,3.1-0.2,6.6-0.4,9.5l-0.4,8.7h-4.8l1.5-22.9h6.9l2.2,7.7
	c0.7,2.7,1.4,5.5,1.9,8.2h0.1c0.6-2.7,1.4-5.7,2.1-8.2l2.4-7.6h6.7l1.2,22.9h-5L145.3,158.7z M159.8,161.6l-1.6,5.9h-5.3l6.9-22.9
	h6.7l7.1,22.9H168l-1.7-5.9H159.8z M165.5,157.7l-1.4-4.9c-0.4-1.3-0.8-3.1-1.1-4.4h-0.1c-0.3,1.3-0.7,3.1-1,4.4l-1.3,4.9H165.5z
	 M178.2,148.9H172v-4.4h17.4v4.4h-6.2v18.6h-5.2V148.9z M207.9,166.9c-1,0.5-3.1,1-5.8,1c-7.8,0-11.9-4.9-11.9-11.5
	c0-7.8,5.5-12.2,12.4-12.2c2.7,0,4.7,0.6,5.6,1l-1,4.1c-1-0.4-2.5-0.8-4.3-0.8c-4.1,0-7.3,2.5-7.3,7.6c0,4.6,2.7,7.5,7.3,7.5
	c1.5,0,3.3-0.4,4.3-0.8L207.9,166.9z M216.4,144.6v8.8h8.4v-8.8h5.1v22.9h-5.1v-9.6h-8.4v9.6h-5.2v-22.9H216.4z M175.7,99V72.1
	h-28.4l-47.3,61h28.7l20.7-26.8l0.1,26.8h26.4l20.8-26.8v26.8h6.8l20.1-26.8V72.1H196L175.7,99z M128.7,133.1l20.7-26.8l0.1,26.8
	h26.4l20.8-26.8v26.8h6.8l20.2-26.8v-0.5c-27.2-4.2-60.5-6.9-96.6-7.4l-26.9,34.7H128.7z M84.6,98.9l-0.1-26.8H58.1L37.3,98.9V72.1
	h-27v61h27.5l20.3-26.9v26.9h28.4l47.2-61h-28.7L84.6,98.9z M37.9,133.1l20.3-26.9v26.9h28.4l27-34.8c-0.4,0-0.9,0-1.3,0
	c-9.5,0-18.7,0.2-27.7,0.6v0v0c-28.1,1.2-53.2,4.2-74.2,8.4v25.8L37.9,133.1L37.9,133.1z M229.9,106.6v26.6h-20.2L229.9,106.6z"/>
<g id="worldmatch">
	<path fill="#5E5C4A" d="M15.4,167.5L10,144.6h5.5l1.7,9.4c0.5,2.7,1,5.7,1.3,8h0.1c0.4-2.5,0.9-5.2,1.5-8l1.9-9.4h5.5l1.8,9.6
		c0.5,2.7,0.9,5.1,1.2,7.7h0.1c0.3-2.5,0.8-5.2,1.3-8l1.9-9.4H39l-5.9,22.9h-5.5l-1.9-9.9c-0.4-2.3-0.8-4.4-1.1-7.1h-0.1
		c-0.4,2.6-0.8,4.8-1.3,7.1l-2.1,9.9L15.4,167.5L15.4,167.5z M62.1,155.8c0,7.5-4.5,12.1-11.1,12.1c-6.7,0-10.7-5.1-10.7-11.7
		c0-6.9,4.4-12,11.1-12C58.3,144.2,62.1,149.5,62.1,155.8z M45.7,156.1c0,4.5,2.1,7.7,5.5,7.7c3.5,0,5.5-3.3,5.5-7.8
		c0-4.1-1.9-7.7-5.5-7.7C47.7,148.3,45.7,151.7,45.7,156.1z M65.5,144.9c1.7-0.3,4.1-0.5,6.8-0.5c3.4,0,5.7,0.5,7.3,1.8
		c1.3,1.1,2.1,2.7,2.1,4.8c0,2.9-2.1,4.9-4,5.6v0.1c1.6,0.6,2.5,2.2,3,4.3c0.7,2.6,1.4,5.6,1.9,6.5h-5.3c-0.4-0.6-0.9-2.5-1.6-5.4
		c-0.6-2.9-1.6-3.6-3.7-3.7h-1.5v9h-5.1L65.5,144.9L65.5,144.9z M70.6,154.8h2c2.6,0,4.1-1.3,4.1-3.3c0-2.1-1.4-3.2-3.8-3.2
		c-1.2,0-1.9,0.1-2.3,0.2V154.8z M85.4,144.6h5.2v18.6h9v4.4H85.4V144.6z M102.6,144.9c1.9-0.3,4.4-0.5,6.9-0.5
		c4.3,0,7.1,0.8,9.3,2.5c2.3,1.8,3.8,4.6,3.8,8.6c0,4.4-1.6,7.4-3.8,9.3c-2.4,2-6,3-10.5,3c-2.7,0-4.6-0.2-5.8-0.4V144.9z
		 M107.8,163.6c0.4,0.1,1.1,0.1,1.8,0.1c4.6,0,7.7-2.5,7.7-8c0-4.8-2.7-7.3-7.1-7.3c-1.1,0-1.9,0.1-2.3,0.2V163.6z M145.3,158.7
		c-0.1-2.7-0.2-6.1-0.2-9.4H145c-0.7,2.9-1.7,6.2-2.5,8.9l-2.8,8.9h-4l-2.4-8.9c-0.8-2.7-1.5-5.9-2.1-8.9h-0.1
		c-0.1,3.1-0.2,6.6-0.4,9.5l-0.4,8.7h-4.8l1.5-22.9h6.9l2.2,7.7c0.7,2.7,1.4,5.5,1.9,8.2h0.1c0.6-2.7,1.4-5.7,2.1-8.2l2.4-7.6h6.7
		l1.2,22.9h-5L145.3,158.7z M159.8,161.6l-1.6,5.9h-5.3l6.9-22.9h6.7l7.1,22.9H168l-1.7-5.9H159.8z M165.5,157.7l-1.4-4.9
		c-0.4-1.3-0.8-3.1-1.1-4.4h-0.1c-0.3,1.3-0.7,3.1-1,4.4l-1.3,4.9H165.5z M178.2,148.9H172v-4.4h17.4v4.4h-6.2v18.6h-5.2V148.9z
		 M207.9,166.9c-1,0.5-3.1,1-5.8,1c-7.8,0-11.9-4.9-11.9-11.5c0-7.8,5.5-12.2,12.4-12.2c2.7,0,4.7,0.6,5.6,1l-1,4.1
		c-1-0.4-2.5-0.8-4.3-0.8c-4.1,0-7.3,2.5-7.3,7.6c0,4.6,2.7,7.5,7.3,7.5c1.5,0,3.3-0.4,4.3-0.8L207.9,166.9z M216.4,144.6v8.8h8.4
		v-8.8h5.1v22.9h-5.1v-9.6h-8.4v9.6h-5.2v-22.9H216.4z"/>
	
		<linearGradient id="XMLID_7_" gradientUnits="userSpaceOnUse" x1="340.2561" y1="-300.7682" x2="340.2561" y2="-479.069" gradientTransform="matrix(0.4761 0 0 0.4761 -0.1761 287.4087)">
		<stop  offset="0.2036" style="stop-color:#010101"/>
		<stop  offset="0.3818" style="stop-color:#0E0E0F"/>
		<stop  offset="0.6639" style="stop-color:#4B4C4D"/>
		<stop  offset="0.8394" style="stop-color:#595A5C"/>
	</linearGradient>
	<polygon id="XMLID_438_" fill="url(#XMLID_7_)" points="175.7,99 175.7,72.1 147.3,72.1 100.1,133.1 128.7,133.1 149.4,106.3 
		149.5,133.1 175.9,133.1 196.6,106.3 196.6,133.1 203.4,133.1 223.6,106.4 223.6,72.1 196,72.1 	"/>
	<path id="XMLID_318_" fill="#5F5B4A" d="M128.7,133.1l20.7-26.8l0.1,26.8h26.4l20.8-26.8v26.8h6.8l20.2-26.8v-0.5
		c-27.2-4.2-60.5-6.9-96.6-7.4l-26.9,34.7H128.7z"/>
	
		<linearGradient id="XMLID_8_" gradientUnits="userSpaceOnUse" x1="151.8408" y1="-300.7682" x2="151.8408" y2="-479.069" gradientTransform="matrix(0.4761 0 0 0.4761 -0.1761 287.4087)">
		<stop  offset="0.2036" style="stop-color:#010101"/>
		<stop  offset="0.3818" style="stop-color:#0E0E0F"/>
		<stop  offset="0.6639" style="stop-color:#4B4C4D"/>
		<stop  offset="0.8394" style="stop-color:#595A5C"/>
	</linearGradient>
	<polygon id="XMLID_317_" fill="url(#XMLID_8_)" points="84.6,98.9 84.4,72.1 58.1,72.1 37.3,98.9 37.3,72.1 10.4,72.1 10.4,133.1 
		37.9,133.1 58.2,106.2 58.2,133.1 86.7,133.1 133.9,72.1 105.2,72.1 	"/>
	<path id="XMLID_316_" fill="#5F5B4A" d="M37.9,133.1l20.3-26.9v26.9h28.4l27-34.8c-0.4,0-0.9,0-1.3,0c-9.5,0-18.7,0.2-27.7,0.6v0v0
		c-28.1,1.2-53.2,4.2-74.2,8.4v25.8L37.9,133.1L37.9,133.1z"/>
	<polygon id="XMLID_309_" fill="#010101" points="229.9,106.6 229.9,133.1 209.7,133.1 	"/>
</g>
</svg>
