<?xml version="1.0" encoding="utf-8"?>
<!-- Generator: Adobe Illustrator 17.1.0, SVG Export Plug-In . SVG Version: 6.00 Build 0)  -->
<!DOCTYPE svg PUBLIC "-//W3C//DTD SVG 1.1//EN" "http://www.w3.org/Graphics/SVG/1.1/DTD/svg11.dtd">
<svg version="1.1" id="Слой_1" xmlns="http://www.w3.org/2000/svg" xmlns:xlink="http://www.w3.org/1999/xlink" x="0px" y="0px"
	 viewBox="0 0 240 240" enable-background="new 0 0 240 240" xml:space="preserve">
<g id="devs">
	
		<radialGradient id="logo_1_" cx="2827.428" cy="2998.4597" r="196.1145" gradientTransform="matrix(0.3 0 0 -0.3 -727.3 1003.9)" gradientUnits="userSpaceOnUse">
		<stop  offset="0.3934" style="stop-color:#CC6628"/>
		<stop  offset="1" style="stop-color:#993520"/>
	</radialGradient>
	<path id="logo" fill="url(#logo_1_)" stroke="#1E2123" stroke-width="0.5" stroke-linejoin="round" stroke-miterlimit="10" d="
		M157.8,78.2c0.3-0.4,0.8-0.7,1.4-1.1c0.8-0.4,1.6-0.8,2.6-1c-0.1,0.1-0.3,0.4-0.4,0.5c-1.1,0.7-2.1,1.4-3,2.2
		c-0.1,0.1-0.5,0.3-0.7,0.4C157.6,78.9,157.6,78.5,157.8,78.2z M156.4,76.1c0.1-0.8,0-1.6,0.1-2.3l0.1-0.1c0.4,1,0.3,1.9,0.3,2.9
		c0,1.2-0.1,2.3-0.4,3.6c-0.1,0-0.3,0-0.4,0C156.1,78.7,156.3,77.5,156.4,76.1z M155.7,63.8c0.7-0.1,1.4-0.1,2.2-0.1
		c0.7,0,1.4-0.5,2.2-0.4c-0.5,0.7-1.5,1.1-2.3,1.1c-0.7,0.1-1.2,0.1-1.9,0C155.7,64.2,155.7,64.1,155.7,63.8z M153.8,62.4
		c0-0.8,0-1.6,0.1-2.5c0.1,0,0.3,0,0.4-0.1c0,1.5,0.1,3,0,4.5c0,0.5-0.1,1.2-0.8,1.4C153.5,64.8,153.8,63.5,153.8,62.4z M120.1,53
		c0.1-0.3,0.3-0.4,0.5-0.5c-0.5,3.4-0.4,7.3,1.4,10.4c0.1,0.3,0.1,0.4,0.1,0.7c-1.5-1.1-2.2-2.9-2.6-4.7
		C119.3,56.9,119.3,54.8,120.1,53z M116.8,53.9c-0.5-0.5-1.2-1.1-1.5-1.8c0.5,0.3,1.1,0.8,1.4,1.2c0.5,0.7,1.2,1.1,1.6,1.9
		C117.7,55,117.3,54.3,116.8,53.9z M118.2,58.9c-0.1-0.3,0-0.7,0.1-1c0.4,0.7,0.7,1.6,1.1,2.3c0.4,1,0.8,2.1,1.6,2.7
		c1.2,1.2,2.2,2.7,3,4.4C120.9,65.6,118.7,62.4,118.2,58.9z M84.3,69.3c0.4,0.3,0.8,0.5,1.1,1c0.5,0.5,1.2,0.8,1.8,1.4
		C85.8,71.5,84.9,70.5,84.3,69.3z M87.5,73.3c-1-0.1-1.9,0-3-0.1c0.5-0.5,1.4-0.4,2.2-0.5c1.1-0.1,2.3-0.1,3.4,0
		c0.1,0,0.3,0.1,0.5,0.1C89.7,73.3,88.6,73.3,87.5,73.3z M82,84.9c-0.8-0.1-1.1-1-1.4-1.6C81.2,83.7,81.6,84.4,82,84.9z M82.1,87.6
		C81,86.4,79.8,85.1,78,85c-0.7-0.1-1.4,0.3-2.1,0.5c0.4-0.8,1.5-1.1,2.3-1c1.2,0.1,2.3,0.8,3.2,1.5c1,0.8,1.6,1.8,1.9,2.9
		C82.8,88.7,82.5,88.2,82.1,87.6z M160,163.4c1.2,0.3,1.9,1.4,2.3,2.5c-0.7-0.1-1.4-0.3-1.8-1C160.2,164.5,160,164,160,163.4z
		 M161.2,86.8c0.5-1.1,0.8-2.3,1.1-3.7c0-0.3,0.1-0.5,0.4-0.8c0.1,0.8,0,1.6-0.1,2.5c-0.1,1.1-0.4,2.3-1.1,3.2
		c-0.7,0.8-1.6,1.4-2.6,1.9c-1.1,0.7-2.2,1.5-3.4,1.8c-1.1,0.3-2.2,0.3-3.3,0c0.4-0.4,1-0.5,1.4-0.7c1.4-0.5,2.7-1,4-1.4
		C159,89.1,160.5,88.3,161.2,86.8z M155,88.5c1.4-0.5,2.7-0.3,4.1-0.4c-0.5,0.7-1.2,0.8-2.1,1.1c-1.1,0.3-2.2,0.7-3.3,0.7
		C154.1,89.3,154.5,88.7,155,88.5z M155.2,78.2c0.1-0.3,0.3-0.5,0.5-0.7c0,1.2,0,2.5,0,3.7c0,0.8,0,1.8-0.1,2.6c-0.1,0-0.3,0-0.3,0
		C155,81.9,154.7,80,155.2,78.2z M154.1,79.6c0.1-0.3,0.3-0.5,0.5-0.8c0,0.8-0.3,1.5-0.3,2.3c0,1.6,0.1,3.2,0,4.8
		c-0.1,1.5-1,3.2-2.2,3.8c-1,0.5-2.1,0.8-3.2,0.7c1.4-1,2.7-1.9,3.4-3.4C153.8,84.9,153.1,82,154.1,79.6z M151.7,84.4
		c0.3-0.7,0.4-1.4,1-1.9c0.1,0.8-0.1,1.5-0.3,2.3c-0.4,2.2-2.1,4-4,5.1c-0.7,0.3-1.2,0.5-1.9,0.5l-0.1-0.1
		C148.7,88.9,150.6,86.8,151.7,84.4z M141.7,90c0.4-0.7,0.5-1.4,1.1-1.9c0,1-0.1,1.9-0.4,2.7c-0.3,0.7-1.1,0.7-1.8,0.8
		C140.9,91.1,141.3,90.5,141.7,90z M134.6,88.7c-0.8,0.1-1.6,0.4-2.5,0.3C132.8,88.7,133.9,88.3,134.6,88.7z M129.7,88.2
		c-0.8,0.4-1.4,1.1-2.2,1.5c0.4-1.6,1.6-3.2,3.2-3.8c1.4-0.8,2.9-1.1,4.5-1.4C133.4,86,131.5,87.2,129.7,88.2z M128.7,93.9
		c-0.7,0.3-1.4,0.4-1.9,0.5c0.3-1.9,1.2-3.8,3-4.8c-0.5,0.8-1.1,1.6-1.1,2.6C128.6,92.8,128.7,93.4,128.7,93.9z M143.2,80.5
		c-2.1,1.2-4.4,1.9-6.9,2.2c-1.5,0.3-3.2,0.4-4.7,1.1c-1.4,0.5-2.6,1.4-3.7,2.6c-0.8,0.8-1.4,1.8-1.8,2.9c-0.3,1-0.5,1.8-0.8,2.7
		c-0.3,1-0.3,2.1-0.5,3c-0.3,1-1.2,1.4-1.9,1.9c-0.1-0.8,0.1-1.5,0.4-2.3c0.4-1.6,1.1-3.2,1.6-4.7c0.5-1.4,0.5-3,1.5-4.2
		c1.5-1.8,3.6-3,5.8-3.7c1.5-0.4,3.2-0.4,4.7-0.5s3-0.5,4.5-1c1-0.3,1.9-0.8,3-1C144.2,79.8,143.8,80.2,143.2,80.5z M132.1,146
		c0.5,0.4,1.2,1.1,1.9,1.6c0.3,0.3,2.5,3,2.6,3.4c0.7,1.4,1.4,2.7,2.2,4c0.5,0.8,1.4,1.6,1.8,2.5c-0.1,0-0.5-0.1-0.8-0.3
		c-0.8-0.3-1.6-0.8-2.2-1.4c-0.5-0.5-1.1-1.5-1.6-2.3c-1-1.4-2.1-2.6-3.2-3.8c-1.2-1.4-2.3-3-3-4.7c-0.1-0.1,0-0.4,0-0.5
		C130.8,144.9,131.3,145.6,132.1,146z M109.8,154.4c-1.8,1-3.4,2.3-5.2,3.6c-1.5,1.1-3.3,1.8-5.2,1.9c-0.5,0-1.1,0-1.5-0.3
		c0-0.1,0.1-0.1,0.1-0.3c0.8-0.1,1.6-0.1,2.5-0.4c1.9-0.7,3.4-1.9,4.9-3.2c2.1-1.6,3.8-3.6,6-4.8c0.5-0.3,3.2-1.1,3.8-1.1
		c1,0,2.1,0,3,0c-0.1,0.3-0.3,0.5-0.5,0.7c-1.2,0.8-2.6,1.4-4,1.8C112.4,152.9,111,153.7,109.8,154.4z M110.5,155.6
		c-0.1,1.8-1.1,3.3-2.3,4.4c-0.5,0.5-1.4,1-2.2,1.1c-1.6,0.5-3.4,0.1-4.8-0.7c0.8-0.5,1.9-0.4,2.7-0.8c1-0.4,1.8-1.1,2.7-1.8
		c1-0.7,1.8-1.2,2.7-1.9C109.7,155.9,110.1,155.7,110.5,155.6z M105.7,144.1c0,0.1,0.1,0.5-0.1,1c-0.4,1.1-1.6,2.7-2.1,3.2
		c0.3-1.1,0.5-2.3,0.5-3.8c0-0.4-0.1-2.1-0.1-2.6c-0.1-0.8,0.1-2.2,1-3.2C105,139.7,105.1,142.9,105.7,144.1z M108.7,134.4
		c-0.1-1,0-1.4-0.1-2.2c0.1,0.8,0.3,1.1,0.5,1.8c0.5,2.1,1.9,3.8,1.9,5.9c0,0.8-0.4,1.8-1,2.3c-0.3-0.4-0.4-1.2-0.7-1.8
		c-0.3-1.1-0.3-2.2-0.5-3.2C109,136.7,108.8,135.5,108.7,134.4z M117.9,142.9c0.3,1,0,1.4-0.5,1.6c-1,0.4-1.9,0.1-2.9-0.1
		c0-0.1,1.4-1.1,1.8-1.6c0.3-0.4,0.5-1.5,0.5-1.8C117.7,142.3,117.9,142.9,117.9,142.9z M114.6,138.1c0.5,1,0.8,2.3,0.7,3.4
		c-0.1,0.8-1,1.1-1,1.1c-0.7,0.3-1.5,0.3-2.2,0.3c-0.1,0,0.7-1.1,0.7-2.6c0-1-0.1-1.9-0.4-2.7c-0.5-1.5-1.1-3-1.6-4.5
		c-0.3-1.1-0.8-2.1-1.1-3.2s-0.7-2.1-0.8-3.2c-0.1-1.4,0.3-2.9,0.7-4.2c0.1-0.4,0.3-1,0.7-1.2c-0.1,1.1-0.5,2.2-0.5,3.3
		c0,1.2-0.1,2.6,0.3,3.8c0.4,1.8,1.2,3.4,2.2,5.1C112.4,134.2,114.6,138.1,114.6,138.1z M120.8,145.6c-0.1,1.4-1,1.6-1.5,2.2
		c-1,1-2.6,0.5-3.8,0.5c-0.3,0-0.8,0-1.1,0c-0.5,0.1-1.1,0.3-1.8,0.4c-0.5,0.1-2.3,1.1-2.3,1.1c-0.7,0.4-1.4,0.8-2.1,1.4
		c-0.8,0.8-1.8,1.5-2.6,2.3c-0.8,1-1.8,1.8-2.7,2.6c-0.7,0.7-1.5,1.2-2.5,1.6c-0.5,0.3-1.2,0.7-1.9,0.5c0.3-0.1,0.5-0.4,0.7-0.5
		c2.1-1.2,3.7-3,4.9-5.1c0.5-0.7,2.1-3.2,2.6-3.7c1-1,1.8-2.1,3-2.5c0.4-0.1,1.4-0.4,1.8-0.4c0.7,0,2.2,0,3,0
		c1.2-0.1,2.6-0.1,3.6-1.1c1.2-1,0-3.3,0-3.3s-1.8-3.6-3.3-5.3c-0.4-0.4-4.5-6.4-4.8-9.3c-0.1-1.1-0.1-2.3,0.1-3.4
		c0-0.3,0.1-1,0.3-1.1c0.1,0.4,0.3,1.5,0.3,1.9c0.1,2.9,2.1,7.1,3.7,9.3c1.4,1.9,2.7,3.8,4,5.9C119.4,140.8,120.9,144.8,120.8,145.6
		z M122.7,141.4c0.3,1.1,0.8,2.6,0.8,4.1c0,1,0,1.9-0.1,2.9c0,0.5-0.1,3.8,0,4.5c0.3,1.5,0.8,3.2,2.2,4c1.2,0.7,2.7,0.5,4.2,0.3
		c1.2-0.3,2.5-0.4,3.7-0.3c1,0.1,1.9,0.7,2.1,1.8c-0.7-0.3-1.4-0.7-2.1-0.7c-1.6-0.1-3.4,0.1-4.7,1.1c-0.7,0.4-1.5,1.1-2.5,1.1
		c-0.7,0-1.4-0.4-1.9-0.8c-1-0.8-1.8-1.8-2.2-3c-0.7-1.9,0.1-5.2,0.3-7c0-0.7,0.1-1.4,0.1-2.2c-0.1-2.7-2.6-7.5-3.2-8.4
		c-1.4-2.2-2.9-4.2-4.4-6.3c-0.4-0.7-1.4-2.7-1.5-3c-0.4-0.8-1-2.6-1.2-3.7c0.3,0.5,1,1.4,1.2,1.8c0.4,0.7,6.9,8.8,8.4,12.2
		C122.3,140,122.5,141.1,122.7,141.4z M127.5,154.6c0.5,0.4,1.2,0.7,1.6,1.2c-1.4,0.3-3-0.4-3.7-1.6c-0.7-1.4-0.7-4-0.4-6
		c0,1.8,0.4,3.4,0.8,4.2C126.2,153.3,126.8,154,127.5,154.6z M127.1,147.9c0.5,1.2,1,2.5,1.9,3.4c1.4,1.4,3.3,1.8,4.4,3.2
		c0,0-0.1,0.1-0.1,0.3c-1.6-0.3-3.2-0.8-4.5-1.6c-0.8-0.5-1.4-1.5-1.6-2.5C126.8,149.9,126.8,148.9,127.1,147.9z M124.9,135.3
		c1.5,2.7,1.6,5.6,1.1,8.1c-0.3,1-0.7,3.3-0.8,4.4c-0.1-1.6-0.3-5.1-1-6.9c-0.1-0.3-1-2.3-1.2-3c-0.7-1.1-1.4-2.3-2.1-3.3
		c-1.1-1.6-3.8-5.1-4.7-6c-1-1.1-1.8-2.3-2.5-3.4c-1.4-2.3-2.9-4.8-3.8-7.4c-0.3-0.8-0.7-1.5-0.7-2.5c0.5,0.4,0.7,1.2,1.1,1.8
		c1.8,3.3,4,6.2,6.7,8.8c1,1,1.9,2.1,2.9,3C120.8,129.4,123.9,133.7,124.9,135.3z M107.2,100.5c0.3-0.7,0.8-1.5,1-2.3
		c0.4-1.4,0.3-3,0.3-4.4c0.1-2.1,0.3-4.1,1.1-5.9c0.4-0.8,1-1.6,1.6-2.3c0.1,1.4,0,2.7-0.1,4.1c-0.3,2.2-0.7,4.4-1.1,6.6
		c-0.4,2.1-0.5,4.2-0.5,6.4C108.7,101.9,107.9,101.1,107.2,100.5z M108.7,106.3c-1.4-0.8-2.9-1.6-4.5-1.8c-0.8,0-1.5-0.1-2.3,0
		c-1.1,0.1-2.1,0.7-3.2,1c0.3-0.7,1.1-1.1,1.6-1.5c1.6-1,3.7-1.6,5.6-1.1c1.1,0.3,2.1,1,2.7,1.9
		C108.8,105.2,109.3,105.9,108.7,106.3z M110.5,98.2c0.3-2.5,1-4.8,1.2-7.3c0.1-0.7,0.1-1.5,0.1-2.2c0.1-1.4,0-2.7,0-4.1
		c0-1,0.7-1.8,1.2-2.5c-0.3,1.6,0.1,3.3-0.3,4.8c-0.5,1.9-0.7,4-0.7,5.9c0,1.1-0.3,2.3-0.3,3.4c0.1,2.5,0.5,4.8,0.7,7.3
		c0.1,1.5,0.1,3.2,0.4,4.7c0.5,2.7,1.8,5.3,3.6,7.7c1.4,1.9,3.4,3.4,5.2,4.9c1.5,1.2,2.9,2.6,4,4.1c0.8,1.2,1.6,2.3,2.1,3.8
		c0.1,0.3,0.4,3,0.4,3.6c-0.1-0.3-0.3-0.8-0.3-1.1c-0.3-0.8-0.7-1.5-1-2.3c-0.5-1.2-1.4-2.3-2.3-3.3c-1.8-1.9-4.1-3.4-6.2-4.9
		c-1.9-1.4-3.8-3-5.2-5.1c-1.1-1.9-1.9-4-2.3-6.2c-0.4-2.1-0.7-4-0.8-6C110.2,101.6,110.2,100,110.5,98.2z M128.8,127
		c-0.1-0.3-0.4-0.4-0.5-0.7c-1-2.5-3-4.2-4.9-6c-1.1-1-2.3-1.8-3.4-2.7c-2.6-1.9-4.5-4.8-5.5-7.8c-0.4-1.4-0.7-2.9-0.8-4.4
		c-0.1-1.4-0.4-2.6-0.5-4c-0.1-1.6-0.7-3.3-0.7-4.9c0.4,0.5,0.5,1.2,0.8,1.8c0.7,1.5,1.2,3.2,1.4,4.8c0.4,2.5,0.7,5.1,2.1,7.3
		c0.8,1.1,1.4,2.2,2.2,3.2c0.7,0.8,1.4,1.5,2.2,2.2s1.8,1.2,2.6,1.9c1.8,1.5,3.6,3.3,4.2,5.5C128.7,124.5,129,125.7,128.8,127z
		 M119.7,99c0.1-2.1,0.3-4,1.1-5.9c1-2.1,2.2-3.8,2.5-6.2c0.3-3.2-0.7-6.3-1.4-9.5c-0.3-0.8-0.4-1.8-0.5-2.7
		c-0.1-0.8-0.3-1.6-0.1-2.3c0.8,1.4,1.4,2.9,2.1,4.4c0.3,0.7,0.3,1.4,0.4,2.2c0,1.1,0.5,2.2,0.8,3.4c0.1,0.5,0,1.1-0.1,1.6
		c-0.3,1-0.4,1.9-0.4,2.9c-0.1,1.6-0.4,3.2-1,4.7c-0.4,1.1-0.8,2.3-1.1,3.4c-0.3,1.1-0.7,2.2-0.7,3.4c0,1.1-0.4,2.1-1.1,2.9
		C119.5,100.7,119.5,99.8,119.7,99z M149.1,68.5c0.7-0.4,1.4-0.7,1.9-1.4s0.7-1.6,1.4-2.2c0.1,0.4,0.1,0.7,0,1.1
		c-0.3,1.1-0.7,2.2-1.5,2.9c-1,0.8-2.2,1.1-3.3,1.4l-0.1-0.1C147.9,69.6,148.4,68.9,149.1,68.5z M148.2,66.5
		c0.1,0.4,0.4,0.8,0.4,1.4c-0.1,0.4-0.5,0.5-1,0.7c0-0.5,0.1-1.1,0-1.6c-0.1-0.8-0.5-1.5-0.7-2.3C147.8,64.9,147.9,65.9,148.2,66.5z
		 M143.2,76c1.1-0.7,1.9-1.4,2.6-2.5c0.4-0.5,0.7-1.1,1.2-1.4c0.8-0.5,1.8-0.8,2.7-1.1c0.7-0.3,1.4-0.7,2.1-1.1c0,0.3,0,0.5-0.1,0.8
		c-0.5,0.7-1.2,1.4-2.2,1.6c-0.8,0.3-1.6,0.5-2.3,1c-1,0.5-1.5,1.4-2.3,1.9c-0.8,0.7-1.6,1.2-2.6,1.4C142.7,76.4,143,76.1,143.2,76z
		 M135.7,75.7c0.4-0.5,0.7-1.2,1.1-1.6c0,0.8-0.5,1.4-0.8,2.1c-0.3,0.4-0.5,1.1-1.1,1C135,76.7,135.4,76.1,135.7,75.7z M131.2,78.6
		c1.8-0.5,3.6-0.5,5.3-0.3c1.5,0.1,2.9,0.3,4.4,0c1.2-0.1,2.5-0.5,3.4-1.2c1.2-1,2.2-2.1,3.4-3.2c0.4-0.4,1-0.5,1.4-0.7
		c-0.3,0.5-0.5,1.1-1,1.4c-1.4,1.4-3.2,2.5-5.1,3.3c-1.4,0.5-2.9,1.1-4.4,1.4c-0.8,0.1-1.8,0.3-2.6,0.5c-1,0.3-2.1,0.1-3,0.4
		c-1.2,0.3-2.5,0.5-3.6,1.1c-1.1,0.5-2.1,1.4-3,2.2c-0.5,0.4-0.8,1.1-1.2,1.5c0,0-0.1,0-0.1-0.1c0-1,0.4-1.8,0.8-2.6
		C127.1,80.7,129,79.1,131.2,78.6z M133.2,68.6c-0.5,0.7-1.1,1.4-1.5,2.1c-0.8,1.4-1.5,2.9-1.6,4.5c-0.1,0.8,0,1.6-0.1,2.3
		c-0.3,0.3-0.7,0.4-1.1,0.5c-0.7,0.3-1.2,0.7-1.9,1.1c0.4-1.1,1-2.1,1.2-3.2c0.5-2.1,1-4.1,2.2-5.9c0.8-1,1.8-1.8,2.7-2.6
		c0.7-0.5,1.4-1.1,2.2-1.5C134.6,67.1,133.8,67.6,133.2,68.6z M138.9,65.3c-0.7,0.7-1.8,0.8-2.6,1.1C136.8,65.4,138,65.4,138.9,65.3
		z M140.1,54.6c0,0.8-0.1,1.8-0.7,2.5C139,56.3,139.4,55.3,140.1,54.6z M136.4,53.2c-0.3-0.5-0.7-0.8-1.1-1.2c0-0.1,0-0.3,0-0.3
		c1.1,0.5,1.9,1.8,2.2,3C137.1,54.3,136.7,53.8,136.4,53.2z M136.1,61.9c0.5-0.5,1.1-1.1,1.4-1.8c0.3-0.7,0.4-1.4,0.4-2.1
		c0.1-0.8-0.1-1.6-0.1-2.6c0.5,0.5,0.7,1.4,1,2.1c0.3,1.1,0,2.3-0.7,3.2c-0.7,1-1.1,1.9-1.9,2.7c-1.4,1.6-3.3,2.9-5.1,4.2
		c-0.5,0.4-1,1-1.5,1.2c0.1-0.5,0.5-1,1-1.4C132.3,65.6,134.1,63.7,136.1,61.9z M125.4,74.9c0.7-1.5,1-3.2,1.4-4.8
		c0.4-1.1,1-2.1,1.8-2.9c0.5-0.5,1.1-1.1,1.8-1.4c-0.5,1.1-1.6,1.9-2.2,3.2c-0.7,1.4-0.5,3.2-0.7,4.7c0,0.8-0.1,1.6-0.4,2.5
		c-0.7,1.8-1.6,3.4-1.9,5.3c-0.4-0.4-0.4-1.1-0.4-1.6c0-0.7-0.1-1.2-0.1-1.9C124.7,76.8,125,75.9,125.4,74.9z M106.8,55.3
		c0.8,0.3,1.6,0.8,1.9,1.8C107.9,56.5,107.2,56,106.8,55.3z M108,54.3c0.7,0.3,1.2,0.8,1.8,1.2c0.5,0.4,1.2,0.7,1.6,1.4
		c-1-0.3-1.9-0.8-2.6-1.5C108.6,55.2,108.3,54.8,108,54.3z M113.2,59.6c-1.5-0.8-3.2-1.8-4.1-3.3c0.4,0,0.7,0.3,1.1,0.5
		c0.8,0.5,1.6,0.8,2.5,1.2c1.4,0.5,2.6,1.5,3.3,2.7C115,60.5,114,60,113.2,59.6z M119.8,68.3c-0.7-0.8-1.5-1.5-2.2-2.2
		c-0.7-0.8-1.5-1.6-2.1-2.6c-0.4-0.8-1.1-1.5-1.4-2.3c1.6,0.7,3.3,1.9,3.8,3.7c0.5,1.4,1.5,2.6,2.3,3.7c0.7,1,1.5,1.8,2.3,2.7
		c0.5,0.7,1.2,1.4,2.1,1.6c-0.1,1-0.5,1.9-1.1,2.7c-0.3-0.3-0.4-0.7-0.5-1.1c-0.5-1.4-1.4-2.5-1.9-3.8
		C120.8,69.8,120.5,69,119.8,68.3z M116.5,92.4c1.4-0.5,2.2-1.6,2.6-3c0.5-1.8,0.8-3.4,1.1-5.2c0.1-1.8,0.3-3.4,0.5-5.2
		c0.1,0,0.3,0,0.3,0c0.3,1.8,0.5,3.4,0.7,5.2c0.1,1.4,0,2.7-0.4,4.1c-0.3,1.2-1,2.2-1.5,3.3c-0.5,1-1.1,1.9-2.2,2.2
		c-0.7,0.3-1.8-0.1-1.9-1C115.8,92.6,116.1,92.6,116.5,92.4z M118.2,95.5c-0.1,1-0.3,1.9-0.4,2.9c-0.4-1.1-0.8-2.1-1.2-3
		C116.9,95.3,117.5,95.3,118.2,95.5z M113.8,91.5c0.3,1.1,0.7,2.2,1.1,3.3c0.5,1.6,1.4,3.2,1.9,4.8c0.4,1.4,1,2.6,1.2,4
		c0.4,1.6,0.5,3.4,0.8,5.2c0.1,1.2,0.7,2.3,1,3.6c-0.8-0.7-1.1-1.5-1.5-2.3c-1.1-2.2-1.5-4.7-2.1-7c-0.1-1.1-0.7-2.3-1.1-3.3
		c-0.4-1.4-1.1-2.6-1.5-4c-0.3-0.8-0.4-1.8-0.4-2.6c-0.1-0.8-0.1-1.8,0.1-2.6C113.5,90.5,113.6,90.9,113.8,91.5z M112.4,68.9
		c0.3,0.1,0.7,0.3,1,0.5c0.7,0.8,0.8,1.9,1,2.9c0.1,0.5,0.3,1.2,0,1.8c-0.4,0.5-1,0.8-1.4,1.4c0.4-1.4,1-2.9,0.7-4.4
		C113.4,70.2,112.8,69.6,112.4,68.9z M111.6,77.8c0.5-0.3,1.1-0.5,1.4-1c0.8-0.7,1.5-1.5,2.3-2.2c0.7-0.5,1.4-1.1,2.1-1.6
		c-0.1,0.7-0.5,1.4-1.1,1.8c-1.1,1-2.5,1.4-3.3,2.6c-0.7,0.8-1.2,1.8-1.9,2.7C111.2,79.3,111.2,78.5,111.6,77.8z M111.6,81.2
		c0.5-0.8,1-1.8,1.6-2.5c0.7-1,1.6-1.6,2.6-2.2c-0.1,1.1-1.1,1.8-1.8,2.5s-0.8,1.6-1.4,2.5c-0.4,0.5-0.8,1-1.1,1.5
		c-0.7,1.1-1.4,2.2-2.2,3.3c-1.1,1.5-1.9,3.3-1.9,5.2c-0.1,1.4-0.1,2.7-0.3,4c-0.4-0.1-0.8-0.4-1.1-0.7c-0.3-0.4-0.1-1-0.1-1.4
		c0.3-1.5,0.3-3,0.7-4.4c0.4-1.6,1.4-3.2,2.2-4.5C109.7,83.3,110.8,82.3,111.6,81.2z M109.1,77.5c0.1-0.7,0-1.5,0.1-2.3
		c0.5,0.8,0.7,1.8,0.8,2.7c-0.1,1.6-0.7,3.3-1.5,4.7c-0.3,0.7-0.7,1.2-1.1,1.8C107.3,82,108.7,79.8,109.1,77.5z M107.9,73.8
		c0.3,1.5,0,3.2-0.5,4.7c-0.3,0.7-0.5,1.5-1,2.2c-0.4-1.2-0.3-2.5-0.3-3.8c0-1.5,0.1-3,0.1-4.4c0-0.8-0.1-1.6-0.3-2.3
		C107.2,70.9,107.7,72.4,107.9,73.8z M105.3,65.3c0.1,0.5,0.1,1.1,0.1,1.6c0,0.7,0.3,1.2,0.4,1.8c-0.4-0.3-1-0.7-1-1.1
		C104.7,66.8,104.7,66,105.3,65.3z M103.4,67.2c1.2,1.6,1.8,3.8,1.8,6c-0.3,0-0.7,0-1.1-0.1c-0.3-0.4-0.3-1.1-0.3-1.5
		C103.6,70.1,102.9,68.7,103.4,67.2z M105,76.8c-0.4-0.3-0.7-0.7-1-1.1c-0.5-0.5-1.1-1.1-1.6-1.8c1,0.3,1.8,0.5,2.7,0.5
		C105.1,75.3,105.1,76,105,76.8z M97.1,61.9c-0.8-0.5-1.8-1-2.2-1.8c1,0.4,1.8,1,2.7,1.4c0.4,0.1,0.8,0.4,1.1,0.7
		c0.1,0.3,0.3,0.7,0.3,1C98.3,62.8,97.7,62.3,97.1,61.9z M99.7,61.6c-0.4-2.1-1.1-4.4-0.3-6.4c0.3,0.7,0.1,1.5,0.1,2.3
		c0,1,0.3,1.9,0.4,2.9c0.4,1.9,1.5,3.4,2.1,5.3c0.3,1.1,0.4,2.2,0.5,3.3c0.1,1,0.4,1.9,0.4,2.9c-0.5-0.4-0.7-1.2-1-1.8
		C101,67.2,100.3,64.3,99.7,61.6z M99.5,71.2c-0.8-0.3-1.4-1-1.9-1.5c-0.4-0.4-0.7-1-0.8-1.5C98,68.9,98.8,70,99.5,71.2z M96,68
		c0.5,0.7,0.7,1.6,1.2,2.3c0.7,0.8,1.5,1.4,2.5,1.9c0.4,0.3,0.7,0.4,1,0.8c-1-0.1-1.9-0.5-3-0.7c-0.8-0.1-1.8,0-2.6-0.3
		c0.3-0.4,0.7-0.7,0.7-1.2c0-0.7-0.1-1.4-0.3-2.1c-0.1-0.5-0.5-1.1-0.8-1.6C95.1,67.2,95.7,67.5,96,68z M91,67.2
		c-1.2-1.1-2.5-2.2-3.2-3.7c-0.5-1.4-0.7-3-0.3-4.4c0.4,1,0.3,1.9,0.7,2.7c0.3,1,0.7,1.9,1.4,2.7c1,1.1,2.3,1.8,3.4,2.6
		c1.1,0.7,1.5,2.1,1.4,3.3c-0.4-0.1-0.5-0.7-0.8-1C93.1,68.6,92,68,91,67.2z M97.7,74.1c-1.5-0.4-3.2-0.5-4.8-0.5
		c-0.5,0-1.1,0.1-1.5-0.3c1.4-0.1,2.7-0.1,4.2-0.1c1.9,0,4,0.4,5.8,1.4c1.4,0.8,2.6,2.1,3.3,3.4c0.1,0.3,0.1,0.4,0.1,0.7
		c-0.7-0.7-1.1-1.5-1.8-2.1C101.4,75.3,99.7,74.6,97.7,74.1z M97.3,78c0.5,0.1,1.1,0.1,1.8,0.3c-0.1-0.4-0.3-0.8-0.3-1.2
		c0.1-0.4,0.4-0.7,0.7-1.1c1.1,0.4,2.2,1.1,3,1.9c1.2,1.4,1.9,3,2.5,4.7c0.3,0.5,0.7,1.1,0.5,1.6c-0.1,0.8-0.5,1.6-0.4,2.6
		c0.3,2.1,0.1,4.2-0.4,6.3c-0.1,0-0.1,0-0.3,0c-0.4-1.2-0.7-2.5-1.4-3.6c-0.5-0.8-1.4-1.5-2.2-1.9c-0.4-0.3-0.8-0.4-1-0.8
		c-0.3-0.5-0.7-1.2-0.7-1.9c0-1,0.4-1.8,0.1-2.7c-0.3-1.2-1.5-1.8-1.9-3C97.2,78.9,97.2,78.5,97.3,78z M98.6,86.4
		c-0.4-0.1-1-0.3-1-0.7c-0.1-1.4,0.4-2.7,0.5-4c0.5,0.8,0.4,1.8,0.3,2.7C98.2,85,98.3,85.7,98.6,86.4z M92.9,82.3
		c0.4,0.7,0.7,1.4,1.1,1.9c1,1.2,2.2,2.1,3.4,2.9c1.4,0.8,2.9,1.4,4.1,2.5c0.7,0.7,1.1,1.6,1.4,2.5c0.4,1.4,1,3,2.2,3.8
		c0.7,0.5,1.5,1,1.8,1.8c0,0.8-0.4,1.5-1,2.2c-0.5-0.7-1.1-1.5-1.6-2.2c-0.7-0.8-0.8-1.9-1.4-2.7c-0.7-1.5-0.8-3.2-1.9-4.4
		c-1-1.1-2.3-1.9-3.7-2.5c-1.4-0.7-3-1.2-3.8-2.6C93.1,84.4,92.9,83.3,92.9,82.3z M104.5,99.7c-0.4,0-1,0.1-1.2-0.3
		c-0.8-0.8-1.2-1.9-1.5-3c-0.1-0.7-0.4-1.5-0.3-2.2c0.8,1.1,1.1,2.3,1.6,3.4C103.5,98.3,104,98.9,104.5,99.7z M91.4,84.8
		c-0.3-1.1-0.8-2.2-1.5-3.2c-0.4-0.5-1.1-0.8-1.6-1.4c1.1,0.1,2.1,1.1,2.6,1.9c0.8,1.2,0.7,2.7,1.5,4c0.4,0.7,1.4,0.8,1.9,1.5
		c-0.5,0-1,0.1-1.4-0.3C92.1,87,91.9,85.7,91.4,84.8z M95.3,88.5c1.4,0,3,0.3,4,1.4c-0.7,0-1.2-0.3-1.9-0.3c-1.2-0.3-2.6,0-3.8,0.3
		c-1.1,0.1-2.2,0.5-3.3,0.7C91.7,89.3,93.5,88.5,95.3,88.5z M91.3,92c-0.8,0.1-1.6,0.1-2.5,0c-0.5-0.1-1.1-0.1-1.4-0.5
		c0.8-0.1,1.6-0.1,2.5-0.3c2.1-0.5,4.2-1.1,6.4-1c1.4,0,2.6,0.5,3.4,1.6c-0.7-0.3-1.2-0.7-1.9-0.7C95.6,91.1,93.5,91.8,91.3,92z
		 M94.3,94.9c-0.1-0.7,0-1.4,0-2.1c1.4-0.3,2.7-0.4,4,0.1c0.7,0.4,1.4,1.1,1.5,1.9c-0.7,0-1.5-0.1-2.2,0.1c-0.7,0.3-1.4,0.5-2.1,0.4
		C95.1,95.3,94.6,95.3,94.3,94.9z M95.3,97c0.3-0.3,0.5-0.4,0.8-0.5c1.1-0.5,2.2-1.1,3.4-1c-0.4,0.3-0.8,0.4-1.2,0.5
		C97.3,96.3,96.4,97,95.3,97z M100.1,98.2c-0.5-0.7-1.4-0.8-2.1-1.2c0.5-0.3,1.4-0.5,1.9-0.3c0.5,0.3,0.7,1,0.8,1.5s0.4,1.1,0.8,1.6
		C101,99.3,100.6,98.7,100.1,98.2z M89.8,99.7c0.3,0.4,0.4,1,0.5,1.4c0.3,0.7,0.7,1.2,1,1.9c-0.3,0-0.7,0-0.8-0.3
		c-0.4-0.8-0.7-1.8-0.8-2.7C89.7,99.8,89.8,99.7,89.8,99.7z M84.2,101.2c0.7,0.4,1.2,1,1.9,1.2c0.7,0.4,1.5,0.5,2.1,1
		c-1.4,0.1-2.7-0.3-3.8-1.1c-0.8-0.5-1.6-1.2-2.1-2.2C82.9,100.5,83.5,100.8,84.2,101.2z M81.4,95.6c-0.3-0.1-0.7-0.1-1-0.4
		c-0.1-0.4-0.1-1-0.1-1.4C81,94.1,81.2,94.9,81.4,95.6z M75.4,96c-1.1,0-2.2-0.1-3-0.8c-0.4-0.3-0.5-0.7-0.7-1.1
		c0.4,0.1,0.7,0.4,1.1,0.8s1.1,0.5,1.8,0.7c1.5,0.3,3.2,0.1,4.7,0.3c1,0.1,1.8,0.7,2.3,1.4s1.1,1.4,1.4,2.2
		c-0.8-0.3-1.2-1.1-1.9-1.5c-0.5-0.5-1.2-1.1-2.1-1.4C77.9,96,76.6,96,75.4,96z M81.3,101.9c-1.2-1.1-1.2-3.2-2.6-4.1
		c-0.5-0.5-1.4-0.4-1.9-0.8c0.3-0.1,0.5-0.1,1-0.1c1,0.1,1.9,0.4,2.6,1.1c1.2,1.2,1.4,3.2,2.7,4.2s3,1.8,4.7,2.1
		c0.5,0,1.1,0.1,1.5,0.1c-0.8,0.4-1.6,0.7-2.5,1c-0.4,0.1-1,0.3-1.4,0.3c-0.1-0.7-0.3-1.4-0.8-1.8C83.6,103,82.1,102.9,81.3,101.9z
		 M77.9,105.5c1.2-0.1,2.3,0.4,3.4,0.8c1.4,0.5,2.9,0.8,4.4,0.5c1.1-0.3,2.3-0.5,3.4-1c1-0.3,1.9-0.4,3-0.5
		c-0.3,0.4-0.7,0.5-1.1,0.7c-1.1,0.4-2.2,0.8-3.4,1c-1.6,0.3-3.4,0.4-5.1,0.1c-1.2-0.3-2.5-1-3.7-1.1c-0.8-0.1-1.6,0.1-2.5,0.3
		C76.6,105.6,77.2,105.5,77.9,105.5z M81.6,108.3c-1-0.3-1.8-1.1-2.9-1.1c-1,0-1.8,0.4-2.6,1c-0.7,0.4-1.1,1.1-1.6,1.5
		c0-0.5,0.5-1.1,0.7-1.5c0.5-1,1.4-1.8,2.5-1.8c1.9-0.1,3.4,1.5,5.2,1.6c2.3,0.3,4.7-0.1,6.9-0.5c1.9-0.4,3.6-1.4,5.2-2.3
		c2.3-1.6,4.8-3.3,7.7-4c1-0.1,1.9-0.4,2.7,0c0.7,0.3,1.2,0.7,1.8,1.2c-0.8-0.3-1.5-0.5-2.3-0.7c-1.1,0-2.2,0-3.2,0.4
		c-1.2,0.4-2.3,1.2-3.4,2.1c-1,0.8-1.8,1.6-2.9,2.3c-2.7,1.8-6.2,2.6-9.5,2.3C84.3,108.7,82.9,108.7,81.6,108.3z M76,121.1
		c0-0.1,0-0.3,0-0.3c0.7-0.1,1.4-0.3,2.1-0.5C77.6,121.1,76.8,121.2,76,121.1z M82.1,122.6c-1-0.4-1.9-1.1-1.9-2.2
		c-0.1-0.8,0.3-1.5,0.7-2.1c0.1,0.5,0.1,1.1,0.3,1.6C81.4,120.8,81.8,121.6,82.1,122.6z M80.1,117.1c-0.8,1-1.5,2.1-2.6,2.7
		c-0.3,0.3-0.7,0.3-1.1,0.1c1.1-1.1,2.3-2.2,3.2-3.6c0.8-1.1,1.8-2.2,2.9-3c0.4-0.3,0.8-0.4,1.2-0.5
		C82.4,114.4,81.2,115.7,80.1,117.1z M80.5,113.4c-0.5,0.5-1.1,1.4-1.6,2.1c-0.1-0.7,0.3-1.4,0.4-1.9c0.3-1,0.8-1.9,1.8-2.6
		c0.7-0.5,1.6-0.4,2.6-0.3c0.5,0.1,1.1,0,1.5,0.4C83.5,111.5,81.8,112.2,80.5,113.4z M127.5,139c-0.3-1.5-0.8-3-1.4-4.4
		c-0.5-1.4-1.4-2.7-2.2-4c-0.7-1.1-1.6-1.9-2.6-2.9c-0.8-0.8-1.6-1.5-2.5-2.2c-1.1-0.8-2.1-1.8-3-2.7c-1-1.1-1.8-2.2-2.7-3.3
		c-1-1.2-1.9-2.3-2.7-3.7c-0.7-1.1-1.4-2.3-2.1-3.4c-1.4-1.8-3-3.4-5.1-4.2c-1-0.4-2.1-0.4-3.2-0.3c-2.5,0.1-4.7,1.5-7,1.8
		c-1,0.1-1.9,0.5-3,0.7c-1.4,0.1-2.6,0.4-4,0.1c-1-0.1-1.9-0.1-2.9-0.3c1.1-0.4,2.3-0.1,3.4-0.1c2.6,0.1,5.1-0.5,7.7-1.1
		c1.2-0.3,2.3-1,3.4-1.4c1.5-0.7,3-1.6,4.7-1.6c1.4-0.1,2.6,0.3,3.8,0.7s2.2,1.4,2.7,2.5c1.4,2.6,2.6,5.3,4.1,7.8
		c1.4,2.2,3.4,3.7,5.5,5.2c2.7,1.9,5.6,4,7.3,7c0.7,1.1,1.1,2.5,1.4,3.8c0.3,1.4,0.4,2.7,0.7,4.1c0.4,1.6-0.1,4.1,0.1,6.6
		c0.3,2.6,1.1,3.3,1.4,4c0.8,1.6,2.1,2.9,2.7,4.5c-1.1-0.5-2.1-1.1-2.7-2.1c-0.7-0.8-1-1.8-1.2-2.7c-0.4-1.1-0.4-2.2-0.5-3.3
		C127.8,143.5,127.8,140.8,127.5,139z M94.9,118.2c-0.7,0.3-1.2,0.3-1.9,0.5c-1,0.4-1.8,1.1-2.9,1.2c-0.7,0.1-1.4-0.3-1.9-0.5
		c-0.8-0.5-1.6-1.2-1.5-2.3c0.4,0.5,0.7,1.1,1.1,1.5c1,0.8,2.3,1,3.4,0.5c1.5-0.5,2.9-1.4,4.4-1.9C95.3,117.6,95.1,118.1,94.9,118.2
		z M95.1,120.3c0.7-1.2,1.6-2.5,2.6-3.4c0.8-1,1.9-1.8,3.2-2.2c0.3,0.3,0.5,0.7,0.8,1.1c-0.7,0.1-1.5,0.4-2.2,0.8
		C98,117.8,96.8,119.3,95.1,120.3z M99.8,117.6c0-0.1-0.1-0.1-0.1-0.3c0.7-0.1,1.6-0.4,2.2,0.3C101.3,117.8,100.6,117.8,99.8,117.6z
		 M99.8,110.4c-0.8-0.4-1.6-0.5-2.5-0.7c0-0.1,0-0.1,0-0.3c1.1-0.3,2.2-0.3,3.3-0.4c1.5,0,3.2,0.4,4.2,1.4c0.7,0.5,1.2,1.2,1.6,2.1
		c-0.7,0.5-1.6,0.4-2.3,0.1C102.5,112.2,101.2,111.1,99.8,110.4z M102.8,114.1c1,0.3,1.8,0.8,2.7,0.8c0.7,0,1.2,0,1.8,0
		c0.3,0.5,0.5,1.1,0.5,1.8c-1.5,0.1-2.9-0.7-4.1-1.5C103.4,114.9,102.8,114.6,102.8,114.1z M106.6,119.6c-0.8-0.4-1.8-0.8-2.3-1.6
		c-0.3-0.4-0.4-1-0.5-1.4c0.8,0.5,1.6,1.2,2.6,1.5c0.7,0.3,1.5,0.1,2.3,0.1c0.1,0.3,0.4,0.5,0.4,1s-0.3,1.1-0.5,1.5
		C108,120.4,107.3,119.8,106.6,119.6z M106,136.7c0.1-0.7,0.4-1.6,1-2.1c0.1-0.3,0.4-0.5,0.7-0.5c0,0.5,0.3,6.9,1.1,8.9
		c-0.4,0.1-0.7,0.3-1.1,0.4c-0.3-0.4-1.2-3.6-1.2-3.7C105.8,138.6,106,137.4,106,136.7z M105,148.5c0,0,1.5-1.8,1.8-2.1
		c1.1-0.8,2.3-1.8,3.7-1.6c0.8,0,1.6,0,2.3,0.4c-0.8,0.1-1.6,0.4-2.3,0.7c-1.9,0.5-3.3,2.1-4.4,3.6c-0.3,0.3-0.7,1-1,1.4
		c-1.4,1.9-2.6,4.1-4.5,5.6c-0.1,0-0.3-0.1-0.3-0.1c1.2-1.9,2.1-4.1,3.3-6C104.2,149.7,104.5,148.9,105,148.5 M98.8,155.2
		c0.5-1.1,1-2.2,1.6-3c0.4-0.4,0.7-0.8,1-1.2c0.1-0.3,0.5-0.3,0.7-0.3c-0.3,0.7-0.8,1.4-1.1,2.2c-0.5,1.1-1.1,2.3-1.8,3.4
		c-0.4,0.7-1.1,1.2-1.8,1.8c-0.1-0.1-0.1-0.3-0.3-0.3C97.9,156.8,98.4,156.2,98.8,155.2z M84.5,163.3c-0.4,0.5-0.7,1-1.2,1.5
		c-0.1-0.4,0.3-0.8,0.4-1.1c0.7-0.8,1.2-1.9,2.3-2.3C85.5,162,84.9,162.6,84.5,163.3z M89.2,163.3c-0.3,0.3-0.5,0.8-1,0.8
		c-0.7,0.1-1.5-0.1-2.2-0.4c0.4-0.7,1-1.5,1.6-2.1c0.8-0.5,1.9-0.8,2.9-0.7C90.2,161.8,89.7,162.5,89.2,163.3z M97.7,162.5
		c-1.5,0.1-3.2,0-4.5,0.3c-1.2,0.3-2.1,1.1-2.7,2.1c-0.3,0.3-0.7,0.5-1.1,0.7c0.3-0.4,0.5-0.7,0.8-1.1c0.8-0.8,1.2-2.1,2.1-2.9
		c0.8-0.7,1.9-1,2.9-1.1c0.7-0.1,1.4,0,2.1,0.3c1,0.4,1.8,0.5,2.7,1.1C99.4,162.2,98.6,162.3,97.7,162.5z M98,167.3
		c0-0.1-0.1-0.3-0.1-0.3c0.5-0.7,1.1-1.4,1.5-2.1c0.4-0.4,0.7-1,1.2-1.2c0.4-0.3,0.8-0.3,1.2-0.3c-0.3,0.8-1,1.4-1.4,2.2
		C100.1,166.6,99.1,167.3,98,167.3z M102.9,165.3c-0.1,0.5-0.1,1.1-0.4,1.5c-0.4,0.7-1.2,0.7-1.9,0.4c0.3-0.8,0.7-1.5,1.1-2.2
		c0.5-0.7,1.2-1.4,1.9-1.9c1.1-0.5,2.3-0.5,3.4-1c0.8-0.3,1.5-1.1,2.3-1.4c0.1,0.5-0.3,1.2-0.7,1.6c-1,0.8-2.3,0.8-3.4,0.8
		C104.3,163.4,103.2,164.2,102.9,165.3z M115.7,159.7c0,1.1-0.1,2.2-0.5,3.2c-0.4,1.1-1.2,1.8-2.2,2.5c-0.3,0-0.1-0.3,0-0.5
		c0.7-1,1.2-2.2,1.5-3.4s0.4-2.5,0.8-3.6c0.1-0.3,0.3-0.3,0.4-0.5C115.8,158.1,115.7,158.9,115.7,159.7z M117.9,161.2
		c-0.1,0.7-0.5,1.2-1.1,1.5c0-0.3-0.1-0.5,0-0.8c0.3-1.4,0.3-2.7,0.3-4.1c0.1-1,0.5-1.8,1.4-2.2c-0.1,0.8-0.4,1.6-0.4,2.5
		C118,159.2,118.2,160.1,117.9,161.2z M119.1,153.1c-1.1,1.1-2.7,1.1-3.8,2.1c-0.7,0.7-1.1,1.5-1.4,2.3c-0.7,1.6-0.5,3.4-1.2,5.1
		c-0.5,1.1-1.2,2.2-2.3,2.6c-0.5,0.3-1.1,0.1-1.5-0.1c-0.5-0.1-1.1-0.3-1.6-0.4c0.8-0.3,1.6-0.1,2.3-0.7c0.8-0.7,1.4-1.6,1.6-2.6
		c0.7-1.9,0.4-4.2,1.4-6c0.5-1.1,1.8-1.5,2.9-1.9c1.2-0.4,2.5-1,3.4-1.8c0.8-0.7,1.8-2.2,1.8-2.2S120.4,152.2,119.1,153.1z
		 M121.9,161.6c-1-0.5-1.4-1.8-1.5-2.7c-0.3-1.8-0.1-3.4,0.3-5.2c0.1-0.5,0.5-1.5,0.7-1.9c-0.1,1.8-0.4,4,0.4,5.8
		c0.4,1,1.2,1.8,1.9,2.5c0.5,0.5,1.4,0.8,1.9,1.2C124.5,161.8,123.1,162,121.9,161.6z M127.3,163.6c-0.7,0.1-1.4,0.1-1.9,0
		c1.5-1.1,3.4-1.9,5.2-1.1C129.5,163,128.4,163.3,127.3,163.6z M138.2,166.4c-0.5-0.5-0.8-1.4-1.4-1.8c-0.7-0.5-1.4-1.1-2.1-1.8
		c-0.7-0.8-1.5-1.5-2.5-2.1c-0.7-0.4-1.4-0.4-2.1-0.8c1.1-0.7,2.5-1,3.7-0.4c1,0.4,1.4,1.2,1.9,2.1c0.3,0.7,0.7,1.2,1.1,1.9
		c0.3,0.5,0.4,1.2,1,1.5c0.5,0.4,1.2,0.7,1.6,1.4C139,166.7,138.4,166.7,138.2,166.4z M147.1,162.6c-1.2,0-2.3,0.1-3.6,0.4
		c-0.8,0.1-1.8,0.3-2.6,0.1c0-0.1,0-0.3,0-0.3c0.8-0.1,1.8-0.1,2.6-0.4c1.2-0.4,2.3-1,3.6-0.8c1,0.1,1.9,0.7,2.6,1.2
		C148.9,163,147.9,162.6,147.1,162.6z M154.5,163.3c0.8-0.1,1.6-0.3,2.5-0.3c0.3,0,0.4,0.1,0.7,0.3c-1,0.8-2.2,1.2-3.3,1.2
		c-1-0.1-1.9-0.4-2.9-1C152.3,163.3,153.4,163.4,154.5,163.3z M150.9,157.9c1.1,0.4,1.9,1.2,2.5,2.2c0.1,0.1,0.1,0.4,0.1,0.7
		c-1.2-0.8-2.3-1.8-3.2-2.9C150.5,157.8,150.6,157.8,150.9,157.9z M145.3,157.2c0.7-0.1,1.4,0,2.1,0.3c0.8,0.4,1.5,1.1,2.1,1.8
		c0.7,0.7,1.4,1.4,1.9,2.3c-1.8-0.4-3.2-1.9-4.9-1.9c-1.5,0.3-2.7,1-4.1,1.4c-1.1,0.3-2.1,0.3-3.2,0c-0.3-0.1-0.5-0.1-0.7-0.4
		c-0.1-0.5-0.3-1.2-0.7-1.8c-0.3-0.5-0.7-1.1-0.8-1.6c0.7,0.3,1.4,0.8,2.2,1.1s1.8,0.3,2.6,0.1C143,158.1,144.1,157.5,145.3,157.2z
		 M133.5,145.6c-0.7-0.5-1.1-0.8-1.6-1.2c0.5,0.1,0.8,0.3,1.4,0.4c0.8,0.3,2.5,0.7,3.3,1.1c0.8,0.5,1.8,1.1,2.3,1.9
		c0.5,0.8,1.4,2.3,1.6,3.3c0.3,1.2,0.3,2.3,1.2,3.6c0.4,0.5,1.1,1.1,1.5,1.6c-1,0.3-2.1-0.3-2.7-1c-1.1-1.2-1.8-2.7-2.7-4.4
		l-0.8-1.5c-0.7-1-1.1-1.8-1.9-2.5C135,147,133.8,145.7,133.5,145.6z M138.2,144.9c-0.3-0.1-1.1-0.3-1.4-0.4
		c-1.5-0.7-2.9-0.5-4.9-1.8c0,0-1.5-1-2.1-2.6c0.8,0.3,2.1,1.1,3.4,1.4c1.1,0.3,2.5,0.4,3.4,1.1C137.5,143.1,137.9,144,138.2,144.9z
		 M136.1,140.8c-1.5-0.3-3.3-0.4-4.7-1c-0.1,0-1.5-0.7-1.6-1c-0.3-0.4-0.3-1.1-0.3-1.8c0.7,0.3,2.3,1.2,3.2,1.5
		c0.5,0.1,1.5,0.4,2.2,0.8C135.4,139.8,135.8,140.3,136.1,140.8z M107.2,132.7c-0.3,0.5-0.8,0.8-1.1,1.2c-0.7,0.8-1,1.5-1.4,2.6
		c-0.3,0.5-0.4,1.1-0.7,1.6c-0.7,1.1-1.4,2.2-1.2,3.4v1.4c0,1,0.1,1.8,0,2.7c-0.1,1.2-0.5,2.5-1.5,3.4c-0.1,0.1-1.1,1-1.1,1
		c-0.5,0.7-1.1,1.1-1.4,1.8c-0.7,1.1-1.1,2.5-1.9,3.4c-1.4,1.8-3.6,2.9-5.6,3.4c-1.6,0.4-3.4,0.4-5.1,1.1c-0.8,0.3-1.4,1-1.8,1.6
		c-0.5,1.1-1.1,2.2-2.1,3.2c-0.8,0.8-2.3,0.3-3,1.4c0.7,0,1.2-0.3,1.8-0.3c0.8,0,1.6,0.1,2.3-0.1c0.8-0.3,1.5-1.1,2.5-0.8
		c1.1,0.4,2.1,1.1,3.3,1.5c0.5,0.3,1.1-0.1,1.5-0.4c0.7-0.5,1.5-1.1,2.5-1.4c0.8-0.1,1.5,0.1,2.3,0.1c0.8,0.1,1.6,0,2.5,0.1
		c-0.1,0.3-0.3,0.7-0.5,0.8c-0.5,0.1-1.1,0.1-1.5,0.4c-0.3,0.3-0.8,0.5-0.8,1.1c0.3,0.4,0.8,0.5,1.4,0.5c0.7-0.1,1.4,0.4,2.1,0.5
		c0.7,0,1.2-0.5,1.9-0.7c0.8,0.1,1.6,0.7,2.6,0.3c0.7-0.4,1.1-1.4,2.1-1.5c1.1-0.3,1.9,0.3,3,0.4c1.2,0.1,2.5,0.3,3.7-0.1
		c1.1-0.3,2.1-0.4,3.2-0.7c1.1-0.4,2.2-1,3.3-1.2c0.8-0.1,1.6-0.4,2.5-0.3c1.4,0.1,2.9,0.4,4.2,0.5c1.5,0.1,2.9-0.1,4.4-0.3
		c2.2-0.3,4.4-0.1,6.3,0.8c0.8,0.4,1.4,1.2,2.2,1.8c0.7,0.3,1.4-0.1,2.2-0.1c0.4,0,1.1,0.1,1.1-0.4c0.3-0.7-0.1-1.5-0.5-2.2
		c1.2-0.3,2.5,0.1,3.7-0.1c2.3-0.4,4.8-0.4,7,0.3c1.5,0.5,3.3,1,4.9,0.4c0.8-0.3,1.5-0.8,2.3-1.2c0.7,0.8,1.4,1.8,2.3,2.3
		c0.8,0.4,1.9,0.7,2.7,0.1c0-0.7-0.5-1.2-0.8-1.8c-0.3-0.5-0.4-1.2-1-1.6c-0.5-0.7-1.4-0.7-2.2-0.7c-0.5-0.3-0.7-0.8-1.2-1.1
		c-0.8-0.3-1.8,0-2.6-0.3c-0.8-1-1.1-2.2-1.8-3.2c-0.8-1.1-2.2-1.5-3.4-1.9c-1-0.3-1.9-0.5-2.7-0.5c-1.2-0.1-2.7-0.3-4.1-1.2
		c-1.2-0.7-1.4-5.2-2.9-7.3c-0.8-1.1-0.7-2.7-1.4-4c-0.3-0.5-1.8-3.6-2.5-4.2c-1-0.7-2.6-1.8-3.6-3.2c-1.1-1.5-0.7-3.6-1.4-5.5
		c-0.1-0.3-0.3-0.8-0.4-1.1c-0.4-0.8,0.3-1.6,0.7-2.3c1-1.2,1-2.9,1.8-4s1.9-1.9,3.2-2.5c1.1-0.4,2.3-0.3,3.4-0.5
		c1-0.3,2.1-0.4,3-0.1c0.5,0.1,1.1,0.4,1.4,0.8c0.3,0.5,0.1,1.1,0,1.6c-0.3,1.1-1.4,1.5-2.1,2.2c-0.7,0.4-1.4,0.5-2.1,1
		c-0.4,0.3,0,0.8,0.4,0.8c1.2-0.1,2.2-1,3.3-1.5c-0.3,0.5-0.5,1-0.8,1.5c-0.1,0.5-0.1,1.2,0.3,1.5c0.1,0,0.3,0.1,0.4,0
		c0.5-0.4,0-1.2,0.1-1.9c0.1-0.5,0.7-0.8,0.8-1.4c0.1-0.5,0.3-1.1,0.5-1.5c1-1.5,0.3-3.6-0.8-4.8c-0.4-0.5-1.2-0.8-1.9-1
		c0.3-0.8,0.7-1.5,1-2.2c0.5-1.1,1.2-2.1,2.3-2.6c1-0.5,2.1-0.5,3.2-0.5c0.5,0,1.1,0.4,1.4,0.8c0.5,0.7,0.8,1.8,0.8,2.7
		c0.3,1.9-0.8,3.8-0.5,5.8c0.1,1,0.8,1.8,1.6,2.3c0.7,0.5,1.8,0.4,2.5,1c0.5,0.4,1.2,0.7,2.1,0.7c1.4-0.1,2.3-1,3.6-1.5
		c1.2-0.5,2.5-1,3.8-0.8c0.8,0.1,1.4,1,1.5,1.6c0.1,0.8-1.2,1.9-0.4,2.2c1.1,0.4,1.1-1.9,1-2.9c0.5,0,1.1,0.1,1.4-0.3
		c0.4-0.5,1.6-1.1,1.4-1.6c-0.1-0.1-0.4,0-0.7,0.1c-0.5,0.1-0.8,1-1.4,1c-0.8,0-1.5-0.7-2.2-1c-0.7-0.4-1.6-0.5-2.5-0.7
		c0.5-0.8,1.1-1.8,1.6-2.6c1-1.1,2.1-2.2,3.4-2.6c0.7,0,1.4,0.3,1.8,0.7c0.5,0.7,0.5,1.5,1.4,2.1c0.3,0.1,0.8,0.1,0.8-0.1
		c0-0.4-0.7-0.4-1-0.7c-0.4-0.5-0.4-1.4-0.7-2.1c0.7-0.3,2.6-0.8,1.9-1.5c-0.4-0.4-1,0.5-1.5,0.8c-1.1,0.4-2.5-0.3-3.6,0.1
		c-1.4,0.5-2.6,1.2-3.7,2.2c-1.1,1-2.2,1.8-3.3,2.6c-0.7,0.4-1.8,0.7-2.3,0.1c-0.5-0.5-0.7-1.4-0.8-2.2c0.1-1,0.5-1.8,0.4-2.6
		c0-1.1-0.3-2.3,0.4-3.2c0.5-1.1,1.8-1.1,2.9-1.4c1.6-0.3,3.3-1.1,5.1-0.5c0.5,0.3,0.7,0.7,1.1,1.1c0.4,0.4,1,0.5,1.5,0.8
		c0,0.3-0.1,0.5,0,0.7c0.1,0.1,0.5,0.1,0.7-0.1c0.1-0.1-0.1-0.5-0.1-0.8c0.1-0.1,0.5-0.3,0.5-0.7c0-0.1,0-0.4-0.1-0.4
		c-0.4-0.1-0.7,0.5-0.8,0.8c-0.7-0.1-1-0.8-1.4-1.2c-0.7-0.7-1.6-1.2-2.5-1.8c1-0.8,1.8-1.8,2.7-2.7c0.5-0.7,1-1.5,1.8-1.9
		c0.8-0.5,1.9-0.5,2.9-1.1c0.5-0.4,1.8-1.1,1.2-1.5c-0.5-0.5-1.4,0.8-2.2,1.1c-0.7,0.3-1.6,0.3-2.2,0.8c-0.8,0.5-1.4,1.4-2.1,2.1
		c-1.1,0.8-2.1,1.5-3.3,2.1c-0.8,0.4-1.8,1-2.7,1c0.1-0.8,0.1-1.6,0-2.5c0-0.5,0-1.2,0.4-1.5c1-0.1,1.8,0.4,2.7,1
		c0.4,0.3,1,0.1,1.2-0.3c0.3-0.3,0.1-0.5,0.1-1c-0.4,0.1-0.7,0.8-1.4,0.7c-0.8-0.4-1.6-0.7-2.5-1.1c0.3-0.4,0.7-0.7,1-1.1
		c0-0.4-0.5-0.3-0.8-0.3c0,0.3,0,0.5-0.1,1c-0.5,0.5-1.4,0.7-1.8,1.4c-0.5,1-0.5,2.3-1.4,3.2c-0.3,0.3-0.8,0.3-1.2,0.3
		c-1.4-0.4-2.5-1.2-3.8-1.8c-1.1-0.4-2.3-0.4-3.4-0.3c-1,0-1.8-0.4-2.7-0.5c-1.6-0.4-3.4-0.4-4.9,0.1c-0.8,0.3-1.4,0.7-2.2,1.1
		c-0.1-0.7-0.3-1.4-0.7-1.8c-0.3-0.4-0.7-0.7-0.5-1.2c0-0.7,0.1-1.4,0.7-1.9c0.3-0.3,0.8-0.3,1.1,0.1s0.5,0.8,0.8,1.1
		c0-0.7-0.1-1.2-0.4-1.8c-0.4-0.7-1.4-0.7-1.8-0.1c-0.5,0.7-0.7,1.5-1,2.3c-1-0.3-1.8-0.8-2.7-0.3c-1.2,0.7-1.2,2.5-0.3,3.4
		c0.7,0.7,1.8-0.7,1.2-1.4c-0.4-0.1-1.1-0.1-1.2-0.7c0.3-0.1,0.5-0.4,1-0.4c0.7,0,1.6-0.1,2.1,0.7c0.1,0.7,0.1,1.5,0,2.3
		c-0.4,1.8-1.4,3.8-3.3,4.5c-1,0.4-1.9,0.7-2.9,0.5c-0.8-0.1-1.4-1.1-1.5-1.8c-0.3-1.8,0-3.6,0.8-5.2c0.4-0.8,1.1-1.5,1.8-2.1
		c1.8-1.4,3.6-2.5,5.6-3.2c0.5-0.3,1.2-0.1,1.8,0.3c1,0.8,1.5,1.9,2.3,2.7c0.5,0.4,1.2,0.5,1.9,1c0.5,0.3,1,0.8,1.6,0.8
		c0.7,0.1,1.4,0.1,1.8-0.4c0.5-0.4,0.7-1.2,1.4-1.5c0.4-0.3,1.1,0.3,1,0.7c-0.1,0.3-0.8,0.4-0.7,0.7c0.1,0.4,1.1,0.1,1.2-0.3
		c0.3-0.7-0.4-1.4-1.1-1.6c-0.5-0.1-1.1,0.3-1.5,0.4c-0.3-0.7-0.8-2.2-1.4-1.6c-0.3,0.4,0.5,0.8,0.5,1.4c-0.1,1-1.4,1.4-2.2,1
		c-0.5-0.5-1-1.2-1.2-2.1s-0.7-1.5-1-2.3c1.5-0.5,3.2-0.7,4.7-0.7s2.7,0.8,4.1,1.4c1.1,0.4,2.3,0.3,3.4,0.7c1.2,0.4,2.2,1.2,3.3,1.8
		c0.8,0.5,1.8,0.5,2.6,0.4c0.7-0.1,1.5-0.3,2.2-0.8c0.7-0.7,1-1.8,1.8-2.5c0.8-0.4,1.8,0,2.5-0.7c-0.8,0-1.6,0-2.5,0.3
		c-1,0.4-1.2,1.5-1.8,2.2c-0.3,0.4-0.7,0.5-1.1,0.7c0.5-0.5,1.1-1.1,1.4-1.9c0.3-0.7,0-1.5,0-2.2c0.5-0.1,1-0.3,1.4-0.5
		c0.3-0.1,0.1-0.5-0.1-0.8c-0.5-0.3-1.1-0.3-1.5,0.3c-0.7,1-0.1,2.1-0.5,3.2c-0.3,0.5-0.7,1.4-1.4,1.4c-1,0.1-1.8-0.4-2.3-1
		c-1.1-0.8-2.3-1.4-3.6-2.1c-0.8-0.4-1.8-0.5-2.5-1.1c0.3-0.3,0.7-0.4,1.1-0.5c1-0.3,1.8-0.8,2.7-1c1.9-0.3,3.8-1,5.3-2.2
		c1.2-1,2.1-2.5,3.6-3.2c0.8-0.4,1.8-0.4,2.6-0.4c1.1,0,2.2,0,3.2,0.5c0.7,0.4,0.7,1.4,0.7,2.1c0,0.4-0.1,1,0.3,1.2
		c0.3-1,0.1-1.8,0-2.7c-0.1-0.7-0.7-1.1-1.2-1.5c1-0.3,1.9-0.1,2.7-0.7c0.3-0.1,0.4-0.4,0.5-0.7c-1,0.1-1.8,0.5-2.7,0.5
		c-1.9-0.1-3.8-0.8-5.9-0.7c-1.1,0-1.9,0.4-2.9,0.7c0.1-0.7,0.5-1.2,0.5-1.8c0.3-1.1,0.3-2.3,0.3-3.4c0-0.5,0-1.2,0.3-1.6
		c0.5-0.8,1.5-1.1,2.5-1.2c0.8-0.1,1.8-0.1,2.3,0.5c0.7,0.7,0.4,1.9,1.1,2.6c0.1,0.1,0.4,0.1,0.7,0.3c-0.3-0.7-0.7-1.2-0.7-1.9
		c-0.1-0.5-0.4-1-0.7-1.4c0.7-0.3,1.5-0.8,1.8-1.6c-1,0.1-1.8,1-2.7,1c-1.1,0-2.3-0.7-3.4-0.4c-1,0.4-1.2,1.5-1.8,2.3
		c-0.8,1.1-1.1,2.5-1.4,3.7c-0.1,0.4-0.3,1-0.5,1.4c-0.3,0.4-0.8,0.7-1.2,0.8c-0.7,0.3-1.5,0.3-2.2,0.4c-0.7,0-1.4,0.1-2.1,0.3
		c0.3-0.5,0.5-1,0.8-1.4c0.5-1,0.7-2.1,0.8-3.2c0.1-1,0.5-1.8,1-2.6c0.4-0.7,0.7-1.4,1.4-1.9c1-0.8,2.1-1.4,3.2-2.1
		c0.5-0.4,1-1,1.6-1.1c1,0,1.9,0.4,2.9,0.3c0.5-0.1,1.4-0.5,1.1-1c-0.4-0.4-1.1,0.5-1.6,0.5c-0.7,0.1-1.5-0.1-2.2-0.3
		c0.3-0.7,0.8-1.2,0.8-1.9c0-0.8,0.4-2.1-0.4-2.3c-0.1,0-0.3,0.3-0.4,0.4c-0.4,0.7,0.7,1.4,0.3,2.2c-0.3,0.7-0.7,1.4-1.4,1.8
		c-1.1,0.4-2.3,0.4-3.4,0.7c-0.7,0.1-1.1,0.5-1.8,1c-0.1-0.5,0-1.2,0-1.8c0-1.1-0.7-2.2-0.7-3.4c0.1-0.5,0.5-1.2,1.1-1.6
		c0.7-0.3,1.4,0.1,2.1,0c0.4-0.1,1.5-0.5,1.1-0.8c-0.4-0.5-1.2,0.4-1.9,0.4c-0.5,0-1-0.1-1.5,0.1c-0.5,0.1-1.1,0.5-1.4,1.1
		c-0.1,0.4-0.3,0.8-0.4,1.2c-0.7-0.5-0.7-1.4-0.7-2.1c0-1,1.9-1.6,1.2-2.2c-1-0.8-1.9,1.8-1.8,3c0,1,0.5,1.6,0.8,2.6
		c0.3,1.1,0.3,2.5-0.1,3.6c-0.4,1-1.2,1.4-1.8,2.2c-0.4,0.5-0.5,1.2-0.7,1.9c-0.1,0.7-1,1.1-1.2,1.6c-0.7,1.1-1.1,2.2-1.8,3.2
		c-1.4,1.6-3.2,2.9-5.1,4c-0.4,0.3-1,0.5-1.4,0.7c0.3-1.6-0.1-3.2,0.1-4.8c0.1-0.5,0.1-1,0.3-1.5c0.1-0.3,0.5-0.4,0.8-0.5
		c0.7,0.5,1,1.5,1.8,1.6c1.1,0.3,1.9-1,1.9-1.9c0-0.7-1-1.1-1.4-0.4c0.3,0.4,0.7,0.7,0.5,1.2c-0.1,0.7-1.2,0.7-1.5,0.1
		c-0.4-0.5-0.7-1.4-1.4-1.5s-1,0.5-1.4,0.8c-0.3,0-0.7,0-1.1,0.1c-0.4,0.1-0.5,0.5-0.7,0.8c0.1,0,0.3,0,0.4-0.1
		c0.5-0.1,1,0.5,0.8,1.1c-0.1,0.8-0.5,1.5-1,2.3c-0.5,1.2-1.4,2.5-2.6,3.2c-1.2,0.8-2.6,1.4-4,1.4c-1.5,0.1-2.9,0.7-4.4,0.7
		c0-0.5,0-1.1,0.3-1.6c0.5-1,1.5-1.5,2.5-1.8c0.7-0.1,1.4-0.5,2.2-0.5c0.7,0.1,1.1,0.7,1.8,0.7c0.4,0,0.8-0.1,1.1-0.4
		s0.3-0.7,0.1-0.8c-0.4-0.4-1,0.5-1.4,0.7c-0.4,0-0.7-0.3-1.1-0.5c0.7-0.3,1.4-0.4,2.1-0.8c0.7-0.5,0.8-1.8,0.1-2.3
		c-0.3-0.3-1,0-1,0.4c0,0.5,0.3,1.2-0.1,1.8c-0.5,0.7-1.8,0.5-2.6,0.3c-0.5-0.3-1.1-0.4-1.5-0.5c0.8-1,1.8-1.8,2.9-2.6
		c0.8-0.5,1.6-1.1,2.6-1.2c2.5-0.5,4.8-1.6,6.7-3.2c0.8-0.7,1.6-1.5,2.3-2.2c0.3-0.3,0.4-0.5,0.7-0.8c0.8-1.2,1.5-2.6,2.5-3.8
		c0.4-0.5,1-0.8,1.4-1.4c0.5-0.7,1-1.5,1-2.3c0-0.5-0.1-1.1,0-1.5c0.4-0.7,1.1-1.1,1.6-1.5c0.8-0.5,1.5-1.1,2.5-1.5
		c0.7-0.3,1.5-0.3,2.2-0.7c0.8-0.4,1.4-1.1,1.6-1.9c0.1-0.4,0.4-1,1-0.8c0.4,0.3,0.5,0.8,1.1,1.1c0.3,0.1,0.5,0,0.8,0
		c-0.3-0.4-0.8-0.5-1-1.1c-0.3-0.5-0.7-0.8-1.2-1.1c0.3-1,0.4-1.9,0.1-2.9c0-0.4-0.3-1-0.1-1.4c0.3-0.4,0.5-0.7,1-1.1
		c-0.7-0.3-1.1,0.4-1.4,1c-0.4,1.1,0.5,2.3,0.1,3.4c-0.3,1-1.1,1.6-2.1,2.2c-0.4,0.3-1.1,0.3-1.5,0.3c-0.8,0-1.8,0-2.6,0
		c-0.1-1-0.3-1.8-0.4-2.7c-0.1-0.7,0.8-2.2,1.4-1.5c0.3,0.3-0.3,0.8,0,1.1c0.1,0.3,0.7,0.1,0.8-0.1c0.3-0.4-0.1-1-0.4-1.2
		c-0.4-0.5-1.1-0.4-1.8-0.5c0-0.5,0.1-1.1,0.1-1.5c0-0.5-0.1-1.1-0.7-1.4c-0.4,0-1,0.5-1.2,0.3c-0.4-0.4,0.7-1.2,0.3-1.5
		c-0.7-0.4-1.4,1.8-0.5,2.1c0.4,0.1,1-0.1,1.4-0.3c0.4,0.7,0.3,1.5,0,2.2c-0.4,0.8-1,1.5-1.2,2.5c-0.3,1-0.3,1.9-0.5,2.9
		c-0.1,0.7-1,1.1-1.4,1.8c-0.5,0.8-0.8,1.8-1.5,2.6c-0.7-0.7-0.7-1.5-1.2-2.2c-0.7-1.1-1.6-2.1-2.6-3c-0.5-0.7-1-1.4-1.1-2.3
		c-0.3-1,0.4-2.1,1.4-2.3c0.5,0.8,1.1,1.9,2.1,2.2c0.7,0.3,1.9-0.3,1.8-1.1c-0.1-0.3-0.5-0.4-0.7-0.3c-0.4,0.1-0.1,1-0.5,1.1
		c-1.1,0.4-1.8-1.1-1.9-2.1c0.7-0.4,1.4-0.7,1.8-1.4c0.3-0.4,0.3-1,0.3-1.4s0.3-1.2-0.1-1.2c-0.7,0-0.1,1.4-0.4,2.1
		c-0.1,0.5-0.7,0.7-1.2,1c-0.7,0.3-1.4,0-2.1,0.1c-0.7,0.4-1,1.2-1.1,1.9c-0.4,2.1,0.4,4.1,1.4,5.9c0.7,1.2,1.4,2.5,1.4,3.8
		c-0.1,1.6-0.7,3.2-1.6,4.4c-0.5,1-1.5,1.8-2.3,2.6c-1.8,1.4-4,2.3-6.2,2.5c0.5-1.4,0.8-3,1.1-4.4c0.3-1,0.4-1.8,0.7-2.7
		c0.4-0.7,1.2-1.4,2.2-1.1c0.1,0.5,0.3,1.4,0.8,1.8c0.3,0.3,0.8,0.3,1.1,0s0.4-0.5,0.5-1c-0.1,0-0.3-0.1-0.3-0.1
		c-0.3,0.1-0.5,0.3-0.8,0.3c-0.7-0.3-0.8-1.4-1.5-1.6c-1.2-0.3-2.6,0.4-3.2,1.5c-1.1,1.8-1.6,4-3.2,5.6c-0.4-1-0.7-2.1-0.3-3
		c0.3-0.7,1.1-1,1.4-1.6c0-0.8-1.8-1.2-1.9-0.1c0.4,0,1-0.1,1.4-0.1c-0.4,0.8-1.4,1.1-1.8,1.9c-0.5,1.1-0.4,2.3-0.7,3.4
		c-0.1,0.7-0.8,1.4-1.5,1.2c-0.1-0.8,0.1-1.6,0.1-2.5c0.1-1.1,0.4-2.2,1-3.2c1.5-2.7,4.4-4.9,7.5-5.5c1-0.1,1.9,0,2.7-0.1
		s1.4-1,2.1-1.4c0.3-0.1,0.5,0.3,0.5,0.5c0,0.5-0.7,1.2-0.3,1.6c0.1,0.1,0.7,0,1-0.3c0.3-0.4,0.5-1.1,0.3-1.6
		c-0.3-0.4-0.8-0.7-1.2-1.1c-0.5-0.7-1-1.8-1.8-1.8c-0.3,0-0.3,0.5,0,0.8s0.8,0.5,0.5,1.1c-0.1,0.4-0.5,1-1.1,1
		c-1.6-0.1-3.3-0.3-4.8-0.4c0.3-0.7,0.7-1.4,1-2.1c0.3-0.8,1-1.6,1.2-2.5c0.5-1.6,1.1-3.2,1.2-4.9c0.1-1,0-1.8,0.3-2.6
		c0.3-0.7,0.7-1.4,1-2.2c0.1-0.7,0.3-1.5,1.1-1.8s1.9-0.4,2.2-1.4c-0.4,0.3-0.7,0.4-1.1,0.7c-0.5,0.3-1.1,0.3-1.5,0.5
		c-0.4,0.3-0.8,0.5-1.2,0.3c-0.4-0.4-0.7-0.8-1.1-1.1c0,1,1.1,1.4,1.1,2.3c0,0.7-0.4,1.1-0.7,1.5c-0.7,0.7-1,1.8-1.1,2.6
		c-0.1,0.5-0.3,1.2-0.7,1.6c-0.5-0.8-1-1.6-1.4-2.5c-0.7-1.2-2.2-1.6-3.2-2.6c-0.4-0.4-1.1-1.1-0.8-1.8c0.1-0.7,1.4-1.9,0.5-1.9
		c-1-0.1-0.8,1.6-1.4,2.5c-1.4-1.1-2.2-2.9-1.9-4.5c0.1-1,2.1-1.8,1.2-2.2c-0.5-0.4-1,1-1.4,1.4c-0.5,0.8-0.4,1.8-0.3,2.6
		c0.4,1.8,1.8,2.9,3,4.1c1,1,1.6,1.9,2.3,3c0.4,0.5,0.8,1.2,1.1,1.8c0.4,0.8,0.4,1.8,0.3,2.7c-0.1,1.2-1,2.5-1.9,3.2
		c-0.4-0.8-0.7-1.8-1-2.7c-0.3-0.8-0.5-1.8-0.7-2.6c0-0.3,0.1-0.4,0.3-0.4c0.3-0.1,1-0.5,1.1-0.1s-0.5,1.1-0.1,1.4
		c1,0.7,0.4-2.3-0.5-2.2c-0.5,0.1-1.4-0.1-1.6,0.4c-0.1,0.3,0.4,0.5,0.4,1s-0.1,1.1-0.3,1.6c-0.1,0-0.1,0-0.3,0
		c-0.8-0.7-1.4-1.6-1.4-2.7c-0.1-0.7,0.5-1.4,0.7-2.1c-0.1-0.5-0.5-1.1-1-1.4c-0.5-0.5-1.5-0.3-2.2-0.4c-0.3-0.3-0.1-0.8-0.5-1
		c-0.1-0.1-0.4,0-0.5,0.1c-0.1,0.3,0,0.7,0.3,0.8c0.4,0.4,1,0.3,1.4,0.4c-0.1,0.5-0.5,1.2-0.1,1.5c0.1,0.1,0.3,0,0.5,0
		c0.4-0.3,0.5-0.8,0.8-1.2c0.1,0.3,0.4,0.4,0.5,0.7c0.1,1-0.4,1.8-0.3,2.7c0.1,1.5,1.1,2.7,1.8,4.1c0.5,1,1.1,2.1,0.8,3.3
		c-0.1,0.7-0.8,1.2-1.5,1.6c-1.9,1.1-4,2.1-5.2,3.8c-0.4,0.5-0.7,1.4-1.1,1.9c-0.3-0.3-0.5-0.7-0.7-1.1c-0.4-1-0.3-1.9-0.1-3
		c0.3-1.4,1.1-2.5,1.8-3.7c0.5-1,1.4-1.9,1.5-3.2c0.1-0.8-0.7-1.4-1.1-2.1c-0.3-0.4-0.5-0.8-1-1.1c0.5-0.8,2.1-0.5,1.6-1.4
		c-0.1-0.3-0.7-0.4-1-0.1c-0.3,0.3-0.7,1-0.8,1.4c-0.1-0.1-0.4-0.4-0.5-0.5c-0.3-0.3-0.7-0.7-1.1-0.7s-0.8,0.3-0.8,0.5
		c0,0.3,0.3,0.4,0.5,0.5c0.4,0,0.7-0.3,1.1-0.1c1,0.3,1.2,1.6,1.8,2.5c0.3,0.5,0.5,1.2,0.3,1.8c-0.7,1.1-1.6,1.8-2.5,2.7
		c-0.5,0.5-1,1.2-1.4,1.8c-0.7-0.8-0.8-1.9-1.1-2.9c-0.3-1.5-0.8-3-1-4.7c-0.1-1.5-0.1-2.9,0.1-4.4c0.1-0.8,0.4-1.8,0.8-2.6
		s1.5-1.1,2.1-1.8c0.5-0.7,0.7-1.5,1.1-2.2c0.5-0.8,1.6-1.1,2.3-1.6c0.4-0.4,0.5-1.1,0.3-1.6c-0.3-0.4-0.8-0.5-1.1-0.8
		s0.1-1-0.3-1.1c-0.3,0-0.1,0.5-0.1,0.7c0,0.7,0.7,1.1,1.1,1.6c-0.4,1-1.5,1.2-2.3,1.8c-0.5,0.3-1,1-1.2,1.5
		c-0.3-0.1-0.5-0.4-0.8-0.5c0,0.7,0,1.5-0.4,2.1c-0.4,0.5-1.1,1-1.6,1.5c-0.5,0.7-1.1,1.4-1.6,2.1c-0.5,0.8-0.8,1.8-1.1,2.6
		c-0.5-0.5-1.1-1.1-1.6-1.6c-0.8-0.7-1.6-1.5-2.2-2.3c-0.3-0.4-0.7-0.8-0.5-1.4c0.3-0.7,0.5-1.5,0.7-2.2c0.3-1-0.1-1.9-0.7-2.6
		c-0.3-0.3-0.7-0.7-0.5-1.1c0-0.8,1.5-1.8,1-2.2c-0.8-0.5-1.4,1.6-1.2,2.6c0.1,0.5,0.8,1.1,0.5,1.6c-0.7-0.5-1.8-1.9-2.5-1.2
		c-0.1,0.1-0.1,0.3,0,0.4c0.3,0.4,1.1,0.1,1.5,0.4c0.4,0.3,1,0.5,1.4,1c0.3,0.7-0.1,1.4-0.3,1.9c-0.4,1.1-0.7,2.3-0.3,3.4
		c0.5,1.4,1.2,2.5,2.2,3.6c0.7,0.7,1.5,1.2,2.1,2.2c0.1,0.3,0.1,0.5,0.1,1c-0.1,1-0.1,1.8,0,2.7c0.1,1.2,0.7,2.3,1.2,3.6
		c0.4,1.1,1.1,2.1,1.9,2.9c1,0.8,1.8,1.8,2.7,2.7c0.7,0.7,1.2,1.6,1.4,2.6c-0.4-0.1-0.7-0.4-1-0.7c-1.1-1.2-2.3-2.6-3.4-3.8
		c-1.6-2.1-2.3-4.8-4-6.7c-1-1-2.1-2.1-3.3-2.6c-0.7-0.3-1-1.1-1.5-1.6c-0.5-0.4-1.1-0.8-1.6-1.1c-0.8-0.5-1.5-1.1-2.2-1.9
		c-0.5-0.5-0.7-1.4-0.5-2.1c0.1-0.7,0.7-1.1,1-1.6c0.1-0.4,0-1-0.1-1.4c-0.1,0.1-0.3,0.1-0.3,0.3c0,0.3,0,0.5,0,0.8
		c0,1-1.1,1.5-1.1,2.5c0,1.2,0.8,2.3,0.8,3.6c-0.8-0.3-1.6-0.8-2.5-0.8c-1.1,0-1.9,1-3,1.1c0-0.3,0-0.7,0.1-1
		c-0.5,0.3-0.7,0.7-0.5,1.2c0.4,0.1,1,0.3,1.4,0.1c0.7-0.3,1.1-1,1.9-0.8c1.2,0.3,2.2,1.4,3.2,2.2s2.1,1.5,3.2,2.2
		c1.6,1.1,3.2,2.5,3.8,4.4c-0.8,0.1-1.6-0.5-2.5-0.5c-1-0.1-1.8,0.1-2.6,0.1c-0.3,0-0.5-0.1-0.7-0.4c0.1-0.4,0.7-0.8,0.4-1.1
		s-0.7,0.4-0.7,0.7c-0.1,0.4,0,0.8,0,1.1c-0.3,0.1-0.7,0.3-0.8,0.5c-0.3,0.4-0.4,1.1,0,1.4c0.1,0,0.3,0,0.3,0
		c0.4-0.3,0.1-1.2,0.7-1.4c0.4-0.1,0.8,0,1.4,0.1c1.1,0.3,2.3,0.4,3.4,1c1,0.4,1.8,1.1,2.7,1.6c1.2,0.8,2.6,1.9,3.3,3.4
		c0.7,1.1,0.7,2.5,0.8,3.7c0.1,1.4-0.3,2.7-0.4,4.1c-0.3,1.6-0.7,3.3-1,4.8c-0.3,2.1-0.3,4.1-1.1,5.9c-0.5,1.1-1.5,2.3-2.7,2.6
		c-0.1-0.4-0.3-0.8-0.4-1.2c-0.3-1.4-0.5-2.7-0.8-4.2c-0.3-1.9,0-3.8,0.3-5.8c0.3-1.4,1.6-1.9,2.2-3.2c0.5-1.1,0.8-2.3,1.8-3
		c0.5,0,0.8,0.7,1.4,0.4c0.3-0.3,0.5-0.5,0.3-1c-0.3-0.5-1-0.4-1.4-0.5c0.1-1.2,0.8-2.3,0.3-3.6c-0.3-0.8-1.4-1.2-2.2-0.8
		c-0.3,0.1-0.3,0.5-0.3,0.8c0.3,0.3,0.5,0.1,1,0.3c0.1,0.3,0.4,0.5,0.3,1c-0.4,1.1-1.2,2.1-2.3,2.5c-0.3-1.4-0.1-2.7-1-3.8
		c-0.7-1-1.6-1.4-2.6-1.9c0.3-0.3,0.8-0.5,0.8-0.8c0-0.4-0.7-0.4-1.1-0.3s-0.5,0.7-0.7,1c-0.3,0-0.5,0-0.7-0.3
		c-0.1-0.3,0-0.7-0.1-0.7c-0.1-0.1-0.5,0-0.7,0.3c-0.5,1,1.4,1.1,2.2,1.6c1.1,0.7,1.8,2.1,1.6,3.4c-0.1,1.5-0.8,2.9-1.6,4.2
		c-0.4-0.4-0.7-1.1-1-1.5c-0.4-0.7-1.1-1.1-1.5-1.8c-1-1.6-2.2-3.3-2.5-5.2c-0.3-1.5-0.3-3.2,0.5-4.4c0.4-0.7,1-1.1,1.4-1.6
		c0.3-0.4,0.7-1.1,0.3-1.2c-0.4-0.1-0.5,0.7-0.8,1.1c-0.3-0.3-0.3-0.7-0.7-1s-1.1-0.8-1.4-0.4c-0.3,0.5,1.2,0.4,1.4,1.1
		c0.3,1.1-0.8,1.9-1.5,2.7c-0.7,0.8-0.8,1.8-1.2,2.7c-0.7-0.7-1.2-1.6-1.8-2.5c-1.6-2.7-2.6-6-2.2-9.3c0.1-1.1,0.7-2.2,0.8-3.4
		c0-1.4-1.4-2.5-1.4-3.8c0.3-0.8,2.2-1.2,1.5-1.8c-0.5-0.4-1.4,0.7-1.8,1.4c-0.3,0.3,0,0.8-0.1,1.2c-0.4-0.1-0.8-0.3-1.2-0.5
		c-0.4-0.4-0.4-1.1-0.8-1.5l-0.3-0.1c-0.4,0.3,0.1,1.1,0.4,1.5c0.5,0.7,1.6,0.8,2.2,1.5c0.5,1,0.1,1.9-0.1,2.9
		c-0.5,2.5-1.4,4.8-1.4,7.4c0,0.5,0.1,1.1,0,1.6c-1.8-0.4-3.4-1.1-4.8-2.3c-1-1-0.5-2.6,0.1-3.6c0.3,0.1,0.7,0.5,1,0.4
		c0.5-0.3,0.1-1.2-0.5-1.4c-0.5-0.1-0.7,0.5-1,0.8c-0.3,1-0.8,1.8-0.7,2.7c0.5,1.9,2.2,3.2,3.8,4.2c1.4,0.8,2.7,1.8,3.3,3.3
		c0.5,1.5,0.5,3.2,1.1,4.7c0.1,0.3,0.1,0.5,0.1,1c-1.1-0.7-1.6-1.9-2.5-2.7c-0.7-0.7-1.6-1.1-2.5-1.4c-1.1-0.4-2.5-0.7-3.6-1.1
		c-0.7-0.3-1.2-1-1.8-1.5c-0.5-0.5-1-1.4-1.1-2.1c-0.5-1.5-0.8-3.2-1.5-4.5c-0.4-1-1.8-1.8-1.5-2.7c0.1-0.8,1.5-1.8,0.8-2.3
		c0,0-0.1,0-0.3,0c-0.7,0.5-1.1,1.5-1.4,2.5c-0.7,0-1.9-1-2.2-0.3s1.4,0.5,2.1,1c0.5,0.3,0.5,0.8,0.8,1.4c0.3,0.8,0.8,1.5,1,2.3
		c0.1,0.8,0,1.6,0.1,2.3c0,0.5,0,1.1,0,1.5c-0.7-0.1-1.4-0.4-2.2-0.5c-1.4-0.1-2.9-0.3-4.2-0.4c-1-0.1-1.6-2.1-2.3-1.5
		c-0.3,0.3,0.1,0.7,0.1,1c0,0.4-0.1,0.7-0.1,1.1s0.3,0.7,0.3,1.1c-0.1,0.3-0.8,0.5-0.7,0.7c0.1,0.3,0.7,0,1-0.3
		c0.4-0.5-0.4-1.1,0-1.5c0.3-0.3,0.7,0,1.1,0.1c1.5,0.7,3-0.1,4.4,0.5c1.6,0.7,2.9,2.1,4.2,3.3c1.2,1.2,2.6,2.2,3.7,3.4
		c0.4,0.4,0.7,1,0.8,1.5c-1.5,0.4-3.2,0.5-4.5,0.1c-1.2-0.4-2.5-1-3.2-2.1c-0.5-1-0.3-1.9-0.3-3c0-0.5-0.3-1-0.4-1.5
		c-0.1-0.3,0.3-0.8-0.1-1.1c-0.3-0.1-0.8,0.3-1,0.5c0,0.5,0.8,0.7,0.8,1.2c0,1-0.4,1.8-1,2.6c-0.5-0.3-1.1-0.5-1.6-0.7
		c-0.5-0.1-1.1-0.3-1.5,0.1c-0.3,0.3-0.3,1,0,1.1c0.4,0.3,0.4-0.7,0.8-0.8c0.4-0.3,1,0.3,1.2,0.5c0.7,0.7,1.4,1.5,2.2,2.3
		c0.4,0.5,1.1,0.8,1.8,1.2c-1,0.3-1.9,0.4-2.9,0.5c-1.9,0.4-4-0.1-5.9-1.1c-0.8-0.4-0.7-1.6-1.5-1.9c-0.4-0.1-1.4,0-1.2,0.4
		c0,0.5,1.2,0.4,1.6,0.8s0.8,1,1.4,1.2c1,0.5,1.9,0.7,2.7,1.4c-0.7,0.5-1.5,1-2.5,1.4c-0.7,0.3-1.4,0.5-2.1,0.1
		c-0.4-0.4-0.5-1.1-1.1-1.5c-0.1-0.1-0.5-0.3-0.7-0.1c-0.4,0.5,1.5,1,1.1,1.5c-0.1,0.3-0.7,0.1-1.1,0.3c-0.3,0.1-0.5,0.5-0.3,0.8
		c0.3,0.4,1.1-0.1,1.6-0.3c0.7-0.1,1.5,0.3,2.2,0c0.7-0.1,1.1-0.5,1.6-0.8c0.7-0.4,1.5-0.7,2.5-0.8c1.4-0.3,2.7-0.3,4-0.3
		c1.4,0,2.7,0.5,4.1,0.7c2.6,0.1,5.2,0.3,7.8,1.1c0,0.3,0,0.5,0,0.8c-0.5,0.4-1.2,0.5-1.8,1c-0.8,0.5-1,1.8-0.4,2.6
		c0.5,0.8,1.4,1.6,1.2,2.7c-0.1,1-0.5,1.9-0.7,3c-1.4-0.7-2.1-2.1-2.7-3.3c-0.4-1-1-1.9-1.4-2.9c-0.3-0.7-1.2-0.8-1.5-1.5
		c-0.1-0.7,0.5-1.5,0-1.9c-0.4-0.3-0.8,0.4-1.1,0.7c-0.3-0.3-0.7-0.7-1.1-0.8c-0.4-0.3-1,0-1.2,0.3C89,77.2,88.8,77.7,89,78
		c0.4,0.5,1.4-0.3,2.1-0.1c0.4,0.3,0.5,0.7,0.7,1c0.4,0.8,1.5,1.2,1.8,2.2c0.1,0.8,0.3,1.8,0.3,2.6c-0.5-0.5-0.8-1.4-1.4-1.8
		c-0.7-0.7-1.4-1.2-2.2-1.5c-1.2-0.4-2.6-0.4-4-0.1c-1.1,0.3-2.2-0.3-3.2-0.5c-0.1-0.7,0.4-1.1,0.7-1.6c0-0.1,0-0.3-0.1-0.4
		c-0.4,0-1,0-1.1,0.5s-0.1,1.1-0.1,1.8c1.4,0.5,2.7,0.7,4,1.2c1,0.4,2.1,0.1,3.2,0.7c0.7,0.3,1.4,1,1.8,1.6c0.8,1.2,1.1,2.7,1.5,4.1
		c-1,0-1.8-0.4-2.6-1c-0.7-0.4-2.2-0.4-1.9-1.2c0.1-0.3,0.7-0.1,1-0.4v-0.3c-0.3-0.3-0.7-0.3-1-0.1s-0.5,0.4-0.4,0.8
		c0.1,0.3,0.3,0.5,0.4,0.7c-0.3,0.3-0.7,0.7-0.5,1.1c0,0.7,1.1,2.2,1.4,1.5c0.1-0.3-0.5-0.5-0.7-0.8c-0.4-0.5,0.3-1.2,0.8-1
		c0.7,0.3,1.2,1,1.8,1.5c0.5,0.5,1.1,0.8,1.8,1.1c-0.8,0.7-1.8,1.4-2.7,1.8c-0.8,0.3-1.8,0.7-2.6,0.1c-1-0.7-1.4-1.8-1.8-2.7
		c-0.4-0.8-1.1-1.5-1.5-2.2c-0.7-1-1.1-1.9-1.9-2.7c-1-0.8-2.1-1.6-3.3-1.9c-0.7-0.3-1.5-0.1-2.2-0.3c-1-0.1-2.6-1.2-1.9-1.9
		c0.1-0.3,0.7,0.3,0.8,0c0.1-0.1-0.1-0.4-0.3-0.5c-0.1-0.1-0.4,0-0.5,0c-0.3,0.1-0.3,0.5-0.5,1c-0.5,0.1-1.5-0.1-1.5,0.4
		c0.1,0.3,0.7,0.1,1.1,0.1c1,0,1.2,1.2,1.9,1.5c0.8,0.4,1.8,0.4,2.6,0.7c1.2,0.3,2.3,1.1,2.9,2.3c-0.7-0.1-1.4-0.4-2.1-0.5
		c-1-0.1-2.1,0.1-2.7,1c-0.4,0.4-0.7,1.1-1.2,1.5c-0.3,0.1-0.7,0.1-0.8-0.1c-0.5-0.5,0-1.4-0.3-1.9c-0.3-0.4-1.1-0.5-1.2-0.1
		c-0.1,0.3,0.4,0.5,0.5,0.8c0.1,0.4,0,1,0.1,1.4c0.3,0.7,1.1,1.1,1.8,1.4c-0.3,0.3-0.7,0.3-1,0.1c-0.5-0.4-0.8-1.4-1.4-1.2
		c-0.1,0-0.1,0.3-0.1,0.3c0.1,0.7,1.1,1.1,1.8,1.4c0.4,0.1,1,0,1.4-0.1c0.3,0.5,0.5,1.4,1.4,1.4c0.4,0,1-0.3,0.7-0.7
		c-0.3-0.5-1.4-0.4-1.5-1.1c-0.3-0.4,0.1-0.8,0.4-1.2c0.5-0.7,1.8-0.8,2.6-0.4c0.8,0.5,1.6,1.1,2.2,1.9c1.1,1.4,2.3,2.9,3.8,4
		c1.5,0.8,3.3,1.5,5.1,1.5c1.4,0,2.6-0.3,3.8-0.3c0,0.8-0.5,1.8,0,2.5c0.3,0.3,0.7,0.5,0.7,1c-0.5,0.5-1.2,0.5-1.9,0.5
		c-0.4,0-1-0.3-1.1-0.7s0.1-0.8,0.3-1.1c-0.4-0.3-1.1,0.1-1,0.7c0.3,1.1,1.2,1.8,2.3,1.8c0.7,0,1.4-0.3,2.1-0.3c1,0,2.1-0.1,3,0.4
		c1.1,0.7,1.8,1.9,2.6,2.9c-1,0.3-1.9,0.4-2.9,0.8c-1.5,0.4-2.9,1.2-4.4,1.5c-0.5,0.1-1-0.4-1.2-0.7c-1.1-1.2-1.5-3-2.5-4.2
		c-0.5-0.7-1.4-1.2-1.9-1.8c0.3-0.3,0.4-0.5,0.7-0.8c-0.1-0.3-0.5-0.4-1-0.3c-0.4,0.3-0.3,0.8-0.3,1.2c-0.3-0.1-0.5-0.3-0.8-0.4
		c-0.1-0.3,0-0.7-0.1-1.1c-0.3,0-0.8,0.3-0.7,0.7c0.5,1.1,1.8,1.2,2.6,2.2c0.4,0.7,0.5,1.5,0.8,2.2c0.1,1,0.4,1.8,0.5,2.7
		c-0.7-0.1-1.2-0.3-1.9-0.5c-1.1-0.5-2.1-1.1-2.9-1.9c-0.7-0.7-1.1-1.6-1.6-2.5c-1-1.1-1.1-2.7-1.9-3.8c-0.4-0.7-1.2-1.1-1.4-1.9
		c0-0.5,0.4-0.8,0.7-1.2c0.3,0.1,0.5,0.3,0.8,0.3c0.1-0.1,0-0.3-0.1-0.4c-0.5-0.4-1.2-0.3-1.8-0.7c-0.3-0.3-0.4-0.8-0.7-1.2
		c-0.1,0-0.3,0-0.3,0.1c-0.1,0.5,0.3,1,0.5,1.4c0.4,0.4,0.1,1,0,1.5c-0.3,1.1,0.5,2.3,0.3,3.4c-1.1,0.1-2.2-0.1-3.3,0
		c-1,0.1-2.1,0.1-2.9-0.5c-1-0.7-1.6-1.8-1.8-3c-0.1-0.5,0.8-1.4,0.4-1.8c-0.3-0.3-0.7,0-0.8,0.3c-0.1,0.4-0.1,0.8-0.3,1.2
		c-1-0.3-2.1-0.3-2.7,0.3v0.3c0.4,0.4,1.1,0,1.8,0c0.3,0,0.7,0,0.8,0.3c0.8,1.1,0.4,2.6,1.4,3.6c1.1,1,2.6,0.8,3.7,1.5
		c-0.4,0.3-0.8,0.5-1.4,0.8c-0.5,0.3-0.8,0.7-1.2,1c-0.5,0.5-1.5,0.1-1.9,0.7c0,0.1,0,0.3,0,0.4c0.4,0.4,1.2,0.3,1.8-0.1
		c0.5-0.4,1.1-1.1,1.8-1.5c0.5-0.3,1.2-0.7,1.8-0.5c1,0.1,1.9,0.7,2.3,1.6c0.5,1.2,1,2.5,1.8,3.4c0.7,0.8,2.1,1,2.7,1.8
		c0.3,0.3,0.3,0.8,0.3,1.2c-1.4,0.3-2.7-0.3-3.8-0.8c-1-0.4-2.1-0.4-3.2-0.3c-1,0.3-1.9,0.8-2.3,1.8c-0.5,0.8-0.5,1.9-1,2.9
		c-0.3,0.5-0.8,1-1.5,1c-1-0.3-0.8-1.6-1.4-2.3c0,0-0.3-0.1-0.3,0c-0.7,0.5,0.3,1.6,0.5,2.3c-1-0.1-1.8-0.7-2.3-1.5
		c-0.4-0.7,0.4-1.9-0.3-2.3c-0.1,0-0.3-0.1-0.4,0c-0.5,0.5-0.1,1.5,0.1,2.2c0.3,0.8,1,1.4,1.6,1.9c1.1,0.5,2.3,0.7,3.4,0.5
		c1.4-0.4,2.3-1.5,3.4-2.3c0.7-0.5,1.6-1,2.6-0.5c0.8,0.3,1.6,0.7,2.5,1.2c-0.5,0.4-1.2,0.7-1.8,1.2c-0.7,0.7-1.1,1.8-1.5,2.7
		c-0.5,1.5-0.5,3.2-1.2,4.7c-0.4,0.8-1.2,1.5-2.2,1.6c-0.7-0.1-1.2-0.7-1.6-1.2c-0.5-0.7-1.2-1.1-1.9-1.5c-0.3-0.3,0-0.7-0.3-1
		s-1,0.4-0.7,0.8c0.3,0.5,1,0.7,1.4,1c0.8,0.5,1.4,1.4,1.8,2.2c-0.3,0.3-0.7,0.4-0.7,0.8c0.1,0.5,1,0.3,1.4,0.3
		c0.7,0.1,1.2,1,2.1,0.8c1.2-0.1,2.1-1.2,2.9-1.9c0.3,0.7,0.3,1.6,1,2.1c0.5,0.4,1.1,0.7,1.5,1.2c0.1,0.7-1.4,1.2-1,1.8
		c0.3,0.3,0.7,0,1-0.3s0.4-0.7,0.7-1.1c0.4,0.3,1,0.8,1.4,0.5c0.1-0.1,0.3-0.3,0.3-0.3c-0.3-0.5-1.2-0.4-1.6-1
		c-1-1.6-1.6-3.7-1.1-5.6c0.3-1.2,1.2-2.1,2.1-2.9c1.1-1,2.2-1.6,3.4-2.2c0.8-0.4,1.6-0.4,2.5-0.4c1.1,0,2.1-0.5,3.2-0.7
		c1-0.3,1.9-0.1,2.9,0c0.8,0.1,1.5,0.3,2.3,0.5c0.5,0.1,1,0.7,0.8,1.4c-0.1,1.1-0.8,1.8-1.5,2.6c-0.5,0.5-1.1,1.2-1.9,1.4
		c-1.8,0.4-3.2,1.8-4.9,2.2c-0.7,0.1-1.4,0.1-2.1-0.1c-0.8-0.3-1.4-1.1-1.2-1.9c0.1-0.4,0.5-0.5,0.8-1c0.1-0.3-0.1-0.7,0.1-1
		c0.3-0.3,1,0,1.2-0.4c0.3-0.3,0.1-0.7-0.1-0.8c-0.4-0.1-0.8,0.3-1.1,0.5c-0.5,0.7-2.2,0-2.1,0.8c0,0.4,0.8,0.3,1,0.7
		s-0.5,0.8-0.8,1.2c-0.1,0.4,0,0.8,0.1,1.2c0.1,1,1,1.5,1.6,2.1c0.8,0.7,1.9,0.7,3,0.5c1.2-0.1,2.2-1.1,3.4-1.1
		c0,0.7-0.3,1.4-0.1,2.1c0.1,1.1,1.2,1.6,1.4,2.7c0.1,0.8,0.5,1.8,0.4,2.6c-0.1,0.5-1.1,1-0.7,1.4c0.4,0.7,1.2-0.8,1.4-1.5
		c0.1-0.7-0.7-1.5-0.3-2.1c0.4-0.4,1.2-0.1,1.6-0.5c0.3-0.3,0.5-0.5,0.3-0.8h-0.3c-0.3,0.1-0.3,0.5-0.5,0.7c-0.4,0.1-0.8,0-1.1-0.3
		c-0.3-0.4-0.5-1-0.8-1.4s-0.1-1.1,0.1-1.4c0.4-0.8,1.2-1.2,1.9-1.8c0.4-0.3,0.8-0.7,1.4-0.7c1.4,0,2.6,0.3,3.8,0.4
		c0.7,0,1.1,0.5,1.5,0.8c1,0.5,1.9,1,2.7,1.6c0.5,0.5,0.8,1.4,0.8,2.2c-0.1,1.1-0.1,2.3-0.1,3.6c0,0.7,0.7,1.4,0.5,2.3
		C107.7,131.1,107.5,132,107.2,132.7z M131,134.6c0.1,0.5,1,2.1,1.1,2.5c-0.4,0-1.4-0.5-1.6-0.8c-0.8-0.8-0.7-1.8-0.7-3.8
		c0-0.3,0.1-1.6,0.4-1.8C130.6,131.6,130.8,133.7,131,134.6z M146.1,111.5c-1.1,0.3-2.1,1.1-2.7,1.9c-0.8,1.1-1,2.7-2.2,3.6
		c-1.6,1.1-3.8,1.1-5.5,2.2c-0.7,0.4-1.4,1.1-2.2,1.5c0.8-1.6,2.7-2.5,4.2-3.4c2.5-1.4,3.8-3.8,6.2-5.5c1.2-0.8,2.6-1.1,4.1-1
		C147.3,111.3,146.7,111.2,146.1,111.5z M155,117.5c-0.3,1.1-0.7,2.2-1,3.3c-0.1,0.7,0,1.5,0,2.2c-1.4-0.7-2.1-2.5-1.4-3.8
		c0.4-1.2,1.2-2.3,1.5-3.6c0.3-1,0.3-2.1,0.5-3.2C155.4,114.1,155.4,115.9,155,117.5z M157.6,121.6c1.5,0.1,2.7-0.8,3.8-1.5
		c0.1,0.4-0.3,0.7-0.4,1c-0.8,1.2-2.2,2.2-3.6,2.5c-0.7,0.1-1.6,0-2.1-0.8c-0.3-0.8-0.1-1.6,0-2.5
		C156.1,120.8,156.8,121.5,157.6,121.6z M159.7,105.9c0.1,0.7,0.1,1.8-0.5,2.2C159.3,107.4,159.3,106.6,159.7,105.9z M155.6,108.6
		c1.5,0.5,3.2,0.5,4.7,0.1c1.4-0.3,2.7-1,4-1.8c0.4-0.3,0.8-0.4,1.2-0.7c-0.4,0.7-1.1,1-1.8,1.4c-1.4,0.8-2.9,1.5-4.4,1.9
		c-1.2,0.3-2.3,0.3-3.6,0.3c-0.5,0-1-0.5-1.4-1c-0.7-0.7-1.9-1-2.5-1.9C153.1,107.4,154.3,108.2,155.6,108.6z M139.8,108.1
		c1.1-1,2.3-1.8,3.8-1.8c-0.5,0.5-1.4,0.8-1.9,1.2c-1,0.5-1.5,1.5-2.5,2.2C139.4,109,139.4,108.5,139.8,108.1z M133.5,113
		c1.2-0.5,2.5-1.4,3.3-2.6c0.7-0.8,1-1.9,1.4-2.9c0.3,0.8,0,1.6-0.1,2.5c-0.4,1.2-0.8,2.6-1.9,3.4c-1.1,0.8-2.5,1.4-3.8,1
		c-0.5-0.1-1-0.5-1.4-1C131.7,113.3,132.7,113.3,133.5,113z M131.5,100.9c-2.1,1.5-3.6,3.8-3.8,6.4c-0.1,1.6-0.1,3.4,0.5,5.1
		c0.7,1.5,1.8,3,3.4,3.4c1.1,0.3,2.3,0.3,3.4,0c1.8-0.4,3-1.8,4.1-3.2c1.1-1.1,1.9-2.5,3-3.6c0.7-0.5,1.2-1.1,2.1-1.5
		c1.4-0.7,3-0.7,4.5-0.3c1.5,0.5,3,1.4,3.7,2.7c0.5,0.8,0.5,1.9,0.5,2.9c-0.5-0.5-0.5-1.4-1.1-1.9c-1-1.2-2.3-2.1-3.8-2.3
		c-1.5-0.3-3,0.1-4.4,0.7c-1.4,0.7-2.6,1.6-3.6,2.9c-1.1,1.4-2.6,2.5-4.1,3.4c-1.4,0.8-2.9,1.8-3.8,3.2c-0.1,0.3-0.3,0.4-0.5,0.5
		c-0.5-2.1-1.8-3.7-2.7-5.6c-1.4-1.9-2.3-4.2-2.3-6.7c0-3.6,2.7-6.9,6-7.9C132.3,100.4,131.9,100.7,131.5,100.9z M138.4,97.4
		c-2.1,0.5-4.2,1.1-6.3,1.6c-1.9,0.7-3.8,1.8-5.1,3.4c-0.8,1.1-1.4,2.6-1.6,4c-0.3,2.2-0.1,4.4,0.8,6.4c1.1,2.9,3,5.2,4.1,8.1
		c0.3,0.8,0.1,1.5,0.1,2.3c0,0.3-0.3,1.4-0.3,1.5c-0.1-0.4-0.5-1.5-0.7-2.2c-0.3-1.1-0.8-2.1-1.2-3c-1-2.2-2.3-4-3.3-6.2
		c-0.7-1.4-1.1-2.9-1.4-4.4c-0.3-2.5,0.4-5.1,1.6-7.3c1.5-2.7,4.5-4.7,7.7-5.1c1.5-0.3,3.2-0.1,4.8-0.1c1.2,0,2.5,0,3.7,0.1
		C140.5,97.2,139.4,97.1,138.4,97.4z M143,102.4c-0.8-0.4-1.4-1.2-1.8-1.9c-0.4-0.5-0.8-1.1-1.1-1.6c0.3-0.1,0.7-0.1,1-0.1
		c0.4,0.4,0.7,1,1,1.4C142.3,100.9,142.7,101.6,143,102.4z M140.4,95.9c-1.9-0.3-4-0.5-6-0.5c-1.6,0-3.3,0.4-4.8,1
		c-2.9,1.1-5.5,3.3-6.7,6.3c-1.2,2.7-1.2,5.8-0.7,8.6c0.4,2.1,1.6,3.7,2.6,5.5c-1.1-0.8-1.9-1.9-2.7-3c-1.1-1.8-1.6-3.7-1.9-5.8
		c-0.3-3,0.5-6.3,2.6-8.6c0.7-1.1,1.9-1.6,2.9-2.3c0.8-0.5,1.6-0.8,2.5-1.2c1.9-0.8,4-1,5.9-1.5c1.4-0.4,2.7-0.4,4.2-0.3
		c0.8,0,1.6,0.4,2.5,0.7c0.7,0.3,1.5,0.5,2.2,0.7c0.8,0.3,1.6,0.4,2.3,0.8C143.8,96.4,142.1,96,140.4,95.9z M142.7,93.5
		c-0.3-0.1-0.7-0.3-0.8-0.4c1.5-0.3,3.2,0.1,4.7,0.7c1.1,0.4,2.2,0.5,3.3,1C147.2,95,144.9,94.2,142.7,93.5z M154.7,93.9
		c-1.9,0.7-4,0-5.9-0.4c-1.1-0.4-2.3-0.5-3.4-1.2c0.8-0.3,1.6-0.1,2.5-0.1c1.9,0,3.7,1,5.5,1.1c1.4,0.1,2.6-0.4,3.8-0.7
		C156.5,93.1,155.6,93.5,154.7,93.9z M167.5,88.7c-1,0-1.9,0-2.9,0.3c-1.1,0.4-1.8,1.2-2.6,2.1c-1.2,1.2-2.7,2.5-4.5,3
		c0.5-0.8,1.4-1.2,2.1-1.9c1.4-1.4,2.7-2.6,4.5-3.4c1.1-0.5,2.3-0.3,3.4-0.3C167.5,88.5,167.5,88.6,167.5,88.7z"/>
	<g id="yggdrasil">
		<path fill="#FFFFFF" d="M88.1,200.3c-6.9,0-14.3-3.2-14.3-12.2c0-5.2,2.8-8.7,5.4-10.2c3.2-1.7,5.9-1.9,8.3-1.9
			c1.9,0,4.3,0.3,5.2,0.5h0.2c0.2,0,0.6,0.1,1,0.1c0.4,0.1,0.9,0.2,1.3,0.2c0.5,0.1,0.6,0.2,0.6,0.6c0,0,0,0.1,0,0.2
			c0,0.4-0.1,1.6-0.1,4.7c0,0.6,0,1-0.6,1c-0.2,0-0.5-0.1-0.5-0.7c-0.1-0.7-0.3-1.6-1-2.3c-0.9-0.8-3.4-2.2-6.7-2.2
			c-1.7,0-3.8,0.1-5.8,1.8c-1.7,1.5-2.6,3.9-2.6,7.2c0,6.6,4.3,11.2,10.4,11.2c0.8,0,1.8,0,2.5-0.3c0.3-0.1,0.3-0.5,0.3-0.9v-6.5
			c-0.2-1.1-0.4-1.5-1.2-1.6c-0.2-0.1-0.9-0.1-1.2-0.1c-0.4,0-0.6-0.3-0.6-0.5c0-0.6,0.5-0.6,0.9-0.6c0.8,0,1.8,0,2.6,0.1
			c0.7,0,1.3,0,1.8,0s1.1,0,1.8,0c0.7,0,1.3-0.1,1.8-0.1c0.2,0,0.8,0.1,0.8,0.4c0,0.1,0,0.1-0.1,0.2c-0.1,0.4-0.4,0.4-0.6,0.4
			c-0.1,0-0.2,0-0.3,0c-0.1,0-0.3,0.1-0.5,0.1c-0.6,0.2-0.9,0.5-0.9,1.5v7c0,0.8,0,0.9-0.5,1.3C93.3,200.1,89.9,200.3,88.1,200.3z
			 M61.8,200.3c-6.9,0-14.3-3.2-14.3-12.2c0-5.2,2.8-8.7,5.4-10.2c3.2-1.7,5.9-1.9,8.3-1.9c1.9,0,4.3,0.3,5.2,0.5h0.2
			c0.2,0,0.6,0.1,1,0.1c0.4,0.1,0.9,0.2,1.3,0.2c0.5,0.1,0.6,0.2,0.6,0.6c0,0,0,0.1,0,0.2c0,0.4-0.1,1.6-0.1,4.7c0,0.6,0,1-0.5,1
			c-0.2,0-0.6-0.1-0.6-0.7c-0.1-0.7-0.3-1.6-1-2.3c-0.9-0.8-3.4-2.2-6.7-2.2c-1.7,0-3.8,0.1-5.8,1.8c-1.7,1.5-2.6,3.9-2.6,7.2
			c0,6.6,4.3,11.2,10.4,11.2c0.8,0,1.8,0,2.5-0.3c0.3-0.1,0.3-0.5,0.3-0.9v-6.5c-0.2-1.1-0.4-1.5-1.2-1.6c-0.2,0-0.9,0-1.2,0
			c-0.4,0-0.6-0.3-0.6-0.5c0-0.6,0.5-0.6,1-0.6c0.8,0,1.8,0,2.6,0.1c0.7,0,1.3,0,1.8,0s1.1,0,1.8,0c0.7,0,1.3-0.1,1.8-0.1
			s0.7,0.3,0.7,0.3v0.1c0,0.5-0.4,0.5-0.6,0.5c-0.1,0-0.2,0-0.3,0c-0.1,0-0.3,0.1-0.5,0.1c-0.6,0.2-0.8,0.5-0.8,1.5v7
			c0,0.8,0,0.9-0.5,1.3C67,200.1,63.6,200.3,61.8,200.3z M177.4,200.1c-1.6,0-2.9-0.2-4.5-0.8c-0.5-0.4-0.7-0.6-0.7-1.3
			c0-1.1,0-2.3,0.1-3.1c0-0.4,0-0.8,0-0.9v-0.3c0.1-0.4,0.1-0.8,0.6-0.8s0.5,0.5,0.5,0.8c0,0.2,0.1,0.6,0.2,0.9
			c0,0.2,0.1,0.4,0.1,0.5c0.7,2.5,2.7,3,4.2,3c2.5,0,3.8-1.6,3.8-3.2c0-1.2-0.3-2.7-2.9-4.6l-1.4-1.1c-3.2-2.5-4.6-4.7-4.6-7.5
			c0-3.6,2.9-6,7.3-6c1.4,0,2.5,0.2,3.3,0.4c0.3,0.1,0.6,0.1,0.8,0.1h0.1c0.3,0.1,0.5,0.2,0.5,0.6c0,0.1,0,0.3,0,0.5
			c0,0.6-0.1,1.5-0.1,3.2c0,0.7,0,1.3-0.5,1.3s-0.5-0.6-0.5-0.8c0,0,0-1.1-0.7-1.9c-0.5-0.7-1.5-1.4-3.1-1.4c-2,0-3.3,1.2-3.3,2.9
			c0,1.2,0.5,2.2,3.1,4.2l0.8,0.7c3.6,2.7,5.1,4.9,5,7.8c0,1.1-0.3,3.8-3,5.5C181,199.7,179.4,200.1,177.4,200.1z M154.1,200.1
			c-0.5,0-1.4,0-2.1-0.1c0,0,0,0-0.1,0s-0.2,0.1-0.3,0.1h-4.2c-0.3,0-0.5,0-0.6-0.1c-0.3-0.1-0.6-0.2-0.8-0.2
			c-0.2-0.1-0.4-0.1-0.5-0.2c-1.5-0.7-2.6-2.2-4.2-4.6c-0.7-0.9-1.4-2-2-2.8c-0.5-0.6-0.8-1.2-1-1.4c0,0-0.2-0.2-0.3-0.2h-2.6v0.5
			c0,2.9,0,5.2,0.1,6.4c0.1,0.8,0.3,1.3,1,1.4l0,0c0.2,0,0.5,0,0.7,0c0.3,0,0.5,0,0.7,0c0.6,0,0.7,0.3,0.7,0.6c0,0.1-0.1,0.5-1,0.5
			c-1.2,0-2.5,0-3.5-0.1c-0.5,0-0.9,0-1,0c-0.2,0-0.6,0-1.1,0c-0.8,0-1.8,0.1-2.6,0.1c-0.9,0-0.9-0.4-0.9-0.5c0-0.2,0.2-0.6,0.8-0.6
			c0.4,0,0.8,0,1-0.1c0.4-0.1,0.5-0.4,0.6-1.1v-0.2c0.1-1.2,0.1-3.7,0.1-6.4v-11.7c0-1-0.2-1.3-1.2-1.6l0,0c-0.1,0-0.2,0-0.4,0
			s-0.4-0.1-0.7-0.1s-0.8,0-0.8-0.6c0-0.3,0.5-0.5,1-0.5c1,0,2.2,0,3.1,0.1c0.5,0,0.8,0,1,0c0.6,0,1.5,0,2.3-0.1c0.8,0,1.5,0,1.9,0
			c2,0,4.1,0.1,5.8,1.5c0.9,0.6,2.2,2.4,2.2,4.3c0,2.4-1.2,4.4-3.9,6.7c2.4,3.1,4.6,5.8,6.4,7.7c0.6,0.6,1.2,1,1.6,1.3
			c0.4-0.4,0.6-1,1-1.8l7.5-19.1c0.1-0.2,0.2-0.4,0.2-0.5c0.2-0.5,0.4-0.9,0.8-0.9c0.4,0,0.6,0.4,0.9,1l0.1,0.2
			c0.3,0.7,1.4,3.5,2.7,6.7c1.7,4.2,3.7,9.3,4.8,11.9c1,2.5,2,3.1,2.4,3.2c0.4,0.1,1,0.1,1.2,0.1c0.6-0.1,1-0.1,1.2-0.1
			c0.4,0,0.5,0.2,0.5,0.5c0,0.5-0.4,0.5-1.7,0.5h-5.8c-0.6,0-1.3,0-1.3-0.5c0-0.2,0.2-0.5,0.6-0.5c0.1,0,0.1-0.2,0.1-0.4l-2.5-6.3
			h-7c0,0,0,0.1-0.1,0.2l-1.6,4.3c-0.3,0.7-0.4,1.4-0.4,1.7s0.2,0.8,0.9,0.8h0.4c0.5,0,0.7,0,0.7,0.5
			C154.9,200.1,154.5,200.1,154.1,200.1z M161.4,190L161.4,190l-2.6-7.1l-2.5,7.1H161.4z M135.4,188.2c0,0,0,0,0.1,0
			c0.7,0.3,1.4,0.3,2.2,0.3c1.2,0,1.5-0.1,2.1-0.5c1.1-0.9,1.7-2.3,1.7-4.4c0-3.9-2.4-5.3-4.5-5.3c-0.5,0-1.3,0-1.5,0.1h-0.1l0,0
			c0,0,0,0.1,0,0.2v9.3C135.4,188,135.4,188.2,135.4,188.2L135.4,188.2z M112.3,200.1c-0.6,0-1.1,0-1.7,0s-1.1,0-1.7,0
			c-1.1-0.1-2.2-0.1-3-0.1H102c-0.9,0-0.9-0.4-0.9-0.5c0-0.2,0.2-0.5,0.8-0.5c0.4,0,0.8,0,1-0.1c0.3-0.1,0.5-0.5,0.6-1.4
			c0.1-1.2,0.1-3.7,0.1-6.4v-11.7c0-1-0.2-1.3-1.2-1.6l0,0c-0.1,0-0.2,0-0.4,0c-0.2,0-0.4-0.1-0.7-0.1c-0.3,0-0.8,0-0.8-0.5
			s0.4-0.5,0.9-0.5c0.9,0,2,0,2.9,0.1c0.6,0,1.2,0,1.5,0c0.4,0,1,0,1.7,0c0.9,0,2-0.1,3-0.1c0.5,0,1.1,0,1.7,0
			c3.4,0,7.7,0.4,10.7,3.4c0.9,0.9,3.1,3.5,3.1,7.9s-2.1,7.3-3.4,8.7C121.2,197.8,118.1,200.1,112.3,200.1z M109.9,178.5
			c-0.6,0-1.6,0.1-1.7,0.2c0,0.1,0,0.1-0.1,0.1s-0.2,0.1-0.2,0.5v16c0,0.8,0.1,1.9,0.3,2.2c0.2,0.2,1.1,1.1,3.8,1.1
			c3,0,5-0.6,6.8-2.1c1.7-1.6,2.4-3.9,2.4-7.6c0-4.4-2.2-6.7-2.8-7.3C115.4,178.5,111.3,178.5,109.9,178.5z M41.1,199.8
			c-1.1,0-2.3,0-3.2-0.1c-0.6,0-1.2,0-1.5,0s-0.9,0-1.5,0c-0.8,0-1.7,0.1-2.3,0.1c-0.4,0-1,0-1-0.5c0-0.2,0.2-0.5,0.8-0.5
			c0.4,0,0.8,0,1-0.1c0.5-0.1,0.6-0.5,0.8-1.2l0.1-0.2c0.1-0.8,0.1-1.8,0.1-2.9v-2.5c0-1.6-0.3-2.2-0.7-3.1l-0.4-0.6
			c-1.1-1.8-4-6.7-4.9-8.2c-0.6-1-1.4-1.8-2-2.1c-0.4-0.3-0.9-0.4-1.1-0.4c-0.3,0-0.7,0-0.7-0.5c0-0.3,0.5-0.5,0.8-0.5
			c0.2,0,0.8,0,1.4,0c0.9,0,1.9,0.1,2.4,0.1c0.3,0,0.7,0,1.1,0c0.6,0,1.4-0.1,2.2-0.1c0.6,0,0.6,0.3,0.6,0.5s-0.2,0.3-0.4,0.4
			c-0.1,0-0.3,0.1-0.4,0.2h-0.1c-0.1,0-0.2,0.2-0.2,0.3c0,0.2,0.1,0.5,0.4,1c0.4,0.9,3.9,6.9,5,8.6c0.3-0.6,0.9-1.7,1.6-2.9
			c1.1-2,2.5-4.5,2.7-5.1c0.3-0.8,0.4-1.3,0.4-1.4c0-0.3-0.1-0.5-0.5-0.5c-0.6,0-0.8-0.3-0.8-0.5s0.2-0.5,0.8-0.5c0.5,0,1,0,1.5,0
			s0.9,0,1.4,0c0.4,0,1.1,0,1.8-0.1c0.6,0,1.3,0,1.5,0c0.3,0,0.8,0,0.8,0.5c0,0.4-0.4,0.7-0.9,0.7c-0.1,0-0.6,0-1.3,0.4
			c-0.7,0.3-0.9,0.6-1.5,1.4c-1,1.2-5.2,8.4-5.8,9.6c-0.4,1-0.4,2-0.4,2.9v2.5c0,0.5,0,1.8,0.1,3c0,0.8,0.3,1.3,1,1.4l0,0
			c0.2,0,0.5,0,0.7,0.1c0.3,0,0.5,0,0.7,0c0.6,0,0.8,0.3,0.8,0.5C42.1,199.8,41.5,199.8,41.1,199.8z M215.8,199.7
			c-1.2,0-2.3,0-3.2-0.1c-0.7,0-1.4,0-2,0c-1.4-0.1-2.5-0.1-3.7-0.1H203c-0.4,0-0.9,0-0.9-0.5c0-0.6,0.6-0.6,0.8-0.6s0.4,0,0.6-0.1
			c0.2,0,0.4,0,0.5,0c0.2-0.1,0.4-0.5,0.6-1.4c0.1-1.2,0.1-3.7,0.1-6.4v-11.7c-0.2-1.1-0.4-1.5-1.2-1.6c-0.3-0.1-0.6-0.1-1-0.1
			c-0.6,0-0.8-0.4-0.8-0.5c0-0.6,0.5-0.6,1-0.6c0.8,0,1.8,0,2.6,0.1c0.6,0,1.2,0,1.5,0s0.9,0,1.5,0c0.9,0,1.9-0.1,2.6-0.1
			c0.6,0,1,0,1,0.6c0,0.5-0.4,0.5-0.8,0.5c-0.2,0-0.4,0-0.6,0c-0.2,0-0.4,0.1-0.6,0.1c-0.6,0.2-0.8,0.5-0.8,1.5v11.7
			c0,3.7,0,6,0.6,6.4c0.4,0.3,1.1,0.7,3.6,0.7c1.7,0,2.8,0,3.4-0.7c0.4-0.4,0.7-1.2,0.7-1.6c0-0.3,0-0.7,0.5-0.7
			c0.3,0,0.4,0.3,0.5,0.4c0,0,0,0.1,0.1,0.1v0.1c0,0.2-0.1,2.6-0.4,3.5C217.8,199.6,217.3,199.7,215.8,199.7z M198.5,199.5
			c-1.3,0-2.5,0-3.5-0.1c-0.6,0-1,0-1.3,0c-0.2,0-0.7,0-1.3,0c-0.8,0-1.8,0.1-2.5,0.1c-0.4,0-0.8,0-0.8-0.5c0-0.6,0.6-0.6,0.8-0.6
			s0.4,0,0.6-0.1c0.2,0,0.4,0,0.5,0c0.3-0.1,0.5-0.5,0.6-1.3c0.1-1.3,0.1-3.6,0.1-6.6v-11.7c-0.1-1.1-0.5-1.3-0.9-1.4
			c-0.4-0.1-0.7-0.1-1.1-0.1c-0.4,0-0.8,0-0.8-0.5s0.5-0.5,1-0.5c0.7,0,1.7,0,2.5,0.1c0.6,0,1.2,0,1.5,0s0.9,0,1.5,0
			c0.8,0,1.6-0.1,2.2-0.1c0.4,0,0.9,0.2,0.9,0.5c0,0.5-0.4,0.5-0.8,0.5c-0.2,0-0.4,0-0.5,0s-0.3,0-0.5,0c-0.6,0.2-0.8,0.5-0.8,1.6
			v11.7c0,3,0,5.3,0.1,6.7c0.1,0.8,0.2,1.2,1,1.3c0.4,0.1,1.1,0.1,1.5,0.1c0.1,0,0.3,0,0.4,0h0.1c0.1,0,0.3,0.1,0.3,0.3v0.1
			C199.2,199.2,199.1,199.5,198.5,199.5z"/>
		<path fill="#1E2123" d="M180.2,176c1.9,0,3.2,0.4,4,0.5c0.3,0.1,0.4,0.1,0.4,0.4c0,0.4-0.1,1.4-0.1,3.7c0,0.7,0,1-0.3,1
			c-0.2,0-0.3-0.1-0.3-0.5c0-0.3-0.1-1.3-0.8-2.1c-0.4-0.5-1.4-1.5-3.3-1.5c-2.2,0-3.6,1.4-3.6,3.2c0,1.4,0.7,2.5,3.2,4.4l0.8,0.7
			c3.7,2.7,5,4.9,4.9,7.6c0,1.7-0.7,3.9-2.9,5.3c-1.5,0.9-3.1,1.2-4.8,1.2s-3-0.3-4.4-0.8c-0.4-0.3-0.5-0.4-0.5-1.1
			c0-1.7,0.1-3.5,0.1-4c0.1-0.5,0.1-0.8,0.4-0.8c0.3,0,0.3,0.2,0.3,0.5c0,0.4,0.2,1,0.3,1.5c0.7,2.4,2.5,3.2,4.4,3.2
			c2.7,0,4.1-1.8,4.1-3.4c0-1.4-0.5-2.9-3-4.8l-1.4-1.1c-3.4-2.6-4.5-4.8-4.5-7.3C173.2,178.3,176,176,180.2,176 M158.6,176.2
			c0.3,0,0.4,0.3,0.7,1c0.7,1.6,5.6,14.1,7.5,18.6c1.1,2.7,2.1,3.2,2.6,3.3c0.4,0.1,1,0.1,1.2,0.1c0.6-0.1,1-0.1,1.2-0.1
			c0.3,0,0.3,0.1,0.3,0.2c0,0.3-0.3,0.3-1.4,0.3c-1.1,0-3.3,0-5.8,0c-0.5,0-1,0-1-0.3c0-0.1,0.1-0.3,0.4-0.3c0.3,0,0.4-0.3,0.3-0.7
			l-2.5-6.4c0-0.1-0.1-0.1-0.3-0.1h-6.9c-0.1,0-0.1,0-0.3,0.3l-1.6,4.4c-0.3,0.7-0.4,1.5-0.4,1.8c0,0.5,0.3,1,1.2,1h0.4
			c0.4,0,0.4,0,0.4,0.3s-0.1,0.3-0.5,0.3c-0.5,0-1.4,0-2.1-0.1c-0.1,0-0.3,0.1-0.4,0.1h-2.9c-0.1,0-0.4,0-0.5,0c-0.3,0-0.5,0-0.8,0
			s-0.4,0-0.5-0.1c-0.5-0.1-1-0.3-1.4-0.4c-1.4-0.7-2.5-2.2-4.1-4.5c-1.2-1.6-2.6-3.7-3-4.2c-0.1-0.1-0.3-0.3-0.5-0.3h-2.6
			c-0.1,0-0.3,0-0.3,0.3v0.4c0,2.9,0,5.2,0.1,6.4c0.1,0.8,0.3,1.5,1.2,1.6c0.4,0,1.1,0.1,1.5,0.1c0.3,0,0.4,0.1,0.4,0.3
			c0,0.1-0.1,0.3-0.7,0.3c-1.8,0-4-0.1-4.5-0.1s-2.5,0.1-3.7,0.1c-0.4,0-0.7-0.1-0.7-0.3c0-0.1,0.1-0.3,0.5-0.3s0.8,0,1.1-0.1
			c0.7-0.1,0.7-0.8,0.8-1.6c0.1-1.2,0.1-3.7,0.1-6.4v-5.3c0-4.7,0-5.5,0-6.4c0-1.1-0.3-1.5-1.4-1.8c-0.3,0-0.7-0.1-1.2-0.1
			c-0.3,0-0.5,0-0.5-0.3c0-0.1,0.3-0.3,0.7-0.3c1.6,0,3.6,0.1,4.1,0.1c1.1,0,3.3-0.1,4.2-0.1c1.9,0,4,0.1,5.6,1.4
			c0.8,0.5,2.1,2.2,2.1,4.1c0,2.2-1,4.2-4,6.7c2.7,3.4,4.8,6,6.6,7.9c0.7,0.7,1.4,1.2,1.8,1.5c0.5-0.5,0.8-1.2,1.2-2.1l7.5-19
			C158.2,176.6,158.3,176.2,158.6,176.2 M137.7,188.8c1.2,0,1.6-0.1,2.2-0.5c1-0.8,1.8-2.1,1.8-4.6c0-4.4-2.9-5.5-4.7-5.5
			c-0.7,0-1.4,0-1.6,0.1c-0.3,0-0.3,0.1-0.3,0.4v9.3c0,0.3,0,0.4,0.3,0.5C136.1,188.8,136.9,188.8,137.7,188.8 M156.1,190.3h5.6
			c-0.1-0.2-0.1-0.2-0.1-0.3l-2.7-7.5c0-0.1,0-0.3-0.1-0.3s-0.1,0.1-0.1,0.3L156,190C156,190.1,156,190.3,156.1,190.3 M87.6,176.3
			c2,0,4.6,0.4,5.3,0.5c0.5,0,1.6,0.3,2.3,0.3c0.4,0.1,0.4,0.1,0.4,0.4c0,0.2-0.1,1.1-0.1,4.9c0,0.6,0,0.7-0.3,0.7
			c-0.2,0-0.3-0.1-0.3-0.4c-0.1-0.7-0.3-1.7-1.1-2.5c-1-0.9-3.5-2.3-6.9-2.3c-1.6,0-3.8,0.1-6,1.9c-1.6,1.4-2.7,3.7-2.7,7.4
			c0,6.5,4.2,11.4,10.6,11.4c0.8,0,1.9,0,2.6-0.3c0.4-0.1,0.5-0.6,0.5-1.1v-2.9c0-1.5,0-2.6,0-3.6c-0.2-1.1-0.4-1.7-1.4-1.8
			c-0.2-0.1-0.8-0.1-1.2-0.1c-0.3,0-0.4-0.2-0.4-0.3c0-0.3,0.3-0.3,0.7-0.3c1.5,0,3.4,0.1,4.4,0.1s2.6-0.1,3.6-0.1
			c0.4,0,0.7,0.2,0.5,0.2c0,0.3-0.1,0.3-0.4,0.3s-0.4,0.1-0.8,0.1c-0.8,0.3-1.1,0.7-1.1,1.8c0,1,0,2.2,0,3.7v3.3
			c0,0.8,0,0.8-0.4,1.1c-2,1.1-5,1.4-7.3,1.4c-7.4,0-14-3.5-14-11.9c0-4.9,2.6-8.4,5.3-10C82.4,176.6,85,176.3,87.6,176.3
			 M61.3,176.3c2,0,4.6,0.4,5.3,0.5c0.5,0,1.6,0.3,2.3,0.3c0.4,0.1,0.4,0.1,0.4,0.4c0,0.2-0.1,1.1-0.1,4.9c0,0.6,0,0.7-0.3,0.7
			c-0.2,0-0.3-0.1-0.3-0.4c-0.1-0.7-0.3-1.7-1.1-2.5c-1-0.9-3.5-2.3-6.9-2.3c-1.6,0-3.8,0.1-6,1.9c-1.6,1.4-2.7,3.7-2.7,7.4
			c0,6.5,4.2,11.4,10.6,11.4c0.8,0,1.9,0,2.6-0.3c0.4-0.1,0.5-0.6,0.5-1.1v-2.9c0-1.5,0-2.6,0-3.6c-0.2-1.1-0.4-1.7-1.4-1.8
			c-0.2-0.1-0.8-0.1-1.2-0.1c-0.3,0-0.4-0.2-0.4-0.3c0-0.3,0.3-0.3,0.7-0.3c1.5,0,3.4,0.1,4.4,0.1s2.6-0.1,3.6-0.1
			c0.4,0,0.5,0.2,0.5,0.2c0,0.3-0.1,0.3-0.4,0.3s-0.4,0.1-0.8,0.1c-0.8,0.3-1.1,0.7-1.1,1.8c0,1,0,2.2,0,3.7v3.3
			c0,0.8,0,0.8-0.4,1.1c-2,1.1-5,1.4-7.3,1.4c-7.4,0-14-3.5-14-11.9c0-4.9,2.6-8.4,5.3-10C56.1,176.6,58.7,176.3,61.3,176.3
			 M210.8,176.4c0.6,0,0.7,0,0.7,0.3s-0.1,0.3-0.5,0.3s-0.8,0.1-1.2,0.1c-0.8,0.3-1.1,0.7-1.1,1.8c0,0.9,0,1.7,0,6.4v5.3
			c0,4,0,6.1,0.7,6.6c0.5,0.4,1.4,0.7,3.7,0.7c1.7,0,2.9,0,3.6-0.8c0.4-0.4,0.8-1.3,0.8-1.8c0-0.3,0-0.4,0.3-0.4
			c0.2,0,0.2,0.2,0.3,0.4c0,0.2-0.1,2.6-0.4,3.4c-0.1,0.7-0.4,0.8-1.9,0.8c-2.2,0-3.8-0.1-5.2-0.1c-1.4-0.1-2.5-0.1-3.7-0.1
			c-0.4,0-1.1,0-1.8,0s-1.4,0-2.1,0c-0.4,0-0.7,0-0.7-0.3c0-0.2,0.1-0.3,0.5-0.3s0.8-0.1,1.1-0.1c0.5-0.1,0.7-0.8,0.8-1.6
			c0.1-1.2,0.1-3.7,0.1-6.4v-5.3c0-4.6,0-5.4,0-6.4c-0.2-1.1-0.4-1.7-1.4-1.8c-0.3-0.1-0.6-0.1-1-0.1s-0.5-0.2-0.5-0.3
			c0-0.3,0.3-0.3,0.7-0.3c1.4,0,3.3,0.1,4.1,0.1C207.4,176.5,209.6,176.4,210.8,176.4 M197.6,176.5c0.4,0,0.7,0.2,0.7,0.3
			c0,0.3-0.1,0.3-0.5,0.3c-0.5,0-0.6,0.1-1,0.1c-0.8,0.3-1.1,0.7-1.1,1.8c0,0.9,0,1.7,0,6.4v5.3c0,3,0,5.3,0.1,6.7
			c0.1,0.8,0.2,1.4,1.2,1.5c0.4,0.1,1.1,0.1,1.5,0.1c0.3,0,0.4,0.1,0.5,0.1l0,0c0,0.2-0.2,0.2-0.5,0.2c-2.1,0-4-0.1-4.8-0.1
			c-0.6,0-2.6,0.1-3.8,0.1c-0.4,0-0.5,0-0.5-0.3c0-0.2,0.1-0.3,0.5-0.3s0.8-0.1,1.1-0.1c0.5-0.1,0.7-0.7,0.8-1.5
			c0.1-1.3,0.1-3.6,0.1-6.6v-5.3c0-4.6,0-5.4,0-6.4c-0.1-0.9-0.4-1.5-1.1-1.6c-0.4-0.1-0.7-0.1-1.1-0.1s-0.5,0-0.5-0.3
			s0.2-0.3,0.7-0.3c1.3,0,3.2,0.1,4,0.1C194.6,176.6,196.5,176.5,197.6,176.5 M47.8,176.6c0.3,0,0.5,0,0.5,0.3
			c0,0.2-0.3,0.4-0.6,0.4s-0.8,0.1-1.4,0.4c-0.7,0.3-1,0.7-1.6,1.5c-1,1.2-5.2,8.4-5.8,9.6c-0.4,1.1-0.4,2.1-0.4,3v2.5
			c0,0.5,0,1.8,0.1,3c0,0.8,0.3,1.5,1.2,1.6c0.4,0,1.1,0.1,1.5,0.1c0.3,0,0.5,0.1,0.5,0.3c0,0.3-0.3,0.3-0.7,0.3
			c-1.9,0-3.8-0.1-4.7-0.1c-0.7,0-2.7,0.1-3.8,0.1c-0.4,0-0.7,0-0.7-0.3c0-0.1,0.1-0.3,0.5-0.3c0.4,0,0.8,0,1.1-0.1
			c0.7-0.1,0.8-0.8,1-1.6c0.1-1.2,0.1-2.6,0.1-3v-2.5c0-1.6-0.3-2.3-0.7-3.2c-0.3-0.5-4.2-7.1-5.3-8.8c-0.7-1.1-1.5-1.9-2.1-2.2
			c-0.4-0.3-1-0.4-1.2-0.4c-0.3,0-0.4,0-0.4-0.3c0-0.1,0.3-0.3,0.5-0.3c0.5,0,2.9,0.1,3.8,0.1c0.7,0,1.9-0.1,3.3-0.1
			c0.3,0,0.4,0.1,0.4,0.3c0,0.1-0.3,0.1-0.7,0.3c-0.3,0-0.4,0.3-0.4,0.5s0.1,0.5,0.4,1.1c0.4,1,4.7,8.2,5.2,9
			c0.3-0.7,4.1-7.4,4.5-8.4c0.3-0.7,0.4-1.2,0.4-1.5s-0.1-0.7-0.7-0.7c-0.3,0-0.5-0.1-0.5-0.3c0-0.1,0.1-0.3,0.5-0.3
			c1,0,1.9,0.1,2.9,0.1C45.2,176.7,47.2,176.6,47.8,176.6 M112.2,176.7c3.5,0,7.6,0.4,10.5,3.3c1.5,1.5,3,4.1,3,7.7
			c0,3.8-1.6,6.7-3.3,8.5c-1.4,1.4-4.5,3.6-10.1,3.6c-1.1,0-2.3-0.1-3.4-0.1c-1.1-0.1-2.2-0.1-3-0.1c-0.3,0-1,0-1.8,0
			c-0.7,0-1.5,0-2.1,0c-0.4,0-0.7-0.1-0.7-0.3c0-0.1,0.1-0.3,0.5-0.3s0.8,0,1.1-0.1c0.5-0.1,0.7-0.8,0.8-1.6
			c0.1-1.2,0.1-3.7,0.1-6.4v-5.3c0-4.7,0-5.5,0-6.4c0-1.1-0.3-1.5-1.4-1.8c-0.3,0-0.7-0.1-1.2-0.1c-0.3,0-0.5,0-0.5-0.3
			s0.1-0.3,0.7-0.3c1.6,0,3.6,0.1,4.4,0.1c1,0,2.9-0.1,4.7-0.1C111.1,176.8,111.6,176.7,112.2,176.7 M111.9,198.8
			c3.2,0,5.2-0.7,7-2.2c2-1.9,2.5-4.7,2.5-7.8c0-3.8-1.6-6.3-2.9-7.5c-2.7-2.7-6.3-3-8.6-3c-0.5,0-1.8,0.1-1.9,0.3
			c-0.3,0.1-0.4,0.3-0.4,0.7c0,1.1,0,3.7,0,6v3.8c0,3.2,0,5.5,0,6.2s0.1,1.9,0.3,2.3C108.3,198.1,109.4,198.8,111.9,198.8 M199,199
			L199,199L199,199 M180.2,175.5c-4.5,0-7.5,2.5-7.5,6.3c0,2.9,1.4,5.2,4.7,7.7l1.4,1.1c2.5,1.9,2.8,3.3,2.8,4.4
			c0,1.4-1.3,2.9-3.6,2.9c-2.1,0-3.4-1-3.9-2.8c0-0.1-0.1-0.3-0.1-0.5c-0.1-0.3-0.2-0.7-0.2-0.9s0-1-0.8-1c-0.7,0-0.8,0.6-0.9,1v0.2
			v0.1c0,0.2,0,0.5,0,0.9c0,0.8-0.1,2-0.1,3.1c0,0.2,0,0.4,0,0.6c-0.1,0-0.1,0-0.2,0c-0.2,0-0.6,0-1.2,0.1c-0.5,0-0.8,0-1-0.1
			c-0.4-0.1-1.2-0.5-2.3-3c-1.1-2.6-3.1-7.7-4.8-11.9c-1.3-3.2-2.4-6-2.7-6.7l-0.1-0.2c-0.3-0.6-0.5-1.1-1.1-1.1s-0.8,0.5-1,1
			c-0.1,0.1-0.1,0.3-0.2,0.5l-7.5,19v0.1c-0.3,0.6-0.5,1.1-0.8,1.5c-0.4-0.3-0.9-0.7-1.4-1.2c-1.8-1.9-3.9-4.5-6.3-7.5
			c2.7-2.3,3.8-4.4,3.8-6.8c0-2.1-1.4-3.9-2.3-4.5c-1.7-1.4-3.9-1.5-5.9-1.5c-0.4,0-1.2,0-1.9,0c-0.8,0-1.7,0.1-2.3,0.1
			c-0.2,0-0.5,0-1,0c-0.9,0-2.1-0.1-3.1-0.1c-0.6,0-1.2,0.3-1.2,0.8c0,0.8,0.8,0.8,1,0.8c0.3,0,0.5,0,0.7,0.1c0.2,0,0.3,0,0.4,0
			c0.8,0.2,1,0.4,1,1.3v6.4v5.3c0,2.7,0,5.2-0.1,6.4v0.2c-0.1,0.8-0.1,0.9-0.3,0.9h-0.1c-0.2,0.1-0.6,0.1-0.9,0.1
			c-0.7,0-1,0.5-1,0.8c0,0.2,0.1,0.8,1.2,0.8c0.7,0,1.8,0,2.6-0.1c0.5,0,0.9,0,1.1,0c0.2,0,0.5,0,1,0c0.9,0,2.3,0.1,3.5,0.1
			c1.1,0,1.2-0.7,1.2-0.8c0-0.4-0.2-0.8-0.9-0.8c-0.2,0-0.4,0-0.7,0s-0.5,0-0.8-0.1c-0.4-0.1-0.6-0.2-0.7-1.2
			c-0.1-1.2-0.1-3.4-0.1-6.3v-0.2h2.4l0.1,0.1c0.2,0.2,0.5,0.7,1,1.4c0.6,0.8,1.3,1.9,2,2.8c1.7,2.4,2.8,3.9,4.3,4.6h0.1
			c0.2,0,0.3,0.1,0.5,0.1c0.2,0.1,0.5,0.2,0.8,0.2c0.2,0.1,0.4,0.1,0.7,0.1h0.8h0.5h2.9c0.1,0,0.3,0,0.4-0.1c0,0,0,0,0.1,0
			c0.7,0.1,1.6,0.1,2.1,0.1c0.3,0,1,0,1-0.8c0-0.7-0.4-0.8-0.9-0.8H154c-0.7,0-0.7-0.4-0.7-0.5c0-0.2,0.1-1,0.4-1.6l1.6-4.4l0,0h6.7
			l2.4,6.1c0,0,0,0,0,0.1c-0.5,0.1-0.7,0.4-0.7,0.8c0,0.8,0.9,0.8,1.5,0.8h5.8c1.1,0,1.8,0,1.9-0.7l0.1,0.1l0.1,0.1
			c1.6,0.6,3,0.8,4.6,0.8c2,0,3.6-0.4,5.1-1.3c2.8-1.8,3.1-4.6,3.1-5.7c0.1-3-1.4-5.3-5.1-8l-0.8-0.7c-2.6-1.9-3-2.9-3-4
			c0-1.6,1.3-2.7,3.1-2.7c1.5,0,2.4,0.7,2.9,1.3c0.7,0.8,0.7,1.7,0.7,1.8c0,0.9,0.5,1,0.8,1c0.8,0,0.8-0.8,0.8-1.5
			c0-1.6,0-2.6,0.1-3.1c0-0.3,0-0.4,0-0.6c0-0.6-0.4-0.8-0.7-0.8h-0.1h-0.1c-0.2,0-0.5-0.1-0.8-0.1
			C182.7,175.7,181.6,175.5,180.2,175.5L180.2,175.5z M135.6,178.7L135.6,178.7c0.2-0.1,0.9-0.1,1.4-0.1c0.7,0,4.2,0.2,4.2,5
			c0,2.6-0.9,3.7-1.6,4.2c-0.5,0.3-0.8,0.4-1.9,0.4c-0.8,0-1.5,0-2.1-0.3l0,0L135.6,178.7L135.6,178.7z M156.6,189.8l2.2-6.1
			l2.2,6.1H156.6L156.6,189.8z M87.6,175.8c-2.5,0-5.2,0.2-8.4,2c-2.7,1.6-5.6,5.2-5.6,10.4c0,9.1,7.5,12.4,14.5,12.4
			c1.8,0,5.2-0.2,7.5-1.5c0,0,0,0,0.1,0c0.6-0.4,0.6-0.6,0.6-1.5v-3.3v-3.7c0-0.9,0.2-1.1,0.7-1.3c0.2,0,0.4,0,0.5-0.1
			c0.1,0,0.1,0,0.2,0c0.2,0,0.7,0,0.9-0.5l0,0c0.1-0.2,0.1-0.4,0-0.5c-0.2-0.3-0.7-0.4-1-0.4c-0.5,0-1.2,0-1.8,0.1
			c-0.6,0-1.3,0-1.8,0c-0.4,0-1.1,0-1.8,0c-0.8,0-1.8-0.1-2.6-0.1c-0.4,0-1.2,0-1.2,0.8c0,0.4,0.3,0.8,0.9,0.8c0.2,0,0.8,0,1,0.1
			c0.1,0,0.1,0,0.2,0c0.6,0.1,0.7,0.3,0.9,1.3v3.6v2.9c0,0.5-0.1,0.6-0.1,0.6h-0.1c-0.6,0.3-1.6,0.3-2.4,0.3
			c-5.9,0-10.1-4.5-10.1-10.9c0-3.2,0.9-5.6,2.5-7c2-1.6,4-1.8,5.7-1.8c3.3,0,5.7,1.4,6.6,2.2c0.6,0.6,0.8,1.4,0.9,2.2
			c0,0.6,0.4,0.9,0.8,0.9c0.8,0,0.8-0.6,0.8-1.2c0-3.1,0.1-4.2,0.1-4.7c0-0.1,0-0.2,0-0.2c0-0.6-0.3-0.8-0.8-0.9h-0.1
			c-0.3,0-0.8-0.1-1.2-0.2c-0.4-0.1-0.7-0.1-1-0.1h-0.1C91.9,176.1,89.5,175.8,87.6,175.8L87.6,175.8z M61.3,175.8
			c-2.5,0-5.2,0.2-8.4,2c-2.7,1.6-5.6,5.2-5.6,10.4c0,9.1,7.5,12.4,14.5,12.4c1.8,0,5.2-0.2,7.5-1.5c0,0,0,0,0.1,0
			c0.6-0.4,0.6-0.6,0.6-1.5v-3.3v-3.7c0-0.9,0.2-1.1,0.7-1.3c0.2,0,0.4,0,0.5-0.1c0.1,0,0.1,0,0.2,0c0.3,0,0.9,0,0.9-0.8
			c0-0.1,0-0.2-0.1-0.2c-0.1-0.2-0.4-0.5-0.9-0.5s-1.2,0-1.8,0.1c-0.6,0-1.3,0-1.8,0c-0.4,0-1.1,0-1.8,0c-0.8,0-1.8-0.1-2.6-0.1
			c-0.4,0-1.2,0-1.2,0.8c0,0.4,0.3,0.8,0.9,0.8c0.2,0,0.8,0,1,0.1c0.1,0,0.1,0,0.2,0c0.6,0.1,0.7,0.3,0.9,1.3v3.6v2.9
			c0,0.5-0.1,0.6-0.1,0.6h-0.1c-0.6,0.3-1.6,0.3-2.4,0.3c-5.9,0-10.1-4.5-10.1-10.9c0-3.2,0.9-5.6,2.5-7c2-1.6,4-1.8,5.7-1.8
			c3.3,0,5.7,1.4,6.6,2.2c0.6,0.6,0.8,1.4,0.9,2.2c0,0.6,0.4,0.9,0.8,0.9c0.8,0,0.8-0.6,0.8-1.2c0-3.1,0.1-4.2,0.1-4.7
			c0-0.1,0-0.2,0-0.2c0-0.6-0.3-0.8-0.8-0.9h-0.1c-0.3,0-0.8-0.1-1.2-0.2c-0.4-0.1-0.7-0.1-1-0.1h-0.1
			C65.6,176.1,63.2,175.8,61.3,175.8L61.3,175.8z M210.8,175.9c-0.7,0-1.7,0-2.6,0.1c-0.7,0-1.2,0-1.5,0s-0.9,0-1.5,0
			c-0.8,0-1.8-0.1-2.6-0.1c-0.4,0-1.2,0-1.2,0.8c0,0.3,0.3,0.8,1,0.8c0.4,0,0.6,0,0.8,0.1h0.1c0.6,0.1,0.7,0.3,0.9,1.3v6.4v5.3
			c0,2.7,0,5.2-0.1,6.4c-0.1,0.9-0.3,1.1-0.4,1.1c-0.1,0-0.3,0-0.5,0s-0.4,0.1-0.6,0.1c-0.9,0-1,0.5-1,0.8c0,0.8,0.8,0.8,1.2,0.8
			h2.1h1.8c1.2,0,2.3,0,3.7,0.1c0.7,0,1.3,0,2,0c0.9,0,2,0.1,3.2,0.1c1.3,0,2.2,0,2.4-1.2c0.3-1,0.4-3.5,0.4-3.5
			c0-0.1,0-0.2-0.1-0.2V195c-0.1-0.2-0.2-0.6-0.7-0.6c-0.8,0-0.8,0.6-0.8,0.9c0,0.3-0.3,1.1-0.7,1.4c-0.6,0.7-1.6,0.7-3.2,0.7
			c-2.4,0-3.1-0.3-3.4-0.6c-0.5-0.4-0.5-2.9-0.5-6.2v-5.3v-6.4c0-0.9,0.2-1.1,0.7-1.3c0.2,0,0.4,0,0.6-0.1c0.2,0,0.4,0,0.5,0
			c0.3,0,1,0,1-0.8C212,175.9,211.4,175.9,210.8,175.9L210.8,175.9z M197.6,176c-0.6,0-1.5,0-2.3,0.1c-0.6,0-1.1,0-1.4,0
			c-0.3,0-0.9,0-1.5,0c-0.8,0-1.7-0.1-2.5-0.1c-0.5,0-1.2,0-1.2,0.8s0.7,0.8,1,0.8c0.4,0,0.6,0,1,0.1c0,0,0,0,0.1,0
			c0.2,0,0.5,0.1,0.7,1.1v6.4v5.3c0,3,0,5.3-0.1,6.6c-0.1,0.8-0.3,1-0.4,1c-0.2,0-0.3,0-0.5,0s-0.4,0.1-0.6,0.1c-0.9,0-1,0.5-1,0.8
			c0,0.8,0.7,0.8,1,0.8c0.7,0,1.7,0,2.5-0.1c0.6,0,1,0,1.3,0s0.8,0,1.3,0c0.9,0,2.2,0.1,3.5,0.1c0.7,0,0.9-0.4,1-0.6
			c0-0.1,0-0.2,0-0.2c0-0.3-0.2-0.5-0.5-0.5c-0.1,0-0.1,0-0.2,0c-0.1,0-0.2,0-0.3,0c-0.4,0-1,0-1.4-0.1c0,0,0,0-0.1,0
			c-0.6-0.1-0.6-0.2-0.8-1.1c-0.1-1.4-0.1-3.7-0.1-6.6v-5.3V179c0-0.9,0.2-1.1,0.7-1.3c0.2,0,0.3,0,0.4-0.1c0.1,0,0.3,0,0.5,0
			c0.3,0,1,0,1-0.8C198.8,176.3,198.2,176,197.6,176L197.6,176z M47.8,176.1c-0.3,0-0.9,0-1.6,0c-0.7,0-1.4,0.1-1.7,0.1
			c-0.5,0-1,0-1.4,0c-0.5,0-1-0.1-1.5-0.1c-0.7,0-1,0.5-1,0.8c0,0.4,0.3,0.8,1,0.8c0.2,0,0.2,0,0.2,0.2c0,0.1,0,0.5-0.4,1.3
			c-0.2,0.6-1.6,3.1-2.7,5.1c-0.6,1.1-1.1,1.9-1.4,2.5c-1.3-2.1-4.4-7.4-4.7-8.2c-0.3-0.6-0.4-0.8-0.4-0.9l0,0h0.1
			c0.2-0.1,0.3-0.1,0.4-0.1c0.2-0.1,0.6-0.2,0.6-0.6c0-0.4-0.2-0.8-0.9-0.8c-0.8,0-1.6,0-2.2,0.1c-0.4,0-0.8,0-1.1,0
			c-0.5,0-1.5,0-2.4-0.1c-0.6,0-1.2,0-1.4,0c-0.4,0-1,0.3-1,0.8c0,0.8,0.6,0.8,0.9,0.8c0.1,0,0.6,0.1,0.9,0.3c0,0,0,0,0.1,0
			c0.4,0.2,1.2,0.9,1.9,2c0.9,1.4,3.8,6.3,4.9,8.1l0.4,0.6c0.4,0.8,0.6,1.5,0.6,3v2.5c0,1.2,0,2.1-0.1,2.9v0.2c-0.2,0.7-0.3,1-0.5,1
			h-0.1c-0.2,0.1-0.6,0.1-0.9,0.1c-0.7,0-1,0.5-1,0.8c0,0.8,0.8,0.8,1.2,0.8c0.6,0,1.5,0,2.3-0.1c0.6,0,1.2,0,1.5,0
			c0.4,0,0.9,0,1.5,0c0.9,0,2.1,0.1,3.2,0.1c0.4,0,1.2,0,1.2-0.8c0-0.4-0.3-0.8-1-0.8c-0.2,0-0.4,0-0.7,0s-0.5,0-0.8-0.1
			c-0.2,0-0.7-0.1-0.7-1.1c-0.1-1.2-0.1-2.5-0.1-3v-2.5c0-0.9,0-1.8,0.4-2.8c0.6-1.3,4.8-8.3,5.7-9.5c0.6-0.8,0.8-1.1,1.4-1.4
			c0.5-0.3,1-0.4,1.2-0.4s0.5-0.1,0.7-0.2c0.3-0.2,0.4-0.4,0.4-0.7C48.8,176.1,48.1,176.1,47.8,176.1L47.8,176.1z M112.2,176.2
			c-0.6,0-1.2,0-1.7,0l0,0c-1,0-2.1,0-3,0.1c-0.7,0-1.3,0-1.7,0c-0.3,0-0.9,0-1.5,0c-0.9,0-2-0.1-2.9-0.1c-0.6,0-1.2,0-1.2,0.8
			s0.8,0.8,1,0.8c0.3,0,0.5,0,0.7,0.1c0.2,0,0.3,0,0.4,0c0.8,0.2,1,0.4,1,1.3v6.4v5.3c0,2.7,0,5.2-0.1,6.4c-0.1,1.1-0.4,1.1-0.4,1.2
			c0,0,0,0-0.1,0c-0.2,0.1-0.6,0.1-0.9,0.1c-0.7,0-1,0.5-1,0.8c0,0.2,0.1,0.8,1.2,0.8h2.1h1.8c0.8,0,1.9,0,3,0.1
			c0.6,0,1.2,0,1.7,0.1c0.6,0,1.2,0.1,1.7,0.1c5.8,0,9.1-2.3,10.5-3.7c1.3-1.4,3.4-4.3,3.4-8.9c0-4.4-2.2-7.1-3.1-8.1
			C120,176.6,115.7,176.2,112.2,176.2L112.2,176.2z M108.3,178.9c0.2-0.1,1-0.2,1.6-0.2c2.3,0,5.7,0.3,8.2,2.9
			c0.7,0.6,2.8,2.9,2.8,7.1c0,3.6-0.7,5.9-2.3,7.4c-1.8,1.5-3.7,2.1-6.7,2.1c-2.5,0-3.3-0.7-3.6-1c-0.1-0.3-0.2-1.3-0.2-2V189v-3.8
			v-6c0-0.2,0-0.2,0-0.2C108.2,179,108.3,179,108.3,178.9L108.3,178.9z"/>
	</g>
	<g id="gaming">
		
			<linearGradient id="SVGID_1_" gradientUnits="userSpaceOnUse" x1="2824.1665" y1="2636.469" x2="2824.1665" y2="2661.3237" gradientTransform="matrix(0.3 0 0 -0.3 -727.3 1003.9)">
			<stop  offset="0" style="stop-color:#CC6628"/>
			<stop  offset="1" style="stop-color:#993520"/>
		</linearGradient>
		<path fill="url(#SVGID_1_)" d="M137.7,213.1c-0.1,0-0.3-0.1-0.3-0.3v-0.3c0-0.1,0.1-0.3,0.3-0.3s0.3,0,0.4,0l0,0v-0.1v-5.5
			c0,0,0,0,0-0.1l0,0c-0.1,0-0.3-0.1-0.5-0.1c-0.1,0-0.1,0-0.2-0.1l-0.1-0.1c0,0-0.1-0.1-0.1-0.2v-0.3c0-0.1,0.1-0.3,0.3-0.3h3.2
			c0.1,0,0.3,0.1,0.3,0.3v0.3c0,0.1-0.1,0.3-0.3,0.3c-0.4,0-0.5,0-0.6,0.1v5.6l0.1,0.2c0.1,0,0.3,0,0.5,0h0.3c0.1,0,0.3,0.1,0.3,0.3
			v0.3c0,0.1-0.1,0.3-0.3,0.3L137.7,213.1L137.7,213.1z M103.9,213.1c-0.1,0-0.3-0.1-0.3-0.3v-0.3c0-0.1,0.1-0.3,0.3-0.3h0.3
			c0.1,0,0.2,0,0.3,0l0,0v-0.1v-4.4l-2.2,4.9c0,0.1-0.1,0.1-0.2,0.1h-0.3c-0.1,0-0.2-0.1-0.2-0.1l-2.2-4.9v3.7c0,0.2,0,0.2,0.2,0.3
			c0.1,0.1,0.4,0.3,0.6,0.3c0.1,0,0.3,0.1,0.3,0.3v0.3c0,0.1-0.1,0.3-0.3,0.3h-2.3c-0.1,0-0.3-0.1-0.3-0.3v-0.3
			c0-0.1,0.1-0.3,0.3-0.3c0.2,0,0.4-0.1,0.5-0.2c0.2-0.2,0.2-0.3,0.2-0.3v-5.1c-0.1,0-0.2-0.1-0.2-0.1c-0.1,0-0.3-0.1-0.5-0.1h-0.1
			c-0.1,0-0.3-0.1-0.3-0.3v-0.1c0-0.1,0.1-0.3,0.3-0.3h2.1c0.1,0,0.2,0.1,0.2,0.1l2.5,5l2.3-5c0-0.1,0.1-0.1,0.2-0.1h2.1
			c0.1,0,0.3,0.1,0.3,0.3v0.3c0,0.1-0.1,0.3-0.3,0.3h-0.3c-0.3,0-0.4,0-0.5,0.1v5.6l0.1,0.2c0.1,0,0.3,0,0.5,0h0.3
			c0.1,0,0.3,0.1,0.3,0.3v0.3c0,0.1-0.1,0.3-0.3,0.3L103.9,213.1L103.9,213.1z M212.1,213c-1.1,0-2-0.4-2.5-1.1
			c-0.5-0.7-1-1.5-1-2.4c0-1.1,0.3-1.9,1.1-2.7c0.5-0.7,1.5-1.2,2.7-1.2c0.9,0,1.5,0.2,2,0.7c0-0.1,0-0.1,0-0.2
			c0-0.1,0.1-0.3,0.3-0.3h0.3c0.1,0,0.3,0.1,0.3,0.3v2.2c0,0.1-0.1,0.3-0.3,0.3h-0.3c-0.1,0-0.2-0.1-0.2-0.2c-0.1-0.6-0.3-1-0.7-1.5
			c-0.4-0.4-0.9-0.6-1.3-0.6c-0.4,0-1.1,0.3-1.4,0.6c-0.3,0.3-0.6,1.2-0.6,2.3s0.3,2,0.6,2.3c0.4,0.4,1,0.6,1.4,0.6
			c0.1,0,0.3,0,0.5,0s0.4-0.1,0.5-0.1c0.1-0.1,0.2-0.2,0.3-0.4c0.1-0.1,0.1-0.3,0.1-0.7c0-0.2,0-0.4,0-0.5l-0.1-0.1
			c-0.1-0.1-0.2-0.1-0.2-0.2c-0.1-0.2-0.1-0.2-0.2-0.3c-0.1,0.1-0.1,0.1-0.2,0.1c-0.2,0-0.3-0.1-0.4-0.2c-0.1-0.1-0.1-0.2-0.1-0.3
			s0.1-0.2,0.2-0.2h3.2c0.1,0,0.3,0.1,0.3,0.3v0.3c0,0.1-0.1,0.3-0.3,0.3c-0.3,0-0.4,0-0.6,0.1c0,0-0.1,0-0.1,0.1v1.1v0.7
			c0,0.1-0.1,0.3-0.3,0.3h-0.3c-0.2,0-0.4,0.1-0.7,0.2l-0.2,0.1c-0.2,0-0.4,0.1-0.6,0.1C212.8,212.9,212.4,213,212.1,213z M27,213
			c-1.1,0-2-0.4-2.5-1.1c-0.7-0.7-1-1.5-1-2.4c0-1.1,0.3-1.9,1.1-2.7c0.8-0.8,1.6-1.2,2.7-1.2c0.9,0,1.5,0.2,2,0.7
			c0-0.1,0-0.1,0-0.2c0-0.1,0.1-0.3,0.3-0.3h0.3c0.1,0,0.3,0.1,0.3,0.3v2.2c0,0.1-0.1,0.3-0.3,0.3h-0.3c-0.1,0-0.2-0.1-0.2-0.2
			c-0.1-0.6-0.3-1-0.7-1.5c-0.4-0.4-0.9-0.6-1.3-0.6s-1.1,0.3-1.4,0.6s-0.6,1.2-0.6,2.3c0,0.9,0.1,1.9,0.6,2.3
			c0.5,0.4,1.1,0.7,1.5,0.7c0.1,0,0.3,0,0.5,0s0.4-0.1,0.5-0.1s0.1-0.1,0.2-0.3c0.1-0.3,0.1-0.4,0.1-0.8c0-0.2,0-0.4,0-0.5l0,0
			c0,0,0-0.1-0.1-0.1c-0.1-0.1-0.2-0.1-0.2-0.2c-0.1-0.2-0.3-0.3-0.3-0.3h-0.1c-0.1,0-0.3-0.1-0.3-0.3s0.1-0.3,0.3-0.3h3
			c0.1,0,0.3,0.1,0.3,0.3v0.3c0,0.1-0.1,0.3-0.3,0.3c-0.3,0-0.4,0-0.6,0.1c0,0-0.1,0-0.1,0.1v1.1v0.7c0,0.1-0.1,0.3-0.3,0.3h-0.3
			c-0.2,0-0.4,0.1-0.7,0.2l-0.2,0.1c-0.2,0-0.4,0.1-0.6,0.1C27.7,212.9,27.3,213,27,213z M176.9,212.9c-0.1,0-0.1,0-0.2-0.1
			l-0.1-0.1l-0.1-0.1l-4.1-5.5v4.7c0.2,0,0.3,0.1,0.4,0.1c0.1,0,0.3,0.1,0.5,0.1c0.1,0,0.3,0.1,0.3,0.3v0.3c0,0.1-0.1,0.3-0.3,0.3
			h-2.5c-0.1,0-0.3-0.1-0.3-0.3v-0.3c0-0.1,0.1-0.3,0.3-0.3s0.3,0,0.4-0.1c0.1,0,0.2,0,0.2,0s0.1,0,0.1-0.1V211v-3.6
			c0-0.5,0-0.8-0.1-1l-0.1-0.1c-0.1,0-0.1,0-0.2,0c-0.1,0-0.3-0.1-0.5-0.1c-0.1,0-0.3-0.1-0.3-0.3v-0.3c0-0.1,0.1-0.3,0.3-0.3h1.9
			c0.1,0,0.2,0,0.2,0.1l3.6,4.6v-3.3c0-0.3,0-0.4-0.1-0.6c-0.2-0.1-0.3-0.1-0.4-0.3c0,0-0.3,0-0.5,0c-0.1,0-0.3-0.1-0.3-0.3
			s0.1-0.3,0.3-0.3h2.5c0.1,0,0.3,0.1,0.3,0.3v0.3c0,0.1-0.1,0.3-0.3,0.3s-0.3,0-0.4,0.1c-0.1,0-0.2,0-0.2,0s-0.1,0-0.1,0.1
			s-0.1,0.1-0.1,0.2c0,0.1-0.1,0.3-0.1,0.5v5.4l0.1,0.1c0.1,0.1,0.1,0.3,0,0.3C177,212.9,177,212.9,176.9,212.9z M61.2,212.7
			c-0.1,0-0.3-0.1-0.3-0.3v-0.3c0-0.1,0.1-0.3,0.3-0.3s0.4-0.1,0.5-0.2c0.1-0.1,0.2-0.4,0.4-1c0,0,0.1-0.4,0.4-0.6l1.8-4.6
			c0-0.1,0.1-0.2,0.2-0.2h0.3c0.1,0,0.2,0.1,0.2,0.2l2.2,5.3l0.3,0.7l0.1,0.1c0,0.1,0.1,0.1,0.1,0.1c0.1,0.1,0.3,0.1,0.4,0.1
			s0.3,0.1,0.3,0.3v0.3c0,0.1-0.1,0.3-0.3,0.3h-2.6c-0.1,0-0.3-0.1-0.3-0.3V212c0-0.1,0.1-0.3,0.3-0.3c0.3,0,0.4,0,0.5-0.1v-0.1
			c0-0.1-0.1-0.3-0.3-0.6l-0.6-0.8H63l-0.1,0.2c-0.3,0.7-0.4,1.1-0.4,1.1c0,0.1,0,0.2,0,0.2c0.1,0,0.2,0,0.2,0.1c0,0,0.2,0,0.3,0
			s0.3,0.1,0.3,0.3v0.3c0,0.1-0.1,0.3-0.3,0.3h-1.8V212.7z M65,209.6l-0.8-2l-0.8,2H65z"/>
		<path fill="#1E2123" d="M64.9,205.6l2.2,5.3l0.3,0.7c0.1,0.1,0.1,0.3,0.3,0.4c0.1,0.1,0.3,0.1,0.5,0.1v0.3h-2.6v-0.3
			c0.3,0,0.5,0,0.7-0.1c0.1,0,0.1-0.1,0.1-0.3c0-0.1-0.1-0.3-0.3-0.7l-0.7-0.9h-2.6l-0.1,0.4c-0.3,0.7-0.4,1.1-0.4,1.2
			c0,0.3,0.1,0.4,0.3,0.4c0.1,0.1,0.3,0.1,0.5,0.1v0.3h-1.9v-0.3c0.3,0,0.5-0.1,0.7-0.3c0.1-0.1,0.3-0.5,0.5-1.1
			c0,0,0.1-0.3,0.3-0.5l1.9-4.7L64.9,205.6 M62.9,209.9h2.4l-1.2-2.9L62.9,209.9 M172.6,205.7l4,5.2v-4c0-0.3,0-0.5-0.1-0.7
			c0-0.1-0.3-0.1-0.4-0.3c-0.1-0.1-0.4-0.1-0.7-0.1v-0.1h2.5v0.3c-0.3,0-0.5,0.1-0.7,0.1c-0.1,0.1-0.3,0.1-0.3,0.3
			c0,0.1-0.1,0.3-0.1,0.7v5.5l-4.6-6.2v4.7c0,0.4,0,0.7,0,0.8s0.1,0.3,0.3,0.3s0.4,0.1,0.8,0.1v0.3h-2.5v-0.3c0.3,0,0.5-0.1,0.7-0.1
			c0.1-0.1,0.3-0.1,0.3-0.3s0-0.4,0-0.8v-3.6c0-0.5,0-0.8-0.1-1.1c0-0.1-0.1-0.3-0.3-0.3c-0.1,0-0.3-0.1-0.7-0.1v-0.3L172.6,205.7
			 M212.3,205.9c1,0,1.6,0.3,2.2,1c0.1-0.3,0.1-0.5,0.1-0.7h0.3v2.2h-0.3c-0.1-0.7-0.4-1.2-0.8-1.6c-0.4-0.4-1-0.7-1.5-0.7
			s-1.2,0.3-1.6,0.7c-0.4,0.4-0.7,1.4-0.7,2.5s0.3,2.1,0.7,2.5c0.4,0.5,1.1,0.7,1.6,0.7c0.3,0,0.7-0.1,1-0.1
			c0.3-0.1,0.4-0.3,0.5-0.5s0.1-0.4,0.1-0.8c0-0.4,0-0.7-0.1-0.7c0-0.1-0.1-0.1-0.3-0.3c-0.1-0.2-0.2-0.4-0.5-0.4h2.9v0.3
			c-0.3,0-0.5,0-0.7,0.1c-0.1,0.1-0.3,0.1-0.3,0.3c0,0.1,0,0.5,0,1.1v0.7c-0.1,0-0.1,0-0.3,0c-0.3,0-0.5,0.1-1,0.3
			c-0.5,0.1-1.1,0.3-1.5,0.3c-1,0-1.8-0.3-2.3-1s-1-1.4-1-2.3c0-1,0.3-1.8,1-2.5C210.3,206.3,211.2,205.9,212.3,205.9 M27.2,205.9
			c1,0,1.6,0.3,2.2,1c0.1-0.3,0.1-0.5,0.1-0.7h0.3v2.2h-0.3c-0.1-0.7-0.4-1.2-0.8-1.6c-0.4-0.4-1-0.7-1.5-0.7s-1.2,0.3-1.6,0.7
			s-0.7,1.4-0.7,2.5s0.1,2.1,0.7,2.5c0.5,0.4,1.1,0.7,1.6,0.7c0.3,0,0.7-0.1,1-0.1s0.4-0.3,0.5-0.5c0.1-0.3,0.1-0.4,0.1-0.8
			c0-0.4,0-0.7-0.1-0.7c0-0.1-0.1-0.1-0.3-0.3c-0.1-0.2-0.3-0.4-0.5-0.4h-0.1h0.1h2.9v0.3c-0.3,0-0.5,0-0.7,0.1
			c-0.1,0.1-0.3,0.1-0.3,0.3c0,0.1,0,0.5,0,1.1v0.7c-0.1,0-0.1,0-0.3,0c-0.3,0-0.5,0.1-1,0.3c-0.5,0.1-1.1,0.3-1.5,0.3
			c-1,0-1.8-0.3-2.3-1c-0.7-0.7-1-1.4-1-2.3c0-1,0.3-1.8,1-2.5C25.4,206.3,26.1,205.9,27.2,205.9 M140.7,205.9v0.3h-0.1
			c-0.3,0-0.5,0-0.7,0.1c-0.1,0-0.1,0.1-0.1,0.3c0,0.1,0,0.5,0,1.1v3.3c0,0.5,0,0.8,0,1.1c0,0.1,0.1,0.3,0.1,0.4
			c0.1,0.1,0.3,0.1,0.7,0.1h0.3v0.3h-3.2v-0.3h0.1c0.3,0,0.5,0,0.5-0.1c0.1-0.1,0.1-0.3,0.1-0.3c0-0.1,0-0.5,0-1.1v-3.3
			c0-0.5,0-0.8,0-1.1c0-0.1-0.1-0.3-0.1-0.3c-0.1,0-0.3-0.1-0.7-0.1l-0.1-0.1v-0.3L140.7,205.9 M107.1,205.9v0.3h-0.3
			c-0.3,0-0.5,0-0.7,0.1c-0.1,0-0.1,0.1-0.1,0.3c0,0.1,0,0.5,0,1.1v3.3c0,0.5,0,0.8,0,1.1c0,0.1,0.1,0.3,0.1,0.4
			c0.1,0.1,0.3,0.1,0.7,0.1h0.3v0.3h-3.2v-0.3h0.3c0.3,0,0.5,0,0.5-0.1c0.1-0.1,0.1-0.3,0.1-0.3c0-0.1,0-0.5,0-1.1v-4.5l-2.7,6h-0.3
			l-2.7-6v3.8c0,0.5,0,1,0,1.1c0,0.3,0.1,0.4,0.3,0.5c0.1,0.1,0.4,0.3,0.7,0.3v0.3h-2.3v-0.3c0.3,0,0.5-0.1,0.7-0.3
			c0.1-0.1,0.3-0.3,0.3-0.5c0-0.1,0-0.5,0-1.1v-2.9c0-0.5,0-0.8,0-1.1c0-0.1-0.1-0.3-0.3-0.3c-0.1,0-0.3-0.1-0.7-0.1h-0.1v-0.1h2.1
			l2.7,5.5l2.5-5.5H107.1 M213,209.7c0,0,0,0.1-0.1,0.1c0,0-0.1,0-0.2-0.1H213 M176.8,212.5l0.1,0.1L176.8,212.5L176.8,212.5
			 M64.9,205.1h-0.3c-0.2,0-0.4,0.1-0.5,0.3l-1.9,4.6c-0.2,0.3-0.3,0.6-0.3,0.6c-0.2,0.5-0.3,0.9-0.4,0.9c-0.1,0.1-0.2,0.1-0.3,0.1
			c-0.3,0-0.5,0.2-0.5,0.5v0.3c0,0.3,0.2,0.5,0.5,0.5h1.9c0.3,0,0.5-0.2,0.5-0.5v-0.3c0-0.3-0.2-0.5-0.5-0.5c-0.1,0-0.2,0-0.2,0
			h-0.1c0-0.1,0.1-0.4,0.3-1c0,0,0,0,0-0.1l0,0h2l0.5,0.7c0.1,0.1,0.1,0.2,0.2,0.3c-0.1,0-0.1,0-0.2,0c-0.3,0-0.5,0.2-0.5,0.5v0.3
			c0,0.3,0.2,0.5,0.5,0.5h2.6c0.3,0,0.5-0.2,0.5-0.5V212c0-0.3-0.2-0.5-0.5-0.5c-0.1,0-0.2,0-0.2,0l0,0l0,0c0-0.1-0.1-0.1-0.1-0.2
			l-0.3-0.6l-2.2-5.3C65.3,205.2,65.1,205.1,64.9,205.1L64.9,205.1z M63.7,209.4l0.5-1.1l0.5,1.1H63.7L63.7,209.4z M172.6,205.2
			h-1.9c-0.3,0-0.5,0.2-0.5,0.5v0.3c0,0.3,0.2,0.5,0.5,0.5c0.2,0,0.3,0,0.4,0.1h0.1c0.1,0.2,0.1,0.5,0.1,0.9v3.6v0.6
			c-0.1,0-0.1,0-0.2,0c-0.1,0-0.2,0-0.3,0c-0.3,0-0.5,0.2-0.5,0.5v0.3c0,0.3,0.2,0.5,0.5,0.5h2.5c0.3,0,0.5-0.2,0.5-0.5v-0.3
			c0-0.3-0.2-0.5-0.5-0.5c-0.2,0-0.3,0-0.4-0.1c-0.1,0-0.1,0-0.2,0V211v-3.2l3.6,4.9c0,0.1,0.1,0.1,0.1,0.2l0.1,0.1
			c0.1,0.1,0.2,0.1,0.4,0.1c0.1,0,0.2,0,0.3-0.1c0.2-0.2,0.2-0.5,0.1-0.7l0,0V207c0-0.2,0-0.3,0.1-0.4c0,0,0,0,0-0.1
			c0.1,0,0.1,0,0.2,0c0.1,0,0.2,0,0.3,0c0.3,0,0.5-0.2,0.5-0.5v-0.3c0-0.3-0.2-0.5-0.5-0.5h-2.5c-0.3,0-0.5,0.2-0.5,0.5v0.1
			c0,0.3,0.2,0.5,0.5,0.5c0.1,0,0.3,0,0.4,0c0.1,0.1,0.2,0.2,0.3,0.2c0,0.1,0,0.2,0,0.4v2.5l-3.1-4
			C172.9,205.2,172.8,205.2,172.6,205.2L172.6,205.2z M212.3,205.4c-1.2,0-2.3,0.5-2.9,1.3c-0.8,0.8-1.1,1.7-1.1,2.8
			s0.6,1.9,1.1,2.6c0.6,0.8,1.5,1.2,2.7,1.2c0.3,0,0.7-0.1,1.1-0.2c0.2,0,0.3-0.1,0.5-0.1h0.1l0.2-0.1c0.4-0.1,0.5-0.2,0.6-0.2h0.3
			c0.3,0,0.5-0.2,0.5-0.5v-0.7v-0.9c0,0,0,0,0.1,0s0.2,0,0.4,0c0.3,0,0.5-0.2,0.5-0.5v-0.3c0-0.3-0.2-0.5-0.5-0.5H213h-0.3
			c-0.2,0-0.4,0.1-0.5,0.3s0,0.4,0.1,0.5s0.3,0.3,0.6,0.3h0.1l0,0l0.1,0.1c0.1,0.1,0.2,0.1,0.2,0.2c0,0,0,0,0,0.1s0,0.3,0,0.4
			c0,0.3,0,0.5,0,0.6c-0.1,0.1-0.1,0.2-0.2,0.2c-0.2,0-0.3,0-0.5,0.1c-0.2,0-0.3,0-0.4,0c-0.4,0-0.9-0.2-1.2-0.5l0,0
			c-0.3-0.3-0.6-1.1-0.6-2.1s0.3-1.9,0.6-2.1c0.3-0.3,0.9-0.6,1.2-0.6s0.8,0.2,1.1,0.6c0.4,0.4,0.6,0.8,0.7,1.3
			c0,0.2,0.2,0.4,0.5,0.4h0.3c0.3,0,0.5-0.2,0.5-0.5v-2.2c0-0.3-0.2-0.5-0.5-0.5h-0.3c-0.2,0-0.3,0.1-0.4,0.2
			C213.7,205.5,213.1,205.4,212.3,205.4L212.3,205.4z M27.2,205.4c-1.1,0-2,0.4-2.9,1.2c-0.8,0.8-1.1,1.7-1.1,2.9
			c0,1,0.3,1.8,1.1,2.6c0.6,0.8,1.5,1.2,2.7,1.2c0.3,0,0.7-0.1,1.1-0.2c0.2,0,0.3-0.1,0.5-0.1h0.1l0.2-0.1c0.4-0.1,0.5-0.2,0.6-0.2
			h0.3c0.3,0,0.5-0.2,0.5-0.5v-0.7v-0.9c0,0,0,0,0.1,0s0.2,0,0.4,0c0.3,0,0.5-0.2,0.5-0.5v-0.3c0-0.3-0.2-0.5-0.5-0.5h-2.9h-0.1
			c-0.3,0-0.5,0.2-0.5,0.5s0.2,0.5,0.5,0.5h0.1l0.1,0.1l0.1,0.1c0.1,0.1,0.2,0.1,0.2,0.2c0,0,0,0,0,0.1s0,0.3,0,0.4
			c0,0.4,0,0.4-0.1,0.6v0.1c0,0,0,0.1-0.1,0.1c-0.2,0-0.3,0-0.5,0.1c-0.2,0-0.3,0-0.4,0c-0.3,0-0.8-0.2-1.3-0.6
			c-0.5-0.3-0.5-1.3-0.5-2.1c0-1,0.3-1.9,0.6-2.1c0.3-0.3,0.9-0.6,1.2-0.6c0.3,0,0.8,0.2,1.1,0.6c0.4,0.4,0.6,0.8,0.7,1.3
			c0,0.2,0.2,0.4,0.5,0.4h0.3c0.3,0,0.5-0.2,0.5-0.5v-2.2c0-0.3-0.2-0.5-0.5-0.5h-0.3c-0.2,0-0.3,0.1-0.4,0.2
			C28.6,205.5,28,205.4,27.2,205.4L27.2,205.4z M140.7,205.4h-3.2c-0.3,0-0.5,0.2-0.5,0.5v0.3c0,0.1,0.1,0.3,0.1,0.4l0.1,0.1
			c0.1,0.1,0.2,0.1,0.4,0.1c0.1,0,0.2,0,0.3,0v1v3.3v1h-0.1h-0.1c-0.3,0-0.5,0.2-0.5,0.5v0.3c0,0.3,0.2,0.5,0.5,0.5h3.2
			c0.3,0,0.5-0.2,0.5-0.5v-0.3c0-0.3-0.2-0.5-0.5-0.5h-0.3c-0.1,0-0.2,0-0.3,0l0,0V211v-3.3v-1c0.1,0,0.2,0,0.3,0h0.1
			c0.3,0,0.5-0.2,0.5-0.5v-0.3C141.2,205.6,141,205.4,140.7,205.4L140.7,205.4z M107.1,205.4H105c-0.2,0-0.4,0.1-0.5,0.3l-2.1,4.5
			l-2.2-4.6c-0.1-0.2-0.3-0.3-0.4-0.3h-2.1c-0.3,0-0.5,0.2-0.5,0.5v0.1c0,0.3,0.2,0.5,0.5,0.5h0.1c0.2,0,0.3,0,0.4,0.1
			c0,0,0,0,0.1,0v0.9v2.9v1.1c0,0-0.1,0.1-0.2,0.1c-0.1,0.1-0.2,0.2-0.3,0.2c-0.3,0-0.5,0.2-0.5,0.5v0.3c0,0.3,0.2,0.5,0.5,0.5h2.3
			c0.3,0,0.5-0.2,0.5-0.5v-0.3c0-0.3-0.2-0.5-0.5-0.5c-0.1,0-0.3-0.1-0.3-0.2l-0.1-0.1l0,0l0,0v-1.1v-1.5l1.7,3.9
			c0.1,0.2,0.3,0.3,0.5,0.3h0.3c0.2,0,0.4-0.1,0.5-0.3l1.7-3.9v2.2v1h-0.1H104c-0.3,0-0.5,0.2-0.5,0.5v0.3c0,0.3,0.2,0.5,0.5,0.5
			h3.2c0.3,0,0.5-0.2,0.5-0.5v-0.3c0-0.3-0.2-0.5-0.5-0.5h-0.3c-0.1,0-0.2,0-0.3,0l0,0v-1.1v-3.3v-1c0.1,0,0.2,0,0.3,0h0.3
			c0.3,0,0.5-0.2,0.5-0.5v-0.3C107.6,205.6,107.4,205.4,107.1,205.4L107.1,205.4z"/>
	</g>
</g>
</svg>
