<?xml version="1.0" encoding="utf-8"?>
<!-- Generator: Adobe Illustrator 19.0.0, SVG Export Plug-In . SVG Version: 6.00 Build 0)  -->
<svg version="1.1" xmlns="http://www.w3.org/2000/svg" xmlns:xlink="http://www.w3.org/1999/xlink" x="0px" y="0px"
	 viewBox="0 0 51 56" style="enable-background:new 0 0 51 56;" xml:space="preserve">
<style type="text/css">
	.st0{fill:#DD4B38;}
	.st1{fill:#FFFFFF;}
	.st2{fill:url(#SVGID_1_);}
	.st3{fill:#403E3F;}
	.st4{fill:#BB0000;}
	.st5{fill:#CA2127;}
	.st6{fill:#5DA8DC;}
	.st7{fill:#3B579D;}
</style>
<g id="yt">
	<g>
		<path class="st4" d="M3.7,12L21.9,1.2c2.2-1.3,4.9-1.3,7.1,0L47.3,12c1.7,1,2.7,2.8,2.7,4.8v22.5c0,2-1,3.8-2.7,4.8L29.1,54.8
			c-2.2,1.3-4.9,1.3-7.1,0L3.7,44C2,43,1,41.2,1,39.2V16.8C1,14.8,2,13,3.7,12z"/>
		<path class="st3" d="M25.5,3.3c0.7,0,1.4,0.2,2,0.6l18.2,10.7c0.8,0.4,1.2,1.3,1.2,2.2v22.5c0,0.9-0.5,1.7-1.2,2.2L27.5,52.2
			c-0.6,0.4-1.3,0.6-2,0.6c-0.7,0-1.4-0.2-2-0.6L5.2,41.4C4.5,41,4,40.1,4,39.2V16.8c0-0.9,0.5-1.7,1.2-2.2L23.5,3.8
			C24.1,3.5,24.8,3.3,25.5,3.3 M25.5,0.3c-1.2,0-2.5,0.3-3.6,1L3.7,12C2,13,1,14.8,1,16.8v22.5c0,2,1,3.8,2.7,4.8l18.2,10.7
			c1.1,0.6,2.3,1,3.6,1c1.2,0,2.5-0.3,3.6-1L47.3,44c1.7-1,2.7-2.8,2.7-4.8V16.8c0-2-1-3.8-2.7-4.8L29.1,1.2
			C28,0.6,26.7,0.3,25.5,0.3L25.5,0.3z"/>
	</g>
	<path id="youtube-new-icon" class="st1" d="M42.2,21.7c-0.5-4.6-2.3-5.2-5.9-5.4c-5.1-0.3-16.5-0.3-21.6,0
		c-3.6,0.2-5.4,0.9-5.9,5.4c-0.4,3.4-0.4,9.2,0,12.5c0.5,4.6,2.3,5.2,5.9,5.4c5.1,0.3,16.5,0.3,21.6,0c3.6-0.2,5.4-0.9,5.9-5.4
		C42.6,30.9,42.6,25.1,42.2,21.7z M22.1,32.8v-9.5l9.1,4.8L22.1,32.8z"/>
</g>
</svg>
