<?xml version="1.0" encoding="utf-8"?>
<!-- Generator: Adobe Illustrator 19.0.0, SVG Export Plug-In . SVG Version: 6.00 Build 0)  -->
<svg version="1.1" xmlns="http://www.w3.org/2000/svg" xmlns:xlink="http://www.w3.org/1999/xlink" x="0px" y="0px"
	 viewBox="0 0 70 70" style="enable-background:new 0 0 70 70;" xml:space="preserve">
<style type="text/css">
	.st2{fill:#afd9ad;}
</style>
<g id="tabs-shadow">
	<path id="list_2_" d="M12.3,10.6L4,5.5c-1.7-1-3-0.3-3,1.7v10.7c0,2,1.4,2.7,3,1.7l8.2-5.2C14,13.4,14,11.7,12.3,10.6z M65.4,7.2
		H24.9c-2,0-3.6,1.6-3.6,3.6v3.6c0,2,1.6,3.6,3.6,3.6h40.5c2,0,3.6-1.6,3.6-3.6v-3.6C69,8.8,67.4,7.2,65.4,7.2z M4,41.1l8.2-5.2
		c1.7-1,1.6-2.6-0.2-3.5l-7.9-4c-1.8-0.9-3.2,0-3.2,2v8.9C1,41.3,2.4,42.1,4,41.1z M65.4,28.6H24.9c-2,0-3.6,1.6-3.6,3.6v3.6
		c0,2,1.6,3.6,3.6,3.6h40.5c2,0,3.6-1.6,3.6-3.6v-3.6C69,30.2,67.4,28.6,65.4,28.6z M12.3,53.6L4,48.4c-1.7-1-3-0.3-3,1.7v10.7
		c0,2,1.4,2.7,3,1.7l8.2-5.2C14,56.3,14,54.6,12.3,53.6z M65.4,50.1H24.9c-2,0-3.6,1.6-3.6,3.6v3.6c0,2,1.6,3.6,3.6,3.6h40.5
		c2,0,3.6-1.6,3.6-3.6v-3.6C69,51.7,67.4,50.1,65.4,50.1z"/>
</g>
<g id="tabs">
	<path id="list_1_" class="st2" d="M12.3,11.6L4,6.5c-1.7-1-3-0.3-3,1.7v10.7c0,2,1.4,2.7,3,1.7l8.2-5.2C14,14.4,14,12.7,12.3,11.6z
		 M65.4,8.2H24.9c-2,0-3.6,1.6-3.6,3.6v3.6c0,2,1.6,3.6,3.6,3.6h40.5c2,0,3.6-1.6,3.6-3.6v-3.6C69,9.8,67.4,8.2,65.4,8.2z M4,42.1
		l8.2-5.2c1.7-1,1.6-2.6-0.2-3.5l-7.9-4c-1.8-0.9-3.2,0-3.2,2v8.9C1,42.3,2.4,43.1,4,42.1z M65.4,29.6H24.9c-2,0-3.6,1.6-3.6,3.6
		v3.6c0,2,1.6,3.6,3.6,3.6h40.5c2,0,3.6-1.6,3.6-3.6v-3.6C69,31.2,67.4,29.6,65.4,29.6z M12.3,54.6L4,49.4c-1.7-1-3-0.3-3,1.7v10.7
		c0,2,1.4,2.7,3,1.7l8.2-5.2C14,57.3,14,55.6,12.3,54.6z M65.4,51.1H24.9c-2,0-3.6,1.6-3.6,3.6v3.6c0,2,1.6,3.6,3.6,3.6h40.5
		c2,0,3.6-1.6,3.6-3.6v-3.6C69,52.7,67.4,51.1,65.4,51.1z"/>
</g>
</svg>
