<?xml version="1.0" encoding="utf-8"?>
<!-- Generator: Adobe Illustrator 19.0.0, SVG Export Plug-In . SVG Version: 6.00 Build 0)  -->
<svg version="1.1" xmlns="http://www.w3.org/2000/svg" xmlns:xlink="http://www.w3.org/1999/xlink" x="0px" y="0px"
	 viewBox="0 0 70 70" style="enable-background:new 0 0 70 70;" xml:space="preserve">
<style type="text/css">
	.st1{fill:#afd9ad;}
</style>
<g id="tabs-shadow">
	<path id="play-free_2_" d="M55,4.7H3.7C2.2,4.7,1,5.9,1,7.4v42.2c0,1.5,1.2,2.7,2.7,2.7H42l-3-3.4H32v-4.3h3.7l0,0
		c-0.9-1.1-1.6-2.2-1.9-3.3H7.5V15.8h43.7v25.5h-5.9c0.9,0.9,1.8,1.9,2.6,2.7c0.5-0.5,1.2-1.1,1.9-1.7c2.5-1.9,4.9-3.1,7.1-3.5
		c0.2,0,0.5-0.1,0.7-0.1V7.4C57.7,5.9,56.5,4.7,55,4.7L55,4.7z M19.8,44.6h6.9v4.3h-6.9V44.6z M7.7,44.6h6.9v4.3H7.7V44.6z
		 M14.6,12.5H7.7V8.1h6.9V12.5z M26.7,12.5h-6.9V8.1h6.9V12.5z M38.9,12.5H32V8.1h6.9V12.5z M51,12.5h-6.9V8.1H51V12.5z M51,12.5
		 M26.7,19.5c-0.4-0.3-1-0.4-1.5-0.2c-0.5,0.2-0.8,0.7-0.8,1.3v14.7c0,0.5,0.3,1,0.8,1.3c0.2,0.1,0.4,0.1,0.6,0.1
		c0.3,0,0.6-0.1,0.9-0.3l8.8-7.4c0.3-0.3,0.5-0.7,0.5-1.1c0-0.4-0.2-0.8-0.5-1.1L26.7,19.5z M26.7,19.5 M68.8,52.6
		c-0.7-3.6-3-7-4.3-8.6c-1.8-2.3-4-3.2-6.7-2.7c-1.9,0.3-4,1.4-6.2,3.1c-1.5,1.2-2.7,2.4-3.2,3c-1.3-1.1-4.9-4.8-6.7-6.9
		c-0.9-1.1-3.2-3.3-4.9-1.7c-1.8,1.8,0.9,4.7,0.9,4.8l10.9,13.3c0,0.1-0.1,0.1-0.1,0.2c-1,0.8-4.1-0.7-5.3-1.5c-1.1-0.7-3-0.7-4,0
		c-0.4,0.3-0.6,0.7-0.6,1.1c0,0.6,0.4,1.3,1.2,1.9c0,0,0,0,0,0c1.2,1,4.5,3.6,8.8,5.2c2.8,1,5.5,1.4,8,1.2c3.2-0.2,6.1-1.4,8.8-3.5
		C68.4,59.2,69.5,56.2,68.8,52.6L68.8,52.6z M68.8,52.6"/>
</g>
<g id="tabs">
	<path id="play-free_1_" class="st1" d="M55,5.7H3.7C2.2,5.7,1,6.9,1,8.4v42.2c0,1.5,1.2,2.7,2.7,2.7H42l-3-3.4H32v-4.3h3.7l0,0
		c-0.9-1.1-1.6-2.2-1.9-3.3H7.5V16.8h43.7v25.5h-5.9c0.9,0.9,1.8,1.9,2.6,2.7c0.5-0.5,1.2-1.1,1.9-1.7c2.5-1.9,4.9-3.1,7.1-3.5
		c0.2,0,0.5-0.1,0.7-0.1V8.4C57.7,6.9,56.5,5.7,55,5.7L55,5.7z M19.8,45.6h6.9v4.3h-6.9V45.6z M7.7,45.6h6.9v4.3H7.7V45.6z
		 M14.6,13.5H7.7V9.1h6.9V13.5z M26.7,13.5h-6.9V9.1h6.9V13.5z M38.9,13.5H32V9.1h6.9V13.5z M51,13.5h-6.9V9.1H51V13.5z M51,13.5
		 M26.7,20.5c-0.4-0.3-1-0.4-1.5-0.2c-0.5,0.2-0.8,0.7-0.8,1.3v14.7c0,0.5,0.3,1,0.8,1.3c0.2,0.1,0.4,0.1,0.6,0.1
		c0.3,0,0.6-0.1,0.9-0.3l8.8-7.4c0.3-0.3,0.5-0.7,0.5-1.1c0-0.4-0.2-0.8-0.5-1.1L26.7,20.5z M26.7,20.5 M68.8,53.6
		c-0.7-3.6-3-7-4.3-8.6c-1.8-2.3-4-3.2-6.7-2.7c-1.9,0.3-4,1.4-6.2,3.1c-1.5,1.2-2.7,2.4-3.2,3c-1.3-1.1-4.9-4.8-6.7-6.9
		c-0.9-1.1-3.2-3.3-4.9-1.7c-1.8,1.8,0.9,4.7,0.9,4.8l10.9,13.3c0,0.1-0.1,0.1-0.1,0.2c-1,0.8-4.1-0.7-5.3-1.5c-1.1-0.7-3-0.7-4,0
		c-0.4,0.3-0.6,0.7-0.6,1.1c0,0.6,0.4,1.3,1.2,1.9c0,0,0,0,0,0c1.2,1,4.5,3.6,8.8,5.2c2.8,1,5.5,1.4,8,1.2c3.2-0.2,6.1-1.4,8.8-3.5
		C68.4,60.2,69.5,57.2,68.8,53.6L68.8,53.6z M68.8,53.6"/>
</g>
</svg>
