<?xml version="1.0" encoding="utf-8"?>
<!-- Generator: Adobe Illustrator 19.0.0, SVG Export Plug-In . SVG Version: 6.00 Build 0)  -->
<svg version="1.1" xmlns="http://www.w3.org/2000/svg" xmlns:xlink="http://www.w3.org/1999/xlink" x="0px" y="0px"
	 viewBox="0 0 70 70" style="enable-background:new 0 0 70 70;" xml:space="preserve">
<style type="text/css">
	.st2{fill:#afd9ad;}
</style>
<g id="tabs-shadow">
	<path id="about-review_1_" d="M21.9,28.1h-3.5v-6.6h3.5V18H25v3.5h3.5v6.6H25v0H21.9z M10,59c0,0.2,0,0.3,0,0.4c0,0,0,0.1,0,0.1
		c0.1,2.7,2.3,4.9,5.1,4.9h45v-5c0-1,0.8-1.8,1.8-1.8c1,0,1.8,0.8,1.8,1.8v6.7c0,1-0.8,1.8-1.8,1.8h-47c-0.1,0-0.2,0-0.3,0
		c-4.5-0.3-8.1-4-8.1-8.6c0-0.1,0-0.2,0-0.3c-0.1-5.3,0-45.8,0-50.2c0-0.1,0-0.1,0-0.2c0-4.8,3.9-8.6,8.6-8.6h46.8
		c1,0,1.8,0.8,1.8,1.8v50.6c0,1-0.8,1.8-1.8,1.8c0,0,0,0,0,0c-0.1,0-0.3,0.1-0.4,0.1H15.1C12.4,54.3,10.2,56.4,10,59L10,59z
		 M42.2,18h14v3.1h-3.5v3.5h-3.5v3.5h-3.5v3.5h-3.5V39h17.9v-3.9h-14V32h3.5v-3.5h3.5V25h3.5v-3.5h3.5v-7.4H42.2V18z M34.3,28.5h8.3
		v-3.9h-8.3V28.5z M14.5,39h3.9v-7h3.5v0h6.6v7h3.9V21.1h-3.5v-3.5h-3.5v-3.5h-3.9v3.5H18v3.5h-3.5V39z M14.5,39"/>
</g>
<g id="tabs">
	<path id="about-review" class="st2" d="M21.9,29.1h-3.5v-6.6h3.5V19H25v3.5h3.5v6.6H25v0H21.9z M10,60c0,0.2,0,0.3,0,0.4
		c0,0,0,0.1,0,0.1c0.1,2.7,2.3,4.9,5.1,4.9h45v-5c0-1,0.8-1.8,1.8-1.8c1,0,1.8,0.8,1.8,1.8v6.7c0,1-0.8,1.8-1.8,1.8h-47
		c-0.1,0-0.2,0-0.3,0c-4.5-0.3-8.1-4-8.1-8.6c0-0.1,0-0.2,0-0.3c-0.1-5.3,0-45.8,0-50.2c0-0.1,0-0.1,0-0.2c0-4.8,3.9-8.6,8.6-8.6
		h46.8c1,0,1.8,0.8,1.8,1.8v50.6c0,1-0.8,1.8-1.8,1.8c0,0,0,0,0,0c-0.1,0-0.3,0.1-0.4,0.1H15.1C12.4,55.3,10.2,57.4,10,60L10,60z
		 M42.2,19h14v3.1h-3.5v3.5h-3.5v3.5h-3.5v3.5h-3.5V40h17.9v-3.9h-14V33h3.5v-3.5h3.5V26h3.5v-3.5h3.5v-7.4H42.2V19z M34.3,29.5h8.3
		v-3.9h-8.3V29.5z M14.5,40h3.9v-7h3.5v0h6.6v7h3.9V22.1h-3.5v-3.5h-3.5v-3.5h-3.9v3.5H18v3.5h-3.5V40z M14.5,40"/>
</g>
</svg>
