<?xml version="1.0" encoding="utf-8"?>
<!-- Generator: Adobe Illustrator 19.0.0, SVG Export Plug-In . SVG Version: 6.00 Build 0)  -->
<svg version="1.1" xmlns="http://www.w3.org/2000/svg" xmlns:xlink="http://www.w3.org/1999/xlink" x="0px" y="0px"
	 viewBox="0 0 70 70" style="enable-background:new 0 0 70 70;" xml:space="preserve">
<style type="text/css">
	.st2{fill:#afd9ad;}
</style>
<g id="tabs-shadow">
	<path id="scratch-cards_2_" d="M40.1,9.4H29.9c-0.9,0-1.6,0.7-1.6,1.6v10.2c0,0.9,0.7,1.6,1.6,1.6h10.2c0.9,0,1.6-0.7,1.6-1.6V11.1
		C41.7,10.2,41,9.4,40.1,9.4z M37.6,17.6l0.7,3.7L35,19.5l-3.3,1.8l0.7-3.7L29.7,15l3.7-0.5l1.6-3.4l1.6,3.4l3.7,0.5L37.6,17.6z
		 M22.2,9.4H12.1c-0.9,0-1.6,0.7-1.6,1.6v10.2c0,0.9,0.7,1.6,1.6,1.6h10.2c0.9,0,1.6-0.7,1.6-1.6V11.1C23.9,10.2,23.2,9.4,22.2,9.4z
		 M19.8,17.6l0.7,3.7l-3.3-1.8l-3.3,1.8l0.7-3.7L11.8,15l3.7-0.5l1.6-3.4l1.6,3.4l3.7,0.5L19.8,17.6z M57.9,9.4H47.8
		c-0.9,0-1.6,0.7-1.6,1.6v10.2c0,0.9,0.7,1.6,1.6,1.6h10.2c0.9,0,1.6-0.7,1.6-1.6V11.1C59.6,10.2,58.8,9.4,57.9,9.4z M55.5,17.6
		l0.7,3.7l-3.3-1.8l-3.3,1.8l0.7-3.7L47.5,15l3.7-0.5l1.6-3.4l1.6,3.4l3.7,0.5L55.5,17.6z M40.1,27.3H29.9c-0.9,0-1.6,0.7-1.6,1.6
		v10.2c0,0.9,0.7,1.6,1.6,1.6h10.2c0.9,0,1.6-0.7,1.6-1.6V28.9C41.7,28,41,27.3,40.1,27.3z M37.6,35.4l0.7,3.7L35,37.3l-3.3,1.8
		l0.7-3.7l-2.7-2.6l3.7-0.5L35,29l1.6,3.4l3.7,0.5L37.6,35.4z M22.2,27.3H12.1c-0.9,0-1.6,0.7-1.6,1.6v10.2c0,0.9,0.7,1.6,1.6,1.6
		h10.2c0.9,0,1.6-0.7,1.6-1.6V28.9C23.9,28,23.2,27.3,22.2,27.3z M19.8,35.4l0.7,3.7l-3.3-1.8l-3.3,1.8l0.7-3.7l-2.7-2.6l3.7-0.5
		l1.6-3.4l1.6,3.4l3.7,0.5L19.8,35.4z M57.9,27.3H47.8c-0.9,0-1.6,0.7-1.6,1.6v10.2c0,0.9,0.7,1.6,1.6,1.6h10.2
		c0.9,0,1.6-0.7,1.6-1.6V28.9C59.6,28,58.8,27.3,57.9,27.3z M55.5,35.4l0.7,3.7l-3.3-1.8l-3.3,1.8l0.7-3.7l-2.7-2.6l3.7-0.5l1.6-3.4
		l1.6,3.4l3.7,0.5L55.5,35.4z M40.1,45.1H29.9c-0.9,0-1.6,0.7-1.6,1.6v10.2c0,0.9,0.7,1.6,1.6,1.6h10.2c0.9,0,1.6-0.7,1.6-1.6V46.7
		C41.7,45.9,41,45.1,40.1,45.1z M37.6,53.3l0.7,3.7L35,55.1l-3.3,1.8l0.7-3.7l-2.7-2.6l3.7-0.5l1.6-3.4l1.6,3.4l3.7,0.5L37.6,53.3z
		 M22.2,45.1H12.1c-0.9,0-1.6,0.7-1.6,1.6v10.2c0,0.9,0.7,1.6,1.6,1.6h10.2c0.9,0,1.6-0.7,1.6-1.6V46.7
		C23.9,45.9,23.2,45.1,22.2,45.1z M19.8,53.3l0.7,3.7l-3.3-1.8l-3.3,1.8l0.7-3.7l-2.7-2.6l3.7-0.5l1.6-3.4l1.6,3.4l3.7,0.5
		L19.8,53.3z M57.9,45.1H47.8c-0.9,0-1.6,0.7-1.6,1.6v10.2c0,0.9,0.7,1.6,1.6,1.6h10.2c0.9,0,1.6-0.7,1.6-1.6V46.7
		C59.6,45.9,58.8,45.1,57.9,45.1z M55.5,53.3l0.7,3.7l-3.3-1.8l-3.3,1.8l0.7-3.7l-2.7-2.6l3.7-0.5l1.6-3.4l1.6,3.4l3.7,0.5
		L55.5,53.3z M1,0v62.4V68h68v-5.6V0H1z M62.9,58.2c0,2.1-1.7,3.7-3.7,3.7H10.9c-2.1,0-3.7-1.7-3.7-3.7V9.9c0-2.1,1.7-3.7,3.7-3.7
		h48.3c2.1,0,3.7,1.7,3.7,3.7V58.2z"/>
</g>
<g id="tabs">
	<path id="scratch-cards_1_" class="st2" d="M40.1,10.4H29.9c-0.9,0-1.6,0.7-1.6,1.6v10.2c0,0.9,0.7,1.6,1.6,1.6h10.2
		c0.9,0,1.6-0.7,1.6-1.6V12.1C41.7,11.2,41,10.4,40.1,10.4z M37.6,18.6l0.7,3.7L35,20.5l-3.3,1.8l0.7-3.7L29.7,16l3.7-0.5l1.6-3.4
		l1.6,3.4l3.7,0.5L37.6,18.6z M22.2,10.4H12.1c-0.9,0-1.6,0.7-1.6,1.6v10.2c0,0.9,0.7,1.6,1.6,1.6h10.2c0.9,0,1.6-0.7,1.6-1.6V12.1
		C23.9,11.2,23.2,10.4,22.2,10.4z M19.8,18.6l0.7,3.7l-3.3-1.8l-3.3,1.8l0.7-3.7L11.8,16l3.7-0.5l1.6-3.4l1.6,3.4l3.7,0.5L19.8,18.6
		z M57.9,10.4H47.8c-0.9,0-1.6,0.7-1.6,1.6v10.2c0,0.9,0.7,1.6,1.6,1.6h10.2c0.9,0,1.6-0.7,1.6-1.6V12.1
		C59.6,11.2,58.8,10.4,57.9,10.4z M55.5,18.6l0.7,3.7l-3.3-1.8l-3.3,1.8l0.7-3.7L47.5,16l3.7-0.5l1.6-3.4l1.6,3.4l3.7,0.5L55.5,18.6
		z M40.1,28.3H29.9c-0.9,0-1.6,0.7-1.6,1.6v10.2c0,0.9,0.7,1.6,1.6,1.6h10.2c0.9,0,1.6-0.7,1.6-1.6V29.9C41.7,29,41,28.3,40.1,28.3z
		 M37.6,36.4l0.7,3.7L35,38.3l-3.3,1.8l0.7-3.7l-2.7-2.6l3.7-0.5L35,30l1.6,3.4l3.7,0.5L37.6,36.4z M22.2,28.3H12.1
		c-0.9,0-1.6,0.7-1.6,1.6v10.2c0,0.9,0.7,1.6,1.6,1.6h10.2c0.9,0,1.6-0.7,1.6-1.6V29.9C23.9,29,23.2,28.3,22.2,28.3z M19.8,36.4
		l0.7,3.7l-3.3-1.8l-3.3,1.8l0.7-3.7l-2.7-2.6l3.7-0.5l1.6-3.4l1.6,3.4l3.7,0.5L19.8,36.4z M57.9,28.3H47.8c-0.9,0-1.6,0.7-1.6,1.6
		v10.2c0,0.9,0.7,1.6,1.6,1.6h10.2c0.9,0,1.6-0.7,1.6-1.6V29.9C59.6,29,58.8,28.3,57.9,28.3z M55.5,36.4l0.7,3.7l-3.3-1.8l-3.3,1.8
		l0.7-3.7l-2.7-2.6l3.7-0.5l1.6-3.4l1.6,3.4l3.7,0.5L55.5,36.4z M40.1,46.1H29.9c-0.9,0-1.6,0.7-1.6,1.6V58c0,0.9,0.7,1.6,1.6,1.6
		h10.2c0.9,0,1.6-0.7,1.6-1.6V47.8C41.7,46.9,41,46.1,40.1,46.1z M37.6,54.3l0.7,3.7L35,56.1L31.7,58l0.7-3.7l-2.7-2.6l3.7-0.5
		l1.6-3.4l1.6,3.4l3.7,0.5L37.6,54.3z M22.2,46.1H12.1c-0.9,0-1.6,0.7-1.6,1.6V58c0,0.9,0.7,1.6,1.6,1.6h10.2c0.9,0,1.6-0.7,1.6-1.6
		V47.8C23.9,46.9,23.2,46.1,22.2,46.1z M19.8,54.3l0.7,3.7l-3.3-1.8L13.9,58l0.7-3.7l-2.7-2.6l3.7-0.5l1.6-3.4l1.6,3.4l3.7,0.5
		L19.8,54.3z M57.9,46.1H47.8c-0.9,0-1.6,0.7-1.6,1.6V58c0,0.9,0.7,1.6,1.6,1.6h10.2c0.9,0,1.6-0.7,1.6-1.6V47.8
		C59.6,46.9,58.8,46.1,57.9,46.1z M55.5,54.3l0.7,3.7l-3.3-1.8L49.6,58l0.7-3.7l-2.7-2.6l3.7-0.5l1.6-3.4l1.6,3.4l3.7,0.5L55.5,54.3
		z M1,1v62.4V69h68v-5.6V1H1z M62.9,59.2c0,2.1-1.7,3.7-3.7,3.7H10.9c-2.1,0-3.7-1.7-3.7-3.7V10.9c0-2.1,1.7-3.7,3.7-3.7h48.3
		c2.1,0,3.7,1.7,3.7,3.7V59.2z"/>
</g>
</svg>
