<?xml version="1.0" encoding="utf-8"?>
<!-- Generator: Adobe Illustrator 19.0.0, SVG Export Plug-In . SVG Version: 6.00 Build 0)  -->
<svg version="1.1" xmlns="http://www.w3.org/2000/svg" xmlns:xlink="http://www.w3.org/1999/xlink" x="0px" y="0px"
	 viewBox="0 0 51 56" style="enable-background:new 0 0 51 56;" xml:space="preserve">
<style type="text/css">
	.st0{fill:#DD4B38;}
	.st1{fill:#FFFFFF;}
	.st2{fill:url(#SVGID_1_);}
	.st3{fill:#403E3F;}
	.st4{fill:#BB0000;}
	.st5{fill:#CA2127;}
	.st6{fill:#5DA8DC;}
	.st7{fill:#3B579D;}
</style>
<g id="gp">
	<path class="st0" d="M3.7,12L21.9,1.2c2.2-1.3,4.9-1.3,7.1,0L47.3,12c1.7,1,2.7,2.8,2.7,4.8v22.5c0,2-1,3.8-2.7,4.8L29.1,54.8
		c-2.2,1.3-4.9,1.3-7.1,0L3.7,44C2,43,1,41.2,1,39.2V16.8C1,14.8,2,13,3.7,12z"/>
	<polygon id="_x2B__3_" class="st1" points="33.7,15.1 36.9,15.1 36.9,22.5 44.3,22.5 44.3,25.6 36.9,25.6 36.9,33.1 33.7,33.1 
		33.7,25.6 26.3,25.6 26.3,22.5 33.7,22.5 	"/>
	
		<linearGradient id="SVGID_1_" gradientUnits="userSpaceOnUse" x1="-75.5403" y1="709.9408" x2="-75.5403" y2="671.8405" gradientTransform="matrix(1 0 0 1 91 -656.5)">
		<stop  offset="0" style="stop-color:#F2F2F2"/>
		<stop  offset="0.2413" style="stop-color:#F6F6F6"/>
		<stop  offset="1" style="stop-color:#FFFFFF"/>
	</linearGradient>
	<path class="st2" d="M20.8,40.7l-2.1-1.6c-0.6-0.5-1.5-1.2-1.5-2.5c0-1.3,0.9-2.1,1.6-2.9c2.5-1.9,4.7-4,4.7-8.3
		c0-4-2.1-6.2-3.6-7.4c0.5,0,3.6,0,3.6,0l3.3-2.6H14.5c-3.1,0.1-6.7,0.5-10,3.3C4.4,18.7,4.2,18.9,4,19v14.3
		c1.6,1.3,3.8,2.3,6.4,2.3c0.6,0,1.2-0.1,1.9-0.1c-0.3,0.7-0.6,1.3-0.6,2.3c0,1.8,0.9,2.9,1.7,4C11.3,42,6.7,41.6,4,43.7l3.8,1.6
		c1.2-1.6-0.7-0.6,0.1-0.9c2.4-0.8,5.6-0.9,6.1-0.9c0.6,0,0.9,0,1.3,0.1c4.4,3.2,7.6,4.8,7.7,7.8c0,0.6-0.2,0.8-0.2,1.1l3.1,1.1
		c0.4-0.8,0.8-2.9,0.8-4C26.8,45.4,23.4,42.9,20.8,40.7z M13.4,33.3c-5,0-7.1-5.8-7.1-9.7c0-1.5,0.2-3.1,1.1-4.3
		c0.9-1.2,2.6-1.9,4.1-1.9c4.8,0,7.3,6.6,7.3,10.8c0,0.8-0.4,2.5-1.5,3.8C16.4,32.9,14.9,33.3,13.4,33.3z"/>
	<path class="st3" d="M25.5,3.3c0.7,0,1.4,0.2,2,0.6l18.2,10.7c0.8,0.4,1.2,1.3,1.2,2.2v22.5c0,0.9-0.5,1.7-1.2,2.2L27.5,52.2
		c-0.6,0.4-1.3,0.6-2,0.6c-0.7,0-1.4-0.2-2-0.6L5.2,41.4C4.5,41,4,40.1,4,39.2V16.8c0-0.9,0.5-1.7,1.2-2.2L23.5,3.8
		C24.1,3.5,24.8,3.3,25.5,3.3 M25.5,0.3c-1.2,0-2.5,0.3-3.6,1L3.7,12C2,13,1,14.8,1,16.8v22.5c0,2,1,3.8,2.7,4.8l18.2,10.7
		c1.1,0.6,2.3,1,3.6,1c1.2,0,2.5-0.3,3.6-1L47.3,44c1.7-1,2.7-2.8,2.7-4.8V16.8c0-2-1-3.8-2.7-4.8L29.1,1.2
		C28,0.6,26.7,0.3,25.5,0.3L25.5,0.3z"/>
</g>

</svg>
