<?xml version="1.0" encoding="utf-8"?>
<!-- Generator: Adobe Illustrator 19.0.0, SVG Export Plug-In . SVG Version: 6.00 Build 0)  -->
<svg version="1.1" xmlns="http://www.w3.org/2000/svg" xmlns:xlink="http://www.w3.org/1999/xlink" x="0px" y="0px"
	 viewBox="0 0 51 56" style="enable-background:new 0 0 51 56;" xml:space="preserve">
<style type="text/css">
	.st0{display:none;}
	.st1{display:inline;fill:#DD4B38;}
	.st2{display:inline;fill:#FFFFFF;}
	.st3{display:inline;fill:url(#SVGID_1_);}
	.st4{display:inline;fill:#403E3F;}
	.st5{display:inline;}
	.st6{fill:#BB0000;}
	.st7{fill:#403E3F;}
	.st8{fill:#CA2127;}
	.st9{fill:#FFFFFF;}
	.st10{fill:#5DA8DC;}
	.st11{display:inline;fill:#3B579D;}
</style>
<g id="pin">
	<g>
		<path class="st8" d="M3.7,12L21.9,1.2c2.2-1.3,4.9-1.3,7.1,0L47.3,12c1.7,1,2.7,2.8,2.7,4.8v22.5c0,2-1,3.8-2.7,4.8L29.1,54.8
			c-2.2,1.3-4.9,1.3-7.1,0L3.7,44C2,43,1,41.2,1,39.2V16.8C1,14.8,2,13,3.7,12z"/>
		<path class="st7" d="M25.5,3.3c0.7,0,1.4,0.2,2,0.6l18.2,10.7c0.8,0.4,1.2,1.3,1.2,2.2v22.5c0,0.9-0.5,1.7-1.2,2.2L27.5,52.2
			c-0.6,0.4-1.3,0.6-2,0.6c-0.7,0-1.4-0.2-2-0.6L5.2,41.4C4.5,41,4,40.1,4,39.2V16.8c0-0.9,0.5-1.7,1.2-2.2L23.5,3.8
			C24.1,3.5,24.8,3.3,25.5,3.3 M25.5,0.3c-1.2,0-2.5,0.3-3.6,1L3.7,12C2,13,1,14.8,1,16.8v22.5c0,2,1,3.8,2.7,4.8l18.2,10.7
			c1.1,0.6,2.3,1,3.6,1c1.2,0,2.5-0.3,3.6-1L47.3,44c1.7-1,2.7-2.8,2.7-4.8V16.8c0-2-1-3.8-2.7-4.8L29.1,1.2
			C28,0.6,26.7,0.3,25.5,0.3L25.5,0.3z"/>
	</g>
	<path id="path15" class="st9" d="M26.3,11.6c-9,0-13.5,6.4-13.5,11.8c0,3.2,1.2,6.1,3.9,7.2c0.4,0.2,0.8,0,0.9-0.5
		c0.1-0.3,0.3-1.2,0.4-1.5c0.1-0.5,0.1-0.6-0.3-1.1c-0.8-0.9-1.2-2.1-1.2-3.7c0-4.8,3.6-9,9.3-9c5.1,0,7.8,3.1,7.8,7.2
		c0,5.4-2.4,10-6,10c-2,0-3.4-1.6-3-3.6c0.6-2.4,1.7-5,1.7-6.7c0-1.5-0.8-2.8-2.5-2.8c-2,0-3.6,2.1-3.6,4.9c0,1.8,0.6,3,0.6,3
		s-2.1,8.7-2.4,10.3c-0.7,3-0.1,6.8-0.1,7.2c0,0.2,0.3,0.3,0.4,0.1c0.2-0.2,2.6-3.2,3.4-6.2c0.2-0.8,1.3-5.2,1.3-5.2
		c0.7,1.2,2.6,2.3,4.6,2.3c6.1,0,10.2-5.5,10.2-12.9C38.2,16.8,33.5,11.6,26.3,11.6z"/>
</g>
</svg>
