<?xml version="1.0" encoding="utf-8"?>
<!-- Generator: Adobe Illustrator 19.0.0, SVG Export Plug-In . SVG Version: 6.00 Build 0)  -->
<svg version="1.1" xmlns="http://www.w3.org/2000/svg" xmlns:xlink="http://www.w3.org/1999/xlink" x="0px" y="0px"
	 viewBox="0 0 51 56" style="enable-background:new 0 0 51 56;" xml:space="preserve">
<style type="text/css">
	.st0{fill:#DD4B38;}
	.st1{fill:#FFFFFF;}
	.st2{fill:url(#SVGID_1_);}
	.st3{fill:#403E3F;}
	.st4{fill:#BB0000;}
	.st5{fill:#CA2127;}
	.st6{fill:#5DA8DC;}
	.st7{fill:#3B579D;}
</style>
<g id="tw">
	<g>
		<path class="st6" d="M3.7,12L21.9,1.2c2.2-1.3,4.9-1.3,7.1,0L47.3,12c1.7,1,2.7,2.8,2.7,4.8v22.5c0,2-1,3.8-2.7,4.8L29.1,54.8
			c-2.2,1.3-4.9,1.3-7.1,0L3.7,44C2,43,1,41.2,1,39.2V16.8C1,14.8,2,13,3.7,12z"/>
		<path class="st3" d="M25.5,3.3c0.7,0,1.4,0.2,2,0.6l18.2,10.7c0.8,0.4,1.2,1.3,1.2,2.2v22.5c0,0.9-0.5,1.7-1.2,2.2L27.5,52.2
			c-0.6,0.4-1.3,0.6-2,0.6c-0.7,0-1.4-0.2-2-0.6L5.2,41.4C4.5,41,4,40.1,4,39.2V16.8c0-0.9,0.5-1.7,1.2-2.2L23.5,3.8
			C24.1,3.5,24.8,3.3,25.5,3.3 M25.5,0.3c-1.2,0-2.5,0.3-3.6,1L3.7,12C2,13,1,14.8,1,16.8v22.5c0,2,1,3.8,2.7,4.8l18.2,10.7
			c1.1,0.6,2.3,1,3.6,1c1.2,0,2.5-0.3,3.6-1L47.3,44c1.7-1,2.7-2.8,2.7-4.8V16.8c0-2-1-3.8-2.7-4.8L29.1,1.2
			C28,0.6,26.7,0.3,25.5,0.3L25.5,0.3z"/>
	</g>
	<path class="st1" d="M30.5,15.9L30.5,15.9l0.7,0h0.7l0.5,0.1c0.3,0.1,0.6,0.2,0.9,0.3c0.3,0.1,0.5,0.2,0.8,0.4
		c0.3,0.1,0.5,0.3,0.7,0.4c0.2,0.1,0.4,0.3,0.6,0.5c0.2,0.2,0.4,0.2,0.8,0.1s0.7-0.2,1.1-0.3c0.4-0.1,0.8-0.3,1.2-0.5
		c0.4-0.2,0.6-0.3,0.7-0.3c0.1-0.1,0.1-0.1,0.1-0.1l0,0l0,0l0,0l0,0l0,0l0,0l0,0l0,0l0,0l0,0l0,0l0,0l0,0l0,0l0,0l0,0l0,0l0,0
		c0,0,0,0.1,0,0.1c0,0-0.1,0.2-0.3,0.5c-0.2,0.3-0.4,0.6-0.6,1c-0.2,0.3-0.5,0.6-0.6,0.7c-0.2,0.2-0.3,0.3-0.4,0.3
		c-0.1,0.1-0.1,0.1-0.2,0.2l-0.1,0.1l0,0l0,0l0,0l0,0l0,0l0,0l0,0l0,0l0,0l0,0l0,0l0,0l0,0l0,0l0,0l0,0h0.1h0.1l0.8-0.2
		c0.5-0.1,1-0.2,1.4-0.4s0.7-0.2,0.7-0.2s0.1,0,0.1,0l0,0l0,0l0,0l0,0l0,0l0.1,0l0.1,0v0v0l0,0l0,0l0,0l0,0l0,0l0,0l0,0l0,0l0,0l0,0
		l0,0l0,0l0,0l0,0l0,0c0,0-0.1,0.2-0.3,0.5c-0.2,0.3-0.3,0.5-0.4,0.5c0,0,0,0-0.1,0.1c0,0.1-0.2,0.2-0.6,0.6c-0.3,0.3-0.7,0.7-1,0.9
		c-0.3,0.3-0.5,0.6-0.5,1c0,0.4,0,0.8-0.1,1.3c0,0.5-0.1,1-0.2,1.6c-0.1,0.6-0.3,1.2-0.5,2c-0.2,0.7-0.5,1.4-0.8,2.1
		c-0.3,0.7-0.6,1.3-0.9,1.9c-0.3,0.6-0.6,1-0.9,1.4c-0.3,0.4-0.5,0.7-0.8,1.1c-0.3,0.3-0.6,0.7-1.1,1.1c-0.4,0.4-0.7,0.7-0.7,0.7
		c0,0-0.2,0.2-0.5,0.4c-0.3,0.3-0.6,0.5-1,0.8c-0.4,0.3-0.7,0.5-1,0.6c-0.3,0.2-0.7,0.4-1.1,0.6c-0.4,0.2-0.9,0.4-1.3,0.6
		s-1,0.4-1.5,0.5c-0.5,0.2-1.1,0.3-1.6,0.4c-0.5,0.1-1.1,0.2-1.7,0.2l-1,0.1v0v0H20h-0.9v0v0l-0.2,0c-0.2,0-0.3,0-0.4,0
		c-0.1,0-0.5-0.1-1.1-0.1c-0.6-0.1-1.1-0.2-1.5-0.3c-0.4-0.1-0.9-0.3-1.6-0.5c-0.7-0.3-1.3-0.5-1.9-0.8c-0.5-0.3-0.8-0.4-1-0.5
		c-0.1-0.1-0.3-0.1-0.4-0.2l-0.2-0.1l0,0l0,0l0,0l0,0l0,0l0,0l0,0l0,0l0,0l0,0l0,0l0,0h0h0v0v0l0,0l0,0l0.1,0c0.1,0,0.3,0,0.7,0
		c0.4,0,0.7,0,1.1,0s0.8-0.1,1.2-0.1c0.4-0.1,0.9-0.2,1.5-0.3c0.6-0.2,1.1-0.3,1.6-0.5c0.5-0.2,0.8-0.4,1-0.5
		c0.2-0.1,0.5-0.3,0.9-0.6l0.6-0.4l0,0l0,0l0,0l0,0l0,0l0,0l0,0l0,0l0,0l0,0l0,0l0,0l0,0l0,0l-0.2,0c-0.1,0-0.3,0-0.4,0
		c-0.1,0-0.3,0-0.6-0.1c-0.3-0.1-0.6-0.2-0.9-0.3c-0.3-0.1-0.7-0.3-1-0.5c-0.3-0.2-0.5-0.4-0.7-0.5c-0.1-0.1-0.3-0.3-0.5-0.5
		c-0.2-0.2-0.4-0.5-0.6-0.7c-0.2-0.3-0.3-0.5-0.5-0.9L14,30.7l0,0l0,0l0,0l0,0l0,0l0,0l0.3,0c0.2,0,0.5,0,0.9,0c0.4,0,0.7,0,0.9-0.1
		c0.2,0,0.3,0,0.3-0.1l0.1,0l0.1,0l0.1,0l0,0l0,0l0,0l0,0l-0.1,0l-0.1,0l-0.1,0l-0.1,0l-0.1,0c0,0-0.1,0-0.2-0.1
		c-0.1,0-0.3-0.1-0.7-0.3c-0.4-0.2-0.7-0.3-0.9-0.5c-0.2-0.2-0.5-0.3-0.7-0.5c-0.2-0.2-0.4-0.4-0.7-0.7c-0.3-0.3-0.5-0.7-0.7-1.1
		c-0.2-0.4-0.3-0.8-0.4-1.2c-0.1-0.4-0.2-0.7-0.2-1.1l0-0.6l0,0l0,0l0,0l0,0l0,0l0,0l0.4,0.2c0.3,0.1,0.6,0.2,1,0.3
		c0.4,0.1,0.7,0.1,0.7,0.1l0.1,0h0.1h0.1l0,0l0,0l0,0l0,0l0,0l0,0l0,0l0,0l0,0l0,0l0,0l0,0l0,0l0,0l0,0l0,0l0,0c0,0-0.1-0.1-0.2-0.2
		c-0.1-0.1-0.3-0.3-0.5-0.4c-0.2-0.2-0.3-0.4-0.5-0.6c-0.2-0.2-0.3-0.4-0.4-0.6c-0.1-0.2-0.3-0.5-0.4-0.9c-0.1-0.3-0.2-0.7-0.3-1
		c-0.1-0.3-0.1-0.7-0.1-1c0-0.3,0-0.6,0-0.9s0.1-0.5,0.2-0.8c0.1-0.3,0.2-0.6,0.3-1l0.2-0.5l0,0l0,0l0,0l0,0l0,0l0,0l0,0l0,0l0,0
		l0,0l0,0l0,0l0,0l0,0l0,0l0,0l0,0l0,0l0.4,0.4c0.2,0.3,0.5,0.6,0.9,0.9c0.3,0.3,0.5,0.5,0.5,0.5c0,0,0.1,0.1,0.1,0.1
		c0.1,0.1,0.2,0.2,0.5,0.5c0.3,0.3,0.7,0.5,1.2,0.9c0.5,0.3,1,0.7,1.6,1c0.6,0.3,1.2,0.6,1.9,0.9c0.7,0.3,1.2,0.4,1.4,0.5
		c0.3,0.1,0.8,0.2,1.4,0.3c0.7,0.1,1.2,0.2,1.5,0.2c0.3,0,0.6,0.1,0.7,0.1l0.2,0l0,0l0,0L25.2,23c0-0.2-0.1-0.5-0.1-0.9
		s0-0.8,0.1-1.1c0.1-0.3,0.2-0.7,0.3-1c0.1-0.3,0.2-0.6,0.4-0.8c0.1-0.2,0.3-0.4,0.5-0.7c0.2-0.3,0.5-0.5,0.8-0.8
		c0.3-0.3,0.7-0.5,1.1-0.8s0.8-0.4,1.1-0.5c0.3-0.1,0.6-0.2,0.9-0.2C30.4,16,30.5,15.9,30.5,15.9z"/>

</g>
</svg>
