<?xml version="1.0" encoding="utf-8"?>
<!-- Generator: Adobe Illustrator 17.1.0, SVG Export Plug-In . SVG Version: 6.00 Build 0)  -->
<!DOCTYPE svg PUBLIC "-//W3C//DTD SVG 1.1//EN" "http://www.w3.org/Graphics/SVG/1.1/DTD/svg11.dtd">
<svg version="1.1" xmlns="http://www.w3.org/2000/svg" xmlns:xlink="http://www.w3.org/1999/xlink" x="0px" y="0px"
	 viewBox="0 961.3 700 577.5" enable-background="new 0 961.3 700 577.5" xml:space="preserve">
<g id="Layer_1">
	<g id="Layer_2">
		
			<radialGradient id="SVGID_1_" cx="399.9627" cy="2170.0681" r="395.4959" gradientTransform="matrix(0.8434 0 0 -0.77 12.6664 2920.9524)" gradientUnits="userSpaceOnUse">
			<stop  offset="0.5" style="stop-color:#262626"/>
			<stop  offset="1" style="stop-color:#1A1A1A"/>
		</radialGradient>
		<rect y="961.3" fill="url(#SVGID_1_)" width="700" height="577.5"/>
	</g>
</g>
<g id="Layer_2_1_">
	<g id="tabs">
		<path id="baccarat" fill="#FFFFFF" d="M339.7,1187.3L177.8,1170v257.2h193.8l18.9-176.5C393.7,1219.3,371.1,1191,339.7,1187.3z
			 M352.8,1303.1l-26.2-1l-9.4-39.8l-4.2,36.7l-23.6-1l8.4-74.9l23.6,1l-3.7,33l15.7-31.4l24.6,4.2l-17.8,31.4L352.8,1303.1z
			 M506.8,1203l-200.1-123.6c-26.7-16.8-62.3-8.4-78.6,18.9l-32.5,52.4l146.2,15.7c43,4.7,74.4,43.5,69.7,86.4l-18.9,174.4h43
			l90.1-145.6C541.9,1254.9,533.5,1219.3,506.8,1203z M494.3,1270.1c-2.6,4.2-6.3,8.4-11,12c-3.7,2.6-8.4,5.2-14.1,8.4
			c-3.7,1.6-8.4,3.7-14.7,6.3l-7.3,3.1l-15.7-17.8c4.2-1,8.4-2.1,12-3.1c5.2-1.6,10-3.1,14.1-5.2l-2.1-1l-2.1-1
			c-4.7-2.6-7.3-7.3-8.4-13.1c-1-6.3,0-12,3.7-18.3c3.7-6.3,8.9-10,15.7-11.5c6.8-1.6,14.1,0,21.5,4.2c6.8,4.2,11,10,12.6,17.3
			C500,1256.5,498.4,1263.3,494.3,1270.1z M477.5,1253.9c0.5,1.6,0,3.1-0.5,4.2c-1,1.6-2.1,2.1-3.7,2.6c-1.6,0.5-3.1,0-4.2-0.5
			c-1.6-1-2.6-2.1-2.6-3.7c-0.5-1.6,0-3.1,0.5-4.2c1-1.6,2.1-2.1,3.7-2.6c1.6-0.5,3.1,0,4.2,0.5
			C475.9,1251.2,477,1252.3,477.5,1253.9z"/>
	</g>
</g>
</svg>
