<?xml version="1.0" encoding="utf-8"?>
<!-- Generator: Adobe Illustrator 17.1.0, SVG Export Plug-In . SVG Version: 6.00 Build 0)  -->
<!DOCTYPE svg PUBLIC "-//W3C//DTD SVG 1.1//EN" "http://www.w3.org/Graphics/SVG/1.1/DTD/svg11.dtd">
<svg version="1.1" id="Layer_1" xmlns="http://www.w3.org/2000/svg" xmlns:xlink="http://www.w3.org/1999/xlink" x="0px" y="0px"
	 viewBox="0 21 240 198" enable-background="new 0 21 240 198" xml:space="preserve">
<path id="betsoft_1_" fill="none" stroke="#1E2123" stroke-width="1.5" stroke-miterlimit="10" d="M29.1,76.2l-7,29.2l-8.4-8.6
	l-7.6,31.1l12.6-8.6L7.9,163.8h207.4l20.6-87.5H29.1z M92.4,113.8l-7.7,31.7H51.7l7.6-31.7h7.6l0.8-2.6h-7.7L67.4,80h33.2L93,111.2
	h-7l-0.7,2.6C85.3,113.8,92.4,113.8,92.4,113.8z M214.6,145.5H86.5l7.6-31.7h11.8l0.8-2.6h-12l7.5-31.2h127.9L214.6,145.5z
	 M136.8,111.2h-20.7l-0.7,2.6h20.7L136.8,111.2z M50.4,113.8c0,0-0.1-1.1-0.3-1.2c-0.2-0.1-0.1-0.3,0-0.4c0.5-0.2,0.7-1,0.7-1h7.3
	L65.7,80H32.5l-7.6,31.2h6.6l-0.7,2.6h-6.6l-7.7,31.7h33.2l7.7-31.7L50.4,113.8L50.4,113.8z M210.7,141.4h-90.4l14-57h90.4
	L210.7,141.4z M115.2,155.8l0.3-1.2c0,0,0,0,0.1,0h4.9c0,0,0.1,0,0.1,0.1c-0.4,1.5-0.8,3.1-0.8,3.1s-0.1,1.2-1.9,1.2
	c-1.7,0-6.5,0-6.5,0s-1.6,0.2-1.1-1.7c0.5-1.9,1.3-4.6,1.3-4.6s0.2-1.1,1.7-1.1h6.6c0,0,1.5-0.2,1.2,1.1c0,0.2-0.1,0.5-0.2,0.9
	c0,0,0,0-0.1,0.1l-1.5,0.2c0,0-0.1,0-0.1-0.1l0.1-1c0,0,0-0.1-0.1-0.1h-6.4c0,0-0.1,0-0.1,0l-1.4,5.1c0,0,0,0.1,0.1,0.1h6.4
	c0,0,0.1,0,0.1,0l0.4-1.7c0,0,0-0.1-0.1-0.1h-3.2C115.2,155.9,115.2,155.9,115.2,155.8z M207.3,155.9h3.2c0,0,0.1,0,0.1,0.1
	l-0.4,1.7c0,0,0,0-0.1,0h-6.4c0,0-0.1,0-0.1-0.1l1.4-5.1c0,0,0,0,0.1,0h6.4c0,0,0.1,0,0.1,0.1l-0.1,1c0,0,0,0.1,0.1,0.1l1.5-0.2
	c0,0,0,0,0.1-0.1c0.1-0.4,0.1-0.7,0.2-0.9c0.2-1.3-1.2-1.1-1.2-1.1h-6.6c-1.5,0-1.7,1.1-1.7,1.1s-0.8,2.7-1.3,4.6
	c-0.5,1.9,1.1,1.7,1.1,1.7s4.8,0,6.5,0s1.9-1.2,1.9-1.2s0.4-1.6,0.8-3.1c0,0,0-0.1-0.1-0.1h-4.9c0,0-0.1,0-0.1,0l-0.3,1.2
	C207.3,155.9,207.3,155.9,207.3,155.9z M136.4,151.6H135c0,0,0,0,0,0l-6.6,7.3c0,0,0,0.1,0,0.1h1.2c0,0,0,0,0,0l1.7-1.9l0,0h5.4
	c0,0,0.1,0,0.1,0l0.5,1.9c0,0,0,0,0.1,0h1.4c0,0,0.1,0,0.1-0.1L136.4,151.6C136.4,151.6,136.4,151.6,136.4,151.6z M132.3,156l3-3.5
	c0,0,0.1,0,0.1,0l1.3,3.5c0,0,0,0.1-0.1,0.1h-4.3C132.3,156.1,132.2,156.1,132.3,156z M157.3,159h1.1c0,0,0.1,0,0.1,0l2-7.3
	c0,0,0-0.1-0.1-0.1h-1.2c0,0,0,0,0,0l-5,4.8c0,0-0.1,0-0.1,0l-2.7-4.8c0,0,0,0-0.1,0h-1.1c0,0-0.1,0-0.1,0l-2,7.3c0,0,0,0.1,0.1,0.1
	h1.1c0,0,0.1,0,0.1,0l1.5-5.6c0-0.1,0.1-0.1,0.1,0l2.4,4.4c0.1,0.3,0.5,0.3,0.7,0.1l4.5-4.4c0,0,0.1,0,0.1,0.1L157.3,159
	C157.2,158.9,157.3,159,157.3,159z M169.7,159h1.2c0,0,0.1,0,0.1,0l2-7.3c0,0,0-0.1-0.1-0.1h-1.2c0,0-0.1,0-0.1,0L169.7,159
	C169.6,158.9,169.6,159,169.7,159z M190.4,159h1c0,0,0.1,0,0.1,0l1.8-7.3c0,0,0-0.1-0.1-0.1H192c0,0-0.1,0-0.1,0l-1.3,5.3
	c0,0-0.1,0.1-0.1,0l-5.3-5.4l0,0H184c0,0-0.1,0-0.1,0l-1.8,7.3c0,0,0,0.1,0.1,0.1h1.2c0,0,0.1,0,0.1,0l1.4-5.4c0,0,0.1-0.1,0.1,0
	L190.4,159C190.4,159,190.4,159,190.4,159z M10.6,121.6l4.6-18.4l8.5,8.9L10.6,121.6z M128.1,112.7l8.3,9.6l4.9-19.4L128.1,112.7z
	 M158.3,128.4c-0.1,0.6-0.5,1.3-0.5,2c0,0.8-0.2,1.5,0,2.3c0.2,0.8,0.4,1.5,0.8,2.2c1,2.1,2.8,3.1,5.4,3.1s5.7-1.1,7.6-3.2
	c0.8-0.9,1.5-1.9,2.1-2.9c0.6-1.1,1-2.6,1.1-3.5l7.6-30.7c0.1-0.6,0.8-2.4,0.8-3c0-2.1-0.7-3.9-1.9-5.3c-1.3-1.3-2.9-1.7-5-1.7
	c-1.1,0-2.2,0.2-3.2,0.7c-1.1,0.5-2,1.1-2.9,1.9c-0.9,0.8-1.9,1.8-2.5,2.9s-1.1,2.3-1.3,3.6L158.3,128.4z M169,129.5
	c-0.4,1.6-1.7,3-3.9,3c-0.9,0-1.6-0.8-1.6-1.9c0-0.2,0-0.3,0-0.5c0-0.1,0-0.3,0.1-0.6l8.2-33c0.3-1.7,2.3-3.2,3.6-3.2
	c1,0,1.9,0.9,1.9,2c0,0.1,0,0.3,0,0.4c0,0.1,0,0.3-0.1,0.5L169,129.5z M201.9,87.8h-14.3l-12.6,50.3h5.7l5.6-22.3h8.6l1.4-5.6h-8.6
	l4-16.9h9L201.9,87.8z M213.5,93.2h4.9c0,0,1.3-5.3,1.4-5.4h-15.9l-1.5,5.4h5.6l-11.2,44.7h5.6L213.5,93.2z M144.3,130.8
	c-0.3-1.2,1.1-4.9,1.1-4.9l-5.7,0c0,0-1,3.6-1.2,4.8c-0.4,2.3,0.3,3.8,1.2,5.1c1,1.3,3.1,2.4,5,2.5c2.2,0.1,4.3-0.6,6.4-2.3
	c0.9-0.8,1.8-1.7,2.5-2.7c0.7-0.9,1.2-1.8,1.3-2.6c0.7-2.7,2.9-9.8,2.9-12.1c0-1.2-0.2-2.7-0.8-4.1c-0.5-1.4-1-2-2.9-3.5
	c-1.9-1.6-2.7-3.5-3-4.5c-0.4-1,0-2.5,0.1-3.7c0-0.2,1.2-4.9,1.7-6.6c0.3-0.9,0.7-1.5,1.1-2c0.5-0.6,1.5-0.8,1.7-0.8
	c1,0,3.1,0.1,2.3,3.5l-0.9,2.9l5.5,0.1c0,0,1.1-3.8,1.3-4.4c0,0,0.7-3.4-1.2-5.7c-1.2-1.4-3.2-2-5-2.1c-2.3-0.2-4.5,0.7-6.5,2.5
	c-0.9,0.8-1.7,1.7-2.3,2.6c-0.6,0.9-1.1,1.8-1.3,2.6c0,0-2.4,8.9-2.5,9.6c-0.1,0.6-0.2,1.2-0.2,1.7c-0.1,1.3-0.1,2.5,0.2,3.5
	s0.8,1.9,1.6,2.7c0.8,0.9,3,2.7,3.5,3.5c0.5,0.7,0.9,1.4,1.2,2.1c0.3,0.7,0.3,1.4,0.3,2.7c0,1.4-2.1,8.4-2.1,8.4
	C148.3,133.1,144.9,133.3,144.3,130.8z M107.5,138H102l11.2-45.6h-5.6l1.5-5.4H125c0,0.1-1.4,5.4-1.4,5.4h-4.9L107.5,138z
	 M79.6,92.4l-4.1,17.1h8.9l-1.3,5.7H74l-4.2,17.1h8.9l-1.4,5.4H63l12.5-51H90l-1.3,5.6H79.6z M50.8,106.7c-0.3,1.1-1.6,4.2-3,5.1
	c-0.2,0.1-0.3,0.4-0.1,0.6c1.6,1.5,0.9,5,0.9,5l-2.2,9.7c-0.5,2.7-2.6,10.8-12.1,10.7l-7.3,0l12.3-51h8.9c1.6,0,3.5,1,4.3,1.9
	c0.8,0.9,1.6,3.6,1.3,5.3C53.1,97.6,50.8,106.7,50.8,106.7z M33.8,132.3l2,0.1c1.5,0.1,2.9-0.5,3.5-1c0.5-0.5,0.8-1.1,1-1.8
	l2.5-10.6c0,0,0.4-1.9,0.4-2.1c0-0.8-0.8-1.8-1.8-1.8c-0.8,0-3.1,0-3.1,0L33.8,132.3z M39.6,109.3c0,0,2.1,0.1,2.8,0
	c1.2-0.3,2.3-0.9,2.8-2.6l2.9-12.1c0.2-1.6-1.4-2.4-2.4-2.5h-2L39.6,109.3z"/>
<g id="betsoft">
	<polygon id="XMLID_373_" points="29.1,76.2 22.1,105.4 13.7,96.8 6.1,127.9 18.7,119.3 7.9,163.8 215.3,163.8 235.9,76.2 	"/>
	<path id="white" fill="#FFFFFF" d="M92.4,113.8l-7.7,31.7H51.7l7.6-31.7h7.6l0.8-2.6h-7.7L67.4,80h33.2L93,111.2h-7l-0.7,2.6
		C85.3,113.8,92.4,113.8,92.4,113.8z M214.6,145.5H86.5l7.6-31.7h11.8l0.8-2.6h-12l7.5-31.2h127.9L214.6,145.5z M136.8,111.2h-20.7
		l-0.7,2.6h20.7L136.8,111.2z M50.4,113.8c0,0-0.1-1.1-0.3-1.2c-0.2-0.1-0.1-0.3,0-0.4c0.5-0.2,0.7-1,0.7-1h7.3L65.7,80H32.5
		l-7.6,31.2h6.6l-0.7,2.6h-6.6l-7.7,31.7h33.2l7.7-31.7L50.4,113.8L50.4,113.8z"/>
	<polygon id="soft_bg" points="210.7,141.4 120.3,141.4 134.4,84.4 224.7,84.4 	"/>
	<path id="gaming" fill="#FFFFFF" d="M115.2,155.8l0.3-1.2c0,0,0,0,0.1,0h4.9c0,0,0.1,0,0.1,0.1c-0.4,1.5-0.8,3.1-0.8,3.1
		s-0.1,1.2-1.9,1.2c-1.7,0-6.5,0-6.5,0s-1.6,0.2-1.1-1.7c0.5-1.9,1.3-4.6,1.3-4.6s0.2-1.1,1.7-1.1h6.6c0,0,1.5-0.2,1.2,1.1
		c0,0.2-0.1,0.5-0.2,0.9c0,0,0,0-0.1,0.1l-1.5,0.2c0,0-0.1,0-0.1-0.1l0.1-1c0,0,0-0.1-0.1-0.1h-6.4c0,0-0.1,0-0.1,0l-1.4,5.1
		c0,0,0,0.1,0.1,0.1h6.4c0,0,0.1,0,0.1,0l0.4-1.7c0,0,0-0.1-0.1-0.1h-3.2C115.2,155.9,115.2,155.9,115.2,155.8z M207.3,155.9h3.2
		c0,0,0.1,0,0.1,0.1l-0.4,1.7c0,0,0,0-0.1,0h-6.4c0,0-0.1,0-0.1-0.1l1.4-5.1c0,0,0,0,0.1,0h6.4c0,0,0.1,0,0.1,0.1l-0.1,1
		c0,0,0,0.1,0.1,0.1l1.5-0.2c0,0,0,0,0.1-0.1c0.1-0.4,0.1-0.7,0.2-0.9c0.2-1.3-1.2-1.1-1.2-1.1h-6.6c-1.5,0-1.7,1.1-1.7,1.1
		s-0.8,2.7-1.3,4.6c-0.5,1.9,1.1,1.7,1.1,1.7s4.8,0,6.5,0s1.9-1.2,1.9-1.2s0.4-1.6,0.8-3.1c0,0,0-0.1-0.1-0.1h-4.9c0,0-0.1,0-0.1,0
		l-0.3,1.2C207.3,155.9,207.3,155.9,207.3,155.9z M136.4,151.6H135c0,0,0,0,0,0l-6.6,7.3c0,0,0,0.1,0,0.1h1.2c0,0,0,0,0,0l1.7-1.9
		l0,0h5.4c0,0,0.1,0,0.1,0l0.5,1.9c0,0,0,0,0.1,0h1.4c0,0,0.1,0,0.1-0.1L136.4,151.6C136.4,151.6,136.4,151.6,136.4,151.6z
		 M132.3,156l3-3.5c0,0,0.1,0,0.1,0l1.3,3.5c0,0,0,0.1-0.1,0.1h-4.3C132.3,156.1,132.2,156.1,132.3,156z M157.3,159h1.1
		c0,0,0.1,0,0.1,0l2-7.3c0,0,0-0.1-0.1-0.1h-1.2c0,0,0,0,0,0l-5,4.8c0,0-0.1,0-0.1,0l-2.7-4.8c0,0,0,0-0.1,0h-1.1c0,0-0.1,0-0.1,0
		l-2,7.3c0,0,0,0.1,0.1,0.1h1.1c0,0,0.1,0,0.1,0l1.5-5.6c0-0.1,0.1-0.1,0.1,0l2.4,4.4c0.1,0.3,0.5,0.3,0.7,0.1l4.5-4.4
		c0,0,0.1,0,0.1,0.1L157.3,159C157.2,158.9,157.3,159,157.3,159z M169.7,159h1.2c0,0,0.1,0,0.1,0l2-7.3c0,0,0-0.1-0.1-0.1h-1.2
		c0,0-0.1,0-0.1,0L169.7,159C169.6,158.9,169.6,159,169.7,159z M190.4,159h1c0,0,0.1,0,0.1,0l1.8-7.3c0,0,0-0.1-0.1-0.1H192
		c0,0-0.1,0-0.1,0l-1.3,5.3c0,0-0.1,0.1-0.1,0l-5.3-5.4l0,0H184c0,0-0.1,0-0.1,0l-1.8,7.3c0,0,0,0.1,0.1,0.1h1.2c0,0,0.1,0,0.1,0
		l1.4-5.4c0,0,0.1-0.1,0.1,0L190.4,159C190.4,159,190.4,159,190.4,159z"/>
	<path fill="#FDDF00" d="M10.6,121.6l4.6-18.4l8.5,8.9L10.6,121.6z M128.1,112.7l8.3,9.6l4.9-19.4L128.1,112.7z M158.3,128.4
		c-0.1,0.6-0.5,1.3-0.5,2c0,0.8-0.2,1.5,0,2.3c0.2,0.8,0.4,1.5,0.8,2.2c1,2.1,2.8,3.1,5.4,3.1s5.7-1.1,7.6-3.2
		c0.8-0.9,1.5-1.9,2.1-2.9c0.6-1.1,1-2.6,1.1-3.5l7.6-30.7c0.1-0.6,0.8-2.4,0.8-3c0-2.1-0.7-3.9-1.9-5.3c-1.3-1.3-2.9-1.7-5-1.7
		c-1.1,0-2.2,0.2-3.2,0.7c-1.1,0.5-2,1.1-2.9,1.9c-0.9,0.8-1.9,1.8-2.5,2.9s-1.1,2.3-1.3,3.6L158.3,128.4z M169,129.5
		c-0.4,1.6-1.7,3-3.9,3c-0.9,0-1.6-0.8-1.6-1.9c0-0.2,0-0.3,0-0.5c0-0.1,0-0.3,0.1-0.6l8.2-33c0.3-1.7,2.3-3.2,3.6-3.2
		c1,0,1.9,0.9,1.9,2c0,0.1,0,0.3,0,0.4c0,0.1,0,0.3-0.1,0.5L169,129.5z M201.9,87.8h-14.3l-12.6,50.3h5.7l5.6-22.3h8.6l1.4-5.6h-8.6
		l4-16.9h9L201.9,87.8z M213.5,93.2h4.9c0,0,1.3-5.3,1.4-5.4h-15.9l-1.5,5.4h5.6l-11.2,44.7h5.6L213.5,93.2z M144.3,130.8
		c-0.3-1.2,1.1-4.9,1.1-4.9l-5.7,0c0,0-1,3.6-1.2,4.8c-0.4,2.3,0.3,3.8,1.2,5.1c1,1.3,3.1,2.4,5,2.5c2.2,0.1,4.3-0.6,6.4-2.3
		c0.9-0.8,1.8-1.7,2.5-2.7c0.7-0.9,1.2-1.8,1.3-2.6c0.7-2.7,2.9-9.8,2.9-12.1c0-1.2-0.2-2.7-0.8-4.1c-0.5-1.4-1-2-2.9-3.5
		c-1.9-1.6-2.7-3.5-3-4.5c-0.4-1,0-2.5,0.1-3.7c0-0.2,1.2-4.9,1.7-6.6c0.3-0.9,0.7-1.5,1.1-2c0.5-0.6,1.5-0.8,1.7-0.8
		c1,0,3.1,0.1,2.3,3.5l-0.9,2.9l5.5,0.1c0,0,1.1-3.8,1.3-4.4c0,0,0.7-3.4-1.2-5.7c-1.2-1.4-3.2-2-5-2.1c-2.3-0.2-4.5,0.7-6.5,2.5
		c-0.9,0.8-1.7,1.7-2.3,2.6c-0.6,0.9-1.1,1.8-1.3,2.6c0,0-2.4,8.9-2.5,9.6c-0.1,0.6-0.2,1.2-0.2,1.7c-0.1,1.3-0.1,2.5,0.2,3.5
		s0.8,1.9,1.6,2.7c0.8,0.9,3,2.7,3.5,3.5c0.5,0.7,0.9,1.4,1.2,2.1c0.3,0.7,0.3,1.4,0.3,2.7c0,1.4-2.1,8.4-2.1,8.4
		C148.3,133.1,144.9,133.3,144.3,130.8z"/>
	<path id="bet" d="M107.5,138H102l11.2-45.6h-5.6l1.5-5.4H125c0,0.1-1.4,5.4-1.4,5.4h-4.9L107.5,138z M79.6,92.4l-4.1,17.1h8.9
		l-1.3,5.7H74l-4.2,17.1h8.9l-1.4,5.4H63l12.5-51H90l-1.3,5.6H79.6z M50.8,106.7c-0.3,1.1-1.6,4.2-3,5.1c-0.2,0.1-0.3,0.4-0.1,0.6
		c1.6,1.5,0.9,5,0.9,5l-2.2,9.7c-0.5,2.7-2.6,10.8-12.1,10.7l-7.3,0l12.3-51h8.9c1.6,0,3.5,1,4.3,1.9c0.8,0.9,1.6,3.6,1.3,5.3
		C53.1,97.6,50.8,106.7,50.8,106.7z M33.8,132.3l2,0.1c1.5,0.1,2.9-0.5,3.5-1c0.5-0.5,0.8-1.1,1-1.8l2.5-10.6c0,0,0.4-1.9,0.4-2.1
		c0-0.8-0.8-1.8-1.8-1.8c-0.8,0-3.1,0-3.1,0L33.8,132.3z M39.6,109.3c0,0,2.1,0.1,2.8,0c1.2-0.3,2.3-0.9,2.8-2.6l2.9-12.1
		c0.2-1.6-1.4-2.4-2.4-2.5h-2L39.6,109.3z"/>
</g>
</svg>
