<?xml version="1.0" encoding="utf-8"?>
<!-- Generator: Adobe Illustrator 17.1.0, SVG Export Plug-In . SVG Version: 6.00 Build 0)  -->
<!DOCTYPE svg PUBLIC "-//W3C//DTD SVG 1.1//EN" "http://www.w3.org/Graphics/SVG/1.1/DTD/svg11.dtd">
<svg version="1.1" id="Layer_1" xmlns="http://www.w3.org/2000/svg" xmlns:xlink="http://www.w3.org/1999/xlink" x="0px" y="0px"
	 viewBox="0 21 240 198" enable-background="new 0 21 240 198" xml:space="preserve">
<path id="blueprint_1_" fill="none" stroke="#1E2123" stroke-width="1.5" stroke-miterlimit="10" d="M117.1,134.2
	c0,2.5-1.2,3.7-3.7,3.7h-3.7v-28.6c0.4-8.9,5-13.3,13.9-13.3c9.2,0,13.8,5,13.8,15.1c0,10.2-3.9,15.4-11.8,15.7
	c-3.7,0-6.5-1.5-8.4-4.6V134.2z M129.7,111.4c0-6-2.1-9-6.4-9c-4.2,0-6.3,3-6.2,9c0.2,5.8,2.3,8.6,6.4,8.6
	C127.4,120,129.5,117.2,129.7,111.4z M139.5,110.8c0.2-9.6,5.3-14.5,15.2-14.5h1.1v7.8h-2.5c-4.1,0-6.2,2.2-6.2,6.5v15.6h-7.5
	L139.5,110.8L139.5,110.8z M162.9,87.8c2.5,0,3.7,1.2,3.6,3.6v2.2h-7.4v-5.9L162.9,87.8L162.9,87.8z M162.9,96.3
	c2.4,0,3.6,1.2,3.6,3.6v26.3h-7.4V96.3L162.9,96.3L162.9,96.3z M190.9,126.2c-2.5-0.1-3.7-1.4-3.7-3.7v-15.4
	c-0.1-3.1-1.9-4.6-5.2-4.6s-5,1.5-5,4.6v19.1h-7.5v-17.6c0-8.5,4.2-12.8,12.7-12.8c8.4,0,12.7,4.3,12.6,12.8v17.6H190.9z
	 M200.8,125.8c-2.8-0.3-4.2-2.1-4.1-5.3V87.8h3.8c0.9,0,1.8,0.4,2.5,1.1c0.7,0.7,1.1,1.6,1.1,2.7v4.7h4.5V98c0,1.1-0.4,2-1.1,2.7
	s-1.6,1-2.6,1h-0.7v16.6c0,1.2,0.7,1.9,2.2,1.9h2.3v5.8C206.3,126.1,203.6,126.1,200.8,125.8z M21,100.5c1.9-3.1,4.7-4.6,8.4-4.6
	c7.9,0.3,11.8,5.5,11.8,15.7c0,9.9-4.6,15-13.8,15.1c-9.3,0.1-13.9-4.4-13.9-13.3V87.8h3.7c2.5,0,3.7,1.2,3.7,3.7
	C21,91.6,21,100.5,21,100.5z M27.4,102.6c-4,0-6.1,2.9-6.4,8.6c-0.1,6,2,9,6.2,9s6.4-3,6.4-9C33.4,105.5,31.4,102.6,27.4,102.6z
	 M47.1,87.8c0.9,0,1.8,0.3,2.5,1c0.7,0.7,1.1,1.6,1.1,2.6v34.8h-7.4V87.8H47.1z M78.6,114.3c0,5.2-1.3,8.5-3.9,10.2
	c-2.6,1.5-5.5,2.3-8.7,2.3c-3.1,0-5.9-0.9-8.4-2.5c-2.5-1.6-3.8-4.9-3.8-9.9v-18h7.4v19.5c0,3.3,1.7,5,5,5s5-1.6,5-5v-15.8
	c-0.1-2.5,1.1-3.7,3.6-3.7h3.8L78.6,114.3L78.6,114.3z M106.7,117.1c-0.9,3.4-2.3,5.9-4.4,7.4c-2.4,1.6-5.3,2.4-8.5,2.4
	c-9-0.3-13.5-5.5-13.5-15.7s4.5-15.3,13.6-15.4c9.4,0,13.8,5.9,13.2,17.6H88c0.3,4.6,2.3,6.8,5.9,6.8c1.8,0,3.4-0.7,4.8-2.1
	c0.7-0.7,1.5-1.1,2.5-1.1C101.2,117.1,106.7,117.1,106.7,117.1z M99.3,108c-0.4-4-2.3-6-5.5-6c-3.2,0-5.1,2-5.7,6H99.3z
	 M144.9,148.2l-1.2,3.3H140l5.7-17h4.5l5.8,17h-3.7l-1.1-3.3H144.9z M147.1,142.4l-0.9,2.8h3.7l-0.9-2.7l-0.9-2.2h0L147.1,142.4z
	 M159.1,140.2h-0.2l0.1,2.7v8.5h-3.4v-16.9h4.4l4.2,10l4.2-10h4.4v16.9h-3.4V143l-0.1-2.7h-0.1l-0.7,2.6l-2.9,8.5h-2.8l-2.9-8.5
	L159.1,140.2z M178,134.6v16.9h-3.5v-16.9H178z M189.1,144.6l1.3,3.4l0.2,0l-0.6-4.4v-9.1h3.4v16.9h-4.4l-5-10.1l-1.3-3.6l-0.2,0
	l0.6,4.6v9.1h-3.5v-16.9h4.4L189.1,144.6z M141.6,142.6h-10.5v2.9h6.4c-0.8,1.9-2.6,3.1-4.6,3.1c-2.8,0-5.2-2.5-5.2-5.6
	s2.3-5.6,5.2-5.6c1.6,0,3,0.7,3.9,1.9h4.2c-1.3-3.3-4.4-5.5-8-5.5c-4.9,0-8.8,4.1-8.8,9.2s3.9,9.2,8.8,9.2s8.8-4.1,8.8-9.2
	C141.7,142.9,141.7,142.8,141.6,142.6z M211.5,142.5h-10.5v2.9h6.4c-0.8,1.9-2.6,3.1-4.6,3.1c-2.8,0-5.2-2.5-5.2-5.6
	s2.3-5.6,5.2-5.6c1.6,0,3,0.7,3.9,1.9h4.1c-1.3-3.3-4.4-5.5-8-5.5c-4.9,0-8.8,4.1-8.8,9.2s3.9,9.2,8.8,9.2s8.8-4.1,8.8-9.2
	C211.5,142.8,211.5,142.7,211.5,142.5z M219.3,134.7h-1.4v4.6h-1.3v-4.6h-1.4v-1h4.1V134.7z M221.1,134.9L221.1,134.9l0.2,1.6v2.8
	H220v-5.6h1.6l1.6,3.3l1.6-3.3h1.6v5.6h-1.3v-2.8l0.3-1.6h-0.1l-0.6,1.5l-1.1,2h-1l-1-2L221.1,134.9z"/>
<g id="blueprint">
	<g id="print">
		<path id="XMLID_830_" fill="#FFFFFF" d="M117.1,134.2c0,2.5-1.2,3.7-3.7,3.7h-3.7v-28.6c0.4-8.9,5-13.3,13.9-13.3
			c9.2,0,13.8,5,13.8,15.1c0,10.2-3.9,15.4-11.8,15.7c-3.7,0-6.5-1.5-8.4-4.6V134.2z M129.7,111.4c0-6-2.1-9-6.4-9
			c-4.2,0-6.3,3-6.2,9c0.2,5.8,2.3,8.6,6.4,8.6C127.4,120,129.5,117.2,129.7,111.4z"/>
		<path id="XMLID_835_" fill="#FFFFFF" d="M139.5,110.8c0.2-9.6,5.3-14.5,15.2-14.5h1.1v7.8h-2.5c-4.1,0-6.2,2.2-6.2,6.5v15.6h-7.5
			L139.5,110.8L139.5,110.8z"/>
		<path id="XMLID_838_" fill="#FFFFFF" d="M162.9,87.8c2.5,0,3.7,1.2,3.6,3.6v2.2h-7.4v-5.9L162.9,87.8L162.9,87.8z M162.9,96.3
			c2.4,0,3.6,1.2,3.6,3.6v26.3h-7.4V96.3L162.9,96.3L162.9,96.3z"/>
		<path id="XMLID_841_" fill="#FFFFFF" d="M190.9,126.2c-2.5-0.1-3.7-1.4-3.7-3.7v-15.4c-0.1-3.1-1.9-4.6-5.2-4.6s-5,1.5-5,4.6v19.1
			h-7.5v-17.6c0-8.5,4.2-12.8,12.7-12.8c8.4,0,12.7,4.3,12.6,12.8v17.6H190.9z"/>
		<path id="XMLID_843_" fill="#FFFFFF" d="M200.8,125.8c-2.8-0.3-4.2-2.1-4.1-5.3V87.8h3.8c0.9,0,1.8,0.4,2.5,1.1
			c0.7,0.7,1.1,1.6,1.1,2.7v4.7h4.5V98c0,1.1-0.4,2-1.1,2.7s-1.6,1-2.6,1h-0.7v16.6c0,1.2,0.7,1.9,2.2,1.9h2.3v5.8
			C206.3,126.1,203.6,126.1,200.8,125.8z"/>
	</g>
	<g id="blue">
		
			<linearGradient id="XMLID_19_" gradientUnits="userSpaceOnUse" x1="91.2548" y1="17.2462" x2="91.2548" y2="-112.1896" gradientTransform="matrix(0.3 0 0 -0.3 -7.629395e-006 93)">
			<stop  offset="0" style="stop-color:#4793CF"/>
			<stop  offset="1" style="stop-color:#56C8E7"/>
		</linearGradient>
		<path id="XMLID_846_" fill="url(#XMLID_19_)" d="M21,100.5c1.9-3.1,4.7-4.6,8.4-4.6c7.9,0.3,11.8,5.5,11.8,15.7
			c0,9.9-4.6,15-13.8,15.1c-9.3,0.1-13.9-4.4-13.9-13.3V87.8h3.7c2.5,0,3.7,1.2,3.7,3.7C21,91.6,21,100.5,21,100.5z M27.4,102.6
			c-4,0-6.1,2.9-6.4,8.6c-0.1,6,2,9,6.2,9s6.4-3,6.4-9C33.4,105.5,31.4,102.6,27.4,102.6z"/>
		
			<linearGradient id="XMLID_20_" gradientUnits="userSpaceOnUse" x1="156.6563" y1="17.2462" x2="156.6563" y2="-110.6916" gradientTransform="matrix(0.3 0 0 -0.3 -7.629395e-006 93)">
			<stop  offset="0" style="stop-color:#4793CF"/>
			<stop  offset="1" style="stop-color:#56C8E7"/>
		</linearGradient>
		<path id="XMLID_852_" fill="url(#XMLID_20_)" d="M47.1,87.8c0.9,0,1.8,0.3,2.5,1c0.7,0.7,1.1,1.6,1.1,2.6v34.8h-7.4V87.8H47.1z"/>
		
			<linearGradient id="XMLID_21_" gradientUnits="userSpaceOnUse" x1="220.6253" y1="-11.0501" x2="220.6253" y2="-112.5782" gradientTransform="matrix(0.3 0 0 -0.3 -7.629395e-006 93)">
			<stop  offset="0" style="stop-color:#4793CF"/>
			<stop  offset="1" style="stop-color:#56C8E7"/>
		</linearGradient>
		<path id="XMLID_854_" fill="url(#XMLID_21_)" d="M78.6,114.3c0,5.2-1.3,8.5-3.9,10.2c-2.6,1.5-5.5,2.3-8.7,2.3
			c-3.1,0-5.9-0.9-8.4-2.5c-2.5-1.6-3.8-4.9-3.8-9.9v-18h7.4v19.5c0,3.3,1.7,5,5,5s5-1.6,5-5v-15.8c-0.1-2.5,1.1-3.7,3.6-3.7h3.8
			L78.6,114.3L78.6,114.3z"/>
		
			<linearGradient id="XMLID_22_" gradientUnits="userSpaceOnUse" x1="312.588" y1="-9.5373" x2="312.588" y2="-112.934" gradientTransform="matrix(0.3 0 0 -0.3 -7.629395e-006 93)">
			<stop  offset="0" style="stop-color:#4793CF"/>
			<stop  offset="1" style="stop-color:#56C8E7"/>
		</linearGradient>
		<path id="XMLID_856_" fill="url(#XMLID_22_)" d="M106.7,117.1c-0.9,3.4-2.3,5.9-4.4,7.4c-2.4,1.6-5.3,2.4-8.5,2.4
			c-9-0.3-13.5-5.5-13.5-15.7s4.5-15.3,13.6-15.4c9.4,0,13.8,5.9,13.2,17.6H88c0.3,4.6,2.3,6.8,5.9,6.8c1.8,0,3.4-0.7,4.8-2.1
			c0.7-0.7,1.5-1.1,2.5-1.1C101.2,117.1,106.7,117.1,106.7,117.1z M99.3,108c-0.4-4-2.3-6-5.5-6c-3.2,0-5.1,2-5.7,6H99.3z"/>
	</g>
	<g id="gaming_2_">
		<path id="XMLID_859_" fill="#FFFFFF" d="M144.9,148.2l-1.2,3.3H140l5.7-17h4.5l5.8,17h-3.7l-1.1-3.3H144.9z M147.1,142.4l-0.9,2.8
			h3.7l-0.9-2.7l-0.9-2.2h0L147.1,142.4z"/>
		<path id="XMLID_862_" fill="#FFFFFF" d="M159.1,140.2h-0.2l0.1,2.7v8.5h-3.4v-16.9h4.4l4.2,10l4.2-10h4.4v16.9h-3.4V143l-0.1-2.7
			h-0.1l-0.7,2.6l-2.9,8.5h-2.8l-2.9-8.5L159.1,140.2z"/>
		<path id="XMLID_865_" fill="#FFFFFF" d="M178,134.6v16.9h-3.5v-16.9H178z"/>
		<path id="XMLID_867_" fill="#FFFFFF" d="M189.1,144.6l1.3,3.4l0.2,0l-0.6-4.4v-9.1h3.4v16.9h-4.4l-5-10.1l-1.3-3.6l-0.2,0l0.6,4.6
			v9.1h-3.5v-16.9h4.4L189.1,144.6z"/>
		<path id="XMLID_870_" fill="#FFFFFF" d="M141.6,142.6h-10.5v2.9h6.4c-0.8,1.9-2.6,3.1-4.6,3.1c-2.8,0-5.2-2.5-5.2-5.6
			s2.3-5.6,5.2-5.6c1.6,0,3,0.7,3.9,1.9h4.2c-1.3-3.3-4.4-5.5-8-5.5c-4.9,0-8.8,4.1-8.8,9.2s3.9,9.2,8.8,9.2s8.8-4.1,8.8-9.2
			C141.7,142.9,141.7,142.8,141.6,142.6z"/>
		<path id="XMLID_877_" fill="#FFFFFF" d="M211.5,142.5h-10.5v2.9h6.4c-0.8,1.9-2.6,3.1-4.6,3.1c-2.8,0-5.2-2.5-5.2-5.6
			s2.3-5.6,5.2-5.6c1.6,0,3,0.7,3.9,1.9h4.1c-1.3-3.3-4.4-5.5-8-5.5c-4.9,0-8.8,4.1-8.8,9.2s3.9,9.2,8.8,9.2s8.8-4.1,8.8-9.2
			C211.5,142.8,211.5,142.7,211.5,142.5z"/>
	</g>
	<g id="tm">
		<path id="XMLID_884_" fill="#FFFFFF" d="M219.3,134.7h-1.4v4.6h-1.3v-4.6h-1.4v-1h4.1V134.7z"/>
		<path id="XMLID_889_" fill="#FFFFFF" d="M221.1,134.9L221.1,134.9l0.2,1.6v2.8H220v-5.6h1.6l1.6,3.3l1.6-3.3h1.6v5.6h-1.3v-2.8
			l0.3-1.6h-0.1l-0.6,1.5l-1.1,2h-1l-1-2L221.1,134.9z"/>
	</g>
</g>
</svg>
