<?xml version="1.0" encoding="utf-8"?>
<!-- Generator: Adobe Illustrator 17.1.0, SVG Export Plug-In . SVG Version: 6.00 Build 0)  -->
<!DOCTYPE svg PUBLIC "-//W3C//DTD SVG 1.1//EN" "http://www.w3.org/Graphics/SVG/1.1/DTD/svg11.dtd">
<svg version="1.1" id="HEXlogo_3d" xmlns="http://www.w3.org/2000/svg" xmlns:xlink="http://www.w3.org/1999/xlink" x="0px" y="0px"
	 viewBox="0 0 204.2 223" enable-background="new 0 0 204.2 223" xml:space="preserve">
	 <title>HEX Casino™ LOGO</title>
<g>
	<radialGradient id="body_3_" cx="102.0956" cy="111.5069" r="98.9133" gradientUnits="userSpaceOnUse">
		<stop  offset="0.601" style="stop-color:#42B659"/>
		<stop  offset="0.9901" style="stop-color:#3CA852"/>
	</radialGradient>
	<path id="body_6_" fill="url(#body_3_)" d="M24.6,175.4l60.8,35.1c10.3,5.9,23,5.9,33.3,0l60.8-35.1c10.3-5.9,16.6-16.9,16.6-28.8
		V76.4c0-11.9-6.3-22.9-16.6-28.8l-60.8-35.1c-10.3-5.9-23-5.9-33.3,0L24.6,47.6C14.3,53.5,8,64.5,8,76.4v70.2
		C8,158.5,14.3,169.5,24.6,175.4z"/>
	<path id="body_1_" fill="#303030" d="M102.1,8c5.7,0,11.5,1.5,16.6,4.5l60.8,35.1c10.3,5.9,16.6,16.9,16.6,28.8v70.2
		c0,11.9-6.3,22.9-16.6,28.8l-60.8,35.1c-5.1,3-10.9,4.5-16.6,4.5s-11.5-1.5-16.6-4.5l-60.8-35.1C14.3,169.5,8,158.5,8,146.6V76.4
		c0-11.9,6.3-22.9,16.6-28.8l60.8-35.1C90.6,9.5,96.4,8,102.1,8 M102.1,0c-7.2,0-14.4,1.9-20.6,5.5L20.6,40.7C7.9,48,0,61.7,0,76.4
		v70.2c0,14.7,7.9,28.4,20.6,35.7l60.8,35.1c6.3,3.6,13.4,5.5,20.6,5.5c7.2,0,14.4-1.9,20.6-5.5l60.8-35.1
		c12.7-7.3,20.6-21,20.6-35.7V76.4c0-14.7-7.9-28.4-20.6-35.7L122.7,5.5C116.5,1.9,109.3,0,102.1,0L102.1,0z"/>
	<radialGradient id="body_4_" cx="102.0956" cy="111.5069" r="98.9133" gradientUnits="userSpaceOnUse">
		<stop  offset="2.463054e-002" style="stop-color:#42B659"/>
		<stop  offset="0.9803" style="stop-color:#33984A"/>
	</radialGradient>
	<path id="body_2_" fill="url(#body_4_)" d="M102.1,9.5c5.6,0,11.1,1.5,15.9,4.3l60.8,35.1c9.8,5.7,15.9,16.2,15.9,27.5v70.2
		c0,11.3-6.1,21.8-15.9,27.5L118,209.3c-4.8,2.8-10.3,4.3-15.9,4.3S91,212,86.2,209.3l-60.8-35.1c-9.8-5.7-15.9-16.2-15.9-27.5V76.4
		c0-11.3,6.1-21.8,15.9-27.5l60.8-35.1C91,11,96.5,9.5,102.1,9.5 M102.1,8c-5.7,0-11.5,1.5-16.6,4.5L24.6,47.6
		C14.3,53.5,8,64.5,8,76.4v70.2c0,11.9,6.3,22.9,16.6,28.8l60.8,35.1c5.1,3,10.9,4.5,16.6,4.5s11.5-1.5,16.6-4.5l60.8-35.1
		c10.3-5.9,16.6-16.9,16.6-28.8V76.4c0-11.9-6.3-22.9-16.6-28.8l-60.8-35.1C113.6,9.5,107.8,8,102.1,8L102.1,8z"/>
</g>
<g id="white_things_1_">
	<path fill="#FFFFFF" d="M17.7,97.7v27.9c0,2.8-2.3,5.1-5.1,5.1H8.1v-38h4.6C15.5,92.7,17.7,94.9,17.7,97.7z M70.7,26.5l-2.4-4.1
		l-32.9,19l2.5,4.2c1.4,2.4,4.5,3.2,6.9,1.8l24.1-13.9C71.3,32,72.1,28.9,70.7,26.5z M161.8,43l2.5-4.2l-32.9-19l-2.4,4.1
		c-1.4,2.4-0.6,5.5,1.8,6.9L155,44.8C157.4,46.2,160.4,45.4,161.8,43z M186.4,97.7v27.9c0,2.8,2.3,5.1,5.1,5.1h4.6v-38h-4.6
		C188.7,92.7,186.4,94.9,186.4,97.7z M38,177.8l-2.2,3.8l32.9,19l2.2-3.7c1.4-2.4,0.6-5.5-1.8-6.9L44.9,176
		C42.5,174.6,39.4,175.5,38,177.8z M128.8,199.5l2.2,3.7l32.9-19l-2.2-3.8c-1.4-2.4-4.5-3.2-6.9-1.8l-24.1,13.9
		C128.2,194,127.4,197.1,128.8,199.5z"/>
</g>
<radialGradient id="SVGID_1_" cx="102.0956" cy="111.5081" r="92.8618" gradientUnits="userSpaceOnUse">
	<stop  offset="2.463054e-002" style="stop-color:#E6E7E8"/>
	<stop  offset="0.9803" style="stop-color:#E6E7E8"/>
</radialGradient>
<path fill="url(#SVGID_1_)" d="M68.3,22.4l0.8,1.3l-32.9,19l-0.8-1.3L68.3,22.4z M9.5,92.7H8.1v38h1.4V92.7z M130.7,21.1l32.9,19
	l0.8-1.3l-32.9-19L130.7,21.1z M194.7,130.6h1.4v-38h-1.4V130.6z M163.9,184.2l-0.7-1.1l-32.9,19l0.7,1.1L163.9,184.2z M36.4,180.5
	l-0.7,1.1l32.9,19l0.7-1.1L36.4,180.5z"/>
<g opacity="0.5">
	<path id="dashes_3_" fill="#3E9E48" d="M45,158.6l44.9,25.9c7.6,4.4,16.9,4.4,24.5,0l44.9-25.9c7.6-4.4,12.3-12.5,12.3-21.2V85.6
		c0-8.8-4.7-16.9-12.3-21.2l-44.9-25.9c-7.6-4.4-16.9-4.4-24.5,0L45,64.4c-7.6,4.4-12.3,12.5-12.3,21.2v51.8
		C32.7,146.2,37.4,154.3,45,158.6z"/>
	<linearGradient id="dashes_1_" gradientUnits="userSpaceOnUse" x1="102.0956" y1="187.8312" x2="102.0956" y2="35.1826">
		<stop  offset="0" style="stop-color:#34994A"/>
		<stop  offset="1" style="stop-color:#24803D"/>
	</linearGradient>
	<path id="dashes_2_" fill="url(#dashes_1_)" d="M102.1,36.2c4.1,0,8.2,1.1,11.8,3.2l44.9,25.9c7.3,4.2,11.8,12,11.8,20.4v51.8
		c0,8.4-4.5,16.2-11.8,20.4l-44.9,25.9c-3.6,2.1-7.6,3.2-11.8,3.2c-4.1,0-8.2-1.1-11.8-3.2l-44.9-25.9c-7.3-4.2-11.8-12-11.8-20.4
		V85.6c0-8.4,4.5-16.2,11.8-20.4l44.9-25.9C93.9,37.3,98,36.2,102.1,36.2 M102.1,35.2c-4.2,0-8.5,1.1-12.3,3.3L45,64.4
		c-7.6,4.4-12.3,12.5-12.3,21.2v51.8c0,8.8,4.7,16.9,12.3,21.2l44.9,25.9c3.8,2.2,8,3.3,12.3,3.3s8.5-1.1,12.3-3.3l44.9-25.9
		c7.6-4.4,12.3-12.5,12.3-21.2V85.6c0-8.8-4.7-16.9-12.3-21.2l-44.9-25.9C110.6,36.3,106.3,35.2,102.1,35.2L102.1,35.2z"/>
</g>
<path fill="#368741" d="M102.1,184c-2.4,0-4.8-0.4-7-1.1c-0.3-0.1-0.4-0.4-0.3-0.6c0.1-0.3,0.4-0.4,0.6-0.3c2.8,0.9,5.8,1.2,8.7,0.9
	c0.3,0,0.5,0.2,0.5,0.5c0,0.3-0.2,0.5-0.5,0.5C103.5,184,102.8,184,102.1,184z M112.7,181.4c-0.2,0-0.4-0.1-0.4-0.3
	c-0.1-0.2,0-0.5,0.2-0.7c0.3-0.2,0.6-0.3,0.9-0.5l6.8-3.9c0.2-0.1,0.5-0.1,0.7,0.2c0.1,0.2,0.1,0.5-0.2,0.7l-6.8,3.9
	c-0.3,0.2-0.7,0.4-1,0.5C112.9,181.4,112.8,181.4,112.7,181.4z M87.2,179c-0.1,0-0.2,0-0.3-0.1l-7.8-4.5c-0.2-0.1-0.3-0.4-0.2-0.7
	c0.1-0.2,0.4-0.3,0.7-0.2l7.8,4.5c0.2,0.1,0.3,0.4,0.2,0.7C87.5,178.9,87.3,179,87.2,179z M128.3,172.5c-0.2,0-0.3-0.1-0.4-0.3
	c-0.1-0.2-0.1-0.5,0.2-0.7l7.8-4.5c0.2-0.1,0.5-0.1,0.7,0.2c0.1,0.2,0.1,0.5-0.2,0.7l-7.8,4.5C128.5,172.4,128.4,172.5,128.3,172.5z
	 M71.6,170c-0.1,0-0.2,0-0.2-0.1l-7.8-4.5c-0.2-0.1-0.3-0.4-0.2-0.7s0.4-0.3,0.7-0.2l7.8,4.5c0.2,0.1,0.3,0.4,0.2,0.7
	C71.9,169.9,71.8,170,71.6,170z M143.9,163.5c-0.2,0-0.3-0.1-0.4-0.3c-0.1-0.2-0.1-0.5,0.2-0.7l7.8-4.5c0.2-0.1,0.5-0.1,0.7,0.2
	c0.1,0.2,0.1,0.5-0.2,0.7l-7.8,4.5C144.1,163.4,144,163.5,143.9,163.5z M56,161c-0.1,0-0.2,0-0.2-0.1l-7.8-4.5
	c-2-1.1-3.7-2.5-5.3-4.2c-0.2-0.2-0.2-0.5,0-0.7c0.2-0.2,0.5-0.2,0.7,0c1.5,1.6,3.2,2.9,5.1,4l7.8,4.5c0.2,0.1,0.3,0.4,0.2,0.7
	C56.3,160.9,56.2,161,56,161z M159.3,154.2c-0.1,0-0.3-0.1-0.4-0.2c-0.2-0.2-0.2-0.5,0.1-0.7c2.3-1.9,4.1-4.2,5.5-6.8
	c0.1-0.2,0.4-0.3,0.7-0.2c0.2,0.1,0.3,0.4,0.2,0.7c-1.4,2.7-3.4,5.1-5.7,7.1C159.5,154.1,159.4,154.2,159.3,154.2z M38.2,144.9
	c-0.2,0-0.4-0.1-0.5-0.3c-1.1-2.7-1.6-5.6-1.6-8.6v-0.4c0-0.3,0.2-0.5,0.5-0.5s0.5,0.2,0.5,0.5v0.4c0,2.8,0.5,5.6,1.5,8.2
	c0.1,0.3,0,0.5-0.3,0.6C38.3,144.8,38.3,144.9,38.2,144.9z M167.5,138.6C167.4,138.6,167.4,138.6,167.5,138.6
	c-0.3,0-0.5-0.3-0.5-0.5c0.1-0.7,0.1-1.4,0.1-2.2v-6.8c0-0.3,0.2-0.5,0.5-0.5s0.5,0.2,0.5,0.5v6.8c0,0.8,0,1.5-0.1,2.3
	C167.9,138.5,167.7,138.6,167.5,138.6z M36.6,127.1c-0.3,0-0.5-0.2-0.5-0.5v-9c0-0.3,0.2-0.5,0.5-0.5s0.5,0.2,0.5,0.5v9
	C37.1,126.8,36.9,127.1,36.6,127.1z M167.6,120.6c-0.3,0-0.5-0.2-0.5-0.5v-9c0-0.3,0.2-0.5,0.5-0.5s0.5,0.2,0.5,0.5v9
	C168.1,120.4,167.8,120.6,167.6,120.6z M36.6,109.1c-0.3,0-0.5-0.2-0.5-0.5v-9c0-0.3,0.2-0.5,0.5-0.5s0.5,0.2,0.5,0.5v9
	C37.1,108.8,36.9,109.1,36.6,109.1z M167.6,102.6c-0.3,0-0.5-0.2-0.5-0.5v-9c0-0.3,0.2-0.5,0.5-0.5s0.5,0.2,0.5,0.5v9
	C168.1,102.4,167.8,102.6,167.6,102.6z M36.6,91.1c-0.3,0-0.5-0.2-0.5-0.5v-3.5c0-1.9,0.2-3.8,0.7-5.6c0.1-0.3,0.3-0.4,0.6-0.4
	c0.3,0.1,0.4,0.3,0.4,0.6c-0.4,1.7-0.6,3.5-0.6,5.3v3.5C37.1,90.8,36.9,91.1,36.6,91.1z M167.4,84.7c-0.2,0-0.5-0.2-0.5-0.4
	c-0.4-2.9-1.3-5.7-2.8-8.3c-0.1-0.2-0.1-0.5,0.2-0.7c0.2-0.1,0.5-0.1,0.7,0.2c1.5,2.7,2.5,5.6,2.9,8.7
	C167.9,84.4,167.7,84.6,167.4,84.7C167.4,84.7,167.4,84.7,167.4,84.7z M41,74c-0.1,0-0.2,0-0.3-0.1c-0.2-0.2-0.3-0.5-0.1-0.7
	c1.8-2.5,4.1-4.6,6.7-6.2c0.2-0.1,0.5-0.1,0.7,0.2c0.1,0.2,0.1,0.5-0.2,0.7c-2.5,1.6-4.7,3.6-6.4,6C41.3,73.9,41.2,74,41,74z
	 M158.7,69.4c-0.1,0-0.2,0-0.3-0.1c-0.8-0.7-1.7-1.3-2.7-1.8l-4.9-2.8c-0.2-0.1-0.3-0.4-0.2-0.7c0.1-0.2,0.4-0.3,0.7-0.2l4.9,2.8
	c1,0.6,1.9,1.2,2.8,1.9c0.2,0.2,0.3,0.5,0.1,0.7C159,69.3,158.9,69.4,158.7,69.4z M55.4,63.4c-0.2,0-0.3-0.1-0.4-0.3
	c-0.1-0.2-0.1-0.5,0.2-0.7l7.8-4.5c0.2-0.1,0.5-0.1,0.7,0.2c0.1,0.2,0.1,0.5-0.2,0.7l-7.8,4.5C55.5,63.4,55.5,63.4,55.4,63.4z
	 M143.3,60.2c-0.1,0-0.2,0-0.3-0.1l-7.8-4.5c-0.2-0.1-0.3-0.4-0.2-0.7c0.1-0.2,0.4-0.3,0.7-0.2l7.8,4.5c0.2,0.1,0.3,0.4,0.2,0.7
	C143.6,60.1,143.4,60.2,143.3,60.2z M71,54.4c-0.2,0-0.3-0.1-0.4-0.3c-0.1-0.2-0.1-0.5,0.2-0.7l7.8-4.5c0.2-0.1,0.5-0.1,0.7,0.2
	c0.1,0.2,0.1,0.5-0.2,0.7l-7.8,4.5C71.1,54.4,71.1,54.4,71,54.4z M127.7,51.2c-0.1,0-0.2,0-0.3-0.1l-7.8-4.5
	c-0.2-0.1-0.3-0.4-0.2-0.7c0.1-0.2,0.4-0.3,0.7-0.2l7.8,4.5c0.2,0.1,0.3,0.4,0.2,0.7C128,51.1,127.9,51.2,127.7,51.2z M86.6,45.4
	c-0.2,0-0.3-0.1-0.4-0.3c-0.1-0.2-0.1-0.5,0.2-0.7l4-2.3c1.3-0.8,2.7-1.4,4.1-1.9c0.3-0.1,0.5,0,0.6,0.3s0,0.5-0.3,0.6
	c-1.4,0.5-2.7,1.1-3.9,1.8l-4,2.3C86.7,45.4,86.6,45.4,86.6,45.4z M112.1,42.3c-0.1,0-0.1,0-0.2,0c-2.7-1.3-5.5-2-8.5-2.2
	c-0.3,0-0.5-0.3-0.5-0.5c0-0.3,0.2-0.5,0.5-0.5c3.1,0.2,6.1,0.9,8.9,2.3c0.3,0.1,0.4,0.4,0.2,0.7C112.4,42.1,112.2,42.3,112.1,42.3z
	"/>
<path fill="#FFFFFF" d="M102.1,184.5c-2.4,0-4.8-0.4-7-1.1c-0.3-0.1-0.4-0.4-0.3-0.6c0.1-0.3,0.4-0.4,0.6-0.3
	c2.8,0.9,5.8,1.2,8.7,0.9c0.3,0,0.5,0.2,0.5,0.5c0,0.3-0.2,0.5-0.5,0.5C103.5,184.4,102.8,184.5,102.1,184.5z M112.7,181.9
	c-0.2,0-0.4-0.1-0.4-0.3c-0.1-0.2,0-0.5,0.2-0.7c0.3-0.2,0.6-0.3,0.9-0.5l6.8-3.9c0.2-0.1,0.5-0.1,0.7,0.2c0.1,0.2,0.1,0.5-0.2,0.7
	l-6.8,3.9c-0.3,0.2-0.7,0.4-1,0.5C112.9,181.9,112.8,181.9,112.7,181.9z M87.2,179.4c-0.1,0-0.2,0-0.3-0.1l-7.8-4.5
	c-0.2-0.1-0.3-0.4-0.2-0.7c0.1-0.2,0.4-0.3,0.7-0.2l7.8,4.5c0.2,0.1,0.3,0.4,0.2,0.7C87.5,179.3,87.3,179.4,87.2,179.4z
	 M128.3,172.9c-0.2,0-0.3-0.1-0.4-0.3c-0.1-0.2-0.1-0.5,0.2-0.7l7.8-4.5c0.2-0.1,0.5-0.1,0.7,0.2c0.1,0.2,0.1,0.5-0.2,0.7l-7.8,4.5
	C128.5,172.9,128.4,172.9,128.3,172.9z M71.6,170.4c-0.1,0-0.2,0-0.2-0.1l-7.8-4.5c-0.2-0.1-0.3-0.4-0.2-0.7s0.4-0.3,0.7-0.2
	l7.8,4.5c0.2,0.1,0.3,0.4,0.2,0.7C71.9,170.3,71.8,170.4,71.6,170.4z M143.9,163.9c-0.2,0-0.3-0.1-0.4-0.3c-0.1-0.2-0.1-0.5,0.2-0.7
	l7.8-4.5c0.2-0.1,0.5-0.1,0.7,0.2c0.1,0.2,0.1,0.5-0.2,0.7l-7.8,4.5C144.1,163.9,144,163.9,143.9,163.9z M56,161.4
	c-0.1,0-0.2,0-0.2-0.1l-7.8-4.5c-2-1.1-3.7-2.5-5.3-4.2c-0.2-0.2-0.2-0.5,0-0.7c0.2-0.2,0.5-0.2,0.7,0c1.5,1.6,3.2,2.9,5.1,4
	l7.8,4.5c0.2,0.1,0.3,0.4,0.2,0.7C56.3,161.3,56.2,161.4,56,161.4z M159.3,154.6c-0.1,0-0.3-0.1-0.4-0.2c-0.2-0.2-0.2-0.5,0.1-0.7
	c2.3-1.9,4.1-4.2,5.5-6.8c0.1-0.2,0.4-0.3,0.7-0.2c0.2,0.1,0.3,0.4,0.2,0.7c-1.4,2.7-3.4,5.1-5.7,7.1
	C159.5,154.6,159.4,154.6,159.3,154.6z M38.2,145.3c-0.2,0-0.4-0.1-0.5-0.3c-1.1-2.8-1.6-5.6-1.6-8.6V136c0-0.3,0.2-0.5,0.5-0.5
	s0.5,0.2,0.5,0.5v0.4c0,2.8,0.5,5.6,1.5,8.2c0.1,0.3,0,0.5-0.3,0.6C38.3,145.3,38.3,145.3,38.2,145.3z M167.5,139.1
	C167.4,139.1,167.4,139.1,167.5,139.1c-0.3,0-0.5-0.3-0.5-0.5c0.1-0.7,0.1-1.4,0.1-2.2v-6.8c0-0.3,0.2-0.5,0.5-0.5s0.5,0.2,0.5,0.5
	v6.8c0,0.8,0,1.5-0.1,2.3C167.9,138.9,167.7,139.1,167.5,139.1z M36.6,127.5c-0.3,0-0.5-0.2-0.5-0.5v-9c0-0.3,0.2-0.5,0.5-0.5
	s0.5,0.2,0.5,0.5v9C37.1,127.3,36.9,127.5,36.6,127.5z M167.6,121.1c-0.3,0-0.5-0.2-0.5-0.5v-9c0-0.3,0.2-0.5,0.5-0.5
	s0.5,0.2,0.5,0.5v9C168.1,120.9,167.8,121.1,167.6,121.1z M36.6,109.5c-0.3,0-0.5-0.2-0.5-0.5v-9c0-0.3,0.2-0.5,0.5-0.5
	s0.5,0.2,0.5,0.5v9C37.1,109.3,36.9,109.5,36.6,109.5z M167.6,103.1c-0.3,0-0.5-0.2-0.5-0.5v-9c0-0.3,0.2-0.5,0.5-0.5
	s0.5,0.2,0.5,0.5v9C168.1,102.9,167.8,103.1,167.6,103.1z M36.6,91.5c-0.3,0-0.5-0.2-0.5-0.5v-3.5c0-1.9,0.2-3.8,0.7-5.6
	c0.1-0.3,0.3-0.4,0.6-0.4c0.3,0.1,0.4,0.3,0.4,0.6c-0.4,1.7-0.6,3.5-0.6,5.3V91C37.1,91.3,36.9,91.5,36.6,91.5z M167.4,85.1
	c-0.2,0-0.5-0.2-0.5-0.4c-0.4-2.9-1.3-5.7-2.8-8.3c-0.1-0.2-0.1-0.5,0.2-0.7c0.2-0.1,0.5-0.1,0.7,0.2c1.5,2.7,2.5,5.6,2.9,8.7
	C167.9,84.8,167.7,85.1,167.4,85.1C167.4,85.1,167.4,85.1,167.4,85.1z M41,74.4c-0.1,0-0.2,0-0.3-0.1c-0.2-0.2-0.3-0.5-0.1-0.7
	c1.8-2.5,4.1-4.6,6.7-6.2c0.2-0.1,0.5-0.1,0.7,0.2c0.1,0.2,0.1,0.5-0.2,0.7c-2.5,1.6-4.7,3.6-6.4,6C41.3,74.4,41.2,74.4,41,74.4z
	 M158.7,69.8c-0.1,0-0.2,0-0.3-0.1c-0.8-0.7-1.7-1.3-2.7-1.8l-4.9-2.8c-0.2-0.1-0.3-0.4-0.2-0.7c0.1-0.2,0.4-0.3,0.7-0.2l4.9,2.8
	c1,0.6,1.9,1.2,2.8,1.9c0.2,0.2,0.3,0.5,0.1,0.7C159,69.8,158.9,69.8,158.7,69.8z M55.4,63.8c-0.2,0-0.3-0.1-0.4-0.3
	c-0.1-0.2-0.1-0.5,0.2-0.7l7.8-4.5c0.2-0.1,0.5-0.1,0.7,0.2c0.1,0.2,0.1,0.5-0.2,0.7l-7.8,4.5C55.5,63.8,55.5,63.8,55.4,63.8z
	 M143.3,60.6c-0.1,0-0.2,0-0.3-0.1l-7.8-4.5c-0.2-0.1-0.3-0.4-0.2-0.7c0.1-0.2,0.4-0.3,0.7-0.2l7.8,4.5c0.2,0.1,0.3,0.4,0.2,0.7
	C143.6,60.5,143.4,60.6,143.3,60.6z M71,54.8c-0.2,0-0.3-0.1-0.4-0.3c-0.1-0.2-0.1-0.5,0.2-0.7l7.8-4.5c0.2-0.1,0.5-0.1,0.7,0.2
	c0.1,0.2,0.1,0.5-0.2,0.7l-7.8,4.5C71.1,54.8,71.1,54.8,71,54.8z M127.7,51.6c-0.1,0-0.2,0-0.3-0.1l-7.8-4.5
	c-0.2-0.1-0.3-0.4-0.2-0.7c0.1-0.2,0.4-0.3,0.7-0.2l7.8,4.5c0.2,0.1,0.3,0.4,0.2,0.7C128,51.5,127.9,51.6,127.7,51.6z M86.6,45.8
	c-0.2,0-0.3-0.1-0.4-0.3c-0.1-0.2-0.1-0.5,0.2-0.7l4-2.3c1.3-0.8,2.7-1.4,4.1-1.9c0.3-0.1,0.5,0,0.6,0.3c0.1,0.3,0,0.5-0.3,0.6
	c-1.4,0.5-2.7,1.1-3.9,1.8l-4,2.3C86.7,45.8,86.6,45.8,86.6,45.8z M112.1,42.7c-0.1,0-0.1,0-0.2,0c-2.7-1.3-5.5-2-8.5-2.2
	c-0.3,0-0.5-0.3-0.5-0.5c0-0.3,0.2-0.5,0.5-0.5c3.1,0.2,6.1,0.9,8.9,2.3c0.3,0.1,0.4,0.4,0.2,0.7C112.4,42.6,112.2,42.7,112.1,42.7z
	"/>
<g>
	<path id="under_letter_2_" fill="#F1F2F2" d="M51.2,153.5l40,23.1c6.8,3.9,15.1,3.9,21.8,0l40-23.1c6.8-3.9,10.9-11.1,10.9-18.9
		V88.4c0-7.8-4.2-15-10.9-18.9l-40-23.1c-6.8-3.9-15.1-3.9-21.8,0l-40,23.1c-6.8,3.9-10.9,11.1-10.9,18.9v46.1
		C40.3,142.4,44.4,149.6,51.2,153.5z"/>
	<path fill="#3E9E48" d="M102.1,180c-3.9,0-7.8-1-11.2-3l-40-23.1c-6.9-4-11.2-11.4-11.2-19.4V88.4c0-8,4.3-15.4,11.2-19.4l40-23.1
		c3.4-2,7.3-3,11.2-3c3.9,0,7.8,1,11.2,3l40,23.1c6.9,4,11.2,11.4,11.2,19.4v46.1c0,8-4.3,15.4-11.2,19.4l-40,23.1
		C109.9,179,106,180,102.1,180z M102.1,44c-3.7,0-7.4,1-10.7,2.9l-40,23.1c-6.6,3.8-10.7,10.9-10.7,18.5v46.1
		c0,7.6,4.1,14.7,10.7,18.5l40,23.1c3.2,1.9,6.9,2.9,10.7,2.9c3.7,0,7.4-1,10.7-2.9l40-23.1c6.6-3.8,10.7-10.9,10.7-18.5V88.4
		c0-7.6-4.1-14.7-10.7-18.5l-40-23.1C109.5,45,105.8,44,102.1,44z"/>
</g>
<g id="body-shadow_copy">
</g>
<g id="Layer_10_copy">
	<path id="body-shadow_copy_1_" fill="#D1D3D4" d="M163.4,89.4c0-7.6-4.1-14.7-10.7-18.5l-40-23.1c-3.2-1.9-6.9-2.9-10.7-2.9
		c-3.7,0-7.4,1-10.7,2.9l-40,23.1c-6.6,3.8-10.7,10.9-10.7,18.5c0-8,3.3-15.4,10.2-19.3l40-23.1c3.4-2,7.2-3,11.2-3
		c3.9,0,7.8,1,11.2,3l40,23.1C160.1,74,163.4,81.4,163.4,89.4z"/>
	<path fill="#C9C9C9" d="M102.5,168.8c-1.1,0-2.1-0.3-3.1-0.8L56,142.8c-1.9-1.1-3.1-3.1-3.1-5.3v-50c0-2.2,1.2-4.2,3.1-5.3
		l43.5-25.1c1.9-1.1,4.3-1.1,6.2,0l39.6,23l0,0c1.3,0.9,2,2.3,2.1,3.8c0.1,1.7-0.7,3.3-2.2,4.5l-18.2,10.7c-0.6,0.4-1.4,0.6-2.1,0.7
		c-0.5,0-1.1,0.1-1.6,0c-1,0-2.1-0.3-3-0.9l-15-8.7c-1.5-0.9-3.5-0.9-5,0l-15.4,8.9c-1.6,0.9-2.5,2.6-2.5,4.4v17.9
		c0,1.8,1,3.5,2.5,4.4l15.4,8.9c1.5,0.9,3.5,0.9,5,0l15-8.7c0.9-0.5,2-0.8,3-0.9c0.5,0,1.1,0,1.6,0c0.7,0.1,1.5,0.3,2.1,0.7
		l18.2,10.7c1.5,1.2,2.4,2.9,2.3,4.6c-0.1,1.5-0.8,2.9-2.1,3.8l0,0l-0.2,0.1l-39.4,22.9C104.7,168.5,103.6,168.8,102.5,168.8z
		 M102.5,57.3c-0.9,0-1.8,0.2-2.6,0.7L56.5,83c-1.6,0.9-2.6,2.6-2.6,4.5v50c0,1.8,1,3.5,2.6,4.5l43.5,25.1c1.6,0.9,3.6,0.9,5.2,0
		l39.3-22.9c1.1-0.8,1.8-1.9,1.8-3.2c0.1-1.4-0.6-2.7-1.9-3.7l-18.1-10.6c-0.5-0.3-1.1-0.5-1.7-0.5c-0.5,0-1,0-1.5,0
		c-0.9,0-1.8,0.3-2.5,0.7l-15,8.7c-1.8,1.1-4.2,1.1-6,0l-15.4-8.9c-1.9-1.1-3-3.1-3-5.2v-17.9c0-2.2,1.2-4.2,3-5.2l15.4-8.9
		c1.8-1.1,4.2-1.1,6,0l15,8.7c0.8,0.4,1.7,0.7,2.5,0.7c0.5,0,1,0,1.5,0c0.6,0,1.2-0.2,1.7-0.5l18.2-10.7c1.2-0.9,1.9-2.3,1.8-3.6
		c-0.1-1.3-0.7-2.4-1.8-3.2l-0.1-0.1l-39.2-22.8C104.3,57.5,103.4,57.3,102.5,57.3z"/>
	<g>
		<radialGradient id="SVGID_2_" cx="100.0956" cy="111.5069" r="51.4249" gradientUnits="userSpaceOnUse">
			<stop  offset="0.7143" style="stop-color:#42B659"/>
			<stop  offset="0.9852" style="stop-color:#3EAF56"/>
		</radialGradient>
		<path fill="url(#SVGID_2_)" d="M81.6,120.3v-17.7c0-2,1.1-3.8,2.8-4.8l15.4-8.9c1.7-1,3.8-1,5.5,0l15.1,8.7
			c0.8,0.5,1.8,0.8,2.8,0.8c0.5,0,1.1,0,1.5,0c0.7-0.1,1.3-0.3,1.9-0.6L144.7,87c2.9-2.3,2.6-5.9,0-7.7c0,0,0,0,0,0l-39.4-22.9
			c-1.8-1-3.9-1-5.7,0L56.2,81.6c-1.8,1-2.8,2.9-2.8,4.9v50c0,2,1.1,3.9,2.8,4.9l43.5,25.1c1.8,1,3.9,1,5.7,0l39.4-22.9c0,0,0,0,0,0
			c2.6-1.7,2.9-5.4,0-7.7l-18.2-10.7c-0.6-0.3-1.2-0.5-1.9-0.6c-0.5,0-1,0-1.5,0c-1,0-1.9,0.3-2.8,0.8l-15.1,8.7c-1.7,1-3.8,1-5.5,0
			l-15.4-8.9c-1.7-1-2.8-2.8-2.8-4.8V120.3z"/>
		<linearGradient id="SVGID_3_" gradientUnits="userSpaceOnUse" x1="100.0956" y1="167.7612" x2="100.0956" y2="55.2678">
			<stop  offset="2.463054e-002" style="stop-color:#359C4C"/>
			<stop  offset="0.9803" style="stop-color:#309247"/>
		</linearGradient>
		<path fill="url(#SVGID_3_)" d="M102.5,167.8c-1.1,0-2.1-0.3-3.1-0.8L56,141.8c-1.9-1.1-3.1-3.1-3.1-5.3v-50c0-2.2,1.2-4.2,3.1-5.3
			l43.5-25.1c1.9-1.1,4.3-1.1,6.2,0l39.6,23l0,0c1.3,0.9,2,2.3,2.1,3.8c0.1,1.7-0.7,3.3-2.2,4.5l-18.2,10.7
			c-0.6,0.4-1.4,0.6-2.1,0.7c-0.5,0-1.1,0.1-1.6,0c-1,0-2.1-0.3-3-0.9l-15-8.7c-1.5-0.9-3.5-0.9-5,0l-15.4,8.9
			c-1.6,0.9-2.5,2.6-2.5,4.4v17.9c0,1.8,1,3.5,2.5,4.4l15.4,8.9c1.5,0.9,3.5,0.9,5,0l15-8.7c0.9-0.5,2-0.8,3-0.9c0.5,0,1.1,0,1.6,0
			c0.7,0.1,1.5,0.3,2.1,0.7l18.2,10.7c1.5,1.2,2.4,2.9,2.3,4.6c-0.1,1.5-0.8,2.9-2.1,3.8l0,0l-0.2,0.1l-39.4,22.9
			C104.7,167.5,103.6,167.8,102.5,167.8z M102.5,56.3c-0.9,0-1.8,0.2-2.6,0.7L56.5,82c-1.6,0.9-2.6,2.6-2.6,4.5v50
			c0,1.8,1,3.5,2.6,4.5l43.5,25.1c1.6,0.9,3.6,0.9,5.2,0l39.3-22.9c1.1-0.8,1.8-1.9,1.8-3.2c0.1-1.4-0.6-2.7-1.9-3.7l-18.1-10.6
			c-0.5-0.3-1.1-0.5-1.7-0.5c-0.5,0-1,0-1.5,0c-0.9,0-1.8,0.3-2.5,0.7l-15,8.7c-1.8,1.1-4.2,1.1-6,0l-15.4-8.9c-1.9-1.1-3-3.1-3-5.2
			v-17.9c0-2.2,1.2-4.2,3-5.2l15.4-8.9c1.8-1.1,4.2-1.1,6,0l15,8.7c0.8,0.4,1.7,0.7,2.5,0.7c0.5,0,1,0,1.5,0c0.6,0,1.2-0.2,1.7-0.5
			l18.2-10.7c1.2-0.9,1.9-2.3,1.8-3.6c-0.1-1.3-0.7-2.4-1.8-3.2l-0.1-0.1l-39.2-22.8C104.3,56.5,103.4,56.3,102.5,56.3z"/>
	</g>
</g>
</svg>
