<?xml version="1.0" encoding="utf-8"?>
<!-- Generator: Adobe Illustrator 17.1.0, SVG Export Plug-In . SVG Version: 6.00 Build 0)  -->
<!DOCTYPE svg PUBLIC "-//W3C//DTD SVG 1.1//EN" "http://www.w3.org/Graphics/SVG/1.1/DTD/svg11.dtd">
<svg version="1.1" xmlns="http://www.w3.org/2000/svg" xmlns:xlink="http://www.w3.org/1999/xlink" x="0px" y="0px"
	 viewBox="0 0 800 660" enable-background="new 0 0 800 660" xml:space="preserve">
<g id="Layer_2">
	
		<radialGradient id="SVGID_1_" cx="399.9813" cy="329.9318" r="395.506" gradientTransform="matrix(0.9639 0 0 0.88 14.4759 39.66)" gradientUnits="userSpaceOnUse">
		<stop  offset="0.5" style="stop-color:#262626"/>
		<stop  offset="1" style="stop-color:#1A1A1A"/>
	</radialGradient>
	<rect fill="url(#SVGID_1_)" width="800" height="660"/>
</g>
<g id="Layer_1">
	<path fill="#FFFFFF" d="M262.6,332.2c-6-5-13.8-3.4-16.5,3.9c-2.6,7.4,1.2,15.5,8.6,18.1c7.4,2.6,15.5-1.2,18.1-8.6
		C275.5,338.3,272.6,332.7,262.6,332.2z M254.1,336.6c-2,1.1-4,1.2-4.6,0.3c-0.5-0.9,0.7-2.6,2.7-3.7c2-1.1,4-1.2,4.6-0.3
		C257.3,333.8,256.1,335.5,254.1,336.6z M290.3,336.8c-7.4-2.6-14.2,1.4-14.2,9.2s6.3,14.2,14.2,14.2c7.8,0,14.2-6.3,14.2-14.2
		S299.9,333.9,290.3,336.8z M284.9,343.5c-2,1.1-4,1.2-4.6,0.3c-0.5-0.9,0.7-2.6,2.7-3.7c2-1.1,4-1.2,4.6-0.3
		C288.1,340.8,286.9,342.5,284.9,343.5z M290,300.8c-2.2,12.5-1.8,21,1.6,31.9c0.1,0.3,0.1,0.5,0.1,0.8c-0.4,0.1-0.8,0.2-1.2,0.3
		c-1-0.3-2.1-0.5-3.1-0.6c-3.1-10.5-3.7-19-1.9-30.7c-14.8,8.9-18.7,27-18.8,27.2c0,0,0,0.1,0,0.1c-0.9-0.2-1.9-0.3-2.9-0.4
		c-0.4-0.3-0.8-0.5-1.2-0.8c0.5-2.5,5.5-22.2,23-31l2.9-3.8c0.4-0.5,1-0.5,1.5-0.2l2.7,2.1c0.5,0.4,0.5,1,0.2,1.5L290,300.8z
		 M307.5,247.6c-2.1,5.9-6.5,12-14.5,17.4c-15,10-32.4,7.7-37.4,0.9c-5-6.9-5.1-7.2-6.4-8.4c-1-1,0.5-3.5,0.5-3.5s3.4,1.5,4.8,1.5
		c1.4,0,18.3,8.2,30.5-3.6c1.5-1.4,2.7-2.8,3.7-4.2h3.7c-1,1.4-2.4,3.2-4,4.8c-3.8,3.8-8.1,5.9-7.5,6.4c0.5,0.5,5.7-0.6,9.5-4.4
		c2.2-2.2,3.6-4.9,4.2-6.8H307.5z M304.8,402.9c0,0-5.2,0.8-10.2,0.9c-1.1-1.6-3.7-2.3-5.4-4c-1.7-1.7-2.4-4.4-4-5.4
		c0.1-5,0.9-10.2,0.9-10.2s0.5-4,2.2-0.1c1.7,3.9,2.6,7,2.6,7s0.6,0.9,1.3,0.5c0.7-0.4,6.9-5.3,8.7-3.6c0,0,0,0,0,0c0,0,0,0,0,0
		c0,0,0,0,0,0c0,0,0,0,0,0c1.7,1.8-3.2,8-3.6,8.7c-0.4,0.7,0.5,1.3,0.5,1.3s3.1,0.9,7,2.6C308.8,402.5,304.8,402.9,304.8,402.9z
		 M298.6,412.1c-2.4-4.2-6.3-7.9-11-10.6c-6.3-11.1-19-18.6-29.1-8.5c-2.8,2.8-6.1,6.5-7.5,11.3c-0.7,2.6-1.5,5.1-2.2,7.7H298.6z
		 M263.5,395.2c3-2.5,6.3-3.4,7.4-2c1.1,1.3-0.4,4.4-3.4,6.9c-3,2.5-6.3,3.4-7.4,2C259,400.8,260.5,397.7,263.5,395.2z M387.7,332.2
		c-6-5-13.8-3.4-16.5,3.9c-2.6,7.4,1.2,15.5,8.6,18.1c7.4,2.6,15.5-1.2,18.1-8.6C400.6,338.3,397.7,332.7,387.7,332.2z M379.2,336.6
		c-2,1.1-4,1.2-4.6,0.3c-0.5-0.9,0.7-2.6,2.7-3.7c2-1.1,4-1.2,4.6-0.3C382.4,333.8,381.2,335.5,379.2,336.6z M415.4,336.8
		c-7.4-2.6-14.2,1.4-14.2,9.2s6.3,14.2,14.2,14.2c7.8,0,14.2-6.3,14.2-14.2S425,333.9,415.4,336.8z M410,343.5c-2,1.1-4,1.2-4.6,0.3
		c-0.5-0.9,0.7-2.6,2.7-3.7c2-1.1,4-1.2,4.6-0.3C413.2,340.8,412,342.5,410,343.5z M415.1,300.8c-2.2,12.5-1.8,21,1.6,31.9
		c0.1,0.3,0.1,0.5,0.1,0.8c-0.4,0.1-0.8,0.2-1.2,0.3c-1-0.3-2.1-0.5-3.1-0.6c-3.1-10.5-3.7-19-1.9-30.7c-14.8,8.9-18.7,27-18.8,27.2
		c0,0,0,0.1,0,0.1c-0.9-0.2-1.9-0.3-2.9-0.4c-0.4-0.3-0.8-0.5-1.2-0.8c0.5-2.5,5.5-22.2,23-31l2.9-3.8c0.4-0.5,1-0.5,1.5-0.2
		l2.7,2.1c0.5,0.4,0.5,1,0.2,1.5L415.1,300.8z M432.6,247.6c-2.1,5.9-6.5,12-14.5,17.4c-15,10-32.4,7.7-37.4,0.9
		c-5-6.9-5.1-7.2-6.4-8.4c-1-1,0.5-3.5,0.5-3.5s3.4,1.5,4.8,1.5s18.3,8.2,30.5-3.6c1.5-1.4,2.7-2.8,3.7-4.2h3.7
		c-1,1.4-2.4,3.2-4,4.8c-3.9,3.8-8.1,5.9-7.5,6.4s5.7-0.6,9.5-4.4c2.2-2.2,3.6-4.9,4.2-6.8H432.6z M429.9,402.9
		c0,0-5.2,0.8-10.2,0.9c-1.1-1.6-3.7-2.3-5.4-4c-1.7-1.7-2.4-4.4-4-5.4c0.1-5,0.9-10.2,0.9-10.2s0.5-4,2.2-0.1c1.7,3.9,2.6,7,2.6,7
		s0.6,0.9,1.3,0.5c0.7-0.4,6.9-5.3,8.7-3.6c0,0,0,0,0,0c0,0,0,0,0,0c0,0,0,0,0,0c0,0,0,0,0,0c1.7,1.8-3.2,8-3.6,8.7
		c-0.4,0.7,0.5,1.3,0.5,1.3s3.1,0.9,7,2.6C433.9,402.5,429.9,402.9,429.9,402.9z M423.7,412.1c-2.4-4.2-6.3-7.9-11-10.6
		c-6.3-11.1-19-18.6-29.1-8.5c-2.8,2.8-6.1,6.5-7.5,11.3c-0.7,2.6-1.5,5.1-2.2,7.7H423.7z M388.6,395.2c3-2.5,6.3-3.4,7.4-2
		c1.1,1.3-0.4,4.4-3.4,6.9c-3,2.5-6.3,3.4-7.4,2C384.1,400.8,385.6,397.7,388.6,395.2z M512.8,332.2c-6-5-13.8-3.4-16.5,3.9
		c-2.6,7.4,1.2,15.5,8.6,18.1c7.4,2.6,15.5-1.2,18.1-8.6C525.7,338.3,522.8,332.7,512.8,332.2z M504.3,336.6c-2,1.1-4,1.2-4.6,0.3
		c-0.5-0.9,0.7-2.6,2.7-3.7c2-1.1,4-1.2,4.6-0.3C507.6,333.8,506.3,335.5,504.3,336.6z M540.5,336.8c-7.4-2.6-14.2,1.4-14.2,9.2
		s6.3,14.2,14.2,14.2c7.8,0,14.2-6.3,14.2-14.2S550.1,333.9,540.5,336.8z M535.1,343.5c-2,1.1-4,1.2-4.6,0.3
		c-0.5-0.9,0.7-2.6,2.7-3.7c2-1.1,4-1.2,4.6-0.3C538.3,340.8,537.1,342.5,535.1,343.5z M540.2,300.8c-2.2,12.5-1.8,21,1.6,31.9
		c0.1,0.3,0.1,0.5,0.1,0.8c-0.4,0.1-0.8,0.2-1.2,0.3c-1-0.3-2.1-0.5-3.1-0.6c-3.1-10.5-3.7-19-1.9-30.7c-14.8,8.9-18.7,27-18.8,27.2
		c0,0,0,0.1,0,0.1c-0.9-0.2-1.9-0.3-2.9-0.4c-0.4-0.3-0.8-0.5-1.2-0.8c0.5-2.5,5.5-22.2,23-31l2.9-3.8c0.4-0.5,1-0.5,1.5-0.2
		l2.7,2.1c0.5,0.4,0.5,1,0.2,1.5L540.2,300.8z M557.7,247.6c-2.1,5.9-6.5,12-14.5,17.4c-15,10-32.4,7.7-37.4,0.9
		c-5-6.9-5.1-7.2-6.4-8.4c-1-1,0.5-3.5,0.5-3.5s3.4,1.5,4.8,1.5c1.4,0,18.3,8.2,30.5-3.6c1.5-1.4,2.7-2.8,3.7-4.2h3.7
		c-1,1.4-2.4,3.2-4,4.8c-3.8,3.8-8.1,5.9-7.5,6.4c0.5,0.5,5.7-0.6,9.5-4.4c2.2-2.2,3.6-4.9,4.2-6.8H557.7z M555,402.9
		c0,0-5.2,0.8-10.2,0.9c-1.1-1.6-3.7-2.3-5.4-4c-1.7-1.7-2.4-4.4-4-5.4c0.1-5,0.9-10.2,0.9-10.2s0.5-4,2.2-0.1c1.7,3.9,2.6,7,2.6,7
		s0.6,0.9,1.3,0.5c0.7-0.4,6.9-5.3,8.7-3.6c0,0,0,0,0,0c0,0,0,0,0,0c0,0,0,0,0,0c0,0,0,0,0,0c1.7,1.8-3.2,8-3.6,8.7
		c-0.4,0.7,0.5,1.3,0.5,1.3s3.1,0.9,7,2.6C559,402.5,555,402.9,555,402.9z M548.8,412.1c-2.4-4.2-6.4-7.9-11-10.6
		c-6.3-11.1-19-18.6-29.1-8.5c-2.8,2.8-6.1,6.5-7.5,11.3c-0.7,2.6-1.5,5.1-2.2,7.7H548.8z M513.7,395.2c3-2.5,6.3-3.4,7.4-2
		c1.1,1.3-0.4,4.4-3.4,6.9c-3,2.5-6.3,3.4-7.4,2C509.2,400.8,510.7,397.7,513.7,395.2z M604.9,213.2H195.1c-8.9,0-16,7-16,15.6
		v202.5c0,8.6,7.2,15.6,16,15.6h409.8c8.9,0,16-7,16-15.6V228.8C620.9,220.2,613.8,213.2,604.9,213.2z M191,342.4v-24.9l21.5,12.4
		L191,342.4z M328.1,402.2c0,12-7.5,21.7-16.7,21.7h-73.1c-9.2,0-16.7-9.7-16.7-21.7V257.8c0-12,7.5-21.7,16.7-21.7h73.1
		c9.2,0,16.7,9.7,16.7,21.7L328.1,402.2L328.1,402.2z M453.2,402.2c0,12-7.5,21.7-16.6,21.7h-73.1c-9.2,0-16.6-9.7-16.6-21.7V257.8
		c0-12,7.5-21.7,16.6-21.7h73.1c9.2,0,16.6,9.7,16.6,21.7L453.2,402.2L453.2,402.2z M578.3,402.2c0,12-7.5,21.7-16.6,21.7h-73.1
		c-9.2,0-16.7-9.7-16.7-21.7V257.8c0-12,7.5-21.7,16.7-21.7h73.1c9.2,0,16.6,9.7,16.6,21.7V402.2z M609,342.4L587.4,330l21.5-12.4
		V342.4z"/>
</g>
</svg>
