<?xml version="1.0" encoding="utf-8"?>
<!-- Generator: Adobe Illustrator 17.1.0, SVG Export Plug-In . SVG Version: 6.00 Build 0)  -->
<!DOCTYPE svg PUBLIC "-//W3C//DTD SVG 1.1//EN" "http://www.w3.org/Graphics/SVG/1.1/DTD/svg11.dtd">
<svg version="1.1" xmlns="http://www.w3.org/2000/svg" xmlns:xlink="http://www.w3.org/1999/xlink" x="0px" y="0px"
	 viewBox="0 0 800 660" enable-background="new 0 0 800 660" xml:space="preserve">
<g id="Layer_2">
		<radialGradient id="light_1_" cx="399.9813" cy="329.9318" r="395.506" gradientTransform="matrix(0.9639 0 0 0.88 14.4759 39.66)" gradientUnits="userSpaceOnUse">
		<stop  offset="0.5" style="stop-color:#FFFFFF"/>
		<stop  offset="1" style="stop-color:#D9D9D9"/>
	</radialGradient>
	<rect id="light" fill="url(#light_1_)" width="800" height="660"/>
</g>

<g id="devs">
	<path id="igt" fill="#005AA0" d="M203.3,202.9h-49.8v-38.9h49.8V202.9z M203.3,222.6h-49.8v193.8h49.8V222.6z M464.2,223.1v217.1
		c0,38.9-35.5,55.7-68.6,55.7h-88.9l-28.9-47.7c0,0,113.2,0,119.3,0c6,0,17.9-1.7,17.9-14c0-7.5,0-18.2,0-18.2s-90.7,0-115.8,0
		c-38.9,0-65.6-24.9-65.6-48.1v-94.4c0-34.7,41.8-51,62.7-51L464.2,223.1z M414.6,270.3h-118c-7.7,0-14.1,6.3-14.1,14.1v70.7
		c0,7.7,6.3,14.1,14.1,14.1h118V270.3z M645.7,272.4l18.8-49.6H543v-58.7h-49.4c0,0,0,157.3,0,202.3c0,21.1,22.5,50,67.6,50
		c8.8,0,29.2,0,29.2,0l18-47.2c0,0-37.3-0.1-51.3,0c-7.3,0.1-14.1-5.5-14-12.8c0.1-20.5,0-84,0-84H645.7z M617,391.5
		c-4.7,0-8.5,3.6-8.5,8c0,4.6,3.8,8.1,8.5,8.1c4.8,0,8.4-3.6,8.4-8.1C625.4,395.1,621.8,391.5,617,391.5z M617,393.1
		c3.7,0,6.3,2.9,6.3,6.5c0,3.5-2.7,6.4-6.3,6.4c-3.7,0-6.4-2.8-6.4-6.4C610.6,396,613.3,393.1,617,393.1z M615.7,400.6h0.9
		c1.1,0,1.6,0.4,1.7,1.3c0.3,0.9,0.4,1.7,0.7,2h2.1c-0.2-0.3-0.4-0.8-0.6-2c-0.3-1.1-0.7-1.7-1.5-2v-0.1c1-0.3,1.7-1,1.7-1.9
		c0-0.8-0.4-1.4-0.8-1.8c-0.6-0.3-1.3-0.6-2.9-0.6c-1.4,0-2.4,0.1-3.2,0.2v8h1.9V400.6z M615.7,396.9c0.2,0,0.6-0.1,1.1-0.1
		c1.2,0,1.8,0.5,1.8,1.2c0,0.8-0.9,1.2-1.9,1.2h-0.9V396.9z"/>
</g>
</svg>
