<?xml version="1.0" encoding="utf-8"?>
<!-- Generator: Adobe Illustrator 17.1.0, SVG Export Plug-In . SVG Version: 6.00 Build 0)  -->
<!DOCTYPE svg PUBLIC "-//W3C//DTD SVG 1.1//EN" "http://www.w3.org/Graphics/SVG/1.1/DTD/svg11.dtd">
<svg version="1.1" xmlns="http://www.w3.org/2000/svg" xmlns:xlink="http://www.w3.org/1999/xlink" x="0px" y="0px"
	 viewBox="0 0 800 660" enable-background="new 0 0 800 660" xml:space="preserve">
<g id="Layer_2">
	
		<radialGradient id="SVGID_1_" cx="399.9813" cy="329.9318" r="395.506" gradientTransform="matrix(0.9639 0 0 0.88 14.4759 39.66)" gradientUnits="userSpaceOnUse">
		<stop  offset="0.5" style="stop-color:#262626"/>
		<stop  offset="1" style="stop-color:#1A1A1A"/>
	</radialGradient>
	<rect fill="url(#SVGID_1_)" width="800" height="660"/>
</g>
<g id="Layer_1">
	<path fill="#FFFFFF" d="M461.9,177.5H338.1c-13.1,0-23.8,10.7-23.8,23.8v257.3c0,13.1,10.7,23.8,23.8,23.8h123.9
		c13.1,0,23.8-10.7,23.8-23.8V201.4C485.8,188.2,475.1,177.5,461.9,177.5L461.9,177.5z M461.9,472.9H338.1
		c-7.9,0-14.3-6.4-14.3-14.3v-14.3h119.1c2.6,0,4.8-2.1,4.8-4.8c0-2.6-2.1-4.8-4.8-4.8H323.8V225.2h119.1c2.6,0,4.8-2.1,4.8-4.8
		c0-2.6-2.1-4.8-4.8-4.8H323.8v-14.3c0-7.9,6.4-14.3,14.3-14.3h123.9c7.9,0,14.3,6.4,14.3,14.3v14.3h-14.3c-2.6,0-4.8,2.1-4.8,4.8
		c0,2.6,2.1,4.8,4.8,4.8h14.3v209.6h-14.3c-2.6,0-4.8,2.1-4.8,4.8c0,2.6,2.1,4.8,4.8,4.8h14.3v14.3
		C476.2,466.5,469.8,472.9,461.9,472.9L461.9,472.9z M461.9,472.9 M409.5,196.6h-19.1c-2.6,0-4.8,2.1-4.8,4.8c0,2.6,2.1,4.8,4.8,4.8
		h19.1c2.6,0,4.8-2.1,4.8-4.8C414.3,198.7,412.2,196.6,409.5,196.6L409.5,196.6z M409.5,196.6 M376.2,196.6c-1.3,0-2.5,0.5-3.4,1.4
		c-0.9,0.9-1.4,2.1-1.4,3.4c0,1.3,0.5,2.5,1.4,3.4c0.9,0.9,2.1,1.4,3.4,1.4c1.3,0,2.5-0.5,3.4-1.4c0.9-0.9,1.4-2.1,1.4-3.4
		c0-1.3-0.5-2.5-1.4-3.4C378.7,197.1,377.4,196.6,376.2,196.6L376.2,196.6z M376.2,196.6 M400,449.1c-5.3,0-9.5,4.3-9.5,9.5
		c0,5.3,4.3,9.5,9.5,9.5c5.3,0,9.5-4.3,9.5-9.5C409.5,453.4,405.3,449.1,400,449.1L400,449.1z M400,449.1 M408.7,303.8h-17.3
		c-1.5,0-2.8,1.2-2.8,2.8v17.3c0,1.5,1.2,2.8,2.8,2.8h17.3c1.5,0,2.8-1.2,2.8-2.8v-17.3C411.4,305.1,410.2,303.8,408.7,303.8z
		 M404.4,317.6l1.2,6.3l-5.6-3.1l-5.6,3.1l1.2-6.3l-4.7-4.4l6.3-0.8l2.7-5.8l2.7,5.8l6.3,0.8L404.4,317.6z M378.3,303.8H361
		c-1.5,0-2.8,1.2-2.8,2.8v17.3c0,1.5,1.3,2.8,2.8,2.8h17.3c1.5,0,2.8-1.2,2.8-2.8v-17.3C381.1,305.1,379.8,303.8,378.3,303.8z
		 M374.1,317.6l1.2,6.3l-5.6-3.1l-5.6,3.1l1.2-6.3l-4.7-4.4l6.3-0.8l2.7-5.8l2.7,5.8l6.3,0.8L374.1,317.6z M439,303.8h-17.3
		c-1.5,0-2.8,1.2-2.8,2.8v17.3c0,1.5,1.2,2.8,2.8,2.8H439c1.5,0,2.8-1.2,2.8-2.8v-17.3C441.8,305.1,440.5,303.8,439,303.8z
		 M434.8,317.6l1.2,6.3l-5.6-3.1l-5.6,3.1l1.2-6.3l-4.7-4.4l6.3-0.8l2.7-5.8l2.7,5.8l6.4,0.8L434.8,317.6z M408.7,334.2h-17.3
		c-1.5,0-2.8,1.2-2.8,2.8v17.3c0,1.5,1.2,2.8,2.8,2.8h17.3c1.5,0,2.8-1.2,2.8-2.8v-17.3C411.4,335.4,410.2,334.2,408.7,334.2z
		 M404.4,348l1.2,6.3l-5.6-3.1l-5.6,3.1l1.2-6.3l-4.7-4.4l6.3-0.8l2.7-5.8l2.7,5.8l6.3,0.8L404.4,348z M378.3,334.2H361
		c-1.5,0-2.8,1.2-2.8,2.8v17.3c0,1.5,1.2,2.8,2.8,2.8h17.3c1.5,0,2.8-1.2,2.8-2.8v-17.3C381.1,335.4,379.8,334.2,378.3,334.2z
		 M374.1,348l1.2,6.3l-5.6-3.1l-5.6,3.1l1.2-6.3l-4.7-4.4l6.3-0.8l2.7-5.8l2.7,5.8l6.3,0.8L374.1,348z M439,334.2h-17.3
		c-1.5,0-2.8,1.2-2.8,2.8v17.3c0,1.5,1.2,2.8,2.8,2.8H439c1.5,0,2.8-1.2,2.8-2.8v-17.3C441.8,335.4,440.5,334.2,439,334.2z
		 M434.8,348l1.2,6.3l-5.6-3.1l-5.6,3.1l1.2-6.3l-4.7-4.4l6.3-0.8l2.7-5.8l2.7,5.8l6.4,0.8L434.8,348z M408.7,364.5h-17.3
		c-1.5,0-2.8,1.3-2.8,2.8v17.3c0,1.5,1.2,2.8,2.8,2.8h17.3c1.5,0,2.8-1.2,2.8-2.8v-17.3C411.4,365.8,410.2,364.5,408.7,364.5z
		 M404.4,378.4l1.2,6.3l-5.6-3.1l-5.6,3.1l1.2-6.3l-4.7-4.4l6.3-0.8l2.7-5.8l2.7,5.8l6.3,0.8L404.4,378.4z M378.3,364.5H361
		c-1.5,0-2.8,1.3-2.8,2.8v17.3c0,1.5,1.2,2.8,2.8,2.8h17.3c1.5,0,2.8-1.2,2.8-2.8v-17.3C381.1,365.8,379.8,364.5,378.3,364.5z
		 M374.1,378.4l1.2,6.3l-5.6-3.1l-5.6,3.1l1.2-6.3l-4.7-4.4l6.3-0.8l2.7-5.8l2.7,5.8l6.3,0.8L374.1,378.4z M439,364.5h-17.3
		c-1.5,0-2.8,1.3-2.8,2.8v17.3c0,1.5,1.2,2.8,2.8,2.8H439c1.5,0,2.8-1.2,2.8-2.8v-17.3C441.8,365.8,440.5,364.5,439,364.5z
		 M434.8,378.4l1.2,6.3l-5.6-3.1l-5.6,3.1l1.2-6.3l-4.7-4.4l6.3-0.8l2.7-5.8l2.7,5.8l6.4,0.8L434.8,378.4z M401.9,278.5h-3.4l1-3.3
		c0-0.1,0.1-0.2,0.1-0.4c0-0.2,0.1-0.4,0.2-0.6l0.2-0.7c0.1-0.3,0.1-0.5,0.2-0.8c0-0.1,0.1-0.2,0.1-0.3c0.1,0.3,0.2,0.7,0.3,1
		c0.1,0.4,0.2,0.7,0.3,1c0.1,0.3,0.2,0.5,0.2,0.7L401.9,278.5z M384.7,276.2H384v-4h0.7c0.9,0,1.5,0.2,2,0.5
		c0.4,0.3,0.6,0.8,0.6,1.5c0,0.7-0.2,1.2-0.6,1.5C386.3,276.1,385.6,276.2,384.7,276.2z M353.1,403.4h95.1c5.3,0,9.6-4.3,9.6-9.6
		V266.2c0-5.3-4.3-9.6-9.6-9.6h-95.1c-6.1,0-11,4.9-11,11v124.9C342.2,398.5,347.1,403.4,353.1,403.4z M419.8,273.9
		c0.4-1.1,0.9-2,1.5-2.8c0.7-0.8,1.5-1.4,2.5-1.8c1-0.4,2.1-0.6,3.4-0.6c0.8,0,1.7,0.1,2.5,0.3c0.8,0.2,1.6,0.5,2.4,0.9l0.2,0.1
		l-1.3,3.2l-0.2-0.1c-0.6-0.3-1.2-0.5-1.8-0.8c-1.3-0.4-2.5-0.4-3.4,0c-0.5,0.2-0.9,0.6-1.2,1c-0.3,0.5-0.6,1-0.8,1.7
		c-0.2,0.7-0.3,1.4-0.3,2.3c0,0.9,0.1,1.6,0.2,2.3c0.2,0.6,0.4,1.2,0.7,1.6c0.3,0.4,0.7,0.8,1.2,1c0.5,0.2,1.1,0.3,1.8,0.3
		c0.6,0,1.3-0.1,2-0.2c0.7-0.2,1.4-0.4,2.2-0.6l0.3-0.1v3.4l-0.1,0.1c-0.4,0.2-0.7,0.3-1.1,0.4c-0.4,0.1-0.7,0.2-1.1,0.3
		c-0.4,0.1-0.8,0.1-1.1,0.2c-0.4,0-0.8,0.1-1.3,0.1c-1.3,0-2.4-0.2-3.4-0.6c-0.9-0.4-1.7-1-2.4-1.8c-0.6-0.8-1.1-1.7-1.4-2.7
		c-0.3-1-0.4-2.2-0.4-3.5C419.3,276.1,419.5,275,419.8,273.9z M406.5,269h12.1v3.3h-4.1v13.5h-3.9v-13.5h-4.1V269z M380.1,269h4.7
		c2.1,0,3.8,0.4,4.8,1.3c1.1,0.9,1.6,2.2,1.6,3.9c0,0.6-0.1,1.1-0.2,1.6c-0.2,0.5-0.4,0.9-0.6,1.3c-0.3,0.4-0.6,0.7-0.9,1
		c-0.3,0.2-0.6,0.4-0.8,0.6c0.8,1.3,1.5,2.4,2.1,3.4c0.3,0.5,0.6,0.9,0.8,1.3l0.7,1.1c0.2,0.3,0.3,0.5,0.5,0.7l5.2-16.2h4.6
		l5.5,16.9h-4l-1.1-3.9h-5.3l-1.1,3.9h-3.3h-0.7h-3.7l-3.6-6.3H384v6.3h-3.9V269z M365.2,273.9c0.3-1.1,0.9-2,1.5-2.8
		c0.7-0.8,1.5-1.4,2.5-1.8c1-0.4,2.1-0.6,3.4-0.6c0.8,0,1.7,0.1,2.5,0.3c0.8,0.2,1.6,0.5,2.4,0.9l0.2,0.1l-1.3,3.2l-0.2-0.1
		c-0.6-0.3-1.2-0.5-1.8-0.8c-1.3-0.4-2.5-0.4-3.4,0c-0.5,0.2-0.9,0.6-1.2,1c-0.3,0.5-0.6,1-0.8,1.7c-0.2,0.7-0.3,1.4-0.3,2.3
		c0,0.9,0.1,1.6,0.2,2.3c0.2,0.6,0.4,1.2,0.7,1.6c0.3,0.4,0.7,0.8,1.2,1c0.5,0.2,1.1,0.3,1.8,0.3c0.6,0,1.3-0.1,2-0.2
		c0.7-0.1,1.4-0.4,2.2-0.6l0.3-0.1v3.4l-0.1,0.1c-0.4,0.2-0.7,0.3-1.1,0.4c-0.4,0.1-0.7,0.2-1.1,0.3c-0.4,0.1-0.8,0.1-1.1,0.2
		c-0.4,0-0.8,0.1-1.3,0.1c-1.3,0-2.4-0.2-3.4-0.6c-0.9-0.4-1.8-1-2.4-1.8c-0.6-0.8-1.1-1.7-1.4-2.7c-0.3-1.1-0.5-2.2-0.5-3.5
		C364.7,276.1,364.9,275,365.2,273.9z M352.4,284.9v-3.7l0.3,0.2c0.4,0.2,0.7,0.3,1.1,0.5c0.4,0.2,0.7,0.3,1.1,0.4
		c0.4,0.1,0.7,0.2,1.1,0.3c0.7,0.1,1.5,0.1,2,0c0.2-0.1,0.4-0.2,0.6-0.3c0.1-0.1,0.2-0.3,0.3-0.5c0.1-0.2,0.1-0.4,0.1-0.6
		c0-0.3-0.1-0.5-0.2-0.7c-0.1-0.2-0.3-0.4-0.5-0.6c-0.2-0.2-0.5-0.4-0.8-0.6c-0.3-0.2-0.7-0.4-1.1-0.6c-0.3-0.2-0.7-0.4-1.2-0.7
		c-0.4-0.3-0.9-0.6-1.3-1c-0.4-0.4-0.7-0.9-1-1.4c-0.3-0.6-0.4-1.2-0.4-2c0-0.8,0.1-1.4,0.4-2.1c0.3-0.6,0.6-1.1,1.1-1.6
		c0.5-0.4,1-0.7,1.7-1c0.7-0.2,1.4-0.3,2.2-0.3c0.4,0,0.8,0,1.2,0.1c0.4,0,0.8,0.1,1.1,0.2c0.4,0.1,0.8,0.2,1.1,0.4
		c0.4,0.1,0.8,0.3,1.2,0.5l0.2,0.1l-1.3,3.1l-0.2-0.1c-0.3-0.2-0.6-0.3-0.9-0.4c-0.3-0.1-0.6-0.2-0.8-0.3c-0.3-0.1-0.5-0.1-0.8-0.2
		c-0.3,0-0.5-0.1-0.8-0.1c-0.5,0-0.9,0.1-1.2,0.4s-0.4,0.6-0.4,1.1c0,0.2,0,0.5,0.1,0.6c0.1,0.2,0.2,0.4,0.4,0.5
		c0.2,0.2,0.5,0.4,0.8,0.5c0.3,0.2,0.7,0.4,1.2,0.7c0.6,0.3,1.1,0.6,1.6,0.9c0.5,0.3,0.9,0.7,1.3,1.1c0.4,0.4,0.6,0.9,0.8,1.4
		c0.2,0.5,0.3,1.1,0.3,1.8c0,0.8-0.1,1.5-0.4,2.1c-0.3,0.6-0.6,1.1-1.2,1.6c-0.5,0.4-1.1,0.8-1.9,1c-0.7,0.2-1.6,0.4-2.5,0.4
		c-0.8,0-1.6-0.1-2.3-0.3c-0.7-0.2-1.5-0.4-2.1-0.8L352.4,284.9z M447.4,386.7c0,3.5-2.8,6.3-6.4,6.3h-82.1c-3.5,0-6.4-2.8-6.4-6.3
		v-82.2c0-3.5,2.8-6.3,6.4-6.3h82.1c3.5,0,6.4,2.8,6.4,6.3V386.7z M447.6,285.8h-3.9v-7.1h-5.1v7.1h-3.9V269h3.9v6.4h5.1V269h3.9
		V285.8z"/>
</g>
</svg>
