<?xml version="1.0" encoding="utf-8"?>
<!-- Generator: Adobe Illustrator 17.1.0, SVG Export Plug-In . SVG Version: 6.00 Build 0)  -->
<!DOCTYPE svg PUBLIC "-//W3C//DTD SVG 1.1//EN" "http://www.w3.org/Graphics/SVG/1.1/DTD/svg11.dtd">
<svg version="1.1" xmlns="http://www.w3.org/2000/svg" xmlns:xlink="http://www.w3.org/1999/xlink" x="0px" y="0px"
	 viewBox="0 0 800 660" enable-background="new 0 0 800 660" xml:space="preserve">
<g id="Layer_2">
	
		<radialGradient id="SVGID_1_" cx="399.9813" cy="329.9318" r="395.506" gradientTransform="matrix(0.9639 0 0 0.88 14.4759 39.66)" gradientUnits="userSpaceOnUse">
		<stop  offset="0.5" style="stop-color:#262626"/>
		<stop  offset="1" style="stop-color:#1A1A1A"/>
	</radialGradient>
	<rect fill="url(#SVGID_1_)" width="800" height="660"/>
</g>
<g id="Layer_1">
	<path id="online-blackjack" fill="#FFFFFF" d="M361.7,321.5c-4.4-3.8-10.2-6-16.2-6c-13.5,0-24.5,10.8-24.5,24.1
		c0,25.8,36.8,46.4,38.4,47.3c0.7,0.4,1.5,0.6,2.3,0.6c0.8,0,1.6-0.2,2.3-0.6c1.6-0.9,38.4-21.5,38.4-47.3c0-13.3-11-24.1-24.5-24.1
		C371.9,315.5,366.1,317.7,361.7,321.5z M392.8,339.6c0,15.4-20.7,31.2-31.1,37.5c-10.5-6.3-31.1-22-31.1-37.5
		c0-8,6.7-14.5,14.9-14.5c4.9,0,9.5,2.4,12.3,6.3c0.9,1.3,2.4,2,3.9,2c1.6,0,3-0.8,3.9-2c2.8-4,7.4-6.3,12.3-6.3
		C386.1,325.1,392.8,331.6,392.8,339.6z M498.3,176.5H378.4c-13.2,0-24,10.8-24,24v14.4h-52.7c-13.2,0-24,10.8-24,24v220.8
		c0,13.2,10.8,24,24,24h119.9c13.2,0,24-10.8,24-24v-14.4h52.7c13.2,0,24-10.8,24-24V200.4C522.3,187.2,511.5,176.5,498.3,176.5z
		 M436,248.3c0,0,0,0.1,0,0.1v28.7c0,0,0,0,0,0v28.8c0,0,0,0,0,0v28.8c0,0,0,0,0,0v28.8c0,0,0,0,0,0v28.8c0,0,0,0,0,0v67.3
		c0,7.9-6.5,14.4-14.4,14.4H301.7c-7.9,0-14.4-6.5-14.4-14.4V238.8c0-7.9,6.5-14.4,14.4-14.4h57.5c0,0,0,0,0,0s0,0,0,0h23.9
		c0,0,0,0,0,0c0,0,0,0,0,0h38.3c7.9,0,14.4,6.5,14.4,14.4V248.3L436,248.3z M388,214.8V210h7.6l4.8,4.8H388z M409.2,210h15.2
		l6.8,6.8c-2.9-1.3-6.2-2-9.6-2H414L409.2,210z M438,210h15.2l35.5,35.5v15.2L438,210z M466.7,210h22v22L466.7,210z M443.5,229.2
		l45.2,45.2v15.2l-43.1-43.1v-7.6C445.6,235.4,444.8,232.1,443.5,229.2z M445.6,390.2V375l36.4,36.4h-15.2L445.6,390.2z
		 M453.1,411.4h-7.6v-7.6L453.1,411.4z M445.6,361.5v-15.2l43.1,43.1v15.2L445.6,361.5z M445.6,332.7v-15.2l43.1,43.1v15.2
		L445.6,332.7z M445.6,303.9v-15.2l43.1,43.1v15.2L445.6,303.9z M445.6,275.2V260l43.1,43.1v15.2L445.6,275.2z M512.7,421.2
		c0,7.9-6.5,14.4-14.4,14.4h-52.7V421h47.9c0.2,0,0.3,0,0.5,0c0.1,0,0.1,0,0.2,0c0.1,0,0.2,0,0.3,0c0.1,0,0.2,0,0.2-0.1
		c0.1,0,0.1,0,0.2-0.1c0.1,0,0.2-0.1,0.2-0.1c0.1,0,0.1,0,0.2-0.1c0.1,0,0.1-0.1,0.2-0.1c0.1,0,0.1-0.1,0.2-0.1
		c0.1,0,0.1-0.1,0.2-0.1c0.1,0,0.1-0.1,0.2-0.1c0.1,0,0.1-0.1,0.2-0.2c0.1,0,0.1-0.1,0.2-0.1c0.2-0.2,0.5-0.4,0.7-0.7
		c0-0.1,0.1-0.1,0.1-0.2c0.1-0.1,0.1-0.1,0.2-0.2c0-0.1,0.1-0.1,0.1-0.2c0-0.1,0.1-0.1,0.1-0.2c0-0.1,0.1-0.1,0.1-0.2
		c0-0.1,0.1-0.1,0.1-0.2c0-0.1,0.1-0.1,0.1-0.2c0-0.1,0.1-0.1,0.1-0.2c0-0.1,0-0.1,0.1-0.2c0-0.1,0-0.2,0.1-0.2c0-0.1,0-0.2,0-0.3
		c0-0.1,0-0.1,0-0.2c0-0.2,0-0.3,0-0.5v-28.8c0,0,0,0,0,0v-28.8c0,0,0,0,0,0v-28.8c0,0,0,0,0,0v-28.8c0,0,0,0,0,0v-28.8c0,0,0,0,0,0
		v-28.8c0,0,0,0,0,0v-38.4c0-2.6-2.1-4.8-4.8-4.8h-38.4h0h-57.5h0h-14.4c-2.6,0-4.8,2.1-4.8,4.8v9.6H364v-14.4
		c0-7.9,6.5-14.4,14.4-14.4h119.9c7.9,0,14.4,6.5,14.4,14.4L512.7,421.2L512.7,421.2z M306.2,278.8l2.4-6.5h14.9l2.4,6.5
		c0.7,1.9,2.6,3.1,4.5,3.1c0.6,0,1.1-0.1,1.7-0.3c2.5-0.9,3.7-3.7,2.8-6.2l-14.4-38.4c0,0,0-0.1-0.1-0.1c0-0.1-0.1-0.2-0.1-0.2
		c0-0.1-0.1-0.1-0.1-0.2c0-0.1-0.1-0.1-0.1-0.2c0-0.1-0.1-0.1-0.1-0.2c0-0.1-0.1-0.1-0.1-0.2c0-0.1-0.1-0.1-0.2-0.2
		c0-0.1-0.1-0.1-0.1-0.2c-0.1-0.1-0.1-0.1-0.2-0.2c-0.1-0.1-0.1-0.1-0.2-0.2c-0.1,0-0.1-0.1-0.2-0.1c-0.1-0.1-0.1-0.1-0.2-0.2
		c-0.1,0-0.1-0.1-0.2-0.1c-0.1,0-0.1-0.1-0.2-0.1c-0.1,0-0.1-0.1-0.2-0.1c-0.1,0-0.1-0.1-0.2-0.1c-0.1,0-0.2-0.1-0.2-0.1
		c0,0-0.1,0-0.1-0.1c0,0,0,0-0.1,0c-0.1,0-0.2-0.1-0.3-0.1c-0.1,0-0.1,0-0.2-0.1c-0.1,0-0.2,0-0.3-0.1c-0.1,0-0.1,0-0.2,0
		c-0.1,0-0.2,0-0.3,0c-0.1,0-0.1,0-0.2,0c-0.1,0-0.2,0-0.3,0c-0.1,0-0.1,0-0.2,0c-0.1,0-0.2,0-0.3,0c-0.1,0-0.1,0-0.2,0
		c-0.1,0-0.2,0-0.2,0c-0.1,0-0.1,0-0.2,0c-0.1,0-0.1,0-0.2,0.1c-0.1,0-0.2,0-0.2,0.1c0,0,0,0-0.1,0c-0.1,0-0.1,0-0.1,0.1
		c-0.1,0-0.1,0.1-0.2,0.1c-0.1,0-0.1,0.1-0.2,0.1c-0.1,0-0.1,0.1-0.2,0.1c-0.1,0-0.1,0.1-0.2,0.1c-0.1,0-0.1,0.1-0.2,0.1
		c-0.1,0.1-0.1,0.1-0.2,0.2c-0.1,0-0.1,0.1-0.2,0.1c-0.1,0.1-0.1,0.1-0.2,0.2c-0.1,0.1-0.1,0.1-0.2,0.2c-0.1,0.1-0.1,0.1-0.1,0.2
		c-0.1,0.1-0.1,0.1-0.2,0.2c0,0.1-0.1,0.1-0.1,0.2c0,0.1-0.1,0.1-0.1,0.2c0,0.1-0.1,0.1-0.1,0.2c0,0.1-0.1,0.1-0.1,0.2
		c0,0.1-0.1,0.2-0.1,0.2c0,0,0,0.1-0.1,0.1l-14.4,38.4c-0.9,2.5,0.3,5.2,2.8,6.2c0.6,0.2,1.1,0.3,1.7,0.3
		C303.7,282,305.5,280.8,306.2,278.8z M316.1,252.5l3.9,10.3h-7.7L316.1,252.5z M423.3,416.7c-2.5-0.9-5.2,0.3-6.2,2.8l-2.4,6.5
		h-14.9l-2.4-6.5c-0.9-2.5-3.7-3.7-6.2-2.8c-2.5,0.9-3.7,3.7-2.8,6.2l14.4,38.4c0,0,0,0,0,0.1c0.1,0.2,0.2,0.4,0.3,0.6
		c0,0,0,0,0,0.1c0.1,0.2,0.2,0.4,0.4,0.5c0,0,0.1,0.1,0.1,0.1c0.1,0.2,0.3,0.3,0.4,0.5c0,0,0,0,0.1,0c0.1,0.1,0.3,0.3,0.5,0.4
		c0,0,0.1,0.1,0.1,0.1c0.2,0.1,0.4,0.2,0.6,0.3c0,0,0.1,0,0.1,0c0.1,0.1,0.2,0.1,0.3,0.1c0.1,0,0.1,0,0.2,0.1c0,0,0.1,0,0.1,0
		c0.2,0.1,0.4,0.1,0.6,0.1c0,0,0.1,0,0.1,0c0.2,0,0.4,0,0.7,0h0h0c0.2,0,0.4,0,0.7,0c0,0,0.1,0,0.1,0c0.2,0,0.4-0.1,0.6-0.1
		c0,0,0.1,0,0.1,0c0.1,0,0.1,0,0.2-0.1c0.1,0,0.2-0.1,0.3-0.1c0,0,0.1,0,0.1,0c0.2-0.1,0.4-0.2,0.6-0.3c0,0,0.1-0.1,0.1-0.1
		c0.2-0.1,0.3-0.2,0.5-0.4c0,0,0,0,0.1,0c0.2-0.1,0.3-0.3,0.4-0.5c0,0,0.1-0.1,0.1-0.1c0.1-0.2,0.3-0.3,0.4-0.5c0,0,0,0,0-0.1
		c0.1-0.2,0.2-0.4,0.3-0.6c0,0,0,0,0-0.1l14.4-38.4C427,420.4,425.7,417.6,423.3,416.7z M407.2,445.9l-3.9-10.3h7.7L407.2,445.9z
		 M388,454.8c0,2.6-2.1,4.8-4.8,4.8h-76.7c-2.6,0-4.8-2.1-4.8-4.8V296.3c0-2.6,2.1-4.8,4.8-4.8s4.8,2.1,4.8,4.8V450h71.9
		C385.9,450,388,452.1,388,454.8z M335.3,243.6c0-2.6,2.1-4.8,4.8-4.8h76.7c2.6,0,4.8,2.1,4.8,4.8V402c0,2.6-2.1,4.8-4.8,4.8
		s-4.8-2.1-4.8-4.8V248.4h-71.9C337.4,248.4,335.3,246.2,335.3,243.6z"/>
</g>
</svg>
