<?xml version="1.0" encoding="utf-8"?>
<!-- Generator: Adobe Illustrator 17.1.0, SVG Export Plug-In . SVG Version: 6.00 Build 0)  -->
<!DOCTYPE svg PUBLIC "-//W3C//DTD SVG 1.1//EN" "http://www.w3.org/Graphics/SVG/1.1/DTD/svg11.dtd">
<svg version="1.1" xmlns="http://www.w3.org/2000/svg" xmlns:xlink="http://www.w3.org/1999/xlink" x="0px" y="0px"
	 viewBox="0 0 800 660" enable-background="new 0 0 800 660" xml:space="preserve">
<g id="Layer_2">
		<radialGradient id="light_1_" cx="399.9813" cy="329.9318" r="395.506" gradientTransform="matrix(0.9639 0 0 0.88 14.4759 39.66)" gradientUnits="userSpaceOnUse">
		<stop  offset="0.5" style="stop-color:#FFFFFF"/>
		<stop  offset="1" style="stop-color:#D9D9D9"/>
	</radialGradient>
	<rect id="light" fill="url(#light_1_)" width="800" height="660"/>
</g>

<g id="devs">
	<g id="playson">
		<g id="word">
			<polygon id="XMLID_1669_" fill="#282425" points="227.7,438.3 237.5,438.3 237.5,491.6 292.6,491.6 292.6,501.2 227.7,501.2 
				227.7,438.3 			"/>
			<polygon id="XMLID_1579_" fill="#282425" points="364.3,438.5 376,438.5 399.2,466.9 422.4,438.4 434.1,438.5 404.1,477.7 
				404,501.2 394.4,501.2 394.3,477.7 364.3,438.5 			"/>
			<path id="XMLID_1578_" fill="#282425" d="M434.8,447.5c0-5.2,5.6-9,11-9.1c13.1,0,43.4-0.2,45.4,0.4c4.1,1.1,7.5,4.5,8.3,8.6
				c0.4,1.9,0.3,5.9,0.3,5.9l-10.1,0c0,0,0-3.1,0-4.5c0-0.9-1.4-1-2.2-0.9c-13.6,0-27.2,0-40.8,0c-1.3-0.2-2.3,1-2.2,2.2
				c0,4.2,0,8.4,0,12.7c-0.1,1.2,0.9,2.3,2.2,2.3c14.2,0.1,28.3,0,42.5,0c5.7,0.3,10.6,5.4,10.6,11.1c0,4.6,0,9.3,0,13.9
				c-0.1,4.4-3.1,8.5-7.2,10.1c-2.3,1-33.3,0.9-46.3,0.9c-4.5-0.1-8.9-2.8-10.7-7c-1.2-2.5-0.9-8.1-0.9-8.1l9.9,0
				c0,0-0.6,4.2,1.2,5.6c14.1,0,28.2,0,42.3,0c1,0,2-0.8,1.9-1.9c0-3.7,0-7.3,0-11c0-1.3,0.2-2.8-0.6-3.9c-0.9-0.2-1.7-0.4-2.6-0.4
				c-13.5,0-26.9,0-40.4,0c-5.4,0-11.4-3.2-11.4-9.2C434.9,462.7,434.8,447.5,434.8,447.5z"/>
			<polygon id="XMLID_1577_" fill="#282425" points="576.9,438.4 588.9,438.4 632,488.3 632,438.4 642,438.5 641.8,501.2 
				630.4,501.2 586.7,451.2 586.6,501.2 576.9,501.2 576.9,438.4 			"/>
			<path id="XMLID_1706_" fill="#282425" d="M223,449.3c-0.1-5.9-5.7-10.8-11.5-10.8l-53.5,0l0,62.6l9.6,0l0.2-22.6l43.2,0.2
				c6.2,0,11.9-4.8,12-11L223,449.3z M213.1,467.4c0,1-1,1.8-2,1.8c-14,0-41.9,0-41.9,0c-0.7-0.2-1.4-0.9-1.4-1.8l0-17.8
				c0-1.2,1.3-1.7,2.4-1.7c0,0,27.3,0,40.9,0c1.2,0,2,0.9,2,2.1C213.2,455.9,213.1,461.6,213.1,467.4z"/>
			<path id="XMLID_1680_" fill="#282425" d="M363.1,449.7c0-6.1-4.2-11.3-8.5-11.3h-45.5c-5.8,0.1-11.1,5.1-11.1,11
				c0,17.2,0,51.7,0,51.7l9.8,0l0.1-21.9h45.4v17.1l0.2,4.8l9.5,0l0.2-12.4C363.1,488.8,363.1,462.7,363.1,449.7z M353.2,469.7
				l-45.4,0c0,0,0-13.1,0-19.6c-0.2-1.2,0.9-2.3,2.1-2.2c13.8,0,27.5,0,41.3,0c1.2-0.1,2.1,1.1,2,2.2
				C353.2,456.6,353.2,469.7,353.2,469.7z"/>
			<path id="XMLID_1677_" fill="#282425" d="M570.6,487.6c0-8-0.1-34.7-0.1-40c0-5-5.8-9-11-9.1c-12.9,0-39.8,0-42.5,0
				c-5,0-11.4,6-11.4,10.4c0,5.9,0,33.4,0,41.3c0.1,6,5.6,10.9,11.4,11c14,0,28,0,42.1,0c4.7-0.1,9.4-3.1,11-7.6
				C570.8,491.6,570.6,489.6,570.6,487.6z M559.6,491.6c-13.5,0-29,0-43,0c-0.8,0-1.4-1-1.2-1.9c0-13.6,0-40.7,0-40.7
				c0.3-0.7,0-1.7,2.6-1.7h40.6c1.2,0,2.2,0.5,2.2,1.7c0,13.1,0,27.6,0,40.7C560.9,490.7,560.5,491.6,559.6,491.6z"/>
		</g>
		<g id="logo">
			<polygon id="XMLID_1506_" fill="#EA158E" points="272,91.3 380.9,140.9 272,190.6 			"/>
			<polygon id="XMLID_1505_" fill="#2CAFE5" points="380.9,140.9 489.4,190.4 380.9,240 			"/>
			<polygon id="XMLID_1504_" fill="#EC242A" points="272,190.6 380.9,240 272,289.3 			"/>
			<polygon id="XMLID_1503_" fill="#FEE700" points="596,239.6 489.4,289.6 489.4,190.4 			"/>
			<polygon id="XMLID_1502_" fill="#13B6A7" points="489.4,289.6 380.9,339.4 380.9,240 			"/>
			<polygon id="XMLID_1501_" fill="#FCB34B" points="380.9,339.4 272,388.7 272,289.3 			"/>
		</g>
	</g>
</g>
</svg>
