<?xml version="1.0" encoding="utf-8"?>
<!-- Generator: Adobe Illustrator 17.1.0, SVG Export Plug-In . SVG Version: 6.00 Build 0)  -->
<!DOCTYPE svg PUBLIC "-//W3C//DTD SVG 1.1//EN" "http://www.w3.org/Graphics/SVG/1.1/DTD/svg11.dtd">
<svg version="1.1" xmlns="http://www.w3.org/2000/svg" xmlns:xlink="http://www.w3.org/1999/xlink" x="0px" y="0px"
	 viewBox="0 0 800 660" enable-background="new 0 0 800 660" xml:space="preserve">
<g id="Layer_2">
	
		<radialGradient id="SVGID_1_" cx="399.9813" cy="329.9318" r="395.506" gradientTransform="matrix(0.9639 0 0 0.88 14.4759 39.66)" gradientUnits="userSpaceOnUse">
		<stop  offset="0.5" style="stop-color:#262626"/>
		<stop  offset="1" style="stop-color:#1A1A1A"/>
	</radialGradient>
	<rect fill="url(#SVGID_1_)" width="800" height="660"/>
</g>
<g id="Layer_1">
	<path id="online-roulette_5_" fill="#FFFFFF" d="M293.5,348.2c23.9,16.3,55.7,25.2,89.4,25.2s65.5-9,89.4-25.2
		c24.2-16.5,37.6-38.5,37.6-62c0-23.5-13.4-45.5-37.6-62C448.4,208,416.6,199,382.9,199s-65.5,9-89.4,25.2
		c-24.2,16.5-37.6,38.5-37.6,62C255.9,309.7,269.3,331.8,293.5,348.2z M382.9,367.9c-0.5,0-5.5-0.1-5.5-0.1l0-2.1
		c1.8,0.1,3.7,0.1,5.5,0.1c1.8,0,3.7-0.1,5.5-0.1l0,2.1C388.4,367.8,383.4,367.9,382.9,367.9z M295.5,337.7l11-2
		c1.2,1.4,2.5,2.8,3.8,4.2l-8.9,3.1C299.3,341.2,297.3,339.5,295.5,337.7z M301.3,313.8c-0.6-2.6-0.9-5.2-0.9-7.9
		c0-1.1,0.1-2.2,0.2-3.3c0.3-2.8,0.9-5.6,1.8-8.3c0.9-2.8,2.2-5.5,3.7-8.1c1.6-2.7,3.5-5.3,5.8-7.8c1.9-2.1,3.9-4.1,6.2-5.9
		c2.7-2.2,5.6-4.4,8.8-6.3c2.8-1.7,5.8-3.3,9-4.8c3.5-1.6,7.2-3.1,11-4.3c3.4-1.1,6.9-2,10.4-2.8c4-0.9,8.2-1.5,12.3-2
		c0.1,0,0.1,0,0.2,0c0.4,0,0.8-0.1,1.2-0.1v5.6c-15.6,1.7-29.8,6.9-40.4,14.8c-11.6,8.6-18,19.7-18,31.3c0,12.7,7.5,24.6,21,33.4
		c13.2,8.6,30.7,13.3,49.2,13.3c18.6,0,36-4.7,49.2-13.3c13.6-8.8,21-20.7,21-33.4c0-11.6-6.4-22.7-18-31.3
		c-10.6-7.8-24.9-13-40.4-14.8v-5.6c0.2,0,0.4,0,0.7,0.1c4.2,0.4,8.4,1.1,12.4,1.9c3.5,0.7,7.1,1.6,10.5,2.7
		c3.8,1.2,7.5,2.6,11.1,4.2c3.2,1.4,6.2,3,9,4.7c3.2,1.9,6.2,4.1,8.9,6.3c2.3,1.9,4.4,3.9,6.3,5.9c2.3,2.5,4.2,5.1,5.9,7.8
		c1.6,2.6,2.9,5.4,3.9,8.2c0.9,2.8,1.6,5.6,1.8,8.4c0.1,1.2,0.2,2.3,0.2,3.5c0,2.6-0.3,5.2-0.8,7.8c-0.6,2.9-1.7,5.9-3,8.7
		c-1.4,2.9-3.3,5.8-5.5,8.6c-2.2,2.8-4.9,5.5-7.8,8c-3.8,3.2-8.1,6.2-12.9,8.8c-3.8,2.1-7.9,3.9-12.2,5.5c-5.7,2.1-11.7,3.8-18,4.9
		c-4.8,0.9-9.8,1.5-14.9,1.8c-5.2,0.3-10.5,0.3-15.6,0c-5-0.3-10-1-14.8-1.9c-6.2-1.2-12.2-2.9-17.9-5c-4.2-1.6-8.2-3.4-12-5.5
		c-4.7-2.6-9-5.5-12.7-8.7c-2.9-2.5-5.5-5.2-7.7-7.9c-2.1-2.7-4-5.6-5.4-8.5C303,319.6,302,316.7,301.3,313.8z M382.9,274
		c0.7,0,1.4-0.1,2.1-0.2v9.4c0,1.2-0.9,2.1-2.1,2.1s-2.1-0.9-2.1-2.1v-9.4C381.5,273.9,382.2,274,382.9,274z M394.6,263.4
		c1.9,0.2,3.8,0.5,5.7,0.8l-8.7,11c-0.4-0.1-0.7-0.2-1.1-0.3v-4.1C392.8,269,394.3,266.3,394.6,263.4z M318.2,303.9
		c0-7.2,3-14,8.2-19.9l36.6,4.4c0.1,1.7,0.7,3.4,1.7,4.9L320,313.4C318.9,310.4,318.2,307.2,318.2,303.9z M359.4,265.6l9.6,12.2
		c-2.1,1.4-3.8,3.2-4.8,5.1l-32.6-3.9C338.7,273,348.3,268.4,359.4,265.6z M382.9,290.9c4.2,0,7.7-3.4,7.7-7.7v-2.3
		c0.3,0.1,0.6,0.2,0.9,0.4c3.1,1.3,5.1,3.3,5.6,5.4c0.1,0.3,0.1,0.7,0.1,1c0,2-1.4,3.5-2.5,4.5c-1.6,1.3-3.7,2.3-6.2,2.9
		c-3.5,0.9-7.6,0.9-11.1,0c-2.5-0.6-4.6-1.6-6.2-2.9c-1.2-1-2.5-2.5-2.5-4.5c0-0.4,0-0.7,0.1-1c0.5-2.1,2.6-4,5.6-5.4
		c0.3-0.1,0.6-0.2,0.9-0.4v2.3C375.2,287.4,378.7,290.9,382.9,290.9z M369,297.5c1.1,0.7,2.4,1.4,3.7,1.9l-20,40.8
		c-13.8-4.7-24.7-12.4-30.3-21.8L369,297.5z M378.2,300.9c1.5,0.2,3.1,0.4,4.7,0.4c1.6,0,3.1-0.1,4.7-0.4l20.1,41
		c-7.6,2-16,3.1-24.8,3.1c-8.8,0-17.1-1.1-24.8-3.1L378.2,300.9z M413.1,340.2l-20-40.8c1.3-0.5,2.6-1.2,3.7-1.9l46.6,21
		C437.8,327.8,426.9,335.6,413.1,340.2z M445.8,313.4L401,293.3c1-1.5,1.6-3.2,1.7-4.9l36.6-4.4c5.2,5.9,8.2,12.8,8.2,19.9
		C447.6,307.2,447,310.4,445.8,313.4z M401.6,282.9c-1-1.9-2.6-3.7-4.8-5.1l9.6-12.2c11.1,2.8,20.7,7.4,27.8,13.3L401.6,282.9z
		 M375.2,275c-0.4,0.1-0.7,0.2-1.1,0.3l-8.7-11c1.9-0.3,3.8-0.6,5.7-0.8c0.4,2.9,1.8,5.5,4.1,7.4V275z M464.4,342.9l-8.9-3.1
		c1.4-1.4,2.6-2.7,3.8-4.2l10.9,2C468.5,339.5,466.5,341.2,464.4,342.9z M394,365.3c3.6-0.3,7.3-0.8,10.8-1.4l1.2,2.3
		c-3.9,0.6-7.9,1-11.9,1.3L394,365.3z M437.1,353.1l5.5,2.8c-3.4,1.5-6.9,2.9-10.5,4.1l-2.8-3.2C432,355.7,434.6,354.5,437.1,353.1z
		 M423.8,358.9l2.5,2.9c-4.7,1.4-9.6,2.5-14.6,3.4l-1.3-2.5C415.1,361.8,419.6,360.5,423.8,358.9z M458.2,347.4
		c-2.9,2-6.1,3.8-9.3,5.5l-6.1-3.1c2.8-1.8,5.5-3.7,8-5.7l8.1,2.8C458.7,347.1,458.5,347.2,458.2,347.4z M328.7,353.1
		c2.5,1.3,5.1,2.5,7.7,3.7l-2.8,3.2c-3.6-1.2-7.1-2.6-10.5-4.1L328.7,353.1z M361,363.9c3.6,0.6,7.2,1.1,10.8,1.4l0,2.2
		c-4-0.3-8-0.7-11.9-1.2L361,363.9z M354.1,365.3c-5-0.9-9.9-2.1-14.6-3.4l2.5-2.9c4.3,1.5,8.7,2.8,13.4,3.8L354.1,365.3z
		 M315,344.1c2.5,2,5.1,3.9,8,5.7l-6.1,3.1c-3.6-1.9-6.9-3.9-10-6L315,344.1z M474.8,332.8l-11.6-2.2c0.9-1.4,1.8-2.8,2.5-4.3
		l13.8-0.1C478.1,328.5,476.5,330.7,474.8,332.8z M482.5,320.7l-14.2,0.1c0.5-1.3,0.9-2.6,1.2-3.9l15.1-1.8
		C484,317,483.3,318.9,482.5,320.7z M486.3,303.1c0,2.1-0.2,4.1-0.5,6.2l-15.3,1.8c0.2-1.7,0.3-3.5,0.3-5.2c0-0.4,0-0.9,0-1.3
		l15.4-2.9C486.3,302.2,486.3,302.7,486.3,303.1z M470.3,299c-0.2-1.3-0.5-2.7-0.9-4l14.4-5.8c0.8,2.3,1.4,4.6,1.8,7L470.3,299z
		 M467.7,289.7c-0.6-1.4-1.2-2.7-1.9-4l12.2-8c1.4,2.1,2.7,4.2,3.7,6.3L467.7,289.7z M462.9,280.9c-0.9-1.3-1.9-2.7-2.9-3.9
		l10.5-8.2c1.5,1.5,2.9,3,4.2,4.5L462.9,280.9z M456.3,272.8c-0.9-0.9-1.8-1.7-2.7-2.6l8.3-8.8c1.6,1.1,3,2.3,4.5,3.5L456.3,272.8z
		 M449.3,266.6c-1.5-1.2-3.2-2.4-4.9-3.5l6.6-8.6c2.1,1.2,4.2,2.4,6.1,3.7L449.3,266.6z M439.6,260.1c-1.4-0.8-2.9-1.6-4.5-2.4
		l5.4-8.3c1.9,0.8,3.7,1.6,5.4,2.5L439.6,260.1z M430.1,255.4c-2-0.9-4.1-1.7-6.1-2.4l4.7-7.8c2.3,0.7,4.5,1.4,6.6,2.2L430.1,255.4z
		 M418.5,251.2c-1.9-0.6-3.8-1.1-5.7-1.6l2.8-7.9c2.6,0.5,5.1,1.1,7.5,1.8L418.5,251.2z M407.2,248.4c-2.5-0.5-5.1-0.9-7.7-1.3
		l0.9-7.8c3.2,0.3,6.4,0.8,9.6,1.3L407.2,248.4z M394,246c-0.2-0.3-0.5-0.5-0.8-0.6c0.3-1.1,0.5-2.2,0.5-3.3c0-1.1-0.2-2.3-0.6-3.3
		c0.6,0,1.1,0.1,1.7,0.1L394,246z M388.1,242.1c0,1.4-0.6,2.8-1.6,3.8c-0.8,0.8-1.1,2-0.7,3.1c0.4,1.1,1.4,1.7,2.6,1.7h0.7v11.2
		c0,2.1-1.1,4.1-2.9,5.3c-0.1,0.1-0.2,0.1-0.2,0.2l0,0c-1.8,1.5-4.4,1.5-6.3,0l0,0c-0.1-0.1-0.2-0.1-0.2-0.2
		c-1.8-1.2-2.9-3.1-2.9-5.3v-11.2h0.7c1.1,0,2.2-0.7,2.6-1.7c0.4-1.1,0.2-2.3-0.6-3.1c-1-1-1.6-2.3-1.6-3.8c0-2.9,2.4-5.3,5.4-5.2
		C385.9,237,388.1,239.3,388.1,242.1z M372.6,245.4c-0.3,0.2-0.6,0.4-0.8,0.6l-0.8-7.2c0.6,0,1.1-0.1,1.7-0.1
		c-0.4,1.1-0.5,2.2-0.5,3.4C372.1,243.2,372.3,244.3,372.6,245.4z M365.4,239.4l0.9,7.8c-2.6,0.3-5.2,0.7-7.7,1.2l-2.7-7.7
		C359,240.1,362.2,239.7,365.4,239.4z M350.3,241.7l2.8,7.9c-1.9,0.5-3.9,1-5.7,1.6l-4.6-7.6C345.2,242.8,347.8,242.3,350.3,241.7z
		 M337.2,245.1l4.7,7.8c-2.1,0.7-4.1,1.6-6.1,2.4l-5.2-8C332.8,246.5,335,245.8,337.2,245.1z M325.3,249.4l5.4,8.3
		c-1.5,0.8-3,1.6-4.5,2.4l-6.3-8.2C321.6,251.1,323.4,250.2,325.3,249.4z M314.8,254.5l6.6,8.6c-1.7,1.1-3.3,2.3-4.8,3.5l-7.9-8.4
		C310.6,256.9,312.7,255.7,314.8,254.5z M304,261.4l8.3,8.8c-0.9,0.8-1.8,1.7-2.7,2.6l-10-7.8C301,263.7,302.5,262.5,304,261.4z
		 M295.4,268.7l10.4,8.2c-1.1,1.3-2,2.6-2.9,4l-11.7-7.6C292.5,271.7,293.9,270.2,295.4,268.7z M287.8,277.7l12.2,7.9
		c-0.7,1.3-1.3,2.7-1.9,4l-14-5.7C285.2,281.9,286.4,279.8,287.8,277.7z M281.9,289.2l14.4,5.8c-0.4,1.3-0.6,2.7-0.9,4l-15.4-2.9
		C280.5,293.8,281.1,291.5,281.9,289.2z M294.9,304.6c0,0.4,0,0.9,0,1.3c0,1.7,0.1,3.5,0.3,5.2l-15.3-1.8c-0.3-2-0.5-4.1-0.5-6.2
		c0-0.5,0-1,0-1.4L294.9,304.6z M296.4,316.9c0.4,1.3,0.8,2.6,1.2,3.9l-14.3-0.1c-0.8-1.8-1.5-3.7-2.1-5.6L296.4,316.9z
		 M300.1,326.4c0.8,1.4,1.6,2.9,2.5,4.3l-11.7,2.2c-1.8-2.1-3.3-4.3-4.7-6.5L300.1,326.4z M382.9,204.6c44.2,0,82.9,16,104.2,39.7
		c-25.2-19.8-63.3-31.9-104.2-31.9s-78.9,12-104.2,31.9C300,220.6,338.7,204.6,382.9,204.6z M261.8,280.7c0.9-9,5-17.5,11.4-23.9
		c23.4-23.8,64.8-38.7,109.7-38.7c45,0,86.4,14.9,109.7,38.7c6.4,6.5,10.5,14.9,11.4,23.9c0.2,1.8,0.3,3.7,0.3,5.5
		c0,6-1,11.8-2.8,17.3l-0.7-9.9c-0.1-1.5-1.4-2.7-3-2.6c-1.5,0.1-2.7,1.4-2.6,3l0.7,10.2c0.1,1.5,1.3,2.6,2.8,2.6c0.1,0,0.1,0,0.2,0
		c0.7,0,1.3-0.3,1.7-0.8c-4,10.7-11.1,20.6-20.7,29.2c7.6-9.6,12-20.5,12-32.1c0-37.6-45.4-68.3-103.4-70.2
		c-1.5-0.9-3.3-1.5-5.2-1.6c-2.2-0.1-4.3,0.5-6.1,1.6c-3.2,0.1-6.5,0.3-9.6,0.6c-5.4,0.5-10.8,1.2-16,2.3c-4.7,0.9-9.4,2-13.9,3.4
		c-4.2,1.2-8.4,2.7-12.4,4.3c-3.9,1.5-7.6,3.3-11.1,5.1c-4.1,2.1-8,4.5-11.5,7c-3.4,2.4-6.6,5-9.5,7.6c-3.2,2.9-6,6-8.4,9.2
		c-2.9,3.9-5.3,8-7.1,12.2c-2.6,6.1-3.9,12.4-3.9,18.7c0,3.1,0.3,6.2,0.9,9.3c1.6,8,5.3,15.6,10.8,22.6
		c-9.5-8.5-16.5-18.3-20.5-28.9c0.5,0.4,1,0.7,1.7,0.8c0.1,0,0.1,0,0.2,0c1.5,0,2.7-1.1,2.8-2.6l0.7-10.2c0.1-1.5-1.1-2.9-2.6-3
		c-1.5-0.1-2.9,1.1-3,2.6l-0.7,9.9c-1.8-5.6-2.8-11.4-2.8-17.3C261.5,284.4,261.6,282.5,261.8,280.7z M539.9,289.8
		c0-0.2,0-1.5,0-1.5c-0.6-26.9-17-52-46.4-70.9c-29.6-19-68.8-29.4-110.5-29.4s-81,10.5-110.5,29.4c-29.4,18.9-45.8,44-46.4,70.9
		c0,0,0,1.2,0,1.5c0,5,0.6,10,1.6,14.8c2,10.3,6,20.4,11.6,30.2c3.7,27.8,20.3,53.4,46.7,72.2c26.6,18.9,61.1,29.4,97,29.4
		s70.4-10.4,97-29.4c26.4-18.8,43-44.4,46.7-72.2c5.6-9.8,9.6-19.9,11.6-30.2C539.3,299.8,539.9,294.8,539.9,289.8z M382.9,193.6
		c83.1,0,150.8,42.8,151.4,95.5c0,4.6-0.5,9.2-1.4,13.8c-10.1,46.9-73.5,83.1-150,83.1s-139.9-36.2-150-83.1
		c-0.9-4.6-1.3-9.2-1.4-13.8C232.1,236.4,299.8,193.6,382.9,193.6z M507.1,352.2c-5,5.6-10.7,10.9-16.9,15.9
		c-29.5,23.5-67.6,36.4-107.3,36.4s-77.8-12.9-107.3-36.4c-6.2-5-11.9-10.3-16.9-15.9c4.2,3.5,8.7,6.8,13.7,10
		c29.6,19,68.8,29.4,110.5,29.4s81-10.5,110.5-29.4C498.4,359,502.9,355.7,507.1,352.2z M476.7,402.5c-25.7,18.3-59,28.3-93.8,28.3
		s-68.1-10.1-93.8-28.3c-20.8-14.8-35.2-34-41.5-55c6.8,8.9,15,17.3,24.5,24.9c30.4,24.3,69.8,37.7,110.8,37.7s80.3-13.4,110.8-37.7
		c9.6-7.6,17.8-16,24.5-24.9C511.9,368.5,497.5,387.6,476.7,402.5z M307.3,246.2c0.4,1.1,1.5,1.7,2.6,1.7c0.4,0,0.7-0.1,1.1-0.2
		c1.4-0.6,2.1-2.2,1.5-3.7l-2.8-6.6c-0.6-1.4-2.2-2.1-3.7-1.5c-1.4,0.6-2.1,2.2-1.5,3.7L307.3,246.2z M454.8,247.6
		c0.4,0.1,0.7,0.2,1.1,0.2c1.1,0,2.1-0.6,2.6-1.7l2.8-6.6c0.6-1.4-0.1-3.1-1.5-3.7c-1.4-0.6-3.1,0.1-3.7,1.5l-2.8,6.6
		C452.8,245.4,453.4,247,454.8,247.6z M378,227.3h9.8c1.5,0,2.8-1.2,2.8-2.8s-1.2-2.8-2.8-2.8H378c-1.5,0-2.8,1.2-2.8,2.8
		S376.5,227.3,378,227.3z"/>
	<path fill="#FFFFFF" d="M612.1,432.3c0,15.5-9,29-22,35.5c9.9-8,16.4-20.9,16.4-35.5c0-14.6-6.5-27.5-16.4-35.5
		C603.1,403.4,612.1,416.8,612.1,432.3z M559.3,392.9c-18.5,1.8-33.6,16.8-35.4,35.4c-2.5,25.1,18.5,46,43.5,43.5
		c18.5-1.9,33.5-16.9,35.4-35.4C605.3,411.3,584.4,390.4,559.3,392.9z M559.6,461.3c-13-1.6-23.5-12.2-25.2-25.2
		c-2.4-19.1,13.7-35.2,32.8-32.8c13,1.7,23.5,12.2,25.2,25.2C594.8,447.6,578.7,463.7,559.6,461.3z M576.5,431.6
		c-1.7-1.4-4.9-2.2-9.6-2.5l-1.4-0.1v-9.4h1c3.5,0,5.2,1.4,5.2,4.2l0,0.7h6.2v-0.9c0-3.7-0.9-6.2-2.6-7.6c-1.8-1.4-5-2-9.8-2v-3.7
		h-4.3v3.7c-5,0-8.4,0.7-10.3,2.1c-1.8,1.4-2.8,4.1-2.8,7.9c0,4,0.9,6.7,2.8,8.1c1.8,1.4,5.3,2.2,10.3,2.2v10.2l-0.9,0
		c-2.6,0-4.2-0.3-5-1c-0.7-0.7-1.1-2.2-1.1-4.5v-0.7h-6.4l0,1.3c0,3.8,0.9,6.5,2.7,8c1.8,1.5,5,2.3,9.5,2.3l1.2,0v4.2h4.3v-4.2
		l1.3,0c4.5,0,7.7-0.8,9.5-2.4c1.8-1.6,2.7-4.4,2.7-8.4C579,435.5,578.1,433,576.5,431.6z M561,429.1c-0.6,0-0.9-0.1-0.9-0.1
		c-3.8,0-5.6-1.6-5.6-4.7c0-3,1.9-4.5,5.7-4.5l0.9,0V429.1z M566.2,444.8h-0.9l0-10c2.9,0,4.8,0.3,5.7,0.9c0.9,0.6,1.4,1.9,1.4,3.8
		C572.3,443,570.3,444.8,566.2,444.8z"/>
</g>
</svg>
