<?xml version="1.0" encoding="utf-8"?>
<!-- Generator: Adobe Illustrator 17.1.0, SVG Export Plug-In . SVG Version: 6.00 Build 0)  -->
<!DOCTYPE svg PUBLIC "-//W3C//DTD SVG 1.1//EN" "http://www.w3.org/Graphics/SVG/1.1/DTD/svg11.dtd">
<svg version="1.1" xmlns="http://www.w3.org/2000/svg" xmlns:xlink="http://www.w3.org/1999/xlink" x="0px" y="0px"
	 viewBox="0 0 800 660" enable-background="new 0 0 800 660" xml:space="preserve">
<g id="Layer_2">
	
		<radialGradient id="dark_1_" cx="399.9813" cy="329.9318" r="395.506" gradientTransform="matrix(0.9639 0 0 0.88 14.4759 39.66)" gradientUnits="userSpaceOnUse">
		<stop  offset="0.5" style="stop-color:#262626"/>
		<stop  offset="1" style="stop-color:#1A1A1A"/>
	</radialGradient>
	<rect id="dark" fill="url(#dark_1_)" width="800" height="660"/>
</g>

<g id="devs">
	
	<g id="rival">
		<g id="XMLID_2759_">
			<path fill="#FFFFFF" d="M321.3,399.6c-2.9,0-7.2-0.4-9.9-0.8c-5.8-0.8-7.2-4.3-7.8-9.6c-0.8-8.4-0.8-23.8-0.8-42.7v-34.3
				c0-29.6,0-35.1,0.4-41.3c0.4-6.8,1.9-10.1,7.2-11.1c2.3-0.4,3.9-0.6,5.8-0.6c1.9,0,3.1-0.4,3.1-1.9c0-1.2-1.6-1.6-4.1-1.6
				c-7.4,0-18.9,0.6-23.8,0.6c-5.7,0-17.9-0.6-25.3-0.6c-3.1,0-4.7,0.4-4.7,1.6c0,1.6,1.2,1.9,3.1,1.9c2.3,0,4.9,0.2,7,0.8
				c4.3,1,6.2,4.3,6.6,10.9c0.4,6.2,0.4,11.7,0.4,41.3v34.3c0,18.9,0,34.3-1,42.5c-0.6,5.7-1.8,9-5.7,9.7c-1.8,0.4-4.1,0.8-7,0.8
				c-0.2,0-0.3,0-0.5,0c-0.1,0-0.2,0-0.3,0c-1.6,0-3.3-0.2-5.5-0.6c-2.9-0.6-10.9-1.9-21.8-13.3c-11.5-12.1-25-29.4-42.3-51.3
				c19.7-16,25.7-29.2,25.7-43.7c0-13.1-7.8-23-13.3-26.7c-10.5-7.2-23.6-8.4-35.9-8.4c-6,0-20.9,0.6-27.5,0.6
				c-4.1,0-16.4-0.6-26.7-0.6c-2.9,0-4.3,0.4-4.3,1.8c0,1.4,1.2,1.8,3.3,1.8c2.7,0,6,0.2,7.6,0.6c6.4,1.4,8,4.5,8.4,11.1
				c0.4,6.2,0.4,11.7,0.4,41.3v34.3c0,17.9,0,33.3-1,41.5c-0.8,5.7-1.8,9.9-5.7,10.7c-1.8,0.4-4.1,0.8-7,0.8c-2.3,0-3.1,0.6-3.1,1.6
				c0,1.4,1.4,2,3.9,2c7.8,0,20.1-0.6,23.8-0.6c2.9,0,17.4,0.6,28.7,0.6c2.5,0,3.9-0.6,3.9-2c0-1-0.8-1.6-2.3-1.6
				c-2.3,0-6.6-0.4-9.6-0.8c-5.8-0.8-7-5.1-7.6-10.7c-1-8.2-1-23.6-1-41.7v-2.7c0-1.2,0.6-1.6,1.6-1.6l17,0.4c1.4,0,2.5,0.2,3.5,1.4
				c2.5,2.9,11.5,16.2,19.3,26.9c10.9,15,18.3,24.2,26.7,28.7c5.1,2.7,9.9,3.7,20.9,3.7h18.5c0.6,0,1.1,0,1.5-0.1
				c0.4,0.1,0.9,0.1,1.4,0.1c7.8,0,20.1-0.6,24.6-0.6c5.3,0,17.5,0.6,30.4,0.6c2.1,0,3.7-0.6,3.7-2
				C324.5,400.2,323.5,399.6,321.3,399.6z M185.8,329.8c-3.5,2.5-6,3.3-13.8,3.3c-4.9,0-10.7-0.6-14.8-1.9c-1.4-0.6-1.8-1.4-1.8-3.5
				v-59.3c0-1.6,0.4-2.3,1.8-2.7c1.9-0.6,5.5-0.8,10.3-0.8c11.5,0,29.8,8,29.8,35.7C197.3,316.6,191.7,325.5,185.8,329.8z
				 M347.9,274.9c-4.5-10.7-7.8-12.9-14.8-14.8c-2.9-0.8-6-0.8-7.6-0.8c-1.8,0-2.3-0.6-2.3-1.8c0-1.6,2.1-1.8,5.1-1.8
				c10.3,0,21.4,0.6,28.3,0.6c4.9,0,14.2-0.6,24-0.6c2.3,0,4.5,0.4,4.5,1.8c0,1.4-1.2,1.8-2.9,1.8c-3.1,0-6,0.2-7.6,1.4
				c-1.4,1-1.9,2.3-1.9,4.1c0,2.5,1.8,8,4.5,15l33.5,88.5h0.8c8.4-21.4,54.6-136.3,59.5-149.2c4-10.7,3.8-15.4,17.4-14.8
				c3.3,0.1,12.5-0.6,18.3-0.6c2.5,0,4.1,0.4,4.1,1.8c0,1.4-1.2,1.8-3.1,1.8c-1.9,0-6,0-9.6,2.3c-2.5,1.8-5.5,5.1-10.7,17.5
				c-7.6,18.3-37.2,80.9-47.8,104.9c-12.5,28.5-21.6,49.7-25.9,59.5c-5.1,11.3-6.2,14.4-9,14.4c-2.5,0-3.7-2.7-7.4-11.9L347.9,274.9
				z M438.6,434.9c-1.9,4.9-7.2,20.9-13.3,20.9c-2.1,0-15.1,0.6-25.2,0.6c-2.5,0-3.7-0.4-3.7-2c0-1.2,0.8-1.6,2.3-1.6
				c1.8,0,4.5-0.2,6-0.4c9-1.2,13.8-7.8,17.7-17.5l74.4-175.6c2.3-5.7,3.5-7.8,5.5-7.8c1.8,0,2.9,1.8,4.9,6.2
				c4.7,10.7,37,90.3,49.5,119.9c7.4,17.5,13.1,20.3,17.2,21.3c2.9,0.6,5.8,0.8,8.2,0.8c1.6,0,2.5,0.2,2.5,1.6c0,1.6-1.8,2-9,2
				c-7,0-32.3,0-47.9-0.4c-3.5-0.2-5.8-0.2-5.8-1.6c0-1.2,0.8-1.6,2.7-1.8c1.4-0.4,12.7-1.9,11-6c-4.1-10.2-37.1-100.3-37.1-100.3
				c-0.2-0.8-0.4-1.8-1-1.8c-0.6,0-1,1-1.2,1.8L438.6,434.9z M628,346.6c0,25,0,38.4,4.1,41.9c3.3,2.9,8.4,4.3,23.6,4.3
				c10.3,0,17.9-0.2,22.8-5.5c2.3-2.5,4.7-8,5.1-11.7c0.2-1.8,0.6-2.9,2.1-2.9c1.4,0,1.6,1,1.6,3.3c0,2.1-1.4,16.8-2.9,22.4
				c-1.2,4.3-2.1,5.3-12.3,5.3c-14,0-24.2-0.4-32.9-0.6c-8.8-0.4-15.8-0.6-23.8-0.6c-2.1,0-6.4,0-11.1,0.2c-4.5,0-9.6,0.4-13.5,0.4
				c-2.5,0-3.9-0.6-3.9-2c0-1,0.8-1.6,3.1-1.6c2.9,0,5.3-0.4,7-0.8c3.9-0.8,4.9-5.1,5.7-10.7c1-8.2,1-23.6,1-41.5v-34.3
				c0-29.6,0-35.1-0.4-41.3c-0.4-6.6-1.9-9.7-8.4-11.1c-1.6-0.4-3.9-0.6-6.4-0.6c-2.1,0-3.3-0.4-3.3-1.8c0-1.4,1.4-1.8,4.3-1.8
				c9.2,0,21.4,0.6,26.7,0.6c4.7,0,18.9-0.6,26.5-0.6c2.7,0,4.1,0.4,4.1,1.8c0,1.4-1.2,1.8-3.5,1.8c-2.1,0-5.3,0.2-7.6,0.6
				c-5.3,1-6.8,4.3-7.2,11.1c-0.4,6.2-0.4,11.7-0.4,41.3V346.6z"/>
			<path fill="#818385" d="M404.4,406.4c-3,0-4.2-3.1-7.9-12.2l-49.1-119.1c-4.5-10.8-7.7-12.6-14.5-14.5c-2.8-0.8-6-0.8-7.5-0.8
				c-1.2,0-2.9-0.2-2.9-2.3c0-2.3,3.2-2.3,5.6-2.3c5.7,0,11.7,0.2,17,0.3c4.2,0.1,8.2,0.2,11.3,0.2c2,0,4.8-0.1,8.1-0.2
				c4.5-0.2,10.2-0.4,15.9-0.4c3.3,0,5,0.8,5,2.3c0,2.3-2.6,2.3-3.5,2.3c-2.8,0-5.8,0.1-7.3,1.3c-1.2,0.8-1.7,2-1.7,3.7
				c0,2.2,1.5,7.2,4.4,14.8l33.4,88.2h0c3.9-9.9,14.9-37.4,26.5-66.5c14.8-37,30.1-75.2,32.8-82.4c0.5-1.3,0.9-2.5,1.3-3.6
				c2.9-8.3,4.2-12.1,16.6-11.6c1.7,0.1,4.9-0.1,8.4-0.2c3.3-0.2,7.1-0.3,9.9-0.3c1.4,0,4.6,0,4.6,2.3c0,2.3-2.7,2.3-3.7,2.3
				c-1.9,0-5.9,0-9.2,2.2c-2.4,1.6-5.3,4.9-10.5,17.3c-4.2,10.2-15.3,34.1-26,57.3c-8.8,19-17.1,37-21.8,47.6
				c-7.3,16.7-13.5,30.9-18.2,41.8c-3.3,7.7-5.9,13.7-7.7,17.7l-1.1,2.4C408.4,403.8,407.3,406.4,404.4,406.4z M328.2,256.3
				c-2.8,0-4.5,0.2-4.5,1.2c0,0.7,0.1,1.2,1.8,1.2c1.5,0,4.8,0,7.7,0.8c7.5,2.1,10.8,4.6,15.2,15.1l49.1,119.1
				c3.6,9,4.8,11.6,6.9,11.6c2.2,0,3.4-2.7,7.4-11.7l1.1-2.4c1.8-4,4.4-10,7.7-17.7c4.7-10.9,10.9-25.1,18.2-41.8
				c4.7-10.7,13-28.6,21.8-47.7c10.7-23.1,21.8-47.1,26-57.2c5.1-12,8-15.8,10.9-17.8c3.7-2.4,7.9-2.4,9.9-2.4
				c2.4,0,2.6-0.6,2.6-1.2c0-0.6-0.4-1.2-3.5-1.2c-2.9,0-6.6,0.2-9.9,0.3c-3.5,0.2-6.8,0.3-8.5,0.2c-11.5-0.5-12.6,2.6-15.5,10.9
				c-0.4,1.1-0.8,2.3-1.3,3.6c-2.7,7.1-18,45.4-32.8,82.4c-11.8,29.4-22.9,57.3-26.7,66.8l-0.1,0.4h-1.5l-0.1-0.4l-33.5-88.5
				c-3-7.8-4.5-12.8-4.5-15.2c0-2,0.7-3.5,2.2-4.5c1.7-1.3,4.8-1.5,7.9-1.5c2.4,0,2.4-0.8,2.4-1.2c0-0.8-1.5-1.2-3.9-1.2
				c-5.7,0-11.3,0.2-15.9,0.4c-3.3,0.1-6.1,0.2-8.1,0.2c-3.1,0-7.1-0.1-11.3-0.2C339.8,256.5,333.9,256.3,328.2,256.3z M320.8,403.7
				c-7.9,0-15.4-0.2-21.4-0.4c-3.9-0.1-6.9-0.2-9-0.2c-1.9,0-5.3,0.1-9.1,0.2c-5.1,0.2-11,0.4-15.4,0.4c-0.5,0-0.9,0-1.4-0.1
				c-0.4,0.1-0.9,0.1-1.5,0.1h-18.5c-10.7,0-15.8-0.9-21.1-3.8c-8.2-4.4-15.5-13.2-26.9-28.8c-3.3-4.6-6.9-9.6-10-14
				c-4.2-6-7.9-11.2-9.3-12.8c-0.8-1-1.8-1.2-3.1-1.2l-17-0.4c-0.8,0-1,0.2-1,1v2.7c0,18,0,33.5,1,41.7c0.6,6.1,2,9.5,7.1,10.2
				c2.8,0.4,7.1,0.8,9.5,0.8c2.6,0,2.9,1.5,2.9,2.1c0,2.5-3.4,2.5-4.5,2.5c-7.5,0-16.4-0.3-22.4-0.4c-3-0.1-5.3-0.2-6.3-0.2
				c-1.5,0-4.5,0.1-7.9,0.2c-5,0.2-11.2,0.4-15.9,0.4c-1.1,0-4.5,0-4.5-2.5c0-2.1,2.8-2.1,3.7-2.1c2.3,0,4.6-0.3,6.9-0.8
				c3.6-0.7,4.5-5.1,5.2-10.3c1-8.1,1-23.6,1-41.5v-34.3c0-29.7,0-35.1-0.4-41.3c-0.4-6.2-1.6-9.3-7.9-10.6c-1.6-0.4-5-0.6-7.5-0.6
				c-1.2,0-3.9,0-3.9-2.3c0-2.1,2.5-2.3,4.8-2.3c6.3,0,13.3,0.2,18.9,0.4c3.5,0.1,6.2,0.2,7.8,0.2c3.4,0,8.9-0.2,14.3-0.3
				c5.3-0.1,10.2-0.3,13.2-0.3c11.8,0,25.3,1,36.2,8.5c4.7,3.2,13.5,12.9,13.5,27.2c0,16-7.6,29.1-25.5,43.8
				c2.2,2.8,4.4,5.5,6.5,8.2c14.3,18,25.5,32.2,35.5,42.7c10.5,10.9,18.4,12.5,21.3,13.1l0.2,0c2.2,0.4,3.9,0.6,5.4,0.6
				c0.1,0,0.2,0,0.3,0l0.2,0c0.1,0,0.2,0,0.4,0c2.3,0,4.6-0.3,6.9-0.8c3.2-0.6,4.6-3.1,5.2-9.3c1-8.2,1-23.3,1-42.4v-34.3
				c0-29.7,0-35.1-0.4-41.3c-0.4-6.4-2.2-9.5-6.2-10.4c-1.9-0.5-4.2-0.8-6.9-0.8c-1.1,0-3.7,0-3.7-2.5c0-1.9,2.5-2.1,5.2-2.1
				c4,0,9.2,0.2,14.3,0.3c4.3,0.1,8.4,0.3,11,0.3c2.2,0,5.8-0.1,9.6-0.2c4.7-0.2,10.1-0.3,14.2-0.3c1.4,0,4.6,0,4.6,2.1
				c0,2.5-2.6,2.5-3.7,2.5c-1.9,0-3.5,0.2-5.8,0.6c-4.6,0.9-6.3,3.5-6.8,10.6c-0.4,6.2-0.4,11.6-0.4,41.3v34.3
				c0,19.2,0,34.3,0.8,42.6c0.6,5.3,1.9,8.3,7.3,9.1c2.7,0.4,7,0.8,9.9,0.8c3,0,3.7,1.1,3.7,2.1C325,401.9,324.6,403.7,320.8,403.7z
				 M290.3,402c2.1,0,5.1,0.1,9,0.2c6,0.2,13.6,0.4,21.4,0.4c0.9,0,3.2-0.1,3.2-1.4c0-0.9-1.6-1-2.6-1c-3,0-7.3-0.4-10-0.8
				c-6-0.8-7.6-4.4-8.3-10c-0.8-8.4-0.8-23.6-0.8-42.8v-34.3c0-29.8,0-35.1,0.4-41.4c0.4-6.5,1.7-10.5,7.7-11.6
				c2.3-0.4,3.9-0.6,5.9-0.6c2.2,0,2.6-0.5,2.6-1.4c0-0.8-1.9-1-3.5-1c-4.1,0-9.5,0.2-14.2,0.3c-3.8,0.1-7.4,0.2-9.6,0.2
				c-2.6,0-6.7-0.1-11.1-0.3c-5.1-0.2-10.3-0.3-14.3-0.3c-2.8,0-4.1,0.3-4.1,1c0,0.9,0.4,1.4,2.6,1.4c2.8,0,5.2,0.3,7.2,0.8
				c4.5,1,6.6,4.4,7,11.4c0.4,6.3,0.4,11.6,0.4,41.4v34.3c0,19.2,0,34.3-1,42.6c-0.6,5.7-1.8,9.4-6.1,10.2c-2.4,0.5-4.7,0.8-7.1,0.8
				c-0.1,0-0.2,0-0.3,0l-0.2,0l-0.1,0c-0.1,0-0.1,0-0.2,0c-1.6,0-3.3-0.2-5.6-0.6l-0.2,0c-3-0.6-11.1-2.2-21.9-13.4
				c-10-10.5-21.3-24.7-35.5-42.7c-2.2-2.8-4.5-5.6-6.8-8.6l-0.3-0.4l0.4-0.3c17.9-14.5,25.5-27.5,25.5-43.2
				c0-13.8-8.5-23.2-13-26.3c-10.7-7.3-24-8.3-35.6-8.3c-2.9,0-7.9,0.1-13.1,0.3c-5.4,0.1-10.9,0.3-14.3,0.3c-1.6,0-4.3-0.1-7.8-0.2
				c-5.6-0.2-12.5-0.4-18.9-0.4c-3.4,0-3.7,0.6-3.7,1.2s0.2,1.2,2.8,1.2c2.7,0,6.1,0.2,7.7,0.6c6.9,1.5,8.4,5.1,8.8,11.6
				c0.4,6.3,0.4,11.6,0.4,41.4v34.3c0,17.9,0,33.4-1,41.6c-0.8,5.6-1.8,10.3-6.1,11.2c-2.4,0.5-4.7,0.8-7.1,0.8
				c-2.6,0-2.6,0.7-2.6,1c0,0.3,0,1.4,3.3,1.4c4.6,0,10.8-0.2,15.8-0.4c3.4-0.1,6.4-0.2,7.9-0.2c1,0,3.2,0.1,6.3,0.2
				c5.9,0.2,14.8,0.4,22.3,0.4c3.3,0,3.3-1.1,3.3-1.4c0-0.7-0.6-1-1.8-1c-2.4,0-6.8-0.4-9.6-0.8c-6.5-0.9-7.5-6-8.1-11.2
				c-1-8.2-1-23.8-1-41.8v-2.7c0-1,0.4-2.1,2.1-2.1l17,0.4c1.4,0,2.8,0.2,3.9,1.6c1.5,1.7,5.1,6.9,9.4,12.9c3.1,4.4,6.7,9.5,10,14
				c11.3,15.5,18.5,24.2,26.5,28.5c5.1,2.8,10.1,3.6,20.6,3.6h18.5c0.6,0,1.1,0,1.5-0.1l0.1,0l0.1,0c0.4,0.1,0.9,0.1,1.3,0.1
				c4.4,0,10.2-0.2,15.4-0.4C285,402.1,288.4,402,290.3,402z M172,333.7c-5.7,0-11.3-0.7-15-2c-1.8-0.8-2.1-2-2.1-4v-59.3
				c0-1.6,0.4-2.8,2.2-3.3c1.8-0.6,5.1-0.8,10.5-0.8c11.3,0,30.4,7.6,30.4,36.2c0,18.4-7.3,26.5-11.7,29.7
				C182.6,332.9,180.1,333.7,172,333.7z M167.5,265.5c-5.3,0-8.4,0.2-10.2,0.8c-1.1,0.3-1.4,0.8-1.4,2.2v59.3c0,2,0.4,2.5,1.4,3
				c3.6,1.2,9,1.9,14.6,1.9c7.8,0,10.2-0.8,13.5-3.2c4.2-3.1,11.3-10.9,11.3-28.8C196.8,272.9,178.4,265.5,167.5,265.5z
				 M400.1,456.9c-2.1,0-4.3-0.2-4.3-2.5c0-2.1,2.1-2.1,2.9-2.1c1.8,0,4.5-0.2,6-0.4c7.8-1,12.8-6,17.2-17.2L496.4,259
				c2.3-5.7,3.6-8.1,6-8.1c2.1,0,3.4,2.1,5.4,6.6c2.3,5.2,10.8,26,20.7,50.1c10.5,25.5,22.3,54.4,28.8,69.8
				c7,16.6,12.4,19.9,16.8,20.9c3.2,0.6,6.1,0.8,8.1,0.8c1.1,0,3.1,0,3.1,2.1c0,2.2-2.3,2.5-9.5,2.5c-21.5,0-37.6-0.1-47.9-0.4
				l-0.9,0c-3.3-0.2-5.5-0.3-5.5-2.1c0-1.8,1.6-2.1,3.2-2.3c0.1,0,0.5-0.1,1.1-0.2c2.3-0.5,8.3-1.7,9.5-3.8c0.2-0.4,0.2-0.8,0-1.2
				c-4.1-10.1-36.8-99.4-37.1-100.3l-0.1-0.2c-0.1-0.3-0.3-1.1-0.4-1.2c-0.1,0-0.4,0.4-0.6,1.3l-57.7,141.8
				c-0.2,0.6-0.5,1.3-0.8,2.1c-2.5,6.7-7.2,19.1-13,19.1c-0.7,0-2.4,0.1-4.8,0.1C415.1,456.6,407,456.9,400.1,456.9z M502.3,252
				c-1.6,0-2.7,2-4.9,7.5L423,435.1c-3.2,8.1-7.9,16.5-18.1,17.9c-1.5,0.2-4.3,0.4-6.1,0.4c-1.8,0-1.8,0.6-1.8,1
				c0,0.8,0.2,1.4,3.2,1.4c6.9,0,15-0.3,20.4-0.4c2.4-0.1,4.1-0.1,4.8-0.1c5,0,9.7-12.4,11.9-18.4c0.3-0.8,0.6-1.5,0.8-2.1
				L495.8,293c0.2-0.9,0.7-2.1,1.7-2.1c1,0,1.3,1.2,1.5,2l0,0.2c0.3,0.8,33,90.1,37.1,100.2c0.3,0.7,0.3,1.5-0.1,2.1
				c-1.4,2.6-7.4,3.8-10.2,4.3c-0.5,0.1-0.9,0.2-1.1,0.2c-2.2,0.2-2.3,0.6-2.3,1.2c0,0.7,2.1,0.8,4.5,1l0.8,0
				c10.3,0.3,26.4,0.4,47.9,0.4c7.2,0,8.4-0.5,8.4-1.4c0-0.7-0.2-1-2-1c-2,0-5-0.1-8.3-0.8c-4.7-1.1-10.4-4.5-17.6-21.6
				c-6.5-15.4-18.3-44.3-28.8-69.8c-9.9-24.1-18.4-44.9-20.7-50.1C504.7,253.4,503.7,252,502.3,252z M672.1,404.3
				c-10.6,0-18.9-0.2-26.3-0.4c-2.3-0.1-4.5-0.1-6.7-0.2c-9.3-0.4-16.2-0.6-23.8-0.6c-2.1,0-6.4,0-11.1,0.2c-2.3,0-4.8,0.1-7.2,0.2
				c-2.3,0.1-4.4,0.2-6.3,0.2c-1.1,0-4.5,0-4.5-2.5c0-2.1,2.8-2.1,3.7-2.1c2.3,0,4.6-0.3,6.9-0.8c3.6-0.7,4.5-5.1,5.2-10.3
				c1-8.1,1-23.6,1-41.5v-34.3c0-29.7,0-35.1-0.4-41.3c-0.4-6.2-1.6-9.3-7.9-10.6c-1.5-0.4-3.7-0.6-6.3-0.6c-1.2,0-3.9,0-3.9-2.3
				c0-2.1,2.5-2.3,4.8-2.3c5.2,0,11.4,0.2,16.8,0.4c4.1,0.1,7.6,0.2,9.9,0.2c2,0,5.9-0.1,10.3-0.2c5.6-0.2,11.9-0.3,16.2-0.3
				c1.6,0,4.6,0,4.6,2.3c0,2.3-2.6,2.3-4.1,2.3c-2,0-5.1,0.2-7.5,0.6c-4.6,0.9-6.3,3.5-6.8,10.6c-0.4,6.2-0.4,11.6-0.4,41.3v34.3
				c0,24.6,0,38.2,3.9,41.5c3.1,2.7,7.7,4.2,23.2,4.2c10.9,0,17.8-0.4,22.4-5.3c2.2-2.4,4.5-7.7,4.9-11.4c0.1-1.2,0.4-3.4,2.7-3.4
				c2.1,0,2.1,2.1,2.1,3.9c0,2.3-1.4,16.8-2.9,22.6C683.6,403.3,682.4,404.3,672.1,404.3z M615.3,402c7.6,0,14.5,0.2,23.8,0.6
				c2.1,0,4.3,0.1,6.7,0.2c7.3,0.2,15.6,0.4,26.3,0.4c10,0,10.7-0.9,11.7-4.9c1.5-5.5,2.9-20.1,2.9-22.3c0-2.6-0.3-2.8-1-2.8
				c-0.9,0-1.4,0.4-1.6,2.4c-0.4,3.9-2.8,9.4-5.2,12c-5.2,5.6-13.6,5.6-23.2,5.6c-15.9,0-20.7-1.6-24-4.4
				c-4.3-3.7-4.3-16.6-4.3-42.3v-34.3c0-29.8,0-35.1,0.4-41.4c0.4-6.5,1.7-10.5,7.7-11.6c2.5-0.4,5.6-0.6,7.7-0.6c2.7,0,3-0.6,3-1.2
				c0-0.6-0.3-1.2-3.5-1.2c-4.3,0-10.6,0.2-16.2,0.3c-4.4,0.1-8.3,0.2-10.3,0.2c-2.3,0-5.8-0.1-9.9-0.2c-5.4-0.2-11.6-0.4-16.8-0.4
				c-3.4,0-3.7,0.6-3.7,1.2s0.2,1.2,2.8,1.2c2.7,0,5,0.2,6.6,0.6c6.9,1.5,8.4,5.1,8.8,11.6c0.4,6.3,0.4,11.6,0.4,41.4v34.3
				c0,17.9,0,33.4-1,41.6c-0.8,5.6-1.8,10.3-6.1,11.2c-2.4,0.5-4.7,0.8-7.1,0.8c-2.6,0-2.6,0.7-2.6,1c0,0.3,0,1.4,3.3,1.4
				c1.9,0,4-0.1,6.2-0.2c2.4-0.1,4.9-0.2,7.2-0.2C608.9,402,613.2,402,615.3,402z"/>
		</g>
		<polygon id="XMLID_299_" fill="#EC2427" points="500.4,378.2 482.3,366.7 499.6,356.5 516.4,367.6 		"/>
	</g>
</g>
</svg>
