<?xml version="1.0" encoding="utf-8"?>
<!-- Generator: Adobe Illustrator 17.1.0, SVG Export Plug-In . SVG Version: 6.00 Build 0)  -->
<!DOCTYPE svg PUBLIC "-//W3C//DTD SVG 1.1//EN" "http://www.w3.org/Graphics/SVG/1.1/DTD/svg11.dtd">
<svg version="1.1" id="Слой_1" xmlns="http://www.w3.org/2000/svg" xmlns:xlink="http://www.w3.org/1999/xlink" x="0px" y="0px"
	 viewBox="-1039 592 240 198" enable-background="new -1039 592 240 198" xml:space="preserve">
<g id="bg">
	
		<radialGradient id="dark_1_" cx="-600.1247" cy="-585.4773" r="395.4959" gradientTransform="matrix(0.2892 0 0 0.264 -745.4619 845.566)" gradientUnits="userSpaceOnUse">
		<stop  offset="0.5" style="stop-color:#262626"/>
		<stop  offset="1" style="stop-color:#1A1A1A"/>
	</radialGradient>
	<rect id="dark" x="-1039" y="592" fill="url(#dark_1_)" width="240" height="198"/>
</g>
<g id="devs">
	
		<radialGradient id="logo_1_" cx="-639" cy="-754.9161" r="143.0646" gradientTransform="matrix(0.3 0 0 0.3 -727.3 889.9)" gradientUnits="userSpaceOnUse">
		<stop  offset="0.3934" style="stop-color:#CC6628"/>
		<stop  offset="1" style="stop-color:#993520"/>
	</radialGradient>
	<path id="logo" fill="url(#logo_1_)" d="M-892.1,644.3c0.2-0.3,0.6-0.5,1-0.8c0.6-0.3,1.2-0.6,1.9-0.7c-0.1,0.1-0.2,0.3-0.3,0.4
		c-0.8,0.5-1.5,1-2.2,1.6c-0.1,0.1-0.4,0.2-0.5,0.3C-892.2,644.8-892.2,644.5-892.1,644.3z M-893.1,642.8c0.1-0.6,0-1.2,0.1-1.7
		c0,0,0.1-0.1,0.1-0.1c0.3,0.7,0.2,1.4,0.2,2.1c0,0.9-0.1,1.7-0.3,2.6c-0.1,0-0.2,0-0.3,0C-893.3,644.7-893.2,643.8-893.1,642.8z
		 M-893.6,633.8c0.5-0.1,1-0.1,1.6-0.1c0.5,0,1-0.4,1.6-0.3c-0.4,0.5-1.1,0.8-1.7,0.8c-0.5,0.1-0.9,0.1-1.4,0
		C-893.6,634.1-893.6,634-893.6,633.8z M-895,632.8c0-0.6,0-1.2,0.1-1.8c0.1,0,0.2,0,0.3-0.1c0,1.1,0.1,2.2,0,3.3
		c0,0.4-0.1,0.9-0.6,1C-895.2,634.5-895,633.6-895,632.8z M-919.6,625.9c0.1-0.2,0.2-0.3,0.4-0.4c-0.4,2.5-0.3,5.3,1,7.6
		c0.1,0.2,0.1,0.3,0.1,0.5c-1.1-0.8-1.6-2.1-1.9-3.4C-920.2,628.8-920.2,627.2-919.6,625.9z M-922,626.6c-0.4-0.4-0.9-0.8-1.1-1.3
		c0.4,0.2,0.8,0.6,1,0.9c0.4,0.5,0.9,0.8,1.2,1.4C-921.3,627.4-921.6,626.9-922,626.6z M-921,630.2c-0.1-0.2,0-0.5,0.1-0.7
		c0.3,0.5,0.5,1.2,0.8,1.7c0.3,0.7,0.6,1.5,1.2,2c0.9,0.9,1.6,2,2.2,3.2C-919,635.1-920.6,632.8-921,630.2z M-945.7,637.8
		c0.3,0.2,0.6,0.4,0.8,0.7c0.4,0.4,0.9,0.6,1.3,1C-944.6,639.4-945.3,638.7-945.7,637.8z M-943.4,640.7c-0.7-0.1-1.4,0-2.2-0.1
		c0.4-0.4,1-0.3,1.6-0.4c0.8-0.1,1.7-0.1,2.5,0c0.1,0,0.2,0.1,0.4,0.1C-941.8,640.7-942.6,640.7-943.4,640.7z M-947.4,649.2
		c-0.6-0.1-0.8-0.7-1-1.2C-948,648.3-947.7,648.8-947.4,649.2z M-947.3,651.2c-0.8-0.9-1.7-1.8-3-1.9c-0.5-0.1-1,0.2-1.5,0.4
		c0.3-0.6,1.1-0.8,1.7-0.7c0.9,0.1,1.7,0.6,2.3,1.1c0.7,0.6,1.2,1.3,1.4,2.1C-946.8,652-947,651.6-947.3,651.2z M-890.5,706.5
		c0.9,0.2,1.4,1,1.7,1.8c-0.5-0.1-1-0.2-1.3-0.7C-890.3,707.3-890.5,706.9-890.5,706.5z M-889.6,650.6c0.4-0.8,0.6-1.7,0.8-2.7
		c0-0.2,0.1-0.4,0.3-0.6c0.1,0.6,0,1.2-0.1,1.8c-0.1,0.8-0.3,1.7-0.8,2.3c-0.5,0.6-1.2,1-1.9,1.4c-0.8,0.5-1.6,1.1-2.5,1.3
		c-0.8,0.2-1.6,0.2-2.4,0c0.3-0.3,0.7-0.4,1-0.5c1-0.4,2-0.7,2.9-1C-891.2,652.3-890.1,651.7-889.6,650.6z M-894.1,651.8
		c1-0.4,2-0.2,3-0.3c-0.4,0.5-0.9,0.6-1.5,0.8c-0.8,0.2-1.6,0.5-2.4,0.5C-894.8,652.4-894.5,652-894.1,651.8z M-894,644.3
		c0.1-0.2,0.2-0.4,0.4-0.5c0,0.9,0,1.8,0,2.7c0,0.6,0,1.3-0.1,1.9c-0.1,0-0.2,0-0.2,0C-894.1,647-894.3,645.6-894,644.3z
		 M-894.8,645.3c0.1-0.2,0.2-0.4,0.4-0.6c0,0.6-0.2,1.1-0.2,1.7c0,1.2,0.1,2.3,0,3.5c-0.1,1.1-0.7,2.3-1.6,2.8
		c-0.7,0.4-1.5,0.6-2.3,0.5c1-0.7,2-1.4,2.5-2.5C-895,649.2-895.5,647.1-894.8,645.3z M-896.5,648.8c0.2-0.5,0.3-1,0.7-1.4
		c0.1,0.6-0.1,1.1-0.2,1.7c-0.3,1.6-1.5,2.9-2.9,3.7c-0.5,0.2-0.9,0.4-1.4,0.4c0,0-0.1-0.1-0.1-0.1
		C-898.7,652.1-897.3,650.6-896.5,648.8z M-903.8,652.9c0.3-0.5,0.4-1,0.8-1.4c0,0.7-0.1,1.4-0.3,2c-0.2,0.5-0.8,0.5-1.3,0.6
		C-904.4,653.7-904.1,653.3-903.8,652.9z M-909,652c-0.6,0.1-1.2,0.3-1.8,0.2C-910.3,652-909.5,651.7-909,652z M-912.6,651.6
		c-0.6,0.3-1,0.8-1.6,1.1c0.3-1.2,1.2-2.3,2.3-2.8c1-0.6,2.1-0.8,3.3-1C-909.9,650-911.3,650.9-912.6,651.6z M-913.3,655.8
		c-0.5,0.2-1,0.3-1.4,0.4c0.2-1.4,0.9-2.8,2.2-3.5c-0.4,0.6-0.8,1.2-0.8,1.9C-913.4,655-913.3,655.4-913.3,655.8z M-902.7,646
		c-1.5,0.9-3.2,1.4-5,1.6c-1.1,0.2-2.3,0.3-3.4,0.8c-1,0.4-1.9,1-2.7,1.9c-0.6,0.6-1,1.3-1.3,2.1c-0.2,0.7-0.4,1.3-0.6,2
		c-0.2,0.7-0.2,1.5-0.4,2.2c-0.2,0.7-0.9,1-1.4,1.4c-0.1-0.6,0.1-1.1,0.3-1.7c0.3-1.2,0.8-2.3,1.2-3.4c0.4-1,0.4-2.2,1.1-3.1
		c1.1-1.3,2.6-2.2,4.2-2.7c1.1-0.3,2.3-0.3,3.4-0.4c1.1-0.1,2.2-0.4,3.3-0.7c0.7-0.2,1.4-0.6,2.2-0.7
		C-902,645.5-902.3,645.8-902.7,646z M-910.8,693.8c0.4,0.3,0.9,0.8,1.4,1.2c0.2,0.2,1.8,2.2,1.9,2.5c0.5,1,1,2,1.6,2.9
		c0.4,0.6,1,1.2,1.3,1.8c-0.1,0-0.4-0.1-0.6-0.2c-0.6-0.2-1.2-0.6-1.6-1s-0.8-1.1-1.2-1.7c-0.7-1-1.5-1.9-2.3-2.8
		c-0.9-1-1.7-2.2-2.2-3.4c-0.1-0.1,0-0.3,0-0.4C-911.8,693-911.4,693.5-910.8,693.8z M-927.1,699.9c-1.3,0.7-2.5,1.7-3.8,2.6
		c-1.1,0.8-2.4,1.3-3.8,1.4c-0.4,0-0.8,0-1.1-0.2c0-0.1,0.1-0.1,0.1-0.2c0.6-0.1,1.2-0.1,1.8-0.3c1.4-0.5,2.5-1.4,3.6-2.3
		c1.5-1.2,2.8-2.6,4.4-3.5c0.4-0.2,2.3-0.8,2.8-0.8c0.7,0,1.5,0,2.2,0c-0.1,0.2-0.2,0.4-0.4,0.5c-0.9,0.6-1.9,1-2.9,1.3
		C-925.2,698.8-926.2,699.4-927.1,699.9z M-926.6,700.8c-0.1,1.3-0.8,2.4-1.7,3.2c-0.4,0.4-1,0.7-1.6,0.8c-1.2,0.4-2.5,0.1-3.5-0.5
		c0.6-0.4,1.4-0.3,2-0.6c0.7-0.3,1.3-0.8,2-1.3c0.7-0.5,1.3-0.9,2-1.4C-927.2,701-926.9,700.9-926.6,700.8z M-930.1,692.4
		c0,0.1,0.1,0.4-0.1,0.7c-0.3,0.8-1.2,2-1.5,2.3c0.2-0.8,0.4-1.7,0.4-2.8c0-0.3-0.1-1.5-0.1-1.9c-0.1-0.6,0.1-1.6,0.7-2.3
		C-930.6,689.2-930.5,691.5-930.1,692.4z M-927.9,685.3c-0.1-0.7,0-1-0.1-1.6c0.1,0.6,0.2,0.8,0.4,1.3c0.4,1.5,1.4,2.8,1.4,4.3
		c0,0.6-0.3,1.3-0.7,1.7c-0.2-0.3-0.3-0.9-0.5-1.3c-0.2-0.8-0.2-1.6-0.4-2.3C-927.7,687-927.8,686.1-927.9,685.3z M-921.2,691.5
		c0.2,0.7,0,1-0.4,1.2c-0.7,0.3-1.4,0.1-2.1-0.1c0-0.1,1-0.8,1.3-1.2c0.2-0.3,0.4-1.1,0.4-1.3C-921.3,691.1-921.2,691.5-921.2,691.5
		z M-923.6,688c0.4,0.7,0.6,1.7,0.5,2.5c-0.1,0.6-0.7,0.8-0.7,0.8c-0.5,0.2-1.1,0.2-1.6,0.2c-0.1,0,0.5-0.8,0.5-1.9
		c0-0.7-0.1-1.4-0.3-2c-0.4-1.1-0.8-2.2-1.2-3.3c-0.2-0.8-0.6-1.5-0.8-2.3c-0.2-0.8-0.5-1.5-0.6-2.3c-0.1-1,0.2-2.1,0.5-3.1
		c0.1-0.3,0.2-0.7,0.5-0.9c-0.1,0.8-0.4,1.6-0.4,2.4c0,0.9-0.1,1.9,0.2,2.8c0.3,1.3,0.9,2.5,1.6,3.7
		C-925.2,685.2-923.6,688-923.6,688z M-919.1,693.5c-0.1,1-0.7,1.2-1.1,1.6c-0.7,0.7-1.9,0.4-2.8,0.4c-0.2,0-0.6,0-0.8,0
		c-0.4,0.1-0.8,0.2-1.3,0.3c-0.4,0.1-1.7,0.8-1.7,0.8c-0.5,0.3-1,0.6-1.5,1c-0.6,0.6-1.3,1.1-1.9,1.7c-0.6,0.7-1.3,1.3-2,1.9
		c-0.5,0.5-1.1,0.9-1.8,1.2c-0.4,0.2-0.9,0.5-1.4,0.4c0.2-0.1,0.4-0.3,0.5-0.4c1.5-0.9,2.7-2.2,3.6-3.7c0.4-0.5,1.5-2.3,1.9-2.7
		c0.7-0.7,1.3-1.5,2.2-1.8c0.3-0.1,1-0.3,1.3-0.3c0.5,0,1.6,0,2.2,0c0.9-0.1,1.9-0.1,2.6-0.8c0.9-0.7,0-2.4,0-2.4s-1.3-2.6-2.4-3.9
		c-0.3-0.3-3.3-4.7-3.5-6.8c-0.1-0.8-0.1-1.7,0.1-2.5c0-0.2,0.1-0.7,0.2-0.8c0.1,0.3,0.2,1.1,0.2,1.4c0.1,2.1,1.5,5.2,2.7,6.8
		c1,1.4,2,2.8,2.9,4.3C-920.1,690-919,692.9-919.1,693.5z M-917.7,690.4c0.2,0.8,0.6,1.9,0.6,3c0,0.7,0,1.4-0.1,2.1
		c0,0.4-0.1,2.8,0,3.3c0.2,1.1,0.6,2.3,1.6,2.9c0.9,0.5,2,0.4,3.1,0.2c0.9-0.2,1.8-0.3,2.7-0.2c0.7,0.1,1.4,0.5,1.5,1.3
		c-0.5-0.2-1-0.5-1.5-0.5c-1.2-0.1-2.5,0.1-3.4,0.8c-0.5,0.3-1.1,0.8-1.8,0.8c-0.5,0-1-0.3-1.4-0.6c-0.7-0.6-1.3-1.3-1.6-2.2
		c-0.5-1.4,0.1-3.8,0.2-5.1c0-0.5,0.1-1,0.1-1.6c-0.1-2-1.9-5.5-2.3-6.1c-1-1.6-2.1-3.1-3.2-4.6c-0.3-0.5-1-2-1.1-2.2
		c-0.3-0.6-0.7-1.9-0.9-2.7c0.2,0.4,0.7,1,0.9,1.3c0.3,0.5,5,6.4,6.1,8.9C-918,689.4-917.8,690.2-917.7,690.4z M-914.2,700.1
		c0.4,0.3,0.9,0.5,1.2,0.9c-1,0.2-2.2-0.3-2.7-1.2c-0.5-1-0.5-2.9-0.3-4.4c0,1.3,0.3,2.5,0.6,3.1
		C-915.1,699.1-914.7,699.6-914.2,700.1z M-914.5,695.2c0.4,0.9,0.7,1.8,1.4,2.5c1,1,2.4,1.3,3.2,2.3c0,0-0.1,0.1-0.1,0.2
		c-1.2-0.2-2.3-0.6-3.3-1.2c-0.6-0.4-1-1.1-1.2-1.8C-914.7,696.6-914.7,695.9-914.5,695.2z M-916.1,686c1.1,2,1.2,4.1,0.8,5.9
		c-0.2,0.7-0.5,2.4-0.6,3.2c-0.1-1.2-0.2-3.7-0.7-5c-0.1-0.2-0.7-1.7-0.9-2.2c-0.5-0.8-1-1.7-1.5-2.4c-0.8-1.2-2.8-3.7-3.4-4.4
		c-0.7-0.8-1.3-1.7-1.8-2.5c-1-1.7-2.1-3.5-2.8-5.4c-0.2-0.6-0.5-1.1-0.5-1.8c0.4,0.3,0.5,0.9,0.8,1.3c1.3,2.4,2.9,4.5,4.9,6.4
		c0.7,0.7,1.4,1.5,2.1,2.2C-919.1,681.7-916.8,684.8-916.1,686z M-929,660.6c0.2-0.5,0.6-1.1,0.7-1.7c0.3-1,0.2-2.2,0.2-3.2
		c0.1-1.5,0.2-3,0.8-4.3c0.3-0.6,0.7-1.2,1.2-1.7c0.1,1,0,2-0.1,3c-0.2,1.6-0.5,3.2-0.8,4.8c-0.3,1.5-0.4,3.1-0.4,4.7
		C-927.9,661.6-928.5,661-929,660.6z M-927.9,664.8c-1-0.6-2.1-1.2-3.3-1.3c-0.6,0-1.1-0.1-1.7,0c-0.8,0.1-1.5,0.5-2.3,0.7
		c0.2-0.5,0.8-0.8,1.2-1.1c1.2-0.7,2.7-1.2,4.1-0.8c0.8,0.2,1.5,0.7,2,1.4C-927.8,664-927.5,664.5-927.9,664.8z M-926.6,658.9
		c0.2-1.8,0.7-3.5,0.9-5.3c0.1-0.5,0.1-1.1,0.1-1.6c0.1-1,0-2,0-3c0-0.7,0.5-1.3,0.9-1.8c-0.2,1.2,0.1,2.4-0.2,3.5
		c-0.4,1.4-0.5,2.9-0.5,4.3c0,0.8-0.2,1.7-0.2,2.5c0.1,1.8,0.4,3.5,0.5,5.3c0.1,1.1,0.1,2.3,0.3,3.4c0.4,2,1.3,3.9,2.6,5.6
		c1,1.4,2.5,2.5,3.8,3.6c1.1,0.9,2.1,1.9,2.9,3c0.6,0.9,1.2,1.7,1.5,2.8c0.1,0.2,0.3,2.2,0.3,2.6c-0.1-0.2-0.2-0.6-0.2-0.8
		c-0.2-0.6-0.5-1.1-0.7-1.7c-0.4-0.9-1-1.7-1.7-2.4c-1.3-1.4-3-2.5-4.5-3.6c-1.4-1-2.8-2.2-3.8-3.7c-0.8-1.4-1.4-2.9-1.7-4.5
		c-0.3-1.5-0.5-2.9-0.6-4.4C-926.8,661.4-926.8,660.2-926.6,658.9z M-913.2,679.9c-0.1-0.2-0.3-0.3-0.4-0.5
		c-0.7-1.8-2.2-3.1-3.6-4.4c-0.8-0.7-1.7-1.3-2.5-2c-1.9-1.4-3.3-3.5-4-5.7c-0.3-1-0.5-2.1-0.6-3.2c-0.1-1-0.3-1.9-0.4-2.9
		c-0.1-1.2-0.5-2.4-0.5-3.6c0.3,0.4,0.4,0.9,0.6,1.3c0.5,1.1,0.9,2.3,1,3.5c0.3,1.8,0.5,3.7,1.5,5.3c0.6,0.8,1,1.6,1.6,2.3
		c0.5,0.6,1,1.1,1.6,1.6c0.6,0.5,1.3,0.9,1.9,1.4c1.3,1.1,2.6,2.4,3.1,4C-913.3,678.1-913.1,679-913.2,679.9z M-919.9,659.5
		c0.1-1.5,0.2-2.9,0.8-4.3c0.7-1.5,1.6-2.8,1.8-4.5c0.2-2.3-0.5-4.6-1-6.9c-0.2-0.6-0.3-1.3-0.4-2c-0.1-0.6-0.2-1.2-0.1-1.7
		c0.6,1,1,2.1,1.5,3.2c0.2,0.5,0.2,1,0.3,1.6c0,0.8,0.4,1.6,0.6,2.5c0.1,0.4,0,0.8-0.1,1.2c-0.2,0.7-0.3,1.4-0.3,2.1
		c-0.1,1.2-0.3,2.3-0.7,3.4c-0.3,0.8-0.6,1.7-0.8,2.5c-0.2,0.8-0.5,1.6-0.5,2.5c0,0.8-0.3,1.5-0.8,2.1
		C-920,660.7-920,660.1-919.9,659.5z M-898.4,637.2c0.5-0.3,1-0.5,1.4-1c0.4-0.5,0.5-1.2,1-1.6c0.1,0.3,0.1,0.5,0,0.8
		c-0.2,0.8-0.5,1.6-1.1,2.1c-0.7,0.6-1.6,0.8-2.4,1c0,0-0.1-0.1-0.1-0.1C-899.3,638-898.9,637.5-898.4,637.2z M-899.1,635.8
		c0.1,0.3,0.3,0.6,0.3,1c-0.1,0.3-0.4,0.4-0.7,0.5c0-0.4,0.1-0.8,0-1.2c-0.1-0.6-0.4-1.1-0.5-1.7
		C-899.4,634.6-899.3,635.3-899.1,635.8z M-902.7,642.7c0.8-0.5,1.4-1,1.9-1.8c0.3-0.4,0.5-0.8,0.9-1c0.6-0.4,1.3-0.6,2-0.8
		c0.5-0.2,1-0.5,1.5-0.8c0,0.2,0,0.4-0.1,0.6c-0.4,0.5-0.9,1-1.6,1.2c-0.6,0.2-1.2,0.4-1.7,0.7c-0.7,0.4-1.1,1-1.7,1.4
		c-0.6,0.5-1.2,0.9-1.9,1C-903.1,643-902.9,642.8-902.7,642.7z M-908.2,642.5c0.3-0.4,0.5-0.9,0.8-1.2c0,0.6-0.4,1-0.6,1.5
		c-0.2,0.3-0.4,0.8-0.8,0.7C-908.7,643.2-908.4,642.8-908.2,642.5z M-911.5,644.6c1.3-0.4,2.6-0.4,3.9-0.2c1.1,0.1,2.1,0.2,3.2,0
		c0.9-0.1,1.8-0.4,2.5-0.9c0.9-0.7,1.6-1.5,2.5-2.3c0.3-0.3,0.7-0.4,1-0.5c-0.2,0.4-0.4,0.8-0.7,1c-1,1-2.3,1.8-3.7,2.4
		c-1,0.4-2.1,0.8-3.2,1c-0.6,0.1-1.3,0.2-1.9,0.4c-0.7,0.2-1.5,0.1-2.2,0.3c-0.9,0.2-1.8,0.4-2.6,0.8c-0.8,0.4-1.5,1-2.2,1.6
		c-0.4,0.3-0.6,0.8-0.9,1.1c0,0-0.1,0-0.1-0.1c0-0.7,0.3-1.3,0.6-1.9C-914.5,646.1-913.1,645-911.5,644.6z M-910,637.3
		c-0.4,0.5-0.8,1-1.1,1.5c-0.6,1-1.1,2.1-1.2,3.3c-0.1,0.6,0,1.2-0.1,1.7c-0.2,0.2-0.5,0.3-0.8,0.4c-0.5,0.2-0.9,0.5-1.4,0.8
		c0.3-0.8,0.7-1.5,0.9-2.3c0.4-1.5,0.7-3,1.6-4.3c0.6-0.7,1.3-1.3,2-1.9c0.5-0.4,1-0.8,1.6-1.1C-909,636.2-909.6,636.6-910,637.3z
		 M-905.9,634.9c-0.5,0.5-1.3,0.6-1.9,0.8C-907.4,635-906.5,635-905.9,634.9z M-905,627.1c0,0.6-0.1,1.3-0.5,1.8
		C-905.8,628.3-905.5,627.6-905,627.1z M-907.7,626.1c-0.2-0.4-0.5-0.6-0.8-0.9c0-0.1,0-0.2,0-0.2c0.8,0.4,1.4,1.3,1.6,2.2
		C-907.2,626.9-907.5,626.5-907.7,626.1z M-907.9,632.4c0.4-0.4,0.8-0.8,1-1.3c0.2-0.5,0.3-1,0.3-1.5c0.1-0.6-0.1-1.2-0.1-1.9
		c0.4,0.4,0.5,1,0.7,1.5c0.2,0.8,0,1.7-0.5,2.3c-0.5,0.7-0.8,1.4-1.4,2c-1,1.2-2.4,2.1-3.7,3.1c-0.4,0.3-0.7,0.7-1.1,0.9
		c0.1-0.4,0.4-0.7,0.7-1C-910.7,635.1-909.4,633.7-907.9,632.4z M-915.7,641.9c0.5-1.1,0.7-2.3,1-3.5c0.3-0.8,0.7-1.5,1.3-2.1
		c0.4-0.4,0.8-0.8,1.3-1c-0.4,0.8-1.2,1.4-1.6,2.3c-0.5,1-0.4,2.3-0.5,3.4c0,0.6-0.1,1.2-0.3,1.8c-0.5,1.3-1.2,2.5-1.4,3.9
		c-0.3-0.3-0.3-0.8-0.3-1.2c0-0.5-0.1-0.9-0.1-1.4C-916.2,643.3-916,642.6-915.7,641.9z M-929.3,627.6c0.6,0.2,1.2,0.6,1.4,1.3
		C-928.5,628.5-929,628.1-929.3,627.6z M-928.4,626.9c0.5,0.2,0.9,0.6,1.3,0.9c0.4,0.3,0.9,0.5,1.2,1c-0.7-0.2-1.4-0.6-1.9-1.1
		C-928,627.5-928.2,627.2-928.4,626.9z M-924.6,630.7c-1.1-0.6-2.3-1.3-3-2.4c0.3,0,0.5,0.2,0.8,0.4c0.6,0.4,1.2,0.6,1.8,0.9
		c1,0.4,1.9,1.1,2.4,2C-923.3,631.4-924,631-924.6,630.7z M-919.8,637.1c-0.5-0.6-1.1-1.1-1.6-1.6c-0.5-0.6-1.1-1.2-1.5-1.9
		c-0.3-0.6-0.8-1.1-1-1.7c1.2,0.5,2.4,1.4,2.8,2.7c0.4,1,1.1,1.9,1.7,2.7c0.5,0.7,1.1,1.3,1.7,2c0.4,0.5,0.9,1,1.5,1.2
		c-0.1,0.7-0.4,1.4-0.8,2c-0.2-0.2-0.3-0.5-0.4-0.8c-0.4-1-1-1.8-1.4-2.8C-919.1,638.2-919.3,637.6-919.8,637.1z M-922.2,654.7
		c1-0.4,1.6-1.2,1.9-2.2c0.4-1.3,0.6-2.5,0.8-3.8c0.1-1.3,0.2-2.5,0.4-3.8c0.1,0,0.2,0,0.2,0c0.2,1.3,0.4,2.5,0.5,3.8
		c0.1,1,0,2-0.3,3c-0.2,0.9-0.7,1.6-1.1,2.4c-0.4,0.7-0.8,1.4-1.6,1.6c-0.5,0.2-1.3-0.1-1.4-0.7
		C-922.7,654.8-922.5,654.8-922.2,654.7z M-921,656.9c-0.1,0.7-0.2,1.4-0.3,2.1c-0.3-0.8-0.6-1.5-0.9-2.2
		C-921.9,656.8-921.5,656.8-921,656.9z M-924.2,654c0.2,0.8,0.5,1.6,0.8,2.4c0.4,1.2,1,2.3,1.4,3.5c0.3,1,0.7,1.9,0.9,2.9
		c0.3,1.2,0.4,2.5,0.6,3.8c0.1,0.9,0.5,1.7,0.7,2.6c-0.6-0.5-0.8-1.1-1.1-1.7c-0.8-1.6-1.1-3.4-1.5-5.1c-0.1-0.8-0.5-1.7-0.8-2.4
		c-0.3-1-0.8-1.9-1.1-2.9c-0.2-0.6-0.3-1.3-0.3-1.9c-0.1-0.6-0.1-1.3,0.1-1.9C-924.4,653.3-924.3,653.6-924.2,654z M-925.2,637.5
		c0.2,0.1,0.5,0.2,0.7,0.4c0.5,0.6,0.6,1.4,0.7,2.1c0.1,0.4,0.2,0.9,0,1.3c-0.3,0.4-0.7,0.6-1,1c0.3-1,0.7-2.1,0.5-3.2
		C-924.5,638.5-924.9,638-925.2,637.5z M-925.8,644c0.4-0.2,0.8-0.4,1-0.7c0.6-0.5,1.1-1.1,1.7-1.6c0.5-0.4,1-0.8,1.5-1.2
		c-0.1,0.5-0.4,1-0.8,1.3c-0.8,0.7-1.8,1-2.4,1.9c-0.5,0.6-0.9,1.3-1.4,2C-926.1,645.1-926.1,644.5-925.8,644z M-925.8,646.5
		c0.4-0.6,0.7-1.3,1.2-1.8c0.5-0.7,1.2-1.2,1.9-1.6c-0.1,0.8-0.8,1.3-1.3,1.8c-0.5,0.5-0.6,1.2-1,1.8c-0.3,0.4-0.6,0.7-0.8,1.1
		c-0.5,0.8-1,1.6-1.6,2.4c-0.8,1.1-1.4,2.4-1.4,3.8c-0.1,1-0.1,2-0.2,2.9c-0.3-0.1-0.6-0.3-0.8-0.5c-0.2-0.3-0.1-0.7-0.1-1
		c0.2-1.1,0.2-2.2,0.5-3.2c0.3-1.2,1-2.3,1.6-3.3C-927.2,648-926.4,647.3-925.8,646.5z M-927.6,643.8c0.1-0.5,0-1.1,0.1-1.7
		c0.4,0.6,0.5,1.3,0.6,2c-0.1,1.2-0.5,2.4-1.1,3.4c-0.2,0.5-0.5,0.9-0.8,1.3C-928.9,647.1-927.9,645.5-927.6,643.8z M-928.5,641.1
		c0.2,1.1,0,2.3-0.4,3.4c-0.2,0.5-0.4,1.1-0.7,1.6c-0.3-0.9-0.2-1.8-0.2-2.8c0-1.1,0.1-2.2,0.1-3.2c0-0.6-0.1-1.2-0.2-1.7
		C-929,639-928.6,640.1-928.5,641.1z M-930.4,634.9c0.1,0.4,0.1,0.8,0.1,1.2c0,0.5,0.2,0.9,0.3,1.3c-0.3-0.2-0.7-0.5-0.7-0.8
		C-930.8,636-930.8,635.4-930.4,634.9z M-931.8,636.3c0.9,1.2,1.3,2.8,1.3,4.4c-0.2,0-0.5,0-0.8-0.1c-0.2-0.3-0.2-0.8-0.2-1.1
		C-931.6,638.4-932.1,637.4-931.8,636.3z M-930.6,643.3c-0.3-0.2-0.5-0.5-0.7-0.8c-0.4-0.4-0.8-0.8-1.2-1.3c0.7,0.2,1.3,0.4,2,0.4
		C-930.5,642.2-930.5,642.7-930.6,643.3z M-936.4,632.4c-0.6-0.4-1.3-0.7-1.6-1.3c0.7,0.3,1.3,0.7,2,1c0.3,0.1,0.6,0.3,0.8,0.5
		c0.1,0.2,0.2,0.5,0.2,0.7C-935.5,633.1-935.9,632.7-936.4,632.4z M-934.5,632.2c-0.3-1.5-0.8-3.2-0.2-4.7c0.2,0.5,0.1,1.1,0.1,1.7
		c0,0.7,0.2,1.4,0.3,2.1c0.3,1.4,1.1,2.5,1.5,3.9c0.2,0.8,0.3,1.6,0.4,2.4c0.1,0.7,0.3,1.4,0.3,2.1c-0.4-0.3-0.5-0.9-0.7-1.3
		C-933.5,636.3-934,634.2-934.5,632.2z M-934.6,639.2c-0.6-0.2-1-0.7-1.4-1.1c-0.3-0.3-0.5-0.7-0.6-1.1
		C-935.7,637.5-935.1,638.3-934.6,639.2z M-937.2,636.9c0.4,0.5,0.5,1.2,0.9,1.7c0.5,0.6,1.1,1,1.8,1.4c0.3,0.2,0.5,0.3,0.7,0.6
		c-0.7-0.1-1.4-0.4-2.2-0.5c-0.6-0.1-1.3,0-1.9-0.2c0.2-0.3,0.5-0.5,0.5-0.9c0-0.5-0.1-1-0.2-1.5c-0.1-0.4-0.4-0.8-0.6-1.2
		C-937.8,636.3-937.4,636.5-937.2,636.9z M-940.8,636.3c-0.9-0.8-1.8-1.6-2.3-2.7c-0.4-1-0.5-2.2-0.2-3.2c0.3,0.7,0.2,1.4,0.5,2
		c0.2,0.7,0.5,1.4,1,2c0.7,0.8,1.7,1.3,2.5,1.9c0.8,0.5,1.1,1.5,1,2.4c-0.3-0.1-0.4-0.5-0.6-0.7
		C-939.3,637.3-940.1,636.9-940.8,636.3z M-935.9,641.3c-1.1-0.3-2.3-0.4-3.5-0.4c-0.4,0-0.8,0.1-1.1-0.2c1-0.1,2-0.1,3.1-0.1
		c1.4,0,2.9,0.3,4.2,1c1,0.6,1.9,1.5,2.4,2.5c0.1,0.2,0.1,0.3,0.1,0.5c-0.5-0.5-0.8-1.1-1.3-1.5
		C-933.2,642.2-934.5,641.7-935.9,641.3z M-936.2,644.2c0.4,0.1,0.8,0.1,1.3,0.2c-0.1-0.3-0.2-0.6-0.2-0.9c0.1-0.3,0.3-0.5,0.5-0.8
		c0.8,0.3,1.6,0.8,2.2,1.4c0.9,1,1.4,2.2,1.8,3.4c0.2,0.4,0.5,0.8,0.4,1.2c-0.1,0.6-0.4,1.2-0.3,1.9c0.2,1.5,0.1,3.1-0.3,4.6
		c-0.1,0-0.1,0-0.2,0c-0.3-0.9-0.5-1.8-1-2.6c-0.4-0.6-1-1.1-1.6-1.4c-0.3-0.2-0.6-0.3-0.7-0.6c-0.2-0.4-0.5-0.9-0.5-1.4
		c0-0.7,0.3-1.3,0.1-2c-0.2-0.9-1.1-1.3-1.4-2.2C-936.3,644.8-936.3,644.5-936.2,644.2z M-935.3,650.3c-0.3-0.1-0.7-0.2-0.7-0.5
		c-0.1-1,0.3-2,0.4-2.9c0.4,0.6,0.3,1.3,0.2,2C-935.6,649.3-935.5,649.8-935.3,650.3z M-939.4,647.3c0.3,0.5,0.5,1,0.8,1.4
		c0.7,0.9,1.6,1.5,2.5,2.1c1,0.6,2.1,1,3,1.8c0.5,0.5,0.8,1.2,1,1.8c0.3,1,0.7,2.2,1.6,2.8c0.5,0.4,1.1,0.7,1.3,1.3
		c0,0.6-0.3,1.1-0.7,1.6c-0.4-0.5-0.8-1.1-1.2-1.6c-0.5-0.6-0.6-1.4-1-2c-0.5-1.1-0.6-2.3-1.4-3.2c-0.7-0.8-1.7-1.4-2.7-1.8
		c-1-0.5-2.2-0.9-2.8-1.9C-939.3,648.8-939.4,648-939.4,647.3z M-931,660c-0.3,0-0.7,0.1-0.9-0.2c-0.6-0.6-0.9-1.4-1.1-2.2
		c-0.1-0.5-0.3-1.1-0.2-1.6c0.6,0.8,0.8,1.7,1.2,2.5C-931.7,659-931.3,659.4-931,660z M-940.5,649.1c-0.2-0.8-0.6-1.6-1.1-2.3
		c-0.3-0.4-0.8-0.6-1.2-1c0.8,0.1,1.5,0.8,1.9,1.4c0.6,0.9,0.5,2,1.1,2.9c0.3,0.5,1,0.6,1.4,1.1c-0.4,0-0.7,0.1-1-0.2
		C-940,650.7-940.2,649.8-940.5,649.1z M-937.7,651.8c1,0,2.2,0.2,2.9,1c-0.5,0-0.9-0.2-1.4-0.2c-0.9-0.2-1.9,0-2.8,0.2
		c-0.8,0.1-1.6,0.4-2.4,0.5C-940.3,652.4-939,651.8-937.7,651.8z M-940.6,654.4c-0.6,0.1-1.2,0.1-1.8,0c-0.4-0.1-0.8-0.1-1-0.4
		c0.6-0.1,1.2-0.1,1.8-0.2c1.5-0.4,3.1-0.8,4.7-0.7c1,0,1.9,0.4,2.5,1.2c-0.5-0.2-0.9-0.5-1.4-0.5
		C-937.5,653.7-939,654.2-940.6,654.4z M-938.4,656.5c-0.1-0.5,0-1,0-1.5c1-0.2,2-0.3,2.9,0.1c0.5,0.3,1,0.8,1.1,1.4
		c-0.5,0-1.1-0.1-1.6,0.1c-0.5,0.2-1,0.4-1.5,0.3C-937.8,656.8-938.2,656.8-938.4,656.5z M-937.7,658c0.2-0.2,0.4-0.3,0.6-0.4
		c0.8-0.4,1.6-0.8,2.5-0.7c-0.3,0.2-0.6,0.3-0.9,0.4C-936.2,657.5-936.9,658-937.7,658z M-934.2,658.9c-0.4-0.5-1-0.6-1.5-0.9
		c0.4-0.2,1-0.4,1.4-0.2c0.4,0.2,0.5,0.7,0.6,1.1c0.1,0.4,0.3,0.8,0.6,1.2C-933.5,659.7-933.8,659.3-934.2,658.9z M-941.7,660
		c0.2,0.3,0.3,0.7,0.4,1c0.2,0.5,0.5,0.9,0.7,1.4c-0.2,0-0.5,0-0.6-0.2c-0.3-0.6-0.5-1.3-0.6-2C-941.8,660.1-941.7,660-941.7,660z
		 M-945.8,661.1c0.5,0.3,0.9,0.7,1.4,0.9c0.5,0.3,1.1,0.4,1.5,0.7c-1,0.1-2-0.2-2.8-0.8c-0.6-0.4-1.2-0.9-1.5-1.6
		C-946.7,660.6-946.3,660.8-945.8,661.1z M-947.8,657c-0.2-0.1-0.5-0.1-0.7-0.3c-0.1-0.3-0.1-0.7-0.1-1
		C-948.1,655.9-948,656.5-947.8,657z M-952.2,657.3c-0.8,0-1.6-0.1-2.2-0.6c-0.3-0.2-0.4-0.5-0.5-0.8c0.3,0.1,0.5,0.3,0.8,0.6
		c0.3,0.3,0.8,0.4,1.3,0.5c1.1,0.2,2.3,0.1,3.4,0.2c0.7,0.1,1.3,0.5,1.7,1c0.4,0.5,0.8,1,1,1.6c-0.6-0.2-0.9-0.8-1.4-1.1
		c-0.4-0.4-0.9-0.8-1.5-1C-950.4,657.3-951.3,657.3-952.2,657.3z M-947.9,661.6c-0.9-0.8-0.9-2.3-1.9-3c-0.4-0.4-1-0.3-1.4-0.6
		c0.2-0.1,0.4-0.1,0.7-0.1c0.7,0.1,1.4,0.3,1.9,0.8c0.9,0.9,1,2.3,2,3.1c1,0.8,2.2,1.3,3.4,1.5c0.4,0,0.8,0.1,1.1,0.1
		c-0.6,0.3-1.2,0.5-1.8,0.7c-0.3,0.1-0.7,0.2-1,0.2c-0.1-0.5-0.2-1-0.6-1.3C-946.2,662.4-947.3,662.3-947.9,661.6z M-950.4,664.2
		c0.9-0.1,1.7,0.3,2.5,0.6c1,0.4,2.1,0.6,3.2,0.4c0.8-0.2,1.7-0.4,2.5-0.7c0.7-0.2,1.4-0.3,2.2-0.4c-0.2,0.3-0.5,0.4-0.8,0.5
		c-0.8,0.3-1.6,0.6-2.5,0.7c-1.2,0.2-2.5,0.3-3.7,0.1c-0.9-0.2-1.8-0.7-2.7-0.8c-0.6-0.1-1.2,0.1-1.8,0.2
		C-951.3,664.3-950.9,664.2-950.4,664.2z M-947.7,666.3c-0.7-0.2-1.3-0.8-2.1-0.8c-0.7,0-1.3,0.3-1.9,0.7c-0.5,0.3-0.8,0.8-1.2,1.1
		c0-0.4,0.4-0.8,0.5-1.1c0.4-0.7,1-1.3,1.8-1.3c1.4-0.1,2.5,1.1,3.8,1.2c1.7,0.2,3.4-0.1,5-0.4c1.4-0.3,2.6-1,3.8-1.7
		c1.7-1.2,3.5-2.4,5.6-2.9c0.7-0.1,1.4-0.3,2,0c0.5,0.2,0.9,0.5,1.3,0.9c-0.6-0.2-1.1-0.4-1.7-0.5c-0.8,0-1.6,0-2.3,0.3
		c-0.9,0.3-1.7,0.9-2.5,1.5c-0.7,0.6-1.3,1.2-2.1,1.7c-2,1.3-4.5,1.9-6.9,1.7C-945.7,666.6-946.7,666.6-947.7,666.3z M-951.8,675.6
		c0-0.1,0-0.2,0-0.2c0.5-0.1,1-0.2,1.5-0.4C-950.6,675.6-951.2,675.7-951.8,675.6z M-947.3,676.7c-0.7-0.3-1.4-0.8-1.4-1.6
		c-0.1-0.6,0.2-1.1,0.5-1.5c0.1,0.4,0.1,0.8,0.2,1.2C-947.8,675.4-947.5,676-947.3,676.7z M-948.8,672.7c-0.6,0.7-1.1,1.5-1.9,2
		c-0.2,0.2-0.5,0.2-0.8,0.1c0.8-0.8,1.7-1.6,2.3-2.6c0.6-0.8,1.3-1.6,2.1-2.2c0.3-0.2,0.6-0.3,0.9-0.4
		C-947.1,670.7-948,671.7-948.8,672.7z M-948.5,670c-0.4,0.4-0.8,1-1.2,1.5c-0.1-0.5,0.2-1,0.3-1.4c0.2-0.7,0.6-1.4,1.3-1.9
		c0.5-0.4,1.2-0.3,1.9-0.2c0.4,0.1,0.8,0,1.1,0.3C-946.3,668.6-947.5,669.1-948.5,670z M-914.2,688.7c-0.2-1.1-0.6-2.2-1-3.2
		c-0.4-1-1-2-1.6-2.9c-0.5-0.8-1.2-1.4-1.9-2.1c-0.6-0.6-1.2-1.1-1.8-1.6c-0.8-0.6-1.5-1.3-2.2-2c-0.7-0.8-1.3-1.6-2-2.4
		c-0.7-0.9-1.4-1.7-2-2.7c-0.5-0.8-1-1.7-1.5-2.5c-1-1.3-2.2-2.5-3.7-3.1c-0.7-0.3-1.5-0.3-2.3-0.2c-1.8,0.1-3.4,1.1-5.1,1.3
		c-0.7,0.1-1.4,0.4-2.2,0.5c-1,0.1-1.9,0.3-2.9,0.1c-0.7-0.1-1.4-0.1-2.1-0.2c0.8-0.3,1.7-0.1,2.5-0.1c1.9,0.1,3.7-0.4,5.6-0.8
		c0.9-0.2,1.7-0.7,2.5-1c1.1-0.5,2.2-1.2,3.4-1.2c1-0.1,1.9,0.2,2.8,0.5c0.9,0.3,1.6,1,2,1.8c1,1.9,1.9,3.9,3,5.7
		c1,1.6,2.5,2.7,4,3.8c2,1.4,4.1,2.9,5.3,5.1c0.5,0.8,0.8,1.8,1,2.8c0.2,1,0.3,2,0.5,3c0.3,1.2-0.1,3,0.1,4.8c0.2,1.9,0.8,2.4,1,2.9
		c0.6,1.2,1.5,2.1,2,3.3c-0.8-0.4-1.5-0.8-2-1.5c-0.5-0.6-0.7-1.3-0.9-2c-0.3-0.8-0.3-1.6-0.4-2.4C-914,692-914,690-914.2,688.7z
		 M-938,673.5c-0.5,0.2-0.9,0.2-1.4,0.4c-0.7,0.3-1.3,0.8-2.1,0.9c-0.5,0.1-1-0.2-1.4-0.4c-0.6-0.4-1.2-0.9-1.1-1.7
		c0.3,0.4,0.5,0.8,0.8,1.1c0.7,0.6,1.7,0.7,2.5,0.4c1.1-0.4,2.1-1,3.2-1.4C-937.7,673.1-937.8,673.4-938,673.5z M-937.8,675
		c0.5-0.9,1.2-1.8,1.9-2.5c0.6-0.7,1.4-1.3,2.3-1.6c0.2,0.2,0.4,0.5,0.6,0.8c-0.5,0.1-1.1,0.3-1.6,0.6
		C-935.7,673.2-936.6,674.3-937.8,675z M-934.4,673.1c0-0.1-0.1-0.1-0.1-0.2c0.5-0.1,1.2-0.3,1.6,0.2
		C-933.3,673.2-933.8,673.2-934.4,673.1z M-934.4,667.8c-0.6-0.3-1.2-0.4-1.8-0.5c0-0.1,0-0.1,0-0.2c0.8-0.2,1.6-0.2,2.4-0.3
		c1.1,0,2.3,0.3,3.1,1c0.5,0.4,0.9,0.9,1.2,1.5c-0.5,0.4-1.2,0.3-1.7,0.1C-932.4,669.1-933.4,668.3-934.4,667.8z M-932.2,670.5
		c0.7,0.2,1.3,0.6,2,0.6c0.5,0,0.9,0,1.3,0c0.2,0.4,0.4,0.8,0.4,1.3c-1.1,0.1-2.1-0.5-3-1.1C-931.8,671.1-932.2,670.9-932.2,670.5z
		 M-929.4,674.5c-0.6-0.3-1.3-0.6-1.7-1.2c-0.2-0.3-0.3-0.7-0.4-1c0.6,0.4,1.2,0.9,1.9,1.1c0.5,0.2,1.1,0.1,1.7,0.1
		c0.1,0.2,0.3,0.4,0.3,0.7c0,0.4-0.2,0.8-0.4,1.1C-928.4,675.1-928.9,674.7-929.4,674.5z M-929.9,687c0.1-0.5,0.3-1.2,0.7-1.5
		c0.1-0.2,0.3-0.4,0.5-0.4c0,0.4,0.2,5,0.8,6.5c-0.3,0.1-0.5,0.2-0.8,0.3c-0.2-0.3-0.9-2.6-0.9-2.7
		C-930,688.4-929.9,687.5-929.9,687z M-930.6,695.6c0,0,1.1-1.3,1.3-1.5c0.8-0.6,1.7-1.3,2.7-1.2c0.6,0,1.2,0,1.7,0.3
		c-0.6,0.1-1.2,0.3-1.7,0.5c-1.4,0.4-2.4,1.5-3.2,2.6c-0.2,0.2-0.5,0.7-0.7,1c-1,1.4-1.9,3-3.3,4.1c-0.1,0-0.2-0.1-0.2-0.1
		c0.9-1.4,1.5-3,2.4-4.4C-931.2,696.5-931,695.9-930.6,695.6 M-935.1,700.5c0.4-0.8,0.7-1.6,1.2-2.2c0.3-0.3,0.5-0.6,0.7-0.9
		c0.1-0.2,0.4-0.2,0.5-0.2c-0.2,0.5-0.6,1-0.8,1.6c-0.4,0.8-0.8,1.7-1.3,2.5c-0.3,0.5-0.8,0.9-1.3,1.3c-0.1-0.1-0.1-0.2-0.2-0.2
		C-935.8,701.7-935.4,701.2-935.1,700.5z M-945.6,706.4c-0.3,0.4-0.5,0.7-0.9,1.1c-0.1-0.3,0.2-0.6,0.3-0.8c0.5-0.6,0.9-1.4,1.7-1.7
		C-944.8,705.5-945.3,705.9-945.6,706.4z M-942.1,706.4c-0.2,0.2-0.4,0.6-0.7,0.6c-0.5,0.1-1.1-0.1-1.6-0.3c0.3-0.5,0.7-1.1,1.2-1.5
		c0.6-0.4,1.4-0.6,2.1-0.5C-941.4,705.3-941.8,705.8-942.1,706.4z M-935.9,705.8c-1.1,0.1-2.3,0-3.3,0.2c-0.9,0.2-1.5,0.8-2,1.5
		c-0.2,0.2-0.5,0.4-0.8,0.5c0.2-0.3,0.4-0.5,0.6-0.8c0.6-0.6,0.9-1.5,1.5-2.1c0.6-0.5,1.4-0.7,2.1-0.8c0.5-0.1,1,0,1.5,0.2
		c0.7,0.3,1.3,0.4,2,0.8C-934.7,705.6-935.3,705.7-935.9,705.8z M-935.7,709.3c0-0.1-0.1-0.2-0.1-0.2c0.4-0.5,0.8-1,1.1-1.5
		c0.3-0.3,0.5-0.7,0.9-0.9c0.3-0.2,0.6-0.2,0.9-0.2c-0.2,0.6-0.7,1-1,1.6C-934.2,708.8-934.9,709.3-935.7,709.3z M-932.1,707.9
		c-0.1,0.4-0.1,0.8-0.3,1.1c-0.3,0.5-0.9,0.5-1.4,0.3c0.2-0.6,0.5-1.1,0.8-1.6c0.4-0.5,0.9-1,1.4-1.4c0.8-0.4,1.7-0.4,2.5-0.7
		c0.6-0.2,1.1-0.8,1.7-1c0.1,0.4-0.2,0.9-0.5,1.2c-0.7,0.6-1.7,0.6-2.5,0.6C-931.1,706.5-931.9,707.1-932.1,707.9z M-922.8,703.8
		c0,0.8-0.1,1.6-0.4,2.3c-0.3,0.8-0.9,1.3-1.6,1.8c-0.2,0-0.1-0.2,0-0.4c0.5-0.7,0.9-1.6,1.1-2.5c0.2-0.9,0.3-1.8,0.6-2.6
		c0.1-0.2,0.2-0.2,0.3-0.4C-922.7,702.6-922.8,703.2-922.8,703.8z M-921.2,704.9c-0.1,0.5-0.4,0.9-0.8,1.1c0-0.2-0.1-0.4,0-0.6
		c0.2-1,0.2-2,0.2-3c0.1-0.7,0.4-1.3,1-1.6c-0.1,0.6-0.3,1.2-0.3,1.8C-921.1,703.4-921,704.1-921.2,704.9z M-920.3,699
		c-0.8,0.8-2,0.8-2.8,1.5c-0.5,0.5-0.8,1.1-1,1.7c-0.5,1.2-0.4,2.5-0.9,3.7c-0.4,0.8-0.9,1.6-1.7,1.9c-0.4,0.2-0.8,0.1-1.1-0.1
		c-0.4-0.1-0.8-0.2-1.2-0.3c0.6-0.2,1.2-0.1,1.7-0.5c0.6-0.5,1-1.2,1.2-1.9c0.5-1.4,0.3-3.1,1-4.4c0.4-0.8,1.3-1.1,2.1-1.4
		c0.9-0.3,1.8-0.7,2.5-1.3c0.6-0.5,1.3-1.6,1.3-1.6S-919.4,698.3-920.3,699z M-918.3,705.2c-0.7-0.4-1-1.3-1.1-2
		c-0.2-1.3-0.1-2.5,0.2-3.8c0.1-0.4,0.4-1.1,0.5-1.4c-0.1,1.3-0.3,2.9,0.3,4.2c0.3,0.7,0.9,1.3,1.4,1.8c0.4,0.4,1,0.6,1.4,0.9
		C-916.4,705.3-917.4,705.5-918.3,705.2z M-914.3,706.6c-0.5,0.1-1,0.1-1.4,0c1.1-0.8,2.5-1.4,3.8-0.8
		C-912.7,706.2-913.5,706.4-914.3,706.6z M-906.4,708.7c-0.4-0.4-0.6-1-1-1.3c-0.5-0.4-1-0.8-1.5-1.3c-0.5-0.6-1.1-1.1-1.8-1.5
		c-0.5-0.3-1-0.3-1.5-0.6c0.8-0.5,1.8-0.7,2.7-0.3c0.7,0.3,1,0.9,1.4,1.5c0.2,0.5,0.5,0.9,0.8,1.4c0.2,0.4,0.3,0.9,0.7,1.1
		c0.4,0.3,0.9,0.5,1.2,1C-905.8,708.9-906.2,708.9-906.4,708.7z M-899.9,705.9c-0.9,0-1.7,0.1-2.6,0.3c-0.6,0.1-1.3,0.2-1.9,0.1
		c0-0.1,0-0.2,0-0.2c0.6-0.1,1.3-0.1,1.9-0.3c0.9-0.3,1.7-0.7,2.6-0.6c0.7,0.1,1.4,0.5,1.9,0.9
		C-898.6,706.2-899.3,705.9-899.9,705.9z M-894.5,706.4c0.6-0.1,1.2-0.2,1.8-0.2c0.2,0,0.3,0.1,0.5,0.2c-0.7,0.6-1.6,0.9-2.4,0.9
		c-0.7-0.1-1.4-0.3-2.1-0.7C-896.1,706.4-895.3,706.5-894.5,706.4z M-897.1,702.5c0.8,0.3,1.4,0.9,1.8,1.6c0.1,0.1,0.1,0.3,0.1,0.5
		c-0.9-0.6-1.7-1.3-2.3-2.1C-897.4,702.4-897.3,702.4-897.1,702.5z M-901.2,702c0.5-0.1,1,0,1.5,0.2c0.6,0.3,1.1,0.8,1.5,1.3
		c0.5,0.5,1,1,1.4,1.7c-1.3-0.3-2.3-1.4-3.6-1.4c-1.1,0.2-2,0.7-3,1c-0.8,0.2-1.5,0.2-2.3,0c-0.2-0.1-0.4-0.1-0.5-0.3
		c-0.1-0.4-0.2-0.9-0.5-1.3c-0.2-0.4-0.5-0.8-0.6-1.2c0.5,0.2,1,0.6,1.6,0.8c0.6,0.2,1.3,0.2,1.9,0.1
		C-902.9,702.6-902.1,702.2-901.2,702z M-909.8,693.5c-0.5-0.4-0.8-0.6-1.2-0.9c0.4,0.1,0.6,0.2,1,0.3c0.6,0.2,1.8,0.5,2.4,0.8
		c0.6,0.4,1.3,0.8,1.7,1.4c0.4,0.6,1,1.7,1.2,2.4c0.2,0.9,0.2,1.7,0.9,2.6c0.3,0.4,0.8,0.8,1.1,1.2c-0.7,0.2-1.5-0.2-2-0.7
		c-0.8-0.9-1.3-2-2-3.2l-0.6-1.1c-0.5-0.7-0.8-1.3-1.4-1.8C-908.7,694.5-909.6,693.6-909.8,693.5z M-906.4,693
		c-0.2-0.1-0.8-0.2-1-0.3c-1.1-0.5-2.1-0.4-3.6-1.3c0,0-1.1-0.7-1.5-1.9c0.6,0.2,1.5,0.8,2.5,1c0.8,0.2,1.8,0.3,2.5,0.8
		C-906.9,691.7-906.6,692.3-906.4,693z M-907.9,690c-1.1-0.2-2.4-0.3-3.4-0.7c-0.1,0-1.1-0.5-1.2-0.7c-0.2-0.3-0.2-0.8-0.2-1.3
		c0.5,0.2,1.7,0.9,2.3,1.1c0.4,0.1,1.1,0.3,1.6,0.6C-908.4,689.3-908.1,689.6-907.9,690z M-929,684.1c-0.2,0.4-0.6,0.6-0.8,0.9
		c-0.5,0.6-0.7,1.1-1,1.9c-0.2,0.4-0.3,0.8-0.5,1.2c-0.5,0.8-1,1.6-0.9,2.5l0,1c0,0.7,0.1,1.3,0,2c-0.1,0.9-0.4,1.8-1.1,2.5
		c-0.1,0.1-0.8,0.7-0.8,0.7c-0.4,0.5-0.8,0.8-1,1.3c-0.5,0.8-0.8,1.8-1.4,2.5c-1,1.3-2.6,2.1-4.1,2.5c-1.2,0.3-2.5,0.3-3.7,0.8
		c-0.6,0.2-1,0.7-1.3,1.2c-0.4,0.8-0.8,1.6-1.5,2.3c-0.6,0.6-1.7,0.2-2.2,1c0.5,0,0.9-0.2,1.3-0.2c0.6,0,1.2,0.1,1.7-0.1
		c0.6-0.2,1.1-0.8,1.8-0.6c0.8,0.3,1.5,0.8,2.4,1.1c0.4,0.2,0.8-0.1,1.1-0.3c0.5-0.4,1.1-0.8,1.8-1c0.6-0.1,1.1,0.1,1.7,0.1
		c0.6,0.1,1.2,0,1.8,0.1c-0.1,0.2-0.2,0.5-0.4,0.6c-0.4,0.1-0.8,0.1-1.1,0.3c-0.2,0.2-0.6,0.4-0.6,0.8c0.2,0.3,0.6,0.4,1,0.4
		c0.5-0.1,1,0.3,1.5,0.4c0.5,0,0.9-0.4,1.4-0.5c0.6,0.1,1.2,0.5,1.9,0.2c0.5-0.3,0.8-1,1.5-1.1c0.8-0.2,1.4,0.2,2.2,0.3
		c0.9,0.1,1.8,0.2,2.7-0.1c0.8-0.2,1.5-0.3,2.3-0.5c0.8-0.3,1.6-0.7,2.4-0.9c0.6-0.1,1.2-0.3,1.8-0.2c1,0.1,2.1,0.3,3.1,0.4
		c1.1,0.1,2.1-0.1,3.2-0.2c1.6-0.2,3.2-0.1,4.6,0.6c0.6,0.3,1,0.9,1.6,1.3c0.5,0.2,1-0.1,1.6-0.1c0.3,0,0.8,0.1,0.8-0.3
		c0.2-0.5-0.1-1.1-0.4-1.6c0.9-0.2,1.8,0.1,2.7-0.1c1.7-0.3,3.5-0.3,5.1,0.2c1.1,0.4,2.4,0.7,3.6,0.3c0.6-0.2,1.1-0.6,1.7-0.9
		c0.5,0.6,1,1.3,1.7,1.7c0.6,0.3,1.4,0.5,2,0.1c0-0.5-0.4-0.9-0.6-1.3c-0.2-0.4-0.3-0.9-0.7-1.2c-0.4-0.5-1-0.5-1.6-0.5
		c-0.4-0.2-0.5-0.6-0.9-0.8c-0.6-0.2-1.3,0-1.9-0.2c-0.6-0.7-0.8-1.6-1.3-2.3c-0.6-0.8-1.6-1.1-2.5-1.4c-0.7-0.2-1.4-0.4-2-0.4
		c-0.9-0.1-2-0.2-3-0.9c-0.9-0.5-1-3.8-2.1-5.3c-0.6-0.8-0.5-2-1-2.9c-0.2-0.4-1.3-2.6-1.8-3.1c-0.7-0.5-1.9-1.3-2.6-2.3
		c-0.8-1.1-0.5-2.6-1-4c-0.1-0.2-0.2-0.6-0.3-0.8c-0.3-0.6,0.2-1.2,0.5-1.7c0.7-0.9,0.7-2.1,1.3-2.9c0.6-0.8,1.4-1.4,2.3-1.8
		c0.8-0.3,1.7-0.2,2.5-0.4c0.7-0.2,1.5-0.3,2.2-0.1c0.4,0.1,0.8,0.3,1,0.6c0.2,0.4,0.1,0.8,0,1.2c-0.2,0.8-1,1.1-1.5,1.6
		c-0.5,0.3-1,0.4-1.5,0.7c-0.3,0.2,0,0.6,0.3,0.6c0.9-0.1,1.6-0.7,2.4-1.1c-0.2,0.4-0.4,0.7-0.6,1.1c-0.1,0.4-0.1,0.9,0.2,1.1
		c0.1,0,0.2,0.1,0.3,0c0.4-0.3,0-0.9,0.1-1.4c0.1-0.4,0.5-0.6,0.6-1c0.1-0.4,0.2-0.8,0.4-1.1c0.7-1.1,0.2-2.6-0.6-3.5
		c-0.3-0.4-0.9-0.6-1.4-0.7c0.2-0.6,0.5-1.1,0.7-1.6c0.4-0.8,0.9-1.5,1.7-1.9c0.7-0.4,1.5-0.4,2.3-0.4c0.4,0,0.8,0.3,1,0.6
		c0.4,0.5,0.6,1.3,0.6,2c0.2,1.4-0.6,2.8-0.4,4.2c0.1,0.7,0.6,1.3,1.2,1.7c0.5,0.4,1.3,0.3,1.8,0.7c0.4,0.3,0.9,0.5,1.5,0.5
		c1-0.1,1.7-0.7,2.6-1.1c0.9-0.4,1.8-0.7,2.8-0.6c0.6,0.1,1,0.7,1.1,1.2c0.1,0.6-0.9,1.4-0.3,1.6c0.8,0.3,0.8-1.4,0.7-2.1
		c0.4,0,0.8,0.1,1-0.2c0.3-0.4,1.2-0.8,1-1.2c-0.1-0.1-0.3,0-0.5,0.1c-0.4,0.1-0.6,0.7-1,0.7c-0.6,0-1.1-0.5-1.6-0.7
		c-0.5-0.3-1.2-0.4-1.8-0.5c0.4-0.6,0.8-1.3,1.2-1.9c0.7-0.8,1.5-1.6,2.5-1.9c0.5,0,1,0.2,1.3,0.5c0.4,0.5,0.4,1.1,1,1.5
		c0.2,0.1,0.6,0.1,0.6-0.1c0-0.3-0.5-0.3-0.7-0.5c-0.3-0.4-0.3-1-0.5-1.5c0.5-0.2,1.9-0.6,1.4-1.1c-0.3-0.3-0.7,0.4-1.1,0.6
		c-0.8,0.3-1.8-0.2-2.6,0.1c-1,0.4-1.9,0.9-2.7,1.6c-0.8,0.7-1.6,1.3-2.4,1.9c-0.5,0.3-1.3,0.5-1.7,0.1c-0.4-0.4-0.5-1-0.6-1.6
		c0.1-0.7,0.4-1.3,0.3-1.9c0-0.8-0.2-1.7,0.3-2.3c0.4-0.8,1.3-0.8,2.1-1c1.2-0.2,2.4-0.8,3.7-0.4c0.4,0.2,0.5,0.5,0.8,0.8
		c0.3,0.3,0.7,0.4,1.1,0.6c0,0.2-0.1,0.4,0,0.5c0.1,0.1,0.4,0.1,0.5-0.1c0.1-0.1-0.1-0.4-0.1-0.6c0.1-0.1,0.4-0.2,0.4-0.5
		c0-0.1,0-0.3-0.1-0.3c-0.3-0.1-0.5,0.4-0.6,0.6c-0.5-0.1-0.7-0.6-1-0.9c-0.5-0.5-1.2-0.9-1.8-1.3c0.7-0.6,1.3-1.3,2-2
		c0.4-0.5,0.7-1.1,1.3-1.4c0.6-0.4,1.4-0.4,2.1-0.8c0.4-0.3,1.3-0.8,0.9-1.1c-0.4-0.4-1,0.6-1.6,0.8c-0.5,0.2-1.2,0.2-1.6,0.6
		c-0.6,0.4-1,1-1.5,1.5c-0.8,0.6-1.5,1.1-2.4,1.5c-0.6,0.3-1.3,0.7-2,0.7c0.1-0.6,0.1-1.2,0-1.8c0-0.4,0-0.9,0.3-1.1
		c0.7-0.1,1.3,0.3,2,0.7c0.3,0.2,0.7,0.1,0.9-0.2c0.2-0.2,0.1-0.4,0.1-0.7c-0.3,0.1-0.5,0.6-1,0.5c-0.6-0.3-1.2-0.5-1.8-0.8
		c0.2-0.3,0.5-0.5,0.7-0.8c0-0.3-0.4-0.2-0.6-0.2c0,0.2,0,0.4-0.1,0.7c-0.4,0.4-1,0.5-1.3,1c-0.4,0.7-0.4,1.7-1,2.3
		c-0.2,0.2-0.6,0.2-0.9,0.2c-1-0.3-1.8-0.9-2.8-1.3c-0.8-0.3-1.7-0.3-2.5-0.2c-0.7,0-1.3-0.3-2-0.4c-1.2-0.3-2.5-0.3-3.6,0.1
		c-0.6,0.2-1,0.5-1.6,0.8c-0.1-0.5-0.2-1-0.5-1.3c-0.2-0.3-0.5-0.5-0.4-0.9c0-0.5,0.1-1,0.5-1.4c0.2-0.2,0.6-0.2,0.8,0.1
		c0.2,0.3,0.4,0.6,0.6,0.8c0-0.5-0.1-0.9-0.3-1.3c-0.3-0.5-1-0.5-1.3-0.1c-0.4,0.5-0.5,1.1-0.7,1.7c-0.7-0.2-1.3-0.6-2-0.2
		c-0.9,0.5-0.9,1.8-0.2,2.5c0.5,0.5,1.3-0.5,0.9-1c-0.3-0.1-0.8-0.1-0.9-0.5c0.2-0.1,0.4-0.3,0.7-0.3c0.5,0,1.2-0.1,1.5,0.5
		c0.1,0.5,0.1,1.1,0,1.7c-0.3,1.3-1,2.8-2.4,3.3c-0.7,0.3-1.4,0.5-2.1,0.4c-0.6-0.1-1-0.8-1.1-1.3c-0.2-1.3,0-2.6,0.6-3.8
		c0.3-0.6,0.8-1.1,1.3-1.5c1.3-1,2.6-1.8,4.1-2.3c0.4-0.2,0.9-0.1,1.3,0.2c0.7,0.6,1.1,1.4,1.7,2c0.4,0.3,0.9,0.4,1.4,0.7
		c0.4,0.2,0.7,0.6,1.2,0.6c0.5,0.1,1,0.1,1.3-0.3c0.4-0.3,0.5-0.9,1-1.1c0.3-0.2,0.8,0.2,0.7,0.5c-0.1,0.2-0.6,0.3-0.5,0.5
		c0.1,0.3,0.8,0.1,0.9-0.2c0.2-0.5-0.3-1-0.8-1.2c-0.4-0.1-0.8,0.2-1.1,0.3c-0.2-0.5-0.6-1.6-1-1.2c-0.2,0.3,0.4,0.6,0.4,1
		c-0.1,0.7-1,1-1.6,0.7c-0.4-0.4-0.7-0.9-0.9-1.5c-0.2-0.6-0.5-1.1-0.7-1.7c1.1-0.4,2.3-0.5,3.4-0.5c1.1,0,2,0.6,3,1
		c0.8,0.3,1.7,0.2,2.5,0.5c0.9,0.3,1.6,0.9,2.4,1.3c0.6,0.4,1.3,0.4,1.9,0.3c0.5-0.1,1.1-0.2,1.6-0.6c0.5-0.5,0.7-1.3,1.3-1.8
		c0.6-0.3,1.3,0,1.8-0.5c-0.6,0-1.2,0-1.8,0.2c-0.7,0.3-0.9,1.1-1.3,1.6c-0.2,0.3-0.5,0.4-0.8,0.5c0.4-0.4,0.8-0.8,1-1.4
		c0.2-0.5,0-1.1,0-1.6c0.4-0.1,0.7-0.2,1-0.4c0.2-0.1,0.1-0.4-0.1-0.6c-0.4-0.2-0.8-0.2-1.1,0.2c-0.5,0.7-0.1,1.5-0.4,2.3
		c-0.2,0.4-0.5,1-1,1c-0.7,0.1-1.3-0.3-1.7-0.7c-0.8-0.6-1.7-1-2.6-1.5c-0.6-0.3-1.3-0.4-1.8-0.8c0.2-0.2,0.5-0.3,0.8-0.4
		c0.7-0.2,1.3-0.6,2-0.7c1.4-0.2,2.8-0.7,3.9-1.6c0.9-0.7,1.5-1.8,2.6-2.3c0.6-0.3,1.3-0.3,1.9-0.3c0.8,0,1.6,0,2.3,0.4
		c0.5,0.3,0.5,1,0.5,1.5c0,0.3-0.1,0.7,0.2,0.9c0.2-0.7,0.1-1.3,0-2c-0.1-0.5-0.5-0.8-0.9-1.1c0.7-0.2,1.4-0.1,2-0.5
		c0.2-0.1,0.3-0.3,0.4-0.5c-0.7,0.1-1.3,0.4-2,0.4c-1.4-0.1-2.8-0.6-4.3-0.5c-0.8,0-1.4,0.3-2.1,0.5c0.1-0.5,0.4-0.9,0.4-1.3
		c0.2-0.8,0.2-1.7,0.2-2.5c0-0.4,0-0.9,0.2-1.2c0.4-0.6,1.1-0.8,1.8-0.9c0.6-0.1,1.3-0.1,1.7,0.4c0.5,0.5,0.3,1.4,0.8,1.9
		c0.1,0.1,0.3,0.1,0.5,0.2c-0.2-0.5-0.5-0.9-0.5-1.4c-0.1-0.4-0.3-0.7-0.5-1c0.5-0.2,1.1-0.6,1.3-1.2c-0.7,0.1-1.3,0.7-2,0.7
		c-0.8,0-1.7-0.5-2.5-0.3c-0.7,0.3-0.9,1.1-1.3,1.7c-0.6,0.8-0.8,1.8-1,2.7c-0.1,0.3-0.2,0.7-0.4,1s-0.6,0.5-0.9,0.6
		c-0.5,0.2-1.1,0.2-1.6,0.3c-0.5,0-1,0.1-1.5,0.2c0.2-0.4,0.4-0.7,0.6-1c0.4-0.7,0.5-1.5,0.6-2.3c0.1-0.7,0.4-1.3,0.7-1.9
		c0.3-0.5,0.5-1,1-1.4c0.7-0.6,1.5-1,2.3-1.5c0.4-0.3,0.7-0.7,1.2-0.8c0.7,0,1.4,0.3,2.1,0.2c0.4-0.1,1-0.4,0.8-0.7
		c-0.3-0.3-0.8,0.4-1.2,0.4c-0.5,0.1-1.1-0.1-1.6-0.2c0.2-0.5,0.6-0.9,0.6-1.4c0-0.6,0.3-1.5-0.3-1.7c-0.1,0-0.2,0.2-0.3,0.3
		c-0.3,0.5,0.5,1,0.2,1.6c-0.2,0.5-0.5,1-1,1.3c-0.8,0.3-1.7,0.3-2.5,0.5c-0.5,0.1-0.8,0.4-1.3,0.7c-0.1-0.4,0-0.9,0-1.3
		c0-0.8-0.5-1.6-0.5-2.5c0.1-0.4,0.4-0.9,0.8-1.2c0.5-0.2,1,0.1,1.5,0c0.3-0.1,1.1-0.4,0.8-0.6c-0.3-0.4-0.9,0.3-1.4,0.3
		c-0.4,0-0.7-0.1-1.1,0.1c-0.4,0.1-0.8,0.4-1,0.8c-0.1,0.3-0.2,0.6-0.3,0.9c-0.5-0.4-0.5-1-0.5-1.5c0-0.7,1.4-1.2,0.9-1.6
		c-0.7-0.6-1.4,1.3-1.3,2.2c0,0.7,0.4,1.2,0.6,1.9c0.2,0.8,0.2,1.8-0.1,2.6c-0.3,0.7-0.9,1-1.3,1.6c-0.3,0.4-0.4,0.9-0.5,1.4
		c-0.1,0.5-0.7,0.8-0.9,1.2c-0.5,0.8-0.8,1.6-1.3,2.3c-1,1.2-2.3,2.1-3.7,2.9c-0.3,0.2-0.7,0.4-1,0.5c0.2-1.2-0.1-2.3,0.1-3.5
		c0.1-0.4,0.1-0.7,0.2-1.1c0.1-0.2,0.4-0.3,0.6-0.4c0.5,0.4,0.7,1.1,1.3,1.2c0.8,0.2,1.4-0.7,1.4-1.4c0-0.5-0.7-0.8-1-0.3
		c0.2,0.3,0.5,0.5,0.4,0.9c-0.1,0.5-0.9,0.5-1.1,0.1c-0.3-0.4-0.5-1-1-1.1c-0.5-0.1-0.7,0.4-1,0.6c-0.2,0-0.5,0-0.8,0.1
		c-0.3,0.1-0.4,0.4-0.5,0.6c0.1,0,0.2,0,0.3-0.1c0.4-0.1,0.7,0.4,0.6,0.8c-0.1,0.6-0.4,1.1-0.7,1.7c-0.4,0.9-1,1.8-1.9,2.3
		c-0.9,0.6-1.9,1-2.9,1c-1.1,0.1-2.1,0.5-3.2,0.5c0-0.4,0-0.8,0.2-1.2c0.4-0.7,1.1-1.1,1.8-1.3c0.5-0.1,1-0.4,1.6-0.4
		c0.5,0.1,0.8,0.5,1.3,0.5c0.3,0,0.6-0.1,0.8-0.3c0.2-0.2,0.2-0.5,0.1-0.6c-0.3-0.3-0.7,0.4-1,0.5c-0.3,0-0.5-0.2-0.8-0.4
		c0.5-0.2,1-0.3,1.5-0.6c0.5-0.4,0.6-1.3,0.1-1.7c-0.2-0.2-0.7,0-0.7,0.3c0,0.4,0.2,0.9-0.1,1.3c-0.4,0.5-1.3,0.4-1.9,0.2
		c-0.4-0.2-0.8-0.3-1.1-0.4c0.6-0.7,1.3-1.3,2.1-1.9c0.6-0.4,1.2-0.8,1.9-0.9c1.8-0.4,3.5-1.2,4.9-2.3c0.6-0.5,1.2-1.1,1.7-1.6
		c0.2-0.2,0.3-0.4,0.5-0.6c0.6-0.9,1.1-1.9,1.8-2.8c0.3-0.4,0.7-0.6,1-1c0.4-0.5,0.7-1.1,0.7-1.7c0-0.4-0.1-0.8,0-1.1
		c0.3-0.5,0.8-0.8,1.2-1.1c0.6-0.4,1.1-0.8,1.8-1.1c0.5-0.2,1.1-0.2,1.6-0.5c0.6-0.3,1-0.8,1.2-1.4c0.1-0.3,0.3-0.7,0.7-0.6
		c0.3,0.2,0.4,0.6,0.8,0.8c0.2,0.1,0.4,0,0.6,0c-0.2-0.3-0.6-0.4-0.7-0.8c-0.2-0.4-0.5-0.6-0.9-0.8c0.2-0.7,0.3-1.4,0.1-2.1
		c0-0.3-0.2-0.7-0.1-1c0.2-0.3,0.4-0.5,0.7-0.8c-0.5-0.2-0.8,0.3-1,0.7c-0.3,0.8,0.4,1.7,0.1,2.5c-0.2,0.7-0.8,1.2-1.5,1.6
		c-0.3,0.2-0.8,0.2-1.1,0.2c-0.6,0-1.3,0-1.9,0c-0.1-0.7-0.2-1.3-0.3-2c-0.1-0.5,0.6-1.6,1-1.1c0.2,0.2-0.2,0.6,0,0.8
		c0.1,0.2,0.5,0.1,0.6-0.1c0.2-0.3-0.1-0.7-0.3-0.9c-0.3-0.4-0.8-0.3-1.3-0.4c0-0.4,0.1-0.8,0.1-1.1c0-0.4-0.1-0.8-0.5-1
		c-0.3,0-0.7,0.4-0.9,0.2c-0.3-0.3,0.5-0.9,0.2-1.1c-0.5-0.3-1,1.3-0.4,1.5c0.3,0.1,0.7-0.1,1-0.2c0.3,0.5,0.2,1.1,0,1.6
		c-0.3,0.6-0.7,1.1-0.9,1.8c-0.2,0.7-0.2,1.4-0.4,2.1c-0.1,0.5-0.7,0.8-1,1.3c-0.4,0.6-0.6,1.3-1.1,1.9c-0.5-0.5-0.5-1.1-0.9-1.6
		c-0.5-0.8-1.2-1.5-1.9-2.2c-0.4-0.5-0.7-1-0.8-1.7c-0.2-0.7,0.3-1.5,1-1.7c0.4,0.6,0.8,1.4,1.5,1.6c0.5,0.2,1.4-0.2,1.3-0.8
		c-0.1-0.2-0.4-0.3-0.5-0.2c-0.3,0.1-0.1,0.7-0.4,0.8c-0.8,0.3-1.3-0.8-1.4-1.5c0.5-0.3,1-0.5,1.3-1c0.2-0.3,0.2-0.7,0.2-1
		c0-0.3,0.2-0.9-0.1-0.9c-0.5,0-0.1,1-0.3,1.5c-0.1,0.4-0.5,0.5-0.9,0.7c-0.5,0.2-1,0-1.5,0.1c-0.5,0.3-0.7,0.9-0.8,1.4
		c-0.3,1.5,0.3,3,1,4.3c0.5,0.9,1,1.8,1,2.8c-0.1,1.2-0.5,2.3-1.2,3.2c-0.4,0.7-1.1,1.3-1.7,1.9c-1.3,1-2.9,1.7-4.5,1.8
		c0.4-1,0.6-2.2,0.8-3.2c0.2-0.7,0.3-1.3,0.5-2c0.3-0.5,0.9-1,1.6-0.8c0.1,0.4,0.2,1,0.6,1.3c0.2,0.2,0.6,0.2,0.8,0
		c0.2-0.2,0.3-0.4,0.4-0.7c-0.1,0-0.2-0.1-0.2-0.1c-0.2,0.1-0.4,0.2-0.6,0.2c-0.5-0.2-0.6-1-1.1-1.2c-0.9-0.2-1.9,0.3-2.3,1.1
		c-0.8,1.3-1.2,2.9-2.3,4.1c-0.3-0.7-0.5-1.5-0.2-2.2c0.2-0.5,0.8-0.7,1-1.2c0-0.6-1.3-0.9-1.4-0.1c0.3,0,0.7-0.1,1-0.1
		c-0.3,0.6-1,0.8-1.3,1.4c-0.4,0.8-0.3,1.7-0.5,2.5c-0.1,0.5-0.6,1-1.1,0.9c-0.1-0.6,0.1-1.2,0.1-1.8c0.1-0.8,0.3-1.6,0.7-2.3
		c1.1-2,3.2-3.6,5.5-4c0.7-0.1,1.4,0,2-0.1c0.6-0.1,1-0.7,1.5-1c0.2-0.1,0.4,0.2,0.4,0.4c0,0.4-0.5,0.9-0.2,1.2
		c0.1,0.1,0.5,0,0.7-0.2c0.2-0.3,0.4-0.8,0.2-1.2c-0.2-0.3-0.6-0.5-0.9-0.8c-0.4-0.5-0.7-1.3-1.3-1.3c-0.2,0-0.2,0.4,0,0.6
		c0.2,0.2,0.6,0.4,0.4,0.8c-0.1,0.3-0.4,0.7-0.8,0.7c-1.2-0.1-2.4-0.2-3.5-0.3c0.2-0.5,0.5-1,0.7-1.5c0.2-0.6,0.7-1.2,0.9-1.8
		c0.4-1.2,0.8-2.3,0.9-3.6c0.1-0.7,0-1.3,0.2-1.9c0.2-0.5,0.5-1,0.7-1.6c0.1-0.5,0.2-1.1,0.8-1.3c0.6-0.2,1.4-0.3,1.6-1
		c-0.3,0.2-0.5,0.3-0.8,0.5c-0.4,0.2-0.8,0.2-1.1,0.4c-0.3,0.2-0.6,0.4-0.9,0.2c-0.3-0.3-0.5-0.6-0.8-0.8c0,0.7,0.8,1,0.8,1.7
		c0,0.5-0.3,0.8-0.5,1.1c-0.5,0.5-0.7,1.3-0.8,1.9c-0.1,0.4-0.2,0.9-0.5,1.2c-0.4-0.6-0.7-1.2-1-1.8c-0.5-0.9-1.6-1.2-2.3-1.9
		c-0.3-0.3-0.8-0.8-0.6-1.3c0.1-0.5,1-1.4,0.4-1.4c-0.7-0.1-0.6,1.2-1,1.8c-1-0.8-1.6-2.1-1.4-3.3c0.1-0.7,1.5-1.3,0.9-1.6
		c-0.4-0.3-0.7,0.7-1,1c-0.4,0.6-0.3,1.3-0.2,1.9c0.3,1.3,1.3,2.1,2.2,3c0.7,0.7,1.2,1.4,1.7,2.2c0.3,0.4,0.6,0.9,0.8,1.3
		c0.3,0.6,0.3,1.3,0.2,2c-0.1,0.9-0.7,1.8-1.4,2.3c-0.3-0.6-0.5-1.3-0.7-2c-0.2-0.6-0.4-1.3-0.5-1.9c0-0.2,0.1-0.3,0.2-0.3
		c0.2-0.1,0.7-0.4,0.8-0.1c0.1,0.3-0.4,0.8-0.1,1c0.7,0.5,0.3-1.7-0.4-1.6c-0.4,0.1-1-0.1-1.2,0.3c-0.1,0.2,0.3,0.4,0.3,0.7
		c0,0.4-0.1,0.8-0.2,1.2c-0.1,0-0.1,0-0.2,0c-0.6-0.5-1-1.2-1-2c-0.1-0.5,0.4-1,0.5-1.5c-0.1-0.4-0.4-0.8-0.7-1
		c-0.4-0.4-1.1-0.2-1.6-0.3c-0.2-0.2-0.1-0.6-0.4-0.7c-0.1-0.1-0.3,0-0.4,0.1c-0.1,0.2,0,0.5,0.2,0.6c0.3,0.3,0.7,0.2,1,0.3
		c-0.1,0.4-0.4,0.9-0.1,1.1c0.1,0.1,0.2,0,0.4,0c0.3-0.2,0.4-0.6,0.6-0.9c0.1,0.2,0.3,0.3,0.4,0.5c0.1,0.7-0.3,1.3-0.2,2
		c0.1,1.1,0.8,2,1.3,3c0.4,0.7,0.8,1.5,0.6,2.4c-0.1,0.5-0.6,0.9-1.1,1.2c-1.4,0.8-2.9,1.5-3.8,2.8c-0.3,0.4-0.5,1-0.8,1.4
		c-0.2-0.2-0.4-0.5-0.5-0.8c-0.3-0.7-0.2-1.4-0.1-2.2c0.2-1,0.8-1.8,1.3-2.7c0.4-0.7,1-1.4,1.1-2.3c0.1-0.6-0.5-1-0.8-1.5
		c-0.2-0.3-0.4-0.6-0.7-0.8c0.4-0.6,1.5-0.4,1.2-1c-0.1-0.2-0.5-0.3-0.7-0.1c-0.2,0.2-0.5,0.7-0.6,1c-0.1-0.1-0.3-0.3-0.4-0.4
		c-0.2-0.2-0.5-0.5-0.8-0.5c-0.3,0-0.6,0.2-0.6,0.4c0,0.2,0.2,0.3,0.4,0.4c0.3,0,0.5-0.2,0.8-0.1c0.7,0.2,0.9,1.2,1.3,1.8
		c0.2,0.4,0.4,0.9,0.2,1.3c-0.5,0.8-1.2,1.3-1.8,2c-0.4,0.4-0.7,0.9-1,1.3c-0.5-0.6-0.6-1.4-0.8-2.1c-0.2-1.1-0.6-2.2-0.7-3.4
		c-0.1-1.1-0.1-2.1,0.1-3.2c0.1-0.6,0.3-1.3,0.6-1.9s1.1-0.8,1.5-1.3c0.4-0.5,0.5-1.1,0.8-1.6c0.4-0.6,1.2-0.8,1.7-1.2
		c0.3-0.3,0.4-0.8,0.2-1.2c-0.2-0.3-0.6-0.4-0.8-0.6c-0.2-0.2,0.1-0.7-0.2-0.8c-0.2,0-0.1,0.4-0.1,0.5c0,0.5,0.5,0.8,0.8,1.2
		c-0.3,0.7-1.1,0.9-1.7,1.3c-0.4,0.2-0.7,0.7-0.9,1.1c-0.2-0.1-0.4-0.3-0.6-0.4c0,0.5,0,1.1-0.3,1.5c-0.3,0.4-0.8,0.7-1.2,1.1
		c-0.4,0.5-0.8,1-1.2,1.5c-0.4,0.6-0.6,1.3-0.8,1.9c-0.4-0.4-0.8-0.8-1.2-1.2c-0.6-0.5-1.2-1.1-1.6-1.7c-0.2-0.3-0.5-0.6-0.4-1
		c0.2-0.5,0.4-1.1,0.5-1.6c0.2-0.7-0.1-1.4-0.5-1.9c-0.2-0.2-0.5-0.5-0.4-0.8c0-0.6,1.1-1.3,0.7-1.6c-0.6-0.4-1,1.2-0.9,1.9
		c0.1,0.4,0.6,0.8,0.4,1.2c-0.5-0.4-1.3-1.4-1.8-0.9c-0.1,0.1-0.1,0.2,0,0.3c0.2,0.3,0.8,0.1,1.1,0.3c0.3,0.2,0.7,0.4,1,0.7
		c0.2,0.5-0.1,1-0.2,1.4c-0.3,0.8-0.5,1.7-0.2,2.5c0.4,1,0.9,1.8,1.6,2.6c0.5,0.5,1.1,0.9,1.5,1.6c0.1,0.2,0.1,0.4,0.1,0.7
		c-0.1,0.7-0.1,1.3,0,2c0.1,0.9,0.5,1.7,0.9,2.6c0.3,0.8,0.8,1.5,1.4,2.1c0.7,0.6,1.3,1.3,2,2c0.5,0.5,0.9,1.2,1,1.9
		c-0.3-0.1-0.5-0.3-0.7-0.5c-0.8-0.9-1.7-1.9-2.5-2.8c-1.2-1.5-1.7-3.5-2.9-4.9c-0.7-0.7-1.5-1.5-2.4-1.9c-0.5-0.2-0.7-0.8-1.1-1.2
		c-0.4-0.3-0.8-0.6-1.2-0.8c-0.6-0.4-1.1-0.8-1.6-1.4c-0.4-0.4-0.5-1-0.4-1.5c0.1-0.5,0.5-0.8,0.7-1.2c0.1-0.3,0-0.7-0.1-1
		c-0.1,0.1-0.2,0.1-0.2,0.2c0,0.2,0,0.4,0,0.6c0,0.7-0.8,1.1-0.8,1.8c0,0.9,0.6,1.7,0.6,2.6c-0.6-0.2-1.2-0.6-1.8-0.6
		c-0.8,0-1.4,0.7-2.2,0.8c0-0.2,0-0.5,0.1-0.7c-0.4,0.2-0.5,0.5-0.4,0.9c0.3,0.1,0.7,0.2,1,0.1c0.5-0.2,0.8-0.7,1.4-0.6
		c0.9,0.2,1.6,1,2.3,1.6c0.7,0.6,1.5,1.1,2.3,1.6c1.2,0.8,2.3,1.8,2.8,3.2c-0.6,0.1-1.2-0.4-1.8-0.4c-0.7-0.1-1.3,0.1-1.9,0.1
		c-0.2,0-0.4-0.1-0.5-0.3c0.1-0.3,0.5-0.6,0.3-0.8c-0.2-0.2-0.5,0.3-0.5,0.5c-0.1,0.3,0,0.6,0,0.8c-0.2,0.1-0.5,0.2-0.6,0.4
		c-0.2,0.3-0.3,0.8,0,1c0.1,0,0.2,0,0.2,0c0.3-0.2,0.1-0.9,0.5-1c0.3-0.1,0.6,0,1,0.1c0.8,0.2,1.7,0.3,2.5,0.7
		c0.7,0.3,1.3,0.8,2,1.2c0.9,0.6,1.9,1.4,2.4,2.5c0.5,0.8,0.5,1.8,0.6,2.7c0.1,1-0.2,2-0.3,3c-0.2,1.2-0.5,2.4-0.7,3.5
		c-0.2,1.5-0.2,3-0.8,4.3c-0.4,0.8-1.1,1.7-2,1.9c-0.1-0.3-0.2-0.6-0.3-0.9c-0.2-1-0.4-2-0.6-3.1c-0.2-1.4,0-2.8,0.2-4.2
		c0.2-1,1.2-1.4,1.6-2.3c0.4-0.8,0.6-1.7,1.3-2.2c0.4,0,0.6,0.5,1,0.3c0.2-0.2,0.4-0.4,0.2-0.7c-0.2-0.4-0.7-0.3-1-0.4
		c0.1-0.9,0.6-1.7,0.2-2.6c-0.2-0.6-1-0.9-1.6-0.6c-0.2,0.1-0.2,0.4-0.2,0.6c0.2,0.2,0.4,0.1,0.7,0.2c0.1,0.2,0.3,0.4,0.2,0.7
		c-0.3,0.8-0.9,1.5-1.7,1.8c-0.2-1-0.1-2-0.7-2.8c-0.5-0.7-1.2-1-1.9-1.4c0.2-0.2,0.6-0.4,0.6-0.6c0-0.3-0.5-0.3-0.8-0.2
		c-0.3,0.1-0.4,0.5-0.5,0.7c-0.2,0-0.4,0-0.5-0.2c-0.1-0.2,0-0.5-0.1-0.5c-0.1-0.1-0.4,0-0.5,0.2c-0.4,0.7,1,0.8,1.6,1.2
		c0.8,0.5,1.3,1.5,1.2,2.5c-0.1,1.1-0.6,2.1-1.2,3.1c-0.3-0.3-0.5-0.8-0.7-1.1c-0.3-0.5-0.8-0.8-1.1-1.3c-0.7-1.2-1.6-2.4-1.8-3.8
		c-0.2-1.1-0.2-2.3,0.4-3.2c0.3-0.5,0.7-0.8,1-1.2c0.2-0.3,0.5-0.8,0.2-0.9c-0.3-0.1-0.4,0.5-0.6,0.8c-0.2-0.2-0.2-0.5-0.5-0.7
		c-0.3-0.2-0.8-0.6-1-0.3c-0.2,0.4,0.9,0.3,1,0.8c0.2,0.8-0.6,1.4-1.1,2c-0.5,0.6-0.6,1.3-0.9,2c-0.5-0.5-0.9-1.2-1.3-1.8
		c-1.2-2-1.9-4.4-1.6-6.8c0.1-0.8,0.5-1.6,0.6-2.5c0-1-1-1.8-1-2.8c0.2-0.6,1.6-0.9,1.1-1.3c-0.4-0.3-1,0.5-1.3,1
		c-0.2,0.2,0,0.6-0.1,0.9c-0.3-0.1-0.6-0.2-0.9-0.4c-0.3-0.3-0.3-0.8-0.6-1.1c0,0-0.2-0.1-0.2-0.1c-0.3,0.2,0.1,0.8,0.3,1.1
		c0.4,0.5,1.2,0.6,1.6,1.1c0.4,0.7,0.1,1.4-0.1,2.1c-0.4,1.8-1,3.5-1,5.4c0,0.4,0.1,0.8,0,1.2c-1.3-0.3-2.5-0.8-3.5-1.7
		c-0.7-0.7-0.4-1.9,0.1-2.6c0.2,0.1,0.5,0.4,0.7,0.3c0.4-0.2,0.1-0.9-0.4-1c-0.4-0.1-0.5,0.4-0.7,0.6c-0.2,0.7-0.6,1.3-0.5,2
		c0.4,1.4,1.6,2.3,2.8,3.1c1,0.6,2,1.3,2.4,2.4c0.4,1.1,0.4,2.3,0.8,3.4c0.1,0.2,0.1,0.4,0.1,0.7c-0.8-0.5-1.2-1.4-1.8-2
		c-0.5-0.5-1.2-0.8-1.8-1c-0.8-0.3-1.8-0.5-2.6-0.8c-0.5-0.2-0.9-0.7-1.3-1.1c-0.4-0.4-0.7-1-0.8-1.5c-0.4-1.1-0.6-2.3-1.1-3.3
		c-0.3-0.7-1.3-1.3-1.1-2c0.1-0.6,1.1-1.3,0.6-1.7c0,0-0.1,0-0.2,0c-0.5,0.4-0.8,1.1-1,1.8c-0.5,0-1.4-0.7-1.6-0.2s1,0.4,1.5,0.7
		c0.4,0.2,0.4,0.6,0.6,1c0.2,0.6,0.6,1.1,0.7,1.7c0.1,0.6,0,1.2,0.1,1.7c0,0.4,0,0.8,0,1.1c-0.5-0.1-1-0.3-1.6-0.4
		c-1-0.1-2.1-0.2-3.1-0.3c-0.7-0.1-1.2-1.5-1.7-1.1c-0.2,0.2,0.1,0.5,0.1,0.7c0,0.3-0.1,0.5-0.1,0.8c0,0.3,0.2,0.5,0.2,0.8
		c-0.1,0.2-0.6,0.4-0.5,0.5c0.1,0.2,0.5,0,0.7-0.2c0.3-0.4-0.3-0.8,0-1.1c0.2-0.2,0.5,0,0.8,0.1c1.1,0.5,2.2-0.1,3.2,0.4
		c1.2,0.5,2.1,1.5,3.1,2.4c0.9,0.9,1.9,1.6,2.7,2.5c0.3,0.3,0.5,0.7,0.6,1.1c-1.1,0.3-2.3,0.4-3.3,0.1c-0.9-0.3-1.8-0.7-2.3-1.5
		c-0.4-0.7-0.2-1.4-0.2-2.2c0-0.4-0.2-0.7-0.3-1.1c-0.1-0.2,0.2-0.6-0.1-0.8c-0.2-0.1-0.6,0.2-0.7,0.4c0,0.4,0.6,0.5,0.6,0.9
		c0,0.7-0.3,1.3-0.7,1.9c-0.4-0.2-0.8-0.4-1.2-0.5c-0.4-0.1-0.8-0.2-1.1,0.1c-0.2,0.2-0.2,0.7,0,0.8c0.3,0.2,0.3-0.5,0.6-0.6
		c0.3-0.2,0.7,0.2,0.9,0.4c0.5,0.5,1,1.1,1.6,1.7c0.3,0.4,0.8,0.6,1.3,0.9c-0.7,0.2-1.4,0.3-2.1,0.4c-1.4,0.3-2.9-0.1-4.3-0.8
		c-0.6-0.3-0.5-1.2-1.1-1.4c-0.3-0.1-1,0-0.9,0.3c0,0.4,0.9,0.3,1.2,0.6c0.3,0.3,0.6,0.7,1,0.9c0.7,0.4,1.4,0.5,2,1
		c-0.5,0.4-1.1,0.7-1.8,1c-0.5,0.2-1,0.4-1.5,0.1c-0.3-0.3-0.4-0.8-0.8-1.1c-0.1-0.1-0.4-0.2-0.5-0.1c-0.3,0.4,1.1,0.7,0.8,1.1
		c-0.1,0.2-0.5,0.1-0.8,0.2c-0.2,0.1-0.4,0.4-0.2,0.6c0.2,0.3,0.8-0.1,1.2-0.2c0.5-0.1,1.1,0.2,1.6,0c0.5-0.1,0.8-0.4,1.2-0.6
		c0.5-0.3,1.1-0.5,1.8-0.6c1-0.2,2-0.2,2.9-0.2c1,0,2,0.4,3,0.5c1.9,0.1,3.8,0.2,5.7,0.8c0,0.2,0,0.4,0,0.6
		c-0.4,0.3-0.9,0.4-1.3,0.7c-0.6,0.4-0.7,1.3-0.3,1.9c0.4,0.6,1,1.2,0.9,2c-0.1,0.7-0.4,1.4-0.5,2.2c-1-0.5-1.5-1.5-2-2.4
		c-0.3-0.7-0.7-1.4-1-2.1c-0.2-0.5-0.9-0.6-1.1-1.1c-0.1-0.5,0.4-1.1,0-1.4c-0.3-0.2-0.6,0.3-0.8,0.5c-0.2-0.2-0.5-0.5-0.8-0.6
		c-0.3-0.2-0.7,0-0.9,0.2c-0.2,0.2-0.4,0.6-0.2,0.8c0.3,0.4,1-0.2,1.5-0.1c0.3,0.2,0.4,0.5,0.5,0.7c0.3,0.6,1.1,0.9,1.3,1.6
		c0.1,0.6,0.2,1.3,0.2,1.9c-0.4-0.4-0.6-1-1-1.3c-0.5-0.5-1-0.9-1.6-1.1c-0.9-0.3-1.9-0.3-2.9-0.1c-0.8,0.2-1.6-0.2-2.3-0.4
		c-0.1-0.5,0.3-0.8,0.5-1.2c0-0.1,0-0.2-0.1-0.3c-0.3,0-0.7,0-0.8,0.4c-0.1,0.4-0.1,0.8-0.1,1.3c1,0.4,2,0.5,2.9,0.9
		c0.7,0.3,1.5,0.1,2.3,0.5c0.5,0.2,1,0.7,1.3,1.2c0.6,0.9,0.8,2,1.1,3c-0.7,0-1.3-0.3-1.9-0.7c-0.5-0.3-1.6-0.3-1.4-0.9
		c0.1-0.2,0.5-0.1,0.7-0.3c0,0,0-0.2,0-0.2c-0.2-0.2-0.5-0.2-0.7-0.1c-0.2,0.1-0.4,0.3-0.3,0.6c0.1,0.2,0.2,0.4,0.3,0.5
		c-0.2,0.2-0.5,0.5-0.4,0.8c0,0.5,0.8,1.6,1,1.1c0.1-0.2-0.4-0.4-0.5-0.6c-0.3-0.4,0.2-0.9,0.6-0.7c0.5,0.2,0.9,0.7,1.3,1.1
		c0.4,0.4,0.8,0.6,1.3,0.8c-0.6,0.5-1.3,1-2,1.3c-0.6,0.2-1.3,0.5-1.9,0.1c-0.7-0.5-1-1.3-1.3-2c-0.3-0.6-0.8-1.1-1.1-1.6
		c-0.5-0.7-0.8-1.4-1.4-2c-0.7-0.6-1.5-1.2-2.4-1.4c-0.5-0.2-1.1-0.1-1.6-0.2c-0.7-0.1-1.9-0.9-1.4-1.4c0.1-0.2,0.5,0.2,0.6,0
		c0.1-0.1-0.1-0.3-0.2-0.4c-0.1-0.1-0.3,0-0.4,0c-0.2,0.1-0.2,0.4-0.4,0.7c-0.4,0.1-1.1-0.1-1.1,0.3c0.1,0.2,0.5,0.1,0.8,0.1
		c0.7,0,0.9,0.9,1.4,1.1c0.6,0.3,1.3,0.3,1.9,0.5c0.9,0.2,1.7,0.8,2.1,1.7c-0.5-0.1-1-0.3-1.5-0.4c-0.7-0.1-1.5,0.1-2,0.7
		c-0.3,0.3-0.5,0.8-0.9,1.1c-0.2,0.1-0.5,0.1-0.6-0.1c-0.4-0.4,0-1-0.2-1.4c-0.2-0.3-0.8-0.4-0.9-0.1c-0.1,0.2,0.3,0.4,0.4,0.6
		c0.1,0.3,0,0.7,0.1,1c0.2,0.5,0.8,0.8,1.3,1c-0.2,0.2-0.5,0.2-0.7,0.1c-0.4-0.3-0.6-1-1-0.9c-0.1,0-0.1,0.2-0.1,0.2
		c0.1,0.5,0.8,0.8,1.3,1c0.3,0.1,0.7,0,1-0.1c0.2,0.4,0.4,1,1,1c0.3,0,0.7-0.2,0.5-0.5c-0.2-0.4-1-0.3-1.1-0.8
		c-0.2-0.3,0.1-0.6,0.3-0.9c0.4-0.5,1.3-0.6,1.9-0.3c0.6,0.4,1.2,0.8,1.6,1.4c0.8,1,1.7,2.1,2.8,2.9c1.1,0.6,2.4,1.1,3.7,1.1
		c1,0,1.9-0.2,2.8-0.2c0,0.6-0.4,1.3,0,1.8c0.2,0.2,0.5,0.4,0.5,0.7c-0.4,0.4-0.9,0.4-1.4,0.4c-0.3,0-0.7-0.2-0.8-0.5
		c-0.1-0.3,0.1-0.6,0.2-0.8c-0.3-0.2-0.8,0.1-0.7,0.5c0.2,0.8,0.9,1.3,1.7,1.3c0.5,0,1-0.2,1.5-0.2c0.7,0,1.5-0.1,2.2,0.3
		c0.8,0.5,1.3,1.4,1.9,2.1c-0.7,0.2-1.4,0.3-2.1,0.6c-1.1,0.3-2.1,0.9-3.2,1.1c-0.4,0.1-0.7-0.3-0.9-0.5c-0.8-0.9-1.1-2.2-1.8-3.1
		c-0.4-0.5-1-0.9-1.4-1.3c0.2-0.2,0.3-0.4,0.5-0.6c-0.1-0.2-0.4-0.3-0.7-0.2c-0.3,0.2-0.2,0.6-0.2,0.9c-0.2-0.1-0.4-0.2-0.6-0.3
		c-0.1-0.2,0-0.5-0.1-0.8c-0.2,0-0.6,0.2-0.5,0.5c0.4,0.8,1.3,0.9,1.9,1.6c0.3,0.5,0.4,1.1,0.6,1.6c0.1,0.7,0.3,1.3,0.4,2
		c-0.5-0.1-0.9-0.2-1.4-0.4c-0.8-0.4-1.5-0.8-2.1-1.4c-0.5-0.5-0.8-1.2-1.2-1.8c-0.7-0.8-0.8-2-1.4-2.8c-0.3-0.5-0.9-0.8-1-1.4
		c0-0.4,0.3-0.6,0.5-0.9c0.2,0.1,0.4,0.2,0.6,0.2c0.1-0.1,0-0.2-0.1-0.3c-0.4-0.3-0.9-0.2-1.3-0.5c-0.2-0.2-0.3-0.6-0.5-0.9
		c-0.1,0-0.2,0-0.2,0.1c-0.1,0.4,0.2,0.7,0.4,1c0.3,0.3,0.1,0.7,0,1.1c-0.2,0.8,0.4,1.7,0.2,2.5c-0.8,0.1-1.6-0.1-2.4,0
		c-0.7,0.1-1.5,0.1-2.1-0.4c-0.7-0.5-1.2-1.3-1.3-2.2c-0.1-0.4,0.6-1,0.3-1.3c-0.2-0.2-0.5,0-0.6,0.2c-0.1,0.3-0.1,0.6-0.2,0.9
		c-0.7-0.2-1.5-0.2-2,0.2c0,0,0,0.2,0,0.2c0.3,0.3,0.8,0,1.3,0c0.2,0,0.5,0,0.6,0.2c0.6,0.8,0.3,1.9,1,2.6c0.8,0.7,1.9,0.6,2.7,1.1
		c-0.3,0.2-0.6,0.4-1,0.6s-0.6,0.5-0.9,0.7c-0.4,0.4-1.1,0.1-1.4,0.5c0,0.1,0,0.2,0,0.3c0.3,0.3,0.9,0.2,1.3-0.1
		c0.4-0.3,0.8-0.8,1.3-1.1c0.4-0.2,0.9-0.5,1.3-0.4c0.7,0.1,1.4,0.5,1.7,1.2c0.4,0.9,0.7,1.8,1.3,2.5c0.5,0.6,1.5,0.7,2,1.3
		c0.2,0.2,0.2,0.6,0.2,0.9c-1,0.2-2-0.2-2.8-0.6c-0.7-0.3-1.5-0.3-2.3-0.2c-0.7,0.2-1.4,0.6-1.7,1.3c-0.4,0.6-0.4,1.4-0.7,2.1
		c-0.2,0.4-0.6,0.7-1.1,0.7c-0.7-0.2-0.6-1.2-1-1.7c0,0-0.2-0.1-0.2,0c-0.5,0.4,0.2,1.2,0.4,1.7c-0.7-0.1-1.3-0.5-1.7-1.1
		c-0.3-0.5,0.3-1.4-0.2-1.7c-0.1,0-0.2-0.1-0.3,0c-0.4,0.4-0.1,1.1,0.1,1.6c0.2,0.6,0.7,1,1.2,1.4c0.8,0.4,1.7,0.5,2.5,0.4
		c1-0.3,1.7-1.1,2.5-1.7c0.5-0.4,1.2-0.7,1.9-0.4c0.6,0.2,1.2,0.5,1.8,0.9c-0.4,0.3-0.9,0.5-1.3,0.9c-0.5,0.5-0.8,1.3-1.1,2
		c-0.4,1.1-0.4,2.3-0.9,3.4c-0.3,0.6-0.9,1.1-1.6,1.2c-0.5-0.1-0.9-0.5-1.2-0.9c-0.4-0.5-0.9-0.8-1.4-1.1c-0.2-0.2,0-0.5-0.2-0.7
		c-0.2-0.2-0.7,0.3-0.5,0.6c0.2,0.4,0.7,0.5,1,0.7c0.6,0.4,1,1,1.3,1.6c-0.2,0.2-0.5,0.3-0.5,0.6c0.1,0.4,0.7,0.2,1,0.2
		c0.5,0.1,0.9,0.7,1.5,0.6c0.9-0.1,1.5-0.9,2.1-1.4c0.2,0.5,0.2,1.2,0.7,1.5c0.4,0.3,0.8,0.5,1.1,0.9c0.1,0.5-1,0.9-0.7,1.3
		c0.2,0.2,0.5,0,0.7-0.2c0.2-0.2,0.3-0.5,0.5-0.8c0.3,0.2,0.7,0.6,1,0.4c0.1-0.1,0.2-0.2,0.2-0.2c-0.2-0.4-0.9-0.3-1.2-0.7
		c-0.7-1.2-1.2-2.7-0.8-4.1c0.2-0.9,0.9-1.5,1.5-2.1c0.8-0.7,1.6-1.2,2.5-1.6c0.6-0.3,1.2-0.3,1.8-0.3c0.8,0,1.5-0.4,2.3-0.5
		c0.7-0.2,1.4-0.1,2.1,0c0.6,0.1,1.1,0.2,1.7,0.4c0.4,0.1,0.7,0.5,0.6,1c-0.1,0.8-0.6,1.3-1.1,1.9c-0.4,0.4-0.8,0.9-1.4,1
		c-1.3,0.3-2.3,1.3-3.6,1.6c-0.5,0.1-1,0.1-1.5-0.1c-0.6-0.2-1-0.8-0.9-1.4c0.1-0.3,0.4-0.4,0.6-0.7c0.1-0.2-0.1-0.5,0.1-0.7
		c0.2-0.2,0.7,0,0.9-0.3c0.2-0.2,0.1-0.5-0.1-0.6c-0.3-0.1-0.6,0.2-0.8,0.4c-0.4,0.5-1.6,0-1.5,0.6c0,0.3,0.6,0.2,0.7,0.5
		c0.1,0.3-0.4,0.6-0.6,0.9c-0.1,0.3,0,0.6,0.1,0.9c0.1,0.7,0.7,1.1,1.2,1.5c0.6,0.5,1.4,0.5,2.2,0.4c0.9-0.1,1.6-0.8,2.5-0.8
		c0,0.5-0.2,1-0.1,1.5c0.1,0.8,0.9,1.2,1,2c0.1,0.6,0.4,1.3,0.3,1.9c-0.1,0.4-0.8,0.7-0.5,1c0.3,0.5,0.9-0.6,1-1.1s-0.5-1.1-0.2-1.5
		c0.3-0.3,0.9-0.1,1.2-0.4c0.2-0.2,0.4-0.4,0.2-0.6c0,0-0.2,0-0.2,0c-0.2,0.1-0.2,0.4-0.4,0.5c-0.3,0.1-0.6,0-0.8-0.2
		c-0.2-0.3-0.4-0.7-0.6-1c-0.2-0.3-0.1-0.8,0.1-1c0.3-0.6,0.9-0.9,1.4-1.3c0.3-0.2,0.6-0.5,1-0.5c1,0,1.9,0.2,2.8,0.3
		c0.5,0,0.8,0.4,1.1,0.6c0.7,0.4,1.4,0.7,2,1.2c0.4,0.4,0.6,1,0.6,1.6c-0.1,0.8-0.1,1.7-0.1,2.6c0,0.5,0.5,1,0.4,1.7
		C-928.6,682.9-928.8,683.6-929,684.1z M-911.6,685.5c0.1,0.4,0.7,1.5,0.8,1.8c-0.3,0-1-0.4-1.2-0.6c-0.6-0.6-0.5-1.3-0.5-2.8
		c0-0.2,0.1-1.2,0.3-1.3C-911.9,683.3-911.8,684.8-911.6,685.5z M-900.6,668.6c-0.8,0.2-1.5,0.8-2,1.4c-0.6,0.8-0.7,2-1.6,2.6
		c-1.2,0.8-2.8,0.8-4,1.6c-0.5,0.3-1,0.8-1.6,1.1c0.6-1.2,2-1.8,3.1-2.5c1.8-1,2.8-2.8,4.5-4c0.9-0.6,1.9-0.8,3-0.7
		C-899.7,668.5-900.2,668.4-900.6,668.6z M-894.1,673c-0.2,0.8-0.5,1.6-0.7,2.4c-0.1,0.5,0,1.1,0,1.6c-1-0.5-1.5-1.8-1-2.8
		c0.3-0.9,0.9-1.7,1.1-2.6c0.2-0.7,0.2-1.5,0.4-2.3C-893.8,670.5-893.8,671.8-894.1,673z M-892.2,676c1.1,0.1,2-0.6,2.8-1.1
		c0.1,0.3-0.2,0.5-0.3,0.7c-0.6,0.9-1.6,1.6-2.6,1.8c-0.5,0.1-1.2,0-1.5-0.6c-0.2-0.6-0.1-1.2,0-1.8
		C-893.3,675.4-892.8,675.9-892.2,676z M-890.7,664.5c0.1,0.5,0.1,1.3-0.4,1.6C-891,665.6-891,665-890.7,664.5z M-893.7,666.5
		c1.1,0.4,2.3,0.4,3.4,0.1c1-0.2,2-0.7,2.9-1.3c0.3-0.2,0.6-0.3,0.9-0.5c-0.3,0.5-0.8,0.7-1.3,1c-1,0.6-2.1,1.1-3.2,1.4
		c-0.9,0.2-1.7,0.2-2.6,0.2c-0.4,0-0.7-0.4-1-0.7c-0.5-0.5-1.4-0.7-1.8-1.4C-895.5,665.6-894.6,666.2-893.7,666.5z M-905.2,666.1
		c0.8-0.7,1.7-1.3,2.8-1.3c-0.4,0.4-1,0.6-1.4,0.9c-0.7,0.4-1.1,1.1-1.8,1.6C-905.5,666.8-905.5,666.4-905.2,666.1z M-909.8,669.7
		c0.9-0.4,1.8-1,2.4-1.9c0.5-0.6,0.7-1.4,1-2.1c0.2,0.6,0,1.2-0.1,1.8c-0.3,0.9-0.6,1.9-1.4,2.5c-0.8,0.6-1.8,1-2.8,0.7
		c-0.4-0.1-0.7-0.4-1-0.7C-911.1,669.9-910.4,669.9-909.8,669.7z M-911.3,660.9c-1.5,1.1-2.6,2.8-2.8,4.7c-0.1,1.2-0.1,2.5,0.4,3.7
		c0.5,1.1,1.3,2.2,2.5,2.5c0.8,0.2,1.7,0.2,2.5,0c1.3-0.3,2.2-1.3,3-2.3c0.8-0.8,1.4-1.8,2.2-2.6c0.5-0.4,0.9-0.8,1.5-1.1
		c1-0.5,2.2-0.5,3.3-0.2c1.1,0.4,2.2,1,2.7,2c0.4,0.6,0.4,1.4,0.4,2.1c-0.4-0.4-0.4-1-0.8-1.4c-0.7-0.9-1.7-1.5-2.8-1.7
		s-2.2,0.1-3.2,0.5c-1,0.5-1.9,1.2-2.6,2.1c-0.8,1-1.9,1.8-3,2.5c-1,0.6-2.1,1.3-2.8,2.3c-0.1,0.2-0.2,0.3-0.4,0.4
		c-0.4-1.5-1.3-2.7-2-4.1c-1-1.4-1.7-3.1-1.7-4.9c0-2.6,2-5,4.4-5.8C-910.7,660.5-911,660.7-911.3,660.9z M-906.2,658.3
		c-1.5,0.4-3.1,0.8-4.6,1.2c-1.4,0.5-2.8,1.3-3.7,2.5c-0.6,0.8-1,1.9-1.2,2.9c-0.2,1.6-0.1,3.2,0.6,4.7c0.8,2.1,2.2,3.8,3,5.9
		c0.2,0.6,0.1,1.1,0.1,1.7c0,0.2-0.2,1-0.2,1.1c-0.1-0.3-0.4-1.1-0.5-1.6c-0.2-0.8-0.6-1.5-0.9-2.2c-0.7-1.6-1.7-2.9-2.4-4.5
		c-0.5-1-0.8-2.1-1-3.2c-0.2-1.8,0.3-3.7,1.2-5.3c1.1-2,3.3-3.4,5.6-3.7c1.1-0.2,2.3-0.1,3.5-0.1c0.9,0,1.8,0,2.7,0.1
		C-904.7,658.2-905.5,658.1-906.2,658.3z M-902.9,662c-0.6-0.3-1-0.9-1.3-1.4c-0.3-0.4-0.6-0.8-0.8-1.2c0.2-0.1,0.5-0.1,0.7-0.1
		c0.3,0.3,0.5,0.7,0.7,1C-903.4,660.9-903.1,661.4-902.9,662z M-904.8,657.2c-1.4-0.2-2.9-0.4-4.4-0.4c-1.2,0-2.4,0.3-3.5,0.7
		c-2.1,0.8-4,2.4-4.9,4.6c-0.9,2-0.9,4.2-0.5,6.3c0.3,1.5,1.2,2.7,1.9,4c-0.8-0.6-1.4-1.4-2-2.2c-0.8-1.3-1.2-2.7-1.4-4.2
		c-0.2-2.2,0.4-4.6,1.9-6.3c0.5-0.8,1.4-1.2,2.1-1.7c0.6-0.4,1.2-0.6,1.8-0.9c1.4-0.6,2.9-0.7,4.3-1.1c1-0.3,2-0.3,3.1-0.2
		c0.6,0,1.2,0.3,1.8,0.5c0.5,0.2,1.1,0.4,1.6,0.5c0.6,0.2,1.2,0.3,1.7,0.6C-902.3,657.6-903.5,657.3-904.8,657.2z M-903.1,655.5
		c-0.2-0.1-0.5-0.2-0.6-0.3c1.1-0.2,2.3,0.1,3.4,0.5c0.8,0.3,1.6,0.4,2.4,0.7C-899.8,656.6-901.5,656-903.1,655.5z M-894.3,655.8
		c-1.4,0.5-2.9,0-4.3-0.3c-0.8-0.3-1.7-0.4-2.5-0.9c0.6-0.2,1.2-0.1,1.8-0.1c1.4,0,2.7,0.7,4,0.8c1,0.1,1.9-0.3,2.8-0.5
		C-893,655.2-893.7,655.5-894.3,655.8z M-885,652c-0.7,0-1.4,0-2.1,0.2c-0.8,0.3-1.3,0.9-1.9,1.5c-0.9,0.9-2,1.8-3.3,2.2
		c0.4-0.6,1-0.9,1.5-1.4c1-1,2-1.9,3.3-2.5c0.8-0.4,1.7-0.2,2.5-0.2C-885,651.8-885,651.9-885,652z"/>
	<path id="yggdrasil" fill="#FFFFFF" d="M-972.4,716.6c-0.2,0-0.6,0.1-1,0.3c-0.5,0.2-0.7,0.5-1.2,1.1c-0.7,0.9-3.8,6.1-4.2,7
		c-0.3,0.8-0.3,1.5-0.3,2.2v1.8c0,0.4,0,1.3,0.1,2.2c0,0.6,0.2,1.1,0.9,1.2c0.3,0,0.8,0.1,1.1,0.1c0.2,0,0.4,0.1,0.4,0.2
		c0,0.2-0.2,0.2-0.5,0.2c-1.4,0-2.8-0.1-3.4-0.1c-0.5,0-2,0.1-2.8,0.1c-0.3,0-0.5,0-0.5-0.2c0-0.1,0.1-0.2,0.4-0.2
		c0.3,0,0.6,0,0.8-0.1c0.5-0.1,0.6-0.6,0.7-1.2c0.1-0.9,0.1-1.9,0.1-2.2v-1.8c0-1.2-0.2-1.7-0.5-2.3c-0.2-0.4-3.1-5.2-3.9-6.4
		c-0.5-0.8-1.1-1.4-1.5-1.6c-0.3-0.2-0.7-0.3-0.9-0.3c-0.2,0-0.3,0-0.3-0.2c0-0.1,0.2-0.2,0.4-0.2c0.4,0,2.1,0.1,2.8,0.1
		c0.5,0,1.4-0.1,2.4-0.1c0.2,0,0.3,0.1,0.3,0.2c0,0.1-0.2,0.1-0.5,0.2c-0.2,0-0.3,0.2-0.3,0.4s0.1,0.4,0.3,0.8
		c0.3,0.7,3.4,6,3.8,6.6c0.2-0.5,3-5.4,3.3-6.1c0.2-0.5,0.3-0.9,0.3-1.1c0-0.2-0.1-0.5-0.5-0.5c-0.2,0-0.4-0.1-0.4-0.2
		c0-0.1,0.1-0.2,0.4-0.2c0.7,0,1.4,0.1,2.1,0.1c0.5,0,2-0.1,2.4-0.1c0.2,0,0.4,0,0.4,0.2C-972,716.5-972.2,716.6-972.4,716.6z
		 M-955.2,724.6c-0.7,0-1.9,0.1-2.6,0.1c-0.7,0-2.1-0.1-3.2-0.1c-0.3,0-0.5,0-0.5,0.2c0,0.1,0.1,0.2,0.3,0.2c0.3,0,0.7,0,0.9,0.1
		c0.7,0.1,0.9,0.5,1,1.3c0,0.7,0,1.5,0,2.6v2.1c0,0.4-0.1,0.7-0.4,0.8c-0.5,0.2-1.3,0.2-1.9,0.2c-4.7,0-7.7-3.6-7.7-8.3
		c0-2.7,0.8-4.4,2-5.4c1.6-1.3,3.2-1.4,4.4-1.4c2.5,0,4.3,1,5,1.7c0.6,0.6,0.7,1.3,0.8,1.8c0,0.2,0.1,0.3,0.2,0.3
		c0.2,0,0.2-0.1,0.2-0.5c0-2.8,0.1-3.4,0.1-3.6c0-0.2,0-0.2-0.3-0.3c-0.5,0-1.3-0.2-1.7-0.2c-0.5-0.1-2.4-0.4-3.9-0.4
		c-1.9,0-3.8,0.2-6,1.4c-2,1.2-3.9,3.7-3.9,7.3c0,6.1,4.8,8.7,10.2,8.7c1.7,0,3.9-0.2,5.3-1c0.3-0.2,0.3-0.2,0.3-0.8V729
		c0-1.1,0-2,0-2.7c0-0.8,0.2-1.1,0.8-1.3c0.3,0,0.4-0.1,0.6-0.1c0.2,0,0.3,0,0.3-0.2C-954.8,724.7-954.9,724.6-955.2,724.6z
		 M-936,724.6c-0.7,0-1.9,0.1-2.6,0.1c-0.7,0-2.1-0.1-3.2-0.1c-0.3,0-0.5,0-0.5,0.2c0,0.1,0.1,0.2,0.3,0.2c0.3,0,0.7,0,0.9,0.1
		c0.7,0.1,0.9,0.5,1,1.3c0,0.7,0,1.5,0,2.6v2.1c0,0.4-0.1,0.7-0.4,0.8c-0.5,0.2-1.3,0.2-1.9,0.2c-4.7,0-7.7-3.6-7.7-8.3
		c0-2.7,0.8-4.4,2-5.4c1.6-1.3,3.2-1.4,4.4-1.4c2.5,0,4.3,1,5,1.7c0.6,0.6,0.7,1.3,0.8,1.8c0,0.2,0.1,0.3,0.2,0.3
		c0.2,0,0.2-0.1,0.2-0.5c0-2.8,0.1-3.4,0.1-3.6c0-0.2,0-0.2-0.3-0.3c-0.5,0-1.3-0.2-1.7-0.2c-0.5-0.1-2.4-0.4-3.9-0.4
		c-1.9,0-3.8,0.2-6,1.4c-2,1.2-3.9,3.7-3.9,7.3c0,6.1,4.8,8.7,10.2,8.7c1.7,0,3.9-0.2,5.3-1c0.3-0.2,0.3-0.2,0.3-0.8V729
		c0-1.1,0-2,0-2.7c0-0.8,0.2-1.1,0.8-1.3c0.3,0,0.4-0.1,0.6-0.1c0.2,0,0.3,0,0.3-0.2C-935.5,724.7-935.7,724.6-936,724.6z
		 M-917.7,718.7c1.1,1.1,2.2,3,2.2,5.6c0,2.8-1.2,4.9-2.4,6.2c-1,1-3.3,2.6-7.4,2.6c-0.8,0-1.7-0.1-2.5-0.1
		c-0.8-0.1-1.6-0.1-2.2-0.1c-0.2,0-0.7,0-1.3,0c-0.5,0-1.1,0-1.5,0c-0.3,0-0.5-0.1-0.5-0.2c0-0.1,0.1-0.2,0.4-0.2
		c0.3,0,0.6,0,0.8-0.1c0.4-0.1,0.5-0.6,0.6-1.2c0.1-0.9,0.1-2.7,0.1-4.7v-3.9c0-3.4,0-4,0-4.7c0-0.8-0.2-1.1-1-1.3
		c-0.2,0-0.5-0.1-0.9-0.1c-0.2,0-0.4,0-0.4-0.2c0-0.2,0.1-0.2,0.5-0.2c1.2,0,2.6,0.1,3.2,0.1c0.7,0,2.1-0.1,3.4-0.1
		C-923.9,716.2-920.2,716.2-917.7,718.7z M-918.6,725c0-2.8-1.2-4.6-2.1-5.5c-2-2-4.6-2.2-6.3-2.2c-0.4,0-1.3,0.1-1.4,0.2
		c-0.2,0.1-0.3,0.2-0.3,0.5c0,0.8,0,2.7,0,4.4v2.8c0,2.3,0,4,0,4.5c0,0.5,0.1,1.4,0.2,1.7c0.3,0.4,1.1,0.9,2.9,0.9
		c2.3,0,3.8-0.5,5.1-1.6C-919,729.3-918.6,727.3-918.6,725z M-881.6,732.7c0,0.2-0.2,0.2-1,0.2s-2.4,0-4.2,0c-0.4,0-0.7,0-0.7-0.2
		c0-0.1,0.1-0.2,0.3-0.2c0.2,0,0.3-0.2,0.2-0.5l-1.8-4.7c0-0.1-0.1-0.1-0.2-0.1h-5c-0.1,0-0.1,0-0.2,0.2l-1.2,3.2
		c-0.2,0.5-0.3,1.1-0.3,1.3c0,0.4,0.2,0.7,0.9,0.7h0.3c0.3,0,0.3,0,0.3,0.2c0,0.2-0.1,0.2-0.4,0.2c-0.4,0-1,0-1.5-0.1
		c-0.1,0-0.2,0.1-0.3,0.1h-2.1c-0.1,0-0.3,0-0.4,0c-0.2,0-0.4,0-0.6,0c-0.2,0-0.3,0-0.4-0.1c-0.4-0.1-0.7-0.2-1-0.3
		c-1-0.5-1.8-1.6-3-3.3c-0.9-1.2-1.9-2.7-2.2-3.1c-0.1-0.1-0.2-0.2-0.4-0.2l-1.9,0c-0.1,0-0.2,0-0.2,0.2v0.3c0,2.1,0,3.8,0.1,4.7
		c0.1,0.6,0.2,1.1,0.9,1.2c0.3,0,0.8,0.1,1.1,0.1c0.2,0,0.3,0.1,0.3,0.2c0,0.1-0.1,0.2-0.5,0.2c-1.3,0-2.9-0.1-3.3-0.1
		c-0.4,0-1.8,0.1-2.7,0.1c-0.3,0-0.5-0.1-0.5-0.2c0-0.1,0.1-0.2,0.4-0.2c0.3,0,0.6,0,0.8-0.1c0.5-0.1,0.5-0.6,0.6-1.2
		c0.1-0.9,0.1-2.7,0.1-4.7v-3.9c0-3.4,0-4,0-4.7c0-0.8-0.2-1.1-1-1.3c-0.2,0-0.5-0.1-0.9-0.1c-0.2,0-0.4,0-0.4-0.2
		c0-0.1,0.2-0.2,0.5-0.2c1.2,0,2.6,0.1,3,0.1c0.8,0,2.4-0.1,3.1-0.1c1.4,0,2.9,0.1,4.1,1c0.6,0.4,1.5,1.6,1.5,3
		c0,1.6-0.7,3.1-2.9,4.9c2,2.5,3.5,4.4,4.8,5.8c0.5,0.5,1,0.9,1.3,1.1c0.4-0.4,0.6-0.9,0.9-1.5l5.5-13.9c0.3-0.6,0.4-0.9,0.6-0.9
		c0.2,0,0.3,0.2,0.5,0.7c0.5,1.2,4.1,10.3,5.5,13.6c0.8,2,1.5,2.3,1.9,2.4c0.3,0.1,0.7,0.1,0.9,0.1
		C-881.7,732.5-881.6,732.5-881.6,732.7z M-903.8,721.3c0-3.2-2.1-4-3.4-4c-0.5,0-1,0-1.2,0.1c-0.2,0-0.2,0.1-0.2,0.3v6.8
		c0,0.2,0,0.3,0.2,0.4c0.5,0.2,1.1,0.2,1.7,0.2c0.9,0,1.2-0.1,1.6-0.4C-904.4,724.1-903.8,723.1-903.8,721.3z M-889.3,725.9l-2-5.5
		c0-0.1,0-0.2-0.1-0.2c-0.1,0-0.1,0.1-0.1,0.2l-2,5.5c0,0.1,0,0.2,0.1,0.2h4.1C-889.3,726-889.3,726-889.3,725.9z M-875.7,722.8
		l-0.6-0.5c-1.8-1.4-2.3-2.2-2.3-3.2c0-1.3,1-2.3,2.6-2.3c1.4,0,2.1,0.7,2.4,1.1c0.5,0.6,0.6,1.3,0.6,1.5c0,0.3,0.1,0.4,0.2,0.4
		c0.2,0,0.2-0.2,0.2-0.7c0-1.7,0.1-2.4,0.1-2.7c0-0.2-0.1-0.2-0.3-0.3c-0.6-0.1-1.5-0.4-2.9-0.4c-3.1,0-5.1,1.7-5.1,4.2
		c0,1.8,0.8,3.4,3.3,5.3l1,0.8c1.8,1.4,2.2,2.5,2.2,3.5c0,1.2-1,2.5-3,2.5c-1.4,0-2.7-0.6-3.2-2.3c-0.1-0.4-0.2-0.8-0.2-1.1
		c0-0.2,0-0.4-0.2-0.4s-0.2,0.2-0.3,0.6c0,0.4-0.1,1.7-0.1,2.9c0,0.5,0.1,0.6,0.4,0.8c1,0.4,2,0.6,3.2,0.6c1.2,0,2.4-0.2,3.5-0.9
		c1.6-1,2.1-2.6,2.1-3.9C-872.1,726.4-873,724.8-875.7,722.8z M-862.4,732.5c-0.3,0-0.8,0-1.1-0.1c-0.7-0.1-0.8-0.5-0.9-1.1
		c-0.1-1-0.1-2.7-0.1-4.9v-3.9c0-3.4,0-4,0-4.7c0-0.8,0.2-1.1,0.8-1.3c0.3,0,0.4-0.1,0.7-0.1s0.4,0,0.4-0.2c0-0.1-0.2-0.2-0.5-0.2
		c-0.8,0-2.2,0.1-2.7,0.1c-0.6,0-2-0.1-2.9-0.1c-0.4,0-0.5,0-0.5,0.2c0,0.2,0.1,0.2,0.4,0.2c0.3,0,0.5,0,0.8,0.1
		c0.5,0.1,0.7,0.5,0.8,1.2c0,0.7,0,1.3,0,4.7v3.9c0,2.2,0,3.9-0.1,4.8c-0.1,0.6-0.2,1-0.6,1.1c-0.2,0-0.5,0.1-0.8,0.1
		c-0.3,0-0.4,0.1-0.4,0.2c0,0.2,0.1,0.2,0.4,0.2c0.9,0,2.3-0.1,2.8-0.1c0.6,0,2,0.1,3.5,0.1c0.2,0,0.4-0.1,0.4-0.2
		C-862,732.6-862.1,732.5-862.4,732.5z M-848.3,729.5c-0.2,0-0.2,0.1-0.2,0.3c0,0.4-0.3,1-0.6,1.3c-0.5,0.6-1.4,0.6-2.6,0.6
		c-1.7,0-2.3-0.2-2.7-0.5c-0.5-0.4-0.5-1.9-0.5-4.8v-3.9c0-3.4,0-4,0-4.7c0-0.8,0.2-1.1,0.8-1.3c0.3,0,0.6-0.1,0.9-0.1
		c0.3,0,0.4,0,0.4-0.2c0-0.2-0.1-0.2-0.5-0.2c-0.9,0-2.5,0.1-3,0.1c-0.6,0-2-0.1-3-0.1c-0.3,0-0.5,0-0.5,0.2c0,0.1,0.1,0.2,0.4,0.2
		c0.3,0,0.5,0,0.7,0.1c0.7,0.1,0.9,0.5,1,1.3c0,0.7,0,1.3,0,4.7v3.9c0,2,0,3.8-0.1,4.7c-0.1,0.6-0.2,1.1-0.6,1.2
		c-0.2,0-0.5,0.1-0.8,0.1c-0.3,0-0.4,0.1-0.4,0.2c0,0.2,0.2,0.2,0.5,0.2c0.5,0,1,0,1.5,0c0.5,0,1,0,1.3,0c0.9,0,1.7,0,2.7,0.1
		c1,0,2.2,0.1,3.8,0.1c1.1,0,1.3-0.1,1.4-0.6c0.2-0.6,0.3-2.3,0.3-2.5C-848.1,729.6-848.1,729.5-848.3,729.5z"/>
	
		<linearGradient id="gaming_1_" gradientUnits="userSpaceOnUse" x1="-641.65" y1="-491.3118" x2="-641.65" y2="-508.2882" gradientTransform="matrix(0.3 0 0 0.3 -727.3 889.9)">
		<stop  offset="0" style="stop-color:#CC6628"/>
		<stop  offset="1" style="stop-color:#993520"/>
	</linearGradient>
	<path id="gaming" fill="url(#gaming_1_)" d="M-986.9,740.3h2.1v0.2c-0.2,0-0.4,0-0.5,0.1c-0.1,0.1-0.2,0.1-0.2,0.2
		c0,0.1,0,0.4,0,0.8v0.5c-0.1,0-0.1,0-0.2,0c-0.2,0-0.4,0.1-0.7,0.2c-0.4,0.1-0.8,0.2-1.1,0.2c-0.7,0-1.3-0.2-1.7-0.7
		c-0.5-0.5-0.7-1-0.7-1.7c0-0.7,0.2-1.3,0.7-1.8c0.5-0.5,1-0.8,1.8-0.8c0.7,0,1.2,0.2,1.6,0.7c0.1-0.2,0.1-0.4,0.1-0.5h0.2v1.6h-0.2
		c-0.1-0.5-0.3-0.9-0.6-1.2s-0.7-0.5-1.1-0.5c-0.4,0-0.9,0.2-1.2,0.5c-0.3,0.3-0.5,1-0.5,1.8s0.1,1.5,0.5,1.8s0.8,0.5,1.2,0.5
		c0.2,0,0.5-0.1,0.7-0.1s0.3-0.2,0.4-0.4c0.1-0.2,0.1-0.3,0.1-0.6c0-0.3,0-0.5-0.1-0.5c0-0.1-0.1-0.1-0.2-0.2
		c-0.1,0-0.2-0.1-0.4-0.1h-0.1L-986.9,740.3L-986.9,740.3z M-959.5,740.6h-1.9l-0.1,0.3c-0.2,0.5-0.3,0.8-0.3,0.9
		c0,0.2,0.1,0.3,0.2,0.3c0.1,0.1,0.2,0.1,0.4,0.1v0.2h-1.4v-0.2c0.2,0,0.4-0.1,0.5-0.2c0.1-0.1,0.2-0.4,0.4-0.8c0,0,0.1-0.2,0.2-0.4
		l1.4-3.4h0.2l1.6,3.9l0.2,0.5c0.1,0.1,0.1,0.2,0.2,0.3c0.1,0.1,0.2,0.1,0.4,0.1v0.2h-1.9v-0.2c0.2,0,0.4,0,0.5-0.1
		c0.1,0,0.1-0.1,0.1-0.2c0-0.1-0.1-0.2-0.2-0.5L-959.5,740.6z M-959.6,740.4l-0.9-2.1l-0.9,2.1H-959.6z M-932.4,741.5l1.8-4h1.5v0.2
		h-0.2c-0.2,0-0.4,0-0.5,0.1c-0.1,0-0.1,0.1-0.1,0.2c0,0.1,0,0.4,0,0.8v2.4c0,0.4,0,0.6,0,0.8c0,0.1,0.1,0.2,0.1,0.3
		c0.1,0.1,0.2,0.1,0.5,0.1h0.2v0.2h-2.3v-0.2h0.2c0.2,0,0.4,0,0.4-0.1c0.1-0.1,0.1-0.2,0.1-0.2c0-0.1,0-0.4,0-0.8V738l-2,4.4h-0.2
		l-2-4.4v2.8c0,0.4,0,0.7,0,0.8c0,0.2,0.1,0.3,0.2,0.4c0.1,0.1,0.3,0.2,0.5,0.2v0.2h-1.7v-0.2c0.2,0,0.4-0.1,0.5-0.2
		c0.1-0.1,0.2-0.2,0.2-0.4c0-0.1,0-0.4,0-0.8v-2.1c0-0.4,0-0.6,0-0.8c0-0.1-0.1-0.2-0.2-0.2c-0.1,0-0.2-0.1-0.5-0.1h-0.1v-0.1h1.5
		L-932.4,741.5z M-906.9,737.7v-0.2h2.3v0.2h-0.1c-0.2,0-0.4,0-0.5,0.1c-0.1,0-0.1,0.1-0.1,0.2c0,0.1,0,0.4,0,0.8v2.4
		c0,0.4,0,0.6,0,0.8c0,0.1,0.1,0.2,0.1,0.3c0.1,0.1,0.2,0.1,0.5,0.1h0.2v0.2h-2.3v-0.2h0.1c0.2,0,0.4,0,0.4-0.1
		c0.1-0.1,0.1-0.2,0.1-0.2c0-0.1,0-0.4,0-0.8v-2.4c0-0.4,0-0.6,0-0.8c0-0.1-0.1-0.2-0.1-0.2c-0.1,0-0.2-0.1-0.5-0.1L-906.9,737.7
		L-906.9,737.7z M-878.1,742.5l-3.4-4.6v3.4c0,0.3,0,0.5,0,0.6c0,0.1,0.1,0.2,0.2,0.2s0.3,0.1,0.6,0.1v0.2h-1.8v-0.2
		c0.2,0,0.4-0.1,0.5-0.1c0.1-0.1,0.2-0.1,0.2-0.2c0-0.1,0-0.3,0-0.6v-2.6c0-0.4,0-0.6-0.1-0.8c0-0.1-0.1-0.2-0.2-0.2
		c-0.1,0-0.2-0.1-0.5-0.1v-0.2h1.4l2.9,3.8v-2.9c0-0.2,0-0.4-0.1-0.5c0-0.1-0.2-0.1-0.3-0.2c-0.1-0.1-0.3-0.1-0.5-0.1v-0.1h1.8v0.2
		c-0.2,0-0.4,0.1-0.5,0.1c-0.1,0.1-0.2,0.1-0.2,0.2c0,0.1-0.1,0.2-0.1,0.5v4L-878.1,742.5L-878.1,742.5L-878.1,742.5z M-851.8,740.3
		h2.1v0.2c-0.2,0-0.4,0-0.5,0.1c-0.1,0.1-0.2,0.1-0.2,0.2c0,0.1,0,0.4,0,0.8v0.5c-0.1,0-0.1,0-0.2,0c-0.2,0-0.4,0.1-0.7,0.2
		c-0.4,0.1-0.8,0.2-1.1,0.2c-0.7,0-1.3-0.2-1.7-0.7s-0.7-1-0.7-1.7c0-0.7,0.2-1.3,0.7-1.8c0.4-0.5,1-0.8,1.8-0.8
		c0.7,0,1.2,0.2,1.6,0.7c0.1-0.2,0.1-0.4,0.1-0.5h0.2v1.6h-0.2c-0.1-0.5-0.3-0.9-0.6-1.2c-0.3-0.3-0.7-0.5-1.1-0.5s-0.9,0.2-1.2,0.5
		c-0.3,0.3-0.5,1-0.5,1.8s0.2,1.5,0.5,1.8c0.3,0.4,0.8,0.5,1.2,0.5c0.2,0,0.5-0.1,0.7-0.1c0.2-0.1,0.3-0.2,0.4-0.4
		c0.1-0.2,0.1-0.3,0.1-0.6c0-0.3,0-0.5-0.1-0.5c0-0.1-0.1-0.1-0.2-0.2c-0.1,0-0.2-0.1-0.4-0.1h-0.2
		C-851.8,740.5-851.8,740.3-851.8,740.3z"/>
</g>
</svg>
