<?xml version="1.0" encoding="utf-8"?>
<!-- Generator: Adobe Illustrator 19.0.0, SVG Export Plug-In . SVG Version: 6.00 Build 0)  -->
<svg version="1.1" xmlns="http://www.w3.org/2000/svg" xmlns:xlink="http://www.w3.org/1999/xlink" x="0px" y="0px"
	 viewBox="0 0 70 70" style="enable-background:new 0 0 70 70;" xml:space="preserve">
<style type="text/css">
	.st2{fill:#afd9ad;}
</style>
<g id="tabs-shadow">
	<path id="casino-bonuses_1_" d="M2.6,29.7c-0.6-0.7-1-1.6-1-2.6L2.4,7c0.1-2,1.8-3.5,3.7-3.5l3.8,0.1l-1,24.9l-4.3,2.1
		C3.9,30.6,3.1,30.2,2.6,29.7z M24.5,20.5l-4-4.2c-0.2-0.2-0.2-0.4-0.1-0.6s0.3-0.4,0.5-0.4l5.7-0.6c0.2,0,0.4-0.1,0.5-0.3l2.8-5.1
		C30,9.1,30.2,8.9,30.4,9c0.2,0,0.4,0.1,0.5,0.4l2.3,5.3c0.1,0.2,0.2,0.3,0.4,0.3l2,0.4l10.9-5.4l0.2-4.7L14.3,3.9l-0.9,22.5
		l11.2-5.6C24.6,20.7,24.6,20.6,24.5,20.5z M54.9,6.7C56,6.7,57,7,58,7.3c-0.6-1.1-1.7-1.8-3-1.9l-3.8-0.1l-0.1,2.3l0.2-0.1
		C52.4,7,53.7,6.7,54.9,6.7z M3,36.5c-0.9,0.4-1.5,1.2-1.8,2.1c-0.3,0.9-0.2,1.9,0.2,2.7l10.5,21.2c0.6,1.3,1.9,2,3.2,2
		c0.5,0,1.1-0.1,1.6-0.4l4.5-2.2L7.5,34.2L3,36.5z M68.6,34.3L58.1,13.1c-0.6-1.3-1.9-2-3.2-2c-0.5,0-1.1,0.1-1.6,0.4l-4.5,2.2
		l13.7,27.6l4.5-2.2c0.9-0.4,1.5-1.2,1.8-2.1C69.1,36.1,69.1,35.1,68.6,34.3z M44.9,15.7l13.7,27.6L25.1,59.9L11.4,32.3L44.9,15.7z
		 M45.8,43.6l-4.2-5.7l2.3-6.6c0.1-0.2,0-0.5-0.1-0.6c-0.2-0.2-0.4-0.2-0.6-0.2l-6.4,2.1c-0.2,0.1-0.4,0-0.5-0.1L31,28.4
		c-0.2-0.1-0.4-0.2-0.6-0.1c-0.2,0.1-0.3,0.3-0.3,0.5l0,6.7c0,0.2-0.1,0.4-0.3,0.5L24.2,40c-0.2,0.1-0.3,0.4-0.3,0.6
		c0,0.2,0.2,0.4,0.4,0.5l6.4,2.1c0.2,0.1,0.3,0.2,0.4,0.4l1.9,6.5c0.1,0.2,0.3,0.4,0.5,0.4c0.2,0,0.5-0.1,0.6-0.2l3.9-5.5
		c0.1-0.2,0.3-0.3,0.5-0.2l6.7,0.2c0.2,0,0.4-0.1,0.5-0.3C46,44.1,46,43.8,45.8,43.6z"/>
</g>
<g id="tabs">
	<path id="casino-bonuses" class="st2" d="M2.6,30.7c-0.6-0.7-1-1.6-1-2.6L2.4,8c0.1-2,1.8-3.5,3.7-3.5l3.8,0.1l-1,24.9l-4.3,2.1
		C3.9,31.6,3.1,31.2,2.6,30.7z M24.5,21.5l-4-4.2c-0.2-0.2-0.2-0.4-0.1-0.6c0.1-0.2,0.3-0.4,0.5-0.4l5.7-0.6c0.2,0,0.4-0.1,0.5-0.3
		l2.8-5.1c0.1-0.2,0.3-0.3,0.6-0.3c0.2,0,0.4,0.1,0.5,0.4l2.3,5.3c0.1,0.2,0.2,0.3,0.4,0.3l2,0.4l10.9-5.4l0.2-4.7L14.3,4.9
		l-0.9,22.5l11.2-5.6C24.6,21.7,24.6,21.6,24.5,21.5z M54.9,7.7C56,7.7,57,8,58,8.3c-0.6-1.1-1.7-1.8-3-1.9l-3.8-0.1l-0.1,2.3
		l0.2-0.1C52.4,8,53.7,7.7,54.9,7.7z M3,37.5c-0.9,0.4-1.5,1.2-1.8,2.1c-0.3,0.9-0.2,1.9,0.2,2.7l10.5,21.2c0.6,1.3,1.9,2,3.2,2
		c0.5,0,1.1-0.1,1.6-0.4l4.5-2.2L7.5,35.2L3,37.5z M68.6,35.3L58.1,14.1c-0.6-1.3-1.9-2-3.2-2c-0.5,0-1.1,0.1-1.6,0.4l-4.5,2.2
		l13.7,27.6l4.5-2.2c0.9-0.4,1.5-1.2,1.8-2.1C69.1,37.1,69.1,36.1,68.6,35.3z M44.9,16.7l13.7,27.6L25.1,60.9L11.4,33.3L44.9,16.7z
		 M45.8,44.6l-4.2-5.7l2.3-6.6c0.1-0.2,0-0.5-0.1-0.6c-0.2-0.2-0.4-0.2-0.6-0.2l-6.4,2.1c-0.2,0.1-0.4,0-0.5-0.1L31,29.4
		c-0.2-0.1-0.4-0.2-0.6-0.1c-0.2,0.1-0.3,0.3-0.3,0.5l0,6.7c0,0.2-0.1,0.4-0.3,0.5L24.2,41c-0.2,0.1-0.3,0.4-0.3,0.6
		c0,0.2,0.2,0.4,0.4,0.5l6.4,2.1c0.2,0.1,0.3,0.2,0.4,0.4l1.9,6.5c0.1,0.2,0.3,0.4,0.5,0.4c0.2,0,0.5-0.1,0.6-0.2l3.9-5.5
		c0.1-0.2,0.3-0.3,0.5-0.2l6.7,0.2c0.2,0,0.4-0.1,0.5-0.3C46,45.1,46,44.8,45.8,44.6z"/>
	
</g>
</svg>
