<?xml version="1.0" encoding="utf-8"?>
<!-- Generator: Adobe Illustrator 19.0.0, SVG Export Plug-In . SVG Version: 6.00 Build 0)  -->
<svg version="1.1" xmlns="http://www.w3.org/2000/svg" xmlns:xlink="http://www.w3.org/1999/xlink" x="0px" y="0px"
	 viewBox="0 0 70 70" style="enable-background:new 0 0 70 70;" xml:space="preserve">
<style type="text/css">
	.st2{fill:#FFFFFF;}
</style>
<g id="tabs-shadow">
	<path id="real-money_1_" d="M66.7,21.7c-1.4-3.6-3.4-6.9-5.8-9.7C55.8,6,48.7,1.9,40.7,0.5C38.8,0.2,36.9,0,35,0
		c-1.9,0-3.8,0.2-5.7,0.5C21.3,1.9,14.2,6,9.1,12c-2.4,2.9-4.4,6.2-5.8,9.7C1.8,25.5,1,29.7,1,34c0,4,0.7,7.8,2,11.4
		c1.3,3.6,3.2,7,5.5,9.9c5.1,6.4,12.4,10.8,20.8,12.2c1.8,0.3,3.7,0.5,5.7,0.5c1.9,0,3.8-0.2,5.7-0.5c8.4-1.4,15.7-5.9,20.8-12.2
		c2.4-2.9,4.2-6.3,5.5-9.9c1.3-3.6,2-7.4,2-11.4C69,29.7,68.2,25.5,66.7,21.7L66.7,21.7z M62.7,24l-5.9,3.4c-1.1-3.7-3.2-7-5.9-9.7
		l6-3.5C59.4,17.1,61.4,20.4,62.7,24L62.7,24z M53.2,34c0,10-8.2,18.2-18.2,18.2C25,52.2,16.8,44,16.8,34c0-10,8.2-18.2,18.2-18.2
		C45,15.8,53.2,24,53.2,34L53.2,34z M35,4.5c1.9,0,3.8,0.2,5.7,0.6V12c-1.8-0.5-3.7-0.7-5.7-0.7c-2,0-3.9,0.3-5.7,0.7V5.1
		C31.2,4.7,33.1,4.5,35,4.5L35,4.5z M13.2,14.3l6,3.5c-2.7,2.6-4.8,6-5.9,9.7L7.3,24C8.6,20.4,10.6,17.1,13.2,14.3L13.2,14.3z
		 M7,43.1l6-3.5c1,3.8,2.9,7.2,5.5,9.9l-6,3.4C10.1,50.1,8.2,46.7,7,43.1L7,43.1z M35,63.5c-1.9,0-3.8-0.2-5.7-0.6V56
		c1.8,0.5,3.7,0.7,5.7,0.7c2,0,3.9-0.3,5.7-0.7v6.9C38.8,63.3,36.9,63.5,35,63.5L35,63.5z M57.5,53l-6-3.4c2.6-2.8,4.5-6.2,5.5-9.9
		l6,3.5C61.8,46.7,59.9,50.1,57.5,53L57.5,53z M57.5,53 M36.9,31.5c-2.9-1.1-4.1-1.8-4.1-2.9c0-1,0.7-1.9,2.9-1.9
		c1.3,0,2.3,0.2,3.1,0.5c0.5,0.1,1,0.1,1.4-0.1c0.4-0.2,0.7-0.6,0.9-1.1l0-0.1c0.3-1.1-0.4-2.2-1.5-2.5c-0.8-0.2-1.8-0.4-3-0.4v-1.3
		c0-0.9-0.6-1.6-1.5-1.7c-1-0.1-1.8,0.7-1.8,1.7v1.6c-3.6,0.7-5.7,3.1-5.7,6.1c0,3.3,2.5,5,6.1,6.2c2.5,0.9,3.6,1.7,3.6,3
		c0,1.4-1.3,2.1-3.3,2.1c-1.4,0-2.7-0.3-3.8-0.7c-0.5-0.2-1-0.1-1.4,0.1c-0.4,0.2-0.8,0.6-0.9,1.1l0,0.1c-0.3,1.2,0.4,2.3,1.5,2.7
		c1.1,0.3,2.4,0.6,3.8,0.6v1.5c0,0.9,0.7,1.7,1.7,1.7s1.7-0.7,1.7-1.7v-1.8c3.9-0.7,6.1-3.3,6.1-6.3C42.6,34.8,41,33,36.9,31.5
		L36.9,31.5z M36.9,31.5"/>
</g>
<g id="tabs">
	<path id="real-money" class="st2" d="M66.7,22.7c-1.4-3.6-3.4-6.9-5.8-9.7C55.8,7,48.7,2.9,40.7,1.5C38.8,1.2,36.9,1,35,1
		c-1.9,0-3.8,0.2-5.7,0.5C21.3,2.9,14.2,7,9.1,13c-2.4,2.9-4.4,6.2-5.8,9.7C1.8,26.5,1,30.7,1,35c0,4,0.7,7.8,2,11.4
		c1.3,3.6,3.2,7,5.5,9.9c5.1,6.4,12.4,10.8,20.8,12.2c1.8,0.3,3.7,0.5,5.7,0.5c1.9,0,3.8-0.2,5.7-0.5c8.4-1.4,15.7-5.9,20.8-12.2
		c2.4-2.9,4.2-6.3,5.5-9.9c1.3-3.6,2-7.4,2-11.4C69,30.7,68.2,26.5,66.7,22.7L66.7,22.7z M62.7,25l-5.9,3.4c-1.1-3.7-3.2-7-5.9-9.7
		l6-3.5C59.4,18.1,61.4,21.4,62.7,25L62.7,25z M53.2,35c0,10-8.2,18.2-18.2,18.2C25,53.2,16.8,45,16.8,35c0-10,8.2-18.2,18.2-18.2
		C45,16.8,53.2,25,53.2,35L53.2,35z M35,5.5c1.9,0,3.8,0.2,5.7,0.6V13c-1.8-0.5-3.7-0.7-5.7-0.7c-2,0-3.9,0.3-5.7,0.7V6.1
		C31.2,5.7,33.1,5.5,35,5.5L35,5.5z M13.2,15.3l6,3.5c-2.7,2.6-4.8,6-5.9,9.7L7.3,25C8.6,21.4,10.6,18.1,13.2,15.3L13.2,15.3z
		 M7,44.1l6-3.5c1,3.8,2.9,7.2,5.5,9.9l-6,3.4C10.1,51.1,8.2,47.7,7,44.1L7,44.1z M35,64.5c-1.9,0-3.8-0.2-5.7-0.6V57
		c1.8,0.5,3.7,0.7,5.7,0.7c2,0,3.9-0.3,5.7-0.7v6.9C38.8,64.3,36.9,64.5,35,64.5L35,64.5z M57.5,54l-6-3.4c2.6-2.8,4.5-6.2,5.5-9.9
		l6,3.5C61.8,47.7,59.9,51.1,57.5,54L57.5,54z M57.5,54 M36.9,32.5c-2.9-1.1-4.1-1.8-4.1-2.9c0-1,0.7-1.9,2.9-1.9
		c1.3,0,2.3,0.2,3.1,0.5c0.5,0.1,1,0.1,1.4-0.1c0.4-0.2,0.7-0.6,0.9-1.1l0-0.1c0.3-1.1-0.4-2.2-1.5-2.5c-0.8-0.2-1.8-0.4-3-0.4v-1.3
		c0-0.9-0.6-1.6-1.5-1.7c-1-0.1-1.8,0.7-1.8,1.7v1.6c-3.6,0.7-5.7,3.1-5.7,6.1c0,3.3,2.5,5,6.1,6.2c2.5,0.9,3.6,1.7,3.6,3
		c0,1.4-1.3,2.1-3.3,2.1c-1.4,0-2.7-0.3-3.8-0.7c-0.5-0.2-1-0.1-1.4,0.1c-0.4,0.2-0.8,0.6-0.9,1.1l0,0.1c-0.3,1.2,0.4,2.3,1.5,2.7
		c1.1,0.3,2.4,0.6,3.8,0.6v1.5c0,0.9,0.7,1.7,1.7,1.7s1.7-0.7,1.7-1.7v-1.8c3.9-0.7,6.1-3.3,6.1-6.3C42.6,35.8,41,34,36.9,32.5
		L36.9,32.5z M36.9,32.5"/>
</g>
</svg>
