<?xml version="1.0" encoding="utf-8"?>
<!-- Generator: Adobe Illustrator 17.1.0, SVG Export Plug-In . SVG Version: 6.00 Build 0)  -->
<!DOCTYPE svg PUBLIC "-//W3C//DTD SVG 1.1//EN" "http://www.w3.org/Graphics/SVG/1.1/DTD/svg11.dtd">
<svg version="1.1" xmlns="http://www.w3.org/2000/svg" xmlns:xlink="http://www.w3.org/1999/xlink" x="0px" y="0px"
	 viewBox="0 21 240 198" enable-background="new 0 21 240 198" xml:space="preserve">
<g id="Layer_1">
	<g id="Layer_2">
		
			<radialGradient id="dark_1_" cx="399.9627" cy="-89.9318" r="395.4959" gradientTransform="matrix(0.2892 0 0 -0.264 4.3428 96.258)" gradientUnits="userSpaceOnUse">
			<stop  offset="0.5" style="stop-color:#262626"/>
			<stop  offset="1" style="stop-color:#1A1A1A"/>
		</radialGradient>
		<rect id="dark" x="0" y="21" fill="url(#dark_1_)" width="240" height="198"/>
	</g>
</g>
<g id="netent">
	<path fill="#68A511" d="M186.3,107.5v-7.2h25.8v7.2H203v32.8h-7.6v-32.8H186.3z M174.8,125.4v-25.1h7.6v39.9h-6.8l-16-25.3v25.3
		h-7.5v-39.9h6.8L174.8,125.4z M126.3,85.8v14.5h21v7.2H129v9h15.6v7.3H129v9.3h18.3v7.1h-21v13.9h-0.9v-13.7V100V85.8H126.3z"/>
	<path fill="#AAAAAA" d="M93.3,107.5v-7.2h26.1v7.2h-9.4v32.8h-7.5v-32.8H93.3z M50.7,125.4v-25.1h7.5v39.9h-6.8l-15.8-25.3v25.3
		h-7.6v-39.9h6.8L50.7,125.4z M63.1,140.2v-39.9h25.9v7.2H70.6v9h15.6v7.3H70.6v9.3h18.3v7.1H63.1z"/>
</g>
</svg>
