<?xml version="1.0" encoding="utf-8"?>
<!-- Generator: Adobe Illustrator 17.1.0, SVG Export Plug-In . SVG Version: 6.00 Build 0)  -->
<!DOCTYPE svg PUBLIC "-//W3C//DTD SVG 1.1//EN" "http://www.w3.org/Graphics/SVG/1.1/DTD/svg11.dtd">
<svg version="1.1" xmlns="http://www.w3.org/2000/svg" xmlns:xlink="http://www.w3.org/1999/xlink" x="0px" y="0px"
	 viewBox="0 0 800 660" enable-background="new 0 0 800 660" xml:space="preserve">
<g id="Layer_2">
		<radialGradient id="light_1_" cx="399.9813" cy="329.9318" r="395.506" gradientTransform="matrix(0.9639 0 0 0.88 14.4759 39.66)" gradientUnits="userSpaceOnUse">
		<stop  offset="0.5" style="stop-color:#FFFFFF"/>
		<stop  offset="1" style="stop-color:#D9D9D9"/>
	</radialGradient>
	<rect id="light" fill="url(#light_1_)" width="800" height="660"/>
</g>

<g id="devs">
	<g id="playtech">
		<path id="XMLID_552_" fill="#292A6C" d="M700.8,350.1c-9.3,8.6-9.9,8.8-12.3,8.8c-1.3,0-2.4-1.2-2.4-2.6c0-1.6,2.9-12,5.4-19.6
			c4.1-14.4,9.6-26.7,9.6-30.4c0-5.4-0.2-7.6-7.1-7.8c-15.1-0.5-42.3,26.8-42.3,26.8c-0.9-0.5,17.4-59.3,17.4-59.3h-4.9
			c-8.7,1.9-14.8,3.3-23.8,4.3c0,0,0,2.4-0.7,3.4l4.8,0.2c2.7,0,7.6-0.5,8.7,1.7c1,1.9,0.6,3.5-0.6,8l-9.9,34.1l-6.5,21.3
			c-6.1,10-19.5,21-28.3,21c-9.5,0-15.4-7.8-15.4-18.4c0-13,5.8-23.9,15.1-32.5c4.8-4.4,8.6-5.9,14.1-6.2c3.8-0.2,6.3,1,6.3,2.8
			c0,2.8-2.5,4.4-2.5,7c0,2.8,1.2,7.5,5.9,7.5c4.2,0,10.2-4.9,8.3-12.3c-1.3-5-7.5-9.8-17.4-9.8c-10.2,0-17.6,3.8-25.7,9.5
			c-9.5,7.1-17.8,22.2-18.3,33.9c-0.1,1.9,0.1,4.6,0.1,4.6c-12,8.6-21.1,14.3-27.4,14.6c-7.4,0.3-13.3-5.2-13.3-13.2
			c0-2.2,0-6,1.7-8.9c33.6-3.4,47.1-16.6,47.1-29.2c0-6.1-7.7-11.6-17.1-11.2c-24.9,1.2-44.7,25.3-44.7,47.9c0,0.4,0,0.9,0,1.3
			c-8.2,9.2-11.2,11.2-13.9,11.2c-1.5,0-4.9-1.5-3.7-7.4c2.4-12.5,12.7-48.6,12.7-48.6h13.1l0.8-5.3h-12.4l6.3-23.4l-4.3,0.1
			c0,0-6.3,13.6-13.4,17.8c-6.9,6.3-12.6,6.4-13.5,6.8c-1.9,1-2.5-0.7-7.1-0.7c-6.7,0-10.4,4.7-10.4,8.3c0,3.7,1.1,6,5,8.7
			c3.2,2.2,3.3,3.2,3.3,5.1c0,6.9-10.1,25.4-11.5,27c-0.9,1-2.6-10.1-2.6-10.1c-3.2-18.3-5.8-31.6-9.8-38.3c-8.6,1.8-9.4,2-21.1,2.9
			l-0.5-1.5l-20.1,0.1l-2.1,7.8h-0.2c-1.5-6.9-6.3-10.5-13.4-10.5c-10.8,0-20.2,7.6-28.4,17.6c-4.9,6-12.6,22.2-12.6,32.9
			c0,0.1,0,0.1,0,0.2c-2.1,3.5-4.4,7-6.9,7c-1.7,0-2.5-0.9-2.5-2c0-1.9,0.6-6.4,3.1-13.6l19.8-74.6c-14.2,2.2-20.5,3.3-32.9,4.3v3.6
			c1.8-0.1,2.8-0.1,3.6-0.1c5.5,0,5.6,3.2-0.8,23.5c0,0-6.4,25.2-6.4,23.8c-0.3-19.6-10.7-22.7-20.1-22.5
			c-7.9,0.2-19,11.3-20.9,14.6c-0.2,0.3-0.7-0.1-0.6-0.4l3.5-12.2c-16.9,2.2-23.9,3.3-32.5,4.1v3.1c7.4,0.3,8.6,3,8.1,5.2
			c-0.3,1.3-16.5,64-16.5,64c-3.3,12.5-4.1,14.8-12,14.8v4.1h40.3v-3.1c-5.7-1.1-13.2,2-5.7-21.3l1.9-6.4c3.6,2.2,8.3,4.1,11.8,4
			c18.6-0.1,28.9-15.6,37.3-29.3c-2.1,6.7-4.9,16.7-3.8,20.8c1.3,4.7,5.1,8.5,11.9,8.5c8.5,0,12.9-3.9,20.7-12.2
			c3.8,10.4,9.2,11.8,17.9,11.8c10.6-0.1,15.4-5.5,23.7-16.9c0.3-0.4,1-0.1,0.9,0.4c-0.7,2.8-0.8,4.9-0.9,6.3
			c-0.4,7.4,4,11,11.4,10.5c7.8-0.5,14.8-4.3,24.1-18.4l-3-2.6c-4.1,5.6-6.9,9.8-10.1,9.3c-1.3-0.2-1.9-0.8-2-2
			c-0.4-5.1,13-48.8,13-48.8c0.3,0.2,0.7,0.5,1,0.8c4.6,2.9,8.3,23,13.9,57.6c0.5,3.3,1.2,13.4-7.1,17.9c-4,2.2-7.9-4.9-16.4-4.9
			c-4.7,0-8.9,4-9,8.2c-0.1,7.2,5.2,10.4,11.5,10.4c9.9,0,15.9-4.7,25.8-14.5c19.9-25.3,43.5-65.7,38.6-78h9.4l-10.9,41.5
			c-1.3,4.7-3.2,9.8-3.2,14c-0.1,5.4,3.7,9.1,8.2,9.1c9.1,0.1,18.4-8.6,22.9-14.5c2,9.5,6.8,14.7,18.5,14.7
			c13.3,0,27.2-6.3,36.4-15.9c2.7,9.8,11.7,16.4,24.5,16c10.9-0.4,18.8-5.9,27.4-14.2l-3.9,13.7l12.1,0c6.9-21,5.9-26.6,11.9-35.6
			c9.6-10.6,25.5-23.3,30.9-23.3c3.4,0,4.2,1.5,4.2,3.7c0,0.6-0.4,2.5-1,4.8l-9.5,30.4c-1.9,7.2-4.3,13-4.3,14.7
			c0,3.8,3.1,5.4,7.1,5.5c6.6,0,12-3.4,23.6-15.4L700.8,350.1z M543,326.6c6.6-16.9,17.2-23.3,26.7-23.3c4.7,0,6.4,4.1,6.4,7.6
			c0,4.5-3.8,9.2-8.9,13.5c-6.2,5.1-12.5,8.4-27,9.2L543,326.6z M302.5,357.3c-2.8,2.8-4.8,4.9-8.5,4.9c-3.6,0-4.7-2.9-4.7-5.6
			c0-2.3,3.2-12.6,5.4-21.8c3.6-9.8,3.9-12.7,7.5-18.4c3.6-5.7,6.9-7.3,10.1-7.3c4,0,5.6,5.1,5.6,10.5
			C318,323.8,311.1,349,302.5,357.3z M415.5,313.2c-0.3,8.7-6.9,25-9.1,30c-2.3,5.4-8.2,12.9-12.6,12.9c-4.3,0-6.2-2.5-6.2-8.7
			c0-5.1,2.2-15,7.5-25.1c4.6-7.7,8.4-17,15.4-17C414,305.3,415.6,309.3,415.5,313.2z"/>
		<path id="XMLID_558_" fill="#292A6C" d="M259.3,304.6c-9-20.7-45.9-25.1-85.6-11.4c-5.4-2.5-15.9-9.9-15.9-9.9
			c-6.2-4.9-13.6-0.2-13.6,5.9v17.4C110,326.4,90.3,354.7,99,374.5c10,22.9,54,25.8,98.3,6.5C241.5,361.8,269.3,327.5,259.3,304.6z
			 M153.2,300.1c0-4.2,5.2-7.4,9.4-4.1l41.2,24.4c5,2.4,4.6,7,0.1,9.3l-42.5,24.5c-3.7,2.1-8.3-0.5-8.3-4.7V300.1z M153.2,388
			c-11.2,2.1-23.8-0.1-28-3c-15.9-11-8.2-26.1-8.2-26.1s-0.3,13.6,16.5,19.4c26.3,9.1,60.2-7.7,61-6.4
			C194.8,372.6,172,384.5,153.2,388z M199.6,361c-25.7,17-55.7,22.3-65.9,8.6c-5.9-8-1.3-21.9,10.4-35.1v27c0,6.1,6.7,9.9,11.9,6.8
			l61.3-35.8c6.5-3.4,7-10.2-0.2-13.6c0,0-18.2-9.5-24.6-13.9c15.7-4.2,30.1-3.3,36.3,5.4C236.8,321.6,225.3,344.1,199.6,361z
			 M244,311.1c-0.2,1.1-0.9,1.1-1.4,0.1c-1.9-3.8-11.1-13.4-30.3-13.7c-8.5-0.1-17.9,1.7-25.3,3.3c-1.4-1.1-2.9-2.2-4.5-3.2
			c3.5-1.3,8.4-2.9,14.9-4.8c12.6-3.6,26.6-2.9,31.8-1C241.6,296.5,244.8,306.3,244,311.1z"/>
	</g>
</g>
</svg>
