<?xml version="1.0" encoding="utf-8"?>
<!-- Generator: Adobe Illustrator 17.1.0, SVG Export Plug-In . SVG Version: 6.00 Build 0)  -->
<!DOCTYPE svg PUBLIC "-//W3C//DTD SVG 1.1//EN" "http://www.w3.org/Graphics/SVG/1.1/DTD/svg11.dtd">
<svg version="1.1" xmlns="http://www.w3.org/2000/svg" xmlns:xlink="http://www.w3.org/1999/xlink" x="0px" y="0px"
	 viewBox="0 0 800 660" enable-background="new 0 0 800 660" xml:space="preserve">
<g id="Layer_2">
	
		<radialGradient id="SVGID_1_" cx="399.9813" cy="329.9318" r="395.506" gradientTransform="matrix(0.9639 0 0 0.88 14.4759 39.66)" gradientUnits="userSpaceOnUse">
		<stop  offset="0.5" style="stop-color:#262626"/>
		<stop  offset="1" style="stop-color:#1A1A1A"/>
	</radialGradient>
	<rect fill="url(#SVGID_1_)" width="800" height="660"/>
</g>
<g id="Layer_1">
	<path fill="#FFFFFF" d="M592.2,177.2H207.8c-14.7,0-26.8,12.1-26.8,26.8v252c0,14.7,12.1,26.8,26.8,26.8h384.5
		c14.7,0,26.8-12.1,26.8-26.8V204C619,189.2,607,177.2,592.2,177.2z M400,471.2c-12.5,0-22.7-10.2-22.7-22.7s10.2-22.7,22.7-22.7
		s22.7,10.2,22.7,22.7S412.5,471.2,400,471.2z M601.2,407.3c0,4.9-4.1,9-9,9H207.8c-4.9,0-9-4.1-9-9V204c0-4.9,4.1-9,9-9h384.5
		c4.9,0,9,4.1,9,9V407.3z M281.7,398.7V210.4 M360.6,398.7V210.4 M439.4,398.7V210.4 M518.3,210.4v188.3 M420.3,209.9h-40.5
		c-2.7,0-4.9,2.2-4.9,4.9v40.5c0,2.7,2.2,4.9,4.9,4.9h40.5c2.7,0,4.9-2.2,4.9-4.9v-40.5C425.1,212.1,422.9,209.9,420.3,209.9
		 M420.3,206.6c4.5,0,8.1,3.7,8.1,8.1v40.5c0,4.5-3.7,8.1-8.1,8.1h-40.5c-4.5,0-8.1-3.7-8.1-8.1v-40.5c0-4.5,3.7-8.1,8.1-8.1H420.3
		L420.3,206.6z M420.3,279.7h-40.5c-2.7,0-4.9,2.2-4.9,4.9v40.5c0,2.7,2.2,4.9,4.9,4.9h40.5c2.7,0,4.9-2.2,4.9-4.9v-40.5
		C425.1,281.9,422.9,279.7,420.3,279.7 M420.3,276.5c4.5,0,8.1,3.7,8.1,8.1v40.5c0,4.5-3.7,8.1-8.1,8.1h-40.5
		c-4.5,0-8.1-3.7-8.1-8.1v-40.5c0-4.5,3.7-8.1,8.1-8.1H420.3L420.3,276.5z M420.3,350.4h-40.5c-2.7,0-4.9,2.2-4.9,4.9v40.5
		c0,2.7,2.2,4.9,4.9,4.9h40.5c2.7,0,4.9-2.2,4.9-4.9v-40.5C425.1,352.6,422.9,350.4,420.3,350.4 M420.3,347.1c4.5,0,8.1,3.7,8.1,8.1
		v40.5c0,4.5-3.7,8.1-8.1,8.1h-40.5c-4.5,0-8.1-3.7-8.1-8.1v-40.5c0-4.5,3.7-8.1,8.1-8.1H420.3L420.3,347.1z M341.6,209.9H301
		c-2.7,0-4.9,2.2-4.9,4.9v40.5c0,2.7,2.2,4.9,4.9,4.9h40.5c2.7,0,4.9-2.2,4.9-4.9v-40.5C346.4,212.1,344.3,209.9,341.6,209.9
		 M341.6,206.6c4.5,0,8.1,3.7,8.1,8.1v40.5c0,4.5-3.7,8.1-8.1,8.1H301c-4.5,0-8.1-3.7-8.1-8.1v-40.5c0-4.5,3.7-8.1,8.1-8.1H341.6
		L341.6,206.6z M341.6,279.7H301c-2.7,0-4.9,2.2-4.9,4.9v40.5c0,2.7,2.2,4.9,4.9,4.9h40.5c2.7,0,4.9-2.2,4.9-4.9v-40.5
		C346.4,281.9,344.3,279.7,341.6,279.7 M341.6,276.5c4.5,0,8.1,3.7,8.1,8.1v40.5c0,4.5-3.7,8.1-8.1,8.1H301c-4.5,0-8.1-3.7-8.1-8.1
		v-40.5c0-4.5,3.7-8.1,8.1-8.1H341.6L341.6,276.5z M341.6,350.4H301c-2.7,0-4.9,2.2-4.9,4.9v40.5c0,2.7,2.2,4.9,4.9,4.9h40.5
		c2.7,0,4.9-2.2,4.9-4.9v-40.5C346.4,352.6,344.3,350.4,341.6,350.4 M341.6,347.1c4.5,0,8.1,3.7,8.1,8.1v40.5c0,4.5-3.7,8.1-8.1,8.1
		H301c-4.5,0-8.1-3.7-8.1-8.1v-40.5c0-4.5,3.7-8.1,8.1-8.1H341.6L341.6,347.1z M262.9,209.9h-40.5c-2.7,0-4.9,2.2-4.9,4.9v40.5
		c0,2.7,2.2,4.9,4.9,4.9h40.5c2.7,0,4.9-2.2,4.9-4.9v-40.5C267.7,212.1,265.6,209.9,262.9,209.9 M262.9,206.6c4.5,0,8.1,3.7,8.1,8.1
		v40.5c0,4.5-3.7,8.1-8.1,8.1h-40.5c-4.5,0-8.1-3.7-8.1-8.1v-40.5c0-4.5,3.7-8.1,8.1-8.1H262.9L262.9,206.6z M262.9,279.7h-40.5
		c-2.7,0-4.9,2.2-4.9,4.9v40.5c0,2.7,2.2,4.9,4.9,4.9h40.5c2.7,0,4.9-2.2,4.9-4.9v-40.5C267.7,281.9,265.6,279.7,262.9,279.7
		 M262.9,276.5c4.5,0,8.1,3.7,8.1,8.1v40.5c0,4.5-3.7,8.1-8.1,8.1h-40.5c-4.5,0-8.1-3.7-8.1-8.1v-40.5c0-4.5,3.7-8.1,8.1-8.1H262.9
		L262.9,276.5z M262.9,350.4h-40.5c-2.7,0-4.9,2.2-4.9,4.9v40.5c0,2.7,2.2,4.9,4.9,4.9h40.5c2.7,0,4.9-2.2,4.9-4.9v-40.5
		C267.7,352.6,265.6,350.4,262.9,350.4 M262.9,347.1c4.5,0,8.1,3.7,8.1,8.1v40.5c0,4.5-3.7,8.1-8.1,8.1h-40.5
		c-4.5,0-8.1-3.7-8.1-8.1v-40.5c0-4.5,3.7-8.1,8.1-8.1H262.9L262.9,347.1z M499,209.9h-40.5c-2.7,0-4.9,2.2-4.9,4.9v40.5
		c0,2.7,2.2,4.9,4.9,4.9H499c2.7,0,4.9-2.2,4.9-4.9v-40.5C503.8,212.1,501.6,209.9,499,209.9 M499,206.6c4.5,0,8.1,3.7,8.1,8.1v40.5
		c0,4.5-3.7,8.1-8.1,8.1h-40.5c-4.5,0-8.1-3.7-8.1-8.1v-40.5c0-4.5,3.7-8.1,8.1-8.1H499L499,206.6z M499,279.7h-40.5
		c-2.7,0-4.9,2.2-4.9,4.9v40.5c0,2.7,2.2,4.9,4.9,4.9H499c2.7,0,4.9-2.2,4.9-4.9v-40.5C503.8,281.9,501.6,279.7,499,279.7
		 M499,276.5c4.5,0,8.1,3.7,8.1,8.1v40.5c0,4.5-3.7,8.1-8.1,8.1h-40.5c-4.5,0-8.1-3.7-8.1-8.1v-40.5c0-4.5,3.7-8.1,8.1-8.1H499
		L499,276.5z M499,350.4h-40.5c-2.7,0-4.9,2.2-4.9,4.9v40.5c0,2.7,2.2,4.9,4.9,4.9H499c2.7,0,4.9-2.2,4.9-4.9v-40.5
		C503.8,352.6,501.6,350.4,499,350.4 M499,347.1c4.5,0,8.1,3.7,8.1,8.1v40.5c0,4.5-3.7,8.1-8.1,8.1h-40.5c-4.5,0-8.1-3.7-8.1-8.1
		v-40.5c0-4.5,3.7-8.1,8.1-8.1H499L499,347.1z M577.6,209.9h-40.5c-2.7,0-4.9,2.2-4.9,4.9v40.5c0,2.7,2.2,4.9,4.9,4.9h40.5
		c2.7,0,4.9-2.2,4.9-4.9v-40.5C582.5,212.1,580.3,209.9,577.6,209.9 M577.6,206.6c4.5,0,8.1,3.7,8.1,8.1v40.5c0,4.5-3.7,8.1-8.1,8.1
		h-40.5c-4.5,0-8.1-3.7-8.1-8.1v-40.5c0-4.5,3.7-8.1,8.1-8.1H577.6L577.6,206.6z M577.6,279.7h-40.5c-2.7,0-4.9,2.2-4.9,4.9v40.5
		c0,2.7,2.2,4.9,4.9,4.9h40.5c2.7,0,4.9-2.2,4.9-4.9v-40.5C582.5,281.9,580.3,279.7,577.6,279.7 M577.6,276.5c4.5,0,8.1,3.7,8.1,8.1
		v40.5c0,4.5-3.7,8.1-8.1,8.1h-40.5c-4.5,0-8.1-3.7-8.1-8.1v-40.5c0-4.5,3.7-8.1,8.1-8.1H577.6L577.6,276.5z M577.6,350.4h-40.5
		c-2.7,0-4.9,2.2-4.9,4.9v40.5c0,2.7,2.2,4.9,4.9,4.9h40.5c2.7,0,4.9-2.2,4.9-4.9v-40.5C582.5,352.6,580.3,350.4,577.6,350.4
		 M577.6,347.1c4.5,0,8.1,3.7,8.1,8.1v40.5c0,4.5-3.7,8.1-8.1,8.1h-40.5c-4.5,0-8.1-3.7-8.1-8.1v-40.5c0-4.5,3.7-8.1,8.1-8.1H577.6
		L577.6,347.1z M408.9,220.9l-3.2,14.7l-3.2-14h-5.7l-3.1,13.9l-3.2-14.6l-9,0.7l6.4,28.9h8.2l3.5-15.3l3.5,15.3h8.1l6.5-28.9
		L408.9,220.9z M488.3,290.7l-3.2,14.7l-3.2-14h-5.7l-3.1,13.9l-3.2-14.6l-9,0.7l6.4,28.9h8.2L479,305l3.5,15.3h8.1l6.5-28.9
		L488.3,290.7z M339.2,297.5c0,1.5-1.1,2.8-2.5,2.8c0,0-0.1,0-0.1,0l-3.4,15.9h-23.1l-3.4-15.9c0,0,0,0-0.1,0
		c-1.4,0-2.5-1.2-2.5-2.8c0-1.5,1.1-2.8,2.5-2.8c1.4,0,2.5,1.2,2.5,2.8c0,1-0.5,1.9-1.2,2.3c1.5,2.3,3.7,5,5.9,5.7
		c2.9,1,5.7-5.2,7-8.9c-1-0.4-1.7-1.4-1.7-2.6c0-1.5,1.1-2.8,2.5-2.8c1.4,0,2.5,1.2,2.5,2.8c0,1.2-0.7,2.2-1.7,2.6
		c1.3,3.7,4.1,10,7,8.9c2.2-0.8,4.4-3.4,5.9-5.7c-0.7-0.5-1.2-1.4-1.2-2.3c0-1.5,1.1-2.8,2.5-2.8C338.1,294.7,339.2,296,339.2,297.5
		z M310.2,319.9h22.9v-3.1h-22.9V319.9z M496.6,368.2c0,1.5-1.1,2.8-2.5,2.8c0,0-0.1,0-0.1,0l-3.4,15.9h-23.1l-3.4-15.9
		c0,0,0,0-0.1,0c-1.4,0-2.5-1.2-2.5-2.8c0-1.5,1.1-2.8,2.5-2.8c1.4,0,2.5,1.2,2.5,2.8c0,1-0.5,1.9-1.2,2.3c1.5,2.3,3.7,5,5.9,5.7
		c2.9,1,5.7-5.2,7-8.9c-1-0.4-1.7-1.4-1.7-2.6c0-1.5,1.1-2.8,2.5-2.8c1.4,0,2.5,1.2,2.5,2.8c0,1.2-0.7,2.2-1.7,2.6
		c1.3,3.7,4.1,10,7,8.9c2.2-0.8,4.4-3.4,5.9-5.7c-0.7-0.5-1.2-1.4-1.2-2.3c0-1.5,1.1-2.8,2.5-2.8
		C495.5,365.4,496.6,366.6,496.6,368.2z M467.6,390.5h22.9v-3.1h-22.9V390.5z M575,227c0,1.5-1.1,2.8-2.5,2.8c0,0-0.1,0-0.1,0
		l-3.4,15.9h-23.1l-3.4-15.9c0,0,0,0-0.1,0c-1.4,0-2.5-1.2-2.5-2.8c0-1.5,1.1-2.8,2.5-2.8c1.4,0,2.5,1.2,2.5,2.8
		c0,1-0.5,1.9-1.2,2.3c1.5,2.3,3.7,5,5.9,5.7c2.9,1,5.7-5.2,7-8.9c-1-0.4-1.7-1.4-1.7-2.6c0-1.5,1.1-2.8,2.5-2.8
		c1.4,0,2.5,1.2,2.5,2.8c0,1.2-0.7,2.2-1.7,2.6c1.3,3.7,4.1,10,7,8.9c2.2-0.8,4.4-3.4,5.9-5.7c-0.7-0.5-1.2-1.4-1.2-2.3
		c0-1.5,1.1-2.8,2.5-2.8C573.8,224.2,575,225.4,575,227z M545.9,249.3h22.9v-3.1h-22.9V249.3z M557.4,288.5
		c-8.9,0-16.1,7.2-16.1,16.1s7.2,16.1,16.1,16.1s16.1-7.2,16.1-16.1S566.3,288.5,557.4,288.5 M557.4,286.2
		c10.2,0,18.4,8.2,18.4,18.4s-8.2,18.4-18.4,18.4s-18.4-8.2-18.4-18.4S547.2,286.2,557.4,286.2L557.4,286.2z M571.2,304.5
		c0,7.6-6.2,13.8-13.8,13.8c-7.6,0-13.8-6.2-13.8-13.8c0-7.6,6.2-13.8,13.8-13.8C565,290.8,571.2,296.9,571.2,304.5z M563.8,307.8
		c0-1-0.2-1.9-0.7-2.6c-0.4-0.7-1-1.3-1.8-1.7c-0.7-0.4-1.7-0.9-3-1.3c-1.2-0.4-1.9-0.8-2.3-1.1c-0.4-0.3-0.5-0.7-0.5-1.3
		c0-0.5,0.2-1,0.6-1.4c0.4-0.4,0.9-0.6,1.5-0.6c1.2,0,2.1,0.8,2.7,2.5l3-1.2c-0.7-2.5-2.3-3.8-4.7-4.1v-2h-2.2v2
		c-1.6,0.2-2.8,0.8-3.5,1.9c-0.7,1-1.1,2.2-1.1,3.4c0,1,0.2,1.8,0.6,2.6c0.4,0.7,1,1.3,1.6,1.7c0.7,0.4,1.6,0.8,2.8,1.2
		c1.3,0.5,2.2,0.9,2.6,1.2c0.4,0.3,0.6,0.8,0.6,1.4c0,0.6-0.2,1.1-0.6,1.5c-0.4,0.4-1,0.6-1.8,0.6c-1.8,0-2.8-0.9-3.1-2.8l-3.4,0.9
		c0.7,3,2.4,4.7,5.3,5v2.6h2.2v-2.6c1.7-0.2,3-0.8,3.9-1.8C563.3,310.6,563.8,309.4,563.8,307.8z M321.3,359.4
		c-8.9,0-16.1,7.2-16.1,16.1s7.2,16.1,16.1,16.1s16.1-7.2,16.1-16.1S330.2,359.4,321.3,359.4 M321.3,357.1
		c10.2,0,18.4,8.2,18.4,18.4s-8.2,18.4-18.4,18.4s-18.4-8.2-18.4-18.4S311.2,357.1,321.3,357.1L321.3,357.1z M335.1,375.5
		c0,7.6-6.2,13.8-13.8,13.8c-7.6,0-13.8-6.2-13.8-13.8c0-7.6,6.2-13.8,13.8-13.8C328.9,361.7,335.1,367.9,335.1,375.5z M327.7,378.8
		c0-1-0.2-1.9-0.7-2.6c-0.4-0.7-1-1.3-1.8-1.7c-0.7-0.4-1.7-0.9-3-1.3c-1.2-0.4-1.9-0.8-2.3-1.1c-0.4-0.3-0.5-0.7-0.5-1.3
		c0-0.5,0.2-1,0.6-1.4c0.4-0.4,0.9-0.6,1.5-0.6c1.2,0,2.1,0.8,2.7,2.5l3-1.2c-0.7-2.5-2.3-3.8-4.7-4.1v-2h-2.2v2
		c-1.6,0.2-2.8,0.8-3.5,1.9c-0.7,1-1.1,2.2-1.1,3.4c0,1,0.2,1.8,0.6,2.6c0.4,0.7,1,1.3,1.6,1.7c0.7,0.4,1.6,0.8,2.8,1.2
		c1.3,0.5,2.2,0.9,2.6,1.2c0.4,0.3,0.6,0.8,0.6,1.4c0,0.6-0.2,1.1-0.6,1.5s-1,0.6-1.8,0.6c-1.8,0-2.8-0.9-3.1-2.8l-3.4,0.9
		c0.7,3,2.4,4.7,5.3,5v2.6h2.2v-2.6c1.7-0.2,3-0.8,3.9-1.8C327.2,381.6,327.7,380.3,327.7,378.8z M242.6,287.6
		c-8.9,0-16.1,7.2-16.1,16.1s7.2,16.1,16.1,16.1s16.1-7.2,16.1-16.1S251.5,287.6,242.6,287.6 M242.6,285.3
		c10.2,0,18.4,8.2,18.4,18.4c0,10.2-8.2,18.4-18.4,18.4c-10.2,0-18.4-8.2-18.4-18.4C224.2,293.6,232.5,285.3,242.6,285.3
		L242.6,285.3z M256.4,303.7c0,7.6-6.2,13.8-13.8,13.8c-7.6,0-13.8-6.2-13.8-13.8c0-7.6,6.2-13.8,13.8-13.8
		C250.2,289.9,256.4,296.1,256.4,303.7z M249,307c0-1-0.2-1.9-0.7-2.6c-0.4-0.7-1-1.3-1.8-1.7c-0.7-0.4-1.7-0.9-3-1.3
		c-1.2-0.4-1.9-0.8-2.3-1.1c-0.4-0.3-0.5-0.7-0.5-1.3c0-0.5,0.2-1,0.6-1.4c0.4-0.4,0.9-0.6,1.5-0.6c1.2,0,2.1,0.8,2.7,2.5l3-1.2
		c-0.7-2.5-2.3-3.8-4.7-4.1v-2h-2.2v2c-1.6,0.2-2.8,0.8-3.5,1.9c-0.7,1-1.1,2.2-1.1,3.4c0,1,0.2,1.8,0.6,2.6c0.4,0.7,1,1.3,1.6,1.7
		c0.7,0.4,1.6,0.8,2.8,1.2c1.3,0.5,2.2,0.9,2.6,1.2c0.4,0.3,0.6,0.8,0.6,1.4c0,0.6-0.2,1.1-0.6,1.5c-0.4,0.4-1,0.6-1.8,0.6
		c-1.8,0-2.8-0.9-3.1-2.8l-3.4,0.9c0.7,3,2.4,4.7,5.3,5v2.6h2.2v-2.6c1.7-0.2,3-0.8,3.9-1.8C248.5,309.8,249,308.5,249,307z
		 M417.2,299.7c-0.2-0.7-0.8-1.2-1.5-1.3L406,297l-4.3-8.8c-0.3-0.6-1-1-1.7-1c-0.7,0-1.4,0.4-1.7,1L394,297l-9.7,1.4
		c-0.7,0.1-1.3,0.6-1.5,1.3c-0.2,0.7,0,1.4,0.5,1.9l7,6.9l-1.7,9.7c-0.1,0.7,0.2,1.4,0.7,1.8c0.6,0.4,1.3,0.5,2,0.1l8.7-4.6l8.7,4.6
		c0.3,0.1,0.6,0.2,0.9,0.2c0.4,0,0.8-0.1,1.1-0.4c0.6-0.4,0.9-1.1,0.7-1.8l-1.7-9.7l7-6.9C417.3,301.1,417.5,300.4,417.2,299.7z
		 M259.8,231c-0.2-0.7-0.8-1.2-1.5-1.3l-9.7-1.4l-4.3-8.8c-0.3-0.6-1-1-1.7-1c-0.7,0-1.4,0.4-1.7,1l-4.3,8.8l-9.7,1.4
		c-0.7,0.1-1.3,0.6-1.5,1.3c-0.2,0.7,0,1.4,0.5,1.9l7,6.9l-1.7,9.7c-0.1,0.7,0.2,1.4,0.7,1.8c0.6,0.4,1.3,0.5,2,0.1l8.7-4.6l8.7,4.6
		c0.3,0.1,0.6,0.2,0.9,0.2c0.4,0,0.8-0.1,1.1-0.4c0.6-0.4,0.9-1.1,0.7-1.8l-1.7-9.7l7-6.9C259.9,232.4,260.1,231.6,259.8,231z
		 M259.8,370.3c-0.2-0.7-0.8-1.2-1.5-1.3l-9.7-1.4l-4.3-8.8c-0.3-0.6-1-1-1.7-1c-0.7,0-1.4,0.4-1.7,1l-4.3,8.8l-9.7,1.4
		c-0.7,0.1-1.3,0.6-1.5,1.3c-0.2,0.7,0,1.4,0.5,1.9l7,6.9l-1.7,9.7c-0.1,0.7,0.2,1.4,0.7,1.8c0.6,0.4,1.3,0.5,2,0.1l8.7-4.6l8.7,4.6
		c0.3,0.1,0.6,0.2,0.9,0.2c0.4,0,0.8-0.1,1.1-0.4c0.6-0.4,0.9-1.1,0.7-1.8l-1.7-9.7l7-6.9C259.9,371.8,260.1,371,259.8,370.3z
		 M495.5,229.6c0,1.5-0.3,2.9-0.7,4.3c-0.2,0.8-0.7,1.9-0.7,1.9c-4,8.6-15.1,14.2-15.1,14.2s-11-5.6-15.1-14.2
		c-0.4-0.7-0.7-1.9-0.7-1.9c-0.4-1.4-0.7-2.8-0.7-4.3c0-5.5,4.3-10,9.5-10c2.8,0,5.2,1.2,7,3.2c1.7-2,4.2-3.2,7-3.2
		C491.2,219.6,495.5,224.1,495.5,229.6z M416.5,371.7c0,1.5-0.3,2.9-0.7,4.3c-0.2,0.8-0.7,1.9-0.7,1.9c-4,8.6-15.1,14.2-15.1,14.2
		s-11-5.6-15.1-14.2c-0.4-0.7-0.7-1.9-0.7-1.9c-0.4-1.4-0.7-2.8-0.7-4.3c0-5.5,4.3-10,9.5-10c2.8,0,5.2,1.2,7,3.2
		c1.7-2,4.2-3.2,7-3.2C412.2,361.7,416.5,366.2,416.5,371.7z M338.1,229.8c0,1.5-0.3,2.9-0.7,4.3c-0.2,0.8-0.7,1.9-0.7,1.9
		c-4,8.6-15.1,14.2-15.1,14.2s-11-5.6-15.1-14.2c-0.4-0.7-0.7-1.9-0.7-1.9c-0.4-1.4-0.7-2.8-0.7-4.3c0-5.5,4.3-10,9.5-10
		c2.8,0,5.2,1.2,7,3.2c1.7-2,4.2-3.2,7-3.2C333.9,219.8,338.1,224.3,338.1,229.8z M573.9,371.7c0,1.5-0.3,2.9-0.7,4.3
		c-0.2,0.8-0.7,1.9-0.7,1.9c-4,8.6-15.1,14.2-15.1,14.2s-11-5.6-15.1-14.2c-0.4-0.7-0.7-1.9-0.7-1.9c-0.4-1.4-0.7-2.8-0.7-4.3
		c0-5.5,4.3-10,9.5-10c2.8,0,5.2,1.2,7,3.2c1.7-2,4.2-3.2,7-3.2C569.6,361.7,573.9,366.2,573.9,371.7z M415.8,439.6
		c-0.3-0.3-0.7-0.3-1-0.2l-1.8,0.5l-0.2-0.3c-0.4-0.6-0.8-1.1-1.3-1.6c-2.6-2.8-6-4.5-9.8-4.9c-0.6-0.1-1.2-0.1-1.7-0.1
		c-3.3,0-6.4,1-9,2.9c-2.9,2-5,5-6,8.4c-0.1,0.3,0,0.6,0.1,0.8c0.1,0.2,0.4,0.4,0.6,0.5l2,0.5c0.5,0.1,1.1-0.2,1.3-0.7
		c0.7-2.4,2.3-4.6,4.4-6.1c1.9-1.4,4.2-2.1,6.6-2.1c0.4,0,0.9,0,1.3,0.1c2.6,0.3,5,1.5,6.9,3.3l0.6,0.6l-1.2,0.4
		c-0.4,0.1-0.6,0.4-0.7,0.8c-0.1,0.4,0,0.7,0.3,1l5.5,5.2c0.2,0.2,0.5,0.3,0.7,0.3c0.1,0,0.2,0,0.3,0c0.4-0.1,0.6-0.4,0.7-0.8
		l1.8-7.3C416.2,440.3,416.1,439.9,415.8,439.6z M414.3,451.6l-2-0.5c-0.5-0.1-1.1,0.2-1.3,0.7c-0.7,2.4-2.3,4.6-4.4,6.1
		c-1.9,1.4-4.2,2.1-6.6,2.1c-0.4,0-0.9,0-1.3-0.1c-2.6-0.3-5-1.5-6.9-3.3l-0.6-0.6l1.2-0.4c0.4-0.1,0.6-0.4,0.7-0.8
		c0.1-0.4,0-0.7-0.3-1l-5.5-5.2c-0.3-0.3-0.7-0.3-1-0.2c-0.4,0.1-0.6,0.4-0.7,0.8l-1.8,7.3c-0.1,0.4,0,0.7,0.3,1
		c0.3,0.3,0.7,0.3,1,0.2l1.8-0.5l0.2,0.3c0.4,0.6,0.8,1.1,1.3,1.6c2.6,2.8,6,4.5,9.8,4.9c0.6,0.1,1.2,0.1,1.7,0.1c3.3,0,6.4-1,9-2.9
		c2.9-2,5-5,6-8.4c0.1-0.3,0-0.6-0.1-0.8C414.8,451.8,414.6,451.7,414.3,451.6z"/>
</g>
</svg>
