<?xml version="1.0" encoding="utf-8"?>
<!-- Generator: Adobe Illustrator 17.1.0, SVG Export Plug-In . SVG Version: 6.00 Build 0)  -->
<!DOCTYPE svg PUBLIC "-//W3C//DTD SVG 1.1//EN" "http://www.w3.org/Graphics/SVG/1.1/DTD/svg11.dtd">
<svg version="1.1" xmlns="http://www.w3.org/2000/svg" xmlns:xlink="http://www.w3.org/1999/xlink" x="0px" y="0px"
	 viewBox="0 0 800 660" enable-background="new 0 0 800 660" xml:space="preserve">
<g id="Layer_2">
		<radialGradient id="light_1_" cx="399.9813" cy="329.9318" r="395.506" gradientTransform="matrix(0.9639 0 0 0.88 14.4759 39.66)" gradientUnits="userSpaceOnUse">
		<stop  offset="0.5" style="stop-color:#FFFFFF"/>
		<stop  offset="1" style="stop-color:#D9D9D9"/>
	</radialGradient>
	<rect id="light" fill="url(#light_1_)" width="800" height="660"/>
</g>
<g id="devs">

	<g id="worldmatch">
		<path fill="#5E5C4A" d="M136.1,449.8L122.5,392h13.8l4.3,23.8c1.3,6.9,2.5,14.3,3.4,20.1h0.2c0.9-6.3,2.3-13.2,3.7-20.3l4.8-23.7
			h13.8l4.6,24.3c1.3,6.8,2.2,12.9,3.1,19.4h0.2c0.8-6.4,2.1-13.2,3.3-20.1l4.7-23.7h13.2l-14.8,57.8h-14l-4.8-24.9
			c-1.1-5.8-2-11.2-2.7-17.8H159c-1,6.5-2,12-3.3,17.8l-5.4,24.9H136.1z M254,420.3c0,18.9-11.4,30.4-28.1,30.4
			c-17,0-26.9-12.9-26.9-29.4c0-17.3,11-30.3,27.9-30.3C244.4,391.1,254,404.4,254,420.3z M212.6,421.1c0,11.3,5.3,19.3,13.9,19.3
			c8.8,0,13.8-8.4,13.8-19.6c0-10.4-4.9-19.3-13.8-19.3C217.7,401.5,212.6,409.9,212.6,421.1z M262.5,392.8
			c4.2-0.7,10.4-1.2,17.2-1.2c8.5,0,14.4,1.3,18.5,4.5c3.4,2.7,5.3,6.8,5.3,12.1c0,7.4-5.2,12.4-10.1,14.2v0.3
			c4,1.6,6.2,5.5,7.6,10.8c1.8,6.5,3.6,14.1,4.7,16.3h-13.3c-0.9-1.6-2.3-6.3-4-13.5c-1.5-7.2-4-9.2-9.3-9.3h-3.9v22.7h-12.8V392.8z
			 M275.3,417.7h5.1c6.5,0,10.3-3.3,10.3-8.3c0-5.3-3.6-8-9.5-8.1c-3.1,0-4.9,0.3-5.9,0.4V417.7z M312.8,392h13v46.8h22.8v11h-35.8
			V392z M356.2,392.8c4.8-0.8,11-1.2,17.5-1.2c10.9,0,17.9,2,23.4,6.2c5.9,4.5,9.7,11.6,9.7,21.8c0,11.1-4,18.7-9.5,23.4
			c-6,5.1-15.2,7.5-26.4,7.5c-6.7,0-11.5-0.4-14.7-0.9V392.8z M369.2,440c1.1,0.3,2.9,0.3,4.5,0.3c11.7,0.1,19.4-6.4,19.4-20.2
			c0.1-12-6.9-18.3-18-18.3c-2.9,0-4.8,0.3-5.9,0.5V440z M463.8,427.7c-0.3-6.9-0.5-15.3-0.5-23.7H463c-1.8,7.4-4.2,15.6-6.4,22.4
			l-7,22.5h-10.1l-6.1-22.4c-1.9-6.8-3.8-15-5.2-22.5h-0.2c-0.3,7.8-0.6,16.7-1,23.9l-1,21.9h-12l3.7-57.8H435l5.6,19.3
			c1.8,6.7,3.6,13.9,4.8,20.7h0.3c1.6-6.7,3.6-14.3,5.4-20.7l6.1-19.2h16.9l3.1,57.8h-12.7L463.8,427.7z M500.3,435l-4.1,14.8h-13.4
			l17.5-57.8h17l17.8,57.8h-13.9l-4.4-14.8H500.3z M514.9,425.2l-3.6-12.3c-1-3.4-2-7.7-2.9-11.1h-0.2c-0.8,3.4-1.7,7.8-2.6,11.1
			l-3.4,12.3H514.9z M546.7,403h-15.4v-11h44v11h-15.6v46.8h-13V403z M621.8,448.2c-2.4,1.2-7.7,2.5-14.7,2.5
			c-19.8,0-30-12.4-30-28.9c0-19.7,13.9-30.7,31.3-30.7c6.7,0,11.8,1.4,14.1,2.6l-2.6,10.4c-2.6-1.1-6.3-2.1-10.9-2.1
			c-10.3,0-18.3,6.3-18.3,19.1c0,11.6,6.8,18.9,18.4,18.9c3.9,0,8.2-0.9,10.8-1.9L621.8,448.2z M643.3,392v22.2h21.3V392h12.9v57.8
			h-12.9v-24.2h-21.3v24.2h-13V392H643.3z"/>
		
			<linearGradient id="XMLID_81_" gradientUnits="userSpaceOnUse" x1="318.9205" y1="553.1434" x2="318.9205" y2="688.0846" gradientTransform="matrix(1.587 0 0 -1.587 -0.587 1268.9091)">
			<stop  offset="0.2036" style="stop-color:#010101"/>
			<stop  offset="0.3818" style="stop-color:#0E0E0F"/>
			<stop  offset="0.6639" style="stop-color:#4B4C4D"/>
			<stop  offset="0.8394" style="stop-color:#595A5C"/>
		</linearGradient>
		<polygon id="XMLID_438_" fill="url(#XMLID_81_)" points="540.5,277 540.5,209.2 468.9,209.2 349.7,363.1 422,363.1 474.1,295.5 
			474.4,363.1 540.9,363.1 593.3,295.5 593.3,363.1 610.5,363.1 661.3,295.6 661.3,209.2 591.8,209.2 		"/>
		<path id="XMLID_318_" fill="#5F5B4A" d="M422,363.1l52.1-67.6l0.3,67.6h66.5l52.5-67.6v67.6h17.1l50.9-67.5v-1.3
			c-68.6-10.7-152.7-17.3-243.8-18.7l-67.9,87.5H422z"/>
		
			<linearGradient id="XMLID_82_" gradientUnits="userSpaceOnUse" x1="176.2937" y1="553.1434" x2="176.2937" y2="688.0846" gradientTransform="matrix(1.587 0 0 -1.587 -0.587 1268.9091)">
			<stop  offset="0.2036" style="stop-color:#010101"/>
			<stop  offset="0.3818" style="stop-color:#0E0E0F"/>
			<stop  offset="0.6639" style="stop-color:#4B4C4D"/>
			<stop  offset="0.8394" style="stop-color:#595A5C"/>
		</linearGradient>
		<polygon id="XMLID_317_" fill="url(#XMLID_82_)" points="310.6,276.8 310.3,209.2 243.9,209.2 191.4,276.8 191.4,209.2 
			123.4,209.2 123.4,363.1 192.9,363.1 244.2,295.3 244.2,363.1 315.9,363.1 435,209.2 362.7,209.2 		"/>
		<path id="XMLID_316_" fill="#5F5B4A" d="M192.9,363.1l51.3-67.8v67.8h71.6l68-87.8c-1.1,0-2.2,0-3.3,0c-24,0-47.2,0.5-69.9,1.4
			v0.1v-0.1c-70.9,3.1-134.3,10.7-187.3,21.3v65H192.9z"/>
		<polygon id="XMLID_309_" fill="#010101" points="677.3,296.1 677.3,363.1 626.3,363.1 		"/>
	</g>
</g>
</svg>
