<?xml version="1.0" encoding="utf-8"?>
<!-- Generator: Adobe Illustrator 17.1.0, SVG Export Plug-In . SVG Version: 6.00 Build 0)  -->
<!DOCTYPE svg PUBLIC "-//W3C//DTD SVG 1.1//EN" "http://www.w3.org/Graphics/SVG/1.1/DTD/svg11.dtd">
<svg version="1.1" xmlns="http://www.w3.org/2000/svg" xmlns:xlink="http://www.w3.org/1999/xlink" x="0px" y="0px"
	 viewBox="0 0 800 660" enable-background="new 0 0 800 660" xml:space="preserve">
<g id="Layer_2">
	
		<radialGradient id="dark_1_" cx="399.9813" cy="329.9318" r="395.506" gradientTransform="matrix(0.9639 0 0 0.88 14.4759 39.66)" gradientUnits="userSpaceOnUse">
		<stop  offset="0.5" style="stop-color:#262626"/>
		<stop  offset="1" style="stop-color:#1A1A1A"/>
	</radialGradient>
	<rect id="dark" fill="url(#dark_1_)" width="800" height="660"/>
</g>

<g id="devs">

	<g id="endorphina">
		<linearGradient id="XMLID_39_" gradientUnits="userSpaceOnUse" x1="217.7222" y1="330" x2="217.7222" y2="215">
			<stop  offset="0.1352" style="stop-color:#232157"/>
			<stop  offset="0.5948" style="stop-color:#28AAE2"/>
		</linearGradient>
		<path id="XMLID_935_" fill="url(#XMLID_39_)" d="M307.5,250.4c2.3,1.2,4.5-1.9,2.6-3.7c-14.4-13.1-42.7-31.8-87-31.8
			c-56.1,0-98.4,31.3-98.4,49.7c0,20.7,40.5,31.7,42.3,63.2c0.1,1.2,1,2.1,2.2,2.1H237c1.6,0,2.6-1.5,2.1-3
			c-6.1-17.5-63-28.6-63-67.8C176.1,224.9,257.5,224,307.5,250.4z"/>
		
			<linearGradient id="XMLID_40_" gradientUnits="userSpaceOnUse" x1="217.7222" y1="329.0168" x2="217.7222" y2="212.5153" gradientTransform="matrix(1 0 0 -1 0 660.72)">
			<stop  offset="0" style="stop-color:#908F8F"/>
			<stop  offset="0" style="stop-color:#908F8F"/>
			<stop  offset="0" style="stop-color:#572614"/>
			<stop  offset="1" style="stop-color:#FAA31D"/>
		</linearGradient>
		<path id="XMLID_936_" fill="url(#XMLID_40_)" d="M307.5,409.6c2.3-1.2,4.5,1.9,2.6,3.7c-14.4,13.1-42.7,31.8-87,31.8
			c-56.1,0-98.4-31.3-98.4-49.7c0-20.7,40.5-32.6,42.3-63.2c0.1-1.2,1.1-2.1,2.2-2.1H237c1.6,0,2.6,1.5,2.1,3
			c-6.1,17.5-63,28.6-63,67.8C176.1,435.1,257.5,436,307.5,409.6z"/>
		
			<linearGradient id="XMLID_41_" gradientUnits="userSpaceOnUse" x1="182.1137" y1="259.88" x2="182.1137" y2="402.48" gradientTransform="matrix(1 0 0 -1 0 660.72)">
			<stop  offset="0" style="stop-color:#908F8F"/>
			<stop  offset="7.000000e-002" style="stop-color:#6A1C24"/>
			<stop  offset="0.25" style="stop-color:#DD1F26"/>
			<stop  offset="0.75" style="stop-color:#DD1F26"/>
			<stop  offset="0.93" style="stop-color:#6A1C24"/>
		</linearGradient>
		<path id="XMLID_937_" fill="url(#XMLID_41_)" d="M125.5,258.2c-0.9,2.8-0.9,4.6-0.9,6.4c0,21.2,42.3,32.2,42.3,65.3
			c0,32.2-42.3,44.2-42.3,65.3c0,1.8,0,3.7,0.9,5.5c-5.5-20.2,68-37.7,102-56.1c0.1,0,0.1-0.1,0.2-0.1c7.3-4.6,11.9-9.2,11.9-14.7
			s-4.6-10.1-11.9-14.7c-0.1,0-0.1-0.1-0.2-0.1C193.5,296.9,120,279.4,125.5,258.2z"/>
		
			<linearGradient id="XMLID_42_" gradientUnits="userSpaceOnUse" x1="227.3727" y1="317.206" x2="227.3727" y2="346.3599" gradientTransform="matrix(1 0 0 -1 0 660.72)">
			<stop  offset="0" style="stop-color:#DD1F26"/>
			<stop  offset="1" style="stop-color:#F9B8B8"/>
		</linearGradient>
		<path id="XMLID_938_" fill="url(#XMLID_42_)" d="M221.5,341.1c-3.3,5.1,3.4,0.9,7.7-1.5c0,0,0.1-0.1,0.1-0.1
			c4.7-2.9,7.6-5.9,7.6-9.4c0-3.5-3-5.9-7.6-9.4c0,0-0.1-0.1-0.1-0.1c-4.1-2.6-13.3-10.5-11.3-3.5
			C219.8,324,231.6,325.8,221.5,341.1z"/>
		<g id="XMLID_1390_">
			<g id="XMLID_1397_">
				<path fill="#0B2A49" d="M283.6,352.9c-7.7,0-13.5-1.6-17.2-4.9c-3.8-3.3-5.7-8.9-5.7-16.7c0-3.8,0.5-7.2,1.5-9.9
					c1-2.8,2.6-5,4.7-6.5c2-1.4,4.2-2.5,6.6-3.1c2.3-0.6,5.1-0.9,8.2-0.9c6.1,0,10.6,1.3,13.6,4c3,2.7,4.5,7,4.5,12.7
					c0,2.3-0.5,4.2-1.4,5.7c-1,1.5-2.3,2.5-3.9,3.1c-1.4,0.4-3,0.8-4.9,1c-1.3,0.1-2.7,0.2-4,0.2c-0.5,0-1,0-1.5,0
					c-0.4,0-0.8,0-1.2,0c-1.3,0-2.7,0.1-4.2,0.3c-1.3,0.2-2.5,0.4-3.6,0.7c0.2,0.3,0.5,0.6,1.1,0.9c1.2,0.6,2.8,0.9,4.8,0.9l0.6,0
					c1.9,0,3.8-0.1,5.6-0.3c2-0.2,4-0.4,5.9-0.7c2.7-0.4,3.2-0.4,3.4-0.4h1.4l0.1,1.4c0.2,4.4-0.8,7.7-2.9,9.7
					C293.2,351.9,289.4,352.9,283.6,352.9z M280.8,322.6c-1,0-2,0.2-2.9,0.5c-1.5,0.5-3.3,1.6-3.3,5c0.7-0.2,1.5-0.3,2.3-0.4
					c1.8-0.2,3.5-0.3,5.1-0.3c1.3,0,2.5-0.3,3.4-0.8c0.7-0.4,0.9-0.8,0.9-1.6c0-0.8-1.3-1.4-1.9-1.6
					C283.2,322.8,281.9,322.6,280.8,322.6z"/>
				<path fill="#FFFFFF" d="M281.7,312.5c5.7,0,9.9,1.2,12.6,3.6c2.7,2.4,4,6.3,4,11.6c0,2-0.4,3.6-1.2,4.9c-0.8,1.2-1.8,2-3.1,2.4
					c-1.3,0.4-2.8,0.7-4.6,0.9c-1.3,0.1-2.6,0.2-3.8,0.2c-0.5,0-0.9,0-1.4,0c-0.4,0-0.8,0-1.2,0c-1.4,0-2.8,0.1-4.4,0.3
					c-2,0.2-3.7,0.6-5.1,1.2c0,1.4,0.7,2.5,2.1,3.2c1.4,0.7,3.2,1.1,5.4,1.1c0.2,0,0.4,0,0.7,0c2,0,3.9-0.1,5.8-0.3
					c2.1-0.2,4.1-0.4,5.9-0.7c1.9-0.3,2.9-0.4,3.2-0.4c0.2,4-0.6,6.8-2.4,8.5c-1.8,1.7-5.3,2.5-10.7,2.5c-7.4,0-12.8-1.5-16.2-4.5
					c-3.5-3-5.2-8.2-5.2-15.5c0-3.7,0.5-6.8,1.4-9.3c0.9-2.6,2.3-4.5,4.1-5.8c1.8-1.3,3.8-2.3,6.1-2.8
					C276.1,312.8,278.7,312.5,281.7,312.5 M273.2,330.3c0.8-0.6,2.1-0.9,3.8-1.1c1.8-0.2,3.4-0.3,5-0.3c1.5,0,2.9-0.3,4.1-1
					c1.2-0.6,1.8-1.6,1.7-2.9c0-1.2-0.9-2.2-2.8-3c-1.4-0.6-2.8-0.9-4.2-0.9c-1.2,0-2.3,0.2-3.4,0.6
					C273.9,322.9,272.5,325.8,273.2,330.3 M281.7,309.5c-3.2,0-6.1,0.3-8.6,0.9c-2.6,0.6-5,1.8-7.1,3.3c-2.3,1.7-4,4.1-5.2,7.2
					c-1.1,2.9-1.6,6.4-1.6,10.4c0,8.2,2.1,14.2,6.2,17.8c4,3.5,10.1,5.2,18.2,5.2c6.3,0,10.3-1,12.7-3.3c2.4-2.3,3.6-5.9,3.3-10.8
					l-0.1-2.9h-2.9c-0.1,0-0.3,0-0.6,0c1.4-0.7,2.6-1.8,3.6-3.2c1.1-1.7,1.6-3.9,1.6-6.5c0-6.2-1.7-10.8-5-13.8
					C293,311,288.1,309.5,281.7,309.5L281.7,309.5z M276.4,326.2c0.5-1.1,1.4-1.5,2-1.7c0.8-0.3,1.6-0.4,2.4-0.4c1,0,2,0.2,3.1,0.7
					c0.5,0.2,0.7,0.3,0.9,0.5c0,0,0,0,0,0c-0.8,0.4-1.7,0.6-2.8,0.6c-1.6,0-3.4,0.1-5.2,0.3C276.6,326.2,276.5,326.2,276.4,326.2
					L276.4,326.2z"/>
			</g>
			<g id="XMLID_1417_">
				<path fill="#0B2A49" d="M341,352.3c-0.8,0-1.6,0-2.3-0.1c-1.3-0.1-2.5-0.4-3.7-0.9c-1.4-0.5-2.4-1.5-3.1-2.7
					c-0.6-1.2-0.9-2.6-0.8-4.3l0-18.3c-0.3-1.3-1.2-2.8-5.3-2.8c-0.7,0-1.6,0.1-2.4,0.2c-1.8,0.2-2.9,0.4-3.6,0.5
					c0,0.5,0.1,1,0.1,1.6v18.9c0.1,1.6-0.2,3.1-0.9,4.3c-0.7,1.3-1.7,2.2-3,2.7c-1.1,0.5-2.4,0.8-3.7,0.9c-0.7,0.1-1.5,0.1-2.3,0.1
					c-0.7,0-1.3,0-2.1-0.1l-1.4-0.1v-35c0-5.3,9.1-6.2,15.9-6.3c0.5,0,1.1,0,1.6,0c13.5,0,20.4,5,20.5,14.8v26.5l-1.4,0.1
					C342.4,352.3,341.7,352.3,341,352.3z"/>
				<path fill="#FFFFFF" d="M324.1,312.3c12.6,0,18.9,4.4,19,13.3v25.1c-0.7,0-1.4,0.1-2,0.1c-0.8,0-1.5,0-2.1-0.1
					c-1.1-0.1-2.2-0.4-3.3-0.8c-1-0.4-1.8-1.1-2.3-2c-0.5-0.9-0.7-2.1-0.7-3.6v-14.9v-0.1v-3.5c-0.6-2.8-2.8-4.2-6.8-4.2
					c-0.8,0-1.7,0.1-2.6,0.2c-2.9,0.4-4.6,0.6-5,0.8c0.1,0.8,0.2,1.7,0.2,2.8v18.9c0,1.4-0.2,2.6-0.7,3.6c-0.5,0.9-1.3,1.6-2.3,2
					c-1,0.4-2.1,0.7-3.2,0.8c-0.6,0.1-1.3,0.1-2.1,0.1c-0.6,0-1.3,0-2-0.1v-33.6c0-3,4.8-4.6,14.4-4.8
					C323,312.3,323.6,312.3,324.1,312.3 M324.1,309.3v3V309.3L324.1,309.3c-0.5,0-1.1,0-1.6,0c-5.2,0.1-17.3,0.4-17.3,7.8v33.6v2.8
					l2.8,0.2c0.8,0,1.5,0.1,2.2,0.1c0.9,0,1.7,0,2.4-0.1c1.4-0.1,2.8-0.5,4.1-1c1.6-0.7,3-1.8,3.8-3.4c0.7-1.4,1.1-3.1,1-5v-18.9
					c0-0.1,0-0.2,0-0.3c0.6-0.1,1.3-0.2,2.2-0.3c0.8-0.1,1.6-0.2,2.3-0.2c3,0,3.6,0.9,3.8,1.5v3.1v0.1v14.9c-0.1,1.9,0.3,3.6,1,5
					c0.8,1.6,2.1,2.8,3.8,3.5c1.3,0.5,2.7,0.9,4.1,1c0.7,0.1,1.6,0.1,2.4,0.1c0.7,0,1.4,0,2.2-0.1l2.8-0.2v-2.8v-25.1
					C346,318.2,342.1,309.3,324.1,309.3L324.1,309.3z"/>
			</g>
			<g id="XMLID_1419_">
				<path fill="#0B2A49" d="M373,352.7c-7.5,0-12.9-1.7-16.3-5c-3.4-3.3-5.1-8.8-5.1-16.3c0-2.9,0.4-5.6,1.2-7.9
					c0.8-2.4,1.9-4.3,3.2-5.9c1.3-1.5,2.9-2.8,4.7-3.8c1.8-1,3.6-1.7,5.4-2.1c1.8-0.4,3.7-0.6,5.6-0.6c2.5,0,4.5,0.3,6.1,0.8v-17.3
					l2.4,1.8c0.5,0.4,1.1,0.6,1.9,0.7c1,0.1,1.9,0.2,2.6,0.2c1,0,2,0.2,2.9,0.5c1.2,0.4,2.1,1.3,2.7,2.6c0.5,1.2,0.8,2.8,0.8,4.8
					v41.3l-0.4,0.4c0,0-0.2,0.3-0.6,0.7c-0.4,0.5-0.8,1-1.2,1.3c-0.4,0.4-1.1,0.8-2.1,1.4c-1,0.5-2.1,1-3.2,1.3
					c-1.1,0.3-2.6,0.6-4.5,0.8C377.4,352.6,375.3,352.7,373,352.7z M373.4,322.9c-0.5,0-1,0-1.5,0.1c-0.8,0.1-1.6,0.3-2.5,0.7
					c-0.8,0.4-1.6,0.9-2.2,1.5c-0.6,0.6-1.1,1.5-1.5,2.6c-0.4,1.2-0.6,2.6-0.6,4.3c0,1.5,0.2,2.9,0.7,4c0.5,1.1,1,1.9,1.6,2.4
					c0.6,0.5,1.5,1,2.4,1.3c1.1,0.3,2,0.5,2.9,0.6c0.3,0,0.6,0,1,0c0.6,0,1.2,0,1.8-0.1c1.3-0.1,1.9-0.2,2.2-0.3c0,0,0.1,0,0.1,0
					c0-1.1,0-3.4,0-7.9v-8.7c-0.2-0.1-0.5-0.1-0.8-0.2c-0.6-0.1-1.5-0.2-2.5-0.3C374.2,322.9,373.8,322.9,373.4,322.9z"/>
				<path fill="#FFFFFF" d="M379.4,297.6c0.7,0.5,1.6,0.8,2.6,1s2,0.2,2.8,0.2c0.9,0,1.7,0.1,2.4,0.4c0.8,0.3,1.4,0.9,1.8,1.8
					c0.4,1,0.7,2.4,0.7,4.2v40.7c0,0-0.3,0.3-0.7,0.8c-0.4,0.5-0.7,0.9-1.1,1.2c-0.3,0.3-0.9,0.7-1.8,1.2c-0.9,0.5-1.8,0.9-2.9,1.1
					c-1.1,0.3-2.5,0.5-4.3,0.8c-1.8,0.2-3.8,0.3-6.1,0.3c-7.1,0-12.2-1.5-15.2-4.6c-3.1-3.1-4.6-8.2-4.6-15.3c0-2.8,0.4-5.2,1.1-7.4
					c0.7-2.2,1.7-4,2.9-5.3c1.2-1.4,2.7-2.5,4.3-3.5c1.7-0.9,3.3-1.6,5-1.9c1.7-0.4,3.5-0.6,5.3-0.6c3.5,0,6.1,0.6,7.6,1.7V297.6
					 M373.8,341.9c0.6,0,1.3,0,2-0.1c1.1-0.1,1.9-0.2,2.3-0.3c0.4-0.1,0.8-0.2,1.2-0.3h0.1c0,0,0-3,0-9.1v-9.8
					c-0.6-0.2-1.3-0.3-2-0.5c-0.7-0.1-1.6-0.2-2.7-0.3c-0.5,0-0.9,0-1.3,0c-0.6,0-1.1,0-1.7,0.1c-0.9,0.1-1.9,0.4-2.9,0.8
					c-1,0.5-1.9,1.1-2.6,1.8c-0.7,0.8-1.3,1.8-1.8,3.2c-0.5,1.4-0.7,3-0.7,4.8c0,1.7,0.3,3.3,0.8,4.6c0.6,1.3,1.2,2.3,2,3
					c0.8,0.7,1.8,1.2,3,1.6s2.2,0.6,3.2,0.6C373.1,341.8,373.4,341.9,373.8,341.9 M376.4,291.6v5.9V310c-1.3-0.2-2.9-0.4-4.6-0.4
					c-2,0-4,0.2-5.9,0.6c-2,0.4-4,1.2-5.9,2.2c-2,1.1-3.7,2.5-5.1,4.1c-1.5,1.7-2.7,3.8-3.5,6.4c-0.8,2.5-1.3,5.3-1.3,8.4
					c0,7.9,1.9,13.8,5.5,17.4c3.6,3.6,9.5,5.5,17.4,5.5c2.4,0,4.5-0.1,6.5-0.4c1.9-0.2,3.5-0.5,4.7-0.8c1.3-0.3,2.5-0.8,3.6-1.4
					c1.1-0.6,1.9-1.1,2.4-1.6c0.4-0.4,0.9-0.9,1.4-1.5c0.3-0.3,0.4-0.5,0.5-0.6l0.8-0.8v-1.2v-40.7c0-2.3-0.3-4.1-0.9-5.4
					c-1-2.2-2.5-3.1-3.6-3.4c-1.1-0.3-2.2-0.5-3.4-0.5c-0.7,0-1.5-0.1-2.4-0.2c-0.5-0.1-0.9-0.2-1.2-0.4L376.4,291.6L376.4,291.6z
					 M373.8,338.9c-0.3,0-0.6,0-0.9,0c-0.7-0.1-1.6-0.2-2.5-0.5c-0.8-0.2-1.4-0.5-1.9-1c-0.5-0.4-0.9-1-1.2-1.9
					c-0.4-0.9-0.6-2-0.6-3.4c0-1.5,0.2-2.8,0.5-3.8c0.3-0.9,0.7-1.6,1.1-2c0.5-0.5,1-0.9,1.7-1.2c0.7-0.3,1.4-0.5,2-0.6
					c0.4,0,0.9-0.1,1.4-0.1c0.4,0,0.7,0,1.1,0c0.7,0,1.3,0.1,1.8,0.2v7.4c0,3.2,0,5.3,0,6.6c-0.3,0-0.6,0.1-0.9,0.1
					C374.9,338.8,374.3,338.9,373.8,338.9L373.8,338.9z"/>
			</g>
			<g id="XMLID_1422_">
				<path fill="#0B2A49" d="M420.8,352.3c-2.6,0-5-0.2-7-0.5c-2.1-0.3-3.9-0.8-5.3-1.4c-1.5-0.6-2.9-1.4-4.1-2.5
					c-1.1-1-2.1-2-2.8-3.1c-0.7-1.1-1.3-2.4-1.8-4c-0.4-1.5-0.8-2.9-1-4.3c-0.2-1.3-0.4-2.9-0.5-4.7c-0.1-0.3-0.1-0.7-0.1-1.2
					c0-0.3,0-1,0.2-2.9c0.2-1.4,0.5-2.8,0.8-4.1c0.4-1.3,1.1-2.8,2.1-4.4c1-1.6,2.3-3,3.8-4.2c1.5-1.2,3.5-2.1,6-2.9
					c2.4-0.8,5.2-1.1,8.3-1.1c2.1,0,4.2,0.2,6,0.5c1.9,0.3,3.5,0.8,4.8,1.4c1.4,0.6,2.6,1.4,3.7,2.3c1.1,0.9,2,1.8,2.7,2.7
					c0.7,0.9,1.4,2,1.8,3.2c0.5,1.1,0.8,2.2,1,3c0.3,0.9,0.4,1.9,0.5,3.1c0.1,1.1,0.2,1.9,0.2,2.5c0,0.6,0,1.3,0,2.2
					c0,0.8,0,1.3,0,1.4c0,0.8,0,1.5-0.1,2.1c-0.1,0.7-0.2,1.6-0.4,3c-0.2,1.4-0.6,2.6-1.1,3.8c-0.5,1.1-1.2,2.3-2.2,3.6
					c-1,1.3-2.2,2.5-3.5,3.4c-1.3,0.9-3.1,1.6-5.2,2.2C425.7,352,423.3,352.3,420.8,352.3z M411.6,332.2c0.1,1.5,0.3,2.7,0.5,3.5
					c0.2,0.8,0.6,1.5,1.1,2.3c0.5,0.7,1.2,1.1,2.2,1.4c1.2,0.4,2.8,0.6,4.7,0.6c1.4,0,2.6-0.2,3.5-0.6c0.9-0.4,1.6-0.9,2-1.3
					c0.4-0.5,0.8-1.1,1-1.9c0.4-1.1,0.5-1.5,0.5-1.7c0-0.4,0.1-0.9,0.1-1.4v-1.8c0-0.3,0-0.7-0.1-1.2c0-0.5-0.1-0.9-0.2-1.3
					c-0.1-0.4-0.3-0.9-0.5-1.4c-0.2-0.5-0.4-0.9-0.6-1.2c-0.2-0.3-0.6-0.7-1-1.1c-0.4-0.4-0.8-0.7-1.3-0.9c-0.5-0.2-1.1-0.4-1.8-0.6
					c-0.7-0.2-1.6-0.2-2.5-0.2c-1.6,0-3,0.2-4.1,0.7c-1.3,0.5-2,1-2.3,1.4c-0.4,0.5-0.8,1.2-1.1,2c-0.4,1.2-0.4,1.8-0.5,2.1
					c0,0.6,0,1.3,0,2.1L411.6,332.2z"/>
				<path fill="#FFFFFF" d="M419.4,312.5c2.1,0,4,0.2,5.7,0.5c1.7,0.3,3.3,0.8,4.5,1.3c1.3,0.6,2.4,1.2,3.4,2.1
					c1,0.8,1.8,1.6,2.4,2.4c0.6,0.8,1.2,1.8,1.6,2.9c0.4,1.1,0.8,2.1,1,2.9c0.2,0.8,0.4,1.7,0.5,2.8c0.1,1.1,0.1,1.9,0.2,2.4
					c0,0.6,0,1.3,0,2.1c0,0.9,0,1.3,0,1.4c0,0.7,0,1.4-0.1,2c0,0.6-0.2,1.5-0.4,2.8c-0.2,1.3-0.6,2.4-1,3.5c-0.4,1-1.1,2.1-2,3.3
					c-0.9,1.2-2,2.2-3.2,3c-1.2,0.8-2.8,1.5-4.8,2c-2,0.6-4.2,0.8-6.6,0.8c-2.5,0-4.8-0.2-6.8-0.5c-2-0.3-3.7-0.7-5-1.3
					c-1.4-0.5-2.6-1.3-3.6-2.2c-1-0.9-1.9-1.9-2.5-2.8c-0.6-1-1.2-2.2-1.6-3.6c-0.4-1.4-0.7-2.8-0.9-4.1c-0.2-1.3-0.4-2.9-0.5-4.7
					c0-0.3-0.1-0.6-0.1-1.1c0-0.5,0-1.4,0.2-2.7c0.2-1.3,0.4-2.6,0.8-3.8c0.4-1.2,1-2.6,1.9-4c0.9-1.5,2.1-2.7,3.4-3.8
					c1.4-1.1,3.2-1.9,5.5-2.7C413.8,312.8,416.5,312.5,419.4,312.5 M420.2,341.5c1.6,0,3-0.3,4.1-0.8c1.1-0.5,2-1.1,2.6-1.7
					c0.6-0.6,1-1.4,1.3-2.3c0.3-0.9,0.5-1.6,0.6-2.1c0-0.5,0.1-1,0.1-1.5c0,0,0-0.3,0-0.7c0-0.4,0-0.8,0-1.1c0-0.3,0-0.7-0.1-1.3
					c0-0.6-0.1-1.1-0.2-1.6c-0.1-0.4-0.3-1-0.5-1.6c-0.2-0.6-0.5-1.1-0.8-1.6c-0.3-0.4-0.7-0.9-1.2-1.3c-0.5-0.5-1-0.8-1.6-1.1
					c-0.6-0.3-1.3-0.5-2.2-0.7c-0.9-0.2-1.8-0.3-2.8-0.3c-1.8,0-3.4,0.3-4.7,0.8c-1.3,0.5-2.2,1.1-2.8,1.8c-0.6,0.7-1.1,1.5-1.4,2.6
					c-0.3,1.1-0.5,1.9-0.5,2.5c0,0.6,0,1.4,0,2.3c0,0.3,0,0.5,0,0.6c0.1,1.6,0.3,2.9,0.6,3.8c0.3,0.9,0.7,1.9,1.4,2.8
					c0.7,0.9,1.7,1.6,3,2C416.4,341.3,418.1,341.5,420.2,341.5 M419.4,309.5c-3.2,0-6.2,0.4-8.8,1.2c-2.7,0.8-4.8,1.9-6.4,3.2
					c-1.6,1.3-3,2.8-4.1,4.6c-1.1,1.7-1.8,3.3-2.3,4.8c-0.4,1.4-0.7,2.8-0.9,4.3c-0.2,2-0.2,2.8-0.2,3.2c0,0.5,0.1,0.9,0.1,1.3
					c0.1,1.8,0.3,3.4,0.5,4.8c0.2,1.4,0.6,2.9,1,4.5c0.5,1.7,1.2,3.2,2,4.4c0.8,1.2,1.8,2.3,3,3.4c1.3,1.2,2.8,2.1,4.5,2.7
					c1.6,0.6,3.5,1.1,5.6,1.4c2.1,0.3,4.6,0.5,7.2,0.5c2.7,0,5.2-0.3,7.4-0.9c2.3-0.6,4.1-1.4,5.6-2.4c1.5-1,2.8-2.2,3.9-3.7
					c1.1-1.4,1.8-2.7,2.3-4c0.5-1.2,0.9-2.6,1.1-4.1c0.3-1.4,0.4-2.4,0.5-3.1c0.1-0.7,0.1-1.4,0.1-2.2c0-0.1,0-0.6,0-1.3
					c0-0.9,0-1.7,0-2.3c0-0.6-0.1-1.5-0.2-2.6c-0.1-1.3-0.3-2.4-0.6-3.4c-0.3-0.9-0.6-2-1.1-3.1c-0.5-1.4-1.2-2.6-2.1-3.6
					c-0.8-1-1.7-1.9-2.9-2.9c-1.2-1-2.6-1.9-4.1-2.5c-1.5-0.6-3.2-1.1-5.2-1.5C423.7,309.6,421.6,309.5,419.4,309.5L419.4,309.5z
					 M413.1,332.1v-0.4v-0.1l0-0.1c0-0.8-0.1-1.5,0-2c0-0.1,0-0.6,0.4-1.8c0.2-0.6,0.4-1.1,0.7-1.5c0.1-0.1,0.5-0.5,1.7-1
					c0.9-0.4,2.1-0.6,3.6-0.6c0.8,0,1.5,0.1,2.2,0.2c0.6,0.1,1.1,0.3,1.5,0.5c0.3,0.2,0.6,0.4,0.9,0.6c0.3,0.3,0.6,0.6,0.8,0.9
					c0.1,0.2,0.3,0.5,0.4,0.8c0.2,0.5,0.3,1,0.4,1.3c0,0.2,0.1,0.5,0.2,1c0,0.7,0.1,1,0.1,1.1v1.1v0.7c0,0.4,0,0.9-0.1,1.2
					c0,0,0,0.4-0.4,1.4c-0.2,0.6-0.5,1-0.8,1.4c-0.1,0.1-0.5,0.5-1.5,0.9c-0.8,0.3-1.7,0.5-2.9,0.5c-1.8,0-3.2-0.2-4.2-0.5
					c-0.7-0.2-1.2-0.5-1.5-0.9c-0.5-0.6-0.8-1.2-0.9-1.8C413.4,334.6,413.2,333.5,413.1,332.1L413.1,332.1z"/>
			</g>
			<g id="XMLID_1425_">
				<path fill="#0B2A49" d="M458.3,353.1c-0.7-0.5-1.6-0.9-2.8-1.2c-1.3-0.3-2.5-0.6-3.4-0.8c-1.3-0.3-2.4-1-3.4-2.1
					c-1-1.2-1.4-2.8-1.4-4.8v-18.5c0-0.3,0-0.7,0-1.2c0-0.5,0.1-1.2,0.3-2.2c0.2-0.9,0.4-1.9,0.8-2.8c0.4-1,0.9-2,1.6-3
					c0.7-1,1.6-2,2.7-2.8c1-0.8,2.4-1.4,4-2c1.6-0.5,3.4-0.8,5.3-0.8h14.5l-1,1.9c0,0.2,0,0.4,0.1,0.9c0.1,1,0.1,1.9,0,2.8
					c-0.1,0.9-0.3,1.9-0.6,2.8c-0.4,1.3-1.2,2.3-2.3,3c-1.1,0.7-2.5,1.1-4.1,1.1c-1.9,0-3.3,0.1-4.3,0.2c-0.8,0.1-1.6,0.4-2.2,0.8
					c-0.5,0.4-0.9,0.8-1,1.5c-0.2,0.9-0.4,2.1-0.4,3.7v25L458.3,353.1z"/>
				<path fill="#FFFFFF" d="M474.1,312.5c0,0.1,0,0.6,0,1.4c0.1,0.9,0.1,1.7,0,2.5c-0.1,0.8-0.3,1.7-0.6,2.6
					c-0.3,0.9-0.8,1.7-1.7,2.2c-0.9,0.6-1.9,0.8-3.3,0.8c-1.9,0-3.4,0.1-4.5,0.2c-1.1,0.1-2,0.5-2.8,1c-0.8,0.6-1.4,1.3-1.7,2.3
					c-0.3,1-0.4,2.4-0.4,4.1v22.1c-0.8-0.6-1.9-1.1-3.3-1.4c-1.4-0.3-2.5-0.6-3.4-0.8c-0.9-0.2-1.8-0.7-2.5-1.6
					c-0.7-0.9-1.1-2.2-1.1-3.9v-18.5c0-0.3,0-0.7,0-1.1c0-0.5,0.1-1.1,0.2-2c0.1-0.9,0.4-1.7,0.7-2.6c0.3-0.9,0.8-1.7,1.4-2.7
					c0.6-0.9,1.4-1.7,2.3-2.4c0.9-0.7,2.1-1.3,3.6-1.7c1.4-0.5,3.1-0.7,4.9-0.7c3.1,0,5.4,0,6.8,0c1.5,0,2.3,0,2.4,0
					c0.1,0,0.4,0,0.8,0C472.5,312.5,473.2,312.5,474.1,312.5 M479,309.5h-4.9h-2h-0.8h-2.4H462c-2.1,0-4,0.3-5.8,0.8
					c-1.8,0.6-3.3,1.3-4.4,2.2c-1.2,0.9-2.2,1.9-3,3.1c-0.8,1.1-1.4,2.2-1.8,3.3c-0.4,1-0.7,2.1-0.8,3.1c-0.2,1-0.2,1.7-0.3,2.3
					c0,0.5,0,1,0,1.3v18.5c0,2.4,0.6,4.4,1.8,5.8c1.2,1.4,2.6,2.3,4.3,2.7c0.9,0.2,2,0.4,3.3,0.8c1,0.2,1.8,0.6,2.3,0.9l4.8,3.4
					v-5.9v-22.1c0-1.8,0.2-2.8,0.3-3.3c0.1-0.4,0.2-0.5,0.4-0.6c0.4-0.3,1-0.5,1.6-0.6c0.9-0.1,2.3-0.2,4.1-0.2
					c1.9,0,3.6-0.4,4.9-1.3c1.4-0.9,2.5-2.3,2.9-3.9c0.3-1.1,0.5-2.1,0.7-3.1c0.1-1,0.1-2,0-3.1c0-0.2,0-0.4,0-0.5L479,309.5
					L479,309.5z"/>
			</g>
			<g id="XMLID_1427_">
				<path fill="#0B2A49" d="M492.3,367.2c-0.6-0.4-1.4-0.7-2.5-0.8c-1.3-0.1-2.4-0.2-3.3-0.2c-1,0-2.4-0.4-3.7-2.1
					c-0.9-1.3-1.4-3.1-1.4-5.8v-41.3l0.4-0.4c0,0,0.2-0.3,0.5-0.7c0.4-0.5,0.9-1,1.3-1.3c0.4-0.3,1-0.8,2-1.3c1-0.6,2.1-1,3.3-1.3
					c1.1-0.3,2.6-0.6,4.5-0.8c1.9-0.2,4-0.4,6.3-0.4c7.5,0,12.9,1.7,16.3,5c3.4,3.3,5.1,8.8,5.1,16.3c0,3.6-0.6,6.9-1.8,9.6
					c-1.2,2.8-2.9,4.9-4.9,6.4c-2,1.5-4.1,2.5-6.4,3.2c-2.2,0.7-4.6,1-7.1,1c-2.4,0-4.4-0.2-6.1-0.5v17.1L492.3,367.2z M494.7,340.2
					c0.4,0.1,0.7,0.2,1.1,0.2c0.8,0.1,1.8,0.2,3.1,0.3c0.2,0,0.4,0,0.7,0c0.8,0,1.6-0.1,2.3-0.4c1-0.3,1.9-0.8,2.8-1.4
					c0.8-0.5,1.4-1.4,1.9-2.6c0.5-1.3,0.8-3,0.8-4.9c0-1.5-0.2-2.9-0.7-3.9c-0.5-1.1-1-1.9-1.6-2.5c-0.6-0.5-1.4-0.9-2.4-1.2
					c-1.1-0.3-2.1-0.5-2.8-0.6c-0.2,0-0.5,0-0.8,0c-0.6,0-1.3,0-2,0.1c-1.2,0.1-1.9,0.2-2.2,0.3c0,0-0.1,0-0.1,0c0,1.1,0,3.4,0,7.9
					V340.2z"/>
				<path fill="#FFFFFF" d="M499.6,312.3c7.1,0,12.2,1.5,15.2,4.6c3.1,3.1,4.6,8.2,4.6,15.3c0,3.5-0.6,6.4-1.7,9
					c-1.1,2.5-2.6,4.5-4.5,5.8c-1.9,1.4-3.8,2.3-5.9,3c-2.1,0.6-4.3,0.9-6.7,0.9c-3.2,0-5.7-0.3-7.6-1V366c-0.8-0.6-1.9-1-3.3-1.1
					c-1.4-0.1-2.5-0.2-3.5-0.2c-0.9,0-1.8-0.5-2.5-1.5c-0.7-1-1.1-2.6-1.1-4.9v-40.7c0,0,0.3-0.3,0.7-0.8c0.4-0.5,0.7-0.9,1.1-1.1
					c0.3-0.3,0.9-0.7,1.8-1.2c0.9-0.5,1.8-0.9,2.9-1.2c1.1-0.3,2.5-0.5,4.3-0.8C495.3,312.4,497.3,312.3,499.6,312.3 M499.5,342.2
					c1,0,1.9-0.1,2.8-0.4c1.1-0.4,2.2-0.9,3.2-1.6c1-0.7,1.8-1.8,2.4-3.3c0.6-1.5,0.9-3.3,0.9-5.5c0-1.7-0.3-3.3-0.9-4.6
					c-0.6-1.3-1.2-2.3-2-3c-0.8-0.7-1.8-1.2-3-1.6c-1.2-0.3-2.3-0.6-3.1-0.6c-0.3,0-0.6,0-0.9,0c-0.6,0-1.4,0-2.2,0.1
					c-1.2,0.1-2,0.2-2.3,0.3c-0.3,0-0.7,0.1-1.2,0.3h-0.1c0,0,0,3,0,9.1v9.8c0.7,0.2,1.5,0.4,2.4,0.6c0.9,0.1,1.9,0.3,3.2,0.3
					C499,342.2,499.3,342.2,499.5,342.2 M499.6,309.3c-2.4,0-4.5,0.1-6.5,0.4c-1.9,0.2-3.5,0.5-4.7,0.8c-1.3,0.3-2.5,0.8-3.6,1.5
					c-1.1,0.6-1.8,1.1-2.2,1.5c-0.5,0.4-0.9,0.9-1.4,1.5c-0.2,0.3-0.4,0.5-0.5,0.6l-0.8,0.8v1.3v40.7c0,2.9,0.6,5.1,1.7,6.7
					c1.7,2.2,3.6,2.7,4.9,2.7c0.9,0,1.9,0.1,3.2,0.2c0.8,0.1,1.4,0.2,1.8,0.5l4.8,3.4V366v-12.4c1.4,0.2,2.9,0.3,4.6,0.3
					c2.6,0,5.1-0.4,7.5-1.1c2.4-0.7,4.7-1.9,6.8-3.4c2.3-1.7,4.1-4,5.4-7.1c1.3-2.9,1.9-6.3,1.9-10.2c0-7.9-1.9-13.8-5.5-17.4
					C513.3,311.2,507.4,309.3,499.6,309.3L499.6,309.3z M496.1,324.9c0.3,0,0.6-0.1,1-0.1c0.7-0.1,1.3-0.1,1.9-0.1
					c0.2,0,0.5,0,0.6,0c0.4,0,1.2,0.2,2.5,0.5c0.8,0.2,1.4,0.5,1.8,0.9c0.3,0.3,0.8,0.8,1.3,2c0.4,0.9,0.6,2,0.6,3.3
					c0,1.7-0.2,3.2-0.7,4.4c-0.4,0.9-0.8,1.6-1.3,1.9c-0.8,0.5-1.6,0.9-2.4,1.2c-0.6,0.2-1.2,0.3-1.9,0.3c-0.2,0-0.4,0-0.6,0
					c-1.1-0.1-2.1-0.2-2.8-0.3v-7.4C496.1,328.3,496.1,326.2,496.1,324.9L496.1,324.9z"/>
			</g>
			<g id="XMLID_1430_">
				<path fill="#0B2A49" d="M561.5,352.5c-2.9,0-5.1-0.7-6.6-2c-1.6-1.4-2.4-3.4-2.4-6.1v-7.6c0.1-8.7-0.5-11.2-0.8-11.9
					c-0.2-0.4-1.1-1.4-5.2-1.5c-1.7,0-3.5,0.3-5.2,0.8v20.2c0.1,4.2-1.8,6-3.5,6.8c-1.7,0.8-3.9,1.2-6.7,1.2c-0.6,0-1.2,0-1.8-0.1
					l-1.4-0.1V294l2.4,1.7c0.6,0.4,1.4,0.7,2.5,0.8c1.3,0.1,2.4,0.2,3.3,0.2c1,0,2.4,0.4,3.7,2.1c0.9,1.3,1.4,3.2,1.4,5.8v7.2
					c2.4-0.6,5.6-0.8,9.8-0.8c2.8,0,5.2,0.5,7.3,1.5c2.1,1,3.6,2.1,4.6,3.5c0.9,1.3,1.6,2.7,2.1,4.3c0.5,1.6,0.7,2.7,0.8,3.6
					c0,0.8,0,1.4,0,2v26.4l-1.3,0.2C563.5,352.4,562.4,352.5,561.5,352.5z"/>
				<path fill="#FFFFFF" d="M529.5,296.9c0.8,0.6,1.9,1,3.3,1.1c1.4,0.1,2.5,0.2,3.5,0.2c0.9,0,1.8,0.5,2.5,1.5
					c0.7,1,1.1,2.6,1.1,4.9v9.2c2.3-0.9,6-1.4,11.3-1.4c2.6,0,4.8,0.4,6.6,1.3c1.8,0.9,3.2,1.9,4,3c0.8,1.1,1.5,2.4,1.9,3.9
					c0.4,1.4,0.7,2.5,0.7,3.2c0,0.7,0,1.3,0,1.8v25.1c-1,0.1-2,0.2-2.9,0.2c-5,0-7.5-2.2-7.5-6.6c0-1.9,0-4.5,0-7.6
					c0-6.9-0.3-11-1-12.5c-0.7-1.5-2.9-2.3-6.5-2.4c-2.3,0-4.5,0.4-6.8,1.2v21.3c0.1,2.8-0.8,4.6-2.6,5.4c-1.5,0.7-3.5,1-6,1
					c-0.5,0-1.1,0-1.7,0V296.9 M526.5,291.1v5.9v53.8v2.8l2.8,0.2c0.6,0,1.3,0.1,1.9,0.1c3,0,5.4-0.4,7.3-1.3
					c1.7-0.8,4.5-2.9,4.3-8.2v-19c1.2-0.3,2.5-0.5,3.7-0.5c2.8,0.1,3.6,0.6,3.8,0.7c0.2,0.5,0.7,2.7,0.7,11.2l0,7.6
					c0,6.1,3.8,9.6,10.5,9.6c1,0,2.1-0.1,3.3-0.2l2.6-0.3v-2.6v-25c0-0.6,0-1.3,0-2.1c-0.1-1-0.3-2.2-0.8-3.9
					c-0.5-1.8-1.3-3.4-2.4-4.8c-1.1-1.5-2.8-2.8-5.1-3.9c-2.2-1.1-4.9-1.6-7.9-1.6c-3.3,0-6.1,0.2-8.3,0.5v-5.4
					c0-2.9-0.6-5.1-1.7-6.7c-1.7-2.2-3.6-2.7-4.9-2.7c-0.9,0-1.9-0.1-3.2-0.2c-0.8-0.1-1.4-0.2-1.8-0.5L526.5,291.1L526.5,291.1z"/>
			</g>
			<g id="XMLID_1432_">
				<path fill="#0B2A49" d="M576.6,352.3c-0.6,0-1.2,0-1.8-0.1l-1.4-0.1v-43.3l2.4,1.7c0.6,0.4,1.3,0.7,2.3,0.8
					c-1.1-0.3-2-0.9-2.9-1.7c-1.4-1.4-2-3.1-2-5c0-1.9,0.7-3.6,2.1-5c1.4-1.4,3-2.1,5-2.1c1.9,0,3.6,0.7,5,2.1c1.4,1.4,2.1,3,2.1,5
					c0,1.9-0.7,3.6-2.1,5c-1.1,1.1-2.3,1.7-3.7,2c0.1,0,0.2,0,0.2,0c1,0,2.4,0.4,3.7,2.1c0.9,1.3,1.4,3.2,1.4,5.8v25
					c0.1,4.2-1.8,6-3.5,6.8C581.5,351.9,579.4,352.3,576.6,352.3L576.6,352.3z"/>
				<path fill="#FFFFFF" d="M580.1,299.1c1.5,0,2.8,0.5,3.9,1.6c1.1,1.1,1.6,2.4,1.6,3.9c0,1.5-0.5,2.8-1.6,3.9
					c-1.1,1.1-2.4,1.6-3.9,1.6c-1.5,0-2.8-0.5-3.9-1.6c-1.1-1.1-1.6-2.4-1.6-3.9c0-1.5,0.5-2.8,1.6-3.9
					C577.3,299.6,578.6,299.1,580.1,299.1 M574.9,311.8c0.8,0.6,1.9,1,3.3,1.1c1.4,0.1,2.5,0.2,3.5,0.2c0.9,0,1.8,0.5,2.5,1.5
					c0.7,1,1.1,2.6,1.1,4.9v25c0.1,2.8-0.8,4.6-2.6,5.4c-1.5,0.7-3.5,1-6,1c-0.5,0-1.1,0-1.7,0V311.8 M580.1,296.1
					c-2.3,0-4.4,0.9-6,2.5c-1.6,1.6-2.5,3.7-2.5,6c0,0.8,0.1,1.5,0.3,2.2v5v39v2.8l2.8,0.2c0.6,0,1.3,0.1,1.9,0.1
					c3,0,5.4-0.4,7.3-1.3c1.7-0.8,4.5-2.9,4.3-8.2v-24.9c0-2.9-0.6-5.1-1.7-6.7c-0.4-0.5-0.8-1-1.2-1.3c0.3-0.2,0.6-0.5,0.9-0.8
					c1.6-1.6,2.5-3.7,2.5-6c0-2.3-0.9-4.4-2.5-6C584.5,296.9,582.4,296.1,580.1,296.1L580.1,296.1z"/>
			</g>
			<g id="XMLID_1437_">
				<path fill="#0B2A49" d="M628.6,352.3c-0.8,0-1.6,0-2.3-0.1c-1.3-0.1-2.5-0.4-3.7-0.9c-1.4-0.5-2.4-1.5-3.1-2.7
					c-0.6-1.2-0.9-2.6-0.8-4.3l0-18.3c-0.3-1.3-1.2-2.8-5.3-2.8c-0.7,0-1.6,0.1-2.4,0.2c-1.8,0.2-2.9,0.4-3.6,0.5
					c0,0.5,0.1,1,0.1,1.6v18.9c0.1,1.6-0.2,3.1-0.9,4.3c-0.7,1.3-1.7,2.2-3,2.7c-1.1,0.5-2.4,0.8-3.7,0.9c-0.7,0.1-1.5,0.1-2.3,0.1
					c-0.7,0-1.3,0-2.1-0.1l-1.4-0.1v-35c0-5.3,9.1-6.2,15.9-6.3c0.5,0,1.1,0,1.6,0c13.5,0,20.4,5,20.5,14.8v26.5l-1.4,0.1
					C629.9,352.3,629.2,352.3,628.6,352.3z"/>
				<path fill="#FFFFFF" d="M611.6,312.3c12.6,0,18.9,4.4,19,13.3v25.1c-0.7,0-1.4,0.1-2,0.1c-0.8,0-1.5,0-2.1-0.1
					c-1.2-0.1-2.2-0.4-3.3-0.8c-1-0.4-1.8-1.1-2.3-2c-0.5-0.9-0.7-2.1-0.7-3.6v-14.9v-0.1v-3.5c-0.6-2.8-2.8-4.2-6.8-4.2
					c-0.8,0-1.7,0.1-2.6,0.2c-2.9,0.4-4.6,0.6-5,0.8c0.1,0.8,0.2,1.7,0.2,2.8v18.9c0,1.4-0.2,2.6-0.7,3.6c-0.5,0.9-1.3,1.6-2.3,2
					c-1,0.4-2.1,0.7-3.2,0.8c-0.6,0.1-1.3,0.1-2.1,0.1c-0.6,0-1.3,0-2-0.1v-33.6c0-3,4.8-4.6,14.4-4.8
					C610.6,312.3,611.1,312.3,611.6,312.3 M611.6,309.3v3V309.3L611.6,309.3c-0.5,0-1.1,0-1.6,0c-5.2,0.1-17.3,0.4-17.3,7.8v33.6
					v2.8l2.8,0.2c0.8,0,1.5,0.1,2.2,0.1c0.9,0,1.7,0,2.4-0.1c1.4-0.1,2.8-0.5,4.1-1c1.6-0.7,3-1.8,3.8-3.4c0.8-1.4,1.1-3.1,1-5
					v-18.9c0-0.1,0-0.2,0-0.3c0.6-0.1,1.3-0.2,2.2-0.3c0.8-0.1,1.6-0.2,2.3-0.2c3,0,3.6,0.9,3.8,1.5v3.1v0.1v14.9
					c-0.1,1.9,0.3,3.6,1,5c0.8,1.6,2.1,2.8,3.8,3.5c1.3,0.5,2.7,0.9,4.1,1c0.7,0.1,1.6,0.1,2.4,0.1c0.7,0,1.4,0,2.2-0.1l2.8-0.2
					v-2.8v-25.1C633.6,318.2,629.7,309.3,611.6,309.3L611.6,309.3z"/>
			</g>
			<g id="XMLID_1440_">
				<path fill="#0B2A49" d="M651.5,352.3c-0.2,0-0.4,0-0.7,0c-0.3,0-0.8-0.1-1.7-0.2c-0.8-0.1-1.7-0.3-2.4-0.6
					c-0.8-0.3-1.7-0.7-2.6-1.3c-1-0.6-1.8-1.3-2.5-2.2c-0.7-0.8-1.3-1.9-1.8-3.2c-0.5-1.3-0.7-2.8-0.7-4.4c0-2.7,0.4-5,1.1-6.9
					c0.7-2,1.9-3.6,3.5-4.7c1.5-1.1,3.1-1.8,4.9-2.2c1.7-0.4,3.8-0.6,6.2-0.6c4.7,0,6.8-0.4,7.7-0.7c1.2-0.4,1.2-0.9,1.2-1
					c0-0.7-1.2-1.3-3.3-1.7c-1.8-0.3-3.7-0.5-5.7-0.5c-1.1,0-2.3,0.1-3.5,0.2c-3.2,0.3-5.6,0.8-7.1,1.3l-2.1,0.8v-2.2
					c0-0.1,0-0.2,0-0.3c0-0.2-0.1-0.6-0.1-1.7c0-0.7,0.1-1.5,0.2-2.1c0.1-0.7,0.4-1.5,0.8-2.4c0.4-0.9,1-1.8,1.7-2.4
					c0.7-0.7,1.7-1.2,2.8-1.6c1.2-0.4,2.5-0.6,4-0.6h1.9c0.6,0,1.2,0,1.8,0c0.6,0,1.3,0,1.9,0c1.3,0,2.5,0.1,3.8,0.2
					c1.4,0.1,2.7,0.3,4,0.6c1.3,0.3,2.5,0.8,3.6,1.2c1.2,0.5,2.4,1.3,3.4,2.3c1,0.9,1.9,2,2.6,3.2c0.7,1.2,1.3,2.8,1.7,4.5
					c0.4,1.7,0.6,3.7,0.6,5.8v7.6c0,2-0.2,3.9-0.7,5.5c-0.5,1.7-1,3.1-1.7,4.2c-0.7,1.1-1.6,2.1-2.6,2.9c-1,0.8-2,1.4-2.9,1.8
					c-0.9,0.4-1.9,0.7-3.1,0.9c-1.1,0.2-2,0.4-2.6,0.4c-0.6,0-1.3,0.1-2.2,0.1H651.5z M663.8,335.6c-0.3,0.1-0.6,0.3-1,0.5
					c-1.4,0.6-2.8,0.9-4.3,0.9c-2.1,0-3.7,0.2-4.9,0.7c-0.5,0.2-1.2,0.5-1.2,1c0,0.7,0.2,1.1,0.8,1.4c0.4,0.2,1.6,0.7,5.3,0.7
					c1.2,0,2.2,0,2.8,0c0.4,0,0.8-0.1,1.2-0.3c0.6-0.3,0.8-0.5,0.8-0.5c0,0,0,0,0,0c0,0,0.1-0.3,0.3-1.1c0.1-0.8,0.2-1.6,0.3-2.4
					C663.8,336.1,663.8,335.9,663.8,335.6z"/>
				<path fill="#FFFFFF" d="M655.2,312.4c0.6,0,1.2,0,1.9,0c1.3,0,2.5,0.1,3.8,0.2c1.3,0.1,2.5,0.3,3.7,0.6c1.2,0.3,2.3,0.7,3.4,1.2
					c1.1,0.5,2.1,1.1,3,2c0.9,0.9,1.7,1.8,2.3,2.9c0.7,1.1,1.2,2.5,1.6,4.1c0.4,1.6,0.6,3.4,0.6,5.5v0.5v0.5v0.6v0.5v0.6v0.6v0.6
					v0.7v0.7v0.8v1.1v0.6c0,1.9-0.2,3.6-0.6,5.1c-0.4,1.5-0.9,2.8-1.6,3.8c-0.6,1-1.4,1.8-2.3,2.6c-0.9,0.7-1.8,1.3-2.6,1.6
					s-1.7,0.6-2.8,0.8c-1.1,0.2-1.9,0.3-2.4,0.4c-0.6,0-1.3,0.1-2,0.1h-9.5c-0.1,0-0.3,0-0.6,0c-0.3,0-0.8-0.1-1.6-0.2
					c-0.8-0.1-1.5-0.3-2.2-0.5c-0.7-0.2-1.5-0.6-2.3-1.1c-0.9-0.5-1.6-1.1-2.2-1.9c-0.6-0.7-1.1-1.6-1.5-2.8
					c-0.4-1.1-0.6-2.4-0.6-3.9c0-2.5,0.3-4.7,1-6.4c0.6-1.7,1.6-3.1,2.9-4c1.3-0.9,2.8-1.6,4.4-2c1.6-0.4,3.6-0.6,5.9-0.6
					c4,0,6.7-0.3,8.2-0.8c1.4-0.5,2.2-1.3,2.2-2.4c0-1.6-1.5-2.6-4.5-3.2c-1.9-0.3-3.9-0.5-5.9-0.5c-1.2,0-2.4,0.1-3.7,0.2
					c-3.4,0.3-5.9,0.8-7.5,1.4c0-0.1,0-0.3-0.1-0.6c0-0.2-0.1-0.7,0-1.3c0-0.7,0.1-1.3,0.2-1.9c0.1-0.6,0.3-1.3,0.7-2
					c0.3-0.8,0.8-1.4,1.4-1.9c0.6-0.5,1.4-1,2.3-1.3c1-0.4,2.1-0.6,3.5-0.6c0.4,0,1.1,0,1.9,0C654,312.4,654.6,312.4,655.2,312.4
					 M665.3,332.5c-0.2,0.2-0.4,0.5-0.8,0.8c-0.3,0.3-1.1,0.7-2.3,1.3c-1.2,0.5-2.4,0.8-3.7,0.8c-2.3,0-4.1,0.3-5.5,0.8
					c-1.4,0.6-2.1,1.3-2.1,2.3c0,1.2,0.5,2.1,1.5,2.7c1,0.6,3,0.9,6.1,0.9c1.2,0,2.2,0,2.9,0c0.7,0,1.3-0.2,1.9-0.5
					c0.6-0.3,1-0.6,1.2-0.9c0.2-0.3,0.4-0.9,0.6-1.8c0.2-0.9,0.3-1.8,0.3-2.6C665.3,335.6,665.3,334.3,665.3,332.5 M655.2,309.4
					c-0.6,0-1.3,0-1.9,0h-1.9c-1.7,0-3.2,0.2-4.5,0.7c-1.4,0.5-2.5,1.2-3.3,1.9c-0.9,0.8-1.6,1.8-2.1,2.9c-0.4,1-0.7,1.9-0.9,2.7
					c-0.1,0.7-0.2,1.5-0.3,2.4c0,0.9,0,1.5,0.1,2c0,0,0,0,0,0.1v4.3l4.1-1.6c0.9-0.4,2.8-0.9,6.7-1.2c1.1-0.1,2.3-0.2,3.4-0.2
					c1.9,0,3.7,0.2,5.4,0.5c0.2,0,0.5,0.1,0.6,0.1c-1.1,0.2-2.9,0.3-5.9,0.3c-2.5,0-4.7,0.2-6.5,0.6c-2,0.5-3.8,1.3-5.5,2.5
					c-1.8,1.3-3.1,3.1-4,5.4c-0.8,2.1-1.2,4.6-1.2,7.4c0,1.8,0.3,3.4,0.8,4.9c0.5,1.5,1.2,2.7,2,3.7c0.8,1,1.8,1.8,2.9,2.5
					c1.1,0.7,2,1.1,2.9,1.4c0.8,0.3,1.7,0.5,2.7,0.6c0.8,0.1,1.4,0.2,1.7,0.2c0.4,0,0.6,0,0.9,0h9.5c0.9,0,1.6,0,2.3-0.1
					c0.7-0.1,1.6-0.2,2.8-0.4c1.3-0.2,2.4-0.6,3.4-1c1.1-0.5,2.1-1.1,3.3-2c1.2-0.9,2.2-2,3-3.3c0.8-1.2,1.4-2.7,1.9-4.6
					c0.5-1.8,0.7-3.8,0.7-5.9v-0.6v-1.1v-0.8v-0.7v-0.7v-0.6v-0.6v-0.6v-0.5v-0.6v-0.5v-0.5c0-2.2-0.2-4.3-0.6-6.1
					c-0.4-1.9-1.1-3.6-1.9-5c-0.8-1.3-1.8-2.5-2.8-3.6c-1.2-1.1-2.5-2-3.9-2.6c-1.2-0.5-2.5-1-3.8-1.3c-1.4-0.4-2.8-0.6-4.3-0.7
					c-1.3-0.1-2.5-0.1-3.8-0.2C656.5,309.4,655.8,309.4,655.2,309.4L655.2,309.4z M654.5,338.9c1-0.3,2.3-0.5,3.9-0.5
					c1.2,0,2.5-0.2,3.7-0.6c0,0.2-0.1,0.4-0.1,0.6c0,0.2-0.1,0.3-0.1,0.4c-0.1,0-0.1,0.1-0.2,0.1c-0.2,0.1-0.3,0.1-0.5,0.1
					c-0.6,0-1.5,0-2.8,0C656.3,339.2,655.2,339,654.5,338.9L654.5,338.9z"/>
			</g>
		</g>
	</g>
</g>
</svg>
