<?xml version="1.0" encoding="utf-8"?>
<!-- Generator: Adobe Illustrator 17.1.0, SVG Export Plug-In . SVG Version: 6.00 Build 0)  -->
<!DOCTYPE svg PUBLIC "-//W3C//DTD SVG 1.1//EN" "http://www.w3.org/Graphics/SVG/1.1/DTD/svg11.dtd">
<svg version="1.1" xmlns="http://www.w3.org/2000/svg" xmlns:xlink="http://www.w3.org/1999/xlink" x="0px" y="0px"
	 viewBox="0 0 800 660" enable-background="new 0 0 800 660" xml:space="preserve">
<g id="Layer_2">
	
		<radialGradient id="light_1_" cx="399.9813" cy="329.9318" r="395.506" gradientTransform="matrix(0.9639 0 0 0.88 14.4759 39.66)" gradientUnits="userSpaceOnUse">
		<stop  offset="0.5" style="stop-color:#FFFFFF"/>
		<stop  offset="1" style="stop-color:#D9D9D9"/>
	</radialGradient>
	<rect id="light" fill="url(#light_1_)" width="800" height="660"/>
</g>

<g id="devs">
	<g id="genesis-gaming">
		<path fill="#ED1C24" d="M391.5,343.6v-64.9h14.4v64.9H391.5z M381.1,254.1c-37.6,6.1-68.7,31.5-82.5,65.7h18h40v-14.4h-31.1
			c10.4-13.7,23.5-24.5,40.1-30.6v54.7h-79.2c14.2-49,59.4-84.9,112.9-84.9c53.5,0,98.7,35.9,112.9,84.9h-80.1v-54.7
			c16.5,6.1,29.6,16.9,40,30.6h-31.1v14.4h39.9h18c-13.8-34.1-44.8-59.5-82.5-65.7v89.5h115.4c-9-65.2-64.9-115.4-132.6-115.4
			s-123.6,50.2-132.6,115.4h114.4 M391.5,253.3v15.3c2.4-0.2,4.8-0.3,7.2-0.3s4.8,0.1,7.2,0.3v-15.3c-2.4-0.2-4.8-0.2-7.2-0.2
			C396.3,253.1,393.9,253.2,391.5,253.3z"/>
		<path id="XMLID_500_" d="M682.6,400.9c0,7.4-6,13.3-13.3,13.3h-62.2c-2.6,0-4.7-2.1-4.7-4.7c0-2.6,2.1-4.7,4.7-4.7h62.2
			c2.2,0,4-1.8,4-4c0-2.2-1.8-4-4-4h-54.6c-7.4,0-13.3-6-13.3-13.3c0-7.4,6-13.3,13.3-13.3h63.8c2.6,0,4.7,2.1,4.7,4.7
			c0,2.6-2.1,4.7-4.7,4.7h-63.8c-2.2,0-4,1.8-4,4c0,2.2,1.8,4,4,4h54.6C676.6,387.5,682.6,393.5,682.6,400.9z M500.6,379.6h63.8
			c2.6,0,4.7-2.1,4.7-4.7c0-2.6-2.1-4.7-4.7-4.7h-63.8c-7.4,0-13.3,6-13.3,13.3c0,7.4,6,13.3,13.3,13.3h54.6c2.2,0,4,1.8,4,4
			c0,2.2-1.8,4-4,4H493c-2.6,0-4.7,2.1-4.7,4.7c0,2.6,2.1,4.7,4.7,4.7h62.2c7.4,0,13.3-6,13.3-13.3c0-7.4-6-13.3-13.3-13.3h-54.6
			c-2.2,0-4-1.8-4-4C496.6,381.4,498.4,379.6,500.6,379.6z M584.7,370.2c-2.6,0-4.7,2.1-4.7,4.7v34.7c0,2.6,2.1,4.7,4.7,4.7
			s4.7-2.1,4.7-4.7v-34.7C589.3,372.3,587.2,370.2,584.7,370.2z M471.8,404.1h-58.7c-1.8,0-7.5-5-7.5-11.8c0-6.8,5.7-11.8,7.5-11.8
			h49.9c2.2,0,4,1.8,4,4c0,2.2-1.8,4-4,4h-47.4c-2.6,0-4.7,2.1-4.7,4.7c0,2.6,2.1,4.7,4.7,4.7h47.4c7.4,0,13.3-6,13.3-13.3
			c0-7.4-6-13.3-13.3-13.3h-49.9c-7.6,0-16.9,9.8-16.9,21.2c0,11.4,9.3,21.2,16.9,21.2h58.7c2.6,0,4.7-2.1,4.7-4.7
			S474.4,404.1,471.8,404.1z M287.1,404.1h-58.7c-1.8,0-7.5-5-7.5-11.8c0-6.8,5.7-11.8,7.5-11.8h49.9c2.2,0,4,1.8,4,4
			c0,2.2-1.8,4-4,4h-47.4c-2.6,0-4.7,2.1-4.7,4.7c0,2.6,2.1,4.7,4.7,4.7h47.4c7.4,0,13.3-6,13.3-13.3c0-7.4-6-13.3-13.3-13.3h-49.9
			c-7.6,0-16.8,9.8-16.8,21.2c0,11.4,9.3,21.2,16.8,21.2h58.7c2.6,0,4.7-2.1,4.7-4.7S289.7,404.1,287.1,404.1z M198.4,385v14.6
			c0,3.6-1.4,6.9-3.7,9.4c2.1,2.5,3.5,5.8,3.5,9.4c0,7.4-6,13.3-13.3,13.3h-32.2c-2.6,0-4.7-2.1-4.7-4.7c0-2.6,2.1-4.7,4.7-4.7h32.2
			c2.2,0,4-1.8,4-4c0-2.4-2-4.8-3.9-4.8c-0.1,0-0.1,0-0.2,0c-0.1,0-0.3,0-0.4,0l-51.8-0.1c-8,0-15.7-10.3-15.7-21.2
			c0-9.3,6.3-20.3,15.2-21.1l0.4,0l51.8-0.2C192.1,371,198.4,377.3,198.4,385z M132.6,404.1l51.8,0.1c2.6,0,4.7-2.1,4.7-4.7V385
			c0-2.6-2.1-4.7-4.7-4.7l-51.5,0.2c-2.1,0.4-6.6,4.7-6.6,11.8C126.2,399.3,131,404.1,132.6,404.1z M369.8,370.9h-53.1
			c-7.7,0-14,6.3-14,14v28.6h9.4v-28.6c0-2.6,2.1-4.7,4.7-4.7h53.1c2.6,0,4.7,2.1,4.7,4.7v28.6h9.4v-28.6
			C383.8,377.2,377.5,370.9,369.8,370.9z"/>
	</g>
</g>
</svg>
