<?xml version="1.0" encoding="utf-8"?>
<!-- Generator: Adobe Illustrator 17.1.0, SVG Export Plug-In . SVG Version: 6.00 Build 0)  -->
<!DOCTYPE svg PUBLIC "-//W3C//DTD SVG 1.1//EN" "http://www.w3.org/Graphics/SVG/1.1/DTD/svg11.dtd">
<svg version="1.1" xmlns="http://www.w3.org/2000/svg" xmlns:xlink="http://www.w3.org/1999/xlink" x="0px" y="0px"
	 viewBox="0 0 800 660" enable-background="new 0 0 800 660" xml:space="preserve">
<g id="Layer_2">
	
		<radialGradient id="SVGID_1_" cx="399.9813" cy="329.9318" r="395.506" gradientTransform="matrix(0.9639 0 0 0.88 14.4759 39.66)" gradientUnits="userSpaceOnUse">
		<stop  offset="0.5" style="stop-color:#262626"/>
		<stop  offset="1" style="stop-color:#1A1A1A"/>
	</radialGradient>
	<rect fill="url(#SVGID_1_)" width="800" height="660"/>
</g>
<g id="Layer_1">
	<path fill="#FFFFFF" d="M615.7,417.6V242.4c0-18.6-15.1-33.7-33.7-33.7H218c-18.6,0-33.7,15.1-33.7,33.7v175.3
		c0,18.6,15.1,33.7,33.7,33.7H582C600.6,451.4,615.7,436.2,615.7,417.6L615.7,417.6z M197.7,417.6V242.4c0-11.2,9.1-20.2,20.2-20.2
		h20.2v168.5c0,3.7,3,6.7,6.7,6.7c3.7,0,6.7-3,6.7-6.7V222.1h296.6v168.5c0,3.7,3,6.7,6.7,6.7c3.7,0,6.7-3,6.7-6.7V222.1H582
		c11.2,0,20.2,9.1,20.2,20.2v175.3c0,11.2-9.1,20.2-20.2,20.2h-20.2v-20.2c0-3.7-3-6.7-6.7-6.7c-3.7,0-6.7,3-6.7,6.7v20.2H251.7
		v-20.2c0-3.7-3-6.7-6.7-6.7c-3.7,0-6.7,3-6.7,6.7v20.2H218C206.8,437.9,197.7,428.8,197.7,417.6L197.7,417.6z M197.7,417.6
		 M588.8,343.5v-27c0-3.7-3-6.7-6.7-6.7c-3.7,0-6.7,3-6.7,6.7v27c0,3.7,3,6.7,6.7,6.7C585.8,350.2,588.8,347.2,588.8,343.5
		L588.8,343.5z M588.8,343.5 M588.8,296.3c0-1.8-0.7-3.5-2-4.8c-1.3-1.3-3-2-4.8-2c-1.8,0-3.5,0.7-4.8,2c-1.3,1.3-2,3-2,4.8
		c0,1.8,0.7,3.5,2,4.8c1.3,1.3,3,2,4.8,2c1.8,0,3.5-0.7,4.8-2C588.1,299.8,588.8,298.1,588.8,296.3L588.8,296.3z M588.8,296.3
		 M231.5,330c0-7.4-6-13.5-13.5-13.5c-7.4,0-13.5,6-13.5,13.5c0,7.4,6,13.5,13.5,13.5C225.4,343.5,231.5,337.4,231.5,330L231.5,330z
		 M231.5,330 M333.1,357c17.9,12.2,41.7,18.9,66.9,18.9c25.3,0,49-6.7,66.9-18.9c18.2-12.3,28.2-28.8,28.2-46.4
		c0-17.6-10-34.1-28.2-46.4C449,252,425.3,245.3,400,245.3c-25.3,0-49,6.7-66.9,18.9c-18.2,12.3-28.2,28.8-28.2,46.4
		C304.9,328.2,314.9,344.6,333.1,357z M400,371.7c-0.4,0-4.1-0.1-4.2-0.1l0-1.6c1.4,0.1,2.8,0.1,4.1,0.1c1.4,0,2.8,0,4.1-0.1l0,1.6
		C404.1,371.6,400.4,371.7,400,371.7z M334.5,349.1l8.2-1.5c0.9,1.1,1.9,2.1,2.9,3.1L339,353C337.4,351.7,335.9,350.4,334.5,349.1z
		 M338.9,331.2c-0.4-1.9-0.7-3.9-0.7-5.9c0-0.8,0-1.7,0.1-2.5c0.2-2.1,0.6-4.2,1.3-6.2c0.7-2.1,1.6-4.1,2.8-6c1.2-2,2.6-3.9,4.3-5.8
		c1.4-1.6,3-3,4.6-4.4c2-1.7,4.2-3.3,6.6-4.7c2.1-1.3,4.3-2.5,6.7-3.6c2.6-1.2,5.4-2.3,8.3-3.2c2.5-0.8,5.2-1.5,7.8-2.1
		c3-0.7,6.1-1.2,9.2-1.5c0.1,0,0.1,0,0.2,0c0.3,0,0.6-0.1,0.9-0.1v4.2c-11.6,1.3-22.3,5.2-30.3,11.1c-8.7,6.4-13.4,14.7-13.4,23.4
		c0,9.5,5.6,18.4,15.7,25c9.9,6.4,23,10,36.9,10c13.9,0,27-3.5,36.9-10c10.2-6.6,15.7-15.5,15.7-25c0-8.7-4.8-17-13.4-23.4
		c-7.9-5.9-18.6-9.7-30.3-11.1v-4.2c0.2,0,0.3,0,0.5,0c3.1,0.3,6.3,0.8,9.3,1.4c2.6,0.5,5.3,1.2,7.9,2c2.9,0.9,5.7,2,8.3,3.2
		c2.4,1.1,4.6,2.3,6.8,3.5c2.4,1.4,4.7,3,6.7,4.7c1.7,1.4,3.3,2.9,4.7,4.4c1.7,1.9,3.2,3.8,4.4,5.8c1.2,2,2.2,4,2.9,6.1
		c0.7,2.1,1.2,4.2,1.4,6.3c0.1,0.9,0.1,1.7,0.1,2.6c0,2-0.2,3.9-0.6,5.8c-0.5,2.2-1.2,4.4-2.3,6.5c-1.1,2.2-2.4,4.4-4.1,6.4
		c-1.7,2.1-3.6,4.1-5.8,6c-2.8,2.4-6.1,4.6-9.6,6.6c-2.8,1.6-5.9,2.9-9.1,4.1c-4.2,1.6-8.8,2.8-13.5,3.7c-3.6,0.7-7.4,1.1-11.1,1.3
		c-3.9,0.2-7.9,0.2-11.6,0c-3.7-0.2-7.5-0.7-11.1-1.4c-4.7-0.9-9.2-2.2-13.4-3.7c-3.1-1.2-6.2-2.6-9-4.1c-3.5-1.9-6.7-4.1-9.5-6.6
		c-2.2-1.9-4.1-3.9-5.7-5.9c-1.6-2-3-4.2-4-6.3C340.2,335.5,339.4,333.4,338.9,331.2z M400,301.4c0.5,0,1-0.1,1.6-0.2v7.1
		c0,0.9-0.7,1.6-1.6,1.6c-0.9,0-1.6-0.7-1.6-1.6v-7.1C399,301.3,399.5,301.4,400,301.4z M408.8,293.5c1.5,0.2,2.9,0.4,4.3,0.6
		l-6.5,8.3c-0.3-0.1-0.5-0.2-0.8-0.2V299C407.4,297.6,408.5,295.7,408.8,293.5z M351.6,323.8c0-5.4,2.2-10.5,6.1-14.9l27.4,3.3
		c0.1,1.3,0.5,2.5,1.3,3.7l-33.5,15.1C352,328.6,351.6,326.2,351.6,323.8z M382.4,295.1l7.2,9.1c-1.6,1.1-2.8,2.4-3.6,3.8l-24.4-3
		C366.9,300.7,374.1,297.2,382.4,295.1z M400,314c3.2,0,5.7-2.6,5.7-5.7v-1.7c0.2,0.1,0.4,0.2,0.7,0.3c2.3,1,3.8,2.5,4.2,4
		c0.1,0.3,0.1,0.5,0.1,0.8c0,1.5-1,2.6-1.9,3.4c-1.2,1-2.8,1.7-4.6,2.2c-2.6,0.7-5.7,0.7-8.3,0c-1.8-0.5-3.5-1.2-4.6-2.2
		c-0.9-0.7-1.9-1.9-1.9-3.4c0-0.3,0-0.5,0.1-0.8c0.4-1.6,1.9-3,4.2-4c0.2-0.1,0.4-0.2,0.7-0.3v1.7C394.3,311.4,396.8,314,400,314z
		 M389.6,319c0.8,0.6,1.8,1,2.8,1.5l-15,30.6c-10.3-3.5-18.5-9.3-22.7-16.3L389.6,319z M396.5,321.5c1.1,0.2,2.3,0.3,3.5,0.3
		c1.2,0,2.4-0.1,3.5-0.3l15.1,30.7c-5.7,1.5-12,2.4-18.6,2.4c-6.6,0-12.8-0.8-18.6-2.4L396.5,321.5z M422.6,351l-15-30.6
		c1-0.4,1.9-0.9,2.8-1.5l34.9,15.7C441.1,341.7,433,347.5,422.6,351z M447.1,330.9l-33.5-15.1c0.7-1.1,1.2-2.4,1.3-3.7l27.4-3.3
		c3.9,4.5,6.1,9.6,6.1,14.9C448.4,326.2,448,328.6,447.1,330.9z M414,308c-0.8-1.4-2-2.8-3.6-3.8l7.2-9.1c8.3,2.1,15.5,5.6,20.8,10
		L414,308z M394.3,302.1c-0.3,0.1-0.5,0.2-0.8,0.2l-6.5-8.3c1.4-0.3,2.8-0.5,4.3-0.6c0.3,2.2,1.4,4.1,3,5.6V302.1z M461,353
		l-6.6-2.3c1-1,2-2.1,2.9-3.1l8.2,1.5C464.1,350.4,462.6,351.7,461,353z M408.3,369.8c2.7-0.2,5.4-0.6,8.1-1l0.9,1.7
		c-2.9,0.4-5.9,0.7-8.9,0.9L408.3,369.8z M440.6,360.6l4.2,2.1c-2.5,1.1-5.2,2.1-7.9,3.1l-2.1-2.4
		C436.8,362.5,438.7,361.6,440.6,360.6z M430.6,365l1.9,2.2c-3.5,1-7.2,1.9-10.9,2.6l-0.9-1.9C424.1,367.1,427.4,366.1,430.6,365z
		 M456.4,356.4c-2.2,1.5-4.5,2.8-7,4.1l-4.6-2.3c2.1-1.3,4.1-2.8,6-4.3l6.1,2.1C456.8,356.1,456.6,356.2,456.4,356.4z M359.4,360.6
		c1.9,1,3.8,1.9,5.8,2.7l-2.1,2.4c-2.7-0.9-5.3-1.9-7.9-3.1L359.4,360.6z M383.6,368.7c2.7,0.5,5.4,0.8,8.1,1l0,1.6
		c-3-0.2-6-0.5-8.9-0.9L383.6,368.7z M378.4,369.8c-3.7-0.7-7.4-1.5-10.9-2.6l1.9-2.2c3.2,1.1,6.5,2.1,10,2.9L378.4,369.8z
		 M349.2,353.9c1.8,1.5,3.8,2.9,6,4.3l-4.6,2.3c-2.7-1.4-5.2-2.9-7.5-4.5L349.2,353.9z M468.8,345.4l-8.7-1.6c0.7-1,1.3-2.1,1.9-3.2
		l10.3-0.1C471.3,342.2,470.1,343.8,468.8,345.4z M474.5,336.4l-10.7,0.1c0.4-1,0.7-1.9,0.9-2.9l11.3-1.4
		C475.7,333.6,475.2,335,474.5,336.4z M477.4,323.2c0,1.6-0.1,3.1-0.4,4.6l-11.4,1.4c0.2-1.3,0.3-2.6,0.3-3.9c0-0.3,0-0.7,0-1
		l11.5-2.2C477.4,322.5,477.4,322.9,477.4,323.2z M465.5,320.1c-0.2-1-0.4-2-0.7-3l10.8-4.4c0.6,1.7,1.1,3.5,1.4,5.2L465.5,320.1z
		 M463.5,313.2c-0.4-1-0.9-2-1.4-3l9.1-6c1.1,1.5,2,3.1,2.8,4.7L463.5,313.2z M459.9,306.5c-0.7-1-1.4-2-2.2-3l7.8-6.1
		c1.1,1.1,2.2,2.2,3.1,3.4L459.9,306.5z M454.9,300.5c-0.6-0.7-1.3-1.3-2-1.9l6.2-6.6c1.2,0.9,2.3,1.7,3.3,2.6L454.9,300.5z
		 M449.7,295.8c-1.2-0.9-2.4-1.8-3.6-2.6l4.9-6.4c1.6,0.9,3.1,1.8,4.6,2.8L449.7,295.8z M442.5,291c-1.1-0.6-2.2-1.2-3.4-1.8l4-6.2
		c1.4,0.6,2.7,1.2,4.1,1.8L442.5,291z M435.3,287.4c-1.5-0.6-3-1.2-4.6-1.8l3.5-5.9c1.7,0.5,3.3,1.1,5,1.7L435.3,287.4z
		 M426.6,284.3c-1.4-0.4-2.9-0.8-4.3-1.2l2.1-5.9c1.9,0.4,3.8,0.8,5.6,1.3L426.6,284.3z M418.2,282.2c-1.9-0.4-3.8-0.7-5.8-0.9
		l0.7-5.8c2.4,0.3,4.8,0.6,7.2,1L418.2,282.2z M408.3,280.4c-0.2-0.2-0.4-0.4-0.6-0.5c0.3-0.8,0.4-1.6,0.4-2.5
		c0-0.9-0.2-1.7-0.4-2.5c0.4,0,0.8,0.1,1.3,0.1L408.3,280.4z M403.9,277.5c0,1.1-0.4,2.1-1.2,2.8c-0.6,0.6-0.8,1.5-0.5,2.3
		c0.3,0.8,1.1,1.3,1.9,1.3h0.5v8.4c0,1.6-0.8,3.1-2.2,4c-0.1,0-0.1,0.1-0.2,0.1l0,0c-1.4,1.1-3.3,1.1-4.7,0l0,0
		c-0.1,0-0.1-0.1-0.2-0.1c-1.4-0.9-2.2-2.4-2.2-4v-8.4h0.5c0.9,0,1.6-0.5,1.9-1.3c0.3-0.8,0.1-1.7-0.5-2.3c-0.8-0.7-1.2-1.7-1.2-2.8
		c0-2.2,1.8-4,4.1-3.9C402.2,273.7,403.9,275.4,403.9,277.5z M392.3,280c-0.2,0.1-0.4,0.3-0.6,0.5l-0.6-5.4c0.4,0,0.8-0.1,1.3-0.1
		c-0.3,0.8-0.4,1.6-0.4,2.5C391.9,278.4,392,279.2,392.3,280z M386.9,275.5l0.7,5.8c-1.9,0.2-3.9,0.6-5.8,0.9l-2-5.8
		C382.1,276,384.5,275.7,386.9,275.5z M375.6,277.2l2.1,5.9c-1.5,0.4-2.9,0.7-4.3,1.2l-3.4-5.7C371.8,278.1,373.7,277.6,375.6,277.2
		z M365.8,279.8l3.5,5.9c-1.6,0.6-3.1,1.2-4.6,1.8l-3.9-6C362.5,280.8,364.1,280.3,365.8,279.8z M356.9,283l4,6.2
		c-1.1,0.6-2.3,1.2-3.4,1.8l-4.7-6.1C354.1,284.2,355.5,283.6,356.9,283z M349,286.8l4.9,6.4c-1.3,0.8-2.5,1.7-3.6,2.6l-5.9-6.3
		C345.9,288.6,347.4,287.7,349,286.8z M340.9,292l6.2,6.6c-0.7,0.6-1.4,1.3-2,2l-7.5-5.9C338.6,293.7,339.8,292.8,340.9,292z
		 M334.5,297.5l7.8,6.1c-0.8,1-1.5,2-2.2,3l-8.8-5.7C332.3,299.7,333.4,298.6,334.5,297.5z M328.8,304.2l9.1,5.9c-0.5,1-1,2-1.4,3
		l-10.5-4.3C326.8,307.3,327.7,305.7,328.8,304.2z M324.4,312.8l10.8,4.4c-0.3,1-0.5,2-0.6,3L323,318
		C323.3,316.2,323.8,314.5,324.4,312.8z M334.1,324.3c0,0.3,0,0.7,0,1c0,1.3,0.1,2.6,0.3,3.9l-11.4-1.4c-0.2-1.5-0.4-3.1-0.4-4.6
		c0-0.4,0-0.7,0-1.1L334.1,324.3z M335.2,333.5c0.3,1,0.6,1.9,0.9,2.9l-10.7-0.1c-0.6-1.4-1.1-2.8-1.6-4.2L335.2,333.5z M338,340.6
		c0.6,1.1,1.2,2.1,1.9,3.2l-8.7,1.6c-1.3-1.6-2.5-3.2-3.5-4.9L338,340.6z M400,249.4c33.1,0,62.1,11.9,78,29.8
		c-18.9-14.9-47.4-23.9-78-23.9s-59.1,9-78,23.9C337.9,261.4,366.9,249.4,400,249.4z M309.3,306.4c0.7-6.8,3.8-13.1,8.5-17.9
		c17.5-17.8,48.5-29,82.2-29c33.7,0,64.7,11.2,82.2,29c4.8,4.9,7.9,11.2,8.5,17.9c0.1,1.4,0.2,2.7,0.2,4.1c0,4.5-0.7,8.8-2.1,13
		l-0.5-7.4c-0.1-1.2-1.1-2-2.2-1.9c-1.2,0.1-2,1.1-1.9,2.2l0.5,7.6c0.1,1.1,1,2,2.1,2c0,0,0.1,0,0.1,0c0.5,0,0.9-0.3,1.3-0.6
		c-3,8-8.3,15.4-15.5,21.8c5.7-7.2,9-15.4,9-24c0-28.1-34-51.2-77.4-52.6c-1.1-0.7-2.5-1.1-3.9-1.2c-1.7-0.1-3.2,0.4-4.6,1.2
		c-2.4,0.1-4.8,0.2-7.2,0.4c-4,0.4-8.1,0.9-12,1.7c-3.5,0.7-7,1.5-10.4,2.5c-3.1,0.9-6.3,2-9.3,3.2c-2.9,1.2-5.7,2.4-8.3,3.8
		c-3.1,1.6-6,3.4-8.6,5.2c-2.6,1.8-5,3.7-7.1,5.7c-2.4,2.2-4.5,4.5-6.3,6.9c-2.2,2.9-4,6-5.3,9.1c-1.9,4.5-2.9,9.3-2.9,14
		c0,2.3,0.2,4.7,0.7,6.9c1.2,6,4,11.7,8.1,16.9c-7.1-6.4-12.4-13.7-15.3-21.7c0.3,0.3,0.8,0.5,1.3,0.6c0,0,0.1,0,0.1,0
		c1.1,0,2-0.8,2.1-2l0.5-7.6c0.1-1.2-0.8-2.1-1.9-2.2c-1.2-0.1-2.1,0.8-2.2,1.9l-0.5,7.4c-1.4-4.2-2.1-8.5-2.1-13
		C309.1,309.2,309.2,307.8,309.3,306.4z M517.5,313.2c0-0.2,0-1.1,0-1.1c-0.4-20.1-12.7-38.9-34.8-53.1c-22.1-14.2-51.5-22-82.8-22
		s-60.6,7.8-82.8,22c-22,14.1-34.3,32.9-34.8,53.1c0,0,0,0.9,0,1.1c0,3.8,0.4,7.5,1.2,11.1c1.5,7.7,4.5,15.3,8.7,22.6
		c2.8,20.8,15.2,40,35,54c19.9,14.2,45.7,22,72.7,22c26.9,0,52.7-7.8,72.7-22c19.8-14.1,32.2-33.3,35-54c4.2-7.3,7.2-14.9,8.7-22.6
		C517.1,320.7,517.5,317,517.5,313.2z M400,241.2c62.2,0,112.9,32,113.4,71.5c0,3.4-0.4,6.9-1,10.3c-7.6,35.1-55,62.2-112.3,62.2
		S295.2,358.1,287.7,323c-0.7-3.4-1-6.9-1-10.3C287.1,273.2,337.8,241.2,400,241.2z M493,359.9c-3.8,4.2-8,8.1-12.7,11.9
		c-22.1,17.6-50.6,27.3-80.3,27.3s-58.3-9.7-80.3-27.3c-4.7-3.7-8.9-7.7-12.7-11.9c3.1,2.6,6.5,5.1,10.2,7.5
		c22.1,14.2,51.5,22,82.8,22s60.6-7.8,82.8-22C486.5,365,489.9,362.5,493,359.9z M470.2,397.6c-19.2,13.7-44.2,21.2-70.2,21.2
		c-26.1,0-51-7.5-70.2-21.2c-15.6-11.1-26.3-25.4-31.1-41.2c5.1,6.7,11.2,12.9,18.4,18.6c22.8,18.2,52.3,28.2,82.9,28.2
		s60.1-10,82.9-28.2c7.2-5.7,13.3-12,18.4-18.6C496.6,372.1,485.8,386.5,470.2,397.6z M343.4,280.5c0.3,0.8,1.1,1.3,1.9,1.3
		c0.3,0,0.5-0.1,0.8-0.2c1.1-0.4,1.6-1.7,1.1-2.7l-2.1-5c-0.4-1.1-1.7-1.6-2.7-1.1c-1.1,0.4-1.6,1.7-1.1,2.7L343.4,280.5z
		 M453.9,281.7c0.3,0.1,0.5,0.2,0.8,0.2c0.8,0,1.6-0.5,1.9-1.3l2.1-5c0.4-1.1-0.1-2.3-1.1-2.7c-1.1-0.4-2.3,0.1-2.7,1.1l-2.1,5
		C452.3,280,452.8,281.2,453.9,281.7z M396.3,266.4h7.3c1.2,0,2.1-0.9,2.1-2.1c0-1.2-0.9-2.1-2.1-2.1h-7.3c-1.2,0-2.1,0.9-2.1,2.1
		C394.3,265.5,395.2,266.4,396.3,266.4z"/>
</g>
</svg>
